<svg width="40" height="40" viewBox="0 0 40 40" fill="none" xmlns="http://www.w3.org/2000/svg">
<path fill-rule="evenodd" clip-rule="evenodd" d="M0 40V0H40V40H0ZM8.64213 27.3216C12.3342 30.5757 16.965 31.7021 20.6571 31.7021C27.1026 31.7021 31.483 28.448 31.7333 24.2553C31.7333 19.1865 26.9148 17.9975 21.3454 17.3092C21.1427 17.288 20.9418 17.2673 20.7429 17.2467C16.828 16.8427 13.7109 16.521 13.7109 14.5558C13.7109 13.6797 15.5257 11.8023 19.7184 11.8023C22.7221 11.8023 25.4756 12.741 27.7909 14.8061L30.3566 11.3643C27.3529 8.79861 23.8485 7.67221 19.4681 7.67221C13.8987 7.67221 8.82987 10.4256 8.82987 14.6183C8.82987 19.9677 14.6029 20.8141 19.1623 21.4826C19.573 21.5428 19.9731 21.5941 20.3703 21.6395C23.8621 22.0387 26.9148 22.3876 26.9148 24.5682C26.9148 25.6946 25.5381 27.5719 20.4693 27.5719C14.8999 27.5719 11.2078 23.8799 11.2078 23.8799L8.64213 27.3216Z" fill="#FEFEFE"/>
</svg>
