<svg width="778" height="75" viewBox="0 0 778 75" fill="none" xmlns="http://www.w3.org/2000/svg">
<g clip-path="url(#clip0_67_3043)">
<path d="M100.6 36.9C100.6 30.7 104.3 24 112.4 24C118.3 24 123.8 28.1 123.5 36.9C123.5 45.7 117.9 49.8 112.4 49.8C104.3 49.8 100.6 43.1 100.6 36.9Z" fill="black"/>
<path d="M262.4 49.5999C268.917 49.5999 274.2 43.9587 274.2 36.9999C274.2 30.0411 268.917 24.3999 262.4 24.3999C255.883 24.3999 250.6 30.0411 250.6 36.9999C250.6 43.9587 255.883 49.5999 262.4 49.5999Z" fill="black"/>
<path d="M401.1 36.9C401.1 30.7 404.8 24 412.9 24C418.4 24 424 28.1 424 36.9C424 45.7 418.4 49.8 412.9 49.8C404.8 49.8 401.1 43.1 401.1 36.9Z" fill="black"/>
<path fill-rule="evenodd" clip-rule="evenodd" d="M0 0V75H450.6V0H0ZM37 56.2C31.1 56.2 23.7 54.4 17.8 49.2L21.9 43.7C21.9 43.7 27.8 49.6 36.7 49.6C44.8 49.6 47 46.6 47 44.8C47 41.3154 42.1217 40.7578 36.5418 40.1199C36.1969 40.0805 35.8493 40.0408 35.5 40C35.2076 39.9565 34.9112 39.9131 34.6114 39.8691C27.3254 38.8009 18.1 37.4483 18.1 28.9C18.1 22.2 26.2 17.8 35.1 17.8C42.1 17.8 47.7 19.6 52.5 23.7L48.4 29.2C44.7 25.9 40.3 24.4 35.5 24.4C28.8 24.4 25.9 27.4 25.9 28.8C25.9 31.9405 30.8811 32.4545 37.1372 33.1002C37.455 33.133 37.7761 33.1662 38.1 33.2C47 34.3 54.7 36.2 54.7 44.3C54.3 51 47.3 56.2 37 56.2ZM129.7 55.4H122.3V51C119.7 54 115.6 56.2 110.5 56.2C99.8 56.2 92 47.7 92 37C92 26.3 99.8 17.8 110.5 17.8C115.7 17.8 119.4 19.6 122.3 23V18.6H129.7V55.4ZM204.3 55.4H197V37C197 29.2 192.6 24.4 186.3 24.4C180 24.4 174.8 29.2 174.8 38.1V55.5H167.4V18.5H174.4V24.8C176.6 20.4 182.2 17.8 187.3 17.8C195.8 17.8 204.3 23 204.3 35.9V55.4ZM261.3 56.2C250.6 56.2 242.1 47.7 242.1 37C242.1 26.3 250.6 17.8 261.3 17.8C272 17.8 280.5 26.3 280.5 37C280.6 47.7 272.1 56.2 261.3 56.2ZM360 33.3V55.5H352.6V33.3C352.6 24.8 348.5 24.1 346.7 24.1C345.2 24.1 340 24.5 340 33.7V55.5H332.6V33.3C332.6 24.8 328.5 24.1 326.7 24.1C325.2 24.1 320 24.5 320 33.7V55.5H312.6V18.5H319.6V22.6C321.4 18.5 325.9 17.8 328.5 17.8C332.6 17.8 335.9 19.6 338.1 23.7C340.7 18.9 345.5 17.8 348.4 17.8C353.7 17.7 360.4 21.1 360 33.3ZM430.3 55.4H422.9V51C420.3 54 416.2 56.2 411.1 56.2C400.4 56.2 392.6 47.7 392.6 37C392.6 26.3 400.4 17.8 411.1 17.8C416.3 17.8 420 19.6 422.9 23V18.6H430.3V55.4Z" fill="black"/>
<path d="M678.35 15.875C681.146 15.875 683.412 13.7414 683.412 11.1094C683.412 8.47739 681.146 6.34375 678.35 6.34375C675.554 6.34375 673.287 8.47739 673.287 11.1094C673.287 13.7414 675.554 15.875 678.35 15.875Z" fill="black"/>
<path d="M682.4 55.7999H674.3V19.5H682.4V55.7999Z" fill="black"/>
<path d="M487.6 55.8V7.40002H479.5V55.8H487.6Z" fill="black"/>
<path fill-rule="evenodd" clip-rule="evenodd" d="M534.5 36.6C534.5 27.2067 528.62 18.5 518.6 18.5C508.545 18.5 501.3 27.1256 501.3 36.8C501.3 46.5899 508.038 56.1 518.6 56.1C524.499 56.1 529.35 53.8497 533.4 49.8L528.2 44.6C525.677 47.123 522.611 49.1 519 49.1C514.21 49.1 509.4 44.8506 509.4 39.9H534.5V36.6ZM509.8 34.3C509.8 29.8289 514.227 25.9 518.6 25.9C522.891 25.9 526.4 30.11 526.4 34.3H509.8Z" fill="black"/>
<path fill-rule="evenodd" clip-rule="evenodd" d="M580.7 19.4V55.8H572.9V51C571.8 52.5 570.3 54 568.5 55.1C566.7 56.2 564.4 56.6 562.2 56.6C560 56.6 557.8 56.2 555.5 55.1C555.401 55.0394 555.301 54.9787 555.202 54.9178C553.492 53.8762 551.718 52.7952 550.3 51C548.8 49.2001 547.7 47.3 547 45.1C546.3 42.9 545.9 40.3 545.9 37.7001C545.9 35.1001 546.3 32.5 547 30.3C547.7 28.1 548.8 26.2 550.3 24.4C551.8 22.6 553.6 21.4 555.5 20.3C557.7 19.2 559.9 18.8 562.2 18.8C564.8 18.8 567 19.5 569.2 20.6C569.9 21 570.7 21.7 571.4 22.4C571.8 22.8 572.5 23.5 572.9 24.2001V19.4H580.7ZM553.7 37.3C553.7 38.5561 553.981 39.8121 554.248 41.0094L554.249 41.0116L554.249 41.0126L554.249 41.0139C554.301 41.245 554.352 41.4738 554.4 41.7001C554.684 43.0238 555.415 44.1687 556.085 45.2194L556.2 45.4001C556.867 46.4475 557.896 47.1322 559.029 47.886L559.2 48C560.3 48.7001 561.8 49.1 563.3 49.1C564.8 49.1 566.3 48.7001 567.4 48C568.5 47.3 569.6 46.5 570.4 45.4001L570.45 45.3231L570.484 45.2699C570.538 45.1852 570.593 45.1004 570.648 45.0152C571.28 44.0385 571.935 43.0254 572.2 41.7001C572.6 40.2001 572.9 38.7001 572.9 37.3C572.9 36.0906 572.602 34.7318 572.327 33.4817C572.284 33.2848 572.241 33.0906 572.2 32.9001C571.8 31.4001 571.1 30.3001 570.4 29.2001C569.734 28.1526 568.705 27.4679 567.572 26.7142L567.4 26.6C566.2 25.8001 564.8 25.5 563.3 25.5C561.8 25.5 560.7 25.9 559.2 26.6C558.1 27.3001 557 28.1 556.2 29.2001C556.145 29.2878 556.088 29.3756 556.031 29.4636L555.953 29.5849C555.321 30.5616 554.665 31.5747 554.4 32.9001C554.338 33.2135 554.271 33.527 554.204 33.8396C553.951 35.0224 553.7 36.1929 553.7 37.3Z" fill="black"/>
<path d="M596.3 55.7999H604.4L605.6 36.6999C605.6 31.1909 609.01 26.0999 614.8 26.0999C615.645 26.0999 616.391 26.2891 617 26.4999V18.3999H614.8C610.236 18.3999 606 21.0997 604.4 25.4999V19.5H596.3V55.7999Z" fill="black"/>
<path d="M636.2 24C638.324 20.2837 642.125 18.5 646.9 18.5C654.708 18.5 659 25.0534 659 32.5L659 55.7125H650.5L650.5 33.3C650.5 30.0583 648.672 25.2 643.9 25.2C638.945 25.2 636.1 29.2882 636.1 34L636.1 55.8125H628L628 18.5H635.8L636.2 24Z" fill="black"/>
<path d="M716.7 18.5C711.925 18.5 708.124 20.2837 706 24L705.6 18.5H697.8L697.8 55.8125H705.9L705.9 34C705.9 29.2882 708.745 25.2 713.7 25.2C718.472 25.2 720.3 30.0583 720.3 33.3L720.3 55.7125H728.8L728.8 32.5C728.8 25.0534 724.508 18.5 716.7 18.5Z" fill="black"/>
<path fill-rule="evenodd" clip-rule="evenodd" d="M769.1 19.4H776.9C776.9 19.4 777.094 44.4688 777.094 53.625C777.094 63.5 768.202 68.6999 759 68.6999C753.968 68.6999 748.51 67.4657 744.5 64.2999L748.2 57.5999C751.724 59.6139 754.662 60.8999 758.9 60.8999C764.186 60.8999 768.218 59.0312 768.865 53.625C769 52.5 769.094 50.625 769.094 49.5961C766.473 53.1651 762.858 55.1875 758.4 55.1875C749.375 55.1875 741.625 46.625 741.625 36.5625C741.625 27.2406 748.464 18.375 758.4 18.375C762.348 18.375 767.039 19.518 769.1 23.125V19.4ZM750.563 37.3C750.563 42.8469 753.678 47.6562 759.891 47.6562C765.9 47.6562 769.625 42.7371 769.625 37.3C769.625 31.7763 765.955 26.2812 759.797 26.2812C753.798 26.2812 750.563 31.895 750.563 37.3Z" fill="black"/>
</g>
<defs>
<clipPath id="clip0_67_3043">
<rect width="777.5" height="75" fill="white"/>
</clipPath>
</defs>
</svg>
