<svg width="24" height="25" viewBox="0 0 24 25" fill="none" xmlns="http://www.w3.org/2000/svg">
<path d="M12.0004 0.795916C5.37095 0.795916 0 6.17136 0 12.7964C0 18.1013 3.43813 22.5977 8.20305 24.184C8.80533 24.2973 9.02283 23.926 9.02283 23.605C9.02283 23.32 9.01608 22.5662 9.01158 21.5657C5.67171 22.2887 4.96818 19.9524 4.96818 19.9524C4.42141 18.5693 3.63238 18.1981 3.63238 18.1981C2.54634 17.4563 3.71864 17.472 3.71864 17.472C4.92168 17.5538 5.55471 18.7058 5.55471 18.7058C6.625 20.5419 8.36281 20.0109 9.05059 19.7019C9.15559 18.9286 9.46835 18.3968 9.80886 18.1006C7.14477 17.7998 4.34341 16.7685 4.34341 12.1701C4.34341 10.8568 4.80843 9.78725 5.57721 8.94722C5.44445 8.64646 5.03794 7.42391 5.68296 5.77085C5.68296 5.77085 6.68725 5.45059 8.98308 7.00165C9.94387 6.73539 10.9639 6.60263 11.9832 6.59588C13.0032 6.60263 14.0225 6.73614 14.9833 7.00165C17.2656 5.45059 18.2692 5.77085 18.2692 5.77085C18.9135 7.42391 18.5069 8.64571 18.3899 8.94722C19.1512 9.78725 19.6162 10.8575 19.6162 12.1701C19.6162 16.779 16.8111 17.7953 14.144 18.0886C14.561 18.4478 14.9518 19.1866 14.9518 20.3079C14.9518 21.9129 14.9368 23.206 14.9368 23.5968C14.9368 23.9088 15.1468 24.2838 15.7648 24.163C20.565 22.5932 23.9994 18.0931 23.9994 12.7956C23.9994 6.17062 18.6284 0.795166 11.9989 0.795166L12.0004 0.795916Z" fill="black"/>
</svg>
