<svg width="32" height="32" viewBox="0 0 32 32" fill="none" xmlns="http://www.w3.org/2000/svg">
<g clip-path="url(#clip0_103_2746)">
<path fill-rule="evenodd" clip-rule="evenodd" d="M0 32V0H32V32H0ZM6.91371 21.8573C9.86738 24.4605 13.572 25.3617 16.5257 25.3617C21.6821 25.3617 25.1864 22.7584 25.3867 19.4043C25.3867 15.3492 21.5319 14.398 17.0763 13.8473C16.9142 13.8304 16.7534 13.8138 16.5943 13.7974C13.4624 13.4742 10.9687 13.2168 10.9687 11.6446C10.9687 10.9437 12.4205 9.44187 15.7747 9.44187C18.1777 9.44187 20.3804 10.1928 22.2327 11.8449L24.2853 9.09144C21.8823 7.03889 19.0788 6.13777 15.5745 6.13777C11.1189 6.13777 7.06389 8.3405 7.06389 11.6947C7.06389 15.9742 11.6823 16.6513 15.3299 17.1861C15.6584 17.2342 15.9784 17.2753 16.2963 17.3116C19.0897 17.6309 21.5319 17.9101 21.5319 19.6546C21.5319 20.5557 20.4305 22.0576 16.3755 22.0576C11.9199 22.0576 8.96626 19.1039 8.96626 19.1039L6.91371 21.8573Z" fill="#222222"/>
</g>
<defs>
<clipPath id="clip0_103_2746">
<rect width="32" height="32" fill="white"/>
</clipPath>
</defs>
</svg>
