<svg width="208" height="20" viewBox="0 0 208 20" fill="none" xmlns="http://www.w3.org/2000/svg">
<g clip-path="url(#clip0_99_1489)">
<path d="M26.8266 9.84C26.8266 8.18667 27.8132 6.4 29.9732 6.4C31.5466 6.4 33.0132 7.49333 32.9332 9.84C32.9332 12.1867 31.4399 13.28 29.9732 13.28C27.8132 13.28 26.8266 11.4933 26.8266 9.84Z" fill="#FEFEFE"/>
<path d="M69.9732 13.2266C71.7111 13.2266 73.1199 11.7223 73.1199 9.86664C73.1199 8.01096 71.7111 6.50664 69.9732 6.50664C68.2354 6.50664 66.8266 8.01096 66.8266 9.86664C66.8266 11.7223 68.2354 13.2266 69.9732 13.2266Z" fill="#FEFEFE"/>
<path d="M106.96 9.84C106.96 8.18667 107.947 6.4 110.107 6.4C111.573 6.4 113.067 7.49333 113.067 9.84C113.067 12.1867 111.573 13.28 110.107 13.28C107.947 13.28 106.96 11.4933 106.96 9.84Z" fill="#FEFEFE"/>
<path fill-rule="evenodd" clip-rule="evenodd" d="M0 0V20H120.16V0H0ZM9.86667 14.9867C8.29333 14.9867 6.32 14.5067 4.74667 13.12L5.84 11.6533C5.84 11.6533 7.41333 13.2267 9.78667 13.2267C11.9467 13.2267 12.5333 12.4267 12.5333 11.9467C12.5333 11.0174 11.2325 10.8687 9.74448 10.6986C9.6525 10.6881 9.55981 10.6775 9.46667 10.6667C9.3887 10.6551 9.30964 10.6435 9.22971 10.6318C7.28676 10.3469 4.82667 9.98622 4.82667 7.70667C4.82667 5.92 6.98667 4.74667 9.36 4.74667C11.2267 4.74667 12.72 5.22667 14 6.32L12.9067 7.78667C11.92 6.90667 10.7467 6.50667 9.46667 6.50667C7.68 6.50667 6.90667 7.30667 6.90667 7.68C6.90667 8.51746 8.23495 8.65455 9.90326 8.82673C9.988 8.83547 10.0736 8.84431 10.16 8.85333C12.5333 9.14667 14.5867 9.65333 14.5867 11.8133C14.48 13.6 12.6133 14.9867 9.86667 14.9867ZM34.5867 14.7733H32.6133V13.6C31.92 14.4 30.8267 14.9867 29.4667 14.9867C26.6133 14.9867 24.5333 12.72 24.5333 9.86667C24.5333 7.01333 26.6133 4.74667 29.4667 4.74667C30.8533 4.74667 31.84 5.22667 32.6133 6.13333V4.96H34.5867V14.7733ZM54.48 14.7733H52.5333V9.86667C52.5333 7.78667 51.36 6.50667 49.68 6.50667C48 6.50667 46.6133 7.78667 46.6133 10.16V14.8H44.64V4.93333H46.5067V6.61333C47.0933 5.44 48.5867 4.74667 49.9467 4.74667C52.2133 4.74667 54.48 6.13333 54.48 9.57333V14.7733ZM69.68 14.9867C66.8267 14.9867 64.56 12.72 64.56 9.86667C64.56 7.01333 66.8267 4.74667 69.68 4.74667C72.5333 4.74667 74.8 7.01333 74.8 9.86667C74.8267 12.72 72.56 14.9867 69.68 14.9867ZM96 8.88V14.8H94.0267V8.88C94.0267 6.61333 92.9333 6.42667 92.4533 6.42667C92.0533 6.42667 90.6667 6.53333 90.6667 8.98667V14.8H88.6933V8.88C88.6933 6.61333 87.6 6.42667 87.12 6.42667C86.72 6.42667 85.3333 6.53333 85.3333 8.98667V14.8H83.36V4.93333H85.2267V6.02667C85.7067 4.93333 86.9067 4.74667 87.6 4.74667C88.6933 4.74667 89.5733 5.22667 90.16 6.32C90.8533 5.04 92.1333 4.74667 92.9067 4.74667C94.32 4.72 96.1067 5.62667 96 8.88ZM114.747 14.7733H112.773V13.6C112.08 14.4 110.987 14.9867 109.627 14.9867C106.773 14.9867 104.693 12.72 104.693 9.86667C104.693 7.01333 106.773 4.74667 109.627 4.74667C111.013 4.74667 112 5.22667 112.773 6.13333V4.96H114.747V14.7733Z" fill="#FEFEFE"/>
<path d="M180.893 4.23333C181.639 4.23333 182.243 3.66436 182.243 2.9625C182.243 2.26064 181.639 1.69167 180.893 1.69167C180.148 1.69167 179.543 2.26064 179.543 2.9625C179.543 3.66436 180.148 4.23333 180.893 4.23333Z" fill="#FEFEFE"/>
<path d="M181.973 14.88H179.813V5.2H181.973V14.88Z" fill="#FEFEFE"/>
<path d="M130.027 14.88V1.97334H127.867V14.88H130.027Z" fill="#FEFEFE"/>
<path fill-rule="evenodd" clip-rule="evenodd" d="M142.533 9.76C142.533 7.25513 140.965 4.93333 138.293 4.93333C135.612 4.93333 133.68 7.23348 133.68 9.81333C133.68 12.424 135.477 14.96 138.293 14.96C139.867 14.96 141.16 14.3599 142.24 13.28L140.853 11.8933C140.18 12.5661 139.363 13.0933 138.4 13.0933C137.123 13.0933 135.84 11.9602 135.84 10.64H142.533V9.76ZM135.947 9.14667C135.947 7.95436 137.127 6.90667 138.293 6.90667C139.438 6.90667 140.373 8.02934 140.373 9.14667H135.947Z" fill="#FEFEFE"/>
<path fill-rule="evenodd" clip-rule="evenodd" d="M154.853 5.17335V14.88H152.773V13.6C152.48 14 152.08 14.4 151.6 14.6933C151.12 14.9867 150.507 15.0933 149.92 15.0933C149.333 15.0933 148.747 14.9867 148.133 14.6933C148.107 14.6772 148.08 14.661 148.054 14.6448C147.598 14.367 147.125 14.0787 146.747 13.6C146.347 13.12 146.053 12.6133 145.867 12.0267C145.68 11.44 145.573 10.7467 145.573 10.0533C145.573 9.36001 145.68 8.66668 145.867 8.08001C146.053 7.49335 146.347 6.98668 146.747 6.50668C147.147 6.02668 147.627 5.70668 148.133 5.41335C148.72 5.12001 149.307 5.01335 149.92 5.01335C150.613 5.01335 151.2 5.20001 151.787 5.49335C151.973 5.60001 152.187 5.78668 152.373 5.97335C152.48 6.08001 152.667 6.26668 152.773 6.45335V5.17335H154.853ZM147.653 9.94668C147.653 10.2816 147.728 10.6166 147.8 10.9358L147.8 10.9364L147.8 10.9367L147.8 10.937C147.814 10.9987 147.827 11.0597 147.84 11.12C147.916 11.473 148.111 11.7783 148.289 12.0585L148.32 12.1067C148.498 12.386 148.772 12.5686 149.074 12.7696L149.12 12.8C149.413 12.9867 149.813 13.0933 150.213 13.0933C150.613 13.0933 151.013 12.9867 151.307 12.8C151.6 12.6133 151.893 12.4 152.107 12.1067L152.12 12.0862L152.129 12.072C152.143 12.0494 152.158 12.0268 152.173 12.0041C152.341 11.7436 152.516 11.4734 152.587 11.12C152.693 10.72 152.773 10.32 152.773 9.94668C152.773 9.62415 152.694 9.26182 152.621 8.92846C152.609 8.87595 152.598 8.82415 152.587 8.77335C152.48 8.37335 152.293 8.08001 152.107 7.78668C151.929 7.50737 151.655 7.32477 151.352 7.12377L151.307 7.09335C150.987 6.88001 150.613 6.80001 150.213 6.80001C149.813 6.80001 149.52 6.90668 149.12 7.09335C148.827 7.28001 148.533 7.49335 148.32 7.78668C148.305 7.81009 148.29 7.8335 148.275 7.85697L148.254 7.8893C148.086 8.14976 147.911 8.41992 147.84 8.77335C147.823 8.85694 147.806 8.94054 147.788 9.02389C147.72 9.3393 147.653 9.65143 147.653 9.94668Z" fill="#FEFEFE"/>
<path d="M159.013 14.88H161.173L161.493 9.78664C161.493 8.31759 162.403 6.95997 163.947 6.95997C164.172 6.95997 164.371 7.01042 164.533 7.06664V4.90664H163.947C162.73 4.90664 161.6 5.62659 161.173 6.79997V5.2H159.013V14.88Z" fill="#FEFEFE"/>
<path d="M169.653 6.4C170.22 5.409 171.233 4.93333 172.507 4.93333C174.589 4.93333 175.733 6.68091 175.733 8.66667L175.733 14.8567H173.467L173.467 8.88C173.467 8.01556 172.979 6.72 171.707 6.72C170.385 6.72 169.627 7.81019 169.627 9.06667L169.627 14.8833H167.467L167.467 4.93333H169.547L169.653 6.4Z" fill="#FEFEFE"/>
<path d="M191.12 4.93333C189.847 4.93333 188.833 5.409 188.267 6.4L188.16 4.93333H186.08L186.08 14.8833H188.24L188.24 9.06667C188.24 7.81019 188.999 6.72 190.32 6.72C191.593 6.72 192.08 8.01556 192.08 8.88L192.08 14.8567H194.347L194.347 8.66667C194.347 6.68091 193.202 4.93333 191.12 4.93333Z" fill="#FEFEFE"/>
<path fill-rule="evenodd" clip-rule="evenodd" d="M205.093 5.17335H207.173C207.173 5.17335 207.225 11.8583 207.225 14.3C207.225 16.9333 204.854 18.32 202.4 18.32C201.058 18.32 199.603 17.9909 198.533 17.1466L199.52 15.36C200.46 15.897 201.243 16.24 202.373 16.24C203.783 16.24 204.858 15.7417 205.031 14.3C205.067 14 205.092 13.5 205.092 13.2256C204.393 14.1774 203.429 14.7167 202.24 14.7167C199.833 14.7167 197.767 12.4333 197.767 9.75C197.767 7.26416 199.591 4.9 202.24 4.9C203.293 4.9 204.544 5.20479 205.093 6.16667V5.17335ZM200.15 9.94668C200.15 11.4258 200.981 12.7083 202.638 12.7083C204.24 12.7083 205.233 11.3966 205.233 9.94668C205.233 8.47367 204.255 7.00833 202.613 7.00833C201.013 7.00833 200.15 8.50532 200.15 9.94668Z" fill="#FEFEFE"/>
</g>
<defs>
<clipPath id="clip0_99_1489">
<rect width="207.333" height="20" fill="white"/>
</clipPath>
</defs>
</svg>
