<svg viewBox="0 0 41 15" xmlns="http://www.w3.org/2000/svg"><path d="M17.9 1.392c1.329.18 3.257.456 3.974.324.717-.132 1.328-.216 1.752-.144.423.072.576.168.352.216-.223.048-.446.18-.435.347.012.168.2.324.811.372.612.048 4.326.096 6.196-.192 1.869-.288 3.632-.168 3.632-.168.47-.216 1.516-.9 2.01-1.259.494-.36 1.41-.911 2.422-.887 1.01.024 1.352.491 1.128.54-.223.047-.364.275-.493.659a3 3 0 0 1-.929 1.331c-.529.444-1.234.768-1.234.768.482.18 1.14.587 1.728.983a5.762 5.762 0 0 0 1.81.767c.423.084.494.252.188.252-.305 0-.952.06-2.386-.3-1.434-.36-2.716-1.03-3.362-1.295-.647-.263-.858-.18-1.246-.12s-1.14.312-2.01.756c-.87.444-2.175 1.14-3.762 1.93-1.587.792-4.75 2.135-7.16 2.471-2.41.336-4.901.456-4.901.456s1.07 1.09 1.28 1.403c.212.312.718.503 1.2 1.115s1.387.995 1.88 1.26c.495.263 1.33 1.186 1.306 1.39-.024.204-.294.276-.717.48-.424.204-.318.192-.518.036s-.329-.168-.517-.108c-.188.06-.306.072-.364-.084-.06-.156-.106-.216-.235-.156-.13.06-.26.084-.306-.06-.047-.144-.177-.12-.317-.024-.142.096-.2.156-.294-.072-.094-.228-.282-.288-.482-.252-.2.036-.259.132-.318-.107-.058-.24-.305-.36-.635-.336-.329.024-.387.144-.434-.048-.047-.192-.165-.288-.306-.288s-.153.036-.247-.144-.176-.228-.364-.24c-.188-.012-.177.036-.424-.264a1.21 1.21 0 0 0-.787-.407c-.165-.012-.282.024-.294-.192-.012-.216-.094-.456-.247-.588-.153-.132-.823-.707-.976-1.031-.153-.324-.4-.384-.634-.42-.236-.036-.189-.156-.06-.156.13 0 .165-.036 0-.288-.164-.251-.458-.959-.458-.959-.047.228-.14.432-.352.84-.212.407-.188.863-.27.91-.083.049-.165.169-.165.517 0 .347-.083 1.21-.153 1.654-.07.444-.07.876-.341.672-.27-.204-.729-.564-.8-.911-.07-.348-.082-.264-.2-.384-.117-.12-.176-.108-.035-.216s.153-.551.036-.708c-.118-.155-.247-.131-.012-.251s.164-.636.035-.768c-.13-.132-.164-.216.082-.312.247-.096.283-.42.236-.54-.047-.12-.141-.131-.095-.18.048-.047.2-.107.177-.43-.024-.325 0-.792 0-.792s-1.61-.732-2.563-1.283C6.345 5.925 5.111 5.12 4.17 4.846c-.94-.276-2.668-.444-2.95-.48-.283-.036-.377-.072-.412-.252-.035-.18-.14-.312-.27-.312s-.2.012-.247-.168c-.047-.18-.07-.3-.188-.287-.118.012-.141-.144-.035-.324.105-.18.387-.324.387-.324 0-.228.2-.444.6-.6.4-.156.74-.084.858-.144.118-.06.259-.203.47-.191.212.012.67-.096 1.34-.264S5.3 1.368 5.51 1.224c.212-.144.482-.204.6-.084.117.12 1.609-.003 3.22-.072 2.234-.096 7.242.144 8.57.324Z"/></svg>