<svg viewBox="0 0 12 12" xmlns="http://www.w3.org/2000/svg"><path d="M3.341 6a2.674 2.674 0 0 1 2.67-2.669c1.459 0 2.668 1.21 2.668 2.669 0 1.48-1.209 2.669-2.669 2.669A2.66 2.66 0 0 1 3.341 6Zm2.67 1.668A1.66 1.66 0 0 0 7.678 6c0-.917-.751-1.668-1.669-1.668h-.062c.042.125.062.23.062.334A1.33 1.33 0 0 1 4.676 6c-.125 0-.23 0-.334-.042V6c0 .938.73 1.668 1.668 1.668Zm-4.025-4.65c.98-.917 2.335-1.689 4.024-1.689 1.669 0 3.024.772 4.004 1.69a8.124 8.124 0 0 1 1.94 2.73.748.748 0 0 1 0 .522 8.55 8.55 0 0 1-1.94 2.732c-.98.917-2.335 1.668-4.004 1.668-1.689 0-3.044-.75-4.024-1.668A8.549 8.549 0 0 1 .046 6.27a.747.747 0 0 1 0-.521c.314-.75.96-1.835 1.94-2.732ZM6.01 2.33c-1.376 0-2.48.626-3.336 1.418A7.457 7.457 0 0 0 1.027 6a7.51 7.51 0 0 0 1.647 2.273c.855.792 1.96 1.397 3.336 1.397 1.356 0 2.46-.605 3.316-1.397A7.512 7.512 0 0 0 10.973 6a7.459 7.459 0 0 0-1.647-2.252C8.47 2.956 7.366 2.33 6.01 2.33Z"/></svg>