<svg width="152" height="148" viewBox="0 0 152 148" fill="none" xmlns="http://www.w3.org/2000/svg">
<g filter="url(#filter0_d_746_423)">
<path d="M100.392 17.2347C100.311 17.2982 100.222 17.3567 100.147 17.4302C95.5515 21.8584 90.9679 26.3001 86.3592 30.715C83.4142 33.5347 80.4325 36.3159 77.4659 39.1139M100.489 17.1211C100.432 16.777 100.686 17.3867 100.489 17.1211C100.503 17.203 100.6 17.0526 100.489 17.1211C100.553 17.1729 100.389 17.1829 100.489 17.1211C100.822 17.5154 100.09 16.7921 100.489 17.1211ZM34.8485 80.2229C26.453 88.5466 18.1276 96.9387 9.85067 105.381C8.63294 106.624 7.34003 107.793 6.33611 109.245C5.41571 110.574 4.6991 111.973 4.3884 113.563C4.00421 115.524 4.25978 117.385 5.247 119.142C5.69968 119.947 6.34446 120.584 6.93078 121.278C8.5277 123.173 10.2415 124.953 12.0322 126.662C15.4917 129.961 18.9595 133.252 22.4239 136.544C23.2157 137.296 23.9239 138.155 24.8276 138.764C27.1061 140.299 29.6184 140.189 32.1424 139.586C33.7143 139.21 35.0189 138.273 36.3335 137.371C37.7968 136.367 38.9794 135.056 40.2606 133.855C44.3916 129.99 48.3004 125.895 52.4864 122.082C55.7955 119.067 58.8691 115.804 62.073 112.677C65.2651 109.56 68.4289 106.415 71.6044 103.281C71.8215 103.068 89.9706 85.6116 97.1083 78.6827C97.1735 78.6393 97.247 78.5859 97.3322 78.5207C97.8751 77.8609 98.5633 77.3564 99.178 76.7718C103.782 72.3886 108.357 67.977 112.855 63.4819C115.749 60.5888 118.496 57.5486 121.667 54.9277C127.117 50.4209 132.254 45.56 137.432 40.7459C139.076 39.2174 140.696 37.6639 142.39 36.189C143.635 35.1049 144.824 33.9439 145.859 32.6527C147.102 31.1025 147.917 29.3737 147.764 27.3157C147.662 25.9426 147.236 24.6865 146.466 23.5305C145.913 22.7003 145.171 22.0455 144.545 21.2888C140.098 15.9118 135.568 10.6048 131.061 5.27954C130.465 4.57462 129.792 3.92316 129.316 3.12804C129.02 2.63527 128.668 2.21766 128.215 1.87523C127.201 1.11184 126.033 0.682546 124.824 0.37853C122.444 -0.21948 120.122 -0.17939 117.883 1.01162C116.98 1.4927 116.29 2.1926 115.538 2.85075C113.794 4.37918 112.179 6.04292 110.427 7.56467C108.756 9.01459 107.214 10.6115 105.621 12.15C103.907 13.8037 102.201 15.4641 100.491 17.1228M17.4945 109.124C17.3325 109.019 17.1872 108.877 17.0569 108.732C15.5835 107.078 14.2288 105.326 12.829 103.612C12.7238 103.483 12.6369 103.338 12.5651 103.189C12.5167 103.089 12.4231 102.962 12.5551 102.86C12.6971 102.752 12.809 102.845 12.9059 102.951C13.3686 103.452 13.8463 103.941 14.2923 104.456C15.3547 105.682 16.4037 106.919 17.4544 108.156C17.6482 108.384 17.8587 108.61 17.9238 108.922C17.8603 109.168 17.715 109.268 17.4928 109.124H17.4945ZM130.741 23.3869C128.27 23.4119 126.426 21.6246 126.469 19.3528C126.456 17.0694 128.076 15.3672 130.286 15.3522C132.872 15.3338 134.723 16.9457 134.719 19.5332C134.718 21.7732 133.027 23.3652 130.739 23.3885L130.741 23.3869Z" fill="#FFCF0D"/>
<path d="M77.4641 39.1123C79.2732 40.7877 80.7181 42.7739 82.2298 44.7015C82.6107 45.1876 82.9615 45.7004 83.3273 46.1982C83.4476 46.3619 83.5812 46.5356 83.3741 46.7127C83.1703 46.8864 82.9932 46.7311 82.8596 46.5958C82.1346 45.8625 81.5049 45.0456 80.8551 44.2472C79.786 42.9326 78.7387 41.5996 77.6813 40.2766C77.4725 40.0143 77.3389 39.7103 77.1902 39.413C77.2002 39.2376 77.2687 39.1173 77.4658 39.1123H77.4641Z" fill="#453411"/>
<path d="M100.488 17.1211C100.745 17.1328 100.93 17.2614 101.111 17.4418C103.2 19.5232 105.041 21.815 106.793 24.182C106.991 24.4475 107.206 24.7065 107.263 25.0506C107.276 25.1324 107.366 25.2243 107.256 25.2928C107.156 25.3546 107.084 25.2627 107.021 25.2109C106.621 24.8819 106.261 24.5127 105.928 24.1185C104.717 22.6802 103.593 21.1702 102.297 19.8021C101.724 19.1958 101.182 18.561 100.631 17.9346C100.458 17.7375 100.322 17.5203 100.394 17.2347C100.426 17.1963 100.458 17.1578 100.491 17.1211H100.488Z" fill="#463511"/>
<path d="M35.333 79.7651C35.4566 79.7668 35.5618 79.7935 35.6503 79.9004C37.3508 81.9517 39.2417 83.8426 40.7902 86.0208C40.9372 86.2279 41.0491 86.4618 41.1777 86.6823C41.2112 86.7374 41.2329 86.7909 41.1744 86.841C41.1176 86.8894 41.0675 86.856 41.014 86.826C40.7568 86.6823 40.5864 86.4451 40.3826 86.243C38.7206 84.5943 37.3642 82.69 35.8859 80.8859C35.6303 80.5753 35.2845 80.3213 35.2144 79.8837C35.2528 79.8436 35.2929 79.8035 35.3313 79.7634L35.333 79.7651Z" fill="#463511"/>
<path d="M126.469 19.3529C126.456 17.0694 128.076 15.3672 130.286 15.3522C132.872 15.3338 134.723 16.9458 134.719 19.5333C134.718 21.7733 133.027 23.3652 130.739 23.3886C128.268 23.4136 126.424 21.6263 126.468 19.3545L126.469 19.3529ZM130.67 23.0545C132.862 23.1564 134.419 21.3407 134.412 19.5166C134.404 17.4135 132.67 15.6662 130.472 15.6729C128.36 15.6796 126.743 17.2765 126.745 19.3679C126.748 21.4325 128.474 23.0528 130.67 23.0545Z" fill="#FED946"/>
<path d="M17.9254 108.922C17.8619 109.168 17.7166 109.268 17.4945 109.124C17.3324 109.019 17.1871 108.877 17.0568 108.732C15.5835 107.078 14.2288 105.326 12.829 103.612C12.7237 103.483 12.6369 103.338 12.565 103.189C12.5166 103.089 12.4231 102.962 12.555 102.86C12.697 102.752 12.8089 102.845 12.9058 102.951C13.3685 103.452 13.8463 103.941 14.2923 104.456C15.3546 105.682 16.4037 106.92 17.4544 108.156C17.6481 108.384 17.8586 108.61 17.9237 108.922H17.9254Z" fill="#473611"/>
<path d="M130.669 23.0545C128.472 23.0545 126.747 21.4325 126.743 19.3678C126.74 17.2765 128.358 15.6796 130.47 15.6729C132.666 15.6662 134.4 17.4134 134.41 19.5165C134.419 21.3406 132.862 23.1563 130.669 23.0545ZM130.687 22.7855C132.635 22.8891 134.175 21.1552 134.135 19.5148C134.085 17.5287 132.491 15.9552 130.438 15.9401C128.676 15.9268 127.082 17.4619 127.059 19.3144C127.034 21.212 128.754 22.864 130.689 22.7872L130.687 22.7855Z" fill="#FEEEAB"/>
</g>
<g class="ds-explore__guidelines-part" filter="url(#filter1_d_746_423)">
<path d="M57.643 47.1804C60.4076 48.0223 62.9583 49.3369 65.479 50.715C65.5575 50.7568 65.641 50.7885 65.7228 50.8236C65.95 51.0224 66.1739 51.2245 66.4044 51.4183C68.2986 53.0119 70.3031 54.4651 72.3327 55.8699C74.4591 57.3416 76.4035 59.0304 78.4147 60.639C79.8796 61.8116 81.2076 63.153 82.6291 64.3824C85.544 66.9014 88.3687 69.5173 91.0113 72.3219C91.8315 73.1922 92.7536 73.9622 93.4702 74.9378C94.3037 76.072 95.1439 77.2112 96.2046 78.1567C96.2598 78.2068 96.3115 78.2669 96.35 78.3304C96.7108 78.9301 96.7659 78.9418 97.3305 78.5191C97.3171 79.0687 97.8082 79.2976 98.0822 79.65C99.5538 81.5376 101.293 83.188 102.851 84.9987C104.842 87.3122 106.75 89.6926 108.501 92.1999C110.29 94.7656 112.302 97.1577 114.26 99.5948C115.877 101.609 117.514 103.605 118.881 105.812C120.346 108.177 122.18 110.289 123.68 112.632C124.927 114.582 126.142 116.548 127.231 118.596C127.877 119.812 128.541 121.023 129.149 122.256C130.159 124.304 130.996 126.43 131.564 128.65C131.848 129.761 132.271 130.853 132.403 131.983C132.541 133.154 132.63 134.4 131.751 135.424C131.628 135.567 131.506 135.689 131.332 135.756C130.58 136.05 129.798 136.202 128.993 136.24C128.602 136.259 128.212 136.314 127.821 136.331C125.951 136.404 124.172 135.955 122.398 135.425C120.336 134.809 118.475 133.748 116.559 132.816C114.654 131.889 112.892 130.695 111.058 129.637C107.398 127.528 103.915 125.136 100.287 122.979C99.3099 122.398 98.4196 121.699 97.4992 121.038C96.4318 120.271 95.3076 119.583 94.2402 118.815C92.8671 117.826 91.4957 116.827 90.0859 115.9C88.1265 114.61 86.1821 113.302 84.343 111.849C82.7995 110.631 81.1458 109.564 79.609 108.341C77.9303 107.006 76.2732 105.643 74.6145 104.282C73.938 103.726 73.2865 103.139 72.6183 102.57C72.5532 102.515 72.4596 102.493 72.3795 102.455C72.5114 102.052 72.4028 101.716 72.1005 101.434C71.7798 101.135 71.4591 100.833 71.135 100.539C69.5197 99.0703 67.8877 97.6187 66.2908 96.132C65.4021 95.3052 64.3982 94.617 63.5363 93.7584C62.7311 92.9566 61.9126 92.1665 61.0624 91.4114C59.3736 89.9114 57.6714 88.4348 56.1647 86.7393C54.5544 84.9269 52.7955 83.2531 51.1334 81.4858C49.2959 79.5348 47.8894 77.263 46.2007 75.2034C45.5141 74.3665 44.9027 73.4528 44.2329 72.5942C44.0508 72.3603 43.8454 72.1265 43.5079 72.1047C43.4094 71.4967 42.9567 71.0741 42.6911 70.5529C41.8693 68.9493 40.9205 67.4109 40.2473 65.7354C40.0552 65.2577 39.8714 64.7399 40.1387 64.212C40.6332 64.0466 41.1543 64.0683 41.6621 63.9882C43.0736 63.7627 44.3949 63.1981 45.7864 62.8974C46.2174 62.8038 46.6233 62.6418 47.0309 62.4748C48.3371 61.9369 49.5883 61.2988 50.7876 60.5505C52.3378 59.5833 53.614 58.3255 54.4993 56.7469C56.168 53.7736 57.324 50.6115 57.6414 47.1838L57.643 47.1804Z" fill="#FE575C"/>
<path d="M57.643 47.1803C57.3257 50.608 56.1714 53.7701 54.501 56.7434C53.614 58.322 52.3395 59.5798 50.7893 60.547C49.59 61.2953 48.3388 61.9334 47.0325 62.4713C46.625 62.6383 46.2207 62.8004 45.7881 62.8939C44.3966 63.1963 43.0753 63.7592 41.6638 63.9847C41.1577 64.0666 40.6348 64.0448 40.1404 64.2085C39.0246 64.3355 37.9054 64.3405 36.7845 64.3088C33.7694 64.2236 30.8228 63.7776 27.9948 62.6834C26.8389 62.2358 25.6328 61.9167 24.547 61.2953C24.218 61.1082 23.8922 60.9128 23.6467 60.6155C23.6567 60.3933 23.7001 60.1795 23.6868 59.9473C23.6467 59.2507 23.4613 58.5725 23.4679 57.871C23.478 56.7618 23.6784 55.671 23.8137 54.5769C23.9657 53.3458 24.1963 52.118 24.1846 50.8769C24.1679 49.0629 24.7308 47.4091 25.4942 45.8189C26.6384 43.4335 28.4157 41.5527 30.4303 39.8839C31.5879 38.9268 32.7588 37.9913 33.6859 36.7903C35.6871 34.1961 36.8313 31.2194 37.6982 28.0941C38.3497 25.7421 38.5134 23.3618 38.4165 20.9464C38.3865 20.2097 38.6019 19.9742 39.3637 19.9558C40.0769 20.3717 40.8904 20.5321 41.6454 20.8395C44.1594 21.8668 46.6734 22.9074 48.7882 24.6664C50.0677 25.7321 51.3823 26.7711 52.4547 28.0607C53.7526 29.6192 54.6029 31.4349 55.3429 33.2974C56.8229 37.0225 57.6364 40.8895 57.6848 44.9052C57.6932 45.6619 57.6597 46.4203 57.6464 47.177L57.643 47.1803Z" fill="url(#paint0_linear_746_423)"/>
<path d="M39.3603 19.9575C38.5986 19.9759 38.3831 20.2114 38.4132 20.9481C38.5101 23.3635 38.3464 25.7439 37.6949 28.0958C36.828 31.2212 35.6837 34.1978 33.6826 36.792C32.7555 37.993 31.5845 38.9285 30.4269 39.8856C28.4124 41.5527 26.6351 43.4353 25.4908 45.8206C24.7274 47.4125 24.1645 49.0662 24.1812 50.8787C24.1929 52.1198 23.9641 53.3475 23.8104 54.5786C23.6751 55.6727 23.4763 56.7635 23.4646 57.8727C23.4579 58.5743 23.6433 59.2525 23.6834 59.949C23.6968 60.1812 23.655 60.395 23.6433 60.6172C21.9562 59.7419 20.3727 58.7096 18.9294 57.4684C18.1944 56.837 17.4277 56.2424 16.7128 55.5892C15.1793 54.1911 13.9131 52.5925 12.8892 50.7667C11.7817 48.7923 10.6458 46.8379 9.94591 44.6781C8.9353 41.5644 7.92303 38.4474 7.50876 35.1817C7.34506 33.8905 7.26321 32.5892 7.15464 31.2913C7.03771 29.8999 6.96087 28.5101 6.93581 27.1169C6.87568 23.8312 7.21644 20.5856 7.7493 17.3433C8.45255 13.0587 9.92252 9.0948 12.3179 5.47166C12.5718 5.08746 12.8909 4.77008 13.1982 4.43934C13.4304 4.19045 13.6492 4.32074 13.8113 4.52787C15.0975 6.16321 16.5858 7.61982 17.9673 9.16997C20.6065 12.1316 23.7001 14.4986 27.2982 16.1523C29.3094 17.0761 31.4692 17.6223 33.6024 18.2153C34.1135 18.3573 34.6297 18.4909 35.1208 18.688C36.1564 19.1056 37.2756 19.1641 38.333 19.4815C38.6972 19.59 39.0479 19.7304 39.357 19.9592L39.3603 19.9575Z" fill="url(#paint1_linear_746_423)"/>
</g>
<defs>
<filter id="filter0_d_746_423" x="0.217773" y="0" width="151.565" height="148" filterUnits="userSpaceOnUse" color-interpolation-filters="sRGB">
<feFlood flood-opacity="0" result="BackgroundImageFix"/>
<feColorMatrix in="SourceAlpha" type="matrix" values="0 0 0 0 0 0 0 0 0 0 0 0 0 0 0 0 0 0 127 0" result="hardAlpha"/>
<feOffset dy="4"/>
<feGaussianBlur stdDeviation="2"/>
<feComposite in2="hardAlpha" operator="out"/>
<feColorMatrix type="matrix" values="0 0 0 0 0 0 0 0 0 0 0 0 0 0 0 0 0 0 0.05 0"/>
<feBlend mode="normal" in2="BackgroundImageFix" result="effect1_dropShadow_746_423"/>
<feBlend mode="normal" in="SourceGraphic" in2="effect1_dropShadow_746_423" result="shape"/>
</filter>
<filter id="filter1_d_746_423" x="2.92896" y="4.30322" width="133.562" height="140.035" filterUnits="userSpaceOnUse" color-interpolation-filters="sRGB">
<feFlood flood-opacity="0" result="BackgroundImageFix"/>
<feColorMatrix in="SourceAlpha" type="matrix" values="0 0 0 0 0 0 0 0 0 0 0 0 0 0 0 0 0 0 127 0" result="hardAlpha"/>
<feOffset dy="4"/>
<feGaussianBlur stdDeviation="2"/>
<feComposite in2="hardAlpha" operator="out"/>
<feColorMatrix type="matrix" values="0 0 0 0 0 0 0 0 0 0 0 0 0 0 0 0 0 0 0.05 0"/>
<feBlend mode="normal" in2="BackgroundImageFix" result="effect1_dropShadow_746_423"/>
<feBlend mode="normal" in="SourceGraphic" in2="effect1_dropShadow_746_423" result="shape"/>
</filter>
<linearGradient id="paint0_linear_746_423" x1="53.1091" y1="59" x2="17.6091" y2="25" gradientUnits="userSpaceOnUse">
<stop stop-color="#3971FE"/>
<stop offset="1" stop-color="#103298"/>
</linearGradient>
<linearGradient id="paint1_linear_746_423" x1="33.1091" y1="38.5" x2="13.1091" y2="5" gradientUnits="userSpaceOnUse">
<stop stop-color="#56CB8A"/>
<stop offset="1" stop-color="#4EE891"/>
</linearGradient>
</defs>
</svg>
