<svg xmlns="http://www.w3.org/2000/svg" width="147" height="140" xml:space="preserve" fill-rule="evenodd" stroke-linejoin="round" stroke-miterlimit="2" clip-rule="evenodd" viewBox="0 0 147 140">
  <path fill="#e0d7b1" fill-rule="nonzero" d="M4.27 87.876C3 81.415 5.381 71.74 5.946 65.444 7.119 52.38 7.659 39.26 8.934 26.204c.59-6.038 1.892-11.988 2.605-18.013.133-1.121-.673-5.311 1.12-6.302C18.008-1.067 22.762.282 28.42 1.24 42.645 3.644 47.56 4.403 61.032 9.7c3.044 1.197 5.803 3.025 8.757 4.429 2.07.983 6.314 2.73 6.314 2.73 5.625-.375 10.953-2.758 16.536-3.546 14.96-2.115 34.164-4.821 49.005 1.336 1.37 1.05 2.085 3.218 3.782 3.539 1.729 6.182-.423 13.39-.731 19.759-.366 2.87-.327 5.78-.596 8.662-.103 1.111-1.016 3.094.072 3.346-1.12 28.607-2.061 58.005-7.09 86.198-.642 1.032-1.005.484-1.744 1.43-2.522 1.747-9.594 2.202-12.472 2.067-18.647-.878-16.751-1.537-35.25-5.175-6.806-1.338-12.843-3.104-20.27-6.238-4.393 1.35-10.462 2.906-14.982 3.737-13.342 2.451-20.636 2.528-34.122 1.38-4.886-.415-14.774-1.14-17.239-7.074-.682-1.643.744-4.987.882-6.488.996-.874.974-2.501 1.095-3.822.702-7.662-.41-7.593.434-15.242.016-.148 1.663-4.567.204-5.142l.048-.706c.264-.463.497-.934.117-1.452l.035-.393c.3-1.707.47-3.425.446-5.158h.005Z"/>
  <path fill="#d6cda9" fill-rule="nonzero" d="m83.377 132.96-3.017-.893s-2.093.037-3.779-.552c-2.529-.883-5.678-2.165-9.971-4.57-1.9-8.731 6.988-107.049 6.744-107.603 2.172-2.604 9.813-3.273 12.675-4.55.72-.32 7.444-.324 7.556-1.153.405-.17.881.05 1.273-.218.298-.028.6-.054.902-.08.303.065.673.433.832-.174.982.093 2.602-.847 3.578-.885 5.735 1.184-4.22 2.924-6.175 3.264-.207.036-1.803-.532-1.903-.127-.34 1.372 4.84.92 3.803 1.88-2.795 2.589-9.201 1.711-12.39 4.859-.735.724-2.311 2.14-1.782 3.332l-.372.91.027-.003c-3.096 1.964-2.441 12.101-2.974 14.851-.327 1.684-.906 3.315-1.191 5.006-.972 5.764-.795 11.687-1.627 17.47-.631 4.387-2.772 10.272-1.968 14.62.261 1.409 1.202-2.362 1.393-1.25 1.064 6.197.723 14.059.808 20.27.1 7.442-1.395 14.085-2.223 21.33-.173 1.512-1.507 3.69-.255 4.558.079.055 2.475.896 1.02 1.624 1.25.449 1.139 2.862 1.767 1.746l.87-.625c.443-.243.76-1.575 1.09-.949.137.26.132.671.404.785a.692.692 0 0 0 .492-.01c.175-.092.272-.335.495-.357.437-.043.642.447.58.802l.004-.003c-.216.472 9.35 5.092 9.604 6.218-.215-.239-3.662.557-6.29.477"/>
  <path fill="#cfc6a3" fill-rule="nonzero" d="M76.104 16.859c.684.178 5.722-.561 6.182 1.397.605 2.572-3.294 12.673-3.563 15.236-.213 2.025.73 6.118-1.302 5.967.484 2.561-1.31 6.957-1.59 10-.77 8.417-2.282 16.325-2.966 24.657-.898 10.945 2.521 21.344 1.504 32.681-.119 1.32-.481 2.61-.584 3.931-.125 1.61-.004 3.231-.098 4.844-.114 1.935-3.105 11.447 2.066 10.15l.614.055c.431.542 2.061.384 2.15.347l.153.013c-.043.367.08.68.43 1.173-.255-1.126.747-.58.963-1.052.937-.087.854 2.635 1.736 2.958 1.198.438 12.772 4.319 9.324 5.96-.976.466-5.36-2.103-7.073-1.378v.005c-5.665-1.599-11.306-3.068-16.704-5.567l-.878.41c-.252 1.31-1.083-2.51-1.132-3.844-.095-2.546.4-5.11.524-7.635.401-8.204 1.577-16.586 1.289-24.832-.382-10.939-.193-21.922.935-32.867.428-4.155 1.674-8.415 1.827-12.572.255-6.936.61-11.564 2-18.283.962-4.648-.362-5.94-1.126-10.577-.192-1.162-1.39-2.8-.446-3.504.245.13.494.258.739.387-.052.914 3.844 1.63 5.026 1.94Z"/>
  <path fill="#bab293" fill-rule="nonzero" d="M71.741 79.658c.108.202.08.35-.04.46-.321.232-.986.561-1.066 1.494-.224 2.694-.514 5.389-.596 8.087-.014.481.417 2.364.372 2.488-.215.62.613 1.896.42 2.5-.408 1.286-3.31 32.534-3.557 32.925-1.318-.01-.984-2.98-.761-4.08.184-.922.189-1.874.106-2.71-.194-1.943.169-3.877-.144-5.8-.055-.342.302-.473.327-.756.098-1.166.584-2.27.378-3.497-.099-.59.2-1.25.318-1.878.002-.026.03-.046.03-.072.053-1.127.453-2.218.372-3.357-.04-.62.133-1.171.297-1.752.275-.991.075-2.044.196-3.028.19-1.554.252-3.13.55-4.67.159-.816.021-1.63.15-2.442.106-.717.143-1.444.11-2.169-.03-.754.294-1.501.04-2.242-.162-.471.308-.751.34-1.137.097-1.1.28-2.192.23-3.309-.033-.755-.016-1.538.15-2.27.299-1.314-.045-2.59-.051-3.882-.004-.573-.358-1.118-.117-1.707.029-.072-.023-.253-.078-.272-.895-.336-.674-1.104-.642-1.748a2.399 2.399 0 0 0-.382-1.461c-.29-.457-.355-.913-.204-1.453.15-.54.251-1.11.002-1.668-.04-.092-.107-.243-.07-.291.746-.904.141-1.967.288-2.95.159-1.05.55-2.23-.015-3.344-.178-.35.171-.68.198-1.04.11-1.516.273-3.024.551-4.519.269-1.45.362-2.924.635-4.38.137-.726.592-1.515.149-2.344-.135-.254.046-.632.215-.947.314-.59.8-1.139.432-1.924-.103-.22.098-.585.17-.88.172-.717.332-1.397-.094-2.13-.193-.331-.149-.863-.064-1.274.293-1.443.23-2.848.05-4.315-.089-.73-.068-1.549-.142-2.325-.057-.612.062-1.15.204-1.752.231-.998.646-1.808 1.164-2.64a1.78 1.78 0 0 0 .267-1.239c-.142-.95.072-1.875.555-2.717.095-.168.117-.326.128-.51.106-1.978-.219-3.954.063-5.942.178-1.253.136-2.538.208-3.805.038-.635-.47-.993-.735-1.462-.205-.363-.464.059-.683.18-.71-.774-.031-1.424.167-2.113 1.105.526 2.205 1.068 3.466 1.108-.855.568-2.73 48.598-2.73 48.598.6.4.245.967.134 1.386-.261.98-.183 1.964-.25 2.95-.052.748-.104 1.528-.52 2.196-.252.406.018.797-.035 1.202-.265 2.024-.113 4.085-.486 6.102-.012.067.047.147.072.217-.174.09-.183.192-.028.311l-.014-.001Z"/>
  <path fill="#c1b898" fill-rule="nonzero" d="M70.172 123.685h-.003l-1.506-.091c1.91-2.764.972-6.009 1.183-9.087.622-9.103.86-9.006.963-18.173.037-3.228.024-6.455.108-9.681.01-.358.018-1.596.93-1.24 1.089 1.65 1.545 5.392 1.575 7.271.164 10.409-.337 10.308-.924 20.623-.16 2.813-.066 5.64-.315 8.446-.063.711-.12 1.537-.615 2.052l-.286-.612c-.468-.103.676 1.269.676 1.269 1.553.707.403 1.626 1.702 2.595-.619.535.537.24.424-.08.413-1.882 5.64 1.49 6.686.628.196.512-.574 1.193-.24 1.627 1.123 1.457 3.36.424 2.223 1.58-.39.395-.39 1.2-.911 1.398-.922.352-2.02-.225-2.96.08l-.587-.12c-.03-.295-.64-1.023-.762-.224-2.226-.711-3.682-.607-5.134-1.838l-.455-.04a.597.597 0 0 1 .087-.28 7.533 7.533 0 0 1-.196-.178c.687-.468-.163-1.827-.348-2.154-.175-.306-.318-1.116-.587-.884.426-.64.355-1.264.43-1.855 0 0-.897-1.024-1.158-1.032Zm5.894-106.363c-2.786-.588 5.485-1.525 8.214-2.335.075-.022-.067-.207.327-.257.471-.06 2.041-.009 2.012-.028.892-.66 2.66-.681 3.718-.829.638.492 2.453-.097 3.273-.231-.09.667-.996.309-1.267.559-1.043.96-.481 1.518-1.808 2.036-1.19.465-1.304-.261-2.448.378-.343.19-.724.368-.954.685-.026.035.19.889.032.971-.655.339-3.934 1.312-5 2.288-1.316 1.204-.729 1.563-1.875 2.937-.728.364-.62 1.634.31 1.738-.068.202-.137.4-.209.603-.98.23-1.69 3.754-1.926 4.183v.005c-.3-.404-.351.461-.043.459h.002-.002c-.238 1.489.033 5.2-.884 6.464-.272.652.039 1.443-.195 2.108-.1.285-.615.251-.734.527-.839 1.957-.215 2.09-1.061 4.023-.088-.017-.307.817-.22.76.08.073-.25 1.342-.108 1.233.282.34-.058 1.655-.36.64-.19-.637-.519-1.258-.518-1.92.002-2.593.24-5.183.524-7.758.646-5.864 1.065-5.791 1.06-11.662-.002-1.846-.02-3.691-.072-5.535-.019-.71-.525-1.603.212-2.042Z"/>
  <path fill="#b3ab8d" fill-rule="nonzero" d="M71.157 121.654c.149.026.21.135.232.268.02.107-.008.222-.134.225-.165.002-.17-.164-.215-.276-.042-.106-.022-.199.12-.214l-.003-.003h-.001ZM82.743 18.191c.17.026.168.137.16.233-.006.066-.054.124-.084.186-.05-.084-.113-.16-.14-.25-.012-.048.042-.117.061-.17h.003ZM69.94 91.17c-.299-.493.08-.976.095-1.46.082-2.698.386-5.391.596-8.086.096-1.226.123-1.562.997-.721l.14.165c.119.379.048.666-.076.926-.236.187-.258.394-.053.62l-.136 1.547c.037.158.075.312.11.469a.436.436 0 0 0 .02.205c.02.046.052.086.102.12l.138.169c.198.182.195.283-.026.293-.183.016-.453-.097-.408.27.053.432-.02.942.183 1.28.33.538.264 1.14.47 1.68.255.667.163 1.385.292 2.024.279 1.368.057 2.783.522 4.124.157.453-.067.983-.02 1.497.127 1.466-.06 2.906-.475 4.329-.185.634-.194 1.329-.203 1.998-.006.746-.092 1.474-.326 2.18-.2.602.504.938.373 1.579-.13.633.052 1.321.043 1.986-.003.47.04.958-.574 1.217-.262.11-.368.56-.331.891.14 1.28-.128 2.54-.09 3.816.048 1.56 0 3.124-.006 4.687 0 .126.036.273-.019.371-.594 1.071-.733 2.26-.862 3.442-.033.317-.233.505-.39.732-.378-.016.117.339.146.165.261.011.573.361.768-.104.073-.17.041-.458.342-.388.331.072.302.355.286.612.053.265.843.09.393.654-.122-.01-.234.008-.307.12-.126-.002-.247.01-.32.135-.076.593-.005 1.217-.43 1.858.587-.504.837-.049 1.245.15.454.22 1.01.768 1.629.233l.309.027c.114.321.354.539.673.57.81.083 1.43.643 2.203.826.312.073.614.27.873.47.273.21.365.526.095.806-.252.258-.464.068-.65-.137-.417-.453-.697-.312-.892.206-.083.227-.2.488-.488.351-.52-.249-1.09-.11-1.567-.213-.717-.152-1.257-.111-1.823.277a.132.132 0 0 1-.106-.023c-.003-.163.104-.407-.163-.425-.2-.012-.278.19-.295.381-.22.012-.365-.175-.536-.232-.992-.333-1.777-1.206-2.926-1.12l-.443-.125c-.303-.38-.616-.654-1.016-.104-.139.192-.351.174-.556.161l-.002-.006c-.176-.163-.193-.404-.053-.537.38-.355.279-.757.2-1.169.242-.394-.048-.837.113-1.235.46.137 1.17-3.632.62-3.515-.25-1.12-.069-2.259-.117-3.387-.06-1.439.013-2.952.422-4.316.19-.638.3-2.493.783-3.063 0 0 .376-2.59.436-4.35.034-1.032.258-2.05.186-3.097-.057-.814.088-1.643.09-2.466.002-.613.051-1.23.008-1.833-.04-.53.035-1.984.066-2.076.43-1.281-.086-2.633.322-3.922.19-.606-.036-1.273.179-1.892.042-.125.067-.245.188-.32.454.858.437-.488.03-.297Zm1.969-43.378c-.143.806 3.118-30.914 3.6-30.88 1.797.131 7.37-1.193 9.571-1.841.344-.412.939.057 1.282-.366l.256.005c.486.343.47.854.55 1.338-.373.124-.55-.627-.701-.205-.212.583.086.45-.457.975-.486.471-1.804 1.193-2.81 1.19-.896-.003-1.173.085-1.508.608a11.48 11.48 0 0 0-.824 1.604c-.414.957-.453 2.053-1.354 2.825-.279.238-.647.827-.416 1.438.366.964-.042 1.794-.567 2.575a.54.54 0 0 0-.08.503c.132.454.044.896-.028 1.355-.057.36-.23.755.04 1.118l-.046.458c-.308.002-.445.17-.506.463-.369 1.784-.461 3.6-.633 5.406-.022.25.029.457.26.587l-.027.31c-.188.114-.366.315-.32.49.12.472-.135.704-.453.946-.37.284-.397.744-.563 1.142-.452 1.072-.305 2.282-.83 3.325-.119.232-.079.395.2.454-.073.253-.147.506-.218.756-.212.136-.227.291-.04.464l-.069.773c-.465.358-.49.643-.096 1.083-.184.702-.414 1.398-.546 2.11-.174.94-.386 1.893-.374 2.838.011.81-.067 1.602-.172 2.39-.095.722-.199 1.443.01 2.14.368 1.23.503 2.488.197 3.715-.195.776.214 1.55-.171 2.289-.474.905-.265 2.089-1.153 2.835-.059.048-.04.196-.055.296-.17.142-.34.282-.508.424 0 0-.573 1.023-.089.903l.005.01c-.01 2.724-.535 5.384-.988 8.06-.227-.818-.346-1.633-.28-2.465.028-.354.027-.63-.414-.786-.495-.173-.577-.732-.635-1.14-.198-1.435-.275-2.884-.433-4.326-.124-1.15.345-2.31.104-3.4-.273-1.231.203-2.327.204-3.49 0-.225.067-.41.345-.416.904-.807.199-1.862.147-1.696-.222-.59-.036-1.142.156-1.696h-.001.001l.306-1.645c.15.206.935-1.204 1.735-2.876.863-1.801-.56-1.29-1.131-.573a.405.405 0 0 1-.314.174c-.094-.455.313-.773.321-1.226.007-.292.268-.538.07-.912-.141-.27.152-.434.45-.439v.003Z"/>
  <path fill="#a69e82" fill-rule="nonzero" d="M70.807 89.87c.732.18.029 1.51.117 2.258.297 2.516 1.054 2.316 1.066 4.893.032 6.392-.906 12.79-1.515 19.153-.165 1.714-.102 3.45-.365 5.152-.111.718-.848 2.117-.123 2.179l.017.001h.018l.142.17c-.143.839-2.032 2.206-1.788 3.327.072.335.57.398.788.664.192.235-.316.68-.62.668h-.014c-.3-.027-.668-.453-.544-.726l-.045.058-.438-.015c-1.12-.092-.033-1.715-.766-1.952l-.01-.003.001.006h.001l-.009-.008.007.001-.005-.023a1.401 1.401 0 0 1 .074-.736c.608-.003.264-.576.052-.62.074-.732-.032-1.505.5-2.13.887-.19.794-3.183.802-3.223.262-1.445 1.586-5.453.212-6.487l.014-.153c.901-.656.502-.832.812-1.9.874-3.013.325-5.818.217-9.342-.016-.537.998-2.806-.084-2.984l.014-.153c.842.01 1.158-5.367.573-6.48l.028-.309c.46-.218.306-1.34.814-1.295l.057.009Zm1.539-53.938c.056-.072-.16.458-.142.263.009-.1.084-.19.142-.263Zm12.991-20.226c.018.018.039.038.063.04.024.002-.04-.026-.06-.04h-.003Zm-13.18 25.738c-.294-.066-.248-.284-.238-.534.016-.39.044-.781.058-1.172.015-.392.024-.785.03-1.178.01-.646 1.095-8.637 2.118-8.77l-.011.09c-.163 1.29-.145 1.224.014-.101-.13-.6.15-1.22.194-1.83.166-2.27.309-4.541.438-6.813.066-1.167-.352-3.552.835-4.442.08-.06 1.805-.268 1.895-.416l2.155-.512c.187.068.345.056.42-.165l-.005.014c.146-.038.29-.08.436-.118.11.269.222.319.339.004.16.005.316.011.475.014.074.077.115.132.117.183-.002-.051-.042-.106-.116-.183.885-.301 1.796-.5 2.72-.649l.015.011a.86.86 0 0 0 .432.14l.033.003c.135.01.272.006.406.016l.166.023v.003c.069.22.3.377.254.644-1.2.075-2.15 1.429-3.35 1.339l-.02-.002c-.215-.02-.129-.053-.346-.078l-.01-.001c-.826-.073-3.605 2.507-3.802 3.344-.193.82-.43 2.409.408 2.49l.033.004c.824.085-.307 4.54-.433 4.996-.668 2.405-.647 4.383-1.13 6.73-.292 1.42.073 1.616-.278 3.108-.243 1.038-.269.224-.652 1.571-.4 1.407-1.156 4.975-1.269 6.015l-.03.15c-.205-.195-.205-.194-.001 0-.234.232-.067.507-.07.76-.188-.108-.096-.046-.004.006l.003.003c-.372 2.08-1.276 4.202-.876 6.276l.006.026.004.002-.026.302c-.303.141-.3.15-.001.012l.007.009c.783.892-.293 2.36-.297 3.546-.007 3.154-.444 6.206-.852 9.407l-.082.925-.004-.006c-.545.135-1.158 1.224-1.158 1.224-.483-.04-1.044-1.915-1.024-2.261.15-2.513-.911-6.257.236-8.618.172-.555.603-1.084.156-1.696l.027-.31c.193-.272.49-.52.238-.913l.327-3.698c.902-.056.681-1.685.842-2.574-.14-1.236-.927-2.922.018-3.73 0 0 .073.048.007-.01.036-.408.07-.818.104-1.226l-.007.002c-.258-.128-.274-.233-.21-.331.063-.098.206-.189.265-.288l.07-.767Z"/>
  <path fill="#968f75" fill-rule="nonzero" d="M80.06 15.615c.146-.038.29-.08.436-.118.11.269.222.319.339.004.16.005.316.011.475.014.17.177.163.236-.079.412-1.022.75-2.579.77-3.078 2.248-.051.152-.334.22-.498.338-.783.563-1.208 1.378-1.21 2.287-.003.84-.033 1.665-.15 2.498-.141 1.02-.277 2.052-.278 3.078-.003.972.518 1.92.141 2.924-.083.22-.181.437-.057.73.46 1.062.237 2.23.018 3.24-.163.756-.45 1.478-.54 2.302-.15 1.364-.469 2.713-.445 4.095.008.486-.43.754-.43 1.21-.005.921-.195 1.816-.355 2.72-.1.565-.47 1.224.108 1.775-.234.232-.067.507-.07.76-.228-.13-.4-.206-.48.174a38.42 38.42 0 0 0-.754 5.154c-.026.363-.086.78.367.985l-.026.302c-.768.358-.44 1.022-.489 1.61-.153 1.897-.547 3.764-.716 5.668-.174 1.964-.732 3.893-.734 5.885 0 .248-.075.453-.343.544-.155.05-.307.08-.437-.03-.278-.236-.024-.397.084-.587.043-.076-.005-.2.023-.29.15-.513-.26-1.102-.015-1.502.605-1.002-.261-1.375-.675-1.956.018-.203.036-.407.052-.611.306-.216.347-.542.388-.884.095-.807.186-1.608.243-2.422.128-1.834.3-3.68 1.003-5.416.018-.044-.003-.1-.001-.152a25.6 25.6 0 0 1 .308-3.162c.29-1.78.461-3.623-.251-5.388.036-.41.07-.824.105-1.235.566-.155.157-.401.054-.619l.505-5.703c-.003-.265.156-.545-.072-.79l.027-.308c.77-1.806 1.34-3.665 1.575-5.62-.14-.64.218-1.265.194-1.83-.104-2.296.37-4.538.438-6.813.02-.708.049-1.419.071-2.124.025-.799-.088-1.749.764-2.318.301-.202.585-.322.981-.182.302.107.687.138.914-.234l2.155-.512c.187.068.345.056.42-.165l-.005.014Z"/>
  <path fill="#262625" fill-rule="nonzero" d="M22.522 119.617c5.03.302 10.06.392 15.094.327 1.02-.013 1.99.239 2.966.476.265.064.53.233.538.492.01.318-.287.472-.577.526-.223.043-.47.075-.689.036-2.507-.45-5.046-.241-7.567-.329-3.82-.132-7.618-.546-11.42-.874-2.314-.202-4.617-.497-6.92-.804-.17-.023-.475.107-.469-.22.004-.202.221-.243.418-.251.256-.012.513-.089.765-.067 2.623.221 5.242.459 7.864.69l-.003-.002Zm24.61 1.916c-.385-.034-.771-.057-1.154-.108-.204-.026-.438-.084-.462-.336-.025-.288.203-.414.43-.468.324-.076.658-.114.99-.154 1.436-.172 2.875-.267 4.322-.176.44.027.964.005.972.62.01.636-.54.719-1 .715-1.366-.01-2.732-.076-4.097-.121l-.003.028h.003Zm-35.127-7.86c1.332-.312 2.555-.33 3.768-.401 4.577-.274 9.128.209 13.691.402 6.911.293 13.82.785 20.747.551.465-.017.93.03 1.383.134.275.064.494.17.535.472.041.303-.047.56-.308.74-.49.336-1.056.394-1.624.426-4.37.26-8.72-.016-13.076-.36-5.688-.446-11.384-.83-17.078-1.209-2.242-.15-4.487-.218-6.732-.326-.41-.019-.833-.005-1.312-.429h.006Zm70.238 4.694c-.176-.027-.363-.032-.528-.09-.25-.088-.49-.223-.435-.548.06-.343.348-.44.632-.467 1.181-.111 2.36-.29 3.542-.287 3.536.005 7.063-.15 10.593-.254a17.42 17.42 0 0 1 4.675.488c.117.027.283-.012.314.15.04.198-.128.263-.27.31-.591.196-1.21.229-1.823.263-5.458.32-10.924.467-16.39.442-.102 0-.206-.018-.308-.027l-.002.02h.003-.003Zm24.856-.601c-.23-.02-.463-.033-.691-.061-.282-.04-.618-.084-.615-.44.001-.365.376-.41.633-.443 1.025-.134 2.05-.07 3.066.083.282.043.604.177.592.497-.012.333-.367.287-.61.314-.789.09-1.58.129-2.375.05Zm15.552.94c-1.873-.18-3.742-.443-5.632-.396-.913.022-1.782-.278-2.68-.36-.157-.014-.323-.048-.352-.234-.035-.223.123-.328.305-.377.173-.05.351-.08.532-.09 3.98-.147 7.939.005 11.865.728.328.06.654.15.966.268.27.101.535.282.467.623-.075.367-.358.47-.71.42-.995-.143-1.992-.291-2.989-.416-.586-.075-1.18-.108-1.772-.16v-.006ZM15.993 107.045c-.93-.094-2.153.016-3.344-.26-.126-.028-.263-.024-.38-.07-.474-.205-1.159-.242-1.067-.993.088-.711.738-.628 1.223-.665 3.287-.253 6.544-.09 9.737.808.424.12.829.279 1.178.561.17.138.296.295.22.53-.063.197-.225.268-.416.291-.204.022-.41.058-.616.051-2.088-.076-4.172-.158-6.532-.247l-.003-.006Zm65.634 5.84c-.09-.02-.46.138-.527-.27-.066-.41.283-.514.581-.593 1.483-.399 3.012-.38 4.528-.443 5.465-.223 10.933-.298 16.404-.361 2.3-.027 4.593.145 6.88.393.164.017.434-.038.436.199.003.264-.267.238-.468.265-3.117.454-6.266.438-9.403.545-4.357.15-8.718.155-13.078.216-1.729.024-3.456.031-5.35.046l-.003.003Zm-41.253-4.563c-4.493-.463-8.147-.995-11.833-1.241-.204-.013-.576.091-.58-.191-.004-.332.362-.251.608-.28 4.514-.579 9.026-.74 13.557-.077 2.6.381 5.233.549 7.844.877 1.3.164 2.557.582 3.797 1.012.216.073.607.105.565.423-.047.335-.446.223-.66.232-1.106.051-2.22.118-3.32.046-3.604-.236-7.212-.448-9.978-.798v-.003Zm79.311 4.824c-1.31-.116-2.62-.229-3.93-.348-.246-.022-.601.021-.637-.29-.04-.351.335-.423.595-.489.806-.208 1.636-.203 2.458-.202 2.762.005 5.511.248 8.258.52.43.044.775.24.715.728-.07.558-.517.67-.986.631-1.85-.152-3.717-.055-5.555-.377-.304-.053-.617-.058-.926-.085l.008-.088Zm-86.96-12.902c6.223.402 11.252 1.041 16.315 1.19 1.933.057 3.876-.101 5.8.178.547.08 1.338.075 1.316.775-.022.727-.835.627-1.368.657-2.119.112-4.229-.158-6.34-.265-5.236-.265-10.474-.386-15.713-.581-3.894-.146-7.783-.382-11.646-1-2.162-.346-4.37-.413-6.555-.606a10.77 10.77 0 0 1-.541-.057c-.392-.057-.836-.125-.844-.62-.006-.541.457-.646.883-.657 2.84-.074 5.68-.09 8.513.156 3.78.326 7.562.683 10.18.83Zm62.65 3.562c2.091.214 3.688.287 5.254.648.24.056.613.034.617.32.005.294-.377.257-.608.322-2.015.554-4.09.453-6.142.497-3.66.076-7.323.056-10.983.071-.799.004-1.6-.01-2.378-.242-.415-.122-.849-.278-.792-.791.056-.5.516-.608.939-.639 1.617-.118 3.237-.272 4.858-.314 3.248-.085 6.497-.203 9.236.125v.003Zm11.956 1.677c-.437-.039-.878-.052-1.308-.124-.348-.06-.817-.118-.815-.56.002-.442.448-.476.814-.527 1.66-.229 3.332-.272 5.005-.306 1.08-.022 2.163-.042 3.238.136.25.041.497.117.742.19.108.033.278.025.27.207-.006.16-.155.197-.262.248a7.087 7.087 0 0 1-1.682.532c-1.99.368-3.995.345-6.002.201v.003Zm13.924-.303c-.566-.05-1.134-.09-1.696-.153-.348-.04-.813-.027-.816-.511-.002-.437.422-.548.784-.605a38.21 38.21 0 0 1 2.067-.27c1.077-.107 2.156-.217 3.237-.274.566-.03 1.132.046 1.7.084.454.032 1.001.13 1.032.624.037.551-.541.668-.99.791-1.158.322-2.349.302-3.534.314-.594.005-1.188-.025-1.78-.04l-.004.04ZM82.71 98.952l20.913-.947c1.982.11 3.975.01 5.955.236.492.055.96.197 1.426.332.111.033.263.132.283.225.04.191-.161.243-.295.295-.707.286-1.458.29-2.202.32-4.158.15-8.305-.127-12.458-.192-4.539-.074-9.08-.194-13.62-.291l-.003.025v-.003Zm-67.712-6.098c-.687-.075-1.395-.009-2.046-.29-.247-.107-.578-.178-.548-.55.027-.31.264-.494.528-.61.526-.237 1.103-.268 1.66-.282a9.413 9.413 0 0 1 3.183.47c.37.122.761.308.684.794-.072.458-.504.46-.85.51-.874.124-1.745.038-2.614-.045l.003.003Zm8.657-1.138a3.41 3.41 0 0 1 1.537.465c.316.187.483.476.381.849-.1.37-.383.525-.756.538-.604.022-1.164-.158-1.73-.339-.636-.205-1.283-.367-1.927-.539-.145-.038-.36.011-.394-.166-.045-.23.195-.257.347-.334.804-.408 1.659-.526 2.546-.473h-.004Zm27.822 1.828c-3.911.053-7.977-.384-12.055-.417-2.293-.018-4.585.164-6.88.255-1.191.045-2.37-.06-3.52-.394-.112-.033-.279.015-.297-.166-.018-.156.11-.236.214-.292a6.406 6.406 0 0 1 1.81-.649c4.724-.91 9.463-1.589 14.298-1.041 2.407.273 4.858.099 7.244.636 1.24.277 2.415.735 3.564 1.262.243.113.586.245.521.587-.064.34-.386.466-.715.481-.359.017-.723.036-1.08.01-.978-.072-1.955-.167-3.105-.269v-.003Zm76.832 5.436c-1.322.632-2.654.56-3.942.508-2.133-.086-4.277-.137-6.394-.469-.311-.05-.775-.009-.76-.47.019-.502.534-.448.848-.455 1.88-.022 3.76-.023 5.64 0 1.183.01 2.373-.063 3.529.296.365.115.716.246 1.08.59Zm0 0h.002v.002l-.002-.002Zm-11.421-6.04c-3.787-.417-7.588-.186-11.382-.276a369.784 369.784 0 0 0-9.37-.12c-3.537.005-7.06.404-10.589.541-1.16.046-2.324.137-3.481-.017-.265-.035-.663-.016-.696-.358-.035-.346.359-.401.615-.473 2.124-.582 4.31-.776 6.488-.996 7.524-.766 15.063-.212 22.595-.19 3.29.01 6.549.358 9.82.619.572.045 1.362.012 1.327.83-.032.782-.813.801-1.386.772-1.314-.06-2.624-.214-3.935-.33h-.006v-.001Zm-74.45-7.312c-.765.22-1.541.26-2.32.254-5.487-.042-10.93-.644-16.375-1.229-2.928-.313-5.88-.372-8.794-.807-.663-.098-1.314-.25-1.97-.374-.184-.032-.386-.067-.386-.293 0-.225.214-.29.384-.308.87-.092 1.74-.222 2.61-.228 6.677-.045 13.317.484 19.923 1.422 2.168.309 4.307.8 6.46 1.216.165.032.367.046.468.344v.003Zm6.88-.2c.37.043.827.187.783.738-.04.525-.478.666-.959.68-.477.014-.913-.163-1.336-.32-.47-.176-.48-.526-.06-.79.443-.28.954-.35 1.573-.308Zm6.383 1.985c-.417-.089-1.062-.157-1.654-.435-.299-.14-.525-.343-.487-.707.033-.348.308-.464.593-.519.781-.155 1.57-.362 2.373-.214.596.11 1.25.296 1.191 1.067-.06.767-.717.843-1.336.865-.154.005-.308-.027-.677-.06l-.003.003Zm72.286 4.27c.153.013.313.005.457.046.32.091.688.17.69.6.001.4-.291.61-.634.673-1.264.234-2.439-.107-3.574-.63-.126-.059-.273-.198-.202-.365a.524.524 0 0 1 .49-.316c.924-.013 1.85-.021 2.772-.031l-.002.023h.003ZM82.36 87.737c-.076-.006-.157-.005-.232-.02-.361-.08-.894-.02-.916-.515-.024-.564.554-.444.891-.494 4.361-.65 8.718-1.35 13.125-1.62 4.74-.29 9.484-.543 14.232-.545 1.059 0 2.118-.001 3.176.008.256.003.52.015.77.062.418.082.85.234.875.733.022.487-.348.705-.778.824-1.109.306-2.258.258-3.385.29-8.23.22-16.445.797-24.67 1.128-1.03.043-2.06.135-3.087.203.001-.016-.003-.034-.004-.051l.003-.003Zm35.474-2.459c-.308-.01-.52-.194-.733-.386-.162-.146-.286-.296-.21-.535.072-.23.249-.325.464-.344.974-.076 1.949-.16 2.923-.209.425-.02.792.182.817.645.027.502-.33.738-.795.76-.823.038-1.645.045-2.469.067l.003.002Zm8.316.15c-.586-.044-1.168-.144-1.767-.091-.393.036-.752-.14-.77-.573-.018-.386.294-.55.662-.617 1.093-.197 2.201-.142 3.299-.127.507.004 1.016.223.966.858-.054.637-.542.728-1.084.665-.435-.05-.87-.077-1.306-.115ZM52.365 77.07c-.404.269-.65.342-.899.32-2.737-.258-5.462.188-8.197.108-4.29-.125-8.565-.407-12.824-.91-4.164-.49-8.354-.406-12.525-.747-.359-.032-.72-.049-1.083-.086-.362-.038-.658-.196-.721-.584-.063-.387.173-.634.49-.8.488-.254 1.024-.35 1.565-.4 2.995-.263 5.986-.05 8.975.056 3.304.116 6.605.319 9.907.447 3.99.153 7.898.819 11.76 1.819 1.107.286 2.24.492 3.552.777Zm32.028 3.605c-.442-.199-1.25-.02-1.277-.788-.027-.76.713-.736 1.254-.85.651-.14 1.301-.282 1.977-.276.575.006.862.316.906.84.045.505-.327.734-.75.831a9.73 9.73 0 0 1-2.11.243Zm-28.258-2.863c-.326-.086-.714-.15-.68-.64.039-.563.476-.605.895-.599.385.006.662.233.636.62-.03.472-.4.61-.851.618Zm35.955 2.271c-.604-.077-1.075-.062-1.51-.265-.22-.102-.452-.226-.423-.491.04-.333.32-.442.622-.472.846-.088 1.696-.141 2.54-.255 6.556-.882 13.144-1.256 19.753-1.384 4.162-.078 8.315.051 12.456.465.636.06 1.494.075 1.49.89-.001.795-.869.827-1.493.911-1.109.15-2.22-.04-3.325-.087-5.527-.235-11.047-.003-16.568.173-4.126.13-8.251.336-12.376.504-.438.018-.877.01-1.17.013l.004-.002Zm0 0h.001ZM44.66 68.954c-.435.279-.916.29-1.397.248-2.575-.22-5.15-.43-7.72-.678-1.802-.174-3.608-.211-5.416-.232-1.369-.016-2.737-.062-4.098-.26-3.209-.469-6.436-.407-9.664-.308-.102.002-.209.013-.308-.001-.242-.036-.588.059-.652-.272-.072-.38.295-.421.548-.523 2.235-.881 4.56-1.318 6.959-1.259a338.1 338.1 0 0 1 8.981.339c2.514.128 4.957.673 7.35 1.443 1.57.507 3.186.825 4.784 1.203.221.05.47.042.634.298l-.001.002Zm4.354.213c.756-.293 1.517-.354 2.27-.376 1.567-.044 3.051.479 4.572.745.41.07.703.366.633.831-.069.461-.41.65-.849.598-1.561-.184-3.121-.388-4.68-.589-.098-.011-.227-.034-.284-.101-.442-.522-1.002-.868-1.663-1.108Zm77.954-.657c.746.066 1.495.113 2.237.204.483.06.977.248.952.82-.023.52-.508.67-.963.73-1.416.186-2.837.094-4.255.09-4.183-.013-8.36-.249-12.544-.167-3.203.065-6.38.496-9.573.646-6.344.298-12.631 1.17-18.935 1.877-.36.034-.72.034-1.08-.001-.35-.028-.707-.158-.69-.578.015-.366.35-.459.672-.516 1.75-.31 3.51-.582 5.249-.95 5.648-1.19 11.406-1.416 17.117-2.065 6.08-.693 12.165-.414 18.254-.24 1.187.035 2.375.063 3.562.094l-.005.053.002.003Zm-96.406-8.775c-4.658-.413-9.315-.844-13.933-1.6a16.35 16.35 0 0 1-3.427-.933c-.23-.091-.547-.168-.537-.475.008-.318.347-.35.577-.43.795-.274 1.634-.277 2.452-.236 7.586.386 15.167.812 22.65 2.258 4.336.838 8.722 1.386 13.055 2.248 2.582.514 5.169.989 7.752 1.502.45.089.901.228 1.27.54.287.242.418.539.284.892-.134.344-.446.391-.777.365-1.343-.11-2.646-.453-3.966-.696-7.419-1.358-14.867-2.528-22.39-3.169-1.002-.086-2.007-.178-3.01-.266Zm50.471 4.623c-.293.062-.398-.019-.425-.155-.034-.169.106-.193.235-.233.66-.2 1.307-.46 1.979-.605 2.767-.597 5.495-1.434 8.327-1.633 2.231-.159 4.48-.103 6.723-.123.222-.003.59-.102.633.264.047.403-.351.416-.6.457-1.092.18-2.21.24-3.285.488-4.343.995-8.81.876-13.188 1.52-.177.028-.358.017-.399.02Zm23.691-3.174c.627-.407 1.166-.624 1.758-.709 8.257-1.167 16.532-1.575 24.842-.608.127.014.256.04.384.054.206.026.458.034.47.295.01.246-.225.305-.431.358-1.008.259-2.04.282-3.069.327-4.947.215-9.893.436-14.842.608-2.396.084-4.797.065-7.194.093-.62.008-1.21-.133-1.912-.42l-.006.002ZM41.39 49.6c3.665.698 7.536 1.11 11.295 2.229 1.883.56 3.826 1.008 5.751 1.478.679.165 1.338.384 1.8.972.371.478.236.777-.3.963-.615.211-1.224.103-1.832-.029-2.066-.447-4.058-1.168-6.086-1.75-1.247-.358-2.55-.374-3.826-.564-2.645-.39-5.104-1.427-7.66-2.12-.424-.114-1.027-.26-.861-.875.155-.57.727-.443 1.187-.393.128.011.253.041.535.089h-.003Zm-6.121-.069c-.474-.024-.92-.041-1.288-.316-.278-.207-.479-.484-.397-.857.075-.34.359-.483.663-.57.738-.215 2.483.516 2.88 1.172.18.305-.038.354-.228.416a3.668 3.668 0 0 1-1.63.158v-.003Zm-5.827-.795c-1.164-.093-1.85-.62-1.783-1.278.067-.662.861-.993 1.907-.775.697.145 1.29.49 1.785 1.008.335.345.259.556-.162.737-.606.264-1.226.377-1.747.308h.002-.003.001ZM17.654 44.19c1.799.185 3.675.371 5.508.839.866.22 1.682.533 2.3 1.201.492.531.41.889-.252 1.19-.683.307-1.418.313-2.129.17-3.239-.65-6.472-1.328-9.706-1.997-.457-.095-.905-.22-1.282-.515-.423-.334-.401-.628.107-.851.61-.266 1.261-.283 1.903-.28 1.161.006 2.326-.002 3.551.246v-.003Zm38.914-.05c1.915.252 3.845.432 5.713.971.075.021.147.047.222.067 1 .3 1.468.858 1.274 1.53-.182.632-.89.911-1.839.625-1.985-.601-4.073-.675-6.06-1.25-.322-.094-.645-.185-.953-.31-.455-.18-.864-.454-.786-1.01.085-.616.614-.718 1.116-.728.435-.009.873.07 1.31.108l.003-.003Zm-21.526-4.006c4.112.195 8.718 1.424 13.384 2.296.484.084.95.25 1.377.49.392.225.765.553.656 1.042-.118.516-.631.562-1.07.57-.885.012-1.752-.187-2.597-.402-4.238-1.077-8.555-1.684-12.866-2.35-1.729-.268-3.477-.505-5.148-1.067-.44-.147-1.175-.266-1.082-.768.091-.485.812-.331 1.288-.332 1.812.008 3.608.218 6.056.515l.002.006Zm-19.91-2.554c2.85.415 5.748 1.057 8.659 1.61.38.074.82.193.72.724-.125.638-.665.485-1.067.415-2.183-.381-4.358-.796-6.536-1.206-.812-.151-1.625-.292-2.424-.481-.377-.09-.926-.143-.832-.713.094-.591.622-.392 1.013-.39.128 0 .257.023.467.041Zm49.316.096c.582.14 1.222.188 1.202.902-.013.507-.475.656-.915.532-.512-.145-1.221-.185-1.183-.94.027-.537.538-.509.893-.494h.003Zm-26.997-4.408c2.3.05 4.63.433 6.984.444 1.785.007 3.421.741 5.132 1.116 1.943.423 3.89.842 5.88.963 1.672.096 3.269.462 4.78 1.174.48.227 1.245.485 1.13.982-.13.567-.933.346-1.43.327-1.714-.057-3.356-.557-5.033-.856-4.093-.733-8.216-1.301-12.373-1.492-1.862-.085-3.713-.195-5.547-.534-2.033-.377-4.114-.399-6.133-.86-.45-.102-.89-.263-1.328-.414-.315-.11-.55-.33-.51-.686.046-.418.4-.53.739-.54.489-.016.98.05 1.472.048 2.07-.017 4.129.118 6.236.333v-.005Zm15.305-4.739c4.2.42 8.166 1.667 11.997 3.387.497.224 1.231.562 1.052 1.037-.197.53-.95.23-1.449.059-3.169-1.076-6.513-1.287-9.758-1.987-1.71-.371-3.41-.81-5.017-1.522-.414-.185-1.13-.314-.977-.879.14-.513.833-.36 1.3-.336.951.05 1.9.157 2.851.241h.001Zm-13.839-.928c-2.067-.126-4.094-.528-6.127-.87-.522-.089-1.369-.135-1.335-.775.03-.59.862-.646 1.406-.708 1.87-.201 3.71.099 5.53.471 2.04.417 4.102.782 6.006 1.683.162.077.496.004.467.293-.028.321-.33.223-.554.243-1.817.148-3.599-.227-5.398-.34l.005.003Zm4.956-8.397c5.987.425 11.68 1.872 17.316 3.588 1.576.48 3.181.879 4.665 1.631.532.27 1.03.582 1.325 1.141.245.467.098.722-.389.844-.417.103-.81.004-1.22-.088-3.017-.686-5.969-1.618-8.944-2.46-3.835-1.083-7.748-1.75-11.694-2.239-3.458-.429-6.92-.812-10.38-1.216-.102-.01-.208-.018-.308-.043-.413-.108-.96-.116-.935-.714.02-.55.53-.534.93-.604 3.25-.57 6.481-.179 9.634.157v.003Z"/>
  <path fill="#3971fd" fill-rule="nonzero" d="m81.377 26.398.372-.91c.612-.77 1.609-1.182 2.537-1.51 9.708-3.428 13.033-4.122 23.312-4.77 8-.505 12.133-.05 19.93.872 1.424.168 6.947.597 8.53 2.184 1.795 1.798.87 5.045.743 7.58-.364 7.214 1.322 15.34-2.392 21.537-1.464 2.442-5.787 1.308-7.468 1.252-9.288-.306-11.038-.874-19.244-.064-3.668.362-7.305.984-10.967 1.398-3.891.44-7.78.954-11.69 1.16-5.292.28-6.97-.679-6.525-5.923.364-4.284.914-8.552 1.5-12.812.34-2.465.738-7.314 1.365-9.994h-.003Z"/>
  <path fill="#fcfcfd" fill-rule="nonzero" d="M106.08 48.06c-2.252-.196-4.623-.46-6.92-1.256-4.317-1.5-6.516-4.652-7.374-8.97-.242-1.208.012-2.269.446-3.37 1.126-2.846 3.13-4.915 5.749-6.36 5.06-2.788 10.446-4.338 16.284-3.587 2.938.377 5.723 1.308 8.26 2.916 1.668 1.054 2.67 2.56 3.222 4.39 1.06 3.524.976 7.049-.342 10.47-.905 2.346-2.606 3.938-5.111 4.674-4.623 1.355-9.285 1.949-14.212 1.094h-.003Z"/>
  <path fill="#272726" fill-rule="nonzero" d="M112.308 39.475c-.1 1.123-1.092 2.076-2.23 2.22-1.122.142-2.772-.912-3.097-1.991-.14-.47-.215-.98.34-1.188.531-.197.836.131 1.018.65.242.688.805.998 1.51.934.684-.062.924-.582.978-1.19.04-.45.032-.97.633-.947.546.02.733.489.791.985.025.204.044.408.057.523v.004Z"/>
  <path fill="#3971fd" fill-rule="nonzero" d="M19.38 32.874c-2.346-.042-4.203-1.15-5.964-2.51-.582-.447-.58-.915-.181-1.458.03-.043.062-.083.09-.123.954-1.352 1.07-1.4 2.374-.38 2.084 1.627 4.367 1.929 6.855 1.2.538-.158.944-.392 1.013-1.005.073-.633-.26-1.055-.772-1.306a7.307 7.307 0 0 0-2.591-.712c-1.786-.158-3.505-.534-5.094-1.414-1.894-1.049-2.381-3.503-.968-5.155 1.378-1.611 3.24-2.276 5.283-2.332 2.289-.065 4.442.502 6.32 1.891 1.225.904 1.26 1.23.273 2.36-.79.902-1.066.98-2.083.311-1.307-.86-2.695-1.359-4.276-1.336-.585.008-1.113.166-1.637.379-.27.11-.487.277-.478.628.008.36.194.573.496.717.668.316 1.4.324 2.114.429a13.946 13.946 0 0 1 5.648 2.15c1.661 1.09 2.135 3.018 1.32 4.822-.348.768-1.014 1.168-1.693 1.518-1.899.98-3.876 1.684-6.045 1.326h-.005Z"/>
  <path fill="#f86167" fill-rule="nonzero" d="M115.04 37.791c.157-1.012 1.294-2.175 2.462-2.534 1.44-.44 2.755-.248 3.851.1 2.618.832 2.485 4.329.453 5.948-1.349 1.075-2.947 1.304-4.592.571-1.688-.754-2.453-2.298-2.175-4.085Zm-17.677-1.596c1.388-.689 2.816-.064 3.539.424 1.015.684 1.6 2.038 1.267 3.13-.61 1.999-3.001 3.46-4.968 2.83-2.473-.79-3.118-3.658-1.206-5.393.418-.379.842-.73 1.368-.991Z"/>
  <path fill="#262625" class="ds-explore__whats-new-eye-left" fill-rule="nonzero" d="M97.364 36.195c.205-.553.4-1.11.623-1.657.693-1.693 2.097-2.661 3.588-2.486 1.574.185 3.045 1.647 3.341 3.32.32 1.803-.527 3.281-2.406 4.201-.113.056-.227.117-.34.173-.302.047-.6.111-.907.144-2.548.282-4.16-1.25-3.898-3.698v.003Zm5.16-1.132c.489-.036.89-.214.935-.792.044-.558-.559-1.167-1.2-1.184-.498-.015-.84.249-.914.75-.08.546.543 1.182 1.176 1.226h.003Z"/>
  <path fill="#262625" fill-rule="nonzero" d="M115.04 37.791c-1.124-.76-1.83-1.718-1.56-3.169.302-1.65 1.163-2.922 2.643-3.695 1.074-.556 2.263-.768 3.288.058 1.157.93 2.201 1.994 2.029 3.687-.024.229-.058.46-.09.688-.596 1.346-1.59 2.151-3.032 2.593-1.168.356-2.204.233-3.282-.159l.003-.003Zm3.658-6.288c-.578.018-.904.306-.938.89-.035.582.379 1.077.942 1.095.526.018.892-.208.937-.783.045-.603-.407-1.17-.941-1.2v-.002Z"/>
</svg>
