<svg xmlns="http://www.w3.org/2000/svg" xml:space="preserve" width="147" height="140" fill-rule="evenodd" stroke-linejoin="round" stroke-miterlimit="2" clip-rule="evenodd" viewBox="0 0 147 140">
  <path fill="#e0d7b1" fill-rule="nonzero" d="M1.201 93.44C-.733 86.766.869 76.375.877 69.705.893 55.863.24 42.023.365 28.182c.058-6.402.872-12.778 1.061-19.177.035-1.191-1.201-5.52.59-6.728C7.358-1.328 12.476-.353 18.508.126 33.669 1.33 38.901 1.67 53.54 5.984c3.308.975 6.375 2.639 9.608 3.84 2.266.841 6.884 2.283 6.884 2.283 5.872-.918 11.246-3.919 17.035-5.267 15.514-3.615 35.428-8.247 51.585-3.157 1.537.977 2.489 3.189 4.301 3.368 2.39 6.337.801 14.115 1.069 20.837-.117 3.052.194 6.107.18 9.161-.005 1.177-.779 3.346.387 3.51 1.484 30.173 3.228 61.162.569 91.264-.579 1.144-1.011.602-1.699 1.666-2.486 2.07-9.87 3.207-12.904 3.332-19.664.813-17.734-.056-37.498-2.158-7.272-.773-13.775-2.068-21.866-4.671-4.487 1.827-10.716 4.028-15.385 5.322-13.783 3.819-21.435 4.578-35.704 4.627-5.169.018-15.62.177-18.76-5.832-.869-1.663.317-5.311.323-6.901.964-1.012.79-2.72.794-4.119.025-8.12-1.137-7.943-.961-16.062.003-.157 1.322-4.955-.264-5.424l-.015-.746c.234-.512.435-1.028-.012-1.537v-.417c.156-1.822.174-3.644-.012-5.463h.006Z"/>
  <path fill="#d6cda9" fill-rule="nonzero" d="m88.465 133.466-3.251-.658s-2.195.233-4.02-.229c-2.738-.693-6.164-1.747-10.896-3.876-2.807-9-2.615-113.17-2.923-113.73 2.039-2.939 10.001-4.354 12.888-5.962.726-.404 7.787-1.033 7.827-1.915.41-.216.93-.03 1.316-.348.311-.057.626-.113.94-.167.324.039.747.392.858-.261 1.04.006 2.653-1.133 3.675-1.263 6.132.71-4.159 3.466-6.181 4.005-.214.057-1.943-.391-2.01.044-.229 1.473 5.167.516 4.168 1.622-2.694 2.981-9.503 2.655-12.559 6.26-.704.83-2.228 2.465-1.562 3.669-.102.33-.204.659-.305.991l.027-.006c-3.068 2.352-1.438 12.947-1.742 15.887-.186 1.8-.643 3.569-.785 5.373-.485 6.149.252 12.358-.084 18.514-.255 4.67-1.956 11.055-.707 15.55.405 1.457 1.042-2.594 1.346-1.444 1.694 6.415 2.067 14.711 2.733 21.232.798 7.813-.155 14.934-.351 22.626-.041 1.606-1.239 4.02.156 4.816.088.05 2.683.711 1.223 1.612 1.354.355 1.461 2.902 2.017 1.67l.855-.737c.443-.297.652-1.727 1.057-1.099.168.26.201.693.497.787a.73.73 0 0 0 .516-.057c.175-.112.255-.377.487-.421.455-.086.715.411.684.789l.003-.003c-.183.516 10.293 4.482 10.664 5.642-.248-.231-3.794.926-6.561 1.087"/>
  <path fill="#cfc6a3" fill-rule="nonzero" d="M70.032 12.107c.735.124 5.957-1.122 6.622.893.875 2.647-2.281 13.628-2.325 16.347-.035 2.148 1.336 6.362-.812 6.393.746 2.647-.73 7.434-.74 10.659-.027 8.919-.879 17.372-.822 26.193.074 11.588 4.632 22.201 4.618 34.212-.002 1.398-.263 2.788-.248 4.186.018 1.704.296 3.397.347 5.101.061 2.044-2.196 12.321 3.114 10.477h.65c.503.529 2.2.212 2.29.164h.162c-.012.39.146.708.56 1.193-.372-1.16.731-.68.914-1.196.975-.178 1.141 2.691 2.098 2.948 1.298.349 13.813 3.351 10.345 5.398-.982.58-5.825-1.713-7.556-.791v.005c-6.097-1.153-12.157-2.173-18.058-4.297l-.884.512c-.142 1.402-1.37-2.536-1.546-3.934-.336-2.668-.054-5.409-.159-8.074-.342-8.661.113-17.581-.956-26.221-1.418-11.463-2.241-23.025-2.074-34.635.063-4.407.976-9 .75-13.384-.377-7.314-.434-12.212.401-19.404.577-4.975-.933-6.21-2.167-11.013-.309-1.203-1.72-2.813-.794-3.641.27.114.543.225.812.338.03.965 4.188 1.356 5.458 1.571Z"/>
  <path fill="#bab293" fill-rule="nonzero" d="M71.29 78.522c.132.202.116.36 0 .488-.315.273-.983.681-.98 1.669.015 2.853-.039 5.712.126 8.556.03.507.658 2.446.622 2.58-.168.671.82 1.936.673 2.589-.308 1.39-.451 34.505-.673 34.939-1.385.112-1.311-3.04-1.179-4.218.108-.986.024-1.987-.141-2.859-.384-2.023-.183-4.09-.69-6.083-.09-.354.273-.525.273-.824-.006-1.235.402-2.44.072-3.711-.159-.611.093-1.333.159-2.004 0-.027.027-.051.024-.078-.048-1.19.27-2.374.08-3.563-.101-.648.03-1.244.148-1.87.197-1.067-.111-2.155-.075-3.201.054-1.651-.027-3.314.144-4.96.09-.872-.13-1.714-.07-2.58.044-.764.015-1.531-.086-2.29-.102-.79.168-1.606-.168-2.361-.213-.48.255-.818.252-1.226 0-1.165.09-2.331-.066-3.5-.105-.791-.16-1.615-.054-2.4.192-1.409-.288-2.718-.414-4.076-.057-.602-.48-1.142-.281-1.783.023-.078-.048-.264-.108-.279-.971-.27-.81-1.097-.836-1.777a2.533 2.533 0 0 0-.537-1.501c-.347-.453-.458-.926-.35-1.508.107-.581.161-1.19-.153-1.753-.051-.093-.135-.246-.1-.3.699-1.019-.035-2.08.028-3.128.069-1.118.371-2.395-.327-3.513-.219-.35.117-.73.111-1.111-.024-1.604.006-3.204.159-4.801.147-1.55.108-3.108.26-4.663.076-.776.48-1.648-.062-2.478-.165-.255-.01-.669.138-1.016.275-.648.734-1.271.275-2.062-.129-.222.048-.624.096-.941.114-.77.219-1.499-.297-2.23-.233-.33-.236-.893-.185-1.333.173-1.544-.024-3.015-.348-4.54-.162-.759-.216-1.622-.366-2.431-.117-.638-.042-1.214.051-1.861.15-1.07.51-1.96.977-2.883.216-.407.274-.88.165-1.327-.237-.986-.099-1.978.33-2.907.084-.186.093-.354.087-.549-.072-2.089-.597-4.135-.486-6.251.07-1.334-.093-2.68-.135-4.019-.02-.671-.587-1-.908-1.468-.249-.363-.482.105-.701.252-.818-.747-.165-1.493-.021-2.236 1.21.45 2.415.917 3.743.842-.845.677 1.651 51.336 1.651 51.336.669.365.348.994.27 1.444-.183 1.054-.009 2.082.012 3.125.015.791.033 1.615-.342 2.356-.227.45.093.836.075 1.267-.09 2.152.261 4.304.057 6.459-.006.071.063.15.096.221-.174.111-.174.219 0 .33h-.015Z"/>
  <path fill="#c1b898" fill-rule="nonzero" d="M73.736 124.945h-.004.001l-1.59.045c1.748-3.083.462-6.406.397-9.661-.193-9.626.066-9.547-.678-19.192-.262-3.396-.575-6.787-.787-10.186-.023-.377-.13-1.679.862-1.39 1.296 1.634 2.123 5.524 2.329 7.497 1.14 10.925.605 10.866.947 21.763.093 2.971.455 5.934.455 8.907 0 .753.016 1.626-.455 2.214l-.357-.617c-.501-.065.827 1.271.827 1.271 1.697.599.575 1.672 2.029 2.569-.6.62.586.203.438-.123.259-2.017 6.061 1.04 7.079.038.254.519-.492 1.307-.1 1.732 1.314 1.427 3.568.133 2.481 1.453-.374.453-.299 1.298-.827 1.555-.935.456-2.143-.048-3.101.36l-.627-.072c-.06-.307-.768-1.015-.821-.164-2.404-.541-3.923-.296-5.563-1.454h-.481a.63.63 0 0 1 .065-.302 13.13 13.13 0 0 1-.222-.169c.678-.556-.341-1.906-.566-2.232-.212-.306-.438-1.143-.698-.875.387-.713.255-1.361.279-1.99 0 0-1.037-.992-1.312-.977ZM70.035 12.597c-2.98-.358 5.619-2.113 8.409-3.218.077-.031-.09-.212.32-.301.489-.107 2.142-.199 2.11-.217.875-.776 2.73-.963 3.827-1.217.716.458 2.567-.33 3.416-.548-.032.71-1.018.418-1.279.706-1.006 1.106-.364 1.64-1.709 2.308-1.206.6-1.394-.153-2.536.626-.342.232-.726.454-.938.808-.024.04.283.917.124 1.018-.656.417-4.009 1.745-5.038 2.87-1.27 1.388-.62 1.711-1.696 3.262-.73.45-.498 1.775.488 1.798-.053.218-.107.434-.164.653-1.007.333-1.425 4.103-1.634 4.576v.006c-.352-.397-.325.517-.002.486h.003-.003c-.111 1.587.519 5.463-.327 6.877-.225.71.175 1.513-.009 2.234-.079.308-.622.321-.721.622-.699 2.135-.032 2.217-.741 4.327-.094-.01-.246.887-.159.819.09.07-.139 1.434 0 1.306.328.331.093 1.745-.319.706-.257-.651-.661-1.273-.722-1.97-.239-2.725-.229-5.469-.171-8.203.133-6.223.58-6.186.029-12.356-.174-1.94-.365-3.878-.59-5.812-.086-.744-.701-1.636.032-2.166Z"/>
  <path fill="#b3ab8d" fill-rule="nonzero" d="M74.581 122.719c.159.014.233.122.269.26.03.111.012.234-.12.249-.173.018-.194-.156-.251-.27-.054-.108-.042-.207.105-.236l-.003-.003h-.001.001Zm2.547-109.83c.18.012.189.129.189.23 0 .07-.045.136-.07.204-.06-.084-.134-.158-.17-.251-.018-.048.033-.126.048-.183h.003ZM70.469 90.79c-.36-.49-.006-1.033-.036-1.543-.165-2.844-.096-5.703-.126-8.555-.013-1.298-.016-1.653.98-.851l.162.161c.16.387.112.695.006.98-.23.219-.234.438.003.657v1.639c.054.162.108.32.159.482a.46.46 0 0 0 .041.214.287.287 0 0 0 .118.116l.161.165c.224.173.231.279 0 .311-.191.033-.485-.06-.404.321.096.45.066.992.311 1.328.396.536.384 1.174.65 1.723.33.677.3 1.441.495 2.1.42 1.412.318 2.92.932 4.286.207.462.021 1.04.117 1.576.27 1.529.207 3.06-.096 4.594-.135.684-.08 1.415-.027 2.119.063.785.04 1.558-.14 2.323-.153.65.617.938.539 1.624-.078.677.177 1.384.23 2.083.04.494.13 1.004-.49 1.333-.265.141-.334.624-.265.968.267 1.331.102 2.682.261 4.019.195 1.636.29 3.284.429 4.927.012.132.063.284.015.392-.525 1.181-.56 2.443-.585 3.698-.006.336-.198.552-.341.806-.399.018.153.345.168.159.275-.012.635.327.797-.18.06-.185 0-.485.323-.44.354.045.35.345.357.617.08.273.893.015.473.651-.129 0-.245.03-.311.155-.132.009-.258.033-.324.171-.024.63.108 1.28-.279 1.993.57-.584.875-.129 1.322.042.497.189 1.133.713 1.732.093h.327c.15.327.422.533.76.536.858.012 1.562.543 2.39.663.335.048.67.227.961.413.306.195.432.519.174.839-.24.294-.48.114-.695-.084-.48-.437-.761-.263-.917.3-.066.246-.165.531-.48.414-.569-.213-1.156-.015-1.666-.078-.767-.093-1.33 0-1.888.461a.139.139 0 0 1-.114-.015c-.018-.171.072-.437-.21-.431-.212.006-.275.225-.275.428-.23.033-.399-.15-.584-.194-1.073-.258-1.978-1.103-3.177-.906l-.477-.089c-.353-.372-.707-.63-1.076-.015-.128.215-.353.215-.569.221l-.003-.006c-.2-.155-.24-.407-.105-.56.366-.408.222-.821.1-1.247.218-.437-.127-.875.005-1.309.495.102.89-3.926.324-3.752-.366-1.154-.282-2.368-.438-3.549-.197-1.507-.26-3.104.042-4.576.141-.689.083-2.649.538-3.293 0 0 .154-2.757.053-4.612-.06-1.088.08-2.179-.093-3.273-.135-.851-.06-1.735-.135-2.601-.054-.644-.06-1.298-.162-1.927-.09-.554-.147-2.089-.123-2.188.333-1.387-.335-2.76-.027-4.153.144-.654-.156-1.334.012-2.005.033-.135.048-.264.168-.354.557.86.413-.554.003-.315Zm-1.966-45.778c-.075.86.4-32.785.909-32.793 1.9-.03 7.628-1.941 9.88-2.827.323-.465.991-.027 1.312-.504l.27-.018c.542.315.572.854.701 1.355-.38.165-.635-.608-.755-.15-.168.632.132.464-.389 1.067-.467.541-1.783 1.422-2.84 1.512-.941.081-1.224.199-1.527.78a12.12 12.12 0 0 0-.716 1.763c-.346 1.044-.285 2.2-1.16 3.095-.27.276-.602.93-.303 1.55.474.98.123 1.89-.356 2.76a.57.57 0 0 0-.036.536c.18.465.129.938.096 1.427-.027.383-.171.815.146 1.171l-.006.486c-.323.03-.452.219-.488.533-.222 1.91-.15 3.827-.162 5.742 0 .264.072.477.327.593v.327c-.186.138-.354.366-.29.546.17.485-.076.752-.388 1.036-.362.333-.347.819-.485 1.253-.375 1.169-.108 2.427-.563 3.572-.102.255-.045.423.254.459-.054.273-.108.545-.159.815-.21.162-.212.327 0 .491v.819c-.455.42-.455.722 0 1.147-.128.755-.305 1.508-.377 2.269-.096 1.004-.23 2.026-.129 3.018.087.85.078 1.69.042 2.529-.033.767-.075 1.534.21 2.248.5 1.258.758 2.568.551 3.886-.132.834.369 1.61.033 2.422-.413.995-.084 2.22-.947 3.087-.057.056-.024.21-.03.317-.165.165-.33.327-.494.492 0 0-.507 1.129-.009.958l.006.01-.001-.001c.244 2.865-.06 5.71-.287 8.565-.315-.839-.515-1.684-.524-2.565-.003-.375-.03-.665-.507-.788-.536-.135-.674-.716-.773-1.139-.342-1.49-.557-3.006-.857-4.507-.237-1.196.147-2.46-.207-3.584-.401-1.268-.003-2.464-.11-3.686-.022-.237.032-.438.323-.47.875-.932.036-1.976-.003-1.796-.288-.6-.144-1.197.006-1.797l-.001-.001h.001l.168-1.757c.177.202.87-1.353 1.555-3.185.739-1.973-.707-1.303-1.241-.497a.426.426 0 0 1-.314.213c-.141-.47.257-.842.224-1.319-.02-.308.231-.59-.012-.965-.173-.27.12-.47.432-.503v.003Z"/>
  <path fill="#a69e82" fill-rule="nonzero" d="M71.258 89.343c.786.121.171 1.584.333 2.363.546 2.617 1.322 2.336 1.575 5.043.627 6.716.237 13.529.189 20.273-.013 1.817.214 3.637.096 5.45-.05.765-.693 2.304.074 2.301h.018l.019-.001.164.164c-.072.896-1.928 2.509-1.568 3.664.107.346.635.366.889.625.224.229-.268.744-.588.76h-.015c-.317.001-.744-.413-.639-.712l-.042.066-.461.025c-1.185.007-.194-1.8-.986-1.981l-.011-.002.002.006.001.001h-.001v-.001l-.009-.008.007.001-.007-.024a1.475 1.475 0 0 1 .009-.78c.638-.06.224-.63-.003-.657.01-.776-.174-1.579.327-2.286.914-.282.538-3.419.542-3.462.141-1.543 1.159-5.879-.38-6.838v-.162c.886-.773.45-.921.676-2.073.638-3.248-.199-6.145-.64-9.839-.067-.563.787-3.043-.366-3.129v-.162c.886-.068.717-5.749 0-6.865v-.327c.464-.272.197-1.437.735-1.437l.06.004Zm-3.399-56.838c.053-.081-.125.496-.124.289 0-.105.07-.206.124-.289Zm11.762-22.469c.02.017.044.036.07.036.025 0-.044-.024-.067-.036h-.003Zm-11.448 28.28c-.314-.042-.286-.275-.299-.539-.02-.412-.027-.825-.048-1.237a56.982 56.982 0 0 0-.078-1.241c-.05-.68.347-9.181 1.408-9.416l-.003.097c-.051 1.371-.038 1.299.006-.109-.193-.618.043-1.295.033-1.942a454.977 454.977 0 0 0-.173-7.201c-.039-1.233-.7-3.701.464-4.747.078-.07 1.87-.45 1.951-.614l2.215-.738c.203.054.368.027.425-.213l-.003.015c.15-.053.297-.11.447-.164.14.272.263.314.356-.027.168-.01.333-.018.5-.03.085.074.133.128.14.182-.007-.054-.054-.108-.139-.182.902-.399 1.84-.693 2.796-.935l.017.01c.15.086.307.107.467.107h.035c.142-.002.286-.019.428-.021l.176.009v.003c.093.224.351.368.327.653-1.253.191-2.125 1.702-3.393 1.719h-.021c-.228-.002-.141-.044-.371-.05h-.011c-.874 0-3.552 2.971-3.681 3.869-.127.879-.228 2.572.66 2.58h.035c.873.013.099 4.801.009 5.292-.477 2.59-.272 4.667-.561 7.179-.174 1.52.227 1.692-.002 3.293-.159 1.114-.262.26-.539 1.712-.29 1.516-.751 5.337-.773 6.44l-.019.16c-.232-.185-.232-.184 0 .001-.224.266-.023.539-.002.806-.208-.097-.106-.04-.004.006l.003.003c-.197 2.22-.949 4.535-.336 6.678l.008.027.005.002v.32c-.305.176-.3.186 0 .012l.009.009c.905.865-.089 2.508.018 3.755.285 3.316.11 6.564-.021 9.967v.98l-.004-.006c-.56.193-1.103 1.394-1.103 1.394-.51.004-1.274-1.915-1.285-2.281-.076-2.655-1.539-6.492-.554-9.08.129-.6.533-1.196.006-1.798v-.327c.177-.305.467-.593.165-.983v-3.917c.942-.143.558-1.835.644-2.784-.262-1.286-1.245-2.985-.327-3.922 0 0 .081.043.006-.012 0-.432-.003-.866-.005-1.298l-.007.003c-.283-.111-.309-.22-.251-.329.057-.109.199-.217.251-.327l.003-.813Z"/>
  <path fill="#968f75" fill-rule="nonzero" d="M74.071 10.431c.15-.053.297-.11.447-.164.14.272.263.314.356-.027.168-.01.333-.018.5-.03.196.17.193.233-.044.44-1.004.884-2.637 1.05-3.024 2.65-.039.164-.33.263-.491.401-.77.665-1.14 1.561-1.058 2.517.075.884.12 1.753.075 2.64-.054 1.085-.1 2.182-.006 3.261.087 1.022.722 1.969.42 3.06-.067.24-.15.476.008.773.581 1.073.456 2.322.32 3.404-.101.81-.335 1.595-.353 2.47-.03 1.447-.24 2.895-.087 4.345.054.51-.38.833-.338 1.313.08.968-.036 1.926-.12 2.892-.054.602-.38 1.33.278 1.855-.224.266-.023.539-.002.806-.252-.117-.441-.18-.489.227a40.58 40.58 0 0 0-.312 5.487c.006.384-.018.828.477 1.002v.32c-.773.447-.366 1.115-.363 1.738.015 2.008-.225 4.007-.225 6.024 0 2.08-.407 4.16-.224 6.254.024.26-.036.483-.309.603-.159.068-.315.113-.462.009-.314-.222-.062-.414.034-.624.038-.084-.024-.21-.003-.308.11-.552-.375-1.133-.156-1.577.542-1.109-.402-1.42-.89-1.993 0-.215 0-.431-.003-.647.302-.255.314-.602.326-.965.024-.857.045-1.708.03-2.568-.036-1.94-.027-3.896.549-5.787.015-.048-.012-.105-.015-.159a27.183 27.183 0 0 1 .03-3.353c.138-1.897.147-3.851-.765-5.64 0-.435-.003-.872-.005-1.307.58-.216.128-.437 0-.656v-6.042c-.028-.278.113-.587-.15-.824v-.326c.64-1.97 1.067-3.977 1.132-6.054-.206-.66.111-1.349.033-1.942-.323-2.403-.033-4.804-.173-7.201-.045-.746-.081-1.496-.123-2.239-.048-.842-.255-1.83.587-2.508.297-.24.584-.393 1.013-.282.327.084.734.081.938-.332l2.215-.738c.203.054.368.027.425-.213l-.003.015Z"/>
  <path fill="#262625" fill-rule="nonzero" d="M23.32 125.104c5.31-.15 10.6-.524 15.88-1.061 1.07-.108 2.113.066 3.159.225.285.042.578.195.611.467.04.333-.257.522-.557.606-.23.066-.486.123-.72.102-2.675-.24-5.322.216-7.977.359-4.024.216-8.05.135-12.074.144-2.448.003-4.894-.093-7.34-.201-.182-.009-.49.156-.514-.188-.015-.213.21-.276.416-.303.267-.036.53-.141.797-.141 2.775-.012 5.547-.006 8.322-.006l-.003-.003Zm26.022-.276c-.408 0-.816.012-1.223-.006-.216-.009-.468-.048-.516-.311-.053-.3.174-.453.408-.531.333-.111.68-.182 1.025-.254 1.492-.315 2.994-.549 4.522-.588.465-.012 1.013-.084 1.079.561.069.668-.5.806-.983.845-1.436.117-2.877.174-4.315.254v.03h.003Zm-37.619-4.992c1.37-.453 2.652-.585 3.92-.773 4.78-.714 9.604-.63 14.414-.852 7.285-.335 14.585-.461 21.838-1.351a5.57 5.57 0 0 1 1.465.012c.294.042.534.132.605.446.072.315.003.594-.254.807-.483.398-1.073.512-1.666.599-4.565.68-9.159.794-13.765.839-6.014.06-12.032.186-18.046.318-2.368.051-4.732.188-7.1.284-.431.018-.875.072-1.417-.329h.006Zm74.194-1.604c-.187-.012-.384 0-.563-.045-.27-.069-.536-.189-.507-.536.03-.366.324-.495.62-.549 1.23-.227 2.452-.524 3.693-.632 3.713-.324 7.402-.815 11.1-1.253a18.347 18.347 0 0 1 4.954.078c.126.018.296-.039.344.129.06.204-.11.288-.254.351-.603.261-1.25.353-1.891.446a274.147 274.147 0 0 1-17.169 1.99c-.108.009-.219 0-.327 0v.021h.003-.003Zm26.046-2.945c-.243 0-.489.009-.732 0-.299-.015-.656-.03-.686-.405-.033-.384.357-.465.623-.524 1.064-.237 2.146-.264 3.228-.198.3.018.65.129.668.467.018.351-.359.336-.611.387-.821.168-1.648.282-2.49.273Zm16.419-.459c-1.984-.015-3.971-.117-5.952.108-.956.108-1.897-.126-2.847-.129-.167 0-.344-.021-.392-.213-.057-.231.099-.356.285-.425.177-.069.362-.117.551-.144 4.166-.525 8.337-.734 12.527-.339.35.033.701.096 1.039.192.294.081.588.246.549.611-.045.393-.333.528-.707.507-1.058-.057-2.119-.12-3.177-.159-.623-.024-1.25-.003-1.876-.003v-.006Zm-113.087-2.331c-.986-.012-2.26.218-3.536.038-.135-.017-.279 0-.405-.038-.518-.171-1.24-.147-1.214-.944.027-.756.717-.729 1.223-.813 3.428-.572 6.863-.704 10.3-.057.456.087.896.216 1.289.48.191.129.338.282.281.536-.048.213-.212.303-.41.345-.213.042-.426.099-.642.111-2.2.114-4.396.222-6.883.348l-.003-.006Zm69.465.03c-.095-.012-.47.188-.578-.234-.108-.426.249-.567.555-.678 1.52-.557 3.128-.68 4.714-.887 5.718-.743 11.453-1.33 17.192-1.906 2.413-.242 4.837-.275 7.262-.227.173.003.452-.081.476.168.027.278-.258.275-.467.323-3.231.767-6.539 1.043-9.824 1.448-4.561.563-9.14.974-13.713 1.444-1.813.186-3.626.354-5.613.546l-.003.003h-.001Zm-43.744-.956c-4.761-.069-8.648-.288-12.541-.204-.216.006-.597.15-.627-.147-.035-.348.357-.297.612-.351 4.687-1.028 9.41-1.618 14.229-1.342 2.766.159 5.547.09 8.319.192 1.381.051 2.739.374 4.081.71.234.057.648.054.633.392-.018.357-.447.276-.672.306-1.156.156-2.32.33-3.482.357-3.806.087-7.615.2-10.552.09v-.003Zm83.734-2.311c-1.387 0-2.772.003-4.16 0-.26 0-.629.078-.695-.246-.075-.365.312-.476.579-.569.827-.294 1.699-.366 2.562-.441 2.901-.252 5.811-.252 8.721-.222.455.006.836.18.818.699-.021.593-.48.752-.977.755-1.957.012-3.908.288-5.868.12-.324-.027-.653-.003-.98-.003v-.093Zm-92.517-5.469c6.572-.156 11.912.048 17.243-.267 2.035-.12 4.061-.467 6.108-.353.581.033 1.411-.045 1.453.692.045.767-.818.737-1.375.818-2.215.315-4.456.228-6.683.312-5.523.209-11.034.569-16.554.851-4.103.209-8.209.323-12.323.033-2.302-.162-4.627-.027-6.94-.027-.193 0-.381 0-.573-.009-.417-.024-.89-.054-.944-.573-.057-.569.42-.722.866-.773 2.976-.342 5.957-.623 8.954-.629 4.001-.009 8.005.015 10.768-.075Zm66.121-2.086c2.215.03 3.899-.042 5.577.192.258.036.647-.021.677.279.033.308-.371.305-.608.395-2.065.77-4.252.857-6.404 1.094-3.836.42-7.684.74-11.526 1.097-.839.078-1.681.138-2.52-.033-.447-.09-.917-.213-.905-.758.012-.531.485-.687.926-.759 1.687-.275 3.374-.587 5.073-.782 3.402-.392 6.803-.818 9.71-.728v.003Zm12.71.65c-.462 0-.926.027-1.385-.009-.371-.03-.869-.048-.908-.512-.039-.465.426-.543.806-.63 1.723-.395 3.474-.596 5.227-.788 1.132-.123 2.268-.245 3.413-.158.267.02.533.077.797.131.117.024.294 0 .303.192.009.168-.144.222-.252.285-.54.309-1.117.55-1.717.716-2.056.572-4.163.734-6.284.77v.003Zm14.594-1.615c-.599 0-1.199.012-1.795-.003-.369-.009-.857.048-.905-.461-.042-.459.392-.615.767-.708a40.25 40.25 0 0 1 2.146-.476c1.121-.213 2.244-.429 3.374-.59.591-.084 1.193-.057 1.792-.07.48-.008 1.064.043 1.142.56.09.576-.506.753-.965.924-1.187.446-2.439.536-3.683.659-.623.06-1.25.084-1.873.123v.042Zm-41.056-2.958 21.873-2.942c2.092-.07 4.175-.36 6.276-.306.521.012 1.025.117 1.528.216.12.024.288.114.318.21.06.197-.147.27-.282.338-.716.366-1.504.44-2.283.54-4.352.545-8.733.64-13.1.958-4.773.345-9.553.642-14.33.962v.027-.003Zm-71.672-.108c-.728-.015-1.465.12-2.175-.114-.27-.09-.624-.134-.627-.527 0-.33.231-.545.498-.692.53-.297 1.133-.384 1.717-.45a9.914 9.914 0 0 1 3.386.198c.399.093.828.252.792.77-.033.489-.486.53-.846.615-.905.212-1.828.203-2.748.197l.003.003Zm8.985-2.002c.572-.019 1.14.1 1.657.345.35.168.552.456.48.857-.072.399-.354.588-.744.636-.632.08-1.237-.058-1.849-.195-.686-.156-1.381-.267-2.073-.387-.156-.027-.378.045-.429-.138-.069-.237.18-.288.333-.383.806-.504 1.693-.708 2.63-.735h-.005Zm29.386-.668c-4.102.42-8.412.339-12.697.683-2.41.195-4.8.6-7.201.909-1.247.158-2.494.158-3.734-.087-.12-.024-.291.042-.327-.147-.033-.162.093-.258.198-.327a6.75 6.75 0 0 1 1.84-.85c4.876-1.397 9.79-2.551 14.918-2.425 2.553.063 5.11-.348 7.666-.006 1.327.176 2.604.548 3.86.995.266.096.638.203.602.569-.036.363-.363.525-.707.572-.375.051-.755.105-1.133.111-1.034.015-2.068.006-3.285.006v-.003Zm81.188-1.437c-1.33.787-2.735.835-4.092.901-2.248.108-4.504.254-6.758.102-.332-.024-.815.063-.842-.423-.027-.53.519-.521.848-.557a244.62 244.62 0 0 1 5.922-.525c1.244-.099 2.487-.287 3.734-.018.394.087.775.192 1.188.52Zm0 0 .002-.001v.003l-.002-.002Zm-12.555-5.285c-4.016-.086-7.986.51-11.978.768-3.288.213-6.572.45-9.85.746-3.714.335-7.376 1.082-11.07 1.555-1.214.156-2.428.36-3.657.306-.282-.012-.698.045-.764-.312-.069-.36.339-.455.602-.554 2.176-.81 4.454-1.217 6.72-1.651 7.83-1.505 15.798-1.625 23.71-2.302 3.455-.297 6.91-.234 10.369-.264.605-.006 1.432-.114 1.471.75.039.824-.779.917-1.384.94-1.385.058-2.775.019-4.163.019h-.006v-.001Zm-78.861-.758c-.782.303-1.594.417-2.412.483-5.766.467-11.538.341-17.31.233-3.104-.057-6.209.156-9.31-.03-.705-.042-1.403-.14-2.104-.21-.195-.017-.411-.035-.432-.272-.02-.237.198-.324.375-.36.905-.177 1.807-.395 2.72-.482 7.007-.669 14.029-.731 21.053-.36 2.305.123 4.597.44 6.896.677.177.018.39.015.524.318v.003Zm7.207-.851c.393.012.885.12.89.704.007.555-.44.744-.943.803-.5.06-.974-.086-1.433-.212-.51-.141-.554-.507-.137-.824.44-.336.97-.456 1.624-.47l-.001-.001Zm6.887 1.493c-.446-.054-1.13-.066-1.777-.303-.327-.12-.584-.312-.578-.698.003-.369.281-.516.575-.6.806-.236 1.615-.527 2.472-.446.636.06 1.34.195 1.35 1.01.008.812-.675.953-1.323 1.034-.161.02-.326 0-.716 0l-.003.003Zm76.305-2.239c.162 0 .329-.024.485.006.345.066.738.114.779.566.039.42-.248.669-.602.767-1.306.363-2.571.114-3.812-.33-.138-.05-.305-.182-.246-.365a.552.552 0 0 1 .486-.377c.968-.1 1.939-.195 2.907-.291v.024h.003Zm-48.279.099c-.08 0-.165.009-.245 0-.387-.051-.941.063-1.01-.456-.078-.59.54-.518.89-.602 4.519-1.09 9.029-2.23 13.632-2.925 4.951-.746 9.908-1.453 14.894-1.897 1.112-.099 2.224-.198 3.336-.287.269-.021.548-.033.815-.006.446.047.914.167.986.689.069.51-.3.773-.74.938-1.136.425-2.347.482-3.528.62-8.622.998-17.195 2.368-25.802 3.482-1.076.141-2.149.333-3.222.5 0-.017-.006-.035-.009-.053l.003-.003Zm37.023-5.886c-.324.018-.564-.156-.806-.338-.183-.138-.327-.285-.27-.543.054-.249.231-.365.455-.404 1.016-.171 2.032-.351 3.051-.492.444-.06.848.117.917.602.075.525-.278.806-.764.873-.86.116-1.723.2-2.586.3l.003.002Zm8.747-.617c-.62.009-1.24-.042-1.864.069-.41.075-.803-.078-.863-.53-.054-.405.258-.606.639-.711 1.129-.309 2.298-.354 3.452-.44.533-.043 1.088.14 1.094.812.003.674-.501.815-1.076.8-.462-.012-.92 0-1.382 0Zm-78.261-1.918c-.399.32-.65.42-.914.42-2.898-.016-5.718.706-8.598.877-4.516.267-9.032.369-13.551.237-4.418-.129-8.81.35-13.222.38-.38 0-.761.016-1.145.01s-.71-.144-.812-.546c-.102-.401.123-.683.44-.887.489-.312 1.043-.464 1.607-.566 3.12-.555 6.281-.609 9.43-.776 3.48-.186 6.965-.28 10.444-.453 4.205-.21 8.37.126 12.518.818 1.19.198 2.398.309 3.803.486Zm33.968.809c-.482-.168-1.315.096-1.414-.71-.099-.797.68-.84 1.238-1.01.671-.207 1.34-.417 2.05-.474.605-.047.935.252 1.03.798.094.527-.275.803-.71.944-.695.227-1.411.374-2.193.452h-.001Zm-29.94-.38c-.35-.06-.764-.09-.773-.609-.012-.596.443-.68.884-.713.404-.03.716.183.725.593.012.498-.363.677-.836.728v.001Zm37.968-.959c-.641-.025-1.135.035-1.611-.138-.24-.087-.495-.195-.489-.477.01-.353.294-.494.609-.554.88-.171 1.768-.306 2.643-.504 6.803-1.537 13.686-2.544 20.615-3.293 4.363-.47 8.736-.72 13.123-.671.674.005 1.576-.06 1.648.797.072.836-.836.95-1.483 1.097-1.151.26-2.335.164-3.5.218-5.826.267-11.601 1.025-17.382 1.723-4.321.522-8.634 1.121-12.95 1.682-.458.06-.92.093-1.228.123l.005-.003Zm0 0 .001-.001.001.001h-.002Zm-50.843-7.283c-.431.333-.934.39-1.444.39-2.724.009-5.448.027-8.17.006-1.908-.015-3.808.114-5.708.26-1.439.111-2.88.19-4.328.108-3.413-.194-6.796.171-10.177.576-.107.012-.218.033-.323.027-.258-.015-.612.117-.71-.225-.111-.393.27-.47.527-.6 2.265-1.135 4.666-1.81 7.19-1.971 3.152-.204 6.308-.36 9.463-.48 2.652-.099 5.268.246 7.852.833 1.696.387 3.422.57 5.136.819.237.032.498 0 .693.254l-.001.003Zm4.592-.182c.767-.378 1.561-.513 2.35-.606 1.641-.192 3.248.219 4.869.357.438.036.773.32.743.815-.03.491-.371.722-.836.707-1.657-.048-3.314-.117-4.969-.183-.105-.003-.242-.015-.308-.08-.513-.507-1.133-.819-1.85-1.01h.001Zm81.8-7.945c.789 0 1.58-.021 2.368.006.512.018 1.049.17 1.076.773.024.548-.471.752-.944.857-1.469.327-2.97.363-4.46.491-4.393.375-8.801.516-13.188.992-3.357.366-6.653 1.115-9.992 1.57-6.635.903-13.156 2.404-19.71 3.735a5.981 5.981 0 0 1-1.133.099c-.371.003-.758-.1-.779-.543-.018-.386.324-.515.657-.605 1.81-.489 3.632-.938 5.424-1.487 5.82-1.777 11.846-2.55 17.783-3.764 6.32-1.294 12.736-1.567 19.146-1.95 1.25-.075 2.5-.156 3.749-.234v.057l.003.003Zm-102.053-.252c-4.93 0-9.86-.02-14.78-.384a17.222 17.222 0 0 1-3.686-.662c-.249-.075-.59-.126-.608-.45-.021-.335.332-.4.566-.506.81-.362 1.69-.443 2.553-.476 8.002-.3 16.003-.558 23.996.266 4.63.477 9.287.645 13.917 1.148 2.76.3 5.52.558 8.28.857.482.051.968.156 1.384.45.324.227.489.527.381.91-.108.375-.432.453-.782.456-1.42.01-2.82-.23-4.229-.362-7.917-.737-15.847-1.274-23.806-1.247-1.061.003-2.125 0-3.186 0Zm53.43.162c-.302.093-.42.018-.461-.123-.051-.174.093-.213.225-.267.674-.272 1.33-.605 2.022-.82 2.85-.885 5.637-2.018 8.592-2.491 2.329-.375 4.696-.525 7.049-.755.233-.024.611-.162.689.218.087.42-.33.47-.587.537-1.13.29-2.299.458-3.405.818-4.468 1.45-9.17 1.741-13.707 2.826-.183.045-.375.05-.417.057Zm24.583-5.541c.62-.486 1.166-.764 1.78-.908 8.562-1.996 17.214-3.195 26.03-2.952.135.003.273.018.408.021.219.009.485-.006.521.267.033.257-.207.341-.419.416-1.034.366-2.116.486-3.192.63-5.175.686-10.348 1.378-15.529 2.02-2.509.311-5.032.515-7.546.767-.651.066-1.283-.027-2.047-.264l-.006.003Zm-67.584-6.282c3.914.393 8.017.465 12.068 1.292 2.03.414 4.112.704 6.177 1.019.728.11 1.441.279 1.98.854.435.468.321.794-.224 1.04-.627.279-1.277.222-1.927.14-2.212-.278-4.37-.85-6.554-1.273-1.343-.26-2.712-.156-4.07-.237-2.814-.164-5.493-1.025-8.241-1.516-.456-.08-1.103-.177-.986-.839.11-.614.722-.533 1.21-.524.136 0 .27.02.57.044h-.003Zm-6.434.498c-.5.018-.971.042-1.382-.213-.311-.191-.548-.464-.497-.863.048-.365.332-.542.644-.662.755-.294 2.655.312 3.132.965.219.303-.006.375-.2.458a3.864 3.864 0 0 1-1.697.318v-.003Zm-6.193-.294c-1.231.011-2-.48-1.991-1.177.009-.702.812-1.124 1.93-.992.746.087 1.4.395 1.969.893.383.332.323.56-.102.79-.612.334-1.253.51-1.806.486h.002-.003.001Zm-12.801-3.68c1.906.027 3.893.048 5.862.369.929.15 1.816.404 2.526 1.049.567.512.513.896-.153 1.273-.689.387-1.46.462-2.22.378-3.462-.383-6.92-.794-10.378-1.196-.489-.057-.971-.147-1.394-.422-.476-.312-.48-.623.033-.905.615-.336 1.298-.414 1.972-.47 1.22-.103 2.443-.22 3.752-.073v-.003Zm40.859-3.674c2.034.087 4.078.096 6.09.489.08.015.158.036.239.05 1.079.222 1.621.765 1.48 1.49-.132.68-.85 1.04-1.873.827-2.14-.447-4.34-.33-6.479-.75-.348-.068-.695-.134-1.03-.236-.495-.147-.95-.398-.92-.989.032-.656.578-.812 1.105-.869.456-.05.923-.009 1.385-.009l.003-.003Zm-22.977-2.208c4.336-.177 9.287.686 14.268 1.168.516.043 1.02.174 1.492.387.432.2.854.51.785 1.034-.075.554-.61.65-1.07.698-.928.096-1.857-.033-2.765-.18-4.55-.737-9.14-.974-13.729-1.273-1.84-.12-3.698-.207-5.505-.642-.476-.114-1.259-.17-1.208-.707.051-.518.822-.423 1.322-.468 1.903-.161 3.809-.107 6.407-.023l.003.006Zm-21.145-.831c3.032.171 6.134.576 9.242.887.407.042.88.126.824.693-.072.683-.653.572-1.082.536-2.328-.198-4.65-.431-6.976-.66-.867-.083-1.733-.155-2.59-.28-.404-.06-.986-.064-.94-.672.044-.63.617-.47 1.027-.504.135-.012.273 0 .495 0Zm51.796-4.489c.624.093 1.301.084 1.346.836.033.534-.438.734-.911.645-.551-.105-1.3-.081-1.33-.879-.022-.566.518-.584.892-.602h.003Zm-28.76-2.121c2.421-.162 4.903.024 7.375-.183 1.876-.159 3.662.461 5.493.695 2.08.264 4.163.524 6.264.465 1.765-.054 3.476.182 5.13.79.525.193 1.352.393 1.277.927-.084.608-.947.45-1.472.476-1.804.1-3.575-.273-5.364-.431-4.366-.39-8.748-.603-13.132-.417-1.963.084-3.917.141-5.874-.045-2.17-.207-4.357-.036-6.52-.332-.483-.066-.96-.195-1.433-.312-.342-.087-.608-.297-.6-.674.01-.444.37-.594.726-.636.512-.063 1.034-.039 1.55-.087 2.172-.21 4.347-.26 6.58-.23v-.006ZM46.6 26.548c4.45.051 8.73.992 12.913 2.443.542.189 1.345.476 1.201.992-.158.575-.977.33-1.516.197-3.428-.836-6.959-.746-10.432-1.18-1.83-.231-3.656-.534-5.41-1.133-.452-.156-1.216-.225-1.108-.833.099-.552.842-.456 1.334-.474 1.004-.036 2.01-.012 3.017-.012h.001Zm-14.619.312c-2.182.06-4.348-.174-6.515-.345-.557-.044-1.45-.014-1.474-.689-.024-.623.845-.76 1.411-.875 1.945-.386 3.905-.242 5.85-.02 2.181.248 4.381.44 6.464 1.21.177.066.521-.042.518.264 0 .341-.326.266-.56.308-1.894.324-3.8.096-5.7.144l.006.003Zm4.423-9.287c6.327-.111 12.44.88 18.518 2.16 1.699.357 3.422.627 5.05 1.28.584.234 1.135.516 1.498 1.076.3.468.17.75-.33.923-.429.147-.851.08-1.289.021-3.233-.44-6.419-1.145-9.622-1.753-4.127-.782-8.299-1.118-12.488-1.265-3.671-.129-7.342-.21-11.013-.312-.108-.002-.22 0-.327-.017-.444-.075-1.019-.033-1.049-.663-.03-.581.507-.611.92-.722 3.36-.902 6.79-.791 10.132-.731v.003Z"/>
  <path fill="#3971fd" fill-rule="nonzero" d="m76.457 21.643.305-.992c.572-.866 1.58-1.391 2.524-1.822 9.876-4.507 13.303-5.546 24.037-7.184 8.353-1.275 12.736-1.182 21.01-.938 1.511.044 7.35-.019 9.16 1.502 2.052 1.723 1.383 5.222 1.485 7.899.289 7.616 2.815 16.001-.509 22.86-1.31 2.702-5.955 1.913-7.726 2.011-9.782.542-11.672.108-20.214 1.723-3.818.722-7.58 1.714-11.387 2.49-4.045.824-8.08 1.727-12.167 2.308-5.532.786-7.384-.065-7.403-5.619-.016-4.537.164-9.074.384-13.606.127-2.623.094-7.757.504-10.632h-.003Z"/>
  <path fill="#fcfcfd" fill-rule="nonzero" d="M104.411 42.114c-2.383.003-4.897-.054-7.384-.677-4.672-1.175-7.274-4.283-8.577-8.742-.366-1.247-.198-2.386.156-3.584.917-3.096 2.829-5.457 5.445-7.22 5.055-3.401 10.566-5.532 16.767-5.286 3.12.123 6.131.842 8.945 2.296 1.849.953 3.042 2.442 3.791 4.315 1.442 3.605 1.681 7.318.615 11.037-.732 2.55-2.371 4.382-4.933 5.388-4.729 1.855-9.569 2.913-14.822 2.473h-.003Z"/>
  <path fill="#272726" fill-rule="nonzero" d="M110.153 32.51c0 1.189-.953 2.283-2.134 2.54-1.166.255-2.997-.7-3.438-1.804-.191-.48-.317-1.01.246-1.28.54-.257.89.06 1.13.588.318.701.938.974 1.672.842.713-.129.917-.698.917-1.342 0-.477-.057-1.022.576-1.055.575-.03.815.446.923.962.045.212.084.425.108.545v.004Z"/>
  <path fill="#3971fd" fill-rule="nonzero" d="M11.954 34.22c-2.467.174-4.52-.818-6.495-2.083-.653-.416-.695-.908-.326-1.516.027-.048.057-.093.084-.138.875-1.51.992-1.57 2.457-.62 2.34 1.516 4.765 1.621 7.31.623.55-.216.955-.5.97-1.15.018-.672-.371-1.085-.932-1.301a7.697 7.697 0 0 0-2.787-.507c-1.89 0-3.73-.236-5.481-1.013-2.086-.926-2.826-3.46-1.495-5.328 1.297-1.822 3.191-2.694 5.33-2.943 2.398-.281 4.712.114 6.813 1.4 1.37.836 1.438 1.175.506 2.454-.746 1.022-1.028 1.13-2.158.522-1.453-.783-2.957-1.178-4.615-1.007-.614.063-1.153.278-1.684.551-.273.14-.485.336-.443.704.042.378.257.585.587.708.731.27 1.501.21 2.26.254 2.146.123 4.239.715 6.131 1.735 1.846.99 2.523 2.973 1.834 4.945-.294.84-.956 1.322-1.636 1.753-1.903 1.208-3.914 2.131-6.225 1.957h-.005Z"/>
  <path fill="#f86167" fill-rule="nonzero" d="M112.865 30.486c.071-1.079 1.157-2.407 2.35-2.893 1.471-.596 2.871-.517 4.054-.253 2.826.63 3.012 4.318 1.028 6.209-1.316 1.256-2.973 1.645-4.768 1.028-1.843-.636-2.79-2.187-2.664-4.091Zm-18.71-.033c1.393-.853 2.951-.329 3.755.116 1.13.625 1.87 1.994 1.622 3.172-.455 2.158-2.83 3.917-4.954 3.437-2.67-.6-3.614-3.554-1.768-5.556.404-.437.816-.845 1.345-1.169Z"/>
  <path fill="#262625" class="ds-explore__whats-new-eye-left" fill-rule="nonzero" d="M94.156 30.453c.164-.6.317-1.205.5-1.8.57-1.844 1.954-2.992 3.536-2.947 1.67.048 3.351 1.448 3.818 3.18.504 1.864-.249 3.497-2.136 4.639-.114.069-.228.144-.342.213-.312.078-.62.173-.938.236-2.65.534-4.486-.926-4.438-3.524v.003Zm5.313-1.67c.51-.083.914-.308.908-.92-.006-.59-.695-1.174-1.37-1.132-.524.03-.86.339-.89.872-.033.582.68 1.193 1.349 1.18h.003Z"/>
  <path fill="#262625" class="ds-explore__whats-new-eye-right" fill-rule="nonzero" d="M112.865 30.486c-1.25-.695-2.08-1.636-1.933-3.186.165-1.762.95-3.18 2.433-4.13 1.076-.685 2.305-1.018 3.458-.245 1.301.87 2.497 1.891 2.473 3.686-.003.243-.018.489-.03.732-.501 1.47-1.469 2.409-2.943 3.008-1.193.483-2.293.45-3.461.138l.003-.003Zm3.257-6.95c-.605.072-.92.405-.902 1.022.018.615.498 1.097 1.091 1.064.554-.03.917-.302.911-.91-.009-.639-.536-1.193-1.1-1.175v-.001Z"/>
</svg>
