<svg xmlns="http://www.w3.org/2000/svg" fill="none" viewBox="0 0 320 224">
  <g clip-path="url(#a)">
    <path fill="var(--control-color-surface-100-surface, #F4F4F4)" d="M0 0h320v224H0z"/>
    <rect width="259.2" height="148.2" x="30.4" y="37.9" fill="var(--control-color-surface-base-surface, #FFF)" rx="1.2"/>
    <path fill="var(--control-color-text-base-text, #222)" d="M58.279 65.998c0 .58-.11 1.117-.33 1.61a3.9 3.9 0 0 1-.915 1.28c-.389.36-.848.644-1.378.85a4.749 4.749 0 0 1-1.715.302c-.614 0-1.186-.1-1.716-.302a4.294 4.294 0 0 1-1.378-.85 3.896 3.896 0 0 1-1.237-2.89V59.36h2.552v6.476c0 .31.04.59.12.844.079.248.194.459.344.632.155.174.342.307.562.401.22.094.471.14.753.14.28 0 .532-.046.752-.14.22-.094.408-.227.563-.4a1.73 1.73 0 0 0 .351-.633c.08-.254.12-.535.12-.844V59.36h2.552v6.638Zm8.803 1.357c0 .398-.091.764-.274 1.096-.183.329-.44.61-.774.844a3.896 3.896 0 0 1-1.202.549 5.83 5.83 0 0 1-1.56.197c-.46 0-.873-.04-1.238-.12a5.715 5.715 0 0 1-.964-.295 4.617 4.617 0 0 1-.717-.373 5.52 5.52 0 0 1-.5-.373l1.28-1.673a3.75 3.75 0 0 0 1.119.654c.389.14.757.21 1.103.21.174 0 .333-.013.479-.041a1.81 1.81 0 0 0 .386-.113.768.768 0 0 0 .254-.183.373.373 0 0 0 .09-.239.316.316 0 0 0-.112-.26.795.795 0 0 0-.309-.162 3.833 3.833 0 0 0-.506-.112 17.808 17.808 0 0 1-.682-.127 27.706 27.706 0 0 1-.696-.14 6.389 6.389 0 0 1-.682-.204 4.504 4.504 0 0 1-.626-.296 2.119 2.119 0 0 1-.506-.428 1.937 1.937 0 0 1-.345-.591 2.322 2.322 0 0 1-.127-.802c0-.408.094-.768.282-1.083a2.55 2.55 0 0 1 .766-.801 3.63 3.63 0 0 1 1.118-.5 5.246 5.246 0 0 1 1.343-.168c.656 0 1.245.09 1.765.267.525.174.966.406 1.322.696l-1.083 1.688a3.005 3.005 0 0 0-.387-.232 4.218 4.218 0 0 0-.506-.218 4.214 4.214 0 0 0-.556-.162 2.588 2.588 0 0 0-.555-.063c-.347 0-.626.037-.837.112-.21.07-.316.18-.316.33 0 .179.115.31.344.394.23.085.544.155.943.211.304.047.602.101.893.162.29.056.562.127.815.211.258.085.495.188.71.31.216.121.401.269.556.442.155.17.274.368.358.598.09.225.134.488.134.788Zm4.767-5.534c.572 0 1.095.113 1.568.337.474.22.88.523 1.217.907.337.38.597.826.78 1.337.188.506.281 1.042.281 1.61v.689h-5.484c.06.258.157.47.288.64.136.164.288.295.457.393.174.094.354.16.542.197.187.038.363.056.527.056.197 0 .38-.02.548-.063.174-.042.33-.096.472-.162.145-.065.276-.138.393-.218a2.98 2.98 0 0 0 .31-.253l1.427 1.47a4.424 4.424 0 0 1-.612.534c-.22.155-.466.288-.738.401a4.68 4.68 0 0 1-.886.253 5.668 5.668 0 0 1-1.062.091c-.6 0-1.148-.1-1.645-.302a3.788 3.788 0 0 1-1.266-.85 3.83 3.83 0 0 1-.815-1.301 4.638 4.638 0 0 1-.288-1.66c0-.567.105-1.099.316-1.596a4.19 4.19 0 0 1 .858-1.3c.365-.376.79-.67 1.272-.887a3.734 3.734 0 0 1 1.54-.323Zm-.042 2.004c-.366 0-.687.108-.963.323-.272.211-.469.516-.59.914h3.008a1.688 1.688 0 0 0-.203-.464 1.57 1.57 0 0 0-.33-.393 1.425 1.425 0 0 0-.43-.275 1.175 1.175 0 0 0-.492-.105Zm10.59-4.465V69.9H79.99V59.36h2.405Zm9.576 6.567a4.21 4.21 0 0 1-.31 1.617 4.01 4.01 0 0 1-.858 1.308c-.36.37-.79.661-1.286.872a4.044 4.044 0 0 1-1.61.316 4.043 4.043 0 0 1-1.61-.316 3.923 3.923 0 0 1-1.28-.872 4.067 4.067 0 0 1-.851-1.308 4.295 4.295 0 0 1-.302-1.617c0-.576.1-1.113.302-1.61.206-.501.49-.937.85-1.308.362-.37.788-.66 1.28-.872a4.045 4.045 0 0 1 1.61-.316c.582 0 1.119.105 1.61.316.498.211.927.502 1.287.872a4.146 4.146 0 0 1 1.168 2.918Zm-2.293 0c0-.262-.042-.51-.126-.745a1.914 1.914 0 0 0-.359-.626 1.676 1.676 0 0 0-1.286-.576c-.263 0-.504.051-.725.154-.215.103-.4.244-.555.422a2.02 2.02 0 0 0-.366.626 2.183 2.183 0 0 0-.126.745c0 .267.042.52.126.76.09.234.211.44.366.618s.34.32.555.422c.22.103.462.155.725.155a1.677 1.677 0 0 0 1.287-.576 1.93 1.93 0 0 0 .358-.62c.084-.238.126-.492.126-.759Zm8.768-1.329a2.083 2.083 0 0 0-.232-.21 1.295 1.295 0 0 0-.302-.198 1.705 1.705 0 0 0-.387-.147c-.14-.042-.3-.063-.478-.063-.262 0-.504.051-.724.154-.216.103-.4.244-.555.422a2.02 2.02 0 0 0-.366.626 2.185 2.185 0 0 0-.127.745c0 .267.043.52.127.76.089.234.21.44.366.618.154.178.34.32.555.422.22.103.462.155.724.155a2.2 2.2 0 0 0 .774-.134c.243-.093.452-.206.626-.337l1.35 1.596a3.377 3.377 0 0 1-1.189.78c-.44.17-.96.253-1.56.253a4.043 4.043 0 0 1-1.61-.316 3.923 3.923 0 0 1-1.28-.872 4.07 4.07 0 0 1-.851-1.308 4.297 4.297 0 0 1-.303-1.617c0-.576.101-1.113.303-1.61a4.07 4.07 0 0 1 .85-1.308c.361-.37.788-.66 1.28-.872a4.045 4.045 0 0 1 1.61-.316c.581 0 1.106.096 1.575.288.469.188.87.471 1.203.851l-1.379 1.638Zm9.936-2.63V69.9h-2.349v-.865a2.13 2.13 0 0 1-.323.373 2.688 2.688 0 0 1-.457.323 2.604 2.604 0 0 1-.591.225 2.846 2.846 0 0 1-.717.084c-.333 0-.654-.049-.963-.147-.31-.099-.6-.237-.872-.415a3.85 3.85 0 0 1-.746-.64 4.373 4.373 0 0 1-.583-.837 4.567 4.567 0 0 1-.506-2.102 4.308 4.308 0 0 1 1.103-2.904 3.781 3.781 0 0 1 1.154-.858 3.08 3.08 0 0 1 1.357-.316c.356 0 .665.047.928.14.262.09.48.193.654.31.178.112.311.225.4.337.094.108.148.181.162.219v-.858h2.349Zm-5.836 3.931a2.17 2.17 0 0 0 .492 1.413c.155.183.34.33.555.443.221.113.462.17.725.17.262 0 .501-.057.717-.17.22-.112.408-.26.562-.443a2.07 2.07 0 0 0 .359-.647c.089-.243.133-.499.133-.766 0-.262-.044-.516-.133-.76a1.991 1.991 0 0 0-.359-.64 1.75 1.75 0 0 0-.562-.45 1.528 1.528 0 0 0-.717-.168c-.263 0-.504.056-.725.169a1.79 1.79 0 0 0-.555.45 2.085 2.085 0 0 0-.366.64 2.315 2.315 0 0 0-.126.76Zm10.413-3.93h1.498v1.842h-1.498v3.368c0 .16.009.293.028.4a.509.509 0 0 0 .127.268c.07.065.168.112.295.14.127.029.298.043.513.043h.535v1.87h-1.139c-.549 0-1.001-.052-1.357-.155-.352-.103-.631-.262-.837-.478a1.803 1.803 0 0 1-.436-.816 4.943 4.943 0 0 1-.12-1.16v-3.48h-1.293v-1.842h1.293v-1.99h2.391v1.99Zm5.14 7.93h-2.405v-7.93h2.405v7.93Zm-2.574-9.85a1.382 1.382 0 0 1 .823-1.266c.169-.075.349-.112.541-.112.197 0 .38.038.549.112a1.328 1.328 0 0 1 .731.731c.07.17.106.348.106.535a1.418 1.418 0 0 1-.394.992 1.415 1.415 0 0 1-.992.394 1.356 1.356 0 0 1-.97-.394 1.41 1.41 0 0 1-.394-.992Zm12.15 5.878a4.21 4.21 0 0 1-.309 1.617 4 4 0 0 1-.858 1.308c-.361.37-.79.661-1.287.872a4.04 4.04 0 0 1-1.61.316 4.043 4.043 0 0 1-1.61-.316 3.928 3.928 0 0 1-1.28-.872 4.078 4.078 0 0 1-.85-1.308 4.288 4.288 0 0 1-.303-1.617c0-.576.101-1.113.303-1.61.206-.501.49-.937.85-1.308a3.93 3.93 0 0 1 1.28-.872 4.045 4.045 0 0 1 1.61-.316 4.04 4.04 0 0 1 1.61.316c.497.211.926.502 1.287.872a4 4 0 0 1 .858 1.308c.206.497.309 1.034.309 1.61Zm-2.292 0c0-.262-.042-.51-.126-.745a1.922 1.922 0 0 0-.359-.626 1.68 1.68 0 0 0-1.287-.576c-.262 0-.504.051-.724.154a1.683 1.683 0 0 0-.555.422 2.012 2.012 0 0 0-.366.626 2.193 2.193 0 0 0-.127.745c0 .267.043.52.127.76.089.234.211.44.366.618.154.178.339.32.555.422.22.103.462.155.724.155a1.68 1.68 0 0 0 1.287-.576c.155-.179.274-.385.359-.62.084-.238.126-.492.126-.759Zm6.131-2.91c.221-.4.532-.697.936-.894.403-.201.869-.302 1.399-.302.426 0 .794.082 1.104.246.309.164.565.385.766.661.202.277.349.6.443.97.099.37.148.762.148 1.175V69.9h-2.405v-4.577c0-.16-.012-.329-.035-.507a1.336 1.336 0 0 0-.148-.492.949.949 0 0 0-.337-.372c-.146-.104-.347-.155-.605-.155-.253 0-.462.054-.626.162a1.235 1.235 0 0 0-.393.386c-.094.155-.16.319-.197.492-.033.174-.05.326-.05.457V69.9h-2.404v-7.931h2.32v1.047h.084Zm16.186 4.338c0 .398-.091.764-.274 1.096a2.53 2.53 0 0 1-.773.844 3.899 3.899 0 0 1-1.203.549 5.78 5.78 0 0 1-1.561.197c-.459 0-.871-.04-1.237-.12a5.7 5.7 0 0 1-.963-.295 4.63 4.63 0 0 1-.718-.373 5.553 5.553 0 0 1-.499-.373l1.28-1.673c.356.295.729.513 1.118.654.389.14.757.21 1.104.21.173 0 .333-.013.478-.041.15-.029.279-.066.387-.113a.776.776 0 0 0 .253-.183.372.372 0 0 0 .091-.239.316.316 0 0 0-.112-.26.802.802 0 0 0-.31-.162 3.816 3.816 0 0 0-.506-.112 17.595 17.595 0 0 1-.682-.127 27.706 27.706 0 0 1-.696-.14 6.395 6.395 0 0 1-.682-.204 4.528 4.528 0 0 1-.626-.296 2.116 2.116 0 0 1-.506-.428 1.959 1.959 0 0 1-.345-.591 2.33 2.33 0 0 1-.126-.802c0-.408.094-.768.281-1.083.192-.318.448-.585.766-.801.324-.22.697-.387 1.118-.5a5.252 5.252 0 0 1 1.343-.168c.657 0 1.245.09 1.765.267.525.174.966.406 1.322.696l-1.083 1.688a3.025 3.025 0 0 0-.386-.232 4.245 4.245 0 0 0-.507-.218 4.212 4.212 0 0 0-.555-.162 2.593 2.593 0 0 0-.556-.063c-.347 0-.625.037-.836.112-.211.07-.317.18-.317.33 0 .179.115.31.345.394.229.085.544.155.942.211.305.047.602.101.893.162.291.056.562.127.816.211.257.085.494.188.71.31.215.121.4.269.555.442a1.8 1.8 0 0 1 .359.598c.089.225.133.488.133.788Zm4.768-5.534a3.61 3.61 0 0 1 1.568.337c.473.22.878.523 1.216.907.337.38.598.826.78 1.337.188.506.282 1.042.282 1.61v.689h-5.485c.061.258.157.47.289.64a1.7 1.7 0 0 0 .457.393c.173.094.353.16.541.197.187.038.363.056.527.056.197 0 .38-.02.549-.063a2.663 2.663 0 0 0 .865-.38 2.87 2.87 0 0 0 .309-.253l1.427 1.47a4.406 4.406 0 0 1-.611.534 3.846 3.846 0 0 1-.739.401 4.665 4.665 0 0 1-.886.253 5.654 5.654 0 0 1-1.061.091c-.6 0-1.149-.1-1.646-.302a3.78 3.78 0 0 1-1.265-.85 3.82 3.82 0 0 1-.816-1.301 4.643 4.643 0 0 1-.288-1.66c0-.567.105-1.099.316-1.596a4.18 4.18 0 0 1 .858-1.3c.366-.376.79-.67 1.273-.887a3.734 3.734 0 0 1 1.54-.323Zm-.043 2.004c-.365 0-.686.108-.963.323-.272.211-.469.516-.591.914h3.01a1.676 1.676 0 0 0-.204-.464 1.557 1.557 0 0 0-.331-.393 1.418 1.418 0 0 0-.428-.275 1.179 1.179 0 0 0-.493-.105Zm7.678 6.075h-2.404v-7.931h2.348v1.722c.103-.393.249-.712.436-.956.188-.244.392-.434.612-.57.225-.135.457-.227.696-.274.239-.047.464-.07.675-.07v2.32a2.63 2.63 0 0 0-.851.099c-.281.08-.534.208-.759.386a2.014 2.014 0 0 0-.549.69c-.136.276-.204.609-.204.998V69.9Zm8.382-7.931h2.475l-3.15 7.93h-1.8l-3.108-7.93h2.489l1.54 4.675 1.554-4.675Zm5.793 7.93h-2.404v-7.93h2.404v7.93Zm-2.573-9.85c0-.187.035-.365.106-.534.07-.169.166-.314.288-.436.122-.127.265-.225.429-.296.168-.075.349-.112.541-.112.197 0 .38.038.549.112.173.07.321.17.443.296a1.381 1.381 0 0 1 .393.97 1.418 1.418 0 0 1-.393.992 1.415 1.415 0 0 1-.992.394 1.356 1.356 0 0 1-.97-.394 1.41 1.41 0 0 1-.394-.992Zm9.485 4.55a2.03 2.03 0 0 0-.232-.212 1.29 1.29 0 0 0-.302-.197 1.723 1.723 0 0 0-.387-.147 1.665 1.665 0 0 0-.478-.063c-.263 0-.504.051-.724.154a1.697 1.697 0 0 0-.556.422 2.03 2.03 0 0 0-.365.626 2.169 2.169 0 0 0-.127.745c0 .267.042.52.127.76.089.234.211.44.365.618.155.178.34.32.556.422.22.103.461.155.724.155.277 0 .534-.045.773-.134.244-.093.453-.206.626-.337l1.35 1.596a3.367 3.367 0 0 1-1.188.78c-.441.17-.961.253-1.561.253a4.043 4.043 0 0 1-1.61-.316 3.928 3.928 0 0 1-1.28-.872 4.08 4.08 0 0 1-.851-1.308 4.307 4.307 0 0 1-.302-1.617c0-.576.101-1.113.302-1.61a4.08 4.08 0 0 1 .851-1.308 3.93 3.93 0 0 1 1.28-.872 4.045 4.045 0 0 1 1.61-.316c.581 0 1.106.096 1.575.288.469.188.87.471 1.202.851l-1.378 1.638Zm5.801-2.778c.572 0 1.095.113 1.568.337.473.22.879.523 1.216.907.338.38.598.826.781 1.337a4.61 4.61 0 0 1 .281 1.61v.689h-5.484c.061.258.157.47.288.64.136.164.288.295.457.393.173.094.354.16.541.197.188.038.364.056.528.056a2.453 2.453 0 0 0 1.019-.225 2.49 2.49 0 0 0 .394-.218 2.87 2.87 0 0 0 .309-.253l1.428 1.47a4.473 4.473 0 0 1-.612.534c-.22.155-.466.288-.738.401a4.686 4.686 0 0 1-.886.253 5.672 5.672 0 0 1-1.062.091c-.6 0-1.148-.1-1.645-.302a3.795 3.795 0 0 1-1.266-.85 3.833 3.833 0 0 1-.815-1.301 4.621 4.621 0 0 1-.289-1.66c0-.567.106-1.099.317-1.596.211-.497.497-.93.857-1.3.366-.376.79-.67 1.273-.887a3.734 3.734 0 0 1 1.54-.323Zm-.042 2.004a1.52 1.52 0 0 0-.963.323c-.272.211-.469.516-.591.914h3.009a1.676 1.676 0 0 0-.204-.464 1.574 1.574 0 0 0-.33-.393 1.435 1.435 0 0 0-.429-.275 1.178 1.178 0 0 0-.492-.105Zm11.854 3.53c0 .398-.091.764-.274 1.096a2.53 2.53 0 0 1-.773.844 3.899 3.899 0 0 1-1.203.549 5.778 5.778 0 0 1-1.56.197c-.46 0-.872-.04-1.238-.12a5.7 5.7 0 0 1-.963-.295 4.57 4.57 0 0 1-.717-.373 5.584 5.584 0 0 1-.5-.373l1.28-1.673c.356.295.729.513 1.118.654.389.14.757.21 1.104.21.173 0 .333-.013.478-.041.15-.029.279-.066.387-.113a.766.766 0 0 0 .253-.183.372.372 0 0 0 .091-.239.316.316 0 0 0-.112-.26.802.802 0 0 0-.31-.162 3.816 3.816 0 0 0-.506-.112 17.953 17.953 0 0 1-.682-.127 27.706 27.706 0 0 1-.696-.14 6.395 6.395 0 0 1-.682-.204 4.528 4.528 0 0 1-.626-.296 2.116 2.116 0 0 1-.506-.428 1.959 1.959 0 0 1-.345-.591 2.33 2.33 0 0 1-.126-.802c0-.408.094-.768.281-1.083.192-.318.448-.585.767-.801.323-.22.696-.387 1.118-.5a5.239 5.239 0 0 1 1.342-.168c.657 0 1.245.09 1.765.267.525.174.966.406 1.322.696l-1.083 1.688a3.025 3.025 0 0 0-.386-.232 4.245 4.245 0 0 0-.507-.218 4.212 4.212 0 0 0-.555-.162 2.586 2.586 0 0 0-.556-.063c-.346 0-.625.037-.836.112-.211.07-.317.18-.317.33 0 .179.115.31.345.394.23.085.544.155.942.211.305.047.602.101.893.162.291.056.563.127.816.211.257.085.494.188.71.31.215.121.401.269.555.442.155.17.275.368.359.598.089.225.133.488.133.788Zm2.778 1.265a1.429 1.429 0 0 1 1.983-1.315c.173.075.323.179.45.31a1.385 1.385 0 0 1 .422 1.005 1.385 1.385 0 0 1-.422 1.006 1.445 1.445 0 0 1-.45.302 1.388 1.388 0 0 1-.556.112 1.38 1.38 0 0 1-.555-.112 1.513 1.513 0 0 1-.457-.302 1.429 1.429 0 0 1-.415-1.006Zm1.526-9.408c.478 0 .925.061 1.343.183.421.117.787.288 1.096.513.315.225.561.502.739.83.178.328.267.703.267 1.125 0 .366-.061.696-.183.992a3.91 3.91 0 0 1-.457.808 6.385 6.385 0 0 1-.583.69c-.211.21-.408.419-.591.625a3.946 3.946 0 0 0-.45.633c-.122.21-.183.44-.183.689h-2.236c0-.408.056-.771.169-1.09.112-.323.253-.612.422-.865.173-.258.358-.487.555-.689l.549-.562c.173-.174.316-.338.429-.492a.828.828 0 0 0 .168-.479.66.66 0 0 0-.253-.541c-.169-.136-.436-.204-.801-.204-.244 0-.478.038-.703.112a3.155 3.155 0 0 0-1.118.647 3.482 3.482 0 0 0-.352.345l-1.498-1.666a5.2 5.2 0 0 1 .95-.83 4.446 4.446 0 0 1 1.863-.717c.3-.038.586-.057.858-.057ZM49.264 97.5v-6.298h.797v5.616h2.755v.682h-3.552Zm6.37.115a2.26 2.26 0 0 1-1.132-.288 2.138 2.138 0 0 1-.806-.845c-.199-.364-.298-.8-.298-1.305 0-.512.1-.95.297-1.315.205-.365.468-.647.788-.845a1.88 1.88 0 0 1 1.008-.298c.595 0 1.053.199 1.373.595.326.397.49.928.49 1.594 0 .083-.004.166-.01.25a.937.937 0 0 1-.02.201h-3.148c.032.493.185.887.46 1.181.282.294.647.442 1.095.442.224 0 .428-.032.614-.096.192-.07.374-.16.547-.27l.279.52c-.199.127-.426.24-.682.335-.25.096-.534.144-.854.144Zm-1.468-2.822h2.496c0-.474-.102-.832-.307-1.075-.199-.25-.48-.375-.845-.375-.326 0-.62.128-.883.384-.256.25-.41.605-.461 1.066Zm5.715 2.822c-.5 0-.848-.144-1.046-.432-.192-.288-.288-.662-.288-1.123v-2.582h-.692v-.596l.73-.048.096-1.305h.662v1.305h1.258v.644h-1.258v2.592c0 .288.052.512.154.672.109.153.298.23.566.23.084 0 .173-.013.27-.038l.258-.087.154.595a3.347 3.347 0 0 1-.422.116 1.743 1.743 0 0 1-.442.057Zm5.06 0c-.493 0-.854-.153-1.085-.46-.23-.314-.345-.769-.345-1.364v-2.957h.797v2.852c0 .435.067.752.201.95.14.198.365.298.672.298.243 0 .458-.061.643-.183.192-.128.397-.33.615-.605v-3.312h.787V97.5h-.653l-.067-.73h-.029a3.06 3.06 0 0 1-.691.615c-.243.153-.525.23-.845.23Zm5.078 0c-.333 0-.65-.06-.95-.182a3.354 3.354 0 0 1-.788-.461l.394-.528c.205.16.416.294.633.403.218.103.464.154.74.154.307 0 .537-.07.69-.211a.696.696 0 0 0 .231-.519.548.548 0 0 0-.163-.403 1.17 1.17 0 0 0-.403-.269 5.84 5.84 0 0 0-.5-.211 8.125 8.125 0 0 1-.643-.278 1.592 1.592 0 0 1-.518-.413 1.031 1.031 0 0 1-.202-.653 1.2 1.2 0 0 1 .423-.94c.288-.257.685-.385 1.19-.385.288 0 .557.051.807.154a2.5 2.5 0 0 1 .643.374l-.384.5a2.508 2.508 0 0 0-.5-.298 1.379 1.379 0 0 0-.566-.115c-.294 0-.512.067-.653.201a.645.645 0 0 0-.201.47c0 .148.048.27.144.365.096.09.22.17.374.24.154.064.317.132.49.202.224.083.445.18.662.288.218.102.397.243.538.422.147.173.22.407.22.701 0 .25-.067.48-.2.691a1.37 1.37 0 0 1-.577.51c-.25.127-.56.191-.931.191Zm4.724-.115v-6.835h.788v1.862l-.03.96c.225-.211.459-.39.702-.537.25-.154.534-.23.854-.23.493 0 .851.156 1.075.47.23.307.346.758.346 1.353V97.5h-.787v-2.851c0-.435-.07-.752-.212-.95-.14-.199-.364-.298-.671-.298-.237 0-.452.06-.644.182a4.18 4.18 0 0 0-.633.538V97.5h-.788Zm7.114.115a2.26 2.26 0 0 1-1.133-.288 2.138 2.138 0 0 1-.807-.845c-.198-.364-.297-.8-.297-1.305 0-.512.099-.95.297-1.315.205-.365.468-.647.788-.845a1.88 1.88 0 0 1 1.008-.298c.595 0 1.052.199 1.372.595.327.397.49.928.49 1.594 0 .083-.003.166-.01.25a.937.937 0 0 1-.019.201h-3.149c.032.493.186.887.461 1.181.282.294.647.442 1.095.442.224 0 .428-.032.614-.096.192-.07.374-.16.547-.27l.279.52c-.199.127-.426.24-.682.335-.25.096-.534.144-.854.144Zm-1.47-2.822h2.497c0-.474-.103-.832-.307-1.075-.199-.25-.48-.375-.845-.375-.327 0-.621.128-.883.384-.256.25-.41.605-.461 1.066Zm5.176 2.822c-.294 0-.509-.09-.643-.269-.128-.185-.192-.448-.192-.787v-5.894h.787v5.952c0 .121.022.211.067.269a.2.2 0 0 0 .154.076h.067a1.1 1.1 0 0 1 .106-.019l.105.595a.68.68 0 0 1-.182.058c-.07.013-.16.02-.269.02Zm1.612 1.853v-6.634h.653l.067.538h.029a3.5 3.5 0 0 1 .69-.46 1.76 1.76 0 0 1 .797-.193c.602 0 1.06.218 1.373.653.314.429.47 1.005.47 1.728 0 .525-.095.976-.287 1.354a2.1 2.1 0 0 1-.74.864c-.3.198-.63.297-.988.297-.218 0-.436-.048-.653-.144a3.347 3.347 0 0 1-.643-.393l.019.816v1.574h-.787Zm1.93-2.515c.383 0 .7-.163.95-.49.256-.333.384-.787.384-1.363 0-.512-.096-.925-.288-1.238-.186-.32-.5-.48-.941-.48-.198 0-.4.054-.605.163a3.601 3.601 0 0 0-.643.47v2.448c.211.18.416.307.614.384.199.07.375.106.528.106Zm6.392.662c-.39 0-.717-.115-.98-.345-.255-.237-.383-.564-.383-.98 0-.512.227-.902.681-1.17.461-.276 1.187-.468 2.18-.577a1.84 1.84 0 0 0-.087-.566.812.812 0 0 0-.288-.432c-.134-.115-.33-.173-.586-.173a1.89 1.89 0 0 0-.758.154 3.7 3.7 0 0 0-.634.345l-.307-.547c.218-.14.483-.275.797-.403a2.65 2.65 0 0 1 1.037-.202c.57 0 .982.176 1.238.528.256.346.384.81.384 1.392V97.5h-.653l-.067-.557h-.029c-.217.18-.457.336-.72.47a1.75 1.75 0 0 1-.825.202Zm.23-.633a1.3 1.3 0 0 0 .634-.164c.198-.108.41-.262.633-.46v-1.296c-.774.096-1.318.24-1.632.432-.307.192-.46.438-.46.739 0 .262.08.454.24.576.16.115.355.173.585.173Zm3.532 2.486v-6.634h.653l.067.538h.029c.211-.18.442-.333.691-.46a1.75 1.75 0 0 1 .797-.193c.602 0 1.059.218 1.373.653.313.429.47 1.005.47 1.728 0 .525-.096.976-.288 1.354a2.096 2.096 0 0 1-.739.864c-.301.198-.63.297-.989.297a1.61 1.61 0 0 1-.653-.144 3.364 3.364 0 0 1-.643-.393l.019.816v1.574h-.787Zm1.93-2.515c.384 0 .701-.163.95-.49.256-.333.384-.787.384-1.363 0-.512-.096-.925-.288-1.238-.185-.32-.499-.48-.941-.48-.198 0-.4.054-.604.163a3.604 3.604 0 0 0-.644.47v2.448c.212.18.416.307.615.384.198.07.374.106.528.106Zm3.395 2.515v-6.634h.653l.067.538h.029c.211-.18.442-.333.691-.46a1.75 1.75 0 0 1 .797-.193c.602 0 1.059.218 1.373.653.313.429.47 1.005.47 1.728 0 .525-.096.976-.288 1.354a2.096 2.096 0 0 1-.739.864c-.301.198-.63.297-.989.297a1.61 1.61 0 0 1-.653-.144 3.364 3.364 0 0 1-.643-.393l.019.816v1.574h-.787Zm1.93-2.515c.384 0 .701-.163.95-.49.256-.333.384-.787.384-1.363 0-.512-.096-.925-.288-1.238-.185-.32-.499-.48-.941-.48-.198 0-.4.054-.604.163a3.604 3.604 0 0 0-.644.47v2.448c.212.18.416.307.615.384.198.07.374.106.528.106Zm4.614.662c-.332 0-.649-.06-.95-.182a3.348 3.348 0 0 1-.787-.461l.393-.528c.205.16.416.294.634.403.218.103.464.154.739.154.307 0 .538-.07.691-.211a.695.695 0 0 0 .231-.519.55.55 0 0 0-.163-.403 1.174 1.174 0 0 0-.404-.269 5.81 5.81 0 0 0-.499-.211 8.185 8.185 0 0 1-.643-.278 1.588 1.588 0 0 1-.518-.413c-.135-.173-.202-.39-.202-.653 0-.378.141-.691.422-.94.288-.257.685-.385 1.191-.385a2.1 2.1 0 0 1 .806.154c.25.102.464.227.643.374l-.384.5a2.5 2.5 0 0 0-.499-.298 1.377 1.377 0 0 0-.566-.115c-.295 0-.512.067-.653.201a.647.647 0 0 0-.202.47c0 .148.048.27.144.365.096.09.221.17.375.24l.489.202c.224.083.445.18.663.288.217.102.397.243.537.422.148.173.221.407.221.701 0 .25-.067.48-.201.691-.128.212-.32.381-.576.51-.25.127-.56.191-.932.191Zm6.318 0c-.582 0-1.049-.211-1.401-.633-.352-.43-.528-1.03-.528-1.805 0-.506.093-.941.278-1.306a2.18 2.18 0 0 1 .749-.854c.314-.199.646-.298.998-.298.269 0 .503.048.701.144.199.096.4.227.605.394l-.038-.797v-1.795h.796V97.5h-.652l-.068-.547h-.028a2.83 2.83 0 0 1-.634.47 1.644 1.644 0 0 1-.778.192Zm.173-.662c.41 0 .807-.215 1.191-.643v-2.44a1.886 1.886 0 0 0-.576-.374 1.404 1.404 0 0 0-.557-.115c-.25 0-.477.076-.682.23a1.56 1.56 0 0 0-.48.624 2.207 2.207 0 0 0-.182.931c0 .557.112.995.336 1.315.224.314.541.47.95.47Zm5.45.662a2.26 2.26 0 0 1-1.133-.288 2.136 2.136 0 0 1-.806-.845c-.199-.364-.298-.8-.298-1.305 0-.512.099-.95.298-1.315a2.28 2.28 0 0 1 .787-.845 1.88 1.88 0 0 1 1.008-.298c.595 0 1.053.199 1.373.595.326.397.489.928.489 1.594 0 .083-.003.166-.009.25a.992.992 0 0 1-.019.201h-3.149c.032.493.185.887.461 1.181.281.294.646.442 1.094.442.224 0 .429-.032.614-.096.192-.07.375-.16.548-.27l.278.52a3.55 3.55 0 0 1-.682.335 2.363 2.363 0 0 1-.854.144Zm-1.469-2.822h2.496c0-.474-.102-.832-.307-1.075-.198-.25-.48-.375-.845-.375-.326 0-.621.128-.883.384-.256.25-.41.605-.461 1.066Zm5.715 2.822c-.499 0-.848-.144-1.046-.432-.192-.288-.288-.662-.288-1.123v-2.582h-.691v-.596l.729-.048.096-1.305h.663v1.305h1.257v.644h-1.257v2.592c0 .288.051.512.153.672.109.153.298.23.567.23.083 0 .173-.013.269-.038l.259-.087.153.595a3.322 3.322 0 0 1-.422.116 1.74 1.74 0 0 1-.442.057Zm3.535 0c-.416 0-.793-.096-1.132-.288a2.138 2.138 0 0 1-.807-.845c-.198-.364-.297-.8-.297-1.305 0-.512.099-.95.297-1.315a2.28 2.28 0 0 1 .787-.845 1.88 1.88 0 0 1 1.008-.298c.596 0 1.053.199 1.373.595.327.397.49.928.49 1.594 0 .083-.003.166-.01.25a.926.926 0 0 1-.019.201h-3.149c.032.493.186.887.461 1.181.282.294.646.442 1.094.442.224 0 .429-.032.615-.096.192-.07.374-.16.547-.27l.278.52a3.54 3.54 0 0 1-.681.335c-.25.096-.535.144-.855.144Zm-1.468-2.822h2.496c0-.474-.103-.832-.308-1.075-.198-.25-.48-.375-.844-.375-.327 0-.621.128-.884.384-.256.25-.409.605-.46 1.066Zm4.34 2.707v-4.666h.652l.068.845h.028c.16-.294.356-.528.586-.7a1.237 1.237 0 0 1 1.238-.163l-.153.69a1.253 1.253 0 0 0-.451-.077c-.199 0-.407.08-.624.24-.212.16-.397.439-.557.836V97.5h-.787Zm3.328 0v-4.666h.653l.067.672h.029c.204-.224.428-.41.672-.556a1.43 1.43 0 0 1 .777-.23c.359 0 .637.08.835.24.205.153.356.37.452.652a4.16 4.16 0 0 1 .739-.643 1.41 1.41 0 0 1 .797-.25c.48 0 .835.157 1.065.47.237.308.355.759.355 1.354V97.5h-.787v-2.851c0-.435-.07-.752-.211-.95-.141-.199-.358-.298-.653-.298-.345 0-.736.24-1.171.72V97.5h-.787v-2.851c0-.435-.071-.752-.211-.95-.141-.199-.362-.298-.663-.298-.345 0-.736.24-1.171.72V97.5h-.787Zm7.959 0v-4.666h.787V97.5h-.787Zm.403-5.626a.564.564 0 0 1-.384-.134.519.519 0 0 1-.144-.384c0-.154.048-.278.144-.374a.542.542 0 0 1 .384-.144.507.507 0 0 1 .528.518c0 .16-.051.288-.153.384a.528.528 0 0 1-.375.134Zm1.96 5.626v-4.666h.652l.068.672h.028c.224-.224.461-.41.711-.556a1.59 1.59 0 0 1 .854-.23c.493 0 .851.156 1.075.47.231.307.346.758.346 1.353V97.5h-.787v-2.851c0-.435-.071-.752-.211-.95-.141-.199-.365-.298-.672-.298-.237 0-.452.06-.644.182a4.23 4.23 0 0 0-.633.538V97.5h-.787Zm7.141.115a2.26 2.26 0 0 1-1.133-.288 2.136 2.136 0 0 1-.806-.845c-.199-.364-.298-.8-.298-1.305 0-.512.099-.95.298-1.315.204-.365.467-.647.787-.845a1.88 1.88 0 0 1 1.008-.298c.595 0 1.053.199 1.373.595.326.397.489.928.489 1.594 0 .083-.003.166-.009.25a.921.921 0 0 1-.02.201h-3.148c.032.493.185.887.46 1.181.282.294.647.442 1.095.442.224 0 .429-.032.614-.096.192-.07.375-.16.547-.27l.279.52a3.58 3.58 0 0 1-.682.335 2.363 2.363 0 0 1-.854.144Zm-1.469-2.822h2.496c0-.474-.102-.832-.307-1.075-.199-.25-.48-.375-.845-.375-.326 0-.621.128-.883.384-.256.25-.41.605-.461 1.066Zm7.097 2.822c-.294 0-.509-.09-.643-.269-.128-.185-.192-.448-.192-.787v-5.894h.787v5.952c0 .121.023.211.067.269a.2.2 0 0 0 .154.076h.067c.026-.006.061-.012.106-.019l.105.595a.679.679 0 0 1-.182.058c-.07.013-.16.02-.269.02Zm3.426 0c-.377 0-.733-.096-1.065-.288a2.178 2.178 0 0 1-.797-.835c-.199-.365-.298-.803-.298-1.315 0-.525.099-.97.298-1.335.205-.364.47-.643.797-.835a2.095 2.095 0 0 1 1.065-.288c.384 0 .739.096 1.066.288.326.192.589.47.787.835.205.365.307.81.307 1.335 0 .512-.102.95-.307 1.315a2.112 2.112 0 0 1-.787.835 2.067 2.067 0 0 1-1.066.288Zm0-.653c.403 0 .727-.163.97-.49.249-.332.374-.764.374-1.295 0-.538-.125-.973-.374-1.306a1.144 1.144 0 0 0-.97-.499c-.397 0-.72.166-.969.5-.25.332-.375.767-.375 1.305 0 .531.125.963.375 1.296.249.326.572.49.969.49Zm5.232.653c-.409 0-.781-.096-1.113-.288a2.028 2.028 0 0 1-.788-.835c-.192-.365-.288-.803-.288-1.315 0-.525.103-.97.308-1.335a2.2 2.2 0 0 1 .825-.835 2.259 2.259 0 0 1 1.114-.288c.307 0 .569.055.787.163.224.11.416.237.576.384l-.403.519a1.956 1.956 0 0 0-.432-.298 1.063 1.063 0 0 0-.499-.115 1.31 1.31 0 0 0-.759.23c-.217.148-.39.359-.518.634a2.257 2.257 0 0 0-.183.94c0 .532.132.964.394 1.297.269.326.618.49 1.046.49.218 0 .42-.045.605-.135.186-.096.349-.208.49-.336l.345.528a2.583 2.583 0 0 1-.7.442 2.153 2.153 0 0 1-.807.153Zm3.517 0c-.391 0-.717-.115-.98-.345-.256-.237-.384-.564-.384-.98 0-.512.228-.902.682-1.17.461-.276 1.187-.468 2.179-.577 0-.198-.029-.387-.086-.566a.81.81 0 0 0-.288-.432c-.135-.115-.33-.173-.586-.173-.269 0-.521.051-.758.154a3.711 3.711 0 0 0-.634.345l-.307-.547c.218-.14.483-.275.797-.403.32-.135.665-.202 1.037-.202.569 0 .982.176 1.238.528.256.346.384.81.384 1.392V97.5h-.653l-.067-.557h-.029c-.217.18-.457.336-.72.47a1.749 1.749 0 0 1-.825.202Zm.23-.633a1.3 1.3 0 0 0 .634-.164 3.57 3.57 0 0 0 .633-.46v-1.296c-.774.096-1.318.24-1.632.432-.307.192-.461.438-.461.739 0 .262.08.454.24.576a.98.98 0 0 0 .586.173Zm4.869.633c-.499 0-.848-.144-1.046-.432-.192-.288-.288-.662-.288-1.123v-2.582h-.691v-.596l.729-.048.096-1.305h.663v1.305h1.257v.644h-1.257v2.592c0 .288.051.512.153.672.109.153.298.23.567.23.083 0 .173-.013.269-.038l.259-.087.153.595a3.322 3.322 0 0 1-.422.116 1.74 1.74 0 0 1-.442.057Zm1.775-.115v-4.666h.788V97.5h-.788Zm.404-5.626a.56.56 0 0 1-.384-.134.519.519 0 0 1-.144-.384c0-.154.048-.278.144-.374a.538.538 0 0 1 .384-.144.506.506 0 0 1 .528.518c0 .16-.052.288-.154.384a.527.527 0 0 1-.374.134Zm3.773 5.741c-.377 0-.733-.096-1.065-.288a2.178 2.178 0 0 1-.797-.835c-.199-.365-.298-.803-.298-1.315 0-.525.099-.97.298-1.335.205-.364.47-.643.797-.835a2.095 2.095 0 0 1 1.065-.288c.384 0 .739.096 1.066.288.326.192.589.47.787.835.205.365.307.81.307 1.335 0 .512-.102.95-.307 1.315a2.112 2.112 0 0 1-.787.835 2.067 2.067 0 0 1-1.066.288Zm0-.653c.403 0 .727-.163.97-.49.249-.332.374-.764.374-1.295 0-.538-.125-.973-.374-1.306a1.144 1.144 0 0 0-.97-.499c-.397 0-.72.166-.969.5-.25.332-.375.767-.375 1.305 0 .531.125.963.375 1.296.249.326.572.49.969.49Zm3.389.538v-4.666h.653l.067.672h.029a3.59 3.59 0 0 1 .71-.556 1.6 1.6 0 0 1 .855-.23c.492 0 .851.156 1.075.47.23.307.345.758.345 1.353V97.5h-.787v-2.851c0-.435-.07-.752-.211-.95-.141-.199-.365-.298-.672-.298-.237 0-.451.06-.643.182a4.18 4.18 0 0 0-.634.538V97.5h-.787Zm5.663.115a.58.58 0 0 1-.413-.163.604.604 0 0 1-.163-.432c0-.186.054-.333.163-.442a.564.564 0 0 1 .413-.172.52.52 0 0 1 .393.172.576.576 0 0 1 .173.442.583.583 0 0 1-.173.432.535.535 0 0 1-.393.163Zm5.282-.115v-5.626H195.8v-.672h4.608v.672h-1.901V97.5h-.806Zm3.764 0v-6.835h.788v1.862l-.029.96c.224-.211.457-.39.701-.537a1.59 1.59 0 0 1 .854-.23c.493 0 .851.156 1.075.47.231.307.346.758.346 1.353V97.5h-.787v-2.851c0-.435-.071-.752-.212-.95-.14-.199-.364-.298-.672-.298-.236 0-.451.06-.643.182a4.18 4.18 0 0 0-.633.538V97.5h-.788Zm5.222 0v-4.666h.787V97.5h-.787Zm.403-5.626a.564.564 0 0 1-.384-.134.519.519 0 0 1-.144-.384c0-.154.048-.278.144-.374a.542.542 0 0 1 .384-.144.507.507 0 0 1 .528.518c0 .16-.051.288-.153.384a.528.528 0 0 1-.375.134Zm3.179 5.741c-.333 0-.65-.06-.95-.182a3.356 3.356 0 0 1-.788-.461l.394-.528c.205.16.416.294.634.403.217.103.464.154.739.154.307 0 .537-.07.691-.211a.694.694 0 0 0 .23-.519.547.547 0 0 0-.163-.403 1.17 1.17 0 0 0-.403-.269 5.81 5.81 0 0 0-.499-.211 8.026 8.026 0 0 1-.643-.278 1.592 1.592 0 0 1-.519-.413 1.034 1.034 0 0 1-.201-.653c0-.378.14-.691.422-.94.288-.257.685-.385 1.19-.385.288 0 .557.051.807.154a2.5 2.5 0 0 1 .643.374l-.384.5a2.5 2.5 0 0 0-.499-.298 1.382 1.382 0 0 0-.567-.115c-.294 0-.512.067-.652.201a.643.643 0 0 0-.202.47c0 .148.048.27.144.365.096.09.221.17.374.24.154.064.317.132.49.202.224.083.445.18.662.288.218.102.397.243.538.422.147.173.221.407.221.701 0 .25-.067.48-.202.691-.128.212-.32.381-.576.51-.249.127-.56.191-.931.191Zm4.724-.115v-4.666h.653l.067.672h.029a3.06 3.06 0 0 1 .672-.556c.243-.154.503-.23.778-.23.358 0 .637.08.835.24.205.153.355.37.451.652.243-.262.49-.477.739-.643.25-.167.516-.25.797-.25.48 0 .835.157 1.066.47.237.308.355.759.355 1.354V97.5h-.787v-2.851c0-.435-.071-.752-.211-.95-.141-.199-.359-.298-.653-.298-.346 0-.736.24-1.171.72V97.5h-.788v-2.851c0-.435-.07-.752-.211-.95-.141-.199-.361-.298-.662-.298-.346 0-.736.24-1.171.72V97.5h-.788Zm9.851.115a2.26 2.26 0 0 1-1.133-.288 2.136 2.136 0 0 1-.806-.845c-.199-.364-.298-.8-.298-1.305 0-.512.099-.95.298-1.315a2.28 2.28 0 0 1 .787-.845 1.88 1.88 0 0 1 1.008-.298c.595 0 1.053.199 1.373.595.326.397.489.928.489 1.594 0 .083-.003.166-.009.25a.992.992 0 0 1-.019.201h-3.149c.032.493.185.887.461 1.181.281.294.646.442 1.094.442.224 0 .429-.032.614-.096.192-.07.375-.16.548-.27l.278.52a3.55 3.55 0 0 1-.682.335 2.363 2.363 0 0 1-.854.144Zm-1.469-2.822h2.496c0-.474-.102-.832-.307-1.075-.198-.25-.48-.375-.845-.375-.326 0-.621.128-.883.384-.256.25-.41.605-.461 1.066Zm5.284 2.822c-.39 0-.716-.115-.979-.345-.256-.237-.384-.564-.384-.98 0-.512.227-.902.682-1.17.461-.276 1.187-.468 2.179-.577 0-.198-.029-.387-.086-.566a.821.821 0 0 0-.288-.432c-.135-.115-.33-.173-.586-.173-.269 0-.522.051-.758.154a3.711 3.711 0 0 0-.634.345l-.307-.547c.217-.14.483-.275.797-.403.32-.135.665-.202 1.036-.202.57 0 .983.176 1.239.528.256.346.384.81.384 1.392V97.5h-.653l-.067-.557h-.029a3.95 3.95 0 0 1-.72.47 1.75 1.75 0 0 1-.826.202Zm.231-.633c.224 0 .435-.055.633-.164a3.51 3.51 0 0 0 .634-.46v-1.296c-.774.096-1.318.24-1.632.432-.307.192-.461.438-.461.739 0 .262.08.454.24.576.16.115.355.173.586.173Zm3.532.518v-4.666h.652l.068.672h.028c.224-.224.461-.41.711-.556a1.59 1.59 0 0 1 .854-.23c.493 0 .851.156 1.075.47.231.307.346.758.346 1.353V97.5h-.787v-2.851c0-.435-.071-.752-.211-.95-.141-.199-.365-.298-.672-.298-.237 0-.452.06-.644.182a4.23 4.23 0 0 0-.633.538V97.5h-.787Zm6.469.115c-.333 0-.65-.06-.951-.182a3.369 3.369 0 0 1-.787-.461l.394-.528c.205.16.416.294.633.403.218.103.464.154.74.154.307 0 .537-.07.691-.211a.697.697 0 0 0 .23-.519.547.547 0 0 0-.163-.403 1.17 1.17 0 0 0-.403-.269 5.947 5.947 0 0 0-.499-.211 8.206 8.206 0 0 1-.644-.278 1.588 1.588 0 0 1-.518-.413 1.034 1.034 0 0 1-.202-.653 1.2 1.2 0 0 1 .423-.94c.288-.257.685-.385 1.19-.385.288 0 .557.051.807.154a2.5 2.5 0 0 1 .643.374l-.384.5a2.53 2.53 0 0 0-.499-.298 1.382 1.382 0 0 0-.567-.115c-.294 0-.512.067-.653.201a.646.646 0 0 0-.201.47c0 .148.048.27.144.365.096.09.221.17.374.24.154.064.317.132.49.202.224.083.445.18.662.288.218.102.397.243.538.422.147.173.221.407.221.701 0 .25-.068.48-.202.691-.128.212-.32.381-.576.51-.25.127-.56.191-.931.191Zm-188.485 14c-.332 0-.65-.061-.95-.182a3.361 3.361 0 0 1-.787-.461l.393-.528c.205.16.416.294.634.403.218.103.464.154.74.154.306 0 .537-.071.69-.211a.697.697 0 0 0 .23-.519.548.548 0 0 0-.162-.403 1.176 1.176 0 0 0-.404-.269 5.776 5.776 0 0 0-.499-.211 8.195 8.195 0 0 1-.643-.278 1.6 1.6 0 0 1-.518-.413 1.033 1.033 0 0 1-.202-.653c0-.378.14-.691.422-.941.288-.256.685-.384 1.19-.384.289 0 .558.051.807.154.25.102.464.227.643.374l-.384.499a2.543 2.543 0 0 0-.499-.297 1.375 1.375 0 0 0-.566-.115c-.295 0-.512.067-.653.201a.646.646 0 0 0-.202.471c0 .147.048.268.144.364.096.09.221.17.375.24.153.064.317.132.49.202.223.083.444.179.662.288.217.102.397.243.537.422.148.173.221.407.221.701 0 .25-.067.48-.201.691a1.36 1.36 0 0 1-.576.509c-.25.128-.56.192-.932.192Zm4.694 0a2.26 2.26 0 0 1-1.133-.288 2.134 2.134 0 0 1-.806-.845c-.198-.364-.297-.8-.297-1.305 0-.512.099-.951.297-1.315a2.28 2.28 0 0 1 .787-.845 1.88 1.88 0 0 1 1.008-.298c.595 0 1.053.199 1.373.595.327.397.49.928.49 1.594 0 .083-.004.166-.01.25a.933.933 0 0 1-.02.201h-3.148c.032.493.186.887.46 1.181.282.294.647.442 1.095.442.224 0 .43-.032.615-.096.192-.071.374-.16.547-.269l.278.518c-.198.128-.425.24-.681.336-.25.096-.535.144-.855.144Zm-1.468-2.822h2.495c0-.474-.102-.832-.307-1.075-.198-.25-.48-.375-.845-.375-.326 0-.62.128-.883.384-.256.25-.41.605-.46 1.066Zm4.34 2.707v-4.666h.652l.068.672h.028c.224-.224.461-.409.71-.556.25-.154.535-.231.855-.231.493 0 .851.157 1.075.471.23.307.346.758.346 1.353v2.957h-.787v-2.851c0-.435-.07-.752-.211-.951-.141-.198-.365-.297-.672-.297-.237 0-.452.061-.644.182a4.19 4.19 0 0 0-.633.538v3.379h-.787Zm6.843.115c-.582 0-1.05-.211-1.401-.633-.352-.429-.528-1.031-.528-1.805 0-.506.092-.941.278-1.306a2.18 2.18 0 0 1 .749-.854c.313-.199.646-.298.998-.298.269 0 .503.048.701.144.198.096.4.227.605.394l-.039-.797v-1.795h.797v6.835h-.653l-.067-.547h-.029c-.179.179-.39.336-.633.47a1.646 1.646 0 0 1-.778.192Zm.173-.662c.41 0 .806-.215 1.19-.643v-2.439a1.867 1.867 0 0 0-.576-.374 1.396 1.396 0 0 0-.556-.115c-.25 0-.477.076-.682.23a1.55 1.55 0 0 0-.48.624 2.196 2.196 0 0 0-.182.931c0 .557.112.995.336 1.315.224.314.54.471.95.471Zm3.559.547v-4.666h.787v4.666h-.787Zm.403-5.626a.56.56 0 0 1-.384-.134.519.519 0 0 1-.144-.384c0-.154.048-.278.144-.374a.54.54 0 0 1 .384-.144.506.506 0 0 1 .528.518.5.5 0 0 1-.154.384.525.525 0 0 1-.374.134Zm1.96 5.626v-4.666h.652l.067.672h.029c.224-.224.46-.409.71-.556.25-.154.535-.231.855-.231.493 0 .85.157 1.075.471.23.307.346.758.346 1.353v2.957h-.788v-2.851c0-.435-.07-.752-.21-.951-.142-.198-.366-.297-.673-.297a1.18 1.18 0 0 0-.643.182 4.19 4.19 0 0 0-.634.538v3.379h-.787Zm6.824 2.15c-.57 0-1.034-.108-1.392-.326-.359-.218-.538-.528-.538-.931 0-.199.06-.391.182-.576a1.8 1.8 0 0 1 .5-.48v-.039a.937.937 0 0 1-.298-.297.88.88 0 0 1-.115-.461c0-.198.054-.371.163-.518.109-.148.224-.263.346-.346v-.038a1.954 1.954 0 0 1-.423-.519 1.487 1.487 0 0 1-.182-.739c0-.339.08-.634.24-.883.16-.25.374-.442.643-.576a1.919 1.919 0 0 1 1.238-.163c.115.019.215.044.298.076h1.622v.605h-.96c.11.103.199.24.27.413a1.3 1.3 0 0 1 .114.547c0 .333-.076.621-.23.864a1.594 1.594 0 0 1-.615.567 1.905 1.905 0 0 1-.863.192c-.25 0-.484-.055-.701-.164a1.1 1.1 0 0 0-.212.24.547.547 0 0 0-.086.317c0 .147.058.269.173.365.121.096.34.144.653.144h.902c.544 0 .95.09 1.22.269.274.173.412.454.412.845 0 .288-.096.553-.288.796-.192.244-.464.439-.816.586-.352.154-.771.23-1.257.23Zm0-4.156c.268 0 .499-.1.69-.298.2-.205.298-.477.298-.816 0-.339-.096-.605-.288-.797a.954.954 0 0 0-.7-.288.954.954 0 0 0-.701.288c-.192.192-.288.458-.288.797s.096.611.288.816a.96.96 0 0 0 .7.298Zm.115 3.609c.448 0 .806-.099 1.075-.297.269-.192.403-.41.403-.653 0-.218-.083-.368-.25-.451-.16-.084-.39-.125-.69-.125h-.807a2.553 2.553 0 0 1-.605-.077c-.166.122-.288.25-.365.384a.806.806 0 0 0-.115.403c0 .25.118.448.355.595.244.148.576.221.999.221Zm6.145-1.488c-.39 0-.717-.115-.98-.345-.255-.237-.383-.564-.383-.98 0-.512.227-.902.681-1.171.46-.275 1.187-.467 2.18-.576 0-.198-.03-.387-.087-.566a.814.814 0 0 0-.288-.432c-.135-.115-.33-.173-.586-.173a1.88 1.88 0 0 0-.758.154 3.671 3.671 0 0 0-.634.345l-.307-.547a4.83 4.83 0 0 1 .797-.403 2.64 2.64 0 0 1 1.037-.202c.57 0 .982.176 1.238.528.256.346.384.81.384 1.392v2.861h-.653l-.067-.557h-.029a4.033 4.033 0 0 1-.72.471 1.754 1.754 0 0 1-.825.201Zm.23-.633a1.3 1.3 0 0 0 .634-.164 3.53 3.53 0 0 0 .633-.46v-1.296c-.774.096-1.318.24-1.632.432-.307.192-.46.438-.46.739 0 .262.08.454.24.576.16.115.355.173.585.173Zm3.532.518v-4.666h.653l.067.672h.029c.224-.224.46-.409.71-.556.25-.154.535-.231.855-.231.492 0 .85.157 1.075.471.23.307.345.758.345 1.353v2.957h-.787v-2.851c0-.435-.07-.752-.211-.951-.14-.198-.365-.297-.672-.297a1.18 1.18 0 0 0-.643.182 4.19 4.19 0 0 0-.634.538v3.379h-.787Zm7.064.115c-.377 0-.732-.096-1.065-.288a2.178 2.178 0 0 1-.797-.835c-.198-.365-.298-.803-.298-1.315 0-.525.1-.97.298-1.335.205-.364.47-.643.797-.835a2.098 2.098 0 0 1 1.065-.288 2.064 2.064 0 0 1 1.853 1.123c.205.365.307.81.307 1.335 0 .512-.102.95-.307 1.315a2.064 2.064 0 0 1-1.853 1.123Zm0-.653c.404 0 .727-.163.97-.489.25-.333.374-.765.374-1.296 0-.538-.124-.973-.374-1.306a1.142 1.142 0 0 0-.97-.499c-.396 0-.72.166-.97.499-.249.333-.374.768-.374 1.306 0 .531.125.963.375 1.296.25.326.573.489.97.489Zm3.39.538v-4.666h.652l.067.672h.029c.224-.224.46-.409.71-.556.25-.154.535-.231.855-.231.493 0 .851.157 1.075.471.23.307.346.758.346 1.353v2.957h-.788v-2.851c0-.435-.07-.752-.211-.951-.141-.198-.365-.297-.672-.297a1.18 1.18 0 0 0-.643.182 4.19 4.19 0 0 0-.634.538v3.379h-.787Zm5.326 2.006a1.537 1.537 0 0 1-.547-.096l.153-.624c.052.013.109.026.173.039a.644.644 0 0 0 .183.029c.262 0 .48-.096.652-.288.173-.186.308-.423.404-.711l.105-.345-1.872-4.676h.816l.951 2.583c.07.198.144.413.22.643.084.23.16.454.231.672h.038c.071-.211.138-.432.202-.662.064-.231.128-.448.192-.653l.835-2.583h.768l-1.757 5.05c-.109.307-.24.582-.393.826a1.728 1.728 0 0 1-.557.576c-.218.147-.483.22-.797.22Zm4.404-2.006v-4.666h.653l.067.672h.029a3.05 3.05 0 0 1 .672-.556 1.43 1.43 0 0 1 .778-.231c.358 0 .637.08.835.24.205.154.355.371.451.653.243-.262.49-.477.739-.643.25-.167.516-.25.797-.25.48 0 .835.157 1.066.471.237.307.355.758.355 1.353v2.957h-.787v-2.851c0-.435-.071-.752-.211-.951-.141-.198-.359-.297-.653-.297-.346 0-.736.24-1.171.72v3.379h-.788v-2.851c0-.435-.07-.752-.211-.951-.141-.198-.361-.297-.662-.297-.346 0-.736.24-1.171.72v3.379h-.788Zm9.774.115c-.377 0-.733-.096-1.065-.288a2.176 2.176 0 0 1-.797-.835c-.199-.365-.298-.803-.298-1.315 0-.525.099-.97.298-1.335.205-.364.47-.643.797-.835a2.095 2.095 0 0 1 1.065-.288c.384 0 .739.096 1.066.288.326.192.589.471.787.835.205.365.307.81.307 1.335 0 .512-.102.95-.307 1.315a2.11 2.11 0 0 1-.787.835 2.067 2.067 0 0 1-1.066.288Zm0-.653c.403 0 .727-.163.97-.489.249-.333.374-.765.374-1.296 0-.538-.125-.973-.374-1.306a1.143 1.143 0 0 0-.97-.499c-.397 0-.72.166-.969.499-.25.333-.375.768-.375 1.306 0 .531.125.963.375 1.296.249.326.572.489.969.489Zm4.752.653c-.493 0-.854-.153-1.085-.461-.23-.313-.345-.768-.345-1.363v-2.957h.796v2.852c0 .435.068.752.202.95.141.198.365.298.672.298.243 0 .458-.061.643-.183.192-.128.397-.329.615-.605v-3.312h.787v4.666h-.653l-.067-.73h-.029a3.086 3.086 0 0 1-.691.615c-.243.153-.525.23-.845.23Zm5.078 0c-.333 0-.65-.061-.95-.182a3.363 3.363 0 0 1-.788-.461l.394-.528c.205.16.416.294.634.403.217.103.464.154.739.154.307 0 .537-.071.691-.211a.695.695 0 0 0 .23-.519.547.547 0 0 0-.163-.403 1.175 1.175 0 0 0-.403-.269 5.746 5.746 0 0 0-.499-.211 8.095 8.095 0 0 1-.643-.278 1.6 1.6 0 0 1-.519-.413 1.035 1.035 0 0 1-.201-.653c0-.378.14-.691.422-.941.288-.256.685-.384 1.19-.384.288 0 .557.051.807.154a2.5 2.5 0 0 1 .643.374l-.384.499a2.536 2.536 0 0 0-.499-.297 1.378 1.378 0 0 0-.567-.115c-.294 0-.512.067-.652.201a.644.644 0 0 0-.202.471c0 .147.048.268.144.364.096.09.221.17.374.24.154.064.317.132.49.202.224.083.445.179.662.288.218.102.397.243.538.422.147.173.221.407.221.701 0 .25-.067.48-.202.691a1.36 1.36 0 0 1-.576.509c-.249.128-.56.192-.931.192Zm5.56 0c-.295 0-.509-.089-.644-.269-.128-.185-.192-.448-.192-.787v-5.894h.788v5.952c0 .121.022.211.067.269a.2.2 0 0 0 .153.076h.068c.025-.006.06-.012.105-.019l.106.595a.668.668 0 0 1-.183.058c-.07.013-.16.019-.268.019Zm3.426 0a2.1 2.1 0 0 1-1.066-.288 2.183 2.183 0 0 1-.797-.835c-.198-.365-.297-.803-.297-1.315 0-.525.099-.97.297-1.335a2.19 2.19 0 0 1 .797-.835 2.1 2.1 0 0 1 1.066-.288c.384 0 .739.096 1.065.288.327.192.589.471.788.835.204.365.307.81.307 1.335 0 .512-.103.95-.307 1.315a2.113 2.113 0 0 1-.788.835 2.061 2.061 0 0 1-1.065.288Zm0-.653c.403 0 .726-.163.969-.489.25-.333.375-.765.375-1.296 0-.538-.125-.973-.375-1.306a1.141 1.141 0 0 0-.969-.499c-.397 0-.72.166-.97.499-.249.333-.374.768-.374 1.306 0 .531.125.963.374 1.296.25.326.573.489.97.489Zm5.232.653c-.41 0-.781-.096-1.114-.288a2.024 2.024 0 0 1-.787-.835c-.192-.365-.288-.803-.288-1.315 0-.525.102-.97.307-1.335.211-.364.486-.643.826-.835a2.252 2.252 0 0 1 1.113-.288c.307 0 .57.055.787.163.224.109.416.237.576.384l-.403.519a1.906 1.906 0 0 0-.432-.298 1.058 1.058 0 0 0-.499-.115c-.282 0-.534.077-.758.23a1.517 1.517 0 0 0-.519.634 2.273 2.273 0 0 0-.182.941c0 .531.131.963.393 1.296.269.326.618.489 1.047.489.217 0 .419-.044.605-.134.185-.096.348-.208.489-.336l.346.528a2.585 2.585 0 0 1-.701.442 2.159 2.159 0 0 1-.806.153Zm3.516 0c-.39 0-.717-.115-.979-.345-.256-.237-.384-.564-.384-.98 0-.512.227-.902.681-1.171.461-.275 1.188-.467 2.18-.576 0-.198-.029-.387-.087-.566a.811.811 0 0 0-.288-.432c-.134-.115-.329-.173-.585-.173-.269 0-.522.051-.759.154a3.635 3.635 0 0 0-.633.345l-.308-.547a4.87 4.87 0 0 1 .797-.403c.32-.135.666-.202 1.037-.202.57 0 .982.176 1.238.528.256.346.384.81.384 1.392v2.861h-.652l-.068-.557h-.028a4.062 4.062 0 0 1-.72.471 1.757 1.757 0 0 1-.826.201Zm.23-.633c.224 0 .436-.055.634-.164.198-.108.41-.262.634-.46v-1.296c-.775.096-1.319.24-1.632.432-.308.192-.461.438-.461.739 0 .262.08.454.24.576.16.115.355.173.585.173Zm4.87.633c-.499 0-.848-.144-1.046-.432-.192-.288-.288-.662-.288-1.123v-2.582h-.692v-.596l.73-.048.096-1.305h.662v1.305h1.258v.644h-1.258v2.592c0 .288.052.512.154.672.109.153.298.23.566.23.084 0 .173-.013.269-.038l.259-.087.154.595a3.331 3.331 0 0 1-.422.116 1.77 1.77 0 0 1-.442.057Zm1.775-.115v-4.666h.787v4.666h-.787Zm.403-5.626a.558.558 0 0 1-.384-.134.519.519 0 0 1-.144-.384c0-.154.048-.278.144-.374a.538.538 0 0 1 .384-.144c.154 0 .278.048.374.144.103.096.154.22.154.374a.5.5 0 0 1-.154.384.523.523 0 0 1-.374.134Zm3.774 5.741a2.1 2.1 0 0 1-1.066-.288 2.183 2.183 0 0 1-.797-.835c-.198-.365-.297-.803-.297-1.315 0-.525.099-.97.297-1.335a2.19 2.19 0 0 1 .797-.835 2.1 2.1 0 0 1 1.066-.288c.384 0 .739.096 1.065.288.327.192.589.471.788.835.204.365.307.81.307 1.335 0 .512-.103.95-.307 1.315a2.113 2.113 0 0 1-.788.835 2.061 2.061 0 0 1-1.065.288Zm0-.653c.403 0 .726-.163.969-.489.25-.333.375-.765.375-1.296 0-.538-.125-.973-.375-1.306a1.141 1.141 0 0 0-.969-.499c-.397 0-.72.166-.97.499-.249.333-.374.768-.374 1.306 0 .531.125.963.374 1.296.25.326.573.489.97.489Zm3.388.538v-4.666h.653l.067.672h.029c.224-.224.461-.409.711-.556a1.59 1.59 0 0 1 .854-.231c.493 0 .851.157 1.075.471.231.307.346.758.346 1.353v2.957h-.787v-2.851c0-.435-.071-.752-.212-.951-.14-.198-.364-.297-.672-.297-.236 0-.451.061-.643.182a4.18 4.18 0 0 0-.633.538v3.379h-.788Zm8.766.115c-.582 0-1.05-.211-1.402-.633-.352-.429-.528-1.031-.528-1.805 0-.506.093-.941.279-1.306.192-.371.441-.656.749-.854.313-.199.646-.298.998-.298.269 0 .502.048.701.144.198.096.4.227.605.394l-.039-.797v-1.795h.797v6.835h-.653l-.067-.547h-.029c-.179.179-.39.336-.633.47a1.65 1.65 0 0 1-.778.192Zm.173-.662c.409 0 .806-.215 1.19-.643v-2.439a1.858 1.858 0 0 0-.576-.374 1.396 1.396 0 0 0-.557-.115c-.249 0-.476.076-.681.23a1.539 1.539 0 0 0-.48.624 2.19 2.19 0 0 0-.183.931c0 .557.112.995.336 1.315.224.314.541.471.951.471Zm4.634.662c-.391 0-.717-.115-.98-.345-.256-.237-.384-.564-.384-.98 0-.512.228-.902.682-1.171.461-.275 1.187-.467 2.179-.576 0-.198-.029-.387-.086-.566a.811.811 0 0 0-.288-.432c-.135-.115-.33-.173-.586-.173-.269 0-.521.051-.758.154a3.683 3.683 0 0 0-.634.345l-.307-.547a4.83 4.83 0 0 1 .797-.403c.32-.135.665-.202 1.037-.202.569 0 .982.176 1.238.528.256.346.384.81.384 1.392v2.861h-.653l-.067-.557h-.029a3.99 3.99 0 0 1-.72.471 1.753 1.753 0 0 1-.825.201Zm.23-.633a1.3 1.3 0 0 0 .634-.164c.198-.108.409-.262.633-.46v-1.296c-.774.096-1.318.24-1.632.432-.307.192-.461.438-.461.739 0 .262.08.454.24.576a.98.98 0 0 0 .586.173Zm4.869.633c-.499 0-.848-.144-1.046-.432-.192-.288-.288-.662-.288-1.123v-2.582h-.691v-.596l.729-.048.096-1.305h.663v1.305h1.257v.644h-1.257v2.592c0 .288.051.512.153.672.109.153.298.23.567.23.083 0 .173-.013.269-.038l.259-.087.153.595a3.286 3.286 0 0 1-.422.116 1.758 1.758 0 0 1-.442.057Zm2.644 0c-.39 0-.716-.115-.979-.345-.256-.237-.384-.564-.384-.98 0-.512.227-.902.682-1.171.461-.275 1.187-.467 2.179-.576 0-.198-.029-.387-.086-.566a.823.823 0 0 0-.288-.432c-.135-.115-.33-.173-.586-.173-.269 0-.522.051-.758.154a3.683 3.683 0 0 0-.634.345l-.307-.547a4.79 4.79 0 0 1 .797-.403c.32-.135.665-.202 1.036-.202.57 0 .983.176 1.239.528.256.346.384.81.384 1.392v2.861h-.653l-.067-.557h-.029a4.062 4.062 0 0 1-.72.471 1.754 1.754 0 0 1-.826.201Zm.231-.633c.224 0 .435-.055.633-.164a3.51 3.51 0 0 0 .634-.46v-1.296c-.774.096-1.318.24-1.632.432-.307.192-.461.438-.461.739 0 .262.08.454.24.576.16.115.355.173.586.173Zm6.922.633c-.499 0-.848-.144-1.046-.432-.192-.288-.288-.662-.288-1.123v-2.582h-.691v-.596l.729-.048.096-1.305h.663v1.305h1.257v.644h-1.257v2.592c0 .288.051.512.153.672.109.153.298.23.567.23.083 0 .172-.013.268-.038l.26-.087.153.595a3.331 3.331 0 0 1-.422.116 1.764 1.764 0 0 1-.442.057Zm3.458 0c-.377 0-.732-.096-1.065-.288a2.176 2.176 0 0 1-.797-.835c-.198-.365-.298-.803-.298-1.315 0-.525.1-.97.298-1.335.205-.364.47-.643.797-.835a2.098 2.098 0 0 1 1.065-.288 2.065 2.065 0 0 1 1.853 1.123c.205.365.307.81.307 1.335 0 .512-.102.95-.307 1.315a2.065 2.065 0 0 1-1.853 1.123Zm0-.653c.404 0 .727-.163.97-.489.25-.333.374-.765.374-1.296 0-.538-.124-.973-.374-1.306a1.142 1.142 0 0 0-.97-.499c-.396 0-.72.166-.969.499-.25.333-.375.768-.375 1.306 0 .531.125.963.375 1.296.249.326.573.489.969.489Zm6.674.653c-.493 0-.854-.153-1.085-.461-.23-.313-.345-.768-.345-1.363v-2.957h.797v2.852c0 .435.067.752.201.95.141.198.365.298.672.298.243 0 .458-.061.643-.183.192-.128.397-.329.615-.605v-3.312h.787v4.666h-.653l-.067-.73h-.029a3.064 3.064 0 0 1-.691.615c-.243.153-.525.23-.845.23Zm5.078 0c-.333 0-.65-.061-.95-.182a3.363 3.363 0 0 1-.788-.461l.394-.528c.205.16.416.294.634.403.217.103.464.154.739.154.307 0 .537-.071.691-.211a.695.695 0 0 0 .23-.519.547.547 0 0 0-.163-.403 1.175 1.175 0 0 0-.403-.269 5.746 5.746 0 0 0-.499-.211 8.095 8.095 0 0 1-.643-.278 1.6 1.6 0 0 1-.519-.413 1.035 1.035 0 0 1-.201-.653c0-.378.14-.691.422-.941.288-.256.685-.384 1.19-.384.288 0 .557.051.807.154a2.5 2.5 0 0 1 .643.374l-.384.499a2.536 2.536 0 0 0-.499-.297 1.378 1.378 0 0 0-.567-.115c-.294 0-.512.067-.652.201a.644.644 0 0 0-.202.471c0 .147.048.268.144.364.096.09.221.17.374.24.154.064.317.132.49.202.224.083.445.179.662.288.218.102.397.243.538.422.147.173.221.407.221.701 0 .25-.067.48-.202.691a1.36 1.36 0 0 1-.576.509c-.249.128-.56.192-.931.192Zm2.659 1.517-.192-.461c.275-.121.489-.285.643-.489a1.04 1.04 0 0 0 .221-.682.114.114 0 0 1-.048.01h-.048a.634.634 0 0 1-.403-.135c-.109-.096-.164-.233-.164-.413 0-.172.058-.307.173-.403a.602.602 0 0 1 .413-.153c.205 0 .365.083.48.249.122.167.182.394.182.682 0 .409-.112.768-.336 1.075a2.121 2.121 0 0 1-.921.72Zm6.347-1.517c-.416 0-.793-.096-1.132-.288a2.135 2.135 0 0 1-.807-.845c-.198-.364-.297-.8-.297-1.305 0-.512.099-.951.297-1.315a2.28 2.28 0 0 1 .787-.845 1.88 1.88 0 0 1 1.008-.298c.596 0 1.053.199 1.373.595.327.397.49.928.49 1.594 0 .083-.003.166-.01.25a.921.921 0 0 1-.019.201h-3.149c.032.493.186.887.461 1.181.282.294.646.442 1.094.442.224 0 .429-.032.615-.096.192-.071.374-.16.547-.269l.278.518c-.198.128-.425.24-.681.336-.25.096-.535.144-.855.144Zm-1.468-2.822h2.496c0-.474-.103-.832-.308-1.075-.198-.25-.48-.375-.844-.375-.327 0-.621.128-.884.384-.256.25-.409.605-.46 1.066Zm5.395 2.707-1.68-4.666h.816l.883 2.65.211.691c.077.231.15.458.221.682h.038c.071-.224.141-.451.211-.682.077-.23.148-.461.212-.691l.883-2.65h.777l-1.651 4.666h-.921Zm5.327.115a2.26 2.26 0 0 1-1.133-.288 2.141 2.141 0 0 1-.807-.845c-.198-.364-.297-.8-.297-1.305 0-.512.099-.951.297-1.315.205-.365.468-.647.788-.845a1.88 1.88 0 0 1 1.008-.298c.595 0 1.052.199 1.372.595.327.397.49.928.49 1.594 0 .083-.003.166-.01.25a.921.921 0 0 1-.019.201h-3.149c.032.493.186.887.461 1.181.282.294.647.442 1.095.442.224 0 .428-.032.614-.096.192-.071.374-.16.547-.269l.279.518a3.58 3.58 0 0 1-.682.336c-.25.096-.534.144-.854.144Zm-1.469-2.822h2.496c0-.474-.103-.832-.307-1.075-.199-.25-.48-.375-.845-.375-.327 0-.621.128-.883.384-.256.25-.41.605-.461 1.066Zm4.34 2.707v-4.666h.653l.067.672h.029c.224-.224.46-.409.71-.556.25-.154.534-.231.854-.231.493 0 .852.157 1.076.471.23.307.345.758.345 1.353v2.957h-.787v-2.851c0-.435-.07-.752-.211-.951-.141-.198-.365-.297-.672-.297a1.18 1.18 0 0 0-.643.182 4.18 4.18 0 0 0-.634.538v3.379h-.787Zm7.911 0-1.296-4.666h.806l.692 2.698c.051.218.099.435.144.653l.134.643h.038l.154-.643c.051-.218.106-.435.163-.653l.72-2.698h.768l.73 2.698c.057.218.112.435.163.653.058.211.112.425.163.643h.039c.051-.218.099-.432.144-.643.051-.218.099-.435.144-.653l.681-2.698h.749l-1.248 4.666h-.96l-.672-2.506a28.892 28.892 0 0 1-.163-.662 19.171 19.171 0 0 0-.154-.682h-.038c-.051.237-.103.468-.154.692a14.44 14.44 0 0 1-.173.662l-.652 2.496h-.922Zm6.151 0v-6.835h.788v1.862l-.029.96c.224-.211.457-.39.701-.537a1.59 1.59 0 0 1 .854-.231c.493 0 .851.157 1.075.471.231.307.346.758.346 1.353v2.957h-.787v-2.851c0-.435-.071-.752-.212-.951-.14-.198-.364-.297-.672-.297-.236 0-.451.061-.643.182a4.18 4.18 0 0 0-.633.538v3.379h-.788Zm7.113.115c-.416 0-.793-.096-1.132-.288a2.135 2.135 0 0 1-.807-.845c-.198-.364-.297-.8-.297-1.305 0-.512.099-.951.297-1.315a2.28 2.28 0 0 1 .787-.845 1.88 1.88 0 0 1 1.008-.298c.596 0 1.053.199 1.373.595.327.397.49.928.49 1.594 0 .083-.003.166-.01.25a.921.921 0 0 1-.019.201h-3.149c.032.493.186.887.461 1.181.282.294.646.442 1.094.442.224 0 .429-.032.615-.096.192-.071.374-.16.547-.269l.278.518c-.198.128-.425.24-.681.336-.25.096-.535.144-.855.144Zm-1.468-2.822h2.496c0-.474-.103-.832-.308-1.075-.198-.25-.48-.375-.844-.375-.327 0-.621.128-.884.384-.256.25-.409.605-.46 1.066Zm4.34 2.707v-4.666h.653l.067.672h.029c.224-.224.46-.409.71-.556.25-.154.534-.231.854-.231.493 0 .852.157 1.076.471.23.307.345.758.345 1.353v2.957h-.787v-2.851c0-.435-.07-.752-.211-.951-.141-.198-.365-.297-.672-.297a1.18 1.18 0 0 0-.643.182 4.18 4.18 0 0 0-.634.538v3.379h-.787Zm7.172 0v-4.666h.652l.068.672h.028c.224-.224.461-.409.711-.556a1.59 1.59 0 0 1 .854-.231c.493 0 .851.157 1.075.471.231.307.346.758.346 1.353v2.957h-.787v-2.851c0-.435-.071-.752-.211-.951-.141-.198-.365-.297-.672-.297-.237 0-.452.061-.644.182a4.23 4.23 0 0 0-.633.538v3.379h-.787Zm7.064.115a2.1 2.1 0 0 1-1.066-.288 2.174 2.174 0 0 1-.796-.835c-.199-.365-.298-.803-.298-1.315 0-.525.099-.97.298-1.335a2.18 2.18 0 0 1 .796-.835 2.1 2.1 0 0 1 1.066-.288c.384 0 .739.096 1.066.288.326.192.588.471.787.835.205.365.307.81.307 1.335 0 .512-.102.95-.307 1.315a2.117 2.117 0 0 1-.787.835 2.067 2.067 0 0 1-1.066.288Zm0-.653c.403 0 .726-.163.97-.489.249-.333.374-.765.374-1.296 0-.538-.125-.973-.374-1.306a1.144 1.144 0 0 0-.97-.499c-.397 0-.72.166-.97.499-.249.333-.374.768-.374 1.306 0 .531.125.963.374 1.296.25.326.573.489.97.489ZM50.262 125.615c-.39 0-.716-.115-.979-.345-.256-.237-.384-.564-.384-.98 0-.512.227-.902.682-1.171.46-.275 1.187-.467 2.179-.576 0-.198-.029-.387-.086-.566a.814.814 0 0 0-.288-.432c-.135-.115-.33-.173-.586-.173a1.88 1.88 0 0 0-.758.154 3.671 3.671 0 0 0-.634.345l-.307-.547a4.79 4.79 0 0 1 .797-.403 2.64 2.64 0 0 1 1.036-.202c.57 0 .983.176 1.239.528.256.346.384.81.384 1.392v2.861h-.653l-.067-.557h-.029a4.033 4.033 0 0 1-.72.471 1.754 1.754 0 0 1-.826.201Zm.23-.633c.225 0 .436-.055.634-.164a3.53 3.53 0 0 0 .634-.46v-1.296c-.774.096-1.318.24-1.632.432-.307.192-.46.438-.46.739 0 .262.08.454.24.576.16.115.354.173.585.173Zm3.533 2.486v-6.634h.653l.067.538h.029c.21-.179.441-.333.69-.461a1.76 1.76 0 0 1 .797-.192c.602 0 1.06.218 1.373.653.314.429.47 1.005.47 1.728 0 .525-.095.976-.287 1.354a2.107 2.107 0 0 1-.74.864c-.3.198-.63.297-.988.297-.218 0-.435-.048-.653-.144a3.363 3.363 0 0 1-.643-.393l.019.816v1.574h-.787Zm1.93-2.515c.383 0 .7-.163.95-.49.256-.333.384-.787.384-1.363 0-.512-.096-.925-.288-1.238-.186-.32-.5-.48-.941-.48-.199 0-.4.054-.605.163a3.597 3.597 0 0 0-.643.47v2.448a2.2 2.2 0 0 0 .614.384c.199.071.375.106.528.106Zm3.395 2.515v-6.634h.652l.068.538h.029c.21-.179.441-.333.69-.461a1.76 1.76 0 0 1 .797-.192c.602 0 1.06.218 1.373.653.314.429.47 1.005.47 1.728 0 .525-.095.976-.287 1.354a2.107 2.107 0 0 1-.74.864c-.3.198-.63.297-.988.297-.218 0-.436-.048-.653-.144a3.363 3.363 0 0 1-.643-.393l.019.816v1.574h-.787Zm1.93-2.515c.383 0 .7-.163.95-.49.256-.333.384-.787.384-1.363 0-.512-.096-.925-.288-1.238-.186-.32-.5-.48-.941-.48-.198 0-.4.054-.605.163a3.597 3.597 0 0 0-.643.47v2.448a2.2 2.2 0 0 0 .614.384c.199.071.375.106.528.106Zm4.614.662c-.333 0-.65-.061-.95-.182a3.361 3.361 0 0 1-.788-.461l.394-.528c.205.16.416.294.633.403.218.103.464.154.74.154.307 0 .537-.071.69-.211a.697.697 0 0 0 .231-.519.548.548 0 0 0-.163-.403 1.176 1.176 0 0 0-.403-.269 5.776 5.776 0 0 0-.5-.211 8.195 8.195 0 0 1-.643-.278 1.6 1.6 0 0 1-.518-.413 1.033 1.033 0 0 1-.202-.653c0-.378.141-.691.423-.941.288-.256.685-.384 1.19-.384.288 0 .557.051.807.154.25.102.464.227.643.374l-.384.499a2.543 2.543 0 0 0-.5-.297 1.375 1.375 0 0 0-.566-.115c-.294 0-.512.067-.653.201a.646.646 0 0 0-.201.471c0 .147.048.268.144.364.096.09.22.17.374.24.154.064.317.132.49.202.224.083.445.179.662.288.218.102.397.243.538.422.147.173.22.407.22.701 0 .25-.067.48-.2.691a1.36 1.36 0 0 1-.577.509c-.25.128-.56.192-.931.192Zm5.8 0c-.39 0-.717-.115-.98-.345-.255-.237-.383-.564-.383-.98 0-.512.227-.902.681-1.171.46-.275 1.187-.467 2.18-.576 0-.198-.03-.387-.087-.566a.814.814 0 0 0-.288-.432c-.134-.115-.33-.173-.586-.173a1.88 1.88 0 0 0-.758.154 3.671 3.671 0 0 0-.634.345l-.307-.547a4.83 4.83 0 0 1 .797-.403 2.64 2.64 0 0 1 1.037-.202c.57 0 .982.176 1.238.528.256.346.384.81.384 1.392v2.861h-.653l-.067-.557h-.029a4.033 4.033 0 0 1-.72.471 1.754 1.754 0 0 1-.825.201Zm.23-.633a1.3 1.3 0 0 0 .634-.164 3.53 3.53 0 0 0 .633-.46v-1.296c-.774.096-1.318.24-1.632.432-.307.192-.46.438-.46.739 0 .262.08.454.24.576.16.115.355.173.585.173Zm3.532.518v-4.666h.653l.067.845h.029c.16-.294.355-.528.585-.701a1.24 1.24 0 0 1 1.238-.163l-.153.691a1.24 1.24 0 0 0-.451-.076c-.198 0-.406.08-.624.24-.211.16-.397.438-.557.835v2.995h-.787Zm5.126.115a2.26 2.26 0 0 1-1.133-.288 2.134 2.134 0 0 1-.807-.845c-.198-.364-.297-.8-.297-1.305 0-.512.099-.951.297-1.315a2.28 2.28 0 0 1 .788-.845 1.88 1.88 0 0 1 1.008-.298c.595 0 1.052.199 1.372.595.327.397.49.928.49 1.594 0 .083-.003.166-.01.25a.933.933 0 0 1-.019.201h-3.149c.032.493.186.887.461 1.181.282.294.647.442 1.095.442.224 0 .428-.032.614-.096.192-.071.374-.16.547-.269l.279.518a3.58 3.58 0 0 1-.682.336c-.25.096-.534.144-.854.144Zm-1.47-2.822h2.497c0-.474-.103-.832-.307-1.075-.199-.25-.48-.375-.845-.375-.327 0-.621.128-.883.384-.256.25-.41.605-.461 1.066Zm6.263 2.707v-4.666h.653l.067.845h.029c.16-.294.355-.528.585-.701a1.24 1.24 0 0 1 1.238-.163l-.153.691a1.24 1.24 0 0 0-.451-.076c-.199 0-.407.08-.624.24-.212.16-.397.438-.557.835v2.995h-.787Zm4.691.115c-.493 0-.854-.153-1.085-.461-.23-.313-.345-.768-.345-1.363v-2.957h.797v2.852c0 .435.067.752.201.95.14.198.365.298.672.298.243 0 .458-.061.643-.183.192-.128.397-.329.615-.605v-3.312h.787v4.666h-.653l-.067-.73h-.029a3.074 3.074 0 0 1-.691.615c-.243.153-.525.23-.845.23Zm3.859-.115v-4.666h.653l.067.672h.029c.223-.224.46-.409.71-.556.25-.154.534-.231.854-.231.493 0 .852.157 1.076.471.23.307.345.758.345 1.353v2.957h-.787v-2.851c0-.435-.07-.752-.211-.951-.141-.198-.365-.297-.672-.297-.237 0-.452.061-.644.182a4.19 4.19 0 0 0-.633.538v3.379h-.787Zm5.25 0v-4.666h.653l.067.672h.029c.224-.224.46-.409.71-.556.25-.154.534-.231.854-.231.493 0 .852.157 1.076.471.23.307.345.758.345 1.353v2.957h-.787v-2.851c0-.435-.07-.752-.211-.951-.141-.198-.365-.297-.672-.297a1.18 1.18 0 0 0-.643.182 4.186 4.186 0 0 0-.634.538v3.379h-.787Zm5.25 0v-4.666h.787v4.666h-.787Zm.403-5.626a.558.558 0 0 1-.384-.134.519.519 0 0 1-.144-.384c0-.154.048-.278.144-.374a.538.538 0 0 1 .384-.144c.154 0 .278.048.374.144.103.096.154.22.154.374a.5.5 0 0 1-.154.384.523.523 0 0 1-.374.134Zm1.959 5.626v-4.666h.653l.067.672h.029c.224-.224.461-.409.71-.556.25-.154.535-.231.855-.231.493 0 .851.157 1.075.471.23.307.346.758.346 1.353v2.957h-.788v-2.851c0-.435-.07-.752-.211-.951-.141-.198-.365-.297-.672-.297a1.18 1.18 0 0 0-.643.182 4.18 4.18 0 0 0-.634.538v3.379h-.787Zm6.825 2.15c-.57 0-1.034-.108-1.392-.326-.359-.218-.538-.528-.538-.931 0-.199.061-.391.182-.576.122-.179.288-.339.5-.48v-.039a.928.928 0 0 1-.298-.297.879.879 0 0 1-.115-.461c0-.198.054-.371.163-.518.109-.148.224-.263.346-.346v-.038a1.948 1.948 0 0 1-.423-.519 1.493 1.493 0 0 1-.182-.739c0-.339.08-.634.24-.883.16-.25.374-.442.643-.576a1.92 1.92 0 0 1 1.238-.163c.116.019.215.044.298.076h1.622v.605h-.96c.109.103.199.24.269.413.077.166.115.349.115.547 0 .333-.076.621-.23.864a1.595 1.595 0 0 1-.614.567 1.905 1.905 0 0 1-.864.192c-.25 0-.484-.055-.701-.164a1.09 1.09 0 0 0-.211.24.544.544 0 0 0-.087.317c0 .147.058.269.173.365.122.096.339.144.653.144h.902c.544 0 .951.09 1.219.269.276.173.413.454.413.845 0 .288-.096.553-.288.796-.192.244-.464.439-.816.586-.352.154-.771.23-1.257.23Zm0-4.156a.93.93 0 0 0 .691-.298c.198-.205.297-.477.297-.816 0-.339-.096-.605-.288-.797a.952.952 0 0 0-.7-.288.953.953 0 0 0-.701.288c-.192.192-.288.458-.288.797s.096.611.288.816a.96.96 0 0 0 .701.298Zm.115 3.609c.448 0 .806-.099 1.075-.297.269-.192.403-.41.403-.653 0-.218-.083-.368-.249-.451-.16-.084-.391-.125-.692-.125h-.806a2.587 2.587 0 0 1-.605-.077c-.166.122-.288.25-.365.384a.814.814 0 0 0-.115.403c0 .25.119.448.355.595.244.148.576.221.999.221Zm3.561-1.488a.58.58 0 0 1-.413-.163.603.603 0 0 1-.163-.432c0-.186.054-.333.163-.442a.564.564 0 0 1 .413-.172c.153 0 .284.057.393.172a.58.58 0 0 1 .173.442.586.586 0 0 1-.173.432.535.535 0 0 1-.393.163Z"/>
    <path fill="var(--control-color-state-default-font-default-state, #737373)" d="m264.31 63.596-1.969 1.97 1.953 1.951a.36.36 0 0 1 0 .542.36.36 0 0 1-.542 0l-1.969-1.953-1.952 1.953a.359.359 0 0 1-.541 0c-.164-.148-.164-.394 0-.558l1.952-1.952-1.952-1.953c-.164-.147-.164-.393 0-.557a.405.405 0 0 1 .557 0l1.953 1.968 1.952-1.952c.148-.164.394-.164.558 0a.386.386 0 0 1 0 .541ZM50.2 161.3v-5.511h.697v4.914h2.41v.597H50.2Zm5.574.101c-.364 0-.694-.084-.991-.252a1.87 1.87 0 0 1-.706-.74c-.173-.319-.26-.7-.26-1.142 0-.448.087-.832.26-1.151.18-.319.41-.565.69-.739.28-.174.573-.26.881-.26.52 0 .921.173 1.201.52.286.348.429.812.429 1.395 0 .073-.003.145-.009.218a.831.831 0 0 1-.017.177h-2.755c.028.431.163.775.404 1.033.246.257.565.386.957.386.196 0 .375-.028.538-.084.168-.061.327-.14.478-.235l.244.454c-.174.112-.372.21-.596.294a2.072 2.072 0 0 1-.748.126Zm-1.285-2.47h2.184c0-.414-.09-.728-.269-.941-.174-.218-.42-.327-.74-.327-.285 0-.542.112-.772.336-.224.218-.358.529-.403.932Zm4.623 2.47c-.341 0-.627-.101-.856-.303-.224-.207-.336-.493-.336-.857 0-.448.198-.789.596-1.024.403-.241 1.039-.409 1.907-.504 0-.174-.025-.339-.076-.496a.71.71 0 0 0-.252-.378c-.117-.101-.288-.151-.512-.151-.235 0-.457.045-.664.134-.207.09-.392.191-.554.303l-.269-.479a4.25 4.25 0 0 1 .697-.353c.28-.118.583-.176.907-.176.499 0 .86.154 1.084.462.224.302.336.708.336 1.218v2.503h-.571l-.059-.487h-.025c-.19.156-.4.294-.63.411a1.527 1.527 0 0 1-.723.177Zm.202-.555c.196 0 .38-.047.554-.143a3.08 3.08 0 0 0 .555-.403v-1.134c-.678.084-1.154.21-1.428.378-.269.168-.403.384-.403.647 0 .23.07.398.21.504a.85.85 0 0 0 .512.151Zm3.09.454v-4.083h.572l.058.74h.026c.14-.258.31-.462.512-.614a1.085 1.085 0 0 1 1.084-.142l-.135.604a1.111 1.111 0 0 0-.395-.067c-.173 0-.355.07-.546.21-.184.14-.347.384-.487.731v2.621h-.689Zm2.913 0v-4.083h.57l.06.588h.025c.196-.196.403-.358.621-.487a1.4 1.4 0 0 1 .748-.201c.431 0 .745.137.94.411.202.269.303.664.303 1.185v2.587h-.689v-2.495c0-.381-.061-.658-.184-.832-.124-.173-.32-.26-.588-.26-.208 0-.395.053-.563.16a3.634 3.634 0 0 0-.555.47v2.957h-.688Zm6.342 0v-5.511h.84l1.059 2.94c.067.191.131.384.193.58l.201.571h.034c.067-.19.129-.381.185-.571.061-.196.126-.389.193-.58l1.041-2.94h.849v5.511h-.655v-3.033c0-.246.01-.518.033-.814l.06-.815h-.034l-.437 1.251-1.042 2.856h-.462l-1.041-2.856-.437-1.251h-.034c.017.241.034.512.05.815.023.296.034.568.034.814v3.033h-.63Zm7.624.101c-.33 0-.642-.084-.933-.252a1.91 1.91 0 0 1-.697-.731c-.174-.319-.26-.703-.26-1.151 0-.459.087-.848.26-1.168.18-.319.412-.562.697-.73.291-.168.602-.252.933-.252a1.806 1.806 0 0 1 1.62.982c.18.32.27.709.27 1.168 0 .448-.09.832-.27 1.151a1.806 1.806 0 0 1-1.621.983Zm0-.572c.352 0 .635-.142.848-.428.219-.291.328-.669.328-1.134 0-.47-.11-.851-.328-1.142a.999.999 0 0 0-.848-.437c-.347 0-.63.145-.849.437-.218.291-.327.672-.327 1.142 0 .465.109.843.327 1.134.219.286.502.428.849.428Zm2.965.471v-4.083h.571l.059.74h.025c.14-.258.31-.462.512-.614a1.085 1.085 0 0 1 1.084-.142l-.134.604a1.111 1.111 0 0 0-.395-.067c-.174 0-.356.07-.546.21-.185.14-.347.384-.487.731v2.621h-.69Zm4.485.101a1.98 1.98 0 0 1-.992-.252 1.87 1.87 0 0 1-.705-.74c-.174-.319-.26-.7-.26-1.142 0-.448.086-.832.26-1.151.18-.319.409-.565.689-.739.28-.174.574-.26.882-.26.52 0 .92.173 1.2.52.287.348.43.812.43 1.395 0 .073-.003.145-.01.218a.831.831 0 0 1-.016.177h-2.755c.028.431.162.775.403 1.033.247.257.566.386.958.386.196 0 .375-.028.537-.084.168-.061.328-.14.48-.235l.243.454c-.174.112-.373.21-.597.294a2.072 2.072 0 0 1-.747.126Zm-1.285-2.47h2.184c0-.414-.09-.728-.27-.941-.173-.218-.42-.327-.738-.327-.286 0-.544.112-.773.336-.224.218-.359.529-.403.932Zm-36.004 2.999h39.111v.42H49.444v-.42Z"/>
    <path fill="var(--control-color-state-primary-container-default-state, #36F)" d="M163.775 161.3v-5.511h1.377c.852 0 1.498.238 1.941.714.442.471.663 1.143.663 2.016 0 .88-.221 1.563-.663 2.05-.437.487-1.073.731-1.907.731h-1.411Zm.697-.571h.63c.644 0 1.126-.194 1.445-.58.325-.392.487-.935.487-1.63 0-.694-.162-1.226-.487-1.596-.319-.375-.801-.562-1.445-.562h-.63v4.368Zm5.991.672c-.33 0-.641-.084-.932-.252a1.905 1.905 0 0 1-.697-.731c-.174-.319-.261-.703-.261-1.151 0-.459.087-.848.261-1.168.179-.319.411-.562.697-.73.291-.168.602-.252.932-.252.336 0 .647.084.933.252.285.168.515.411.688.73.18.32.269.709.269 1.168 0 .448-.089.832-.269 1.151a1.849 1.849 0 0 1-.688.731 1.81 1.81 0 0 1-.933.252Zm0-.572c.353 0 .636-.142.849-.428.218-.291.327-.669.327-1.134 0-.47-.109-.851-.327-1.142a1 1 0 0 0-.849-.437c-.347 0-.63.145-.848.437-.219.291-.328.672-.328 1.142 0 .465.109.843.328 1.134.218.286.501.428.848.428Zm2.965.471v-4.083H174l.058.588h.026c.196-.196.403-.358.621-.487.219-.134.468-.201.748-.201.431 0 .745.137.941.411.201.269.302.664.302 1.185v2.587h-.689v-2.495c0-.381-.061-.658-.185-.832-.123-.173-.319-.26-.588-.26-.207 0-.394.053-.562.16a3.596 3.596 0 0 0-.555.47v2.957h-.689Zm4.464-3.621-.194-.319c.213-.14.37-.288.471-.445.106-.162.159-.364.159-.605a.2.2 0 0 1-.067.009.48.48 0 0 1-.311-.11.377.377 0 0 1-.134-.31c0-.146.042-.261.126-.345a.432.432 0 0 1 .319-.126.45.45 0 0 1 .387.202c.095.129.142.316.142.563 0 .336-.078.627-.235.873a1.853 1.853 0 0 1-.663.613Zm3.343 3.722c-.437 0-.742-.126-.916-.378-.168-.252-.252-.58-.252-.983v-2.26h-.604v-.521l.638-.042.084-1.142h.58v1.142h1.1v.563h-1.1v2.268c0 .252.044.448.134.588.095.135.26.202.496.202a.895.895 0 0 0 .235-.034l.227-.075.134.52a2.78 2.78 0 0 1-.37.101 1.5 1.5 0 0 1-.386.051Zm4.251-3.184-.26.84h1.655l-.261-.84a30.76 30.76 0 0 1-.285-.916c-.09-.308-.18-.621-.269-.94h-.034c-.084.319-.171.632-.26.94-.09.303-.185.608-.286.916Zm-1.68 3.083 1.865-5.511h.79l1.864 5.511h-.747l-.521-1.68h-2.008l-.529 1.68h-.714Zm5.964.101c-.258 0-.446-.079-.563-.236-.112-.162-.168-.392-.168-.688v-5.158h.689v5.208c0 .106.019.185.058.235.04.045.084.067.135.067h.059a.98.98 0 0 1 .092-.016l.092.52a.56.56 0 0 1-.159.051c-.062.011-.14.017-.235.017Zm2.141 0c-.258 0-.445-.079-.563-.236-.112-.162-.168-.392-.168-.688v-5.158h.689v5.208c0 .106.019.185.059.235a.174.174 0 0 0 .134.067h.059a.98.98 0 0 1 .092-.016l.093.52a.568.568 0 0 1-.16.051c-.062.011-.14.017-.235.017Zm2.998 0c-.331 0-.642-.084-.933-.252a1.912 1.912 0 0 1-.697-.731c-.174-.319-.26-.703-.26-1.151 0-.459.086-.848.26-1.168a1.91 1.91 0 0 1 .697-.73c.291-.168.602-.252.933-.252a1.806 1.806 0 0 1 1.621.982c.179.32.269.709.269 1.168 0 .448-.09.832-.269 1.151a1.806 1.806 0 0 1-1.621.983Zm0-.572c.352 0 .635-.142.848-.428.218-.291.328-.669.328-1.134 0-.47-.11-.851-.328-1.142a1 1 0 0 0-.848-.437c-.348 0-.63.145-.849.437-.218.291-.327.672-.327 1.142 0 .465.109.843.327 1.134.219.286.501.428.849.428Zm3.579.471-1.134-4.083h.705l.605 2.361c.045.19.087.381.126.571l.118.563h.033a79.857 79.857 0 0 1 .277-1.134l.63-2.361h.672l.639 2.361c.05.19.098.381.143.571.05.185.098.372.142.563h.034c.045-.191.087-.378.126-.563.045-.19.087-.381.126-.571l.596-2.361h.656l-1.092 4.083h-.84l-.588-2.193a27.029 27.029 0 0 1-.143-.579 15.691 15.691 0 0 0-.135-.597h-.033a49 49 0 0 1-.135.605c-.044.191-.095.384-.151.58l-.571 2.184h-.806Z"/>
    <rect width="69.2" height="19" x="148.5" y="148.8" stroke="var(--control-color-state-primary-container-default-state, #36F)" stroke-width=".6" rx=".9"/>
    <rect width="48.2" height="19" x="223.1" y="148.8" fill="var(--control-color-state-primary-container-default-state, #36F)" rx=".9"/>
    <path fill="var(--control-color-state-primary-font-default-state, #FFF)" d="m239.205 158.217-.26.84h1.654l-.26-.84a34.068 34.068 0 0 1-.286-.916 105.59 105.59 0 0 1-.268-.94h-.034c-.084.319-.171.632-.26.94-.09.303-.185.608-.286.916Zm-1.68 3.083 1.865-5.511h.789l1.865 5.511h-.747l-.521-1.68h-2.008l-.529 1.68h-.714Zm5.964.101c-.258 0-.446-.079-.563-.236-.112-.162-.168-.392-.168-.688v-5.158h.689v5.208c0 .106.019.185.058.235.04.045.084.067.135.067h.059a.98.98 0 0 1 .092-.016l.092.52a.56.56 0 0 1-.159.051c-.062.011-.14.017-.235.017Zm2.141 0c-.258 0-.446-.079-.563-.236-.112-.162-.168-.392-.168-.688v-5.158h.689v5.208c0 .106.019.185.058.235.04.045.084.067.135.067h.059a.98.98 0 0 1 .092-.016l.092.52a.56.56 0 0 1-.159.051c-.062.011-.14.017-.235.017Zm2.997 0c-.33 0-.641-.084-.932-.252a1.905 1.905 0 0 1-.697-.731c-.174-.319-.261-.703-.261-1.151 0-.459.087-.848.261-1.168.179-.319.411-.562.697-.73.291-.168.602-.252.932-.252a1.81 1.81 0 0 1 1.622.982c.179.32.268.709.268 1.168 0 .448-.089.832-.268 1.151a1.858 1.858 0 0 1-.689.731 1.81 1.81 0 0 1-.933.252Zm0-.572c.353 0 .636-.142.849-.428.218-.291.327-.669.327-1.134 0-.47-.109-.851-.327-1.142a1 1 0 0 0-.849-.437c-.347 0-.63.145-.848.437-.218.291-.328.672-.328 1.142 0 .465.11.843.328 1.134.218.286.501.428.848.428Zm3.58.471-1.134-4.083h.705l.605 2.361c.045.19.087.381.126.571l.118.563h.033a79.857 79.857 0 0 1 .277-1.134l.63-2.361h.672l.639 2.361c.05.19.098.381.143.571.05.185.098.372.142.563h.034c.045-.191.087-.378.126-.563.045-.19.087-.381.126-.571l.596-2.361h.656l-1.092 4.083h-.84l-.588-2.193a27.029 27.029 0 0 1-.143-.579 15.691 15.691 0 0 0-.135-.597h-.033a49 49 0 0 1-.135.605c-.044.191-.095.384-.151.58l-.571 2.184h-.806Z"/>
    <rect width="48.2" height="19" x="223.1" y="148.8" stroke="var(--control-color-state-primary-container-default-state, #36F)" stroke-width=".6" rx=".9"/>
  </g>
  <defs>
    <clipPath id="a">
      <path fill="white" d="M0 0h320v224H0z"/>
    </clipPath>
  </defs>
</svg>
