<svg xmlns="http://www.w3.org/2000/svg" fill="none" viewBox="0 0 320 224">
  <g clip-path="url(#use-actions-a)">
    <path fill="var(--control-color-surface-100-surface, #F4F4F4)" d="M0 0h320v224H0z"/>
    <rect width="248" height="426.333" x="36" y="-234.334" fill="var(--control-color-surface-base-surface, #FFF)" rx="1.333"/>
    <rect width="207.333" height="21.333" x="56.333" y="-14.334" stroke="var(--control-color-border-400-border, #898989)" stroke-width=".667" rx="1"/>
    <path fill="var(--control-color-text-base-text, #222)" d="m57.26 27-1.13-6.086h1.41l.42 2.847c.037.317.078.638.121.961.044.317.084.638.122.961h.037a66 66 0 0 0 .177-.96l.187-.962.653-2.847h1.167l.653 2.847c.063.305.122.619.178.942l.186.98h.038c.043-.33.084-.653.121-.97l.13-.952.42-2.847h1.317L62.384 27h-1.727l-.597-2.762c-.05-.237-.096-.473-.14-.71a48.769 48.769 0 0 1-.103-.7h-.037c-.037.224-.078.458-.121.7a14.2 14.2 0 0 1-.131.71L58.958 27H57.26Zm6.94 0v-6.543h1.371v1.605l-.065.83c.174-.155.376-.298.606-.428a1.61 1.61 0 0 1 .822-.206c.504 0 .868.168 1.092.504.23.33.345.784.345 1.363V27H67v-2.698c0-.336-.047-.566-.14-.69-.087-.125-.23-.187-.43-.187a.804.804 0 0 0-.447.121 2.392 2.392 0 0 0-.41.327V27H64.2Zm6.498.111c-.423 0-.76-.133-1.008-.4a1.431 1.431 0 0 1-.373-1c0-.485.205-.864.616-1.138.41-.274 1.073-.457 1.987-.55-.012-.206-.074-.368-.186-.486-.106-.125-.286-.187-.541-.187-.193 0-.39.037-.588.112-.2.075-.411.178-.635.308l-.495-.905c.293-.18.604-.327.934-.439a3.284 3.284 0 0 1 1.045-.168c.59 0 1.045.171 1.363.514.317.342.476.868.476 1.577v2.65h-1.12l-.094-.476h-.037a2.797 2.797 0 0 1-.626.43 1.623 1.623 0 0 1-.718.159Zm.467-1.064a.753.753 0 0 0 .4-.102 2.07 2.07 0 0 0 .356-.29v-.812c-.486.063-.822.162-1.009.3-.186.13-.28.285-.28.466 0 .15.047.261.14.336.1.068.23.102.392.102Zm4.907 1.064c-.573 0-.984-.164-1.232-.494-.243-.33-.364-.762-.364-1.297v-1.877h-.635v-1.017l.71-.056.158-1.232h1.139v1.232h1.11v1.073h-1.11v1.858c0 .261.052.451.158.57a.593.593 0 0 0 .439.167c.075 0 .15-.01.224-.028.08-.019.152-.04.215-.065l.214.998a4.896 4.896 0 0 1-.438.112 2.736 2.736 0 0 1-.588.056Zm5.31 0c-.572 0-1.032-.214-1.381-.643-.342-.436-.513-1.03-.513-1.783 0-.504.09-.937.27-1.297.187-.368.427-.648.719-.84.299-.193.61-.29.933-.29.255 0 .47.044.644.13.175.088.34.206.495.355l-.056-.709v-1.577h1.372V27h-1.12l-.093-.458h-.038a2.259 2.259 0 0 1-.569.41 1.502 1.502 0 0 1-.663.16Zm.355-1.12a.85.85 0 0 0 .401-.093 1 1 0 0 0 .355-.326v-1.895a.994.994 0 0 0-.383-.233 1.208 1.208 0 0 0-.382-.066c-.218 0-.411.106-.579.317-.168.206-.252.53-.252.971 0 .454.072.79.215 1.008a.72.72 0 0 0 .625.317Zm5.332 1.12c-.392 0-.763-.093-1.111-.28a2.216 2.216 0 0 1-.83-.83c-.212-.367-.318-.806-.318-1.316 0-.517.106-.955.317-1.316.212-.361.489-.635.831-.822a2.258 2.258 0 0 1 2.212 0c.342.187.62.461.83.822.212.36.318.8.318 1.316 0 .51-.106.949-.317 1.316a2.22 2.22 0 0 1-.831.83c-.342.187-.71.28-1.101.28Zm0-1.11c.28 0 .491-.118.634-.355.143-.242.215-.563.215-.961 0-.405-.072-.725-.215-.961a.696.696 0 0 0-.634-.355.702.702 0 0 0-.644.355c-.137.236-.206.556-.206.96 0 .4.069.72.206.962a.704.704 0 0 0 .644.355Zm5.57 2.81c-.136 0-.258-.01-.364-.029a3.592 3.592 0 0 1-.289-.065l.243-1.045c.043.006.093.015.15.027a.502.502 0 0 0 .158.028c.23 0 .407-.055.532-.168.124-.111.218-.258.28-.438l.065-.243-1.782-4.508h1.38l.663 1.988c.069.212.131.426.187.644.056.218.115.442.178.672h.037l.15-.653c.055-.224.111-.445.167-.663l.56-1.988h1.316l-1.605 4.676c-.143.386-.302.71-.476.97a1.706 1.706 0 0 1-.635.598c-.243.13-.547.196-.915.196Zm6.27-1.7c-.393 0-.763-.093-1.111-.28a2.218 2.218 0 0 1-.83-.83c-.212-.367-.318-.806-.318-1.316 0-.517.106-.955.317-1.316a2.15 2.15 0 0 1 .83-.822 2.259 2.259 0 0 1 2.213 0c.342.187.619.461.83.822.212.36.318.8.318 1.316 0 .51-.106.949-.318 1.316-.211.36-.488.638-.83.83-.342.187-.71.28-1.102.28Zm0-1.11c.28 0 .491-.118.634-.355.143-.242.215-.563.215-.961 0-.405-.072-.725-.215-.961a.696.696 0 0 0-.635-.355c-.286 0-.5.118-.644.355-.136.236-.205.556-.205.96 0 .4.069.72.206.962a.704.704 0 0 0 .644.355Zm4.579 1.11c-.504 0-.871-.164-1.101-.494-.224-.336-.336-.794-.336-1.372V22.37h1.372v2.697c0 .33.047.56.14.691.093.125.239.187.439.187.174 0 .32-.04.438-.122.118-.08.246-.211.383-.392v-3.06h1.372V27h-1.12l-.103-.645h-.028c-.193.23-.404.414-.634.551a1.58 1.58 0 0 1-.822.206Zm6.557-.111-1.157-4.63h1.363l.448 2.147c.037.23.071.457.102.681.032.224.066.454.103.69h.037c.044-.236.084-.469.122-.7a10.3 10.3 0 0 1 .149-.671l.513-2.147h1.186l.522 2.147c.056.23.106.457.15.681.05.224.096.454.14.69h.037c.044-.236.078-.466.103-.69.031-.224.068-.45.112-.681l.438-2.147h1.27L114.572 27h-1.605l-.42-1.849-.131-.653-.121-.7h-.038l-.121.7c-.031.218-.068.436-.112.653L111.613 27h-1.568Zm6.472 0v-6.543h1.372v1.605l-.066.83a3.55 3.55 0 0 1 .607-.428 1.61 1.61 0 0 1 .821-.206c.504 0 .868.168 1.092.504.231.33.346.784.346 1.363V27h-1.372v-2.698c0-.336-.047-.566-.14-.69-.087-.125-.23-.187-.43-.187a.806.806 0 0 0-.448.121 2.398 2.398 0 0 0-.41.327V27h-1.372Zm6.499.111c-.424 0-.76-.133-1.008-.4a1.431 1.431 0 0 1-.374-1c0-.485.206-.864.616-1.138.411-.274 1.074-.457 1.988-.55-.012-.206-.074-.368-.186-.486-.106-.125-.287-.187-.542-.187-.193 0-.389.037-.588.112-.199.075-.41.178-.634.308l-.495-.905c.292-.18.603-.327.933-.439a3.287 3.287 0 0 1 1.046-.168c.591 0 1.045.171 1.362.514.318.342.476.868.476 1.577v2.65h-1.12l-.093-.476h-.037a2.803 2.803 0 0 1-.626.43 1.621 1.621 0 0 1-.718.159Zm.466-1.064a.76.76 0 0 0 .402-.102c.118-.075.236-.171.354-.29v-.812c-.485.063-.821.162-1.008.3-.186.13-.28.285-.28.466 0 .15.047.261.14.336.1.068.23.102.392.102Zm4.907 1.064c-.572 0-.983-.164-1.232-.494-.242-.33-.364-.762-.364-1.297v-1.877h-.634v-1.017l.709-.056.159-1.232h1.138v1.232h1.111v1.073h-1.111v1.858c0 .261.053.451.159.57a.593.593 0 0 0 .439.167.93.93 0 0 0 .224-.028c.081-.019.152-.04.214-.065l.215.998a4.818 4.818 0 0 1-.439.112 2.736 2.736 0 0 1-.588.056Zm5.442 0c-.573 0-.983-.164-1.232-.494-.243-.33-.364-.762-.364-1.297v-1.877h-.635v-1.017l.709-.056.159-1.232h1.139v1.232h1.11v1.073h-1.11v1.858c0 .261.053.451.158.57a.595.595 0 0 0 .439.167c.075 0 .149-.01.224-.028.081-.019.153-.04.215-.065l.214.998a4.874 4.874 0 0 1-.438.112 2.736 2.736 0 0 1-.588.056Zm3.614 0a2.32 2.32 0 0 1-1.111-.28 2.213 2.213 0 0 1-.83-.83c-.212-.367-.318-.806-.318-1.316 0-.517.106-.955.318-1.316.211-.361.488-.635.83-.822a2.261 2.261 0 0 1 2.212 0c.342.187.619.461.831.822.211.36.317.8.317 1.316 0 .51-.106.949-.317 1.316a2.22 2.22 0 0 1-.831.83c-.342.187-.709.28-1.101.28Zm0-1.11c.28 0 .491-.118.635-.355.143-.242.214-.563.214-.961 0-.405-.071-.725-.214-.961a.698.698 0 0 0-.635-.355.704.704 0 0 0-.644.355c-.137.236-.205.556-.205.96 0 .4.068.72.205.962a.704.704 0 0 0 .644.355Zm6.318 1.11c-.473 0-.803-.14-.99-.42-.18-.286-.27-.662-.27-1.129v-5.105h1.372v5.161c0 .143.024.243.074.299.056.056.112.084.168.084h.075a1.24 1.24 0 0 1 .093-.019l.168 1.018a1.282 1.282 0 0 1-.289.074 1.874 1.874 0 0 1-.401.037Zm3.482 0a2.46 2.46 0 0 1-1.195-.289 2.123 2.123 0 0 1-.84-.83c-.205-.361-.308-.797-.308-1.307 0-.504.103-.937.308-1.297.212-.361.486-.638.822-.831.336-.2.687-.299 1.054-.299.442 0 .806.1 1.092.299.293.193.511.457.654.793.149.33.224.706.224 1.13a3.242 3.242 0 0 1-.056.606h-2.772c.062.336.202.585.42.747.218.155.479.233.784.233.33 0 .662-.102.998-.308l.458.83a2.98 2.98 0 0 1-.794.383c-.292.094-.575.14-.849.14Zm-1.027-2.93h1.671c0-.255-.062-.464-.187-.626-.118-.168-.314-.252-.588-.252a.835.835 0 0 0-.569.224c-.168.144-.277.361-.327.654Zm4.852 2.93c-.423 0-.759-.133-1.008-.4a1.43 1.43 0 0 1-.373-1c0-.485.205-.864.616-1.138.411-.274 1.073-.457 1.988-.55-.013-.206-.075-.368-.187-.486-.106-.125-.286-.187-.541-.187-.193 0-.389.037-.588.112a4.193 4.193 0 0 0-.635.308l-.494-.905c.292-.18.603-.327.933-.439a3.281 3.281 0 0 1 1.045-.168c.591 0 1.046.171 1.363.514.317.342.476.868.476 1.577v2.65h-1.12l-.093-.476h-.038a2.797 2.797 0 0 1-.625.43 1.623 1.623 0 0 1-.719.159Zm.467-1.064a.755.755 0 0 0 .401-.102 2.07 2.07 0 0 0 .355-.29v-.812c-.485.063-.821.162-1.008.3-.187.13-.28.285-.28.466 0 .15.047.261.14.336a.68.68 0 0 0 .392.102Zm3.288.953v-4.63h1.12l.094.812h.037c.168-.31.37-.541.607-.69a1.28 1.28 0 0 1 .709-.234c.131 0 .24.01.327.028a.73.73 0 0 1 .224.066l-.224 1.185a1.732 1.732 0 0 0-.504-.075c-.174 0-.358.066-.551.196-.187.125-.342.342-.467.653V27h-1.372Zm3.719 0v-4.63h1.12l.094.588h.037c.199-.186.417-.348.653-.485.243-.143.52-.215.831-.215.504 0 .868.168 1.092.504.23.33.345.784.345 1.363V27h-1.372v-2.698c0-.336-.046-.566-.14-.69-.087-.125-.23-.187-.429-.187a.803.803 0 0 0-.448.121 2.4 2.4 0 0 0-.411.327V27h-1.372Zm6.026-2.157a1.435 1.435 0 0 1 .047-.68c.068-.206.162-.39.28-.552.124-.168.252-.32.382-.457.131-.143.24-.28.327-.41a.728.728 0 0 0 .14-.411c0-.193-.059-.34-.177-.439a.65.65 0 0 0-.448-.15.901.901 0 0 0-.467.122 2.165 2.165 0 0 0-.383.308l-.756-.69c.218-.256.48-.46.784-.617.305-.155.638-.233.999-.233.336 0 .635.056.896.168.268.112.479.286.635.523.155.236.233.538.233.905 0 .23-.047.436-.14.616a2.36 2.36 0 0 1-.345.485c-.137.15-.271.3-.402.448a1.89 1.89 0 0 0-.317.477 1.06 1.06 0 0 0-.084.587h-1.204Zm.597 2.268a.783.783 0 0 1-.588-.242.875.875 0 0 1-.233-.616c0-.249.078-.454.233-.616a.769.769 0 0 1 .588-.252c.237 0 .433.084.588.252a.834.834 0 0 1 .243.616.854.854 0 0 1-.243.616.78.78 0 0 1-.588.242Z"/>
    <rect width="15.333" height="15.333" x="56.333" y="39.999" stroke="var(--control-color-border-400-border, #898989)" stroke-width=".667" rx="2.333"/>
    <path fill="var(--control-color-text-base-text, #222)" d="M80.348 50.778a2.49 2.49 0 0 1-1.13-.252c-.33-.168-.59-.445-.783-.83-.193-.386-.29-.906-.29-1.56v-3.593h.775v3.612c0 .492.062.88.187 1.167.13.28.302.48.513.597a1.5 1.5 0 0 0 .728.178c.274 0 .52-.06.737-.178.218-.118.39-.317.514-.597.13-.286.196-.675.196-1.167v-3.612h.746v3.594c0 .653-.096 1.173-.289 1.558-.193.386-.454.663-.784.831-.33.168-.703.252-1.12.252Zm3.05-.112 1.782-3.164-1.66-2.959h.858l.83 1.568c.081.137.156.274.225.411.074.137.158.296.251.476h.038c.087-.18.162-.34.224-.476.068-.137.14-.274.215-.41l.811-1.569h.822l-1.67 2.996 1.782 3.127h-.859l-.896-1.652c-.08-.15-.165-.302-.252-.457-.08-.162-.17-.336-.27-.523h-.038a21.445 21.445 0 0 1-.485.98l-.887 1.652h-.821Zm7.353 0v-6.123h1.531c.946 0 1.665.265 2.156.794.492.522.737 1.269.737 2.24 0 .977-.245 1.736-.737 2.277-.485.541-1.191.812-2.118.812h-1.57Zm.775-.635h.7c.716 0 1.25-.214 1.606-.644.36-.435.54-1.039.54-1.81 0-.772-.18-1.363-.54-1.774-.355-.416-.89-.625-1.606-.625h-.7v4.853Zm6.732.747c-.405 0-.772-.093-1.102-.28a2.078 2.078 0 0 1-.784-.821c-.192-.355-.289-.778-.289-1.27 0-.497.097-.924.29-1.278.198-.355.454-.629.765-.822.31-.193.637-.289.98-.289.578 0 1.023.193 1.334.579.318.386.476.902.476 1.549 0 .08-.003.162-.009.243a.88.88 0 0 1-.019.196h-3.06c.031.479.18.861.448 1.148.274.286.628.429 1.064.429.218 0 .417-.031.597-.093.187-.069.364-.156.532-.262l.271.504a3.457 3.457 0 0 1-.663.327c-.242.093-.52.14-.83.14Zm-1.428-2.744h2.426c0-.46-.1-.809-.298-1.045-.193-.243-.467-.364-.822-.364-.317 0-.603.124-.858.373-.25.243-.399.588-.448 1.036Zm5.405 2.744a2.44 2.44 0 0 1-.924-.177 3.262 3.262 0 0 1-.766-.448l.383-.514c.199.156.404.287.616.392.211.1.451.15.719.15.298 0 .522-.069.672-.206a.677.677 0 0 0 .224-.504.532.532 0 0 0-.159-.392c-.1-.105-.23-.193-.392-.261a5.714 5.714 0 0 0-.485-.205 7.937 7.937 0 0 1-.626-.271 1.555 1.555 0 0 1-.504-.401 1.007 1.007 0 0 1-.196-.635c0-.367.137-.672.411-.915.28-.248.666-.373 1.157-.373.28 0 .542.05.784.15.243.099.451.22.626.363l-.374.486a2.423 2.423 0 0 0-.485-.29 1.344 1.344 0 0 0-.551-.112c-.286 0-.498.066-.634.196a.626.626 0 0 0-.196.458c0 .143.046.261.14.354.093.088.214.165.364.234l.476.196c.217.08.432.174.644.28.211.1.385.236.522.41.143.168.215.395.215.682 0 .242-.065.466-.196.672-.125.205-.311.37-.56.494-.243.125-.545.187-.905.187Zm2.724-.112V46.13h.766v4.536h-.766Zm.392-5.47a.547.547 0 0 1-.373-.13.506.506 0 0 1-.14-.373c0-.15.047-.271.14-.364.1-.094.224-.14.373-.14a.49.49 0 0 1 .364.14c.1.093.15.214.15.364 0 .155-.05.28-.15.373a.51.51 0 0 1-.364.13Zm3.436 7.56c-.554 0-1.005-.105-1.353-.317-.349-.211-.523-.513-.523-.905 0-.193.059-.38.177-.56.118-.174.28-.33.486-.467v-.037a.92.92 0 0 1-.29-.29.862.862 0 0 1-.112-.447c0-.193.053-.361.159-.504a1.44 1.44 0 0 1 .336-.336v-.038a1.92 1.92 0 0 1-.411-.504 1.45 1.45 0 0 1-.177-.718c0-.33.078-.616.233-.859.156-.243.364-.43.626-.56a1.87 1.87 0 0 1 1.204-.159 1.5 1.5 0 0 1 .289.075h1.577v.588h-.933c.106.1.193.233.261.401.075.162.112.34.112.532 0 .324-.074.604-.224.84-.149.237-.348.42-.597.551a1.852 1.852 0 0 1-.84.187c-.243 0-.47-.053-.681-.159-.081.069-.15.146-.206.233a.53.53 0 0 0-.084.308.44.44 0 0 0 .168.355c.118.093.33.14.635.14h.877c.529 0 .924.087 1.186.261.267.168.401.442.401.822 0 .28-.093.538-.28.774-.187.237-.451.427-.793.57-.343.149-.75.224-1.223.224Zm0-4.04a.903.903 0 0 0 .672-.29c.193-.2.289-.464.289-.793 0-.33-.093-.588-.28-.775a.926.926 0 0 0-.681-.28.925.925 0 0 0-.681.28c-.187.187-.28.445-.28.775s.093.594.28.793a.93.93 0 0 0 .681.29Zm.112 3.509c.435 0 .784-.097 1.045-.29.262-.186.392-.398.392-.634 0-.212-.081-.358-.242-.439-.156-.08-.38-.121-.672-.121h-.784a2.484 2.484 0 0 1-.588-.075c-.162.118-.28.243-.355.373a.781.781 0 0 0-.112.392c0 .243.115.436.345.579.237.143.56.215.971.215Zm3.06-1.559V46.13h.635l.065.653h.028c.218-.217.448-.398.691-.541.243-.15.52-.224.831-.224.479 0 .827.152 1.045.457.224.299.336.738.336 1.316v2.875h-.765v-2.772c0-.423-.069-.731-.206-.924-.137-.193-.354-.29-.653-.29-.23 0-.439.06-.625.178a4.02 4.02 0 0 0-.616.523v3.285h-.766Z"/>
    <rect width="15.333" height="15.333" x="56.333" y="63.999" stroke="var(--control-color-border-400-border, #898989)" stroke-width=".667" rx="2.333"/>
    <path fill="var(--control-color-text-base-text, #222)" d="M80.348 74.778a2.49 2.49 0 0 1-1.13-.252c-.33-.168-.59-.445-.783-.83-.193-.386-.29-.906-.29-1.56v-3.593h.775v3.612c0 .492.062.88.187 1.167.13.28.302.48.513.597a1.5 1.5 0 0 0 .728.178c.274 0 .52-.06.737-.178.218-.118.39-.317.514-.597.13-.286.196-.675.196-1.167v-3.612h.746v3.594c0 .653-.096 1.173-.289 1.558-.193.386-.454.663-.784.831-.33.168-.703.252-1.12.252Zm3.841-.112v-6.123h.775v6.123h-.775Zm4.32 0v-6.123h1.531c.946 0 1.664.265 2.156.794.492.522.737 1.269.737 2.24 0 .977-.246 1.736-.737 2.277-.485.541-1.192.812-2.119.812H88.51Zm.775-.635h.7c.716 0 1.25-.214 1.605-.644.361-.435.542-1.039.542-1.81 0-.772-.18-1.363-.542-1.774-.354-.416-.89-.625-1.605-.625h-.7v4.853Zm6.731.747c-.404 0-.771-.093-1.1-.28a2.079 2.079 0 0 1-.785-.821c-.193-.355-.29-.778-.29-1.27 0-.497.097-.924.29-1.278.2-.355.454-.629.766-.822.31-.192.637-.289.98-.289.578 0 1.023.193 1.334.579.318.386.476.902.476 1.549 0 .08-.003.162-.01.243 0 .074-.005.14-.018.196h-3.061c.03.479.18.862.448 1.148.274.286.628.429 1.064.429.218 0 .417-.031.597-.093.187-.069.364-.156.532-.262l.27.504a3.454 3.454 0 0 1-.662.327c-.243.093-.52.14-.83.14Zm-1.427-2.744h2.426c0-.46-.1-.809-.298-1.045-.193-.243-.467-.364-.822-.364-.317 0-.603.124-.859.373-.248.243-.398.588-.447 1.036Zm5.404 2.744a2.47 2.47 0 0 1-.924-.177 3.263 3.263 0 0 1-.765-.448l.383-.514c.199.156.404.287.616.392.211.1.45.15.718.15.299 0 .523-.069.672-.206a.674.674 0 0 0 .224-.504.535.535 0 0 0-.158-.392 1.151 1.151 0 0 0-.392-.261 5.782 5.782 0 0 0-.486-.205 7.892 7.892 0 0 1-.625-.271 1.548 1.548 0 0 1-.504-.401 1.003 1.003 0 0 1-.196-.635c0-.367.137-.672.41-.915.28-.249.666-.373 1.158-.373.28 0 .541.05.784.15.243.099.451.22.625.363l-.373.486a2.452 2.452 0 0 0-.485-.29 1.344 1.344 0 0 0-.551-.112c-.286 0-.498.066-.635.196a.627.627 0 0 0-.196.458.48.48 0 0 0 .14.354c.094.087.215.165.364.234l.476.196c.218.08.433.174.644.28.212.1.386.236.523.41.143.168.215.395.215.682 0 .242-.066.466-.196.672-.125.205-.311.37-.56.494-.243.125-.545.187-.906.187Zm2.725-.112V70.13h.766v4.536h-.766Zm.392-5.47a.545.545 0 0 1-.373-.13.506.506 0 0 1-.14-.373c0-.15.047-.271.14-.364a.523.523 0 0 1 .373-.14.49.49 0 0 1 .364.14c.1.093.15.214.15.364 0 .155-.05.28-.15.373a.51.51 0 0 1-.364.13Zm3.436 7.56c-.554 0-1.005-.105-1.354-.317-.348-.211-.522-.513-.522-.905 0-.193.059-.38.177-.56.118-.174.28-.33.485-.467v-.037a.917.917 0 0 1-.289-.29.852.852 0 0 1-.112-.447c0-.193.053-.361.159-.504a1.44 1.44 0 0 1 .336-.336v-.038a1.9 1.9 0 0 1-.411-.504 1.45 1.45 0 0 1-.177-.718c0-.33.078-.616.233-.859.156-.243.364-.43.625-.56a1.877 1.877 0 0 1 1.204-.159c.112.019.209.044.29.075h1.577v.588h-.933c.106.1.193.233.261.401.075.162.112.34.112.532 0 .324-.075.604-.224.84-.149.237-.348.42-.597.551a1.852 1.852 0 0 1-.84.187c-.243 0-.47-.053-.682-.159-.08.069-.149.146-.205.233a.53.53 0 0 0-.084.308c0 .143.056.262.168.355.118.093.33.14.635.14h.877c.529 0 .924.087 1.185.261.268.168.402.442.402.822 0 .28-.094.538-.28.774-.187.237-.451.427-.794.57-.342.149-.749.224-1.222.224Zm0-4.04a.903.903 0 0 0 .672-.29c.193-.2.289-.463.289-.793s-.093-.588-.28-.775a.928.928 0 0 0-.681-.28.929.929 0 0 0-.682.28c-.186.187-.28.445-.28.775s.094.594.28.793c.193.193.42.29.682.29Zm.112 3.509c.435 0 .784-.097 1.045-.29.261-.186.392-.398.392-.634 0-.212-.081-.358-.243-.439-.155-.08-.379-.121-.672-.121h-.784a2.481 2.481 0 0 1-.588-.075c-.161.118-.28.243-.354.373a.781.781 0 0 0-.112.392c0 .243.115.436.345.579.237.143.56.215.971.215Zm3.06-1.559V70.13h.635l.065.653h.028c.218-.217.448-.398.691-.541.243-.15.519-.224.831-.224.479 0 .827.153 1.045.457.224.299.336.738.336 1.316v2.875h-.765v-2.772c0-.423-.069-.731-.206-.924-.137-.193-.354-.29-.653-.29-.23 0-.439.06-.625.178a4.02 4.02 0 0 0-.616.523v3.285h-.766Z"/>
    <rect width="15.333" height="15.333" x="56.333" y="87.999" stroke="var(--control-color-border-400-border, #898989)" stroke-width=".667" rx="2.333"/>
    <path fill="var(--control-color-text-base-text, #222)" d="M78.173 98.666v-6.123h3.528v.654h-2.753v2.072h2.333v.653h-2.333v2.744h-.775Zm4.355 0V94.13h.635l.065.821h.028a2.07 2.07 0 0 1 .57-.681 1.206 1.206 0 0 1 1.204-.159l-.15.672a1.224 1.224 0 0 0-.439-.075c-.192 0-.394.079-.606.234-.205.156-.386.426-.541.812v2.912h-.766Zm4.909.112a2.04 2.04 0 0 1-1.036-.28 2.12 2.12 0 0 1-.775-.812c-.193-.355-.29-.78-.29-1.279 0-.51.097-.942.29-1.297.2-.355.458-.625.775-.812a2.04 2.04 0 0 1 1.036-.28 2.007 2.007 0 0 1 1.801 1.092c.2.355.299.787.299 1.297 0 .498-.1.924-.299 1.279a2.007 2.007 0 0 1-1.801 1.092Zm0-.635c.392 0 .706-.158.943-.476.242-.323.364-.743.364-1.26 0-.522-.122-.945-.364-1.269a1.112 1.112 0 0 0-.943-.485c-.386 0-.7.161-.943.485-.242.324-.364.747-.364 1.27 0 .516.122.936.364 1.26.243.317.557.475.943.475Zm3.294.523V94.13h.635l.066.653h.028c.217-.217.448-.398.69-.541.243-.15.52-.224.83-.224.48 0 .828.153 1.046.457.224.299.336.738.336 1.316v2.875h-.765v-2.772c0-.423-.069-.731-.206-.924-.136-.193-.354-.29-.653-.29-.23 0-.439.06-.625.178-.18.118-.386.292-.616.523v3.285h-.766Zm6.533.112c-.486 0-.825-.14-1.018-.42-.186-.28-.28-.644-.28-1.092v-2.51h-.672v-.58l.71-.046.093-1.27h.644v1.27h1.223v.625H96.74v2.52c0 .28.05.498.15.654.105.149.289.224.55.224.08 0 .168-.013.261-.038.094-.03.178-.059.252-.084l.15.579a3.38 3.38 0 0 1-.411.112 1.696 1.696 0 0 1-.43.056Zm1.097-2.156v-.588h2.146v.588h-2.146Zm3.355 2.044v-6.123h3.528v.654h-2.753v1.922h2.324v.663h-2.324v2.221h2.847v.663h-3.622Zm4.848 0V94.13h.634l.066.653h.028a3.47 3.47 0 0 1 .69-.541c.243-.15.52-.224.831-.224.479 0 .827.153 1.045.457.224.299.336.738.336 1.316v2.875h-.765v-2.772c0-.423-.069-.731-.205-.924-.137-.193-.355-.29-.654-.29-.23 0-.438.06-.625.178a4.02 4.02 0 0 0-.616.523v3.285h-.765Zm6.653.112c-.566 0-1.02-.205-1.363-.616-.342-.417-.513-1.002-.513-1.755 0-.491.09-.914.271-1.269a2.11 2.11 0 0 1 .728-.83c.305-.194.628-.29.97-.29.262 0 .489.047.682.14.193.093.389.22.588.383l-.038-.775v-1.745h.775v6.645h-.635l-.065-.532h-.028c-.174.174-.38.327-.616.457a1.597 1.597 0 0 1-.756.187Zm.168-.644c.398 0 .784-.208 1.157-.625v-2.371a1.817 1.817 0 0 0-.56-.364 1.357 1.357 0 0 0-.541-.112 1.08 1.08 0 0 0-.663.224 1.505 1.505 0 0 0-.466.607 2.124 2.124 0 0 0-.178.905c0 .541.109.968.327 1.279.218.305.526.457.924.457Z"/>
    <rect width="15.333" height="15.333" x="56.333" y="111.999" stroke="var(--control-color-border-400-border, #898989)" stroke-width=".667" rx="2.333"/>
    <path fill="var(--control-color-text-base-text, #222)" d="M78.173 122.666v-6.123h1.82c.417 0 .781.05 1.092.15.318.099.564.258.738.476.18.217.27.507.27.868 0 .305-.077.581-.233.83a1.16 1.16 0 0 1-.663.504v.038c.367.068.666.224.896.466.237.243.355.576.355.999 0 .398-.1.731-.299.999a1.715 1.715 0 0 1-.812.597 3.439 3.439 0 0 1-1.213.196h-1.95Zm.775-3.519h.905c.523 0 .9-.09 1.13-.27a.889.889 0 0 0 .345-.738c0-.354-.121-.606-.364-.756-.236-.149-.594-.224-1.073-.224h-.943v1.988Zm0 2.903h1.064c.529 0 .94-.096 1.232-.289.293-.199.439-.504.439-.915 0-.38-.147-.656-.439-.831-.286-.18-.697-.27-1.232-.27h-1.064v2.305Zm5.683.728c-.38 0-.697-.112-.952-.336-.249-.23-.373-.548-.373-.952 0-.498.22-.877.662-1.139.448-.267 1.155-.454 2.119-.56 0-.193-.028-.376-.084-.55a.784.784 0 0 0-.28-.42c-.13-.112-.32-.168-.57-.168a1.83 1.83 0 0 0-.737.149c-.23.1-.435.212-.616.336l-.298-.532a4.67 4.67 0 0 1 .774-.392 2.57 2.57 0 0 1 1.008-.196c.554 0 .956.171 1.204.513.25.336.374.787.374 1.354v2.781h-.635l-.065-.541h-.028a3.907 3.907 0 0 1-.7.457 1.698 1.698 0 0 1-.803.196Zm.224-.616c.218 0 .423-.053.616-.159.193-.105.398-.255.616-.448v-1.26c-.753.094-1.282.234-1.587.42-.298.187-.448.427-.448.719 0 .255.078.442.234.56a.948.948 0 0 0 .569.168Zm5.226.616c-.398 0-.76-.093-1.083-.28a1.972 1.972 0 0 1-.765-.812c-.187-.355-.28-.781-.28-1.279 0-.51.1-.942.298-1.297.206-.355.473-.625.803-.812a2.19 2.19 0 0 1 1.083-.28c.299 0 .554.053.765.159.218.105.405.23.56.373l-.392.504a1.856 1.856 0 0 0-.42-.289 1.03 1.03 0 0 0-.485-.112c-.274 0-.52.074-.738.224-.211.143-.38.348-.504.616a2.198 2.198 0 0 0-.177.914c0 .517.128.937.383 1.26.261.318.6.476 1.017.476.212 0 .408-.043.588-.13.18-.094.34-.203.476-.327l.336.513a2.512 2.512 0 0 1-.681.43c-.25.099-.51.149-.784.149Zm2.464-.112v-6.645h.756v4.498h.028l1.932-2.389h.85l-1.522 1.82 1.727 2.716h-.84l-1.325-2.184-.85.989v1.195h-.756Zm3.829-2.044v-.588h2.146v.588h-2.146Zm3.355 2.044v-6.123h3.528v.654h-2.753v1.922h2.324v.663h-2.324v2.221h2.847v.663h-3.622Zm4.848 0v-4.536h.634l.066.653h.028c.217-.217.448-.398.69-.541.243-.149.52-.224.831-.224.479 0 .827.152 1.045.457.224.299.336.738.336 1.316v2.875h-.765v-2.772c0-.423-.069-.731-.205-.924-.137-.193-.355-.289-.654-.289-.23 0-.438.059-.625.177a3.968 3.968 0 0 0-.616.523v3.285h-.765Zm6.653.112c-.566 0-1.02-.205-1.363-.616-.342-.417-.513-1.002-.513-1.755 0-.491.09-.914.271-1.269.186-.361.429-.638.728-.831.305-.193.628-.289.97-.289.262 0 .489.047.682.14.193.093.389.221.588.383l-.038-.775v-1.745h.775v6.645h-.635l-.065-.532h-.028a2.703 2.703 0 0 1-.616.457 1.591 1.591 0 0 1-.756.187Zm.168-.644c.398 0 .784-.208 1.157-.625v-2.371a1.8 1.8 0 0 0-.56-.364 1.352 1.352 0 0 0-.541-.112c-.243 0-.463.075-.663.224a1.51 1.51 0 0 0-.466.607 2.14 2.14 0 0 0-.178.905c0 .541.109.968.327 1.279.218.305.526.457.924.457Z"/>
    <path fill="var(--control-color-state-default-font-default-state, #737373)" d="M158.219 164.778c-.51 0-.967-.125-1.372-.374-.398-.255-.715-.619-.952-1.092-.23-.473-.345-1.042-.345-1.708 0-.659.118-1.226.354-1.698a2.64 2.64 0 0 1 .971-1.092 2.574 2.574 0 0 1 1.391-.383c.373 0 .703.078.989.233.286.15.517.324.691.523l-.42.504a2.011 2.011 0 0 0-.551-.42 1.504 1.504 0 0 0-.7-.159c-.386 0-.725.103-1.017.308-.286.199-.51.482-.672.85-.156.367-.234.805-.234 1.316 0 .51.078.955.234 1.334.155.374.373.663.653.868.286.206.622.308 1.008.308.293 0 .554-.062.784-.186a2.44 2.44 0 0 0 .635-.504l.429.485c-.243.28-.516.498-.821.653a2.286 2.286 0 0 1-1.055.234Zm3.988 0c-.379 0-.697-.112-.952-.336-.249-.231-.373-.548-.373-.952 0-.498.221-.878.662-1.139.448-.268 1.155-.454 2.119-.56a1.79 1.79 0 0 0-.084-.551.792.792 0 0 0-.28-.42c-.131-.112-.32-.168-.569-.168-.262 0-.507.05-.738.15a3.55 3.55 0 0 0-.616.336l-.298-.532a4.67 4.67 0 0 1 .774-.392 2.577 2.577 0 0 1 1.008-.196c.554 0 .956.171 1.204.513.249.336.374.787.374 1.353v2.782h-.635l-.065-.542h-.028a3.93 3.93 0 0 1-.7.458c-.249.13-.517.196-.803.196Zm.224-.616c.218 0 .423-.053.616-.159.193-.106.398-.255.616-.448v-1.26c-.753.093-1.282.233-1.587.42-.298.187-.448.426-.448.719 0 .255.078.441.234.56a.946.946 0 0 0 .569.168Zm3.434.504v-4.536h.635l.065.653h.028a3.46 3.46 0 0 1 .691-.541c.242-.15.519-.224.83-.224.479 0 .828.152 1.046.457.224.299.336.737.336 1.316v2.875h-.766v-2.772c0-.424-.068-.732-.205-.924-.137-.193-.355-.29-.653-.29a1.14 1.14 0 0 0-.626.178c-.18.118-.386.292-.616.522v3.286h-.765Zm6.896.112c-.398 0-.759-.094-1.083-.28a1.982 1.982 0 0 1-.765-.812c-.187-.355-.28-.781-.28-1.279 0-.51.1-.943.299-1.297.205-.355.473-.626.802-.812.336-.187.697-.28 1.083-.28.299 0 .554.052.765.158.218.106.405.23.56.374l-.392.504a1.834 1.834 0 0 0-.42-.29 1.038 1.038 0 0 0-.485-.112c-.274 0-.519.075-.737.224-.212.143-.38.349-.504.616a2.206 2.206 0 0 0-.178.915c0 .516.128.936.383 1.26.261.317.601.476 1.017.476.212 0 .408-.044.588-.131.181-.093.34-.202.476-.326l.336.513c-.205.18-.432.323-.681.429-.249.1-.51.15-.784.15Zm4.103 0c-.405 0-.772-.094-1.102-.28a2.085 2.085 0 0 1-.784-.822c-.192-.354-.289-.778-.289-1.269 0-.498.097-.924.289-1.279.2-.354.455-.628.766-.821a1.83 1.83 0 0 1 .98-.289c.578 0 1.023.192 1.334.578.318.386.476.902.476 1.55 0 .08-.003.161-.009.242 0 .075-.006.14-.019.196h-3.061c.031.479.181.862.448 1.148.274.286.629.43 1.064.43.218 0 .417-.032.597-.094.187-.068.364-.155.532-.261l.271.504a3.53 3.53 0 0 1-.663.327c-.242.093-.519.14-.83.14Zm-1.428-2.744h2.426c0-.461-.099-.809-.298-1.046-.193-.242-.467-.364-.822-.364-.317 0-.603.125-.858.374-.249.242-.398.588-.448 1.036Zm5.031 2.744c-.286 0-.494-.088-.625-.262-.125-.18-.187-.435-.187-.765v-5.731h.766v5.787c0 .118.021.205.065.261.043.05.093.075.149.075h.066c.024-.006.059-.013.102-.019l.103.579a.682.682 0 0 1-.177.056 1.557 1.557 0 0 1-.262.019Z"/>
    <rect width="60.333" height="21" x="203.333" y="150.666" fill="var(--control-color-state-primary-container-default-state, #36F)" rx="1"/>
    <path fill="var(--control-color-state-primary-font-default-state, #FFF)" d="M221.834 164.778c-.43 0-.828-.081-1.195-.243a3.154 3.154 0 0 1-.952-.662l.467-.542c.217.231.472.417.765.56.299.137.607.206.924.206.404 0 .719-.091.943-.271a.903.903 0 0 0 .336-.728c0-.212-.047-.38-.14-.504a1.092 1.092 0 0 0-.364-.317 5.671 5.671 0 0 0-.514-.262l-.877-.382a3.325 3.325 0 0 1-.579-.318 1.755 1.755 0 0 1-.476-.504c-.124-.205-.186-.457-.186-.756 0-.311.08-.588.242-.83.168-.249.398-.442.691-.579a2.22 2.22 0 0 1 .989-.215c.367 0 .706.072 1.018.215.311.137.575.317.793.541l-.42.504a2.108 2.108 0 0 0-.625-.42 1.787 1.787 0 0 0-.766-.158c-.342 0-.619.081-.83.242a.788.788 0 0 0-.308.654c0 .193.049.354.149.485.106.124.236.227.392.308.155.081.314.156.476.224l.868.373c.236.1.448.221.635.364.192.137.345.308.457.514.112.199.168.451.168.756 0 .323-.084.619-.252.886-.168.262-.408.47-.719.626-.311.155-.681.233-1.11.233Zm4.537 0c-.479 0-.83-.149-1.054-.448-.224-.305-.336-.747-.336-1.325v-2.875h.774v2.772c0 .423.066.731.196.924.137.193.355.289.654.289.236 0 .444-.059.625-.177.187-.124.386-.32.597-.588v-3.22h.766v4.536h-.635l-.065-.709h-.028a2.982 2.982 0 0 1-.672.597 1.512 1.512 0 0 1-.822.224Zm5.758 0c-.211 0-.432-.05-.662-.149a2.589 2.589 0 0 1-.635-.43h-.028l-.065.467h-.616v-6.645h.765v1.81l-.019.822c.206-.181.43-.33.672-.448.249-.125.498-.187.747-.187.591 0 1.039.208 1.344.625.305.417.457.977.457 1.68 0 .517-.093.959-.28 1.326-.18.367-.42.647-.718.84a1.711 1.711 0 0 1-.962.289Zm-.13-.644c.373 0 .681-.159.924-.476.249-.324.373-.765.373-1.325 0-.498-.093-.899-.28-1.204-.18-.311-.485-.467-.915-.467a1.25 1.25 0 0 0-.588.159 3.088 3.088 0 0 0-.625.457v2.38c.199.174.395.299.588.373.199.069.373.103.523.103Zm3.283.532v-4.536h.634l.066.653h.028c.199-.217.416-.398.653-.541.236-.149.488-.224.756-.224.348 0 .619.078.812.233.199.15.345.361.439.635.236-.255.476-.464.718-.625.243-.162.501-.243.775-.243.467 0 .812.152 1.036.457.23.299.345.738.345 1.316v2.875h-.765v-2.772c0-.423-.069-.731-.205-.924-.137-.193-.349-.289-.635-.289-.336 0-.716.233-1.139.7v3.285h-.765v-2.772c0-.423-.069-.731-.205-.924-.137-.193-.352-.289-.644-.289-.336 0-.716.233-1.139.7v3.285h-.765Zm7.738 0v-4.536h.765v4.536h-.765Zm.392-5.469a.546.546 0 0 1-.373-.131.502.502 0 0 1-.14-.373c0-.15.046-.271.14-.364a.52.52 0 0 1 .373-.14.49.49 0 0 1 .364.14.476.476 0 0 1 .149.364c0 .155-.05.28-.149.373a.513.513 0 0 1-.364.131Zm3.333 5.581c-.486 0-.825-.14-1.018-.42-.186-.28-.28-.644-.28-1.092v-2.511h-.672v-.578l.71-.047.093-1.269h.644v1.269h1.223v.625h-1.223v2.52c0 .28.05.498.149.654.106.149.29.224.551.224.081 0 .168-.013.261-.038l.252-.084.15.579a3.208 3.208 0 0 1-.411.112 1.707 1.707 0 0 1-.429.056Z"/>
    <rect width="60.333" height="21" x="203.333" y="150.666" stroke="var(--control-color-state-primary-container-default-state, #36F)" stroke-width=".667" rx="1"/>
  </g>
  <defs>
    <clipPath id="use-actions-a">
      <path fill="white" d="M0 0h320v224H0z"/>
    </clipPath>
  </defs>
</svg>
