<svg xmlns="http://www.w3.org/2000/svg" viewBox="0 0 16 16"><path fill-rule="evenodd" d="M7.976 0C3.566 0 0 3.667 0 8.203c0 3.626 2.285 6.695 5.454 7.781.396.082.541-.176.541-.393 0-.19-.013-.842-.013-1.521-2.219.489-2.68-.978-2.68-.978-.357-.95-.886-1.195-.886-1.195-.726-.503.053-.503.053-.503.806.055 1.229.842 1.229.842.713 1.25 1.861.897 2.324.68.066-.53.277-.897.502-1.1-1.77-.19-3.632-.897-3.632-4.048 0-.896.317-1.63.819-2.2-.08-.204-.357-1.046.079-2.173 0 0 .673-.217 2.192.842.65-.18 1.32-.27 1.994-.272.674 0 1.36.096 1.994.272 1.519-1.06 2.192-.842 2.192-.842.436 1.127.159 1.97.08 2.173.515.57.818 1.304.818 2.2 0 3.151-1.862 3.843-3.645 4.047.291.258.542.747.542 1.521 0 1.1-.013 1.983-.013 2.255 0 .217.145.475.541.394 3.17-1.087 5.454-4.156 5.454-7.782C15.952 3.667 12.374 0 7.976 0" clip-rule="evenodd"/></svg>