<svg xmlns="http://www.w3.org/2000/svg" viewBox="0 0 16 16"><path d="m4 1.5-.687-.312C3.125 1.094 3 .875 3 .625 3 .281 3.25 0 3.594 0H8c3.313 0 6 2.688 6 6v.469c0 .375-.031.718-.125 1.062L13 12.5H3c0-.625.281-1.187.813-1.562l4-2.72c.343-.218.343-.687.03-.937a.61.61 0 0 0-.718 0L5.594 8.438c-.063.062-.157.093-.219.124l-.125.063c-.469.25-1.031.219-1.5-.094l-.312-.219A1 1 0 0 1 3 7.47V3.344c0-.531.188-1.031.563-1.406zm.75 2.125c0 .375.25.625.625.625C5.719 4.25 6 4 6 3.625A.627.627 0 0 0 5.375 3a.61.61 0 0 0-.625.625M1.688 14.813 3 13.5h10l1.281 1.313a.74.74 0 0 1 .219.5c0 .374-.344.687-.719.687H2.188a.694.694 0 0 1-.688-.687.7.7 0 0 1 .188-.5"/></svg>