<svg xmlns="http://www.w3.org/2000/svg" viewBox="0 0 16 16"><path d="M2.075 14.712 1.581 1.533a.803.803 0 0 1 .752-.83L13.542.001a.803.803 0 0 1 .853.8v14.361a.803.803 0 0 1-.839.802l-10.715-.481a.803.803 0 0 1-.766-.772"/><mask id="a" width="14" height="16" x="1" y="0" maskUnits="userSpaceOnUse" style="mask-type:luminance"><path d="M2.075 14.712 1.581 1.533a.803.803 0 0 1 .752-.83L13.542.001a.803.803 0 0 1 .853.8v14.361a.803.803 0 0 1-.839.802l-10.715-.481a.803.803 0 0 1-.766-.772"/></mask><g mask="url(#a)"><path d="m11.043 1.962.076-1.841L12.66 0l.066 1.9a.12.12 0 0 1-.194.097l-.593-.467-.703.533a.12.12 0 0 1-.192-.1M9.074 6.018c0 .312 2.104.162 2.386-.057 0-2.127-1.141-3.244-3.23-3.244S4.968 3.852 4.968 5.554c0 2.965 4.001 3.022 4.001 4.64 0 .453-.222.723-.711.723-.637 0-.89-.326-.86-1.432 0-.24-2.43-.315-2.504 0-.189 2.682 1.482 3.455 3.394 3.455 1.852 0 3.305-.987 3.305-2.775 0-3.178-4.061-3.093-4.061-4.668 0-.638.474-.723.756-.723.296 0 .83.052.785 1.244"/></g></svg>