<svg xmlns="http://www.w3.org/2000/svg" viewBox="0 0 16 16"><path d="M14.342.754a.806.806 0 0 0-.853-.752l-.882.06.06 1.844c0 .07-.05.12-.12.12-.03 0-.06 0-.08-.03l-.591-.47-.702.53c-.05.04-.13.03-.17-.02a.08.08 0 0 1-.02-.08l.08-1.814-8.811.562a.81.81 0 0 0-.752.832l.491 13.211c.02.421.35.752.772.772L13.5 16h.04c.44 0 .802-.36.802-.802V.754M8.227 12.973c-1.915 0-3.589-.772-3.398-3.468.07-.311 2.506-.241 2.506 0-.03 1.112.22 1.433.862 1.433.491 0 .712-.27.712-.722 0-1.624-4.01-1.674-4.01-4.65 0-1.705 1.173-2.848 3.268-2.848s3.238 1.123 3.238 3.248c-.281.22-2.396.371-2.396.06.04-1.193-.491-1.243-.792-1.243-.3 0-.762.09-.762.722 0 1.574 4.07 1.494 4.07 4.681 0 1.794-1.454 2.787-3.308 2.787z"/></svg>