<svg width="32" height="32" viewBox="0 0 32 32" fill="none" xmlns="http://www.w3.org/2000/svg">
<path d="M21.2734 19.9766C21.7305 20.3984 21.7305 21.1367 21.2734 21.5586C21.0625 21.7695 20.7812 21.875 20.5 21.875C20.1836 21.875 19.9023 21.7695 19.6914 21.5586L16 17.8672L12.2734 21.5586C12.0625 21.7695 11.7812 21.875 11.5 21.875C11.1836 21.875 10.9023 21.7695 10.6914 21.5586C10.2344 21.1367 10.2344 20.3984 10.6914 19.9766L14.3828 16.25L10.6914 12.5586C10.2344 12.1367 10.2344 11.3984 10.6914 10.9766C11.1133 10.5195 11.8516 10.5195 12.2734 10.9766L16 14.668L19.6914 10.9766C20.1133 10.5195 20.8516 10.5195 21.2734 10.9766C21.7305 11.3984 21.7305 12.1367 21.2734 12.5586L17.582 16.2852L21.2734 19.9766Z" fill="#FEFEFE"/>
</svg>
