<svg xmlns="http://www.w3.org/2000/svg" xml:space="preserve" fill-rule="evenodd" stroke-linejoin="round" stroke-miterlimit="2" clip-rule="evenodd" viewBox="0 0 179 32">
  <path fill="var(--menu-font-color)" d="M48.703 6.901h2.531v14.783h-2.438v-1.478a3.968 3.968 0 0 1-1.322 1.23c-.527.299-1.179.45-1.954.45a4.402 4.402 0 0 1-1.975-.45 4.784 4.784 0 0 1-1.562-1.234 5.848 5.848 0 0 1-1.027-1.836 6.671 6.671 0 0 1-.371-2.252c0-.8.127-1.554.379-2.253a5.858 5.858 0 0 1 1.044-1.827 4.909 4.909 0 0 1 1.584-1.23 4.445 4.445 0 0 1 1.983-.45 4.055 4.055 0 0 1 1.869.442c.266.135.506.303.72.492.215.19.392.4.539.624V6.901Zm.114 9.213c0-.468-.067-.914-.198-1.335a3.468 3.468 0 0 0-.577-1.124 2.847 2.847 0 0 0-.918-.775 2.575 2.575 0 0 0-1.217-.286c-.45 0-.85.097-1.208.286a2.833 2.833 0 0 0-.914.775 3.458 3.458 0 0 0-.572 1.124 4.512 4.512 0 0 0-.198 1.335c0 .463.067.909.198 1.33.13.421.32.792.568 1.112.249.32.547.572.905.766.358.19.767.286 1.217.286.451 0 .88-.096 1.242-.286.362-.189.666-.446.914-.766a3.46 3.46 0 0 0 .564-1.112c.127-.421.194-.863.194-1.33Zm10.012-5.76c.793.001 1.493.152 2.102.459.61.307 1.124.711 1.545 1.221.417.509.732 1.094.947 1.76.215.665.32 1.355.32 2.071v.998h-7.692c.046.413.155.792.328 1.128.173.337.396.632.661.876.265.249.568.438.901.573.337.135.686.202 1.057.202.37 0 .682-.038.968-.118a3.53 3.53 0 0 0 .754-.303c.219-.122.413-.253.581-.4.168-.143.316-.282.451-.413l1.608 1.537c-.223.266-.48.51-.775.746a4.997 4.997 0 0 1-.998.614c-.37.177-.783.316-1.237.421a6.715 6.715 0 0 1-1.508.152 5.31 5.31 0 0 1-2.16-.43 4.873 4.873 0 0 1-1.671-1.191 5.338 5.338 0 0 1-1.078-1.823 6.86 6.86 0 0 1-.383-2.325c0-.53.063-1.044.193-1.536.127-.493.308-.952.539-1.377a5.75 5.75 0 0 1 .834-1.162c.324-.35.682-.653 1.069-.897a5.077 5.077 0 0 1 1.255-.577 4.624 4.624 0 0 1 1.381-.206h.008Zm-.029 2.198a2.39 2.39 0 0 0-.96.189c-.29.126-.556.299-.783.518-.232.219-.425.48-.585.779a3.93 3.93 0 0 0-.363.981h5.108a2.925 2.925 0 0 0-.236-.973 2.625 2.625 0 0 0-.518-.783 2.362 2.362 0 0 0-.745-.522 2.231 2.231 0 0 0-.918-.189Zm15.832 5.743c0 .53-.118 1.019-.354 1.461a3.36 3.36 0 0 1-.998 1.132c-.429.316-.935.56-1.524.737-.59.177-1.23.261-1.929.261a6.968 6.968 0 0 1-1.802-.21 7.412 7.412 0 0 1-1.385-.51 5.737 5.737 0 0 1-.99-.61 8.812 8.812 0 0 1-.614-.522l1.537-1.756a5.066 5.066 0 0 0 1.663 1.099c.282.114.564.198.838.252.273.055.539.08.787.08.282 0 .556-.029.813-.092.261-.063.488-.152.686-.261a1.5 1.5 0 0 0 .467-.396.82.82 0 0 0 .173-.501.693.693 0 0 0-.291-.577 2.799 2.799 0 0 0-.774-.391 9.084 9.084 0 0 0-1.095-.299c-.408-.089-.825-.19-1.255-.304a11.315 11.315 0 0 1-1.254-.404 4.478 4.478 0 0 1-1.095-.598 2.786 2.786 0 0 1-.775-.884c-.194-.349-.29-.77-.29-1.272 0-.501.117-.989.349-1.406.232-.417.552-.77.956-1.061.404-.29.88-.514 1.431-.669a6.5 6.5 0 0 1 1.781-.236c.434 0 .864.038 1.285.114.421.075.821.181 1.2.319a5.9 5.9 0 0 1 1.044.502c.32.198.594.416.825.661l-1.351 1.734a2.76 2.76 0 0 0-.577-.442 5.017 5.017 0 0 0-.754-.366 5.604 5.604 0 0 0-.846-.253 4.1 4.1 0 0 0-.859-.092c-.257 0-.501.029-.741.084a2.523 2.523 0 0 0-.623.232c-.182.096-.32.214-.43.349a.702.702 0 0 0-.164.45c0 .215.097.396.295.539.197.144.459.266.783.367.324.101.694.198 1.111.286.413.089.838.19 1.272.299.434.114.859.248 1.272.404.412.16.783.358 1.111.602.324.245.585.539.783.889.198.349.295.77.295 1.263l.013-.004Zm1.734-10.261a1.585 1.585 0 0 1 .442-1.116 1.53 1.53 0 0 1 1.116-.459c.223 0 .43.042.623.122.19.08.358.194.497.337.143.143.253.307.329.501.08.194.118.4.118.615a1.556 1.556 0 0 1-.447 1.12 1.46 1.46 0 0 1-.497.328c-.189.08-.4.118-.623.118a1.61 1.61 0 0 1-.623-.118 1.483 1.483 0 0 1-.817-.825 1.583 1.583 0 0 1-.118-.623Zm2.83 13.65H76.67V10.56h2.526v11.124Zm13.246-1.002c0 .855-.147 1.587-.442 2.198a4.17 4.17 0 0 1-1.204 1.507 4.972 4.972 0 0 1-1.777.872 8.173 8.173 0 0 1-2.16.282 8.622 8.622 0 0 1-2.354-.32 6.038 6.038 0 0 1-2.067-1.032l1.154-2.021c.151.131.341.261.568.396a5.724 5.724 0 0 0 1.672.619A5.17 5.17 0 0 0 88 23.145c.383-.088.72-.24 1.015-.454.295-.215.53-.497.711-.855.181-.358.266-.8.266-1.331v-.581a3.453 3.453 0 0 1-1.344 1.145 4.107 4.107 0 0 1-1.852.413 5.015 5.015 0 0 1-1.992-.408 5.003 5.003 0 0 1-1.633-1.141 5.408 5.408 0 0 1-1.099-1.739 5.899 5.899 0 0 1-.405-2.215 6.2 6.2 0 0 1 .4-2.244 5.51 5.51 0 0 1 1.104-1.786 5.02 5.02 0 0 1 1.663-1.178 5.036 5.036 0 0 1 2.071-.426c.636 0 1.23.131 1.773.383.543.253.989.64 1.335 1.154v-1.33h2.425v10.117l.004.013Zm-2.446-4.695c0-.467-.068-.905-.198-1.313a3.142 3.142 0 0 0-.577-1.066 2.77 2.77 0 0 0-.918-.715 2.77 2.77 0 0 0-1.217-.261c-.45 0-.863.088-1.229.261a2.749 2.749 0 0 0-.939.72 3.239 3.239 0 0 0-.598 1.069 4.012 4.012 0 0 0-.206 1.301c0 .459.067.901.206 1.297.139.396.337.741.594 1.036.257.294.568.522.93.69.367.169.779.253 1.238.253.459 0 .872-.093 1.234-.278.362-.185.665-.429.918-.733.252-.303.438-.652.568-1.044.126-.391.194-.796.194-1.217Zm7.895-3.958c.143-.223.32-.437.522-.64.202-.202.438-.383.707-.538a3.66 3.66 0 0 1 .897-.367 4.335 4.335 0 0 1 1.111-.135c.645 0 1.2.118 1.664.35.463.232.846.547 1.145.947.299.4.518.863.661 1.402.143.535.21 1.108.21 1.71v6.922h-2.543v-6.611c0-.244-.025-.513-.08-.808a2.636 2.636 0 0 0-.299-.834 1.958 1.958 0 0 0-.61-.656c-.261-.177-.598-.266-1.011-.266-.387 0-.728.08-1.019.236-.29.156-.534.366-.728.623a2.72 2.72 0 0 0-.438.884 3.6 3.6 0 0 0-.147 1.011v6.421h-2.527V10.56h2.417v1.469h.068Zm22.585 6.266c0 .53-.118 1.019-.354 1.461a3.35 3.35 0 0 1-.998 1.132c-.429.316-.935.56-1.524.737a6.664 6.664 0 0 1-1.928.261 6.976 6.976 0 0 1-1.803-.21 7.412 7.412 0 0 1-1.385-.51 5.687 5.687 0 0 1-.989-.61 8.636 8.636 0 0 1-.615-.522l1.537-1.756a5.073 5.073 0 0 0 1.663 1.099c.282.114.564.198.838.252.274.055.539.08.787.08.282 0 .556-.029.813-.092.261-.063.488-.152.686-.261.198-.114.354-.244.468-.396a.826.826 0 0 0 .172-.501.694.694 0 0 0-.29-.577 2.82 2.82 0 0 0-.775-.391 9.034 9.034 0 0 0-1.095-.299c-.408-.089-.825-.19-1.255-.304a11.315 11.315 0 0 1-1.254-.404 4.478 4.478 0 0 1-1.095-.598 2.786 2.786 0 0 1-.775-.884c-.193-.349-.29-.77-.29-1.272 0-.501.118-.989.349-1.406.232-.417.552-.77.956-1.061.404-.29.88-.514 1.432-.669a6.494 6.494 0 0 1 1.781-.236c.433 0 .863.038 1.284.114.421.075.821.181 1.2.319a5.9 5.9 0 0 1 1.044.502c.32.198.594.416.825.661l-1.351 1.734a2.76 2.76 0 0 0-.577-.442 4.97 4.97 0 0 0-.754-.366 5.57 5.57 0 0 0-.846-.253 4.1 4.1 0 0 0-.859-.092c-.257 0-.501.029-.741.084a2.523 2.523 0 0 0-.623.232c-.181.096-.32.214-.43.349a.702.702 0 0 0-.164.45c0 .215.097.396.295.539.198.144.459.266.783.367.324.101.695.198 1.112.286.412.089.837.19 1.271.299.434.114.859.248 1.272.404.412.16.783.358 1.111.602.324.245.586.539.783.889.198.349.295.77.295 1.263l.013-.004Zm1.415 4.989h.913c.337 0 .619-.017.847-.05.231-.034.429-.118.602-.253.172-.135.324-.341.463-.615.139-.273.282-.657.434-1.145l.096-.324-4.164-10.337h2.682l2.695 7.406 2.623-7.406h2.585l-4.261 11.225c-.278.729-.543 1.327-.804 1.786-.261.459-.547.821-.859 1.086a2.639 2.639 0 0 1-1.086.543c-.413.097-.91.147-1.495.147h-1.271v-2.063Zm20.126-4.989c0 .53-.118 1.019-.354 1.461a3.35 3.35 0 0 1-.998 1.132c-.429.316-.935.56-1.524.737a6.664 6.664 0 0 1-1.928.261 6.976 6.976 0 0 1-1.803-.21 7.412 7.412 0 0 1-1.385-.51 5.687 5.687 0 0 1-.989-.61 8.636 8.636 0 0 1-.615-.522l1.537-1.756a5.073 5.073 0 0 0 1.663 1.099c.282.114.564.198.838.252.274.055.539.08.787.08.282 0 .556-.029.813-.092.261-.063.488-.152.686-.261.198-.114.354-.244.468-.396a.826.826 0 0 0 .172-.501.694.694 0 0 0-.29-.577 2.88 2.88 0 0 0-.775-.391 8.835 8.835 0 0 0-1.095-.299c-.408-.089-.825-.19-1.255-.304a11.315 11.315 0 0 1-1.254-.404 4.478 4.478 0 0 1-1.095-.598 2.786 2.786 0 0 1-.775-.884c-.193-.349-.29-.77-.29-1.272 0-.501.118-.989.349-1.406.232-.417.552-.77.956-1.061.404-.29.88-.514 1.432-.669a6.494 6.494 0 0 1 1.781-.236c.433 0 .863.038 1.284.114.421.075.821.181 1.2.319a5.9 5.9 0 0 1 1.044.502c.32.198.594.416.825.661l-1.351 1.734a2.76 2.76 0 0 0-.577-.442 4.97 4.97 0 0 0-.754-.366 5.486 5.486 0 0 0-.85-.253 4.1 4.1 0 0 0-.859-.092c-.257 0-.506.029-.741.084a2.523 2.523 0 0 0-.623.232c-.182.096-.32.214-.43.349a.702.702 0 0 0-.164.45c0 .215.097.396.295.539.197.144.459.266.783.367.324.101.694.198 1.107.286.413.089.838.19 1.272.299.433.114.859.248 1.271.404a4.7 4.7 0 0 1 1.112.602c.324.245.585.539.783.889.198.349.295.77.295 1.263l.021-.004Zm4.766-7.735h2.329v2.013h-2.329v5.435c0 .337.034.607.105.817.068.211.173.375.312.497s.307.206.514.253c.206.046.442.067.711.067h.712v2.042h-1.293c-.606 0-1.132-.055-1.583-.168-.45-.114-.825-.299-1.12-.569-.295-.265-.518-.619-.661-1.061-.143-.442-.219-.993-.219-1.659v-5.663h-1.756v-2.012h1.756V7.857h2.526v2.695l-.004.008Zm8.754-.206c.793 0 1.496.152 2.105.459a4.717 4.717 0 0 1 1.545 1.221c.417.509.733 1.094.948 1.76.214.665.32 1.355.32 2.071v.998h-7.693c.046.413.156.792.328 1.128.173.337.396.632.662.876.265.249.568.438.901.573.336.135.686.202 1.056.202.371 0 .683-.038.969-.118a3.447 3.447 0 0 0 1.335-.703c.168-.143.315-.282.45-.413l1.609 1.537c-.224.266-.48.51-.775.746a4.913 4.913 0 0 1-.998.614 5.998 5.998 0 0 1-1.238.421 6.952 6.952 0 0 1-1.507.152c-.788 0-1.508-.143-2.16-.43a4.867 4.867 0 0 1-1.672-1.191 5.37 5.37 0 0 1-1.078-1.823 6.885 6.885 0 0 1-.383-2.325c0-.53.063-1.044.194-1.536.126-.493.307-.952.539-1.377.231-.425.509-.813.833-1.162.325-.35.682-.653 1.07-.897a5.094 5.094 0 0 1 1.25-.577 4.624 4.624 0 0 1 1.386-.206h.004Zm-.025 2.198c-.35 0-.67.063-.96.189a2.591 2.591 0 0 0-.784.518c-.227.219-.425.48-.585.779a3.89 3.89 0 0 0-.362.981h5.107a2.95 2.95 0 0 0-.235-.973 2.664 2.664 0 0 0-.518-.783 2.355 2.355 0 0 0-.746-.522 2.226 2.226 0 0 0-.917-.189Zm9.764-.523c.143-.244.32-.467.526-.669a3.19 3.19 0 0 1 .712-.526 3.82 3.82 0 0 1 1.857-.48c.728 0 1.355.16 1.877.471.523.316.931.775 1.23 1.381.434-.652.943-1.124 1.524-1.415.581-.29 1.272-.437 2.076-.437.514 0 .989.092 1.427.278.438.185.817.45 1.133.8.32.349.568.774.745 1.284.177.509.265 1.082.265 1.726v7.251h-2.526v-6.788c0-.219-.025-.463-.08-.741a2.551 2.551 0 0 0-.286-.779 1.842 1.842 0 0 0-.569-.614c-.24-.169-.547-.253-.922-.253-.374 0-.715.076-1.002.231a2.221 2.221 0 0 0-.716.603 2.681 2.681 0 0 0-.429.821 2.881 2.881 0 0 0-.143.892v6.628h-2.543v-6.788c0-.223-.026-.471-.076-.749a2.479 2.479 0 0 0-.282-.779 1.843 1.843 0 0 0-.569-.611c-.24-.164-.551-.248-.93-.248s-.724.084-1.011.253a2.337 2.337 0 0 0-.711.635 2.72 2.72 0 0 0-.421.847 3.073 3.073 0 0 0-.139.888v6.552h-2.527V10.56h2.417v1.469h.093Z"/>
  <path fill="var(--heading-background)" fill-rule="nonzero" d="M24.686 0H7.314A7.313 7.313 0 0 0 0 7.314v17.372A7.313 7.313 0 0 0 7.314 32h17.372A7.313 7.313 0 0 0 32 24.686V7.314A7.313 7.313 0 0 0 24.686 0Z"/>
  <path fill="var(--heading-color)" fill-rule="nonzero" d="M16.282 23.297c-2.244 0-5.052-.703-7.297-2.665l1.546-2.106s2.244 2.245 5.612 2.245c3.087 0 3.929-1.125 3.929-1.824 0-1.402-2.106-1.545-4.35-1.823-2.808-.421-6.594-.842-6.594-4.21 0-2.527 3.087-4.211 6.455-4.211 2.665 0 4.771.703 6.594 2.244l-1.545 2.106c-1.402-1.263-3.087-1.823-4.914-1.823-2.526 0-3.651 1.124-3.651 1.684 0 1.263 2.106 1.402 4.632 1.684 3.368.421 6.316 1.124 6.316 4.21-.139 2.527-2.809 4.493-6.737 4.493l.004-.004Z"/>
</svg>
