<svg width="24" height="25" viewBox="0 0 24 25" fill="none" xmlns="http://www.w3.org/2000/svg">
<path d="M8.83391 5.54214C8.33538 5.54172 7.84816 5.3935 7.43386 5.11622C7.01955 4.83895 6.69675 4.44506 6.50627 3.98436C6.31578 3.52366 6.26616 3.01682 6.36368 2.52792C6.4612 2.03902 6.70148 1.59001 7.05414 1.23765C7.4068 0.885285 7.85602 0.645389 8.345 0.548286C8.83398 0.451184 9.34077 0.501234 9.80132 0.692111C10.2619 0.882988 10.6555 1.20612 10.9324 1.62066C11.2093 2.0352 11.3571 2.52254 11.3571 3.02107V5.54214H8.83391Z" fill="black"/>
<path d="M4.61622 17.0661C4.8935 16.6518 5.04172 16.1646 5.04214 15.6661V13.1428H2.52107C2.02254 13.1428 1.5352 13.2906 1.12066 13.5676C0.706121 13.8445 0.382988 14.2381 0.192111 14.6986C0.00123437 15.1592 -0.0488163 15.666 0.0482863 16.155C0.145389 16.6439 0.385285 17.0932 0.737648 17.4458C1.09001 17.7985 1.53902 18.0388 2.02792 18.1363C2.51682 18.2338 3.02366 18.1842 3.48436 17.9937C3.94506 17.8032 4.33895 17.4804 4.61622 17.0661Z" fill="black"/>
<path d="M7.05126 13.8834C6.57846 14.3562 6.31285 14.9974 6.31285 15.6661V21.9789C6.31285 22.6476 6.57846 23.2888 7.05126 23.7616C7.52405 24.2344 8.16529 24.5 8.83392 24.5C9.50255 24.5 10.1438 24.2344 10.6166 23.7616C11.0894 23.2888 11.355 22.6476 11.355 21.9789V15.6661C11.355 14.9974 11.0894 14.3562 10.6166 13.8834C10.1438 13.4106 9.50255 13.145 8.83392 13.145C8.16529 13.145 7.52405 13.4106 7.05126 13.8834Z" fill="black"/>
<path d="M10.6166 7.55126C10.1438 7.07846 9.50256 6.81285 8.83393 6.81285H2.52107C1.85244 6.81285 1.2112 7.07846 0.738405 7.55126C0.265612 8.02405 7.95012e-10 8.66529 7.95012e-10 9.33392C7.95012e-10 10.0026 0.265612 10.6438 0.738405 11.1166C1.2112 11.5894 1.85244 11.855 2.52107 11.855H8.83393C9.50256 11.855 10.1438 11.5894 10.6166 11.1166C11.0894 10.6438 11.355 10.0026 11.355 9.33392C11.355 8.66529 11.0894 8.02405 10.6166 7.55126Z" fill="black"/>
<path d="M18.9578 9.33391C18.9582 8.83538 19.1065 8.34816 19.3837 7.93386C19.661 7.51955 20.0549 7.19675 20.5156 7.00627C20.9763 6.81578 21.4831 6.76616 21.972 6.86368C22.4609 6.9612 22.9099 7.20148 23.2623 7.55414C23.6147 7.9068 23.8546 8.35602 23.9517 8.845C24.0488 9.33398 23.9987 9.84077 23.8078 10.3013C23.617 10.7619 23.2938 11.1555 22.8793 11.4324C22.4648 11.7093 21.9774 11.8571 21.4789 11.8571H18.9578V9.33391Z" fill="black"/>
<path d="M16.9487 11.1166C17.4215 10.6438 17.6871 10.0026 17.6871 9.33393V3.02107C17.6871 2.35244 17.4215 1.7112 16.9487 1.2384C16.4759 0.765612 15.8347 0.5 15.1661 0.5C14.4974 0.5 13.8562 0.765612 13.3834 1.2384C12.9106 1.7112 12.645 2.35244 12.645 3.02107V9.33393C12.645 10.0026 12.9106 10.6438 13.3834 11.1166C13.8562 11.5894 14.4974 11.855 15.1661 11.855C15.8347 11.855 16.4759 11.5894 16.9487 11.1166Z" fill="black"/>
<path d="M15.1661 19.4578C15.6646 19.4582 16.1518 19.6065 16.5661 19.8837C16.9804 20.161 17.3032 20.5549 17.4937 21.0156C17.6842 21.4763 17.7338 21.9831 17.6363 22.472C17.5388 22.9609 17.2985 23.4099 16.9458 23.7623C16.5932 24.1147 16.1439 24.3546 15.655 24.4517C15.166 24.5488 14.6592 24.4987 14.1986 24.3078C13.7381 24.117 13.3445 23.7938 13.0676 23.3793C12.7906 22.9648 12.6428 22.4774 12.6428 21.9789V19.4578H15.1661Z" fill="black"/>
<path d="M13.3834 17.4487C13.8562 17.9215 14.4974 18.1871 15.1661 18.1871H21.4789C22.1476 18.1871 22.7888 17.9215 23.2616 17.4487C23.7344 16.9759 24 16.3347 24 15.6661C24 14.9974 23.7344 14.3562 23.2616 13.8834C22.7888 13.4106 22.1476 13.145 21.4789 13.145H15.1661C14.4974 13.145 13.8562 13.4106 13.3834 13.8834C12.9106 14.3562 12.645 14.9974 12.645 15.6661C12.645 16.3347 12.9106 16.9759 13.3834 17.4487Z" fill="black"/>
</svg>
