<svg xmlns="http://www.w3.org/2000/svg" fill="none" viewBox="0 0 320 220" aria-labelledby="nuExclusiveTitle nuExclusiveDesc" role="img">
  <title id="nuExclusiveTitle">When not to use - exclusive choices visual</title>
  <desc id="nuExclusiveDesc">Example of when not to use a checkbox group for a single choice option in a form.</desc>
<g clip-path="url(#clip0_2273_106086)">
  <path fill="var(--control-color-surface-200-surface, #EAEAEA)" d="M0 0h320v224H0z"/>
  <rect width="248" height="215" x="36" y="-7" fill="var(--control-color-surface-base-surface, #FFF)" rx="1.3333"/>
  <path fill="var(--control-color-text-base-text, #222)" d="M58.944 25.128c-.4551 0-.9102-.0853-1.3653-.256a3.7242 3.7242 0 0 1-1.2054-.7467l.896-1.0773c.2489.2133.5263.3876.832.5227.3058.1351.6009.2026.8854.2026.3271 0 .5689-.0604.7253-.1813.1636-.1209.2453-.2844.2453-.4907 0-.2204-.0924-.3804-.2773-.48-.1778-.1066-.4196-.224-.7253-.352l-.9067-.384c-.2347-.0995-.4587-.2311-.672-.3946-.2133-.1707-.3876-.3805-.5227-.6294-.1351-.2489-.2026-.5404-.2026-.8746 0-.384.1031-.7325.3093-1.0454.2133-.3129.5049-.5617.8747-.7466.3769-.1849.8071-.2774 1.2906-.2774.3983 0 .7965.0783 1.1947.2347.3982.1564.7467.384 1.0453.6827l-.8.992c-.2275-.1778-.4551-.3129-.6826-.4054-.2276-.0995-.48-.1493-.7574-.1493-.2702 0-.4871.0569-.6506.1707-.1565.1066-.2347.2595-.2347.4586 0 .2134.0996.3734.2987.48.2062.1067.4586.2205.7573.3414l.896.3626c.4196.1707.7538.4054 1.0027.704.2489.2987.3733.6934.3733 1.184 0 .384-.1031.7396-.3093 1.0667-.2063.3271-.5049.5902-.896.7893-.3911.1991-.864.2987-1.4187.2987Zm6.0444 0c-.5049 0-.96-.1102-1.3653-.3307-.4053-.2204-.7253-.5369-.96-.9493-.2347-.4124-.352-.9102-.352-1.4933 0-.576.1173-1.0703.352-1.4827.2418-.4124.5547-.7289.9387-.9493.384-.2276.7857-.3414 1.2053-.3414.5049 0 .9209.1138 1.248.3414.3342.2204.5831.5226.7467.9066.1706.3769.256.8071.256 1.2907 0 .1351-.0072.2702-.0214.4053-.0142.128-.0284.224-.0426.288h-3.168c.0711.384.2311.6685.48.8534.2488.1777.5475.2666.896.2666.3768 0 .7573-.1173 1.1413-.352l.5227.9494c-.2703.1849-.5725.3306-.9067.4373-.3342.1067-.6578.16-.9707.16Zm-1.1733-3.3493h1.9093c0-.2916-.0711-.5298-.2133-.7147-.1351-.192-.3591-.288-.672-.288-.2418 0-.4587.0853-.6507.256-.192.1636-.3164.4124-.3733.7467Zm5.7662 3.3493c-.5405 0-.9174-.16-1.1307-.48-.2062-.3271-.3093-.7573-.3093-1.2907v-5.8346h1.568v5.8986c0 .1636.0284.2774.0853.3414.064.064.128.096.192.096h.0853a1.4012 1.4012 0 0 1 .1067-.0214L70.3706 25c-.0853.0356-.1956.064-.3307.0853-.128.0285-.2809.0427-.4586.0427Zm3.98 0c-.5049 0-.96-.1102-1.3653-.3307-.4053-.2204-.7253-.5369-.96-.9493-.2347-.4124-.352-.9102-.352-1.4933 0-.576.1173-1.0703.352-1.4827.2418-.4124.5547-.7289.9387-.9493.384-.2276.7857-.3414 1.2053-.3414.5049 0 .9209.1138 1.248.3414.3342.2204.5831.5226.7467.9066.1706.3769.256.8071.256 1.2907 0 .1351-.0071.2702-.0214.4053-.0142.128-.0284.224-.0426.288h-3.168c.0711.384.2311.6685.48.8534.2489.1777.5475.2666.896.2666.3769 0 .7573-.1173 1.1413-.352l.5227.9494c-.2703.1849-.5725.3306-.9067.4373-.3342.1067-.6578.16-.9707.16Zm-1.1733-3.3493h1.9093c0-.2916-.0711-.5298-.2133-.7147-.1351-.192-.3591-.288-.672-.288-.2418 0-.4587.0853-.6507.256-.192.1636-.3164.4124-.3733.7467Zm6.6302 3.3493c-.4907 0-.9351-.1067-1.3334-.32-.3911-.2204-.704-.5369-.9386-.9493-.2276-.4196-.3414-.9209-.3414-1.504 0-.5903.128-1.0916.384-1.504.256-.4125.5938-.7254 1.0134-.9387.4195-.2204.8711-.3307 1.3546-.3307.3271 0 .6151.0534.864.16.256.1067.4836.2418.6827.4054l-.736 1.0133c-.2489-.2062-.4871-.3093-.7147-.3093-.3769 0-.6791.1351-.9066.4053-.2205.2702-.3307.6364-.3307 1.0987 0 .4551.1102.8213.3307 1.0986.2275.2703.512.4054.8533.4054.1707 0 .3378-.0356.5013-.1067a2.3706 2.3706 0 0 0 .448-.2773l.6187 1.024c-.2631.2275-.5476.3911-.8533.4906-.3058.0925-.6045.1387-.896.1387Zm4.6083 0c-.6542 0-1.1236-.1884-1.408-.5653-.2773-.3769-.416-.8711-.416-1.4827v-2.144h-.7253v-1.1627l.8106-.064.1814-1.408h1.3013v1.408h1.2693v1.2267h-1.2693v2.1227c0 .2986.0604.5155.1813.6506.128.128.2951.192.5014.192.0853 0 .1706-.0106.256-.032a1.6844 1.6844 0 0 0 .2453-.0746l.2453 1.1413c-.1351.0427-.3022.0853-.5013.128-.192.0427-.416.064-.672.064Zm4.7681 1.9413c-.1565 0-.2951-.0106-.416-.032a4.5141 4.5141 0 0 1-.3307-.0746l.2774-1.1947c.0497.0071.1066.0178.1706.032.064.0213.1245.032.1814.032.2631 0 .4657-.064.608-.192.1422-.128.2488-.2951.32-.5013l.0746-.2774-2.0373-5.152h1.5787l.7573 2.272c.0782.2418.1493.4871.2133.736s.1316.5049.2027.768h.0427l.1706-.7466c.064-.256.128-.5085.192-.7574l.64-2.272h1.504l-1.8346 5.344c-.1636.4409-.3449.8107-.544 1.1094-.1992.3057-.4409.5333-.7254.6826-.2773.1494-.6258.224-1.0453.224Zm7.1645-1.9413c-.448 0-.8711-.1067-1.2693-.32-.3912-.2204-.7076-.5369-.9494-.9493-.2418-.4196-.3626-.9209-.3626-1.504 0-.5903.1208-1.0916.3626-1.504.2418-.4125.5582-.7254.9494-.9387.3982-.2204.8213-.3307 1.2693-.3307.448 0 .8675.1103 1.2587.3307.3911.2133.7075.5262.9493.9387.2418.4124.3627.9137.3627 1.504 0 .5831-.1209 1.0844-.3627 1.504-.2418.4124-.5582.7289-.9493.9493-.3912.2133-.8107.32-1.2587.32Zm0-1.2693c.32 0 .5618-.1351.7253-.4054.1636-.2773.2454-.6435.2454-1.0986 0-.4623-.0818-.8285-.2454-1.0987-.1635-.2702-.4053-.4053-.7253-.4053-.3271 0-.5725.1351-.736.4053-.1565.2702-.2347.6364-.2347 1.0987 0 .4551.0782.8213.2347 1.0986.1635.2703.4089.4054.736.4054Zm5.2339 1.2693c-.576 0-.9955-.1884-1.2586-.5653-.256-.384-.384-.9067-.384-1.568v-3.2854h1.5676v3.0827c0 .3769.054.64.16.7893.107.1423.274.2134.502.2134.199 0 .366-.0463.501-.1387.135-.0924.281-.2418.437-.448v-3.4987h1.568V25h-1.28l-.117-.736h-.032c-.22.2631-.462.4729-.725.6293-.263.1565-.576.2347-.939.2347Zm4.473-.128v-5.2907h1.28l.107.928h.043c.192-.3555.423-.6186.693-.7893.27-.1778.54-.2667.811-.2667.149 0 .273.0107.373.032.099.0143.185.0391.256.0747l-.256 1.3547a1.9678 1.9678 0 0 0-.277-.064c-.086-.0143-.185-.0214-.299-.0214-.199 0-.409.0747-.629.224-.214.1423-.392.3911-.534.7467V25h-1.568Zm7.719.128c-.484 0-.868-.1529-1.152-.4587-.284-.3129-.427-.6933-.427-1.1413 0-.5547.235-.9884.704-1.3013.47-.3129 1.227-.5227 2.272-.6294-.014-.2346-.085-.4195-.213-.5546-.121-.1423-.327-.2134-.619-.2134-.22 0-.444.0427-.672.128-.227.0854-.469.2027-.725.352l-.565-1.0346a5.2052 5.2052 0 0 1 1.066-.5014 3.757 3.757 0 0 1 1.195-.192c.676 0 1.195.1956 1.557.5867.363.3911.544.992.544 1.8027V25h-1.28l-.106-.544h-.043c-.22.1991-.459.3627-.715.4907-.249.1209-.522.1813-.821.1813Zm.533-1.216c.178 0 .331-.0391.459-.1173.135-.0854.27-.1956.405-.3307v-.928c-.554.0711-.938.1849-1.152.3413-.213.1494-.32.3271-.32.5334 0 .1706.054.2986.16.384.114.0782.263.1173.448.1173Zm5.647 3.3387c-.413 0-.786-.0463-1.12-.1387-.335-.0924-.601-.2382-.8-.4373-.199-.1991-.299-.4551-.299-.768 0-.4267.252-.7823.757-1.0667v-.0427c-.135-.0924-.252-.2097-.352-.352-.092-.1422-.138-.3235-.138-.544 0-.192.057-.3769.17-.5546.114-.1778.256-.3236.427-.4374v-.0426c-.185-.128-.352-.3129-.501-.5547-.143-.2418-.214-.5156-.214-.8213 0-.4267.103-.7787.31-1.056.206-.2845.476-.4978.81-.64.335-.1423.69-.2134 1.067-.2134.313 0 .587.0427.821.128h1.931v1.1414h-.843c.05.0782.089.1777.118.2986.035.1209.053.2525.053.3947 0 .4053-.092.7396-.277 1.0027-.185.2631-.434.4586-.747.5866s-.665.192-1.056.192c-.206 0-.42-.0355-.64-.1066-.128.1066-.192.2382-.192.3946 0 .1351.06.2347.181.2987.121.064.327.096.619.096h.853c.655 0 1.152.1067 1.494.32.348.2062.522.5476.522 1.024 0 .3627-.121.6862-.362.9707-.242.2915-.583.5191-1.024.6826-.441.1636-.964.2454-1.568.2454Zm.117-4.8747c.206 0 .377-.0747.512-.224.142-.1493.213-.3698.213-.6613 0-.2774-.071-.4871-.213-.6294-.135-.1493-.306-.224-.512-.224-.206 0-.38.0711-.523.2134-.135.1422-.202.3555-.202.64 0 .2915.067.512.202.6613.143.1493.317.224.523.224Zm.128 3.8933c.356 0 .647-.064.875-.192.227-.128.341-.2809.341-.4586 0-.1636-.071-.2738-.213-.3307-.135-.0569-.335-.0853-.598-.0853h-.544c-.177 0-.327-.0071-.448-.0214-.113-.0071-.213-.0213-.298-.0426-.192.1706-.288.3449-.288.5226 0 .1991.106.3485.32.448.22.1067.505.16.853.16Zm5.745-1.1413c-.505 0-.96-.1102-1.365-.3307-.406-.2204-.726-.5369-.96-.9493-.235-.4124-.352-.9102-.352-1.4933 0-.576.117-1.0703.352-1.4827.242-.4124.554-.7289.938-.9493.384-.2276.786-.3414 1.206-.3414.505 0 .921.1138 1.248.3414.334.2204.583.5226.746.9066.171.3769.256.8071.256 1.2907 0 .1351-.007.2702-.021.4053-.014.128-.028.224-.043.288h-3.168c.072.384.232.6685.48.8534.249.1777.548.2666.896.2666.377 0 .758-.1173 1.142-.352l.522.9494c-.27.1849-.572.3306-.906.4373-.334.1067-.658.16-.971.16Zm-1.173-3.3493h1.909c0-.2916-.071-.5298-.213-.7147-.135-.192-.359-.288-.672-.288-.242 0-.459.0853-.651.256-.192.1636-.316.4124-.373.7467ZM130.443 25v-5.2907h1.28l.107.928h.043c.192-.3555.423-.6186.693-.7893.27-.1778.54-.2667.811-.2667.149 0 .273.0107.373.032.1.0143.185.0391.256.0747l-.256 1.3547a1.9361 1.9361 0 0 0-.277-.064c-.086-.0143-.185-.0214-.299-.0214-.199 0-.409.0747-.629.224-.214.1423-.391.3911-.534.7467V25h-1.568Zm5.282.128c-.484 0-.868-.1529-1.152-.4587-.285-.3129-.427-.6933-.427-1.1413 0-.5547.235-.9884.704-1.3013.469-.3129 1.227-.5227 2.272-.6294-.014-.2346-.085-.4195-.213-.5546-.121-.1423-.328-.2134-.619-.2134-.221 0-.445.0427-.672.128-.228.0854-.469.2027-.725.352l-.566-1.0346c.334-.2063.69-.3734 1.067-.5014.384-.128.782-.192 1.195-.192.675 0 1.194.1956 1.557.5867s.544.992.544 1.8027V25h-1.28l-.107-.544h-.042c-.221.1991-.459.3627-.715.4907-.249.1209-.523.1813-.821.1813Zm.533-1.216c.178 0 .331-.0391.459-.1173.135-.0854.27-.1956.405-.3307v-.928c-.555.0711-.939.1849-1.152.3413-.213.1494-.32.3271-.32.5334 0 .1706.053.2986.16.384.114.0782.263.1173.448.1173ZM140.016 25v-5.2907h1.28l.107.672h.043a4.052 4.052 0 0 1 .746-.5546c.278-.1636.594-.2454.95-.2454.576 0 .992.192 1.248.576.263.3769.394.896.394 1.5574V25h-1.568v-3.0827c0-.384-.053-.6471-.16-.7893-.099-.1422-.263-.2133-.49-.2133-.2 0-.37.0462-.512.1386-.143.0854-.299.2098-.47.3734V25h-1.568Zm7.992 2.2507c-.412 0-.785-.0463-1.12-.1387-.334-.0924-.6-.2382-.8-.4373-.199-.1991-.298-.4551-.298-.768 0-.4267.252-.7823.757-1.0667v-.0427c-.135-.0924-.252-.2097-.352-.352-.092-.1422-.139-.3235-.139-.544 0-.192.057-.3769.171-.5546.114-.1778.256-.3236.427-.4374v-.0426c-.185-.128-.352-.3129-.502-.5547-.142-.2418-.213-.5156-.213-.8213 0-.4267.103-.7787.309-1.056.207-.2845.477-.4978.811-.64.334-.1423.69-.2134 1.067-.2134.313 0 .586.0427.821.128h1.931v1.1414h-.843c.05.0782.089.1777.117.2986.036.1209.054.2525.054.3947 0 .4053-.093.7396-.278 1.0027-.184.2631-.433.4586-.746.5866s-.665.192-1.056.192c-.206 0-.42-.0355-.64-.1066-.128.1066-.192.2382-.192.3946 0 .1351.06.2347.181.2987.121.064.327.096.619.096h.853c.654 0 1.152.1067 1.493.32.349.2062.523.5476.523 1.024 0 .3627-.121.6862-.363.9707-.241.2915-.583.5191-1.024.6826-.44.1636-.963.2454-1.568.2454Zm.118-4.8747c.206 0 .377-.0747.512-.224.142-.1493.213-.3698.213-.6613 0-.2774-.071-.4871-.213-.6294-.135-.1493-.306-.224-.512-.224-.206 0-.381.0711-.523.2134-.135.1422-.203.3555-.203.64 0 .2915.068.512.203.6613.142.1493.317.224.523.224Zm.128 3.8933c.355 0 .647-.064.874-.192.228-.128.342-.2809.342-.4586 0-.1636-.071-.2738-.214-.3307-.135-.0569-.334-.0853-.597-.0853h-.544c-.178 0-.327-.0071-.448-.0214-.114-.0071-.213-.0213-.299-.0426-.192.1706-.288.3449-.288.5226 0 .1991.107.3485.32.448.221.1067.505.16.854.16Zm5.745-1.1413c-.505 0-.96-.1102-1.365-.3307-.406-.2204-.726-.5369-.96-.9493-.235-.4124-.352-.9102-.352-1.4933 0-.576.117-1.0703.352-1.4827.241-.4124.554-.7289.938-.9493.384-.2276.786-.3414 1.206-.3414.504 0 .92.1138 1.248.3414.334.2204.583.5226.746.9066.171.3769.256.8071.256 1.2907 0 .1351-.007.2702-.021.4053-.014.128-.029.224-.043.288h-3.168c.071.384.231.6685.48.8534.249.1777.548.2666.896.2666.377 0 .758-.1173 1.142-.352l.522.9494c-.27.1849-.572.3306-.906.4373-.335.1067-.658.16-.971.16Zm-1.173-3.3493h1.909c0-.2916-.071-.5298-.213-.7147-.136-.192-.36-.288-.672-.288-.242 0-.459.0853-.651.256-.192.1636-.317.4124-.373.7467Z"/>
  <rect width="15.3333" height="15.3333" x="56.3333" y="40.0001" stroke="var(--control-color-border-400-border, #898989)" stroke-width=".6667" rx="2.3333"/>
  <path fill="var(--control-color-text-base-text, #222)" d="M79.5359 50.7787c-.4729 0-.868-.084-1.1853-.252-.3173-.1742-.5756-.3702-.7747-.588l.392-.504c.1805.1867.392.3516.6347.4947.2427.1431.5382.2147.8867.2147.3608 0 .6564-.0996.8866-.2987.2302-.1991.3454-.4635.3454-.7933 0-.2365-.0623-.4418-.1867-.616-.1182-.1805-.3173-.3205-.5973-.42-.2738-.0996-.6472-.1494-1.12-.1494v-.588c.4231 0 .756-.0497.9986-.1493.2489-.0995.4262-.2333.532-.4013.1058-.168.1587-.3547.1587-.56 0-.2925-.0933-.5227-.28-.6907-.1805-.168-.4293-.252-.7467-.252-.2489 0-.4791.056-.6906.168-.2054.112-.3983.2582-.5787.4387l-.4107-.4854a3.0737 3.0737 0 0 1 .7654-.532c.28-.1431.5942-.2146.9426-.2146.5165 0 .9427.1338 1.2787.4013.336.2613.504.6316.504 1.1107 0 .3609-.0996.6564-.2987.8866-.1991.2303-.4604.4076-.784.532v.0374c.3609.0809.6658.252.9147.5133.2489.2551.3733.588.3733.9987 0 .3484-.0871.6502-.2613.9053-.1742.2551-.4107.4511-.7093.588-.2925.1369-.6223.2053-.9894.2053Zm6.4985 0c-.4853 0-.8244-.14-1.0173-.42-.1867-.28-.28-.644-.28-1.092v-2.5106h-.672v-.5787l.7093-.0467.0933-1.2693h.644v1.2693h1.2227v.6254h-1.2227v2.52c0 .28.0498.4978.1494.6533.1057.1493.2893.224.5506.224.0809 0 .168-.0124.2614-.0373l.252-.084.1493.5786a3.2403 3.2403 0 0 1-.4107.112 1.6915 1.6915 0 0 1-.4293.056Zm3.362 0c-.3671 0-.7124-.0933-1.036-.28-.3173-.1866-.5755-.4573-.7746-.812-.1929-.3546-.2894-.7808-.2894-1.2786 0-.5102.0965-.9427.2894-1.2974.1991-.3546.4573-.6253.7746-.812.3236-.1866.6689-.28 1.036-.28.3734 0 .7187.0934 1.036.28.3174.1867.5725.4574.7654.812.1991.3547.2986.7872.2986 1.2974 0 .4978-.0995.924-.2986 1.2786-.1929.3547-.448.6254-.7654.812-.3173.1867-.6626.28-1.036.28Zm0-.6346c.392 0 .7063-.1587.9427-.476.2427-.3236.364-.7436.364-1.26 0-.5227-.1213-.9458-.364-1.2694-.2364-.3235-.5507-.4853-.9427-.4853-.3857 0-.7.1618-.9426.4853-.2427.3236-.364.7467-.364 1.2694 0 .5164.1213.9364.364 1.26.2426.3173.5569.476.9426.476Zm6.5818.6346c-.4729 0-.8649-.084-1.176-.252-.3111-.168-.5693-.3546-.7747-.56l.3734-.504c.1804.1743.3888.3329.6253.476.2364.1369.5289.2054.8773.2054.3671 0 .6751-.1214.924-.364.2551-.2489.3827-.5818.3827-.9987 0-.4107-.1151-.7311-.3453-.9613-.2303-.2302-.5383-.3454-.924-.3454-.2054 0-.3827.0312-.532.0934-.1432.0622-.3049.1524-.4854.2706l-.4106-.2613.196-2.8653h2.9773v.6626h-2.3053l-.1587 1.764a2.5142 2.5142 0 0 1 .4293-.1773c.1431-.0435.3049-.0653.4854-.0653.3422 0 .6502.0684.924.2053.28.1307.504.3329.672.6067.168.2738.252.6253.252 1.0546 0 .4294-.0965.7965-.2894 1.1014-.1866.2986-.4324.5258-.7373.6813-.3049.1556-.6316.2333-.98.2333Zm5.1638 1.8387c-.1 0-.196-.0093-.289-.028a2.3184 2.3184 0 0 1-.243-.0653l.149-.6067c.05.0125.106.0249.168.0373.063.0187.122.028.178.028.255 0 .466-.0933.634-.28.168-.1804.299-.4106.392-.6906l.103-.336-1.82-4.5454h.793l.924 2.5107c.069.1929.14.4013.215.6253.081.224.156.4418.224.6534h.037c.069-.2054.134-.42.196-.644.063-.224.125-.4356.187-.6347l.812-2.5107h.747l-1.708 4.9094c-.106.2986-.234.5662-.383.8026-.143.2365-.324.4232-.541.56-.212.1432-.47.2147-.775.2147Zm3.483-.4573 2.492-8.12h.56l-2.492 8.12h-.56Zm5.407-1.3814c-.367 0-.713-.0933-1.036-.28-.317-.1866-.576-.4573-.775-.812-.193-.3546-.289-.7808-.289-1.2786 0-.5102.096-.9427.289-1.2974.199-.3546.458-.6253.775-.812.323-.1866.669-.28 1.036-.28.373 0 .719.0934 1.036.28.317.1867.572.4574.765.812.199.3547.299.7872.299 1.2974 0 .4978-.1.924-.299 1.2786-.193.3547-.448.6254-.765.812-.317.1867-.663.28-1.036.28Zm0-.6346c.392 0 .706-.1587.943-.476.242-.3236.364-.7436.364-1.26 0-.5227-.122-.9458-.364-1.2694-.237-.3235-.551-.4853-.943-.4853-.386 0-.7.1618-.943.4853-.242.3236-.364.7467-.364 1.2694 0 .5164.122.9364.364 1.26.243.3173.557.476.943.476Z"/>
  <rect width="15" height="15" x="56.5" y="64.1667" stroke="var(--control-color-border-400-border, #898989)" rx="3.5"/>
  <path fill="var(--control-color-text-base-text, #222)" d="M79.7693 71.6054c-.1929 0-.4014.0622-.6254.1867-.224.1244-.4293.3235-.616.5973.0498.5787.1836 1.0205.4014 1.3253.224.3049.5257.4574.9053.4574.2924 0 .5382-.1182.7373-.3547.1991-.2427.2987-.56.2987-.952 0-.3858-.0933-.6907-.28-.9147-.1805-.2302-.4542-.3453-.8213-.3453Zm.0653 3.1733c-.3858 0-.7342-.1057-1.0453-.3173-.3112-.2115-.5569-.5289-.7374-.952-.1804-.4293-.2706-.9613-.2706-1.596 0-.7964.1057-1.4373.3173-1.9227.2178-.4853.4978-.8368.84-1.0546.3484-.224.7187-.336 1.1107-.336.3235 0 .6004.0622.8306.1866.2365.1183.4387.2676.6067.448l-.4293.476c-.1183-.1431-.2645-.2551-.4387-.336-.1742-.0871-.3547-.1306-.5413-.1306-.28 0-.5352.0809-.7654.2426-.2302.1556-.42.42-.5693.7934-.1431.3671-.2209.8649-.2333 1.4933.1866-.2302.4044-.4107.6533-.5413.2489-.1369.4947-.2054.7373-.2054.5165 0 .9271.1556 1.232.4667.3111.3049.4667.7622.4667 1.372 0 .3796-.0809.7125-.2427.9987s-.3764.5102-.644.672c-.2613.1618-.5538.2426-.8773.2426Zm6.1998 0c-.4853 0-.8244-.14-1.0173-.42-.1867-.28-.28-.644-.28-1.092v-2.5106h-.672v-.5787l.7093-.0467.0933-1.2693h.644v1.2693h1.2227v.6254h-1.2227v2.52c0 .28.0498.4978.1494.6533.1057.1493.2893.224.5506.224.0809 0 .168-.0124.2614-.0373l.252-.084.1493.5786a3.2403 3.2403 0 0 1-.4107.112 1.6915 1.6915 0 0 1-.4293.056Zm3.362 0c-.3671 0-.7124-.0933-1.036-.28-.3173-.1866-.5755-.4573-.7746-.812-.1929-.3546-.2894-.7808-.2894-1.2786 0-.5102.0965-.9427.2894-1.2974.1991-.3546.4573-.6253.7746-.812.3236-.1866.6689-.28 1.036-.28.3734 0 .7187.0934 1.036.28.3174.1867.5725.4574.7654.812.1991.3547.2986.7872.2986 1.2974 0 .4978-.0995.924-.2986 1.2786-.1929.3547-.448.6254-.7654.812-.3173.1867-.6626.28-1.036.28Zm0-.6346c.392 0 .7063-.1587.9427-.476.2427-.3236.364-.7436.364-1.26 0-.5227-.1213-.9458-.364-1.2694-.2364-.3235-.5507-.4853-.9427-.4853-.3857 0-.7.1618-.9426.4853-.2427.3236-.364.7467-.364 1.2694 0 .5164.1213.9364.364 1.26.2426.3173.5569.476.9426.476Zm5.1351.5226v-.6346h1.3627v-4.3867h-1.0827v-.4947c.2738-.0497.5102-.1088.7094-.1773.2053-.0747.3888-.1618.5506-.2613h.588v5.32h1.232v.6346h-3.36Zm4.6393 0v-.6346h1.3632v-4.3867h-1.0832v-.4947c.2738-.0497.5103-.1088.7092-.1773.206-.0747.389-.1618.551-.2613h.588v5.32h1.232v.6346h-3.3602Zm6.6102 1.9507c-.099 0-.196-.0093-.289-.028a2.3184 2.3184 0 0 1-.243-.0653l.15-.6067c.049.0125.105.0249.168.0373a.613.613 0 0 0 .177.028c.255 0 .467-.0933.635-.28.168-.1804.298-.4106.392-.6906l.102-.336-1.82-4.5454h.794l.924 2.5107c.068.1929.14.4013.214.6253.081.224.156.4418.224.6534h.038c.068-.2054.133-.42.196-.644.062-.224.124-.4356.186-.6347l.812-2.5107h.747l-1.708 4.9094c-.106.2986-.233.5662-.383.8026-.143.2365-.323.4232-.541.56-.212.1432-.47.2147-.775.2147Zm3.483-.4573 2.492-8.12h.56l-2.492 8.12h-.56Zm5.407-1.3814c-.367 0-.712-.0933-1.036-.28-.317-.1866-.575-.4573-.774-.812-.193-.3546-.29-.7808-.29-1.2786 0-.5102.097-.9427.29-1.2974.199-.3546.457-.6253.774-.812.324-.1866.669-.28 1.036-.28.374 0 .719.0934 1.036.28.318.1867.573.4574.766.812.199.3547.298.7872.298 1.2974 0 .4978-.099.924-.298 1.2786-.193.3547-.448.6254-.766.812-.317.1867-.662.28-1.036.28Zm0-.6346c.392 0 .706-.1587.943-.476.243-.3236.364-.7436.364-1.26 0-.5227-.121-.9458-.364-1.2694-.237-.3235-.551-.4853-.943-.4853-.386 0-.7.1618-.942.4853-.243.3236-.364.7467-.364 1.2694 0 .5164.121.9364.364 1.26.242.3173.556.476.942.476Z"/>
  <rect width="15.3333" height="15.3333" x="56.3333" y="88.0001" fill="var(--colors-accent-300-accent, #5985FF)" rx="2.3333"/>
  <path stroke="var(--control-color-visuals-guide-text, #fff)" stroke-linecap="round" stroke-linejoin="round" stroke-width="2" d="m60.0002 95.6669 2.6667 2.6667 5.3333-5.3334"/>
  <rect width="15.3333" height="15.3333" x="56.3333" y="88.0001" stroke="var(--colors-accent-300-accent, #5985FF)" stroke-width=".6667" rx="2.3333"/>
  <path fill="var(--control-color-text-base-text, #222)" d="M78.0706 98.6667v-.6346h1.3627v-4.3867h-1.0827v-.4947c.2738-.0497.5102-.1088.7093-.1773.2054-.0747.3889-.1618.5507-.2613h.588v5.32h1.232v.6346h-3.36Zm4.2753 0v-.4573c.5973-.5973 1.1045-1.12 1.5213-1.568.4169-.4542.7343-.8618.952-1.2227.2178-.3671.3267-.7093.3267-1.0266 0-.3422-.0933-.6222-.28-.84-.1867-.2178-.4698-.3267-.8493-.3267-.2489 0-.4791.0716-.6907.2147-.2115.1369-.4044.3049-.5787.504l-.4386-.4387c.2489-.2738.5133-.4915.7933-.6533.2862-.168.6222-.252 1.008-.252.5538 0 .9893.1618 1.3067.4853.3173.3173.476.7405.476 1.2693 0 .3734-.1058.7529-.3174 1.1387-.2053.3796-.4915.7809-.8586 1.204-.3609.4169-.7778.8711-1.2507 1.3627a92.749 92.749 0 0 1 .504-.0374 6.983 6.983 0 0 1 .4947-.0186h1.7266v.6626h-3.8453Zm8.3278.112c-.4853 0-.8244-.14-1.0173-.42-.1867-.28-.28-.644-.28-1.092v-2.5106h-.672v-.5787l.7093-.0467.0934-1.2693h.644v1.2693h1.2226v.6254h-1.2226v2.52c0 .28.0497.4978.1493.6533.1058.1493.2893.224.5507.224.0808 0 .168-.0124.2613-.0373l.252-.084.1493.5786a3.2432 3.2432 0 0 1-.4106.112 1.6929 1.6929 0 0 1-.4294.056Zm3.3621 0c-.3671 0-.7125-.0933-1.036-.28-.3174-.1866-.5756-.4573-.7747-.812-.1929-.3546-.2893-.7808-.2893-1.2786 0-.5102.0964-.9427.2893-1.2974.1991-.3546.4573-.6253.7747-.812.3235-.1866.6689-.28 1.036-.28.3733 0 .7186.0934 1.036.28.3173.1867.5724.4574.7653.812.1991.3547.2987.7872.2987 1.2974 0 .4978-.0996.924-.2987 1.2786-.1929.3547-.448.6254-.7653.812-.3174.1867-.6627.28-1.036.28Zm0-.6346c.392 0 .7062-.1587.9426-.476.2427-.3236.364-.7436.364-1.26 0-.5227-.1213-.9458-.364-1.2694-.2364-.3235-.5506-.4853-.9426-.4853-.3858 0-.7.1618-.9427.4853-.2427.3236-.364.7467-.364 1.2694 0 .5164.1213.9364.364 1.26.2427.3173.5569.476.9427.476Zm5.135.5226v-.6346h1.3632v-4.3867h-1.0832v-.4947c.2738-.0497.5103-.1088.7092-.1773.206-.0747.389-.1618.551-.2613h.588v5.32h1.232v.6346h-3.3602Zm6.0862.112c-.473 0-.865-.084-1.176-.252-.311-.168-.569-.3546-.775-.56l.374-.504c.18.1743.388.3329.625.476.236.1369.529.2054.877.2054.367 0 .675-.1214.924-.364.255-.2489.383-.5818.383-.9987 0-.4107-.115-.7311-.345-.9613-.231-.2302-.539-.3454-.924-.3454-.206 0-.383.0312-.532.0934-.144.0622-.305.1524-.486.2706l-.41-.2613.196-2.8653h2.977v.6626h-2.305l-.159 1.764c.143-.0746.286-.1337.429-.1773.143-.0435.305-.0653.486-.0653.342 0 .65.0684.924.2053.28.1307.504.3329.672.6067.168.2738.252.6253.252 1.0546 0 .4294-.097.7965-.29 1.1014-.186.2986-.432.5258-.737.6813-.305.1556-.632.2333-.98.2333Zm5.164 1.8383c-.1 0-.196-.009-.29-.028-.087-.018-.168-.04-.242-.065l.149-.6066c.05.0125.106.0249.168.0373a.613.613 0 0 0 .177.028c.255 0 .467-.0933.635-.28.168-.1804.299-.4106.392-.6906l.103-.336-1.82-4.5454h.793l.924 2.5107c.068.1929.14.4013.215.6253.081.224.155.4418.224.6534h.037c.068-.2054.134-.42.196-.644.062-.224.124-.4356.187-.6347l.812-2.5107h.746l-1.708 4.9094c-.105.2986-.233.5662-.382.8026-.143.2363-.324.4233-.542.5603-.211.143-.469.214-.774.214Zm3.482-.457 2.492-8.1199h.56l-2.492 8.1199h-.56Zm5.408-1.3813c-.368 0-.713-.0933-1.036-.28-.318-.1866-.576-.4573-.775-.812-.193-.3546-.289-.7808-.289-1.2786 0-.5102.096-.9427.289-1.2974.199-.3546.457-.6253.775-.812.323-.1866.668-.28 1.036-.28.373 0 .718.0934 1.036.28.317.1867.572.4574.765.812.199.3547.299.7872.299 1.2974 0 .4978-.1.924-.299 1.2786-.193.3547-.448.6254-.765.812-.318.1867-.663.28-1.036.28Zm0-.6346c.392 0 .706-.1587.942-.476.243-.3236.364-.7436.364-1.26 0-.5227-.121-.9458-.364-1.2694-.236-.3235-.55-.4853-.942-.4853-.386 0-.7.1618-.943.4853-.243.3236-.364.7467-.364 1.2694 0 .5164.121.9364.364 1.26.243.3173.557.476.943.476Z"/>
  <rect width="15.3333" height="15.3333" x="56.3333" y="112" stroke="var(--control-color-border-400-border, #898989)" stroke-width=".6667" rx="2.3333"/>
  <path fill="var(--control-color-text-base-text, #222)" d="M78.0706 122.667v-.635h1.3627v-4.387h-1.0827v-.494c.2738-.05.5102-.109.7093-.178.2054-.074.3889-.161.5507-.261h.588v5.32h1.232v.635h-3.36Zm6.338-3.062c-.1929 0-.4014.063-.6254.187-.224.125-.4293.324-.616.597.0498.579.1836 1.021.4014 1.326.224.305.5258.457.9053.457.2925 0 .5382-.118.7373-.355.1992-.242.2987-.56.2987-.952 0-.385-.0933-.69-.28-.914-.1804-.23-.4542-.346-.8213-.346Zm.0653 3.174c-.3858 0-.7342-.106-1.0453-.318-.3111-.211-.5569-.528-.7374-.952-.1804-.429-.2706-.961-.2706-1.596 0-.796.1058-1.437.3173-1.922.2178-.486.4978-.837.84-1.055.3485-.224.7187-.336 1.1107-.336.3235 0 .6004.062.8306.187.2365.118.4387.267.6067.448l-.4293.476c-.1182-.143-.2645-.255-.4387-.336-.1742-.087-.3547-.131-.5413-.131-.28 0-.5351.081-.7654.243-.2302.155-.42.42-.5693.793-.1431.367-.2209.865-.2333 1.493.1866-.23.4044-.41.6533-.541.2489-.137.4947-.205.7373-.205.5165 0 .9272.155 1.232.466.3112.305.4667.763.4667 1.372 0 .38-.0809.713-.2427.999-.1617.286-.3764.51-.644.672-.2613.162-.5537.243-.8773.243Zm6.1998 0c-.4853 0-.8244-.14-1.0173-.42-.1867-.28-.28-.644-.28-1.092v-2.511h-.672v-.579l.7093-.046.0934-1.27h.644v1.27h1.2226v.625h-1.2226v2.52c0 .28.0497.498.1493.653.1058.15.2893.224.5507.224.0808 0 .168-.012.2613-.037l.252-.084.1493.579a3.3293 3.3293 0 0 1-.4106.112 1.711 1.711 0 0 1-.4294.056Zm3.3621 0c-.3671 0-.7125-.094-1.036-.28-.3174-.187-.5756-.458-.7747-.812-.1929-.355-.2893-.781-.2893-1.279 0-.51.0964-.943.2893-1.297.1991-.355.4573-.626.7747-.812.3235-.187.6689-.28 1.036-.28.3733 0 .7186.093 1.036.28.3173.186.5724.457.7653.812.1991.354.2987.787.2987 1.297 0 .498-.0996.924-.2987 1.279-.1929.354-.448.625-.7653.812-.3174.186-.6627.28-1.036.28Zm0-.635c.392 0 .7062-.159.9426-.476.2427-.323.364-.743.364-1.26 0-.523-.1213-.946-.364-1.269-.2364-.324-.5506-.486-.9426-.486-.3858 0-.7.162-.9427.486-.2427.323-.364.746-.364 1.269 0 .517.1213.937.364 1.26.2427.317.5569.476.9427.476Zm5.135.523v-.635h1.3632v-4.387h-1.0832v-.494c.2738-.05.5103-.109.7092-.178.206-.074.389-.161.551-.261h.588v5.32h1.232v.635h-3.3602Zm6.2352.112c-.373 0-.706-.069-.998-.206-.293-.143-.526-.339-.7-.588-.168-.248-.252-.528-.252-.84 0-.261.052-.491.158-.69.112-.206.252-.383.42-.532.174-.156.355-.283.542-.383v-.037c-.218-.156-.411-.346-.579-.57-.168-.224-.252-.491-.252-.802 0-.305.075-.573.224-.803.149-.23.351-.407.607-.532.255-.131.541-.196.858-.196.517 0 .924.149 1.223.448.305.299.457.678.457 1.139 0 .205-.043.401-.13.588-.088.18-.193.345-.318.494-.124.144-.249.262-.373.355v.037c.18.1.348.218.504.355.155.137.283.302.383.495.099.186.149.414.149.681 0 .293-.081.56-.243.803-.155.242-.379.435-.672.578-.286.137-.622.206-1.008.206Zm.42-3.36c.199-.181.352-.37.458-.57.112-.199.168-.407.168-.625 0-.292-.091-.541-.271-.747-.181-.205-.436-.308-.765-.308-.274 0-.504.088-.691.262-.181.174-.271.407-.271.7 0 .236.062.432.187.588.131.155.302.289.513.401.212.106.436.205.672.299Zm-.401 2.79c.348 0 .628-.096.84-.289.218-.199.327-.451.327-.756 0-.255-.075-.463-.224-.625-.15-.162-.349-.302-.598-.42-.242-.118-.507-.234-.793-.346-.237.156-.436.343-.597.56-.156.218-.234.464-.234.738 0 .33.122.603.364.821.249.212.554.317.915.317Zm4.996 2.408c-.1 0-.196-.009-.29-.028-.087-.018-.168-.04-.242-.065l.149-.607c.05.013.106.025.168.038.062.018.121.028.177.028.255 0 .467-.094.635-.28.168-.181.299-.411.392-.691l.103-.336-1.82-4.545h.793l.924 2.51c.068.193.14.402.215.626.081.224.155.442.224.653h.037c.068-.205.134-.42.196-.644.062-.224.124-.435.187-.635l.812-2.51h.746l-1.708 4.909c-.105.299-.233.566-.382.803-.143.236-.324.423-.542.56-.211.143-.469.214-.774.214Zm3.482-.457 2.492-8.12h.56l-2.492 8.12h-.56Zm5.408-1.381c-.368 0-.713-.094-1.036-.28-.318-.187-.576-.458-.775-.812-.193-.355-.289-.781-.289-1.279 0-.51.096-.943.289-1.297.199-.355.457-.626.775-.812.323-.187.668-.28 1.036-.28.373 0 .718.093 1.036.28.317.186.572.457.765.812.199.354.299.787.299 1.297 0 .498-.1.924-.299 1.279-.193.354-.448.625-.765.812-.318.186-.663.28-1.036.28Zm0-.635c.392 0 .706-.159.942-.476.243-.323.364-.743.364-1.26 0-.523-.121-.946-.364-1.269-.236-.324-.55-.486-.942-.486-.386 0-.7.162-.943.486-.243.323-.364.746-.364 1.269 0 .517.121.937.364 1.26.243.317.557.476.943.476Z"/>
  <rect width="15" height="15" x="56.5" y="136.167" stroke="var(--control-color-border-400-border, #898989)" rx="3.5"/>
  <path fill="var(--control-color-text-base-text, #222)" d="M79.1439 146.779c-.3795 0-.6969-.112-.952-.336-.2489-.23-.3733-.548-.3733-.952 0-.498.2209-.878.6627-1.139.448-.267 1.1542-.454 2.1186-.56 0-.193-.028-.376-.084-.551-.0498-.174-.1431-.314-.28-.42-.1306-.112-.3204-.168-.5693-.168-.2613 0-.5071.05-.7373.15-.2303.099-.4356.211-.616.336l-.2987-.532c.2115-.137.4698-.268.7747-.392.3111-.131.6471-.196 1.008-.196.5537 0 .9551.171 1.204.513.2488.336.3733.787.3733 1.353v2.782h-.6347l-.0653-.542h-.028c-.2116.175-.4449.327-.7.458-.2489.13-.5165.196-.8027.196Zm.224-.616c.2178 0 .4231-.053.616-.159.1929-.106.3982-.255.616-.448v-1.26c-.7529.093-1.2818.233-1.5866.42-.2987.187-.448.426-.448.719 0 .255.0777.442.2333.56.1555.112.3453.168.5693.168Zm5.4405.616c-.2116 0-.4325-.05-.6627-.15-.224-.105-.4355-.248-.6347-.429h-.028l-.0653.467h-.616v-6.646h.7653v1.811l-.0186.821c.2053-.18.4293-.329.672-.448.2489-.124.4978-.186.7466-.186.5912 0 1.0392.208 1.344.625.3049.417.4574.977.4574 1.68 0 .517-.0934.958-.28 1.325-.1805.368-.42.648-.7187.84-.2924.193-.6129.29-.9613.29Zm-.1307-.644c.3733 0 .6813-.159.924-.476.2489-.324.3733-.766.3733-1.326 0-.497-.0933-.899-.28-1.204-.1804-.311-.4853-.466-.9146-.466-.1929 0-.3889.053-.588.158-.1991.106-.4076.259-.6254.458v2.38c.1992.174.3952.298.588.373.1992.069.3734.103.5227.103Zm5.0469.644c-.3671 0-.7125-.094-1.036-.28-.3174-.187-.5756-.458-.7747-.812-.1929-.355-.2893-.781-.2893-1.279 0-.51.0964-.943.2893-1.297.1991-.355.4573-.626.7747-.812.3235-.187.6689-.28 1.036-.28.3733 0 .7186.093 1.036.28.3173.186.5724.457.7653.812.1991.354.2987.787.2987 1.297 0 .498-.0996.924-.2987 1.279-.1929.354-.448.625-.7653.812-.3174.186-.6627.28-1.036.28Zm0-.635c.392 0 .7062-.159.9426-.476.2427-.323.364-.743.364-1.26 0-.523-.1213-.946-.364-1.269-.2364-.324-.5506-.486-.9426-.486-.3858 0-.7.162-.9427.486-.2427.323-.364.746-.364 1.269 0 .517.1213.937.364 1.26.2427.317.5569.476.9427.476Zm4.2381.523-1.6333-4.536h.7933l.8587 2.576.2053.672c.0747.224.1462.445.2147.662h.0373c.0684-.217.1369-.438.2053-.662.0747-.224.1431-.448.2054-.672l.8586-2.576h.756l-1.6053 4.536h-.896Zm5.179.112c-.4045 0-.7716-.094-1.1014-.28-.3297-.193-.5911-.467-.784-.822-.1928-.354-.2893-.777-.2893-1.269 0-.498.0965-.924.2893-1.279.1992-.354.4543-.628.7654-.821.3111-.193.6378-.289.98-.289.5786 0 1.0233.193 1.3343.578.318.386.476.903.476 1.55 0 .081-.003.162-.009.242 0 .075-.006.14-.019.196h-3.061c.0311.48.1805.862.448 1.148.2738.287.6285.43 1.064.43.2178 0 .4169-.031.5973-.094.1867-.068.3637-.155.5317-.261l.271.504c-.193.125-.414.233-.6627.327-.2426.093-.5195.14-.8306.14Zm-1.428-2.744h2.4263c0-.461-.099-.809-.2983-1.046-.1929-.242-.4667-.364-.8214-.364-.3173 0-.6035.125-.8586.374-.2489.242-.3982.588-.448 1.036Zm6.0603 2.632v-.635h1.362v-4.387h-1.082v-.494c.273-.05.51-.109.709-.178.205-.074.389-.161.551-.261h.588v5.32h1.232v.635h-3.36Zm6.235.112c-.373 0-.706-.069-.999-.206-.292-.143-.525-.339-.7-.588-.168-.248-.252-.528-.252-.84 0-.261.053-.491.159-.69.112-.206.252-.383.42-.532.174-.156.355-.283.541-.383v-.037c-.217-.156-.41-.346-.578-.57-.168-.224-.252-.491-.252-.802 0-.305.074-.573.224-.803.149-.23.351-.407.606-.532.255-.131.542-.196.859-.196.516 0 .924.149 1.223.448.305.299.457.678.457 1.139 0 .205-.044.401-.131.588-.087.18-.193.345-.317.494-.124.144-.249.262-.373.355v.037c.18.1.348.218.504.355.155.137.283.302.382.495.1.186.15.414.15.681 0 .293-.081.56-.243.803-.156.242-.38.435-.672.578-.286.137-.622.206-1.008.206Zm.42-3.36c.199-.181.352-.37.457-.57.112-.199.168-.407.168-.625 0-.292-.09-.541-.27-.747-.181-.205-.436-.308-.766-.308-.273 0-.504.088-.69.262-.181.174-.271.407-.271.7 0 .236.062.432.187.588.13.155.301.289.513.401.212.106.436.205.672.299Zm-.401 2.79c.348 0 .628-.096.84-.289.217-.199.326-.451.326-.756 0-.255-.074-.463-.224-.625-.149-.162-.348-.302-.597-.42-.243-.118-.507-.234-.793-.346-.237.156-.436.343-.598.56-.155.218-.233.464-.233.738 0 .33.121.603.364.821.249.212.554.317.915.317Zm4.996 2.408c-.1 0-.196-.009-.29-.028-.087-.018-.168-.04-.242-.065l.149-.607c.05.013.106.025.168.038.062.018.121.028.177.028.255 0 .467-.094.635-.28.168-.181.299-.411.392-.691l.103-.336-1.82-4.545h.793l.924 2.51c.068.193.14.402.215.626.08.224.155.442.224.653h.037c.068-.205.134-.42.196-.644.062-.224.124-.435.187-.635l.812-2.51h.746l-1.708 4.909c-.106.299-.233.566-.382.803-.144.236-.324.423-.542.56-.211.143-.47.214-.774.214Zm3.482-.457 2.492-8.12h.56l-2.492 8.12h-.56Zm5.407-1.381c-.367 0-.712-.094-1.036-.28-.317-.187-.575-.458-.774-.812-.193-.355-.29-.781-.29-1.279 0-.51.097-.943.29-1.297.199-.355.457-.626.774-.812.324-.187.669-.28 1.036-.28.374 0 .719.093 1.036.28.318.186.573.457.766.812.199.354.298.787.298 1.297 0 .498-.099.924-.298 1.279-.193.354-.448.625-.766.812-.317.186-.662.28-1.036.28Zm0-.635c.392 0 .707-.159.943-.476.243-.323.364-.743.364-1.26 0-.523-.121-.946-.364-1.269-.236-.324-.551-.486-.943-.486-.385 0-.7.162-.942.486-.243.323-.364.746-.364 1.269 0 .517.121.937.364 1.26.242.317.557.476.942.476Z"/>
  <path fill="var(--control-color-state-default-font-default-state, #737373)" d="M155.219 180.779c-.51 0-.967-.125-1.372-.374-.398-.255-.715-.619-.952-1.092-.23-.473-.345-1.042-.345-1.708 0-.659.118-1.226.355-1.698.236-.473.56-.837.97-1.092.411-.256.874-.383 1.391-.383.373 0 .703.078.989.233.286.15.517.324.691.523l-.42.504c-.162-.174-.345-.314-.551-.42-.205-.106-.438-.159-.7-.159-.386 0-.725.103-1.017.308-.286.199-.51.482-.672.85-.156.367-.233.805-.233 1.316 0 .51.077.955.233 1.334.155.374.373.663.653.868.286.206.622.308 1.008.308.293 0 .554-.062.784-.186.23-.125.442-.293.635-.504l.429.485c-.242.28-.516.498-.821.653-.305.156-.657.234-1.055.234Zm3.988 0c-.379 0-.697-.112-.952-.336-.249-.231-.373-.548-.373-.952 0-.498.221-.878.663-1.139.448-.268 1.154-.454 2.118-.56 0-.193-.028-.377-.084-.551-.05-.174-.143-.314-.28-.42-.13-.112-.32-.168-.569-.168-.261 0-.507.05-.737.15-.231.099-.436.211-.616.336l-.299-.532c.211-.137.47-.268.775-.392.311-.131.647-.196 1.008-.196.553 0 .955.171 1.204.513.248.336.373.787.373 1.353v2.782h-.635l-.065-.542h-.028c-.212.174-.445.327-.7.458-.249.13-.517.196-.803.196Zm.224-.616c.218 0 .423-.053.616-.159.193-.106.398-.255.616-.448v-1.26c-.753.093-1.282.233-1.586.42-.299.187-.448.426-.448.719 0 .255.077.441.233.56.155.112.345.168.569.168Zm3.434.504v-4.536h.635l.065.653h.028c.218-.218.448-.398.691-.541.242-.15.519-.224.83-.224.479 0 .828.152 1.046.457.224.299.336.737.336 1.316v2.875h-.766v-2.772c0-.424-.068-.732-.205-.924-.137-.193-.355-.29-.653-.29-.231 0-.439.059-.626.178-.18.118-.385.292-.616.522v3.286h-.765Zm6.896.112c-.398 0-.759-.094-1.082-.28-.324-.187-.579-.458-.766-.812-.186-.355-.28-.781-.28-1.279 0-.51.1-.943.299-1.297.205-.355.473-.626.803-.812.336-.187.696-.28 1.082-.28.299 0 .554.052.766.158.217.106.404.23.56.374l-.392.504a1.8783 1.8783 0 0 0-.42-.29c-.144-.074-.305-.112-.486-.112-.274 0-.519.075-.737.224-.212.143-.38.349-.504.616-.118.262-.177.566-.177.915 0 .516.127.936.382 1.26.262.317.601.476 1.018.476.211 0 .407-.044.588-.131.18-.093.339-.202.476-.326l.336.513c-.206.18-.433.323-.682.429-.249.1-.51.15-.784.15Zm4.103 0c-.405 0-.772-.094-1.101-.28-.33-.193-.592-.467-.784-.822-.193-.354-.29-.778-.29-1.269 0-.498.097-.924.29-1.279.199-.354.454-.628.765-.821.311-.193.638-.289.98-.289.579 0 1.023.192 1.335.578.317.386.476.902.476 1.55 0 .08-.004.161-.01.242 0 .075-.006.14-.018.196h-3.062c.031.479.181.862.448 1.148.274.286.629.43 1.064.43.218 0 .417-.032.598-.094.186-.068.364-.155.532-.261l.27.504c-.193.124-.414.233-.662.327-.243.093-.52.14-.831.14Zm-1.428-2.744h2.427c0-.461-.1-.809-.299-1.046-.193-.242-.467-.364-.821-.364-.318 0-.604.125-.859.374-.249.242-.398.588-.448 1.036Zm5.031 2.744c-.286 0-.494-.088-.625-.262-.124-.18-.187-.435-.187-.765v-5.731h.766v5.787c0 .118.022.205.065.261.044.05.093.075.149.075h.066c.025-.006.059-.013.102-.019l.103.579c-.05.025-.109.043-.177.056-.069.012-.156.019-.262.019Z"/>
  <rect width="63.3333" height="21" x="200.333" y="166.667" fill="var(--control-color-state-accent-container-default-state, #36F)" rx="1"/>
  <path fill="var(--control-color-surface-base-surface, #FFF)" d="M219.409 180.779c-.51 0-.967-.125-1.372-.374-.398-.255-.715-.619-.952-1.092-.23-.473-.345-1.042-.345-1.708 0-.659.118-1.226.355-1.698.236-.473.56-.837.97-1.092.411-.256.874-.383 1.391-.383.373 0 .703.078.989.233.286.15.517.324.691.523l-.42.504c-.162-.174-.345-.314-.551-.42-.205-.106-.438-.159-.7-.159-.386 0-.725.103-1.017.308-.286.199-.51.482-.672.85-.156.367-.233.805-.233 1.316 0 .51.077.955.233 1.334.155.374.373.663.653.868.286.206.622.308 1.008.308.293 0 .554-.062.784-.186.23-.125.442-.293.635-.504l.429.485c-.242.28-.516.498-.821.653-.305.156-.657.234-1.055.234Zm4.707 0c-.367 0-.713-.094-1.036-.28-.317-.187-.576-.458-.775-.812-.193-.355-.289-.781-.289-1.279 0-.51.096-.943.289-1.297.199-.355.458-.626.775-.812.323-.187.669-.28 1.036-.28.373 0 .719.093 1.036.28.317.186.572.457.765.812.199.354.299.787.299 1.297 0 .498-.1.924-.299 1.279-.193.354-.448.625-.765.812-.317.186-.663.28-1.036.28Zm0-.635c.392 0 .706-.159.943-.476.242-.324.364-.744.364-1.26 0-.523-.122-.946-.364-1.269-.237-.324-.551-.486-.943-.486-.386 0-.7.162-.943.486-.242.323-.364.746-.364 1.269 0 .516.122.936.364 1.26.243.317.557.476.943.476Zm3.295.523v-4.536h.634l.066.653h.028c.217-.218.448-.398.69-.541.243-.15.52-.224.831-.224.479 0 .827.152 1.045.457.224.299.336.737.336 1.316v2.875h-.765v-2.772c0-.424-.069-.732-.205-.924-.137-.193-.355-.29-.654-.29-.23 0-.438.059-.625.178-.181.118-.386.292-.616.522v3.286h-.765Zm5.234 0v-3.911h-.616v-.579l.616-.046v-.719c0-.461.106-.825.318-1.092.217-.274.553-.411 1.008-.411.143 0 .28.016.41.047.131.025.246.059.346.103l-.168.588c-.168-.075-.339-.112-.514-.112-.423 0-.634.292-.634.877v.719h.961v.625h-.961v3.911h-.766Zm2.595 0v-4.536h.765v4.536h-.765Zm.392-5.47c-.149 0-.274-.043-.373-.13-.094-.094-.14-.218-.14-.374 0-.149.046-.27.14-.364.099-.093.224-.14.373-.14s.271.047.364.14c.099.094.149.215.149.364 0 .156-.05.28-.149.374-.093.087-.215.13-.364.13Zm1.905 5.47v-4.536h.634l.066.821h.028c.155-.286.345-.513.569-.681.224-.168.464-.252.719-.252.18 0 .342.031.485.093l-.149.672a1.6139 1.6139 0 0 0-.206-.056c-.062-.013-.14-.019-.233-.019-.193 0-.395.078-.607.234-.205.155-.385.426-.541.812v2.912h-.765Zm3.235 0v-4.536h.635l.065.653h.028c.2-.218.417-.398.654-.541.236-.15.488-.224.756-.224.348 0 .619.077.812.233.199.149.345.361.438.635.237-.256.476-.464.719-.626.243-.162.501-.242.775-.242.466 0 .812.152 1.036.457.23.299.345.737.345 1.316v2.875h-.765v-2.772c0-.424-.069-.732-.206-.924-.136-.193-.348-.29-.634-.29-.336 0-.716.234-1.139.7v3.286h-.765v-2.772c0-.424-.069-.732-.206-.924-.136-.193-.351-.29-.644-.29-.336 0-.715.234-1.138.7v3.286h-.766Z"/>
  <rect width="63.3333" height="21" x="200.333" y="166.667" stroke="var(--control-color-state-accent-container-default-state, #36F)" stroke-width=".6667" rx="1"/>
</g>
<path stroke="var(--control-color-surface-200-surface, #EAEAEA)" d="M.5.5h319v223H.5z"/>
<defs>
  <clipPath id="clip0_2273_106086">
    <path fill="var(--control-color-surface-base-surface, #FFF)" d="M0 0h320v224H0z"/>
  </clipPath>
</defs>
</svg>
