<svg xmlns="http://www.w3.org/2000/svg" fill="none" viewBox="0 0 320 220" aria-labelledby="uMultipleTitle uMultipleDesc" role="img">
  <title id="uMultipleTitle">When to use - example of multiple selections</title>
  <desc id="uMultipleDesc">Example of when to use a checkbox group to select one or multiple options of them.</desc>
<g clip-path="url(#clip0_2262_95738)">
  <path fill="var(--control-color-surface-200-surface, #EAEAEA)" d="M0 0h320v224H0z"/>
  <rect width="248" height="530.333" x="36" y="-221.5" fill="var(--control-color-surface-base-surface, #FFF)" rx="1.3333"/>
  <path fill="var(--control-color-surface-base-surface, #FFF)" d="M56-67.1666h208v314.333H56z"/>
  <path fill="var(--control-color-border-400-border, #898989)" d="M64.84 12.1667V6.0441h3.528v.6533h-2.7533v1.9227h2.324v.6626h-2.324v2.2214h2.8466v.6626H64.84Zm4.8472 0v-4.536h.6347l.0653.6534h.028c.1991-.2178.4169-.3982.6533-.5414.2365-.1493.4885-.224.756-.224.3485 0 .6192.0778.812.2334.1992.1493.3454.3609.4387.6346.2365-.255.476-.4635.7187-.6253.2426-.1618.5009-.2427.7746-.2427.4667 0 .812.1525 1.036.4574.2303.2986.3454.7373.3454 1.316v2.8746h-.7654v-2.772c0-.423-.0684-.731-.2053-.924-.1369-.1928-.3484-.2893-.6347-.2893-.336 0-.7155.2333-1.1386.7v3.2853h-.7654v-2.772c0-.423-.0684-.731-.2053-.924-.1369-.1928-.3515-.2893-.644-.2893-.336 0-.7155.2333-1.1387.7v3.2853h-.7653Zm8.7836.112c-.3795 0-.6969-.112-.952-.336-.2489-.2302-.3733-.5475-.3733-.952 0-.4977.2209-.8773.6627-1.1386.448-.2676 1.1542-.4542 2.1186-.56 0-.193-.028-.3765-.084-.5507-.0498-.1742-.1431-.3142-.28-.42-.1306-.112-.3204-.168-.5693-.168-.2613 0-.5071.0498-.7373.1494-.2303.0995-.4356.2115-.616.336l-.2987-.532c.2115-.137.4698-.2676.7747-.392.3111-.1307.6471-.196 1.008-.196.5537 0 .9551.171 1.204.5133.2488.336.3733.787.3733 1.3533v2.7813h-.6347l-.0653-.5413h-.028a3.876 3.876 0 0 1-.7.4573c-.2489.1307-.5165.196-.8027.196Zm.224-.616c.2178 0 .4231-.0528.616-.1586.1929-.1058.3982-.2551.616-.448v-1.26c-.7529.0933-1.2818.2333-1.5866.42-.2987.1866-.448.4262-.448.7186 0 .2552.0777.4418.2333.56.1555.112.3453.168.5693.168Zm3.4338.504v-4.536h.7653v4.536h-.7653Zm.392-5.4693c-.1493 0-.2738-.0435-.3733-.1307-.0934-.0933-.14-.2177-.14-.3733 0-.1493.0466-.2706.14-.364.0995-.0933.224-.14.3733-.14.1493 0 .2707.0467.364.14.0996.0934.1493.2147.1493.364 0 .1556-.0497.28-.1493.3734-.0933.087-.2147.1306-.364.1306Zm2.7169 5.5813c-.2862 0-.4947-.0871-.6253-.2613-.1245-.1804-.1867-.4355-.1867-.7653V5.5214h.7653v5.7867c0 .1182.0218.2053.0654.2613.0435.0498.0933.0747.1493.0747h.0653a1.066 1.066 0 0 1 .1027-.0187l.1027.5787c-.0498.0249-.1089.0435-.1774.056-.0684.0124-.1555.0186-.2613.0186Z"/>
  <rect width="207.333" height="21.3333" x="56.3333" y="-1.4999" stroke="var(--control-color-border-400-border, #898989)" stroke-width=".6667" rx="1"/>
  <path fill="var(--control-color-text-base-text, #222)" d="m57.26 39.8334-1.1293-6.0854H57.54l.42 2.8467c.0373.3173.0778.6378.1213.9613.0436.3174.084.6378.1214.9614h.0373c.0622-.3236.1213-.644.1773-.9614.0623-.3235.1245-.644.1867-.9613l.6533-2.8467h1.1667l.6533 2.8467c.0623.3049.1214.6191.1774.9427.0622.3235.1244.6502.1866.98h.0374c.0435-.3298.084-.6534.1213-.9707.0436-.3235.0871-.6409.1307-.952l.42-2.8467h1.316l-1.0827 6.0854h-1.7267l-.5973-2.7627a28.6458 28.6458 0 0 1-.14-.7093 48.7687 48.7687 0 0 1-.1027-.7H59.78a57.669 57.669 0 0 1-.1213.7 14.2212 14.2212 0 0 1-.1307.7093l-.5693 2.7627H57.26Zm6.9391 0v-6.5427h1.372v1.6053l-.0653.8307c.1742-.1555.3764-.2987.6066-.4293.2365-.1369.5103-.2054.8214-.2054.504 0 .868.168 1.092.504.2302.3298.3453.784.3453 1.3627v2.8747h-1.372V37.136c0-.336-.0467-.5662-.14-.6906-.0871-.1245-.2302-.1867-.4293-.1867-.1742 0-.3236.0405-.448.1213-.1245.0747-.2614.1836-.4107.3267v3.1267h-1.372Zm6.4987.112c-.4231 0-.7591-.1338-1.008-.4014-.2489-.2737-.3733-.6066-.3733-.9986 0-.4854.2053-.8649.616-1.1387.4106-.2738 1.0733-.4573 1.988-.5507-.0125-.2053-.0747-.3671-.1867-.4853-.1058-.1244-.2862-.1867-.5413-.1867-.1929 0-.3889.0374-.588.112-.1991.0747-.4107.1774-.6347.308l-.4947-.9053a4.5737 4.5737 0 0 1 .9334-.4387c.336-.112.6844-.168 1.0453-.168.5911 0 1.0453.1712 1.3627.5134.3173.3422.476.868.476 1.5773v2.6507h-1.12l-.0934-.476h-.0373a2.7967 2.7967 0 0 1-.6253.4293c-.2178.1058-.4574.1587-.7187.1587Zm.4667-1.064c.1555 0 .2893-.0342.4013-.1027.1182-.0747.2365-.1711.3547-.2893v-.812c-.4854.0622-.8214.1618-1.008.2986-.1867.1307-.28.2863-.28.4667 0 .1493.0466.2613.14.336.0995.0685.2302.1027.392.1027Zm4.9071 1.064c-.5724 0-.9831-.1649-1.232-.4947-.2426-.3298-.364-.7622-.364-1.2973v-1.876h-.6346V35.26l.7093-.056.1587-1.232h1.1386v1.232h1.1107v1.0734h-1.1107v1.8573c0 .2613.0529.4511.1587.5693.112.112.2582.168.4387.168a.9195.9195 0 0 0 .224-.028 1.4639 1.4639 0 0 0 .2146-.0653l.2147.9987c-.1182.0373-.2645.0746-.4387.112-.168.0373-.364.056-.588.056Zm4.8254 0c-.4231 0-.7591-.1338-1.008-.4014-.2489-.2737-.3733-.6066-.3733-.9986 0-.4854.2053-.8649.616-1.1387.4107-.2738 1.0733-.4573 1.988-.5507-.0124-.2053-.0747-.3671-.1867-.4853-.1057-.1244-.2862-.1867-.5413-.1867-.1929 0-.3889.0374-.588.112-.1991.0747-.4107.1774-.6347.308l-.4946-.9053a4.5704 4.5704 0 0 1 .9333-.4387c.336-.112.6844-.168 1.0453-.168.5911 0 1.0454.1712 1.3627.5134.3173.3422.476.868.476 1.5773v2.6507h-1.12l-.0933-.476h-.0374a2.7967 2.7967 0 0 1-.6253.4293c-.2178.1058-.4573.1587-.7187.1587Zm.4667-1.064c.1556 0 .2893-.0342.4013-.1027.1183-.0747.2365-.1711.3547-.2893v-.812c-.4853.0622-.8213.1618-1.008.2986-.1867.1307-.28.2863-.28.4667 0 .1493.0467.2613.14.336.0996.0685.2302.1027.392.1027Zm3.2885.952V35.204h1.12l.0934.812h.0373c.168-.3111.3702-.5413.6067-.6906.2364-.1556.4729-.2334.7093-.2334.1307 0 .2396.0094.3267.028.0871.0125.1618.0343.224.0654l-.224 1.1853a1.7137 1.7137 0 0 0-.2427-.056c-.0747-.0124-.1618-.0187-.2613-.0187-.1742 0-.3578.0654-.5507.196-.1867.1245-.3422.3423-.4667.6534v2.688h-1.372Zm5.6996.112c-.4417 0-.84-.0965-1.1946-.2894-.3547-.1928-.6347-.4697-.84-.8306-.2054-.3609-.308-.7965-.308-1.3067 0-.504.1026-.9364.308-1.2973.2115-.3609.4853-.6378.8213-.8307.336-.1991.6876-.2987 1.0547-.2987.4418 0 .8058.0996 1.092.2987.2924.1929.5102.4573.6533.7933.1493.3298.224.7063.224 1.1294 0 .1182-.0062.2364-.0187.3546-.0124.112-.0248.196-.0373.252h-2.772c.0622.336.2022.5849.42.7467.2178.1556.4791.2333.784.2333.3298 0 .6627-.1026.9987-.308l.4573.8307c-.2364.1618-.5009.2893-.7933.3827-.2925.0933-.5756.14-.8494.14Zm-1.0266-2.9307h1.6706c0-.2551-.0622-.4635-.1866-.6253-.1182-.168-.3142-.252-.588-.252-.2116 0-.4014.0746-.5694.224-.168.1431-.2768.3609-.3266.6533Zm6.1672 4.6293c-.1369 0-.2582-.0093-.364-.028a3.8932 3.8932 0 0 1-.2893-.0653l.2426-1.0453c.0436.0062.0934.0155.1494.028a.5043.5043 0 0 0 .1586.028c.2303 0 .4076-.056.532-.168.1245-.112.2178-.2582.28-.4387l.0654-.2427-1.7827-4.508h1.3813l.6627 1.988c.0684.2116.1307.4263.1867.644.056.2178.1151.4418.1773.672h.0373l.1494-.6533c.056-.224.112-.4449.168-.6627l.56-1.988h1.316l-1.6054 4.676c-.1431.3858-.3017.7094-.476.9707-.1742.2676-.3857.4667-.6346.5973-.2427.1307-.5476.196-.9147.196Zm6.2686-1.6986c-.392 0-.762-.0934-1.11-.28-.343-.1929-.619-.4698-.831-.8307-.2116-.3671-.3173-.8058-.3173-1.316 0-.5164.1057-.9551.3173-1.316.212-.3609.488-.6347.831-.8213.348-.1929.718-.2894 1.11-.2894.392 0 .759.0965 1.102.2894.342.1866.619.4604.83.8213.212.3609.318.7996.318 1.316 0 .5102-.106.9489-.318 1.316-.211.3609-.488.6378-.83.8307-.343.1866-.71.28-1.102.28Zm0-1.1107c.28 0 .492-.1182.635-.3547.143-.2426.215-.5631.215-.9613 0-.4044-.072-.7249-.215-.9613-.143-.2365-.355-.3547-.635-.3547-.286 0-.501.1182-.644.3547-.137.2364-.205.5569-.205.9613 0 .3982.068.7187.205.9613.143.2365.358.3547.644.3547Zm4.58 1.1107c-.504 0-.871-.1649-1.101-.4947-.224-.336-.336-.7933-.336-1.372V35.204h1.372v2.6974c0 .3298.046.56.14.6906.093.1245.239.1867.438.1867.175 0 .321-.0404.439-.1213s.246-.2116.383-.392V35.204h1.372v4.6294h-1.12l-.103-.644h-.028c-.193.2302-.404.4138-.635.5506-.23.1369-.504.2054-.821.2054Zm3.914-.112V35.204h1.12l.093.812h.038c.168-.3111.37-.5413.606-.6906.237-.1556.473-.2334.71-.2334.13 0 .239.0094.326.028.088.0125.162.0343.224.0654l-.224 1.1853a1.6735 1.6735 0 0 0-.242-.056c-.075-.0124-.162-.0187-.262-.0187-.174 0-.357.0654-.55.196-.187.1245-.342.3423-.467.6534v2.688h-1.372Zm6.95.112c-.305 0-.619-.0591-.943-.1774-.317-.1182-.594-.2737-.83-.4666l.616-.8587c.211.1556.413.2769.606.364.199.0809.395.1213.588.1213.206 0 .355-.0342.448-.1026.094-.0747.14-.1711.14-.2894 0-.1057-.046-.1928-.14-.2613-.087-.0684-.202-.1307-.345-.1867a11.9306 11.9306 0 0 0-.457-.1866 3.8698 3.8698 0 0 1-.56-.28 1.5844 1.5844 0 0 1-.458-.4294c-.124-.1804-.186-.3982-.186-.6533 0-.4293.161-.7778.485-1.0453.33-.2676.759-.4014 1.288-.4014.355 0 .666.0623.933.1867.274.1182.507.252.7.4013l-.616.8214c-.161-.1245-.323-.2209-.485-.2894-.162-.0684-.324-.1026-.485-.1026-.355 0-.532.1213-.532.364 0 .1493.087.2644.261.3453.18.0747.389.1556.625.2427.199.0684.392.1586.579.2706.193.1058.352.2489.476.4294.131.1742.196.4044.196.6906 0 .4169-.162.7716-.485 1.064-.324.2863-.797.4294-1.419.4294Zm4.166 0c-.504 0-.871-.1649-1.101-.4947-.224-.336-.336-.7933-.336-1.372V35.204h1.372v2.6974c0 .3298.046.56.14.6906.093.1245.239.1867.438.1867.175 0 .321-.0404.439-.1213s.246-.2116.383-.392V35.204h1.372v4.6294h-1.12l-.103-.644h-.028c-.193.2302-.404.4138-.635.5506-.23.1369-.504.2054-.821.2054Zm6.341 0c-.206 0-.414-.0498-.626-.1494-.205-.1057-.398-.2582-.578-.4573h-.038l-.112.4947h-1.073v-6.5427h1.372v1.6053l-.037.7094c.18-.1618.376-.2862.588-.3734.211-.0933.423-.14.634-.14.374 0 .697.0965.971.2894s.482.4666.625.8213c.15.3485.224.7591.224 1.232 0 .5289-.093.9831-.28 1.3627-.186.3733-.429.6595-.728.8586-.292.1929-.606.2894-.942.2894Zm-.318-1.12c.237 0 .439-.1089.607-.3267.168-.2178.252-.5631.252-1.036 0-.8338-.267-1.2507-.803-1.2507-.273 0-.538.14-.793.42v1.8947c.125.112.249.1898.373.2333.125.0436.246.0654.364.0654Zm2.971 2.8373c-.193 0-.352-.0124-.476-.0373-.131-.0249-.243-.056-.336-.0934l.242-1.008c.063.0187.125.0343.187.0467a.8106.8106 0 0 0 .177.0187c.181 0 .305-.0622.374-.1867.074-.1182.112-.3049.112-.56V35.204h1.372v4.6014c0 .336-.05.644-.15.924-.099.28-.27.504-.513.672-.236.1742-.566.2613-.989.2613Zm.97-7.14c-.23 0-.417-.0653-.56-.196-.143-.1307-.214-.3049-.214-.5227 0-.2177.071-.392.214-.5226.143-.1307.33-.196.56-.196.231 0 .417.0653.56.196.143.1306.215.3049.215.5226 0 .2178-.072.392-.215.5227-.143.1307-.329.196-.56.196Zm3.97 5.4227c-.442 0-.84-.0965-1.195-.2894-.354-.1928-.634-.4697-.84-.8306-.205-.3609-.308-.7965-.308-1.3067 0-.504.103-.9364.308-1.2973.212-.3609.486-.6378.822-.8307.336-.1991.687-.2987 1.054-.2987.442 0 .806.0996 1.092.2987.293.1929.511.4573.654.7933.149.3298.224.7063.224 1.1294 0 .1182-.007.2364-.019.3546-.012.112-.025.196-.037.252h-2.772c.062.336.202.5849.42.7467.217.1556.479.2333.784.2333.329 0 .662-.1026.998-.308l.458.8307c-.237.1618-.501.2893-.794.3827-.292.0933-.575.14-.849.14Zm-1.027-2.9307h1.671c0-.2551-.062-.4635-.187-.6253-.118-.168-.314-.252-.588-.252-.211 0-.401.0746-.569.224-.168.1431-.277.3609-.327.6533Zm5.802 2.9307c-.43 0-.819-.0934-1.167-.28-.342-.1929-.616-.4698-.821-.8307-.199-.3671-.299-.8058-.299-1.316 0-.5164.112-.9551.336-1.316.224-.3609.52-.6347.887-.8213.367-.1929.762-.2894 1.185-.2894.286 0 .538.0467.756.14.224.0934.423.2116.597.3547l-.644.8867c-.217-.1805-.426-.2707-.625-.2707-.33 0-.594.1182-.793.3547-.193.2364-.29.5569-.29.9613 0 .3982.097.7187.29.9613.199.2365.448.3547.746.3547.15 0 .296-.0311.439-.0933a2.075 2.075 0 0 0 .392-.2427l.541.896c-.23.1991-.479.3422-.746.4293-.268.0809-.529.1214-.784.1214Zm4.032 0c-.572 0-.983-.1649-1.232-.4947-.243-.3298-.364-.7622-.364-1.2973v-1.876h-.635V35.26l.71-.056.158-1.232h1.139v1.232h1.111v1.0734h-1.111v1.8573c0 .2613.053.4511.159.5693.112.112.258.168.438.168.075 0 .15-.0093.224-.028a1.455 1.455 0 0 0 .215-.0653l.215.9987c-.119.0373-.265.0746-.439.112-.168.0373-.364.056-.588.056Zm3.062 0c-.305 0-.619-.0591-.943-.1774-.317-.1182-.594-.2737-.831-.4666l.616-.8587c.212.1556.414.2769.607.364.199.0809.395.1213.588.1213.205 0 .355-.0342.448-.1026.093-.0747.14-.1711.14-.2894 0-.1057-.047-.1928-.14-.2613-.087-.0684-.202-.1307-.345-.1867a11.3657 11.3657 0 0 0-.458-.1866 3.9742 3.9742 0 0 1-.56-.28 1.5936 1.5936 0 0 1-.457-.4294c-.124-.1804-.187-.3982-.187-.6533 0-.4293.162-.7778.486-1.0453.33-.2676.759-.4014 1.288-.4014.354 0 .666.0623.933.1867.274.1182.507.252.7.4013l-.616.8214c-.162-.1245-.323-.2209-.485-.2894-.162-.0684-.324-.1026-.486-.1026-.354 0-.532.1213-.532.364 0 .1493.088.2644.262.3453.18.0747.389.1556.625.2427.199.0684.392.1586.579.2706.193.1058.351.2489.476.4294.13.1742.196.4044.196.6906 0 .4169-.162.7716-.486 1.064-.323.2863-.796.4294-1.418.4294Zm4.877-.112v-3.556h-.616V35.26l.616-.0466v-.252c0-.3298.056-.6285.168-.896.112-.2676.292-.4822.541-.644.249-.1618.582-.2427.999-.2427.193 0 .37.0187.532.056.162.0373.292.0747.392.112l-.252 1.008a1.1718 1.1718 0 0 0-.243-.0653 1.031 1.031 0 0 0-.233-.028c-.168 0-.299.0529-.392.1586-.093.0996-.14.2676-.14.504v.28h.831v1.0734h-.831v3.556h-1.372Zm4.844.112c-.392 0-.762-.0934-1.11-.28-.342-.1929-.619-.4698-.831-.8307-.211-.3671-.317-.8058-.317-1.316 0-.5164.106-.9551.317-1.316.212-.3609.489-.6347.831-.8213.348-.1929.718-.2894 1.11-.2894.392 0 .76.0965 1.102.2894.342.1866.619.4604.83.8213.212.3609.318.7996.318 1.316 0 .5102-.106.9489-.318 1.316-.211.3609-.488.6378-.83.8307-.342.1866-.71.28-1.102.28Zm0-1.1107c.28 0 .492-.1182.635-.3547.143-.2426.215-.5631.215-.9613 0-.4044-.072-.7249-.215-.9613-.143-.2365-.355-.3547-.635-.3547-.286 0-.5.1182-.644.3547-.136.2364-.205.5569-.205.9613 0 .3982.069.7187.205.9613.144.2365.358.3547.644.3547Zm3.19.9987V35.204h1.12l.093.812h.037c.168-.3111.37-.5413.607-.6906.236-.1556.473-.2334.709-.2334.131 0 .24.0094.327.028.087.0125.162.0343.224.0654l-.224 1.1853a1.7176 1.7176 0 0 0-.243-.056c-.074-.0124-.162-.0187-.261-.0187-.174 0-.358.0654-.551.196-.186.1245-.342.3423-.466.6534v2.688h-1.372Zm7.369.112c-.572 0-.983-.1649-1.232-.4947-.242-.3298-.364-.7622-.364-1.2973v-1.876h-.634V35.26l.709-.056.159-1.232h1.138v1.232h1.111v1.0734h-1.111v1.8573c0 .2613.053.4511.159.5693.112.112.258.168.439.168a.925.925 0 0 0 .224-.028 1.44 1.44 0 0 0 .214-.0653l.215.9987c-.118.0373-.264.0746-.439.112-.168.0373-.364.056-.588.056Zm1.791-.112v-6.5427h1.372v1.6053l-.066.8307c.175-.1555.377-.2987.607-.4293.236-.1369.51-.2054.821-.2054.504 0 .868.168 1.092.504.231.3298.346.784.346 1.3627v2.8747h-1.372V37.136c0-.336-.047-.5662-.14-.6906-.087-.1245-.231-.1867-.43-.1867-.174 0-.323.0405-.448.1213-.124.0747-.261.1836-.41.3267v3.1267h-1.372Zm5.332 0V35.204h1.372v4.6294h-1.372Zm.681-5.3107c-.23 0-.417-.0653-.56-.196-.143-.1307-.215-.3049-.215-.5227 0-.2177.072-.392.215-.5226.143-.1307.33-.196.56-.196.23 0 .417.0653.56.196.143.1306.215.3049.215.5226 0 .2178-.072.392-.215.5227-.143.1307-.33.196-.56.196Zm3.261 5.4227c-.305 0-.619-.0591-.943-.1774-.317-.1182-.594-.2737-.831-.4666l.616-.8587c.212.1556.414.2769.607.364.199.0809.395.1213.588.1213.205 0 .355-.0342.448-.1026.093-.0747.14-.1711.14-.2894 0-.1057-.047-.1928-.14-.2613-.087-.0684-.202-.1307-.345-.1867a11.3657 11.3657 0 0 0-.458-.1866 3.9742 3.9742 0 0 1-.56-.28 1.5936 1.5936 0 0 1-.457-.4294c-.124-.1804-.187-.3982-.187-.6533 0-.4293.162-.7778.486-1.0453.33-.2676.759-.4014 1.288-.4014.354 0 .666.0623.933.1867.274.1182.507.252.7.4013l-.616.8214c-.162-.1245-.323-.2209-.485-.2894-.162-.0684-.324-.1026-.486-.1026-.354 0-.532.1213-.532.364 0 .1493.088.2644.262.3453.18.0747.389.1556.625.2427.199.0684.392.1586.579.2706.193.1058.351.2489.476.4294.13.1742.196.4044.196.6906 0 .4169-.162.7716-.486 1.064-.323.2863-.796.4294-1.418.4294Zm6.006 0c-.305 0-.619-.0591-.942-.1774-.318-.1182-.595-.2737-.831-.4666l.616-.8587c.212.1556.414.2769.607.364.199.0809.395.1213.588.1213.205 0 .354-.0342.448-.1026.093-.0747.14-.1711.14-.2894 0-.1057-.047-.1928-.14-.2613-.087-.0684-.203-.1307-.346-.1867a11.302 11.302 0 0 0-.457-.1866 3.9213 3.9213 0 0 1-.56-.28 1.5808 1.5808 0 0 1-.457-.4294c-.125-.1804-.187-.3982-.187-.6533 0-.4293.162-.7778.485-1.0453.33-.2676.759-.4014 1.288-.4014.355 0 .666.0623.934.1867.273.1182.507.252.7.4013l-.616.8214c-.162-.1245-.324-.2209-.486-.2894-.161-.0684-.323-.1026-.485-.1026-.355 0-.532.1213-.532.364 0 .1493.087.2644.261.3453.181.0747.389.1556.626.2427.199.0684.392.1586.578.2706.193.1058.352.2489.476.4294.131.1742.196.4044.196.6906 0 .4169-.161.7716-.485 1.064-.324.2863-.796.4294-1.419.4294Zm4.848 0c-.442 0-.84-.0965-1.195-.2894-.355-.1928-.635-.4697-.84-.8306-.205-.3609-.308-.7965-.308-1.3067 0-.504.103-.9364.308-1.2973.212-.3609.485-.6378.821-.8307.336-.1991.688-.2987 1.055-.2987.442 0 .806.0996 1.092.2987.292.1929.51.4573.653.7933.15.3298.224.7063.224 1.1294 0 .1182-.006.2364-.018.3546-.013.112-.025.196-.038.252h-2.772c.063.336.203.5849.42.7467.218.1556.479.2333.784.2333.33 0 .663-.1026.999-.308l.457.8307c-.236.1618-.501.2893-.793.3827-.292.0933-.576.14-.849.14Zm-1.027-2.9307h1.671c0-.2551-.063-.4635-.187-.6253-.118-.168-.314-.252-.588-.252-.212 0-.401.0746-.569.224-.168.1431-.277.3609-.327.6533Zm3.785 2.8187V35.204h1.12l.094.5974h.037c.193-.1929.398-.3578.616-.4947.218-.1431.479-.2147.784-.2147.33 0 .594.0685.793.2054.206.1306.368.3204.486.5693.205-.2115.423-.392.653-.5413.23-.1556.498-.2334.803-.2334.498 0 .862.168 1.092.504.236.3298.354.784.354 1.3627v2.8747h-1.372V37.136c0-.336-.046-.5662-.14-.6906-.087-.1245-.23-.1867-.429-.1867-.23 0-.495.1493-.793.448v3.1267h-1.372V37.136c0-.336-.047-.5662-.14-.6906-.087-.1245-.23-.1867-.43-.1867-.23 0-.491.1493-.784.448v3.1267h-1.372Zm10.075.112c-.442 0-.84-.0965-1.195-.2894-.354-.1928-.634-.4697-.84-.8306-.205-.3609-.308-.7965-.308-1.3067 0-.504.103-.9364.308-1.2973.212-.3609.486-.6378.822-.8307.336-.1991.687-.2987 1.054-.2987.442 0 .806.0996 1.092.2987.293.1929.511.4573.654.7933.149.3298.224.7063.224 1.1294 0 .1182-.007.2364-.019.3546-.012.112-.025.196-.037.252h-2.772c.062.336.202.5849.42.7467.217.1556.479.2333.784.2333.329 0 .662-.1026.998-.308l.458.8307c-.237.1618-.501.2893-.794.3827-.292.0933-.575.14-.849.14Zm-1.027-2.9307h1.671c0-.2551-.062-.4635-.187-.6253-.118-.168-.314-.252-.588-.252-.211 0-.401.0746-.569.224-.168.1431-.277.3609-.327.6533Zm5.148 2.9307c-.304 0-.619-.0591-.942-.1774-.318-.1182-.594-.2737-.831-.4666l.616-.8587c.212.1556.414.2769.607.364.199.0809.395.1213.588.1213.205 0 .354-.0342.448-.1026.093-.0747.14-.1711.14-.2894 0-.1057-.047-.1928-.14-.2613-.087-.0684-.202-.1307-.346-.1867a11.302 11.302 0 0 0-.457-.1866 3.9213 3.9213 0 0 1-.56-.28 1.5808 1.5808 0 0 1-.457-.4294c-.125-.1804-.187-.3982-.187-.6533 0-.4293.162-.7778.485-1.0453.33-.2676.76-.4014 1.288-.4014.355 0 .666.0623.934.1867.274.1182.507.252.7.4013l-.616.8214c-.162-.1245-.324-.2209-.486-.2894-.161-.0684-.323-.1026-.485-.1026-.355 0-.532.1213-.532.364 0 .1493.087.2644.261.3453.181.0747.389.1556.626.2427.199.0684.392.1586.578.2706.193.1058.352.2489.476.4294.131.1742.196.4044.196.6906 0 .4169-.161.7716-.485 1.064-.323.2863-.796.4294-1.419.4294Zm4.376 0c-.572 0-.983-.1649-1.232-.4947-.243-.3298-.364-.7622-.364-1.2973v-1.876h-.635V35.26l.71-.056.158-1.232h1.139v1.232h1.111v1.0734h-1.111v1.8573c0 .2613.053.4511.159.5693.112.112.258.168.438.168.075 0 .15-.0093.224-.028a1.455 1.455 0 0 0 .215-.0653l.215.9987c-.118.0373-.265.0746-.439.112-.168.0373-.364.056-.588.056Zm3.698 0c-.441 0-.84-.0965-1.194-.2894-.355-.1928-.635-.4697-.84-.8306-.206-.3609-.308-.7965-.308-1.3067 0-.504.102-.9364.308-1.2973.211-.3609.485-.6378.821-.8307.336-.1991.688-.2987 1.055-.2987.441 0 .805.0996 1.092.2987.292.1929.51.4573.653.7933.149.3298.224.7063.224 1.1294 0 .1182-.006.2364-.019.3546-.012.112-.025.196-.037.252h-2.772c.062.336.202.5849.42.7467.218.1556.479.2333.784.2333.33 0 .663-.1026.999-.308l.457.8307c-.236.1618-.501.2893-.793.3827-.293.0933-.576.14-.85.14Zm-1.026-2.9307h1.67c0-.2551-.062-.4635-.186-.6253-.119-.168-.315-.252-.588-.252-.212 0-.402.0746-.57.224-.168.1431-.277.3609-.326.6533Zm3.785 2.8187V35.204h1.12l.093.812h.038c.168-.3111.37-.5413.606-.6906.237-.1556.473-.2334.71-.2334.13 0 .239.0094.326.028.088.0125.162.0343.224.0654l-.224 1.1853a1.6735 1.6735 0 0 0-.242-.056c-.075-.0124-.162-.0187-.262-.0187-.174 0-.357.0654-.55.196-.187.1245-.342.3423-.467.6534v2.688h-1.372Zm4.549-2.156c-.037-.2551-.021-.4822.047-.6814.069-.2053.162-.3888.28-.5506.125-.168.252-.3205.383-.4574.13-.1431.239-.28.326-.4106.094-.1369.14-.2738.14-.4107 0-.1929-.059-.3391-.177-.4387-.112-.0995-.261-.1493-.448-.1493-.174 0-.33.0405-.467.1213-.13.0809-.258.1836-.382.308l-.756-.6906c.218-.2551.479-.4605.784-.616.305-.1556.638-.2334.998-.2334.336 0 .635.056.896.168.268.112.48.2863.635.5227.156.2365.233.5382.233.9053 0 .2303-.046.4356-.14.616a2.36 2.36 0 0 1-.345.4854c-.137.1493-.271.2986-.401.448a1.8671 1.8671 0 0 0-.318.476c-.08.168-.108.364-.084.588h-1.204Zm.598 2.268c-.237 0-.433-.0809-.588-.2427-.156-.168-.234-.3733-.234-.616 0-.2489.078-.4542.234-.616.155-.168.351-.252.588-.252.236 0 .432.084.588.252.162.1618.242.3671.242.616 0 .2427-.08.448-.242.616-.156.1618-.352.2427-.588.2427Z"/>
  <rect width="15.3333" height="15.3333" x="56.3333" y="52.8333" fill="var(--colors-accent-300-accent, #5985FF)" rx="2.3333"/>
  <path stroke="var(--control-color-visuals-guide-text, #fff)" stroke-linecap="round" stroke-linejoin="round" stroke-width="1.3333" d="m60.0002 60.5 2.6667 2.6667 5.3333-5.3333"/>
  <rect width="15.3333" height="15.3333" x="56.3333" y="52.8333" stroke="var(--colors-accent-300-accent, #5985FF)" stroke-width=".6667" rx="2.3333"/>
  <path fill="var(--control-color-text-base-text, #222)" d="M78.1733 63.5v-6.1227h.7746v2.5667h2.8467v-2.5667h.784V63.5h-.784v-2.884h-2.8467V63.5h-.7746Zm6.0138 0v-4.536h.7654V63.5h-.7654Zm.392-5.4693c-.1493 0-.2738-.0436-.3733-.1307-.0933-.0933-.14-.2178-.14-.3733 0-.1494.0467-.2707.14-.364.0995-.0934.224-.14.3733-.14.1494 0 .2707.0466.364.14.0996.0933.1494.2146.1494.364 0 .1555-.0498.28-.1494.3733-.0933.0871-.2146.1307-.364.1307Zm3.0902 5.5813c-.3235 0-.6315-.0591-.924-.1773-.2924-.1245-.5475-.2738-.7653-.448l.3827-.5134a3.649 3.649 0 0 0 .616.392c.2115.0996.4511.1494.7186.1494.2987 0 .5227-.0685.672-.2054.1494-.1431.224-.3111.224-.504 0-.1555-.0529-.2862-.1586-.392-.0996-.1057-.2303-.1929-.392-.2613a5.6678 5.6678 0 0 0-.4854-.2053 7.8899 7.8899 0 0 1-.6253-.2707c-.2053-.1058-.3733-.2396-.504-.4013-.1307-.168-.196-.3796-.196-.6347 0-.3671.1369-.672.4107-.9147.28-.2489.6657-.3733 1.1573-.3733.28 0 .5413.0498.784.1493.2427.0996.4511.2209.6253.364l-.3733.4854a2.4375 2.4375 0 0 0-.4853-.2894c-.168-.0746-.3516-.112-.5507-.112-.2862 0-.4978.0654-.6347.196-.1306.1307-.196.2831-.196.4574 0 .1431.0467.2613.14.3546.0934.0871.2147.1649.364.2334.1494.0622.308.1275.476.196.2178.0809.4325.1742.644.28.2116.0995.3858.2364.5227.4106.1431.168.2147.3951.2147.6814 0 .2426-.0654.4666-.196.672-.1245.2053-.3111.3702-.56.4946-.2427.1245-.5445.1867-.9054.1867Zm3.9706 0c-.4854 0-.8245-.14-1.0174-.42-.1866-.28-.28-.644-.28-1.092v-2.5107h-.672v-.5786l.7094-.0467.0933-1.2693h.644v1.2693h1.2227v.6253h-1.2227v2.52c0 .28.0498.4978.1493.6534.1058.1493.2894.224.5507.224.0809 0 .168-.0125.2613-.0374l.252-.084.1494.5787a3.2496 3.2496 0 0 1-.4107.112 1.696 1.696 0 0 1-.4293.056Zm3.362 0c-.3671 0-.7124-.0933-1.036-.28-.3173-.1867-.5755-.4573-.7747-.812-.1928-.3547-.2893-.7809-.2893-1.2787 0-.5102.0965-.9426.2893-1.2973.1992-.3547.4574-.6253.7747-.812.3236-.1867.6689-.28 1.036-.28.3733 0 .7187.0933 1.036.28.3173.1867.5725.4573.7653.812.1992.3547.2987.7871.2987 1.2973 0 .4978-.0995.924-.2987 1.2787-.1928.3547-.448.6253-.7653.812-.3173.1867-.6627.28-1.036.28Zm0-.6347c.392 0 .7062-.1586.9427-.476.2426-.3235.364-.7435.364-1.26 0-.5226-.1214-.9457-.364-1.2693-.2365-.3236-.5507-.4853-.9427-.4853-.3858 0-.7.1617-.9427.4853-.2426.3236-.364.7467-.364 1.2693 0 .5165.1214.9365.364 1.26.2427.3174.5569.476.9427.476Zm3.2946.5227v-4.536h.6347l.0653.8213h.028c.1556-.2862.3453-.5133.5693-.6813.224-.168.4632-.252.7192-.252.18 0 .342.0311.485.0933l-.149.672a1.7717 1.7717 0 0 0-.206-.056c-.062-.0124-.14-.0186-.233-.0186-.193 0-.3953.0777-.6068.2333-.2054.1556-.3858.4262-.5414.812V63.5h-.7653Zm3.5475 1.9507c-.1 0-.196-.0094-.29-.028a2.2333 2.2333 0 0 1-.242-.0654l.149-.6066c.05.0124.106.0249.168.0373a.613.613 0 0 0 .177.028c.256 0 .467-.0933.635-.28.168-.1804.299-.4107.392-.6907l.103-.336-1.82-4.5453h.793l.924 2.5107c.069.1929.14.4013.215.6253.081.224.155.4418.224.6533h.037c.069-.2053.134-.42.196-.644.062-.224.125-.4355.187-.6346l.812-2.5107h.746l-1.708 4.9093c-.105.2987-.233.5663-.382.8027-.143.2364-.324.4231-.542.56-.211.1431-.469.2147-.774.2147Z"/>
  <rect width="15.3333" height="15.3333" x="56.3333" y="76.8333" stroke="var(--control-color-border-400-border, #898989)" stroke-width=".6667" rx="2.3333"/>
  <path fill="var(--control-color-text-base-text, #222)" d="M78.1733 87.5v-6.1227h.9333l1.176 3.2667c.0747.2116.1462.4262.2147.644l.224.6347h.0373c.0747-.2116.1431-.4231.2053-.6347.0685-.2178.14-.4324.2147-.644l1.1573-3.2667h.9427V87.5h-.728v-3.3693c0-.2738.0124-.5756.0373-.9054.0249-.336.0467-.6377.0654-.9053h-.0374l-.4853 1.3907-1.1573 3.1733h-.5134l-1.1573-3.1733-.4853-1.3907h-.0374c.0187.2676.0374.5693.056.9053.0249.3298.0374.6316.0374.9054V87.5h-.7Zm7.7519.112c-.3796 0-.6969-.112-.952-.336-.2489-.2302-.3734-.5476-.3734-.952 0-.4978.2209-.8773.6627-1.1387.448-.2675 1.1542-.4542 2.1187-.56a1.788 1.788 0 0 0-.084-.5506c-.0498-.1743-.1431-.3143-.28-.42-.1307-.112-.3205-.168-.5694-.168-.2613 0-.5071.0497-.7373.1493-.2302.0996-.4356.2116-.616.336l-.2987-.532c.2116-.1369.4698-.2676.7747-.392.3111-.1307.6471-.196 1.008-.196.5538 0 .9551.1711 1.204.5133.2489.336.3733.7871.3733 1.3534V87.5h-.6346l-.0654-.5413h-.028a3.8779 3.8779 0 0 1-.7.4573c-.2489.1307-.5164.196-.8026.196Zm.224-.616c.2177 0 .4231-.0529.616-.1587.1929-.1057.3982-.2551.616-.448v-1.26c-.7529.0934-1.2818.2334-1.5867.42-.2987.1867-.448.4263-.448.7187 0 .2551.0778.4418.2333.56.1556.112.3454.168.5694.168Zm4.7342.616c-.4854 0-.8245-.14-1.0174-.42-.1866-.28-.28-.644-.28-1.092v-2.5107h-.672v-.5786l.7094-.0467.0933-1.2693h.644v1.2693h1.2227v.6253h-1.2227v2.52c0 .28.0498.4978.1493.6534.1058.1493.2894.224.5507.224.0809 0 .168-.0125.2613-.0374l.252-.084.1494.5787a3.2496 3.2496 0 0 1-.4107.112 1.696 1.696 0 0 1-.4293.056Zm1.7256-.112v-6.6453h.7653v1.8106l-.028.9334c.2178-.2054.4449-.3796.6814-.5227.2426-.1493.5195-.224.8306-.224.4791 0 .8276.1524 1.0454.4573.224.2987.336.7374.336 1.316V87.5h-.7654v-2.772c0-.4231-.0684-.7311-.2053-.924-.1369-.1929-.3547-.2893-.6533-.2893-.2303 0-.4387.0591-.6254.1773-.1804.1182-.3857.2924-.616.5227V87.5h-.7653Zm6.2622.112c-.3236 0-.6316-.0591-.924-.1773-.2925-.1245-.5476-.2738-.7654-.448l.3827-.5134a3.649 3.649 0 0 0 .616.392c.2115.0996.4511.1494.7187.1494.2986 0 .5226-.0685.672-.2054.1493-.1431.224-.3111.224-.504 0-.1555-.0529-.2862-.1587-.392-.0996-.1057-.2302-.1929-.392-.2613a5.6657 5.6657 0 0 0-.4853-.2053 7.892 7.892 0 0 1-.6254-.2707c-.2053-.1058-.3733-.2396-.504-.4013-.1306-.168-.196-.3796-.196-.6347 0-.3671.1369-.672.4107-.9147.28-.2489.6658-.3733 1.1573-.3733.28 0 .5414.0498.784.1493.2422.0996.4512.2209.6252.364l-.373.4854a2.4417 2.4417 0 0 0-.4855-.2894c-.168-.0746-.3516-.112-.5507-.112-.2862 0-.4978.0654-.6346.196-.1307.1307-.196.2831-.196.4574 0 .1431.0466.2613.14.3546.0933.0871.2146.1649.364.2334.1493.0622.308.1275.476.196.2177.0809.4324.1742.644.28.2118.0995.3858.2364.5228.4106.143.168.214.3951.214.6814 0 .2426-.065.4666-.196.672-.124.2053-.311.3702-.5595.4946-.2427.1245-.5445.1867-.9053.1867Z"/>
  <rect width="15.3333" height="15.3333" x="56.3333" y="100.833" fill="var(--colors-accent-300-accent, #5985FF)" rx="2.3333"/>
  <path stroke="var(--control-color-visuals-guide-text, #fff)" stroke-linecap="round" stroke-linejoin="round" stroke-width="1.3333" d="m60.0002 108.5 2.6667 2.667 5.3333-5.334"/>
  <rect width="15.3333" height="15.3333" x="56.3333" y="100.833" stroke="var(--colors-accent-300-accent, #5985FF)" stroke-width=".6667" rx="2.3333"/>
  <path fill="var(--control-color-text-base-text, #222)" d="M78.1733 111.5v-6.123h.7746v5.46h2.6787v.663h-3.4533Zm4.4643 0v-4.536h.7654v4.536h-.7654Zm.392-5.469c-.1493 0-.2737-.044-.3733-.131-.0933-.093-.14-.218-.14-.373 0-.15.0467-.271.14-.364.0996-.094.224-.14.3733-.14.1494 0 .2707.046.364.14.0996.093.1494.214.1494.364 0 .155-.0498.28-.1494.373-.0933.087-.2146.131-.364.131Zm3.3329 5.581c-.4853 0-.8244-.14-1.0173-.42-.1867-.28-.28-.644-.28-1.092v-2.511h-.672v-.578l.7093-.047.0934-1.269h.644v1.269h1.2226v.625h-1.2226v2.52c0 .28.0497.498.1493.654.1058.149.2893.224.5507.224.0808 0 .168-.013.2613-.038l.252-.084.1493.579a3.1615 3.1615 0 0 1-.4106.112 1.711 1.711 0 0 1-.4294.056Zm3.4367 0c-.4044 0-.7715-.093-1.1013-.28-.3298-.193-.5911-.467-.784-.821-.1929-.355-.2893-.778-.2893-1.27 0-.497.0964-.924.2893-1.278.1991-.355.4542-.629.7653-.822.3111-.193.6378-.289.98-.289.5787 0 1.0236.193 1.3347.579.3173.385.476.902.476 1.549 0 .081-.0031.162-.0093.243 0 .074-.0063.14-.0187.196h-3.0613c.0311.479.1804.861.448 1.148.2737.286.6284.429 1.064.429.2177 0 .4169-.031.5973-.093.1867-.069.364-.156.532-.262l.2707.504c-.1929.125-.4138.234-.6627.327-.2427.093-.5196.14-.8307.14Zm-1.428-2.744h2.4267c0-.46-.0996-.809-.2987-1.045-.1929-.243-.4666-.364-.8213-.364-.3173 0-.6036.124-.8587.373-.2489.243-.3982.588-.448 1.036Zm4.2196 2.632v-4.536h.6346l.0654.821h.028c.1555-.286.3453-.513.5693-.681.224-.168.4636-.252.7187-.252.1804 0 .3422.031.4853.093l-.1493.672a1.8133 1.8133 0 0 0-.2054-.056c-.0622-.012-.14-.018-.2333-.018-.1929 0-.3951.077-.6067.233-.2053.156-.3857.426-.5413.812v2.912h-.7653Zm4.0531.112c-.3795 0-.6969-.112-.952-.336-.2489-.23-.3733-.548-.3733-.952 0-.498.2209-.877.6627-1.139.448-.267 1.1542-.454 2.1186-.56 0-.193-.028-.376-.084-.55-.0498-.175-.1431-.315-.28-.42-.1306-.112-.3204-.168-.5693-.168-.2613 0-.5071.049-.7373.149-.2303.1-.4356.212-.616.336l-.2987-.532c.2115-.137.4698-.268.7747-.392.3111-.131.6471-.196 1.008-.196.5537 0 .9551.171 1.204.513.2488.336.3733.787.3733 1.354v2.781h-.6347l-.0653-.541h-.028a3.907 3.907 0 0 1-.7.457c-.2489.131-.5165.196-.8027.196Zm.224-.616c.2178 0 .4231-.053.616-.159.1929-.105.3982-.255.616-.448v-1.26c-.7529.094-1.2818.234-1.5866.42-.2987.187-.448.427-.448.719 0 .255.0777.442.2333.56.1555.112.3453.168.5693.168Zm4.7341.616c-.485 0-.824-.14-1.017-.42-.187-.28-.28-.644-.28-1.092v-2.511h-.6722v-.578l.7092-.047.093-1.269h.644v1.269h1.223v.625h-1.223v2.52c0 .28.05.498.15.654.106.149.289.224.55.224.081 0 .168-.013.262-.038l.252-.084.149.579c-.124.044-.261.081-.411.112-.143.037-.286.056-.429.056Zm3.051 0c-.479 0-.831-.149-1.055-.448-.224-.305-.336-.747-.336-1.325v-2.875h.775v2.772c0 .423.065.731.196.924.137.193.355.289.653.289.237 0 .445-.059.626-.177.186-.124.386-.32.597-.588v-3.22h.765v4.536h-.634l-.066-.709h-.028c-.211.249-.435.448-.672.597-.236.149-.51.224-.821.224Zm3.752-.112v-4.536h.634l.066.821h.028c.155-.286.345-.513.569-.681.224-.168.463-.252.719-.252.18 0 .342.031.485.093l-.149.672a1.8553 1.8553 0 0 0-.206-.056c-.062-.012-.14-.018-.233-.018-.193 0-.395.077-.607.233-.205.156-.386.426-.541.812v2.912h-.765Zm4.983.112c-.405 0-.772-.093-1.102-.28-.329-.193-.591-.467-.784-.821-.192-.355-.289-.778-.289-1.27 0-.497.097-.924.289-1.278.2-.355.455-.629.766-.822.311-.193.638-.289.98-.289.578 0 1.023.193 1.334.579.318.385.476.902.476 1.549 0 .081-.003.162-.009.243 0 .074-.006.14-.019.196h-3.061c.031.479.181.861.448 1.148.274.286.629.429 1.064.429.218 0 .417-.031.597-.093.187-.069.364-.156.532-.262l.271.504c-.193.125-.414.234-.663.327-.242.093-.519.14-.83.14Zm-1.428-2.744h2.426c0-.46-.099-.809-.298-1.045-.193-.243-.467-.364-.822-.364-.317 0-.603.124-.858.373-.249.243-.398.588-.448 1.036Z"/>
  <rect width="15.3333" height="15.3333" x="56.3333" y="124.833" fill="var(--colors-accent-300-accent, #5985FF)" rx="2.3333"/>
  <path stroke="var(--control-color-visuals-guide-text, #fff)" stroke-linecap="round" stroke-linejoin="round" stroke-width="1.3333" d="m60.0002 132.5 2.6667 2.667 5.3333-5.334"/>
  <rect width="15.3333" height="15.3333" x="56.3333" y="124.833" stroke="var(--colors-accent-300-accent, #5985FF)" stroke-width=".6667" rx="2.3333"/>
  <path fill="var(--control-color-text-base-text, #222)" d="M78.1733 135.5v-6.123h1.82c.4168 0 .7808.05 1.092.15.3173.099.5631.258.7373.476.1804.217.2707.507.2707.868 0 .305-.0778.581-.2334.83-.1493.243-.3702.411-.6626.504v.038c.3671.068.6657.224.896.466.2364.243.3546.576.3546.999 0 .398-.0995.731-.2986.999-.1929.267-.4636.466-.812.597-.3485.131-.7529.196-1.2134.196h-1.9506Zm.7746-3.519h.9054c.5226 0 .8991-.09 1.1293-.27.2302-.181.3453-.427.3453-.738 0-.354-.1213-.606-.364-.756-.2364-.149-.5942-.224-1.0733-.224h-.9427v1.988Zm0 2.903h1.064c.5289 0 .9396-.096 1.232-.289.2925-.199.4387-.504.4387-.915 0-.38-.1462-.656-.4387-.831-.2862-.18-.6969-.27-1.232-.27h-1.064v2.305Zm4.6377.616v-4.536h.7653v4.536h-.7653Zm.392-5.469c-.1494 0-.2738-.044-.3734-.131-.0933-.093-.14-.218-.14-.373 0-.15.0467-.271.14-.364.0996-.094.224-.14.3734-.14.1493 0 .2706.046.364.14.0995.093.1493.214.1493.364 0 .155-.0498.28-.1493.373-.0934.087-.2147.131-.364.131Zm3.6688 5.581c-.3671 0-.7124-.093-1.036-.28-.3173-.187-.5755-.457-.7746-.812-.1929-.355-.2894-.781-.2894-1.279 0-.51.0965-.942.2894-1.297.1991-.355.4573-.625.7746-.812.3236-.187.6689-.28 1.036-.28.3734 0 .7187.093 1.036.28.3174.187.5725.457.7654.812.1991.355.2986.787.2986 1.297 0 .498-.0995.924-.2986 1.279-.1929.355-.448.625-.7654.812-.3173.187-.6626.28-1.036.28Zm0-.635c.392 0 .7063-.158.9427-.476.2427-.323.364-.743.364-1.26 0-.522-.1213-.945-.364-1.269-.2364-.324-.5507-.485-.9427-.485-.3857 0-.7.161-.9426.485-.2427.324-.364.747-.364 1.269 0 .517.1213.937.364 1.26.2426.318.5569.476.9426.476Zm4.1066.635c-.2862 0-.4946-.087-.6253-.261-.1244-.181-.1867-.436-.1867-.766v-5.73h.7654v5.786c0 .119.0217.206.0653.262.0436.049.0933.074.1493.074h.0654c.0249-.006.0591-.012.1026-.018l.1027.578a.6417.6417 0 0 1-.1773.056c-.0685.013-.1556.019-.2614.019Zm3.3309 0c-.3671 0-.7124-.093-1.036-.28-.3173-.187-.5755-.457-.7746-.812-.1929-.355-.2894-.781-.2894-1.279 0-.51.0965-.942.2894-1.297.1991-.355.4573-.625.7746-.812.3236-.187.6689-.28 1.036-.28.3734 0 .7187.093 1.036.28.3174.187.5725.457.7654.812.1991.355.2986.787.2986 1.297 0 .498-.0995.924-.2986 1.279-.1929.355-.448.625-.7654.812-.3173.187-.6626.28-1.036.28Zm0-.635c.392 0 .7063-.158.9427-.476.2427-.323.364-.743.364-1.26 0-.522-.1213-.945-.364-1.269-.2364-.324-.5507-.485-.9427-.485-.3857 0-.7.161-.9426.485-.2427.324-.364.747-.364 1.269 0 .517.1213.937.364 1.26.2426.318.5569.476.9426.476Zm4.8253 2.614c-.5538 0-1.0049-.106-1.3533-.318-.3485-.211-.5227-.513-.5227-.905 0-.193.0591-.38.1773-.56.1183-.174.28-.33.4854-.467v-.037c-.112-.068-.2085-.165-.2894-.289-.0746-.125-.112-.274-.112-.448 0-.193.0529-.361.1587-.504.1058-.143.2178-.255.336-.336v-.038c-.1493-.124-.2862-.292-.4107-.504-.1182-.211-.1773-.451-.1773-.718 0-.33.0778-.616.2333-.859.1556-.243.364-.429.6254-.56.2613-.131.5444-.196.8493-.196.1248 0 .2428.012.3548.037.112.019.208.044.289.075h1.578v.588h-.934c.106.1.193.233.262.401.074.162.112.339.112.532 0 .324-.075.604-.224.84-.15.237-.349.42-.598.551-.249.124-.529.187-.8398.187-.2427 0-.4698-.053-.6813-.159a1.0352 1.0352 0 0 0-.2054.233c-.056.081-.084.184-.084.308 0 .143.056.262.168.355.1183.093.3298.14.6347.14h.8778c.528 0 .924.087 1.185.261.267.168.401.442.401.822 0 .28-.093.538-.28.774-.186.237-.451.427-.793.57-.342.149-.75.224-1.2228.224Zm0-4.042c.2618 0 .4858-.096.6718-.289.193-.199.29-.464.29-.793 0-.33-.094-.588-.28-.775-.187-.187-.414-.28-.6818-.28-.2676 0-.4947.093-.6813.28-.1867.187-.28.445-.28.775 0 .329.0933.594.28.793.1929.193.42.289.6813.289Zm.1118 3.51c.436 0 .784-.097 1.046-.29.261-.186.392-.398.392-.634 0-.212-.081-.358-.243-.439-.156-.081-.38-.121-.672-.121h-.7841c-.0871 0-.1836-.007-.2894-.019a2.4102 2.4102 0 0 1-.2986-.056c-.1618.118-.28.243-.3547.373-.0747.131-.112.262-.112.392 0 .243.1151.436.3453.579.2365.143.56.215.9705.215Zm3.272.392c-.1 0-.196-.01-.289-.028a2.3649 2.3649 0 0 1-.243-.066l.149-.606c.05.012.106.025.168.037.063.019.122.028.178.028.255 0 .466-.093.634-.28.168-.18.299-.411.392-.691l.103-.336-1.82-4.545h.793l.924 2.511c.069.193.14.401.215.625.081.224.156.442.224.653h.037c.069-.205.134-.42.196-.644.063-.224.125-.435.187-.634l.812-2.511h.747l-1.708 4.909c-.106.299-.234.567-.383.803-.143.236-.324.423-.541.56-.212.143-.47.215-.775.215Z"/>
  <rect width="15.3333" height="15.3333" x="56.3333" y="148.833" stroke="var(--control-color-border-400-border, #898989)" stroke-width=".6667" rx="2.3333"/>
  <path fill="var(--control-color-text-base-text, #222)" d="M78.1733 159.5v-6.123h1.7453c.4604 0 .8618.056 1.204.168.3422.112.6098.302.8027.57.1928.261.2893.616.2893 1.064 0 .641-.2085 1.117-.6253 1.428-.4169.311-.9614.466-1.6334.466h-1.008v2.427h-.7746Zm.7746-3.061h.9147c.5351 0 .9302-.1 1.1853-.299.2614-.205.392-.526.392-.961 0-.442-.1369-.747-.4106-.915-.2676-.174-.6689-.261-1.204-.261h-.8774v2.436Zm4.4371 3.061v-6.645h.7654v1.81l-.028.934c.2178-.206.4449-.38.6813-.523.2427-.149.5196-.224.8307-.224.4791 0 .8275.152 1.0453.457.224.299.336.738.336 1.316v2.875h-.7653v-2.772c0-.423-.0685-.731-.2054-.924-.1368-.193-.3546-.289-.6533-.289-.2302 0-.4387.059-.6253.177-.1805.118-.3858.292-.616.523v3.285h-.7654Zm5.0769 0v-4.536h.7653v4.536h-.7653Zm.392-5.469c-.1494 0-.2738-.044-.3734-.131-.0933-.093-.14-.218-.14-.373 0-.15.0467-.271.14-.364.0996-.094.224-.14.3734-.14.1493 0 .2706.046.364.14.0995.093.1493.214.1493.364 0 .155-.0498.28-.1493.373-.0934.087-.2147.131-.364.131Zm2.7168 5.581c-.2862 0-.4946-.087-.6253-.261-.1244-.181-.1867-.436-.1867-.766v-5.73h.7654v5.786c0 .119.0218.206.0653.262.0436.049.0933.074.1493.074h.0654c.0249-.006.0591-.012.1026-.018l.1027.578a.6417.6417 0 0 1-.1773.056c-.0685.013-.1556.019-.2614.019Zm3.3309 0c-.3671 0-.7124-.093-1.036-.28-.3173-.187-.5755-.457-.7746-.812-.1929-.355-.2894-.781-.2894-1.279 0-.51.0965-.942.2894-1.297.1991-.355.4573-.625.7746-.812.3236-.187.6689-.28 1.036-.28.3734 0 .7187.093 1.036.28.3174.187.5725.457.7654.812.1991.355.2986.787.2986 1.297 0 .498-.0995.924-.2986 1.279-.1929.355-.448.625-.7654.812-.3173.187-.6626.28-1.036.28Zm0-.635c.392 0 .7063-.158.9427-.476.2427-.323.364-.743.364-1.26 0-.522-.1213-.945-.364-1.269-.2364-.324-.5507-.485-.9427-.485-.3857 0-.7.161-.9426.485-.2427.324-.364.747-.364 1.269 0 .517.1213.937.364 1.26.2426.318.5569.476.9426.476Zm4.48.635c-.3236 0-.6316-.059-.924-.177-.2925-.125-.5476-.274-.7654-.448l.3827-.514c.1991.156.4045.287.616.392.2116.1.4511.15.7187.15.2986 0 .5226-.069.6724-.206.149-.143.224-.311.224-.504 0-.155-.053-.286-.159-.392-.1-.105-.2303-.193-.3921-.261a5.4966 5.4966 0 0 0-.4853-.205 7.7859 7.7859 0 0 1-.6254-.271c-.2053-.106-.3733-.24-.504-.401-.1306-.168-.196-.38-.196-.635 0-.367.1369-.672.4107-.915.28-.249.6658-.373 1.1573-.373.28 0 .5418.05.7838.149.243.1.451.221.626.364l-.374.486a2.4032 2.4032 0 0 0-.485-.29c-.1681-.074-.3516-.112-.5508-.112-.2862 0-.4977.066-.6346.196-.1307.131-.196.283-.196.458 0 .143.0466.261.14.354.0933.087.2146.165.364.234.1493.062.308.127.476.196.2178.081.4324.174.6444.28.211.099.385.236.522.41.143.168.215.395.215.682 0 .242-.065.466-.196.672-.125.205-.311.37-.56.494-.243.125-.5445.187-.9054.187Zm4.4884 0c-.367 0-.712-.093-1.036-.28-.317-.187-.575-.457-.774-.812-.193-.355-.29-.781-.29-1.279 0-.51.097-.942.29-1.297.199-.355.457-.625.774-.812.324-.187.669-.28 1.036-.28.374 0 .719.093 1.036.28.318.187.573.457.766.812.199.355.298.787.298 1.297 0 .498-.099.924-.298 1.279-.193.355-.448.625-.766.812-.317.187-.662.28-1.036.28Zm0-.635c.392 0 .707-.158.943-.476.243-.323.364-.743.364-1.26 0-.522-.121-.945-.364-1.269-.236-.324-.551-.485-.943-.485-.385 0-.7.161-.942.485-.243.324-.364.747-.364 1.269 0 .517.121.937.364 1.26.242.318.557.476.942.476Zm3.295 2.436v-6.449h.635l.065.523h.028c.205-.175.429-.324.672-.448.249-.125.507-.187.775-.187.585 0 1.029.212 1.334.635.305.417.458.977.458 1.68 0 .51-.094.949-.28 1.316-.181.367-.42.647-.719.84-.292.193-.613.289-.961.289-.212 0-.423-.047-.635-.14-.205-.093-.414-.221-.625-.383l.018.794v1.53h-.765Zm1.876-2.445c.373 0 .681-.159.924-.476.249-.324.373-.765.373-1.325 0-.498-.093-.899-.28-1.204-.18-.311-.485-.467-.914-.467-.193 0-.389.053-.588.159-.193.105-.402.258-.626.457v2.38c.206.174.405.299.598.373.193.069.364.103.513.103Zm3.301.532v-6.645h.765v1.81l-.028.934c.218-.206.445-.38.682-.523.242-.149.519-.224.83-.224.48 0 .828.152 1.046.457.224.299.336.738.336 1.316v2.875h-.766v-2.772c0-.423-.068-.731-.205-.924-.137-.193-.355-.289-.653-.289-.23 0-.439.059-.626.177-.18.118-.385.292-.616.523v3.285h-.765Zm5.152 1.951c-.1 0-.196-.01-.29-.028a2.2767 2.2767 0 0 1-.242-.066l.149-.606c.05.012.106.025.168.037.062.019.121.028.177.028.255 0 .467-.093.635-.28.168-.18.299-.411.392-.691l.103-.336-1.82-4.545h.793l.924 2.511c.068.193.14.401.215.625.08.224.155.442.224.653h.037c.068-.205.134-.42.196-.644.062-.224.124-.435.187-.634l.812-2.511h.746l-1.708 4.909c-.106.299-.233.567-.382.803-.144.236-.324.423-.542.56-.211.143-.47.215-.774.215ZM59.192 186.945c-.5476 0-1.0298-.127-1.4467-.382-.4106-.255-.7342-.619-.9706-1.092-.2303-.479-.3454-1.049-.3454-1.708 0-.666.1151-1.229.3454-1.69.2364-.466.56-.821.9706-1.064.4169-.249.8991-.373 1.4467-.373.5476 0 1.0267.124 1.4373.373.4169.243.7405.598.9707 1.064.2364.467.3547 1.03.3547 1.69 0 .659-.1183 1.229-.3547 1.708-.2302.473-.5538.837-.9707 1.092-.4106.255-.8897.382-1.4373.382Zm0-1.185c.4169 0 .7467-.18.9893-.541.2427-.361.364-.847.364-1.456 0-.61-.1213-1.086-.364-1.428-.2426-.343-.5724-.514-.9893-.514-.4169 0-.7467.171-.9893.514-.2427.342-.364.818-.364 1.428 0 .609.1213 1.095.364 1.456.2426.361.5724.541.9893.541Zm6.2215 1.185c-.2053 0-.4137-.049-.6253-.149-.2053-.106-.3982-.258-.5787-.457h-.0373l-.112.494h-1.0733v-6.542h1.372v1.605l-.0374.709c.1805-.161.3765-.286.588-.373.2116-.093.4232-.14.6347-.14.3733 0 .6969.096.9707.289.2738.193.4822.467.6253.822.1493.348.224.759.224 1.232 0 .529-.0933.983-.28 1.362-.1867.374-.4293.66-.728.859-.2924.193-.6067.289-.9427.289Zm-.3173-1.12c.2365 0 .4387-.109.6067-.326.168-.218.252-.563.252-1.036 0-.834-.2676-1.251-.8027-1.251-.2738 0-.5382.14-.7933.42v1.895c.1244.112.2489.189.3733.233.1245.044.2458.065.364.065Zm4.558 1.12c-.3049 0-.6191-.059-.9426-.177-.3174-.118-.5943-.274-.8307-.467l.616-.858c.2116.155.4138.277.6067.364.1991.081.3951.121.588.121.2053 0 .3546-.034.448-.103.0933-.074.14-.171.14-.289 0-.106-.0467-.193-.14-.261-.0871-.069-.2023-.131-.3454-.187a13.2166 13.2166 0 0 0-.4573-.187c-.1867-.074-.3733-.168-.56-.28a1.5846 1.5846 0 0 1-.4573-.429c-.1245-.18-.1867-.398-.1867-.653 0-.43.1618-.778.4853-1.046.3298-.267.7591-.401 1.288-.401.3547 0 .6658.062.9334.187.2737.118.5071.252.7.401l-.616.821c-.1618-.124-.3236-.221-.4854-.289-.1617-.068-.3235-.103-.4853-.103-.3547 0-.532.122-.532.364 0 .15.0871.265.2613.346.1805.074.3889.155.6254.242.1991.069.392.159.5786.271.1929.106.3516.249.476.429.1307.175.196.405.196.691 0 .417-.1617.772-.4853 1.064-.3236.286-.7964.429-1.4187.429Zm4.8474 0c-.4418 0-.84-.096-1.1947-.289-.3546-.193-.6346-.47-.84-.831-.2053-.361-.308-.796-.308-1.306 0-.504.1027-.937.308-1.298.2116-.361.4854-.637.8214-.83.336-.199.6875-.299 1.0546-.299.4418 0 .8058.1 1.092.299.2925.193.5102.457.6534.793.1493.33.224.706.224 1.129 0 .119-.0063.237-.0187.355-.0125.112-.0249.196-.0373.252h-2.772c.0622.336.2022.585.42.747.2177.155.4791.233.784.233.3297 0 .6626-.103.9986-.308l.4574.831c-.2365.161-.5009.289-.7934.382-.2924.094-.5755.14-.8493.14Zm-1.0267-2.93h1.6707c0-.255-.0622-.464-.1867-.626-.1182-.168-.3142-.252-.588-.252-.2115 0-.4013.075-.5693.224-.168.143-.2769.361-.3267.654Zm3.7854 2.818v-4.629h1.12l.0933.812h.0374c.168-.311.3702-.541.6066-.691.2365-.155.4729-.233.7094-.233.1306 0 .2395.009.3266.028.0872.012.1618.034.224.065l-.224 1.186a1.6307 1.6307 0 0 0-.2426-.056c-.0747-.013-.1618-.019-.2614-.019-.1742 0-.3577.065-.5506.196-.1867.124-.3422.342-.4667.653v2.688h-1.372Zm4.8466 0-1.5587-4.629h1.3813l.5974 2.184c.0622.23.1213.467.1773.709.0622.237.1244.476.1867.719h.0373c.056-.243.112-.482.168-.719.0622-.242.1244-.479.1867-.709l.6066-2.184h1.316l-1.512 4.629h-1.5866Zm4.8058.112c-.4232 0-.7592-.133-1.008-.401-.2489-.274-.3734-.607-.3734-.999 0-.485.2054-.865.616-1.138.4107-.274 1.0734-.458 1.988-.551-.0124-.205-.0746-.367-.1866-.485-.1058-.125-.2863-.187-.5414-.187-.1929 0-.3889.037-.588.112-.1991.075-.4106.177-.6346.308l-.4947-.905a4.54 4.54 0 0 1 .9333-.439c.336-.112.6845-.168 1.0454-.168.5911 0 1.0453.171 1.3626.513.3174.343.476.868.476 1.578v2.65h-1.12l-.0933-.476h-.0373a2.7742 2.7742 0 0 1-.6254.43c-.2178.105-.4573.158-.7186.158Zm.4666-1.064c.1556 0 .2894-.034.4014-.102.1182-.075.2364-.171.3546-.29v-.812c-.4853.063-.8213.162-1.008.299-.1866.131-.28.286-.28.467 0 .149.0467.261.14.336.0996.068.2302.102.392.102Zm4.9072 1.064c-.5725 0-.9831-.165-1.232-.494-.2427-.33-.364-.763-.364-1.298v-1.876h-.6347v-1.017l.7093-.056.1587-1.232h1.1387v1.232h1.1106v1.073h-1.1106v1.858c0 .261.0529.451.1586.569.112.112.2583.168.4387.168a.9045.9045 0 0 0 .224-.028c.0809-.019.1524-.04.2147-.065l.2146.998c-.1182.038-.2644.075-.4386.112-.168.038-.364.056-.588.056Zm1.7902-.112v-4.629h1.372v4.629h-1.372Zm.6814-5.31c-.2303 0-.4169-.066-.56-.196-.1432-.131-.2147-.305-.2147-.523 0-.218.0715-.392.2147-.523.1431-.13.3297-.196.56-.196.2302 0 .4168.066.56.196.1431.131.2146.305.2146.523 0 .218-.0715.392-.2146.523-.1432.13-.3298.196-.56.196Zm3.8861 5.422c-.392 0-.7623-.093-1.1107-.28-.3422-.193-.6191-.469-.8307-.83-.2115-.367-.3173-.806-.3173-1.316 0-.517.1058-.955.3173-1.316.2116-.361.4885-.635.8307-.822.3484-.193.7187-.289 1.1107-.289s.7591.096 1.1013.289c.3425.187.6195.461.8305.822.212.361.317.799.317 1.316 0 .51-.105.949-.317 1.316-.211.361-.488.637-.8305.83-.3422.187-.7093.28-1.1013.28Zm0-1.11c.28 0 .4915-.119.6346-.355.1431-.243.2147-.563.2147-.961 0-.405-.0716-.725-.2147-.962-.1431-.236-.3546-.354-.6346-.354-.2863 0-.5009.118-.644.354-.1369.237-.2054.557-.2054.962 0 .398.0685.718.2054.961.1431.236.3577.355.644.355Zm3.1888.998v-4.629h1.12l.094.588h.037c.199-.187.417-.348.653-.485.243-.143.52-.215.831-.215.504 0 .868.168 1.092.504.23.33.345.784.345 1.363v2.874h-1.372v-2.697c0-.336-.046-.566-.14-.691-.087-.124-.23-.186-.429-.186-.174 0-.324.04-.448.121-.125.075-.261.184-.411.327v3.126h-1.372Zm6.704.112c-.305 0-.619-.059-.943-.177-.317-.118-.594-.274-.83-.467l.616-.858c.211.155.413.277.606.364.199.081.395.121.588.121.206 0 .355-.034.448-.103.094-.074.14-.171.14-.289 0-.106-.046-.193-.14-.261-.087-.069-.202-.131-.345-.187-.143-.062-.296-.124-.457-.187-.187-.074-.374-.168-.56-.28a1.5871 1.5871 0 0 1-.458-.429c-.124-.18-.186-.398-.186-.653 0-.43.161-.778.485-1.046.33-.267.759-.401 1.288-.401.355 0 .666.062.933.187.274.118.507.252.7.401l-.616.821c-.161-.124-.323-.221-.485-.289-.162-.068-.324-.103-.485-.103-.355 0-.532.122-.532.364 0 .15.087.265.261.346.18.074.389.155.625.242.199.069.392.159.579.271.193.106.352.249.476.429.131.175.196.405.196.691 0 .417-.162.772-.485 1.064-.324.286-.797.429-1.419.429Z"/>
  <path fill="var(--control-color-text-200-text, #737373)" d="m65.512 208.167-1.2973-6.123h.8026l.644 3.332c.056.33.1151.66.1774.989.0622.33.1213.66.1773.99h.0373c.0685-.33.14-.66.2147-.99.0747-.336.1462-.665.2147-.989l.8493-3.332h.7093l.8494 3.332c.0746.324.1493.653.224.989l.224.99h.0373l.168-.99c.056-.336.1151-.665.1773-.989l.644-3.332h.7467l-1.2693 6.123h-.9334l-.924-3.687c-.056-.236-.1089-.467-.1586-.691-.0436-.23-.0903-.463-.14-.7h-.0374c-.0435.237-.0933.47-.1493.7-.056.224-.1089.455-.1587.691l-.9053 3.687h-.924Zm6.5906 0v-4.536h.6346l.0654.821h.028c.1555-.286.3453-.513.5693-.681.224-.168.4636-.252.7187-.252.1804 0 .3422.031.4853.093l-.1493.672a1.8133 1.8133 0 0 0-.2054-.056c-.0622-.012-.14-.019-.2333-.019-.1929 0-.3951.078-.6067.234-.2053.155-.3857.426-.5413.812v2.912h-.7653Zm3.2357 0v-4.536h.7653v4.536h-.7653Zm.392-5.47c-.1494 0-.2738-.043-.3734-.13-.0933-.094-.14-.218-.14-.374 0-.149.0467-.27.14-.364.0996-.093.224-.14.3734-.14.1493 0 .2706.047.364.14.0995.094.1493.215.1493.364 0 .156-.0498.28-.1493.374-.0934.087-.2147.13-.364.13Zm3.3328 5.582c-.4853 0-.8244-.14-1.0173-.42-.1867-.28-.28-.644-.28-1.092v-2.511h-.672v-.579l.7093-.046.0934-1.27h.644v1.27h1.2226v.625h-1.2226v2.52c0 .28.0497.498.1493.653.1058.15.2893.224.5507.224.0808 0 .168-.012.2613-.037l.252-.084.1493.579a3.3293 3.3293 0 0 1-.4106.112 1.711 1.711 0 0 1-.4294.056Zm3.4367 0c-.4044 0-.7715-.094-1.1013-.28-.3298-.193-.5911-.467-.784-.822-.1929-.354-.2893-.777-.2893-1.269 0-.498.0964-.924.2893-1.279.1991-.354.4542-.628.7653-.821.3111-.193.6378-.289.98-.289.5787 0 1.0236.193 1.3347.578.3173.386.476.903.476 1.55 0 .081-.0031.162-.0093.242 0 .075-.0063.14-.0187.196h-3.0613c.0311.48.1804.862.448 1.148.2737.287.6284.43 1.064.43.2177 0 .4169-.031.5973-.094.1867-.068.364-.155.532-.261l.2707.504c-.1929.125-.4138.233-.6627.327-.2427.093-.5196.14-.8307.14Zm-1.428-2.744h2.4267c0-.461-.0996-.809-.2987-1.046-.1929-.242-.4666-.364-.8213-.364-.3173 0-.6036.125-.8587.374-.2489.242-.3982.588-.448 1.036Zm6.1627 4.582c-.0995 0-.196-.009-.2893-.028a2.1106 2.1106 0 0 1-.2427-.065l.1494-.607c.0497.013.1057.025.168.038.0622.018.1213.028.1773.028.2551 0 .4667-.094.6347-.28.168-.181.2986-.411.392-.691l.1026-.336-1.82-4.545h.7934l.924 2.51c.0684.193.14.402.2146.626.0809.224.1556.442.224.653h.0374c.0684-.205.1337-.42.196-.644.0622-.224.1244-.435.1866-.635l.812-2.51h.7467l-1.708 4.909c-.1058.299-.2333.566-.3827.803-.1431.236-.3235.423-.5413.56-.2116.143-.4698.214-.7747.214Zm6.0097-1.838c-.3671 0-.7125-.094-1.036-.28-.3174-.187-.5756-.458-.7747-.812-.1929-.355-.2893-.781-.2893-1.279 0-.51.0964-.943.2893-1.297.1991-.355.4573-.626.7747-.812.3235-.187.6689-.28 1.036-.28.3733 0 .7186.093 1.036.28.3173.186.5724.457.7653.812.1991.354.2987.787.2987 1.297 0 .498-.0996.924-.2987 1.279-.1929.354-.448.625-.7653.812-.3174.186-.6627.28-1.036.28Zm0-.635c.392 0 .7062-.159.9426-.476.2427-.323.364-.743.364-1.26 0-.523-.1213-.946-.364-1.269-.2364-.324-.5506-.486-.9426-.486-.3858 0-.7.162-.9427.486-.2427.323-.364.746-.364 1.269 0 .517.1213.937.364 1.26.2427.317.5569.476.9427.476Zm4.6199.635c-.4791 0-.8307-.15-1.0547-.448-.224-.305-.336-.747-.336-1.326v-2.874h.7747v2.772c0 .423.0653.731.196.924.1369.193.3547.289.6533.289.2365 0 .4449-.059.6254-.177.1866-.125.3858-.321.5973-.588v-3.22h.7649v4.536h-.6342l-.0654-.71h-.028c-.2115.249-.4355.448-.672.598-.2364.149-.5102.224-.8213.224Zm3.7519-.112v-4.536h.634l.066.821h.028c.155-.286.345-.513.569-.681.224-.168.463-.252.719-.252.18 0 .342.031.485.093l-.149.672a1.8553 1.8553 0 0 0-.206-.056c-.062-.012-.14-.019-.233-.019-.193 0-.395.078-.607.234-.205.155-.386.426-.541.812v2.912h-.765Zm6.896.112c-.398 0-.759-.094-1.083-.28-.323-.187-.579-.458-.765-.812-.187-.355-.28-.781-.28-1.279 0-.51.099-.943.298-1.297.206-.355.473-.626.803-.812.336-.187.697-.28 1.083-.28.298 0 .554.053.765.158.218.106.405.231.56.374l-.392.504a1.912 1.912 0 0 0-.42-.29c-.143-.074-.305-.112-.485-.112-.274 0-.52.075-.738.224-.211.144-.379.349-.504.616-.118.262-.177.567-.177.915 0 .517.128.937.383 1.26.261.317.6.476 1.017.476.212 0 .408-.043.588-.131.181-.093.339-.202.476-.326l.336.513a2.477 2.477 0 0 1-.681.429c-.249.1-.51.15-.784.15Zm4.028 0c-.367 0-.713-.094-1.036-.28-.318-.187-.576-.458-.775-.812-.193-.355-.289-.781-.289-1.279 0-.51.096-.943.289-1.297.199-.355.457-.626.775-.812.323-.187.669-.28 1.036-.28.373 0 .718.093 1.036.28.317.186.572.457.765.812.199.354.299.787.299 1.297 0 .498-.1.924-.299 1.279-.193.354-.448.625-.765.812-.318.186-.663.28-1.036.28Zm0-.635c.392 0 .706-.159.942-.476.243-.323.364-.743.364-1.26 0-.523-.121-.946-.364-1.269-.236-.324-.55-.486-.942-.486-.386 0-.7.162-.943.486-.243.323-.364.746-.364 1.269 0 .517.121.937.364 1.26.243.317.557.476.943.476Zm3.294.523v-4.536h.635l.065.653h.028c.199-.218.417-.398.654-.541.236-.15.488-.224.756-.224.348 0 .619.078.812.233.199.149.345.361.438.635.237-.255.476-.464.719-.626.243-.161.501-.242.775-.242.466 0 .812.152 1.036.457.23.299.345.737.345 1.316v2.875h-.765v-2.772c0-.423-.069-.731-.206-.924-.137-.193-.348-.29-.634-.29-.336 0-.716.234-1.139.7v3.286h-.765v-2.772c0-.423-.069-.731-.206-.924-.137-.193-.351-.29-.644-.29-.336 0-.715.234-1.138.7v3.286h-.766Zm7.739 0v-4.536h.634l.066.653h.028c.199-.218.417-.398.653-.541.236-.15.488-.224.756-.224.348 0 .619.078.812.233.199.149.345.361.439.635.236-.255.476-.464.718-.626.243-.161.501-.242.775-.242.467 0 .812.152 1.036.457.23.299.345.737.345 1.316v2.875h-.765v-2.772c0-.423-.068-.731-.205-.924-.137-.193-.349-.29-.635-.29-.336 0-.716.234-1.139.7v3.286h-.765v-2.772c0-.423-.068-.731-.205-.924-.137-.193-.352-.29-.644-.29-.336 0-.716.234-1.139.7v3.286h-.765Zm9.577.112c-.405 0-.772-.094-1.102-.28-.33-.193-.591-.467-.784-.822-.193-.354-.289-.777-.289-1.269 0-.498.096-.924.289-1.279.199-.354.454-.628.766-.821.311-.193.637-.289.98-.289.578 0 1.023.193 1.334.578.318.386.476.903.476 1.55 0 .081-.003.162-.009.242 0 .075-.006.14-.019.196h-3.061c.031.48.18.862.448 1.148.274.287.628.43 1.064.43.218 0 .417-.031.597-.094.187-.068.364-.155.532-.261l.271.504c-.193.125-.414.233-.663.327-.242.093-.519.14-.83.14Zm-1.428-2.744h2.426c0-.461-.099-.809-.298-1.046-.193-.242-.467-.364-.822-.364-.317 0-.603.125-.858.374-.249.242-.399.588-.448 1.036Zm4.219 2.632v-4.536h.635l.065.653h.028c.218-.218.448-.398.691-.541.242-.15.519-.224.83-.224.48 0 .828.152 1.046.457.224.299.336.737.336 1.316v2.875h-.766v-2.772c0-.423-.068-.731-.205-.924-.137-.193-.355-.29-.653-.29-.23 0-.439.06-.626.178-.18.118-.385.292-.616.522v3.286h-.765Zm6.532.112c-.485 0-.824-.14-1.017-.42-.187-.28-.28-.644-.28-1.092v-2.511h-.672v-.579l.709-.046.094-1.27h.644v1.27h1.222v.625h-1.222v2.52c0 .28.049.498.149.653.106.15.289.224.551.224.081 0 .168-.012.261-.037l.252-.084.149.579a3.314 3.314 0 0 1-.41.112 1.715 1.715 0 0 1-.43.056Zm2.82 0c-.323 0-.631-.059-.924-.178-.292-.124-.547-.273-.765-.448l.382-.513c.2.156.405.286.616.392.212.1.452.149.719.149.299 0 .523-.068.672-.205.149-.143.224-.311.224-.504 0-.155-.053-.286-.159-.392-.099-.106-.23-.193-.392-.261a5.7414 5.7414 0 0 0-.485-.206c-.211-.08-.42-.171-.625-.27-.206-.106-.374-.24-.504-.402-.131-.168-.196-.379-.196-.634 0-.367.137-.672.41-.915.28-.249.666-.373 1.158-.373.28 0 .541.05.784.149.242.1.451.221.625.364l-.373.485a2.4806 2.4806 0 0 0-.486-.289c-.168-.075-.351-.112-.55-.112-.286 0-.498.065-.635.196-.131.131-.196.283-.196.457 0 .144.047.262.14.355.093.087.215.165.364.233.149.063.308.128.476.196.218.081.433.175.644.28.212.1.386.237.523.411.143.168.214.395.214.681 0 .243-.065.467-.196.672-.124.206-.311.371-.56.495-.242.125-.544.187-.905.187Zm3.126 0c-.155 0-.289-.053-.401-.159-.106-.112-.159-.252-.159-.42 0-.18.053-.323.159-.429.112-.112.246-.168.401-.168.15 0 .277.056.383.168.112.106.168.249.168.429 0 .168-.056.308-.168.42-.106.106-.233.159-.383.159Zm2.324 0c-.155 0-.289-.053-.401-.159-.106-.112-.159-.252-.159-.42 0-.18.053-.323.159-.429.112-.112.246-.168.401-.168.15 0 .277.056.383.168.112.106.168.249.168.429 0 .168-.056.308-.168.42-.106.106-.233.159-.383.159Zm2.325 0c-.156 0-.29-.053-.402-.159-.105-.112-.158-.252-.158-.42 0-.18.053-.323.158-.429.112-.112.246-.168.402-.168.149 0 .277.056.382.168.112.106.168.249.168.429 0 .168-.056.308-.168.42-.105.106-.233.159-.382.159Z"/>
  <rect width="212.667" height="52.3333" x="56.3333" y="194.5" stroke="var(--control-color-border-400-border, #898989)" stroke-width=".6667" rx="1"/>
</g>
<path stroke="var(--control-color-surface-200-surface, #EAEAEA)" d="M.5.5h319v223H.5z"/>
<defs>
  <clipPath id="clip0_2262_95738">
    <path fill="var(--control-color-surface-base-surface, #FFF)" d="M0 0h320v224H0z"/>
  </clipPath>
</defs>
</svg>
