<svg xmlns="http://www.w3.org/2000/svg" fill="none" viewBox="0 0 320 224" aria-labelledby="sizeMediumTitle sizeMediumDesc" role="img">
  <title id="sizeMediumTitle">Sizing of the checkbox - medium</title>
  <desc id="sizeMediumDesc">Diagram of the medium checkbox. The clickable area height of the checkbox is 32px, the height and width of the checkbox input is 24px and the line height of the label is 20px.</desc>
  <g clip-path="url(#clip0_2351_4113)">
    <path fill="var(--control-color-surface-100-surface, #F4F4F4)" d="M0 0h320v224H0z"/>
    <path fill="var(--control-color-visuals-clickable-area, #FCECAA)" d="M112 96h96v32h-96z"/>
    <rect width="23" height="23" x="112.25" y="100.5" fill="var(--control-color-visuals-background, #9EBAFF)" rx="1.5"/>
    <path stroke="var(--control-color-visuals-guide-text, #fff)" stroke-linecap="round" stroke-linejoin="round" stroke-width="2" d="m117.75 112 4 4 8-8"/>
    <rect width="23" height="23" x="112.25" y="100.5" stroke="var(--control-color-visuals-background, #9EBAFF)" rx="1.5"/>
    <path fill="var(--control-color-text-base-text, #222)" d="M145.01 117v-9.184h5.292v.98h-4.13v3.108h3.5v.98h-3.5V117h-1.162Zm6.806 0v-6.804h1.148V117h-1.148Zm.588-8.204c-.224 0-.411-.065-.56-.196-.14-.14-.21-.327-.21-.56 0-.224.07-.406.21-.546.149-.14.336-.21.56-.21.224 0 .406.07.546.21.149.14.224.322.224.546 0 .233-.075.42-.224.56-.14.131-.322.196-.546.196Zm5.615 8.372c-.606 0-1.157-.14-1.652-.42-.494-.289-.886-.7-1.176-1.232-.289-.532-.434-1.167-.434-1.904 0-.747.145-1.386.434-1.918.299-.532.682-.943 1.148-1.232.467-.289.957-.434 1.47-.434.868 0 1.536.289 2.002.868.476.579.714 1.353.714 2.324 0 .121-.004.243-.014.364 0 .112-.009.21-.028.294h-4.592c.047.719.271 1.293.672 1.722.411.429.943.644 1.596.644.327 0 .626-.047.896-.14.28-.103.546-.233.798-.392l.406.756c-.289.187-.62.35-.994.49-.364.14-.779.21-1.246.21Zm-2.142-4.116h3.64c0-.691-.149-1.213-.448-1.568-.289-.364-.7-.546-1.232-.546-.476 0-.905.187-1.288.56-.373.364-.597.882-.672 1.554Zm7.548 4.116c-.43 0-.742-.131-.938-.392-.187-.271-.28-.653-.28-1.148v-8.596h1.148v8.68c0 .177.032.308.098.392.065.075.14.112.224.112h.098c.037-.009.088-.019.154-.028l.154.868c-.075.037-.164.065-.266.084-.103.019-.234.028-.392.028Zm4.674 0c-.849 0-1.531-.308-2.044-.924-.513-.625-.77-1.503-.77-2.632 0-.737.135-1.372.406-1.904.28-.541.644-.957 1.092-1.246.457-.289.943-.434 1.456-.434.392 0 .733.07 1.022.21.289.14.583.331.882.574l-.056-1.162v-2.618h1.162V117h-.952l-.098-.798h-.042c-.261.261-.569.49-.924.686-.355.187-.733.28-1.134.28Zm.252-.966c.597 0 1.176-.313 1.736-.938v-3.556c-.289-.261-.569-.443-.84-.546a2.04 2.04 0 0 0-.812-.168c-.364 0-.695.112-.994.336-.289.215-.523.518-.7.91-.177.383-.266.835-.266 1.358 0 .812.163 1.451.49 1.918.327.457.789.686 1.386.686Zm8.104.798v-9.184h1.162v8.19h4.018V117h-5.18Zm8.265.168c-.569 0-1.045-.168-1.428-.504-.373-.345-.56-.821-.56-1.428 0-.747.331-1.316.994-1.708.672-.401 1.731-.681 3.178-.84 0-.289-.042-.565-.126-.826-.075-.261-.215-.471-.42-.63-.196-.168-.481-.252-.854-.252-.392 0-.761.075-1.106.224-.345.149-.653.317-.924.504l-.448-.798c.317-.205.705-.401 1.162-.588.467-.196.971-.294 1.512-.294.831 0 1.433.257 1.806.77.373.504.56 1.181.56 2.03V117h-.952l-.098-.812h-.042c-.317.261-.667.49-1.05.686-.373.196-.775.294-1.204.294Zm.336-.924c.327 0 .635-.079.924-.238.289-.159.597-.383.924-.672v-1.89c-1.129.14-1.923.35-2.38.63-.448.28-.672.639-.672 1.078 0 .383.117.663.35.84.233.168.518.252.854.252Zm8.161.924c-.318 0-.649-.075-.994-.224-.336-.159-.654-.373-.952-.644h-.042l-.098.7h-.924v-9.968h1.148v2.716l-.028 1.232c.308-.271.644-.495 1.008-.672.373-.187.746-.28 1.12-.28.886 0 1.558.313 2.016.938.457.625.686 1.465.686 2.52 0 .775-.14 1.437-.42 1.988-.271.551-.63.971-1.078 1.26-.439.289-.92.434-1.442.434Zm-.196-.966c.56 0 1.022-.238 1.386-.714.373-.485.56-1.148.56-1.988 0-.747-.14-1.349-.42-1.806-.271-.467-.728-.7-1.372-.7-.29 0-.584.079-.882.238-.299.159-.612.387-.938.686v3.57c.298.261.592.448.882.56.298.103.56.154.784.154Zm7.682.966c-.607 0-1.157-.14-1.652-.42-.495-.289-.887-.7-1.176-1.232-.289-.532-.434-1.167-.434-1.904 0-.747.145-1.386.434-1.918.299-.532.681-.943 1.148-1.232.467-.289.957-.434 1.47-.434.868 0 1.535.289 2.002.868.476.579.714 1.353.714 2.324 0 .121-.005.243-.014.364 0 .112-.009.21-.028.294h-4.592c.047.719.271 1.293.672 1.722.411.429.943.644 1.596.644.327 0 .625-.047.896-.14.28-.103.546-.233.798-.392l.406.756c-.289.187-.621.35-.994.49-.364.14-.779.21-1.246.21Zm-2.142-4.116h3.64c0-.691-.149-1.213-.448-1.568-.289-.364-.7-.546-1.232-.546-.476 0-.905.187-1.288.56-.373.364-.597.882-.672 1.554Zm7.547 4.116c-.429 0-.742-.131-.938-.392-.186-.271-.28-.653-.28-1.148v-8.596h1.148v8.68c0 .177.033.308.098.392.066.075.14.112.224.112h.098c.038-.009.089-.019.154-.028l.154.868c-.074.037-.163.065-.266.084-.102.019-.233.028-.392.028ZM54.6045 116.036a2.738 2.738 0 0 0 .834-.102c.278-.082.5263-.203.7451-.363.2187-.159.3942-.36.5264-.601.1367-.242.205-.522.205-.841 0-.342-.0774-.634-.2324-.875-.1549-.242-.3646-.438-.6289-.588-.2643-.155-.5742-.267-.9297-.335-.3509-.068-.7246-.102-1.1211-.102h-.8271v-.985h.8271c.3099 0 .6244-.032.9434-.096.319-.068.6061-.18.8613-.335a1.949 1.949 0 0 0 .6358-.601c.164-.251.2461-.558.2461-.923 0-.191-.0411-.38-.1231-.567-.0775-.187-.1982-.354-.3623-.499-.1641-.151-.3737-.269-.6289-.356-.2507-.091-.5469-.137-.8887-.137-.1458 0-.3008.014-.4648.041-.1641.023-.335.067-.5127.13-.1732.064-.3509.153-.5332.267-.1778.114-.3555.262-.5332.444l-.8067-.765c.1823-.233.3897-.426.6221-.581.2324-.16.4762-.287.7315-.383.2552-.1.5126-.171.7724-.212.2598-.041.5059-.062.7383-.062.4648 0 .8909.066 1.2783.199.3919.127.7292.31 1.0117.546.2826.237.5036.52.6631.848.1595.328.2393.691.2393 1.087 0 .278-.0388.538-.1162.779-.0729.242-.1778.463-.3145.663a2.563 2.563 0 0 1-.4922.527c-.1868.155-.3965.287-.6289.396.3236.119.597.269.8203.451.2279.178.4125.379.5537.602.1413.219.2439.451.3077.697.0638.246.0957.492.0957.739 0 .341-.0502.654-.1504.936-.0957.278-.2279.529-.3965.752-.1686.219-.3669.41-.5947.574a3.524 3.524 0 0 1-.7246.41c-.2598.11-.5287.19-.8067.24a4.1923 4.1923 0 0 1-.8135.082c-.442 0-.8431-.057-1.2031-.171-.36-.114-.6767-.249-.9502-.404-.2689-.154-.4945-.312-.6767-.471-.1778-.164-.3077-.294-.3897-.39l.8682-.827c.1959.214.3873.397.5742.547.1914.146.3805.264.5674.355.1914.092.3851.158.581.199.196.041.3965.061.6016.061Zm8.6611-9.427c.4512 0 .8659.071 1.2442.212.3782.137.7041.328.9775.575.2734.246.4854.542.6357.888.155.342.2325.718.2325 1.128 0 .292-.0342.567-.1026.827-.0683.26-.1663.513-.2939.759a5.505 5.505 0 0 1-.458.731 10.995 10.995 0 0 1-.5879.732l-2.9121 3.514h4.3408V117h-6.7471l4.4502-5.277c.155-.174.2985-.347.4307-.52.1367-.173.2552-.351.3555-.533.1002-.182.1777-.371.2324-.567.0592-.201.0888-.417.0888-.65 0-.237-.0478-.462-.1435-.677a1.6085 1.6085 0 0 0-.3965-.56c-.1686-.16-.3737-.287-.6152-.383-.2416-.096-.5104-.144-.8067-.144-.2597 0-.5081.041-.7451.123a3.1351 3.1351 0 0 0-.6631.329 3.6263 3.6263 0 0 0-.5879.478 5.399 5.399 0 0 0-.5058.568l-.9229-.752a6.67 6.67 0 0 1 .6563-.732c.237-.228.4944-.421.7724-.581.2826-.159.5925-.285.9297-.376.3418-.091.7224-.137 1.1416-.137ZM72.3672 113.138c0 .383.0456.749.1367 1.1.0957.351.2393.661.4307.93.1959.264.4397.476.7314.636.2962.155.6472.232 1.0528.232.3691 0 .6995-.077.9912-.232a2.315 2.315 0 0 0 .7382-.636c.2051-.269.3623-.579.4717-.93.1094-.351.1641-.717.1641-1.1 0-.388-.0547-.755-.1641-1.101-.1094-.351-.2666-.658-.4717-.923-.205-.264-.4534-.474-.7451-.629-.2916-.155-.6198-.232-.9843-.232-.3783 0-.7133.077-1.0049.232a2.2331 2.2331 0 0 0-.7383.629c-.2005.265-.3532.572-.458.923-.1003.346-.1504.713-.1504 1.101Zm-1.1348-3.849h1.0938v1.381c.1276-.223.2757-.428.4443-.615.1732-.187.3646-.347.5742-.479.2142-.137.4466-.241.6973-.314.2552-.078.5309-.116.8271-.116.515 0 .9799.104 1.3946.314.4192.21.7747.497 1.0664.861.2962.36.5218.782.6767 1.265.1595.483.2393 1 .2393 1.552 0 .547-.0843 1.064-.2529 1.551-.1641.484-.3965.907-.6973 1.272-.2962.36-.6517.647-1.0664.861-.4147.21-.8682.315-1.3604.315-.5605 0-1.0504-.121-1.4697-.363-.4147-.246-.7497-.576-1.0049-.991v3.753h-1.1621v-10.247Zm11.1153 4.731L80.3516 117h-1.3057l2.6318-3.862-2.83-3.849h1.3877l2.1123 2.892 1.9482-2.892h1.3193l-2.5771 3.78L85.9639 117h-1.4151l-2.2011-2.98Z"/>
    <path stroke="var(--control-color-visuals-guide-fill, #36F)" d="M94 96.5h10M99 96.5v31M94 127.5h10"/>
    <path fill="var(--control-color-text-base-text, #222)" d="M110.741 52.6094c.451 0 .866.0706 1.244.2119.379.1367.704.3281.978.5742.273.2461.485.5423.636.8887.155.3418.232.7178.232 1.1279 0 .2917-.034.5674-.102.8272a3.7493 3.7493 0 0 1-.294.7587c-.128.2461-.281.49-.458.7315-.174.237-.37.4808-.588.7314l-2.912 3.5137h4.34V63h-6.747l4.451-5.2773c.154-.1732.298-.3464.43-.5196.137-.1732.255-.3509.356-.5332.1-.1823.177-.3714.232-.5674.059-.2005.089-.417.089-.6494 0-.237-.048-.4625-.144-.6767a1.6121 1.6121 0 0 0-.396-.5606c-.169-.1595-.374-.2871-.615-.3828-.242-.0957-.511-.1435-.807-.1435-.26 0-.508.041-.745.123a3.068 3.068 0 0 0-.663.3281c-.21.1367-.406.2962-.588.4785a5.4707 5.4707 0 0 0-.506.5674l-.923-.7519c.205-.2644.424-.5082.656-.7315.237-.2278.495-.4215.773-.581.282-.1595.592-.2849.93-.376.341-.0912.722-.1367 1.141-.1367ZM122.157 63h-1.223v-2.6045h-5.278l4.409-7.6426h1.402l-3.863 6.6104h3.343v-2.9326h1.21V63ZM128.367 59.1377c0 .3828.046.7497.137 1.1006.096.3509.239.6608.431.9297.196.2643.439.4762.731.6357.296.155.647.2324 1.053.2324.369 0 .699-.0774.991-.2324a2.294 2.294 0 0 0 .738-.6357c.205-.2689.363-.5788.472-.9297.109-.3509.164-.7178.164-1.1006 0-.3874-.055-.7542-.164-1.1006-.109-.3509-.267-.6585-.472-.9228-.205-.2644-.453-.474-.745-.6289-.292-.155-.62-.2325-.984-.2325-.379 0-.713.0775-1.005.2325a2.2181 2.2181 0 0 0-.738.6289c-.201.2643-.354.5719-.458.9228-.101.3464-.151.7132-.151 1.1006Zm-1.135-3.8486h1.094v1.3808c.128-.2233.276-.4284.445-.6152.173-.1869.364-.3464.574-.4785a2.67 2.67 0 0 1 .697-.3145c.255-.0775.531-.1162.827-.1162.515 0 .98.1048 1.395.3145a3.162 3.162 0 0 1 1.066.8613c.296.36.522.7816.677 1.2646.159.4831.239 1.0004.239 1.5518 0 .5469-.084 1.0641-.253 1.5518-.164.483-.396.9069-.697 1.2714a3.3647 3.3647 0 0 1-1.067.8614c-.414.2096-.868.3144-1.36.3144-.56 0-1.05-.1207-1.47-.3623-.414-.2461-.749-.5765-1.004-.9912v3.7529h-1.163v-10.247Zm11.116 4.7304L136.352 63h-1.306l2.632-3.8623-2.83-3.8486h1.387l2.113 2.8916 1.948-2.8916h1.319l-2.577 3.7802L141.964 63h-1.415l-2.201-2.9805Z"/>
    <path stroke="var(--control-color-visuals-guide-fill, #36F)" d="M112.5 84V74M112.5 79h23M135.5 84V74"/>
    <path stroke="var(--control-color-visuals-guide-clickable-area, #FDE376)" stroke-linecap="round" d="M160 128v24"/>
    <rect width="49" height="24" x="135.5" y="152" fill="var(--control-color-visuals-guide-clickable-area, #FDE376)" rx="12"/>
    <path fill="var(--control-color-text-base-text, #222)" d="M150.45 166.368h-3.582L146 169h-1.887l3.733-10.247h1.668L153.239 169h-1.907l-.882-2.632Zm-3.103-1.456h2.632l-1.32-3.978-1.312 3.978Zm8.75 4.088h-1.75v-7.711h1.688v1.367c.082-.246.198-.462.349-.649.15-.192.319-.351.506-.479.191-.127.396-.223.615-.287.223-.064.449-.095.677-.095.068 0 .136.002.205.006.073 0 .143.007.212.021v1.723c-.092-.023-.18-.037-.267-.042a2.3154 2.3154 0 0 0-.253-.013c-.273 0-.531.052-.772.157-.242.1-.454.246-.636.438-.178.191-.319.423-.424.697-.1.269-.15.569-.15.902V169Zm6.897-7.854c.552 0 1.039.107 1.463.321.424.209.779.492 1.066.847.292.351.511.757.657 1.217.15.461.225.939.225 1.436v.69h-5.332c.032.287.107.549.226.786.123.233.276.436.458.609.187.168.396.301.629.396.232.091.476.137.731.137.251 0 .474-.027.67-.082.196-.055.369-.123.52-.205.155-.087.289-.18.403-.28.118-.101.223-.196.314-.288l1.115 1.067c-.155.182-.335.355-.54.519-.201.16-.431.301-.691.424-.255.123-.54.219-.854.287-.315.073-.663.11-1.046.11-.547 0-1.046-.098-1.497-.294-.451-.201-.839-.476-1.162-.827-.319-.356-.568-.777-.745-1.265-.178-.492-.267-1.03-.267-1.613 0-.369.043-.725.13-1.067.091-.342.216-.658.376-.95.159-.296.351-.565.574-.807.228-.246.476-.453.745-.622.269-.173.558-.307.868-.403.31-.096.631-.143.964-.143Zm-.014 1.524c-.241 0-.464.043-.669.13-.201.086-.381.207-.54.362-.16.15-.297.331-.411.54-.109.205-.191.431-.246.677h3.541c-.018-.242-.073-.465-.164-.67-.091-.21-.212-.392-.362-.547a1.5582 1.5582 0 0 0-.513-.362c-.196-.087-.408-.13-.636-.13Zm12.004-1.381V169h-1.674v-1.039c-.242.346-.547.629-.916.848-.37.218-.821.328-1.354.328-.501 0-.962-.101-1.381-.301a3.3741 3.3741 0 0 1-1.087-.841c-.305-.36-.542-.781-.711-1.265-.168-.483-.253-1.004-.253-1.565 0-.551.087-1.071.26-1.559.178-.487.422-.913.732-1.278.31-.364.676-.652 1.1-.861.429-.214.893-.321 1.395-.321.305 0 .579.038.82.116.246.077.458.173.636.287.182.114.332.237.451.369.123.128.216.244.28.349v-.978h1.702Zm-5.68 3.849c0 .323.043.631.13.923.091.291.221.549.389.772.173.219.383.394.629.526.246.133.527.199.841.199.328 0 .617-.066.868-.199.251-.132.46-.307.629-.526.173-.223.303-.481.39-.772.086-.292.13-.6.13-.923 0-.324-.046-.631-.137-.923-.091-.296-.226-.556-.403-.779a1.919 1.919 0 0 0-.636-.54c-.246-.133-.527-.199-.841-.199-.314 0-.595.066-.841.199-.246.132-.456.312-.629.54-.168.223-.298.483-.389.779-.087.292-.13.599-.13.923Z"/>
    <circle cx="160" cy="128" r="2" fill="var(--control-color-visuals-guide-clickable-area, #FDE376)" transform="rotate(-90 160 128)"/>
    <path stroke="var(--control-color-visuals-guide-fill, #36F)" d="M216 102.5h10M221 102.5v19M216 121.5h10"/>
    <path fill="var(--control-color-text-base-text, #222)" d="M238.741 106.609c.451 0 .866.071 1.244.212.379.137.704.328.978.575.273.246.485.542.636.888.155.342.232.718.232 1.128 0 .292-.034.567-.102.827-.069.26-.167.513-.294.759-.128.246-.281.49-.458.731-.174.237-.37.481-.588.732l-2.912 3.514h4.34V117h-6.747l4.451-5.277c.154-.174.298-.347.43-.52.137-.173.255-.351.356-.533.1-.182.177-.371.232-.567.059-.201.089-.417.089-.65a1.64 1.64 0 0 0-.144-.677 1.607 1.607 0 0 0-.396-.56c-.169-.16-.374-.287-.615-.383-.242-.096-.511-.144-.807-.144-.26 0-.508.041-.745.123a3.104 3.104 0 0 0-.663.329c-.21.136-.406.296-.588.478-.182.178-.351.367-.506.568l-.923-.752c.205-.265.424-.509.656-.732.237-.228.495-.421.773-.581.282-.159.592-.285.93-.376.341-.091.722-.137 1.141-.137Zm8.518 9.468c.351 0 .667-.082.95-.246.287-.169.531-.426.731-.772.201-.347.356-.782.465-1.306.11-.524.164-1.146.164-1.866 0-.72-.054-1.342-.164-1.866-.109-.529-.264-.967-.465-1.313-.2-.346-.444-.602-.731-.766-.283-.168-.599-.253-.95-.253-.356 0-.677.085-.964.253-.283.164-.524.42-.725.766-.2.346-.355.784-.465 1.313-.104.524-.157 1.146-.157 1.866 0 .72.053 1.342.157 1.866.11.524.265.959.465 1.306.201.346.442.603.725.772.287.164.608.246.964.246Zm0 1.06c-.556 0-1.051-.114-1.484-.342-.433-.228-.799-.563-1.1-1.005-.296-.447-.524-.996-.684-1.647-.155-.652-.232-1.404-.232-2.256 0-.862.077-1.62.232-2.277.16-.656.388-1.205.684-1.647.301-.447.667-.784 1.1-1.012.433-.228.928-.342 1.484-.342.551 0 1.043.114 1.476.342.433.228.8.565 1.101 1.012.301.442.529.991.684 1.647.159.657.239 1.415.239 2.277 0 .852-.08 1.604-.239 2.256-.155.651-.383 1.2-.684 1.647-.301.442-.668.777-1.101 1.005-.433.228-.925.342-1.476.342ZM256.367 113.138c0 .383.046.749.137 1.1.096.351.239.661.431.93.196.264.439.476.731.636.296.155.647.232 1.053.232.369 0 .699-.077.991-.232.292-.16.538-.372.738-.636.205-.269.363-.579.472-.93.109-.351.164-.717.164-1.1 0-.388-.055-.755-.164-1.101-.109-.351-.267-.658-.472-.923-.205-.264-.453-.474-.745-.629-.292-.155-.62-.232-.984-.232-.379 0-.713.077-1.005.232-.292.155-.538.365-.738.629-.201.265-.354.572-.458.923-.101.346-.151.713-.151 1.101Zm-1.135-3.849h1.094v1.381c.128-.223.276-.428.445-.615.173-.187.364-.347.574-.479.214-.137.446-.241.697-.314.255-.078.531-.116.827-.116.515 0 .98.104 1.395.314.419.21.774.497 1.066.861.296.36.522.782.677 1.265.159.483.239 1 .239 1.552 0 .547-.084 1.064-.253 1.551-.164.484-.396.907-.697 1.272-.296.36-.652.647-1.067.861-.414.21-.868.315-1.36.315-.56 0-1.05-.121-1.47-.363-.414-.246-.749-.576-1.004-.991v3.753h-1.163v-10.247Zm11.116 4.731-1.996 2.98h-1.306l2.632-3.862-2.83-3.849h1.387l2.113 2.892 1.948-2.892h1.319l-2.577 3.78 2.926 3.931h-1.415l-2.201-2.98Z"/>
  </g>
  <defs>
    <clipPath id="clip0_2351_4113">
      <path fill="#fff" d="M0 0h320v224H0z"/>
    </clipPath>
  </defs>
</svg>
