<svg xmlns="http://www.w3.org/2000/svg" fill="none" viewBox="0 0 320 224" aria-labelledby="varInvalidTitle varInvalidDesc" role="img">
  <title id="varInvalidTitle">Checkbox invalid variant</title>
  <desc id="varInvalidDesc">The invalid variant of the checkbox in unchecked and checked status.</desc>
  <g clip-path="url(#clip0_2359_6578)">
    <path fill="var(--control-color-surface-100-surface, #F4F4F4)" d="M0 0h320v224H0z"/>
    <rect width="31" height="31" x="103.75" y="68.5" stroke="var(--control-color-state-danger-container-default-state, #FF575C)" rx="1.5"/>
    <path fill="var(--control-color-text-base-text, #222)" d="M144.69 90V79.504h6.048v1.12h-4.72v3.552h4v1.12h-4V90h-1.328Zm7.778 0v-7.776h1.312V90h-1.312Zm.672-9.376c-.256 0-.469-.0747-.64-.224-.16-.16-.24-.3733-.24-.64 0-.256.08-.464.24-.624.171-.16.384-.24.64-.24s.464.08.624.24c.171.16.256.368.256.624 0 .2667-.085.48-.256.64-.16.1493-.368.224-.624.224Zm6.418 9.568c-.694 0-1.323-.16-1.888-.48-.566-.3307-1.014-.8-1.344-1.408-.331-.608-.496-1.3333-.496-2.176 0-.8533.165-1.584.496-2.192.341-.608.778-1.0773 1.312-1.408.533-.3307 1.093-.496 1.68-.496.992 0 1.754.3307 2.288.992.544.6613.816 1.5467.816 2.656 0 .1387-.006.2773-.016.416 0 .128-.011.24-.032.336h-5.248c.053.8213.309 1.4773.768 1.968.469.4907 1.077.736 1.824.736.373 0 .714-.0533 1.024-.16.32-.1173.624-.2667.912-.448l.464.864c-.331.2133-.71.4-1.136.56-.416.16-.891.24-1.424.24Zm-2.448-4.704h4.16c0-.7893-.171-1.3867-.512-1.792-.331-.416-.8-.624-1.408-.624-.544 0-1.035.2133-1.472.64-.427.416-.683 1.008-.768 1.776Zm8.625 4.704c-.49 0-.848-.1493-1.072-.448-.213-.3093-.32-.7467-.32-1.312v-9.824h1.312v9.92c0 .2027.038.352.112.448.075.0853.16.128.256.128h.112c.043-.0107.102-.0213.176-.032l.176.992c-.085.0427-.186.0747-.304.096-.117.0213-.266.032-.448.032Zm5.342 0c-.97 0-1.749-.352-2.336-1.056-.586-.7147-.88-1.7173-.88-3.008 0-.8427.155-1.568.464-2.176.32-.6187.736-1.0933 1.248-1.424.523-.3307 1.078-.496 1.664-.496.448 0 .838.08 1.168.24.331.16.667.3787 1.008.656l-.064-1.328v-2.992h1.328V90h-1.088l-.112-.912h-.048c-.298.2987-.65.56-1.056.784-.405.2133-.837.32-1.296.32Zm.288-1.104c.683 0 1.344-.3573 1.984-1.072v-4.064c-.33-.2987-.65-.5067-.96-.624a2.3305 2.3305 0 0 0-.928-.192c-.416 0-.794.128-1.136.384-.33.2453-.597.592-.8 1.04-.202.4373-.304.9547-.304 1.552 0 .928.187 1.6587.56 2.192.374.5227.902.784 1.584.784Zm9.263.912V79.504h1.328v9.36h4.592V90h-5.92Zm9.445.192c-.651 0-1.195-.192-1.632-.576-.427-.3947-.64-.9387-.64-1.632 0-.8533.378-1.504 1.136-1.952.768-.4587 1.978-.7787 3.632-.96 0-.3307-.048-.6453-.144-.944-.086-.2987-.246-.5387-.48-.72-.224-.192-.55-.288-.976-.288-.448 0-.87.0853-1.264.256-.395.1707-.747.3627-1.056.576l-.512-.912c.362-.2347.805-.4587 1.328-.672.533-.224 1.109-.336 1.728-.336.949 0 1.637.2933 2.064.88.426.576.64 1.3493.64 2.32V90h-1.088l-.112-.928h-.048c-.363.2987-.763.56-1.2.784-.427.224-.886.336-1.376.336Zm.384-1.056c.373 0 .725-.0907 1.056-.272.33-.1813.682-.4373 1.056-.768v-2.16c-1.291.16-2.198.4-2.72.72-.512.32-.768.7307-.768 1.232 0 .4373.133.7573.4.96.266.192.592.288.976.288Zm9.326 1.056c-.362 0-.741-.0853-1.136-.256-.384-.1813-.746-.4267-1.088-.736h-.048l-.112.8h-1.056V78.608h1.312v3.104l-.032 1.408a5.168 5.168 0 0 1 1.152-.768c.427-.2133.854-.32 1.28-.32 1.014 0 1.782.3573 2.304 1.072.523.7147.784 1.6747.784 2.88 0 .8853-.16 1.6427-.48 2.272-.309.6293-.72 1.1093-1.232 1.44-.501.3307-1.05.496-1.648.496Zm-.224-1.104c.64 0 1.168-.272 1.584-.816.427-.5547.64-1.312.64-2.272 0-.8533-.16-1.5413-.48-2.064-.309-.5333-.832-.8-1.568-.8-.33 0-.666.0907-1.008.272-.341.1813-.698.4427-1.072.784v4.08c.342.2987.678.512 1.008.64.342.1173.64.176.896.176Zm8.78 1.104c-.693 0-1.323-.16-1.888-.48-.565-.3307-1.013-.8-1.344-1.408-.331-.608-.496-1.3333-.496-2.176 0-.8533.165-1.584.496-2.192.341-.608.779-1.0773 1.312-1.408s1.093-.496 1.68-.496c.992 0 1.755.3307 2.288.992.544.6613.816 1.5467.816 2.656 0 .1387-.005.2773-.016.416 0 .128-.011.24-.032.336h-5.248c.053.8213.309 1.4773.768 1.968.469.4907 1.077.736 1.824.736.373 0 .715-.0533 1.024-.16.32-.1173.624-.2667.912-.448l.464.864c-.331.2133-.709.4-1.136.56-.416.16-.891.24-1.424.24Zm-2.448-4.704h4.16c0-.7893-.171-1.3867-.512-1.792-.331-.416-.8-.624-1.408-.624-.544 0-1.035.2133-1.472.64-.427.416-.683 1.008-.768 1.776Zm8.626 4.704c-.491 0-.848-.1493-1.072-.448-.214-.3093-.32-.7467-.32-1.312v-9.824h1.312v9.92c0 .2027.037.352.112.448.074.0853.16.128.256.128h.112c.042-.0107.101-.0213.176-.032l.176.992c-.086.0427-.187.0747-.304.096-.118.0213-.267.032-.448.032Z"/>
    <rect width="31" height="31" x="103.75" y="124.5" fill="var(--control-color-state-danger-container-default-state, #FF575C)" rx="1.5"/>
    <path stroke="var(--colors-neutral-base-white, #FFF)" stroke-linecap="round" stroke-linejoin="round" stroke-width="2" d="m111.75 140 5 5 10-10"/>
    <rect width="31" height="31" x="103.75" y="124.5" stroke="var(--control-color-border-danger-border, #FF575C)" rx="1.5"/>
    <path fill="var(--control-color-text-base-text, #222)" d="M144.69 146v-10.496h6.048v1.12h-4.72v3.552h4v1.12h-4V146h-1.328Zm7.778 0v-7.776h1.312V146h-1.312Zm.672-9.376c-.256 0-.469-.075-.64-.224-.16-.16-.24-.373-.24-.64 0-.256.08-.464.24-.624.171-.16.384-.24.64-.24s.464.08.624.24c.171.16.256.368.256.624 0 .267-.085.48-.256.64-.16.149-.368.224-.624.224Zm6.418 9.568c-.694 0-1.323-.16-1.888-.48-.566-.331-1.014-.8-1.344-1.408-.331-.608-.496-1.333-.496-2.176 0-.853.165-1.584.496-2.192.341-.608.778-1.077 1.312-1.408.533-.331 1.093-.496 1.68-.496.992 0 1.754.331 2.288.992.544.661.816 1.547.816 2.656 0 .139-.006.277-.016.416 0 .128-.011.24-.032.336h-5.248c.053.821.309 1.477.768 1.968.469.491 1.077.736 1.824.736.373 0 .714-.053 1.024-.16.32-.117.624-.267.912-.448l.464.864c-.331.213-.71.4-1.136.56-.416.16-.891.24-1.424.24Zm-2.448-4.704h4.16c0-.789-.171-1.387-.512-1.792-.331-.416-.8-.624-1.408-.624-.544 0-1.035.213-1.472.64-.427.416-.683 1.008-.768 1.776Zm8.625 4.704c-.49 0-.848-.149-1.072-.448-.213-.309-.32-.747-.32-1.312v-9.824h1.312v9.92c0 .203.038.352.112.448.075.085.16.128.256.128h.112c.043-.011.102-.021.176-.032l.176.992c-.085.043-.186.075-.304.096-.117.021-.266.032-.448.032Zm5.342 0c-.97 0-1.749-.352-2.336-1.056-.586-.715-.88-1.717-.88-3.008 0-.843.155-1.568.464-2.176.32-.619.736-1.093 1.248-1.424.523-.331 1.078-.496 1.664-.496.448 0 .838.08 1.168.24.331.16.667.379 1.008.656l-.064-1.328v-2.992h1.328V146h-1.088l-.112-.912h-.048c-.298.299-.65.56-1.056.784-.405.213-.837.32-1.296.32Zm.288-1.104c.683 0 1.344-.357 1.984-1.072v-4.064c-.33-.299-.65-.507-.96-.624a2.3305 2.3305 0 0 0-.928-.192c-.416 0-.794.128-1.136.384-.33.245-.597.592-.8 1.04-.202.437-.304.955-.304 1.552 0 .928.187 1.659.56 2.192.374.523.902.784 1.584.784Zm9.263.912v-10.496h1.328v9.36h4.592V146h-5.92Zm9.445.192c-.651 0-1.195-.192-1.632-.576-.427-.395-.64-.939-.64-1.632 0-.853.378-1.504 1.136-1.952.768-.459 1.978-.779 3.632-.96 0-.331-.048-.645-.144-.944-.086-.299-.246-.539-.48-.72-.224-.192-.55-.288-.976-.288-.448 0-.87.085-1.264.256-.395.171-.747.363-1.056.576l-.512-.912c.362-.235.805-.459 1.328-.672.533-.224 1.109-.336 1.728-.336.949 0 1.637.293 2.064.88.426.576.64 1.349.64 2.32V146h-1.088l-.112-.928h-.048c-.363.299-.763.56-1.2.784-.427.224-.886.336-1.376.336Zm.384-1.056c.373 0 .725-.091 1.056-.272.33-.181.682-.437 1.056-.768v-2.16c-1.291.16-2.198.4-2.72.72-.512.32-.768.731-.768 1.232 0 .437.133.757.4.96.266.192.592.288.976.288Zm9.326 1.056c-.362 0-.741-.085-1.136-.256-.384-.181-.746-.427-1.088-.736h-.048l-.112.8h-1.056v-11.392h1.312v3.104l-.032 1.408c.352-.309.736-.565 1.152-.768.427-.213.854-.32 1.28-.32 1.014 0 1.782.357 2.304 1.072.523.715.784 1.675.784 2.88 0 .885-.16 1.643-.48 2.272-.309.629-.72 1.109-1.232 1.44-.501.331-1.05.496-1.648.496Zm-.224-1.104c.64 0 1.168-.272 1.584-.816.427-.555.64-1.312.64-2.272 0-.853-.16-1.541-.48-2.064-.309-.533-.832-.8-1.568-.8-.33 0-.666.091-1.008.272-.341.181-.698.443-1.072.784v4.08c.342.299.678.512 1.008.64.342.117.64.176.896.176Zm8.78 1.104c-.693 0-1.323-.16-1.888-.48-.565-.331-1.013-.8-1.344-1.408-.331-.608-.496-1.333-.496-2.176 0-.853.165-1.584.496-2.192.341-.608.779-1.077 1.312-1.408.533-.331 1.093-.496 1.68-.496.992 0 1.755.331 2.288.992.544.661.816 1.547.816 2.656 0 .139-.005.277-.016.416 0 .128-.011.24-.032.336h-5.248c.053.821.309 1.477.768 1.968.469.491 1.077.736 1.824.736.373 0 .715-.053 1.024-.16.32-.117.624-.267.912-.448l.464.864c-.331.213-.709.4-1.136.56-.416.16-.891.24-1.424.24Zm-2.448-4.704h4.16c0-.789-.171-1.387-.512-1.792-.331-.416-.8-.624-1.408-.624-.544 0-1.035.213-1.472.64-.427.416-.683 1.008-.768 1.776Zm8.626 4.704c-.491 0-.848-.149-1.072-.448-.214-.309-.32-.747-.32-1.312v-9.824h1.312v9.92c0 .203.037.352.112.448.074.085.16.128.256.128h.112c.042-.011.101-.021.176-.032l.176.992c-.086.043-.187.075-.304.096-.118.021-.267.032-.448.032Z"/>
  </g>
  <defs>
    <clipPath id="clip0_2359_6578">
      <path fill="#fff" d="M0 0h320v224H0z"/>
    </clipPath>
  </defs>
</svg>
