<svg xmlns="http://www.w3.org/2000/svg" fill="none" viewBox="0 0 320 220">
  <g clip-path="url(#clip0_2351_5157)">
    <path fill="#EAEAEA" d="M0 0h320v224H0z"/>
    <rect width="248" height="248" x="36" y="-27.5" fill="#fff" rx="1.3333"/>
    <path fill="#222" d="M60.416 10.692c-.6827 0-1.3653-.128-2.048-.384-.672-.256-1.2747-.6293-1.808-1.12l1.344-1.616c.3733.32.7893.5813 1.248.784s.9013.304 1.328.304c.4907 0 .8533-.0907 1.088-.272.2453-.1813.368-.4267.368-.736 0-.3307-.1387-.5707-.416-.72-.2667-.16-.6293-.336-1.088-.528l-1.36-.576c-.352-.1493-.688-.3467-1.008-.592-.32-.256-.5813-.5707-.784-.944-.2027-.3733-.304-.8107-.304-1.312 0-.576.1547-1.0987.464-1.568.32-.4693.7573-.8427 1.312-1.12.5653-.2773 1.2107-.416 1.936-.416.5973 0 1.1947.1173 1.792.352.5973.2347 1.12.576 1.568 1.024l-1.2 1.488c-.3413-.2667-.6827-.4693-1.024-.608-.3413-.1493-.72-.224-1.136-.224-.4053 0-.7307.0853-.976.256-.2347.16-.352.3893-.352.688 0 .32.1493.56.448.72.3093.16.688.3307 1.136.512l1.344.544c.6293.256 1.1307.608 1.504 1.056.3733.448.56 1.04.56 1.776 0 .576-.1547 1.1093-.464 1.6-.3093.4907-.7573.8853-1.344 1.184-.5867.2987-1.296.448-2.128.448Zm9.0666 0c-.7573 0-1.44-.1653-2.048-.496-.608-.3307-1.088-.8053-1.44-1.424-.352-.6187-.528-1.3653-.528-2.24 0-.864.176-1.6053.528-2.224.3627-.6187.832-1.0933 1.408-1.424.576-.3413 1.1787-.512 1.808-.512.7574 0 1.3814.1707 1.872.512.5014.3307.8747.784 1.12 1.36.256.5653.384 1.2107.384 1.936a5.786 5.786 0 0 1-.032.608c-.0213.192-.0426.336-.064.432h-4.752c.1067.576.3467 1.0027.72 1.28.3734.2667.8214.4 1.344.4.5654 0 1.136-.176 1.712-.528l.784 1.424c-.4053.2773-.8586.496-1.36.656-.5013.16-.9866.24-1.456.24Zm-1.76-5.024h2.864c0-.4373-.1066-.7947-.32-1.072-.2026-.288-.5386-.432-1.008-.432-.3626 0-.688.128-.976.384-.288.2453-.4746.6187-.56 1.12Zm8.6493 5.024c-.8107 0-1.376-.24-1.696-.72-.3094-.4907-.464-1.136-.464-1.936V-.716h2.352v8.848c0 .2453.0426.416.128.512.096.096.192.144.288.144h.128a2.0957 2.0957 0 0 1 .16-.032l.288 1.744c-.128.0533-.2934.096-.496.128-.192.0427-.4214.064-.688.064Zm5.9701 0c-.7573 0-1.44-.1653-2.048-.496-.608-.3307-1.088-.8053-1.44-1.424-.352-.6187-.528-1.3653-.528-2.24 0-.864.176-1.6053.528-2.224.3627-.6187.832-1.0933 1.408-1.424.576-.3413 1.1787-.512 1.808-.512.7573 0 1.3813.1707 1.872.512.5013.3307.8747.784 1.12 1.36.256.5653.384 1.2107.384 1.936a5.813 5.813 0 0 1-.032.608c-.0213.192-.0427.336-.064.432h-4.752c.1067.576.3467 1.0027.72 1.28.3733.2667.8213.4 1.344.4.5653 0 1.136-.176 1.712-.528l.784 1.424c-.4053.2773-.8587.496-1.36.656-.5013.16-.9867.24-1.456.24Zm-1.76-5.024h2.864c0-.4373-.1067-.7947-.32-1.072-.2027-.288-.5387-.432-1.008-.432-.3627 0-.688.128-.976.384-.288.2453-.4747.6187-.56 1.12Zm9.9453 5.024c-.736 0-1.4027-.16-2-.48-.5867-.3307-1.056-.8053-1.408-1.424-.3414-.6293-.512-1.3813-.512-2.256 0-.8853.192-1.6373.576-2.256.384-.6187.8906-1.088 1.52-1.408.6293-.3307 1.3066-.496 2.0319-.496.4907 0 .9227.08 1.2961.24.384.16.7253.3627 1.024.608l-1.104 1.52c-.3734-.3093-.7307-.464-1.072-.464-.5654 0-1.0187.2027-1.36.608-.3307.4053-.496.9547-.496 1.648 0 .6827.1653 1.232.496 1.648.3413.4053.768.608 1.28.608.256 0 .5066-.0533.752-.16a3.5573 3.5573 0 0 0 .672-.416l.928 1.536c-.3947.3413-.8214.5867-1.28.736-.4587.1387-.9067.208-1.344.208Zm6.9125 0c-.9814 0-1.6854-.2827-2.112-.848-.416-.5653-.624-1.3067-.624-2.224V4.404h-1.088V2.66l1.216-.096.272-2.112h1.952v2.112h1.904v1.84h-1.904v3.184c0 .448.0906.7733.272.976.192.192.4426.288.752.288.128 0 .256-.016.384-.048.1386-.032.2613-.0693.368-.112l.368 1.712c-.2027.064-.4534.128-.752.192-.288.064-.624.096-1.008.096Zm7.1522 2.912c-.235 0-.443-.016-.624-.048a6.7033 6.7033 0 0 1-.496-.112l.416-1.792c.075.0107.16.0267.256.048.096.032.187.048.272.048.395 0 .699-.096.912-.288.213-.192.373-.4427.48-.752l.112-.416-3.056-7.728h2.368l1.136 3.408c.117.3627.224.7307.32 1.104.096.3733.197.7573.304 1.152h.064c.085-.3733.171-.7467.256-1.12.096-.384.192-.7627.288-1.136l.96-3.408h2.256l-2.752 8.016c-.245.6613-.517 1.216-.816 1.664-.299.4587-.661.8-1.088 1.024-.416.224-.939.336-1.568.336Zm10.747-2.912c-.672 0-1.307-.16-1.904-.48-.587-.3307-1.062-.8053-1.424-1.424-.363-.6293-.544-1.3813-.544-2.256 0-.8853.181-1.6373.544-2.256.362-.6187.837-1.088 1.424-1.408.597-.3307 1.232-.496 1.904-.496.672 0 1.301.1653 1.888.496.586.32 1.061.7893 1.424 1.408.362.6187.544 1.3707.544 2.256 0 .8747-.182 1.6267-.544 2.256-.363.6187-.838 1.0933-1.424 1.424-.587.32-1.216.48-1.888.48Zm0-1.904c.48 0 .842-.2027 1.088-.608.245-.416.368-.9653.368-1.648 0-.6933-.123-1.2427-.368-1.648-.246-.4053-.608-.608-1.088-.608-.491 0-.859.2027-1.104.608-.235.4053-.352.9547-.352 1.648 0 .6827.117 1.232.352 1.648.245.4053.613.608 1.104.608Zm7.851 1.904c-.864 0-1.494-.2827-1.888-.848-.384-.576-.576-1.36-.576-2.352V2.564h2.352v4.624c0 .5653.08.96.24 1.184.16.2133.41.32.752.32.298 0 .549-.0693.752-.208.202-.1387.421-.3627.656-.672V2.564h2.352V10.5h-1.92l-.176-1.104h-.048c-.331.3947-.694.7093-1.088.944-.395.2347-.864.352-1.408.352Zm6.709-.192V2.564h1.92l.16 1.392h.064c.288-.5333.635-.928 1.04-1.184.406-.2667.811-.4 1.216-.4.224 0 .411.016.56.048.15.0213.278.0587.384.112l-.384 2.032a2.8945 2.8945 0 0 0-.416-.096c-.128-.0213-.277-.032-.448-.032-.298 0-.613.112-.944.336-.32.2133-.586.5867-.8 1.12V10.5h-2.352Zm11.579.192c-.726 0-1.302-.2293-1.728-.688-.427-.4693-.64-1.04-.64-1.712 0-.832.352-1.4827 1.056-1.952.704-.4693 1.84-.784 3.408-.944-.022-.352-.128-.6293-.32-.832-.182-.2133-.491-.32-.928-.32-.331 0-.667.064-1.008.192-.342.128-.704.304-1.088.528l-.848-1.552a7.8095 7.8095 0 0 1 1.6-.752c.576-.192 1.173-.288 1.792-.288 1.013 0 1.792.2933 2.336.88.544.5867.816 1.488.816 2.704V10.5h-1.92l-.16-.816h-.064c-.331.2987-.688.544-1.072.736-.374.1813-.784.272-1.232.272Zm.8-1.824c.266 0 .496-.0587.688-.176.202-.128.405-.2933.608-.496V6.804c-.832.1067-1.408.2773-1.728.512-.32.224-.48.4907-.48.8 0 .256.08.448.24.576.17.1173.394.176.672.176Zm8.469 5.008c-.619 0-1.179-.0693-1.68-.208-.501-.1387-.901-.3573-1.2-.656-.299-.2987-.448-.6827-.448-1.152 0-.64.379-1.1733 1.136-1.6v-.064c-.203-.1387-.379-.3147-.528-.528-.139-.2133-.208-.4853-.208-.816 0-.288.085-.5653.256-.832.171-.2667.384-.4853.64-.656V7.3c-.277-.192-.528-.4693-.752-.832-.213-.3627-.32-.7733-.32-1.232 0-.64.155-1.168.464-1.584.309-.4267.715-.7467 1.216-.96.501-.2133 1.035-.32 1.6-.32.469 0 .88.064 1.232.192h2.896v1.712h-1.264c.075.1173.133.2667.176.448.053.1813.08.3787.08.592 0 .608-.139 1.1093-.416 1.504-.277.3947-.651.688-1.12.88-.469.192-.997.288-1.584.288-.309 0-.629-.0533-.96-.16-.192.16-.288.3573-.288.592 0 .2027.091.352.272.448.181.096.491.144.928.144h1.28c.981 0 1.728.16 2.24.48.523.3093.784.8213.784 1.536 0 .544-.181 1.0293-.544 1.456-.363.4373-.875.7787-1.536 1.024-.661.2453-1.445.368-2.352.368Zm.176-7.312c.309 0 .565-.112.768-.336.213-.224.32-.5547.32-.992 0-.416-.107-.7307-.32-.944-.203-.224-.459-.336-.768-.336s-.571.1067-.784.32c-.203.2133-.304.5333-.304.96 0 .4373.101.768.304.992.213.224.475.336.784.336Zm.192 5.84c.533 0 .971-.096 1.312-.288.341-.192.512-.4213.512-.688 0-.2453-.107-.4107-.32-.496-.203-.0853-.501-.128-.896-.128h-.816c-.267 0-.491-.0107-.672-.032-.171-.0107-.32-.032-.448-.064-.288.256-.432.5173-.432.784 0 .2987.16.5227.48.672.331.16.757.24 1.28.24Zm8.618-1.712c-.758 0-1.44-.1653-2.048-.496-.608-.3307-1.088-.8053-1.44-1.424-.352-.6187-.528-1.3653-.528-2.24 0-.864.176-1.6053.528-2.224.362-.6187.832-1.0933 1.408-1.424.576-.3413 1.178-.512 1.808-.512.757 0 1.381.1707 1.872.512.501.3307.874.784 1.12 1.36.256.5653.384 1.2107.384 1.936 0 .2027-.011.4053-.032.608-.022.192-.043.336-.064.432h-4.752c.106.576.346 1.0027.72 1.28.373.2667.821.4 1.344.4.565 0 1.136-.176 1.712-.528l.784 1.424c-.406.2773-.859.496-1.36.656-.502.16-.987.24-1.456.24Zm-1.76-5.024h2.864c0-.4373-.107-.7947-.32-1.072-.203-.288-.539-.432-1.008-.432-.363 0-.688.128-.976.384-.288.2453-.475.6187-.56 1.12Zm9.692 4.832V2.564h1.92l.16 1.392h.064c.288-.5333.635-.928 1.04-1.184.405-.2667.811-.4 1.216-.4.224 0 .411.016.56.048.149.0213.277.0587.384.112l-.384 2.032a2.9256 2.9256 0 0 0-.416-.096c-.128-.0213-.277-.032-.448-.032-.299 0-.613.112-.944.336-.32.2133-.587.5867-.8 1.12V10.5h-2.352Zm7.922.192c-.725 0-1.301-.2293-1.728-.688-.427-.4693-.64-1.04-.64-1.712 0-.832.352-1.4827 1.056-1.952.704-.4693 1.84-.784 3.408-.944-.021-.352-.128-.6293-.32-.832-.181-.2133-.491-.32-.928-.32-.331 0-.667.064-1.008.192-.341.128-.704.304-1.088.528l-.848-1.552a7.8342 7.8342 0 0 1 1.6-.752c.576-.192 1.173-.288 1.792-.288 1.013 0 1.792.2933 2.336.88.544.5867.816 1.488.816 2.704V10.5h-1.92l-.16-.816h-.064c-.331.2987-.688.544-1.072.736-.373.1813-.784.272-1.232.272Zm.8-1.824c.267 0 .496-.0587.688-.176.203-.128.405-.2933.608-.496V6.804c-.832.1067-1.408.2773-1.728.512-.32.224-.48.4907-.48.8 0 .256.08.448.24.576.171.1173.395.176.672.176Zm5.637 1.632V2.564h1.92l.16 1.008h.064c.342-.32.715-.5973 1.12-.832.416-.2453.891-.368 1.424-.368.864 0 1.488.288 1.872.864.395.5653.592 1.344.592 2.336V10.5h-2.352V5.876c0-.576-.08-.9707-.24-1.184-.149-.2133-.394-.32-.736-.32-.298 0-.554.0693-.768.208-.213.128-.448.3147-.704.56v5.36h-2.352Zm11.989 3.376c-.619 0-1.179-.0693-1.68-.208-.502-.1387-.902-.3573-1.2-.656-.299-.2987-.448-.6827-.448-1.152 0-.64.378-1.1733 1.136-1.6v-.064c-.203-.1387-.379-.3147-.528-.528-.139-.2133-.208-.4853-.208-.816 0-.288.085-.5653.256-.832.17-.2667.384-.4853.64-.656V7.3c-.278-.192-.528-.4693-.752-.832-.214-.3627-.32-.7733-.32-1.232 0-.64.154-1.168.464-1.584.309-.4267.714-.7467 1.216-.96.501-.2133 1.034-.32 1.6-.32.469 0 .88.064 1.232.192h2.896v1.712h-1.264c.074.1173.133.2667.176.448.053.1813.08.3787.08.592 0 .608-.139 1.1093-.416 1.504-.278.3947-.651.688-1.12.88-.47.192-.998.288-1.584.288-.31 0-.63-.0533-.96-.16-.192.16-.288.3573-.288.592 0 .2027.09.352.272.448.181.096.49.144.928.144h1.28c.981 0 1.728.16 2.24.48.522.3093.784.8213.784 1.536 0 .544-.182 1.0293-.544 1.456-.363.4373-.875.7787-1.536 1.024-.662.2453-1.446.368-2.352.368Zm.176-7.312c.309 0 .565-.112.768-.336.213-.224.32-.5547.32-.992 0-.416-.107-.7307-.32-.944-.203-.224-.459-.336-.768-.336-.31 0-.571.1067-.784.32-.203.2133-.304.5333-.304.96 0 .4373.101.768.304.992.213.224.474.336.784.336Zm.192 5.84c.533 0 .97-.096 1.312-.288.341-.192.512-.4213.512-.688 0-.2453-.107-.4107-.32-.496-.203-.0853-.502-.128-.896-.128h-.816c-.267 0-.491-.0107-.672-.032-.171-.0107-.32-.032-.448-.064-.288.256-.432.5173-.432.784 0 .2987.16.5227.48.672.33.16.757.24 1.28.24Zm8.617-1.712c-.757 0-1.44-.1653-2.048-.496-.608-.3307-1.088-.8053-1.44-1.424-.352-.6187-.528-1.3653-.528-2.24 0-.864.176-1.6053.528-2.224.363-.6187.832-1.0933 1.408-1.424.576-.3413 1.179-.512 1.808-.512.758 0 1.382.1707 1.872.512.502.3307.875.784 1.12 1.36.256.5653.384 1.2107.384 1.936 0 .2027-.01.4053-.032.608-.021.192-.042.336-.064.432h-4.752c.107.576.347 1.0027.72 1.28.374.2667.822.4 1.344.4.566 0 1.136-.176 1.712-.528l.784 1.424c-.405.2773-.858.496-1.36.656-.501.16-.986.24-1.456.24Zm-1.76-5.024h2.864c0-.4373-.106-.7947-.32-1.072-.202-.288-.538-.432-1.008-.432-.362 0-.688.128-.976.384-.288.2453-.474.6187-.56 1.12Z"/><rect width="15.3333" height="15.3333" x="56.3333" y="29.5" stroke="#898989" stroke-width=".6667" rx="2.3333"/><path fill="#222" d="M80.6375 42.3346c-.7093 0-1.302-.126-1.778-.378-.476-.2613-.8633-.5553-1.162-.882l.588-.756c.2707.28.588.5274.952.742.364.2147.8073.322 1.33.322.5413 0 .9847-.1493 1.33-.448.3453-.2986.518-.6953.518-1.19 0-.3546-.0933-.6626-.28-.924-.1773-.2706-.476-.4806-.896-.63-.4107-.1493-.9707-.224-1.68-.224v-.882c.6347 0 1.134-.0746 1.498-.224.3733-.1493.6393-.35.798-.602.1587-.252.238-.532.238-.84 0-.4386-.14-.784-.42-1.036-.2707-.252-.644-.378-1.12-.378-.3733 0-.7187.084-1.036.252-.308.168-.5973.3874-.868.658l-.616-.728a4.61 4.61 0 0 1 1.148-.798c.42-.2146.8913-.322 1.414-.322.7747 0 1.414.2007 1.918.602.504.392.756.9474.756 1.666 0 .5414-.1493.9847-.448 1.33-.2987.3454-.6907.6114-1.176.798v.056c.5413.1214.9987.378 1.372.77.3733.3827.56.882.56 1.498 0 .5227-.1307.9754-.392 1.358-.2613.3827-.616.6767-1.064.882-.4387.2054-.9333.308-1.484.308Zm9.7477 0c-.728 0-1.2367-.21-1.526-.63-.28-.42-.42-.966-.42-1.638v-3.766h-1.008v-.868l1.064-.07.14-1.904h.966v1.904h1.834v.938h-1.834v3.78c0 .42.0747.7467.224.98.1587.224.434.336.826.336.1213 0 .252-.0186.392-.056l.378-.126.224.868c-.1867.0654-.392.1214-.616.168a2.5422 2.5422 0 0 1-.644.084Zm5.0431 0c-.5507 0-1.0687-.14-1.554-.42-.476-.28-.8634-.686-1.162-1.218-.2894-.532-.434-1.1713-.434-1.918 0-.7653.1446-1.414.434-1.946.2986-.532.686-.938 1.162-1.218.4853-.28 1.0033-.42 1.554-.42.56 0 1.078.14 1.554.42.476.28.8586.686 1.148 1.218.2986.532.448 1.1807.448 1.946 0 .7467-.1494 1.386-.448 1.918-.2894.532-.672.938-1.148 1.218-.476.28-.994.42-1.554.42Zm0-.952c.588 0 1.0593-.238 1.414-.714.364-.4853.546-1.1153.546-1.89 0-.784-.182-1.4186-.546-1.904-.3547-.4853-.826-.728-1.414-.728-.5787 0-1.05.2427-1.414.728-.364.4854-.546 1.12-.546 1.904 0 .7747.182 1.4047.546 1.89.364.476.8353.714 1.414.714Zm9.8727.952c-.709 0-1.297-.126-1.764-.378-.467-.252-.854-.532-1.162-.84l.56-.756c.271.2614.583.4994.938.714.355.2054.793.308 1.316.308.551 0 1.013-.182 1.386-.546.383-.3733.574-.8726.574-1.498 0-.616-.173-1.0966-.518-1.442-.345-.3453-.807-.518-1.386-.518-.308 0-.574.0467-.798.14-.215.0934-.457.2287-.728.406l-.616-.392.294-4.298h4.466v.994h-3.458l-.238 2.646c.215-.112.429-.2006.644-.266.215-.0653.457-.098.728-.098.513 0 .975.1027 1.386.308.42.196.756.4994 1.008.91.252.4107.378.938.378 1.582 0 .644-.145 1.1947-.434 1.652-.28.448-.649.7887-1.106 1.022-.457.2334-.947.35-1.47.35Zm7.746 2.758c-.15 0-.294-.014-.434-.042a3.3787 3.3787 0 0 1-.364-.098l.224-.91c.074.0187.158.0374.252.056.093.028.182.042.266.042.382 0 .7-.14.952-.42.252-.2706.448-.616.588-1.036l.154-.504-2.73-6.818h1.19l1.386 3.766c.102.2894.21.602.322.938.121.336.233.6627.336.98h.056c.102-.308.2-.63.294-.966.093-.336.186-.6533.28-.952l1.218-3.766h1.12l-2.562 7.364c-.159.448-.35.8494-.574 1.204-.215.3547-.486.6347-.812.84-.318.2147-.705.322-1.162.322Zm5.223-.686 3.738-12.18h.84l-3.738 12.18h-.84Zm8.111-2.072c-.55 0-1.068-.14-1.554-.42-.476-.28-.863-.686-1.162-1.218-.289-.532-.434-1.1713-.434-1.918 0-.7653.145-1.414.434-1.946.299-.532.686-.938 1.162-1.218.486-.28 1.004-.42 1.554-.42.56 0 1.078.14 1.554.42.476.28.859.686 1.148 1.218.299.532.448 1.1807.448 1.946 0 .7467-.149 1.386-.448 1.918-.289.532-.672.938-1.148 1.218-.476.28-.994.42-1.554.42Zm0-.952c.588 0 1.06-.238 1.414-.714.364-.4853.546-1.1153.546-1.89 0-.784-.182-1.4186-.546-1.904-.354-.4853-.826-.728-1.414-.728-.578 0-1.05.2427-1.414.728-.364.4854-.546 1.12-.546 1.904 0 .7747.182 1.4047.546 1.89.364.476.836.714 1.414.714Z"/><rect width="15.3333" height="15.3333" x="56.3333" y="57.5" stroke="#898989" stroke-width=".6667" rx="2.3333"/><path fill="#222" d="M80.9875 65.5746c-.2893 0-.602.0934-.938.28-.336.1867-.644.4854-.924.896.0747.868.2753 1.5307.602 1.988.336.4574.7887.686 1.358.686.4387 0 .8073-.1773 1.106-.532.2987-.364.448-.84.448-1.428 0-.5786-.14-1.036-.42-1.372-.2707-.3453-.6813-.518-1.232-.518Zm.098 4.76c-.5787 0-1.1013-.1586-1.568-.476-.4667-.3173-.8353-.7933-1.106-1.428-.2707-.644-.406-1.442-.406-2.394 0-1.1946.1587-2.156.476-2.884.3267-.728.7467-1.2553 1.26-1.582.5227-.336 1.078-.504 1.666-.504.4853 0 .9007.0934 1.246.28.3547.1774.658.4014.91.672l-.644.714c-.1773-.2146-.3967-.3826-.658-.504-.2613-.1306-.532-.196-.812-.196-.42 0-.8027.1214-1.148.364-.3453.2334-.63.63-.854 1.19-.2147.5507-.3313 1.2974-.35 2.24.28-.3453.6067-.616.98-.812.3733-.2053.742-.308 1.106-.308.7747 0 1.3907.2334 1.848.7.4667.4574.7 1.1434.7 2.058 0 .5694-.1213 1.0687-.364 1.498-.2427.4294-.5647.7654-.966 1.008-.392.2427-.8307.364-1.316.364Zm9.2997 0c-.728 0-1.2367-.21-1.526-.63-.28-.42-.42-.966-.42-1.638v-3.766h-1.008v-.868l1.064-.07.14-1.904h.966v1.904h1.834v.938h-1.834v3.78c0 .42.0747.7467.224.98.1587.224.434.336.826.336.1213 0 .252-.0186.392-.056l.378-.126.224.868c-.1867.0654-.392.1214-.616.168a2.5422 2.5422 0 0 1-.644.084Zm5.0431 0c-.5507 0-1.0687-.14-1.554-.42-.476-.28-.8634-.686-1.162-1.218-.2894-.532-.434-1.1713-.434-1.918 0-.7653.1446-1.414.434-1.946.2986-.532.686-.938 1.162-1.218.4853-.28 1.0033-.42 1.554-.42.56 0 1.078.14 1.554.42.476.28.8586.686 1.148 1.218.2986.532.448 1.1807.448 1.946 0 .7467-.1494 1.386-.448 1.918-.2894.532-.672.938-1.148 1.218-.476.28-.994.42-1.554.42Zm0-.952c.588 0 1.0593-.238 1.414-.714.364-.4853.546-1.1153.546-1.89 0-.784-.182-1.4186-.546-1.904-.3547-.4853-.826-.728-1.414-.728-.5787 0-1.05.2427-1.414.728-.364.4854-.546 1.12-.546 1.904 0 .7747.182 1.4047.546 1.89.364.476.8353.714 1.414.714Zm7.7027.784v-.952h2.044v-6.58h-1.624v-.742c.411-.0746.765-.1633 1.064-.266.308-.112.583-.2426.826-.392h.882v7.98h1.848v.952h-5.04Zm6.959 0v-.952h2.044v-6.58h-1.624v-.742c.411-.0746.765-.1633 1.064-.266.308-.112.583-.2426.826-.392h.882v7.98h1.848v.952h-5.04Zm9.916 2.926c-.15 0-.294-.014-.434-.042a3.3787 3.3787 0 0 1-.364-.098l.224-.91c.074.0187.158.0374.252.056.093.028.182.042.266.042.382 0 .7-.14.952-.42.252-.2706.448-.616.588-1.036l.154-.504-2.73-6.818h1.19l1.386 3.766c.102.2894.21.602.322.938.121.336.233.6627.336.98h.056c.102-.308.2-.63.294-.966.093-.336.186-.6533.28-.952l1.218-3.766h1.12l-2.562 7.364c-.159.448-.35.8494-.574 1.204-.215.3547-.486.6347-.812.84-.318.2147-.705.322-1.162.322Zm5.223-.686 3.738-12.18h.84l-3.738 12.18h-.84Zm8.111-2.072c-.55 0-1.068-.14-1.554-.42-.476-.28-.863-.686-1.162-1.218-.289-.532-.434-1.1713-.434-1.918 0-.7653.145-1.414.434-1.946.299-.532.686-.938 1.162-1.218.486-.28 1.004-.42 1.554-.42.56 0 1.078.14 1.554.42.476.28.859.686 1.148 1.218.299.532.448 1.1807.448 1.946 0 .7467-.149 1.386-.448 1.918-.289.532-.672.938-1.148 1.218-.476.28-.994.42-1.554.42Zm0-.952c.588 0 1.06-.238 1.414-.714.364-.4853.546-1.1153.546-1.89 0-.784-.182-1.4186-.546-1.904-.354-.4853-.826-.728-1.414-.728-.578 0-1.05.2427-1.414.728-.364.4854-.546 1.12-.546 1.904 0 .7747.182 1.4047.546 1.89.364.476.836.714 1.414.714Z"/><rect width="15.3333" height="15.3333" x="56.3333" y="85.5" fill="#5985FF" rx="2.3333"/><path stroke="#fff" stroke-linecap="round" stroke-linejoin="round" stroke-width="1.3333" d="m60 93.1668 2.6667 2.6667L68 90.5001"/><rect width="15.3333" height="15.3333" x="56.3333" y="85.5" stroke="#5985FF" stroke-width=".6667" rx="2.3333"/><path fill="#222" d="M78.4395 98.1666v-.952h2.044v-6.58h-1.624v-.742c.4107-.0746.7653-.1633 1.064-.266.308-.112.5833-.2426.826-.392h.882v7.98h1.848v.952h-5.04Zm6.413 0v-.686c.896-.896 1.6566-1.68 2.282-2.352.6253-.6813 1.1013-1.2926 1.428-1.834.3266-.5506.49-1.064.49-1.54 0-.5133-.14-.9333-.42-1.26-.28-.3266-.7047-.49-1.274-.49-.3734 0-.7187.1074-1.036.322-.3174.2054-.6067.4574-.868.756l-.658-.658c.3733-.4106.77-.7373 1.19-.98.4293-.252.9333-.378 1.512-.378.8306 0 1.484.2427 1.96.728.476.476.714 1.1107.714 1.904 0 .56-.1587 1.1294-.476 1.708-.308.5694-.7374 1.1714-1.288 1.806-.5414.6254-1.1667 1.3067-1.876 2.044.2426-.0186.4946-.0373.756-.056.2613-.0186.5086-.028.742-.028h2.59v.994h-5.768Zm12.4917.168c-.728 0-1.2367-.21-1.526-.63-.28-.42-.42-.966-.42-1.638v-3.766h-1.008v-.868l1.064-.07.14-1.904h.966v1.904h1.834v.938h-1.834v3.78c0 .42.0747.7467.224.98.1587.224.434.336.826.336.1213 0 .252-.0186.392-.056l.378-.126.224.868c-.1867.0654-.392.1214-.616.168a2.5422 2.5422 0 0 1-.644.084Zm5.0428 0c-.55 0-1.068-.14-1.554-.42-.476-.28-.8631-.686-1.1617-1.218-.2894-.532-.434-1.1713-.434-1.918 0-.7653.1446-1.414.434-1.946.2986-.532.6857-.938 1.1617-1.218.486-.28 1.004-.42 1.554-.42.56 0 1.078.14 1.554.42.476.28.859.686 1.148 1.218.299.532.448 1.1807.448 1.946 0 .7467-.149 1.386-.448 1.918-.289.532-.672.938-1.148 1.218-.476.28-.994.42-1.554.42Zm0-.952c.588 0 1.06-.238 1.414-.714.364-.4853.546-1.1153.546-1.89 0-.784-.182-1.4186-.546-1.904-.354-.4853-.826-.728-1.414-.728-.578 0-1.05.2427-1.414.728-.364.4854-.546 1.12-.546 1.904 0 .7747.182 1.4047.546 1.89.364.476.836.714 1.414.714Zm7.703.784v-.952h2.044v-6.58h-1.624v-.742c.411-.0746.765-.1633 1.064-.266.308-.112.583-.2426.826-.392h.882v7.98h1.848v.952h-5.04Zm9.129.168c-.709 0-1.297-.126-1.764-.378-.467-.252-.854-.532-1.162-.84l.56-.756c.271.2614.583.4994.938.714.355.2054.793.308 1.316.308.551 0 1.013-.182 1.386-.546.383-.3733.574-.8726.574-1.498 0-.616-.173-1.0966-.518-1.442-.345-.3453-.807-.518-1.386-.518-.308 0-.574.0467-.798.14-.215.0934-.457.2287-.728.406l-.616-.392.294-4.298h4.466v.994h-3.458l-.238 2.646c.215-.112.429-.2006.644-.266.215-.0653.457-.098.728-.098.513 0 .975.1027 1.386.308.42.196.756.4994 1.008.91.252.4107.378.938.378 1.582 0 .644-.145 1.1947-.434 1.652-.28.448-.649.7887-1.106 1.022-.457.2334-.947.35-1.47.35Zm7.746 2.7584c-.15 0-.294-.014-.434-.042a3.4742 3.4742 0 0 1-.364-.098l.224-.91c.074.018.158.037.252.056.093.028.182.042.266.042.382 0 .7-.14.952-.4204.252-.2706.448-.616.588-1.036l.154-.504-2.73-6.818h1.19l1.386 3.766c.102.2894.21.602.322.938.121.336.233.6627.336.98h.056c.102-.308.2-.63.294-.966.093-.336.186-.6533.28-.952l1.218-3.766h1.12l-2.562 7.364c-.159.448-.35.8494-.574 1.204-.215.3544-.486.6344-.812.8404-.318.214-.705.322-1.162.322Zm5.223-.686 3.738-12.1804h.84l-3.738 12.1804h-.84Zm8.111-2.0724c-.55 0-1.068-.14-1.554-.42-.476-.28-.863-.686-1.162-1.218-.289-.532-.434-1.1713-.434-1.918 0-.7653.145-1.414.434-1.946.299-.532.686-.938 1.162-1.218.486-.28 1.004-.42 1.554-.42.56 0 1.078.14 1.554.42.476.28.859.686 1.148 1.218.299.532.448 1.1807.448 1.946 0 .7467-.149 1.386-.448 1.918-.289.532-.672.938-1.148 1.218-.476.28-.994.42-1.554.42Zm0-.952c.588 0 1.06-.238 1.414-.714.364-.4853.546-1.1153.546-1.89 0-.784-.182-1.4186-.546-1.904-.354-.4853-.826-.728-1.414-.728-.578 0-1.05.2427-1.414.728-.364.4854-.546 1.12-.546 1.904 0 .7747.182 1.4047.546 1.89.364.476.836.714 1.414.714Z"/><rect width="15.3333" height="15.3333" x="56.3333" y="113.5" stroke="#898989" stroke-width=".6667" rx="2.3333"/><path fill="#222" d="M78.4395 126.167v-.952h2.044v-6.58h-1.624v-.742c.4107-.075.7653-.164 1.064-.266.308-.112.5833-.243.826-.392h.882v7.98h1.848v.952h-5.04Zm9.507-4.592c-.2894 0-.602.093-.938.28-.336.186-.644.485-.924.896.0746.868.2753 1.53.602 1.988.336.457.7886.686 1.358.686.4386 0 .8073-.178 1.106-.532.2986-.364.448-.84.448-1.428 0-.579-.14-1.036-.42-1.372-.2707-.346-.6814-.518-1.232-.518Zm.098 4.76c-.5787 0-1.1014-.159-1.568-.476-.4667-.318-.8354-.794-1.106-1.428-.2707-.644-.406-1.442-.406-2.394 0-1.195.1586-2.156.476-2.884.3266-.728.7466-1.256 1.26-1.582.5226-.336 1.078-.504 1.666-.504.4853 0 .9006.093 1.246.28.3546.177.658.401.91.672l-.644.714c-.1774-.215-.3967-.383-.658-.504-.2614-.131-.532-.196-.812-.196-.42 0-.8027.121-1.148.364-.3454.233-.63.63-.854 1.19-.2147.55-.3314 1.297-.35 2.24.28-.346.6066-.616.98-.812.3733-.206.742-.308 1.106-.308.7746 0 1.3906.233 1.848.7.4666.457.7 1.143.7 2.058 0 .569-.1214 1.068-.364 1.498-.2427.429-.5647.765-.966 1.008-.392.242-.8307.364-1.316.364Zm9.2997 0c-.728 0-1.2367-.21-1.526-.63-.28-.42-.42-.966-.42-1.638v-3.766h-1.008v-.868l1.064-.07.14-1.904h.966v1.904h1.834v.938h-1.834v3.78c0 .42.0747.746.224.98.1587.224.434.336.826.336.1213 0 .252-.019.392-.056.14-.047.266-.089.378-.126l.224.868c-.1867.065-.392.121-.616.168a2.5422 2.5422 0 0 1-.644.084Zm5.0428 0c-.55 0-1.068-.14-1.554-.42-.476-.28-.8631-.686-1.1617-1.218-.2894-.532-.434-1.172-.434-1.918 0-.766.1446-1.414.434-1.946.2986-.532.6857-.938 1.1617-1.218.486-.28 1.004-.42 1.554-.42.56 0 1.078.14 1.554.42.476.28.859.686 1.148 1.218.299.532.448 1.18.448 1.946 0 .746-.149 1.386-.448 1.918-.289.532-.672.938-1.148 1.218-.476.28-.994.42-1.554.42Zm0-.952c.588 0 1.06-.238 1.414-.714.364-.486.546-1.116.546-1.89 0-.784-.182-1.419-.546-1.904-.354-.486-.826-.728-1.414-.728-.578 0-1.05.242-1.414.728-.364.485-.546 1.12-.546 1.904 0 .774.182 1.404.546 1.89.364.476.836.714 1.414.714Zm7.703.784v-.952h2.044v-6.58h-1.624v-.742c.411-.075.765-.164 1.064-.266.308-.112.583-.243.826-.392h.882v7.98h1.848v.952h-5.04Zm9.353.168c-.56 0-1.059-.103-1.498-.308-.439-.215-.789-.509-1.05-.882-.252-.374-.378-.794-.378-1.26 0-.392.079-.738.238-1.036.168-.308.378-.574.63-.798.261-.234.532-.425.812-.574v-.056c-.327-.234-.616-.518-.868-.854-.252-.336-.378-.738-.378-1.204 0-.458.112-.859.336-1.204.224-.346.527-.612.91-.798.383-.196.812-.294 1.288-.294.775 0 1.386.224 1.834.672.457.448.686 1.017.686 1.708 0 .308-.065.602-.196.882-.131.27-.289.518-.476.742-.187.214-.373.392-.56.532v.056c.271.149.523.326.756.532.233.205.425.452.574.742.149.28.224.62.224 1.022 0 .438-.121.84-.364 1.204-.233.364-.569.653-1.008.868-.429.205-.933.308-1.512.308Zm.63-5.04c.299-.271.527-.556.686-.854.168-.299.252-.612.252-.938 0-.439-.135-.812-.406-1.12-.271-.308-.653-.462-1.148-.462-.411 0-.756.13-1.036.392-.271.261-.406.611-.406 1.05 0 .354.093.648.28.882.196.233.453.434.77.602.317.158.653.308 1.008.448Zm-.602 4.186c.523 0 .943-.145 1.26-.434.327-.299.49-.677.49-1.134 0-.383-.112-.696-.336-.938-.224-.243-.523-.453-.896-.63-.364-.178-.761-.35-1.19-.518-.355.233-.653.513-.896.84-.233.326-.35.695-.35 1.106 0 .494.182.905.546 1.232.373.317.831.476 1.372.476Zm7.494 3.612c-.15 0-.294-.014-.434-.042a3.4742 3.4742 0 0 1-.364-.098l.224-.91c.074.018.158.037.252.056.093.028.182.042.266.042.382 0 .7-.14.952-.42.252-.271.448-.616.588-1.036l.154-.504-2.73-6.818h1.19l1.386 3.766c.102.289.21.602.322.938.121.336.233.662.336.98h.056c.102-.308.2-.63.294-.966.093-.336.186-.654.28-.952l1.218-3.766h1.12l-2.562 7.364c-.159.448-.35.849-.574 1.204-.215.354-.486.634-.812.84-.318.214-.705.322-1.162.322Zm5.223-.686 3.738-12.18h.84l-3.738 12.18h-.84Zm8.111-2.072c-.55 0-1.068-.14-1.554-.42-.476-.28-.863-.686-1.162-1.218-.289-.532-.434-1.172-.434-1.918 0-.766.145-1.414.434-1.946.299-.532.686-.938 1.162-1.218.486-.28 1.004-.42 1.554-.42.56 0 1.078.14 1.554.42.476.28.859.686 1.148 1.218.299.532.448 1.18.448 1.946 0 .746-.149 1.386-.448 1.918-.289.532-.672.938-1.148 1.218-.476.28-.994.42-1.554.42Zm0-.952c.588 0 1.06-.238 1.414-.714.364-.486.546-1.116.546-1.89 0-.784-.182-1.419-.546-1.904-.354-.486-.826-.728-1.414-.728-.578 0-1.05.242-1.414.728-.364.485-.546 1.12-.546 1.904 0 .774.182 1.404.546 1.89.364.476.836.714 1.414.714Z"/>
    <rect width="15.3333" height="15.3333" x="56.3333" y="141.5" stroke="#898989" stroke-width=".6667" rx="2.3333"/>
    <path fill="#222" d="M80.0495 154.335c-.5693 0-1.0453-.168-1.428-.504-.3733-.346-.56-.822-.56-1.428 0-.747.3313-1.316.994-1.708.672-.402 1.7313-.682 3.178-.84 0-.29-.042-.565-.126-.826-.0747-.262-.2147-.472-.42-.63-.196-.168-.4807-.252-.854-.252-.392 0-.7607.074-1.106.224-.3453.149-.6533.317-.924.504l-.448-.798c.3173-.206.7047-.402 1.162-.588.4667-.196.9707-.294 1.512-.294.8307 0 1.4327.256 1.806.77.3733.504.56 1.18.56 2.03v4.172h-.952l-.098-.812h-.042c-.3173.261-.6673.49-1.05.686-.3733.196-.7747.294-1.204.294Zm.336-.924c.3267 0 .6347-.08.924-.238.2893-.159.5973-.383.924-.672v-1.89c-1.1293.14-1.9227.35-2.38.63-.448.28-.672.639-.672 1.078 0 .382.1167.662.35.84.2333.168.518.252.854.252Zm8.1607.924c-.3173 0-.6487-.075-.994-.224-.336-.159-.6533-.374-.952-.644h-.042l-.098.7h-.924v-9.968h1.148v2.716l-.028 1.232c.308-.271.644-.495 1.008-.672.3733-.187.7467-.28 1.12-.28.8867 0 1.5587.312 2.016.938.4573.625.686 1.465.686 2.52 0 .774-.14 1.437-.42 1.988-.2707.55-.63.97-1.078 1.26-.4387.289-.9193.434-1.442.434Zm-.196-.966c.56 0 1.022-.238 1.386-.714.3733-.486.56-1.148.56-1.988 0-.747-.14-1.349-.42-1.806-.2707-.467-.728-.7-1.372-.7-.2893 0-.5833.079-.882.238-.2987.158-.6113.387-.938.686v3.57c.2987.261.5927.448.882.56.2987.102.56.154.784.154Zm7.5703.966c-.5507 0-1.0687-.14-1.554-.42-.476-.28-.8634-.686-1.162-1.218-.2894-.532-.434-1.172-.434-1.918 0-.766.1446-1.414.434-1.946.2986-.532.686-.938 1.162-1.218.4853-.28 1.0033-.42 1.554-.42.56 0 1.078.14 1.554.42.476.28.8586.686 1.148 1.218.2986.532.448 1.18.448 1.946 0 .746-.1494 1.386-.448 1.918-.2894.532-.672.938-1.148 1.218-.476.28-.994.42-1.554.42Zm0-.952c.588 0 1.0593-.238 1.414-.714.364-.486.546-1.116.546-1.89 0-.784-.182-1.419-.546-1.904-.3547-.486-.826-.728-1.414-.728-.5787 0-1.05.242-1.414.728-.364.485-.546 1.12-.546 1.904 0 .774.182 1.404.546 1.89.364.476.8353.714 1.414.714Zm6.3575.784-2.4503-6.804h1.1903l1.288 3.864c.102.336.205.672.308 1.008.112.336.219.667.322.994h.056c.102-.327.205-.658.308-.994.112-.336.214-.672.308-1.008l1.288-3.864h1.134l-2.408 6.804h-1.344Zm7.768.168c-.607 0-1.157-.14-1.652-.42-.495-.29-.887-.7-1.176-1.232-.289-.532-.434-1.167-.434-1.904 0-.747.145-1.386.434-1.918.299-.532.681-.943 1.148-1.232.467-.29.957-.434 1.47-.434.868 0 1.535.289 2.002.868.476.578.714 1.353.714 2.324 0 .121-.005.242-.014.364 0 .112-.009.21-.028.294h-4.592c.047.718.271 1.292.672 1.722.411.429.943.644 1.596.644.327 0 .625-.047.896-.14.28-.103.546-.234.798-.392l.406.756c-.289.186-.621.35-.994.49-.364.14-.779.21-1.246.21Zm-2.142-4.116h3.64c0-.691-.149-1.214-.448-1.568-.289-.364-.7-.546-1.232-.546-.476 0-.905.186-1.288.56-.373.364-.597.882-.672 1.554Zm9.09 3.948v-.952h2.044v-6.58h-1.624v-.742c.411-.075.766-.164 1.064-.266.308-.112.584-.243.826-.392h.882v7.98h1.848v.952h-5.04Zm9.353.168c-.56 0-1.059-.103-1.498-.308-.438-.215-.788-.509-1.05-.882-.252-.374-.378-.794-.378-1.26 0-.392.08-.738.238-1.036.168-.308.378-.574.63-.798.262-.234.532-.425.812-.574v-.056c-.326-.234-.616-.518-.868-.854-.252-.336-.378-.738-.378-1.204 0-.458.112-.859.336-1.204.224-.346.528-.612.91-.798.383-.196.812-.294 1.288-.294.775 0 1.386.224 1.834.672.458.448.686 1.017.686 1.708 0 .308-.065.602-.196.882-.13.27-.289.518-.476.742-.186.214-.373.392-.56.532v.056c.271.149.523.326.756.532.234.205.425.452.574.742.15.28.224.62.224 1.022 0 .438-.121.84-.364 1.204-.233.364-.569.653-1.008.868-.429.205-.933.308-1.512.308Zm.63-5.04c.299-.271.528-.556.686-.854.168-.299.252-.612.252-.938 0-.439-.135-.812-.406-1.12-.27-.308-.653-.462-1.148-.462-.41 0-.756.13-1.036.392-.27.261-.406.611-.406 1.05 0 .354.094.648.28.882.196.233.453.434.77.602.318.158.654.308 1.008.448Zm-.602 4.186c.523 0 .943-.145 1.26-.434.327-.299.49-.677.49-1.134 0-.383-.112-.696-.336-.938-.224-.243-.522-.453-.896-.63-.364-.178-.76-.35-1.19-.518-.354.233-.653.513-.896.84-.233.326-.35.695-.35 1.106 0 .494.182.905.546 1.232.374.317.831.476 1.372.476Zm7.494 3.612c-.149 0-.294-.014-.434-.042a3.4742 3.4742 0 0 1-.364-.098l.224-.91c.075.018.159.037.252.056.093.028.182.042.266.042.383 0 .7-.14.952-.42.252-.271.448-.616.588-1.036l.154-.504-2.73-6.818h1.19l1.386 3.766c.103.289.21.602.322.938.121.336.233.662.336.98h.056c.103-.308.201-.63.294-.966.093-.336.187-.654.28-.952l1.218-3.766h1.12l-2.562 7.364c-.159.448-.35.849-.574 1.204-.215.354-.485.634-.812.84-.317.214-.705.322-1.162.322Zm5.224-.686 3.738-12.18h.84l-3.738 12.18h-.84Zm8.111-2.072c-.551 0-1.069-.14-1.554-.42-.476-.28-.864-.686-1.162-1.218-.29-.532-.434-1.172-.434-1.918 0-.766.144-1.414.434-1.946.298-.532.686-.938 1.162-1.218.485-.28 1.003-.42 1.554-.42.56 0 1.078.14 1.554.42.476.28.858.686 1.148 1.218.298.532.448 1.18.448 1.946 0 .746-.15 1.386-.448 1.918-.29.532-.672.938-1.148 1.218-.476.28-.994.42-1.554.42Zm0-.952c.588 0 1.059-.238 1.414-.714.364-.486.546-1.116.546-1.89 0-.784-.182-1.419-.546-1.904-.355-.486-.826-.728-1.414-.728-.579 0-1.05.242-1.414.728-.364.485-.546 1.12-.546 1.904 0 .774.182 1.404.546 1.89.364.476.835.714 1.414.714Z"/><path fill="#737373" d="M127.745 192.335c-.765 0-1.451-.187-2.058-.56-.597-.383-1.073-.929-1.428-1.638-.345-.71-.518-1.564-.518-2.562 0-.99.178-1.839.532-2.548.355-.71.84-1.256 1.456-1.638.616-.383 1.312-.574 2.086-.574.56 0 1.055.116 1.484.35.43.224.775.485 1.036.784l-.63.756c-.242-.262-.518-.472-.826-.63-.308-.159-.658-.238-1.05-.238-.578 0-1.087.154-1.526.462-.429.298-.765.723-1.008 1.274-.233.55-.35 1.208-.35 1.974 0 .765.117 1.432.35 2.002.234.56.56.994.98 1.302.43.308.934.462 1.512.462.439 0 .831-.094 1.176-.28.346-.187.663-.439.952-.756l.644.728c-.364.42-.774.746-1.232.98-.457.233-.984.35-1.582.35Zm5.982 0c-.569 0-1.045-.168-1.428-.504-.373-.346-.56-.822-.56-1.428 0-.747.332-1.316.994-1.708.672-.402 1.732-.682 3.178-.84 0-.29-.042-.565-.126-.826-.074-.262-.214-.472-.42-.63-.196-.168-.48-.252-.854-.252-.392 0-.76.074-1.106.224-.345.149-.653.317-.924.504l-.448-.798c.318-.206.705-.402 1.162-.588.467-.196.971-.294 1.512-.294.831 0 1.433.256 1.806.77.374.504.56 1.18.56 2.03v4.172h-.952l-.098-.812h-.042c-.317.261-.667.49-1.05.686-.373.196-.774.294-1.204.294Zm.336-.924c.327 0 .635-.08.924-.238.29-.159.598-.383.924-.672v-1.89c-1.129.14-1.922.35-2.38.63-.448.28-.672.639-.672 1.078 0 .382.117.662.35.84.234.168.518.252.854.252Zm5.151.756v-6.804h.952l.098.98h.042c.327-.327.672-.598 1.036-.812.364-.224.779-.336 1.246-.336.719 0 1.241.228 1.568.686.336.448.504 1.106.504 1.974v4.312h-1.148v-4.158c0-.635-.103-1.097-.308-1.386-.205-.29-.532-.434-.98-.434-.345 0-.658.088-.938.266-.271.177-.579.438-.924.784v4.928h-1.148Zm10.344.168c-.597 0-1.138-.14-1.624-.42-.485-.28-.868-.686-1.148-1.218-.28-.532-.42-1.172-.42-1.918 0-.766.15-1.414.448-1.946.308-.532.71-.938 1.204-1.218.504-.28 1.046-.42 1.624-.42.448 0 .831.079 1.148.238.327.158.607.345.84.56l-.588.756a2.7902 2.7902 0 0 0-.63-.434c-.214-.112-.457-.168-.728-.168-.41 0-.779.112-1.106.336-.317.214-.569.522-.756.924-.177.392-.266.849-.266 1.372 0 .774.192 1.404.574 1.89.392.476.901.714 1.526.714.318 0 .612-.066.882-.196.271-.14.509-.304.714-.49l.504.77c-.308.27-.648.485-1.022.644-.373.149-.765.224-1.176.224Zm6.154 0c-.607 0-1.157-.14-1.652-.42-.495-.29-.887-.7-1.176-1.232-.289-.532-.434-1.167-.434-1.904 0-.747.145-1.386.434-1.918.299-.532.681-.943 1.148-1.232.467-.29.957-.434 1.47-.434.868 0 1.535.289 2.002.868.476.578.714 1.353.714 2.324 0 .121-.005.242-.014.364 0 .112-.009.21-.028.294h-4.592c.047.718.271 1.292.672 1.722.411.429.943.644 1.596.644.327 0 .625-.047.896-.14.28-.103.546-.234.798-.392l.406.756c-.289.186-.621.35-.994.49-.364.14-.779.21-1.246.21Zm-2.142-4.116h3.64c0-.691-.149-1.214-.448-1.568-.289-.364-.7-.546-1.232-.546-.476 0-.905.186-1.288.56-.373.364-.597.882-.672 1.554Zm7.547 4.116c-.429 0-.742-.131-.938-.392-.186-.271-.28-.654-.28-1.148v-8.596h1.148v8.68c0 .177.033.308.098.392.066.074.14.112.224.112h.098c.038-.01.089-.019.154-.028l.154.868c-.074.037-.163.065-.266.084-.102.018-.233.028-.392.028Z"/>
    <rect width="79.3333" height="26" x="184.333" y="174.167" fill="#36F" rx="1"/>
    <path fill="#fff" d="M205.114 192.335c-.765 0-1.451-.187-2.058-.56-.597-.383-1.073-.929-1.428-1.638-.345-.71-.518-1.564-.518-2.562 0-.99.177-1.839.532-2.548.355-.71.84-1.256 1.456-1.638.616-.383 1.311-.574 2.086-.574.56 0 1.055.116 1.484.35.429.224.775.485 1.036.784l-.63.756c-.243-.262-.518-.472-.826-.63-.308-.159-.658-.238-1.05-.238-.579 0-1.087.154-1.526.462-.429.298-.765.723-1.008 1.274-.233.55-.35 1.208-.35 1.974 0 .765.117 1.432.35 2.002.233.56.56.994.98 1.302.429.308.933.462 1.512.462.439 0 .831-.094 1.176-.28.345-.187.663-.439.952-.756l.644.728c-.364.42-.775.746-1.232.98-.457.233-.985.35-1.582.35Zm7.06 0c-.551 0-1.069-.14-1.554-.42-.476-.28-.863-.686-1.162-1.218-.289-.532-.434-1.172-.434-1.918 0-.766.145-1.414.434-1.946.299-.532.686-.938 1.162-1.218.485-.28 1.003-.42 1.554-.42.56 0 1.078.14 1.554.42.476.28.859.686 1.148 1.218.299.532.448 1.18.448 1.946 0 .746-.149 1.386-.448 1.918-.289.532-.672.938-1.148 1.218-.476.28-.994.42-1.554.42Zm0-.952c.588 0 1.059-.238 1.414-.714.364-.486.546-1.116.546-1.89 0-.784-.182-1.419-.546-1.904-.355-.486-.826-.728-1.414-.728-.579 0-1.05.242-1.414.728-.364.485-.546 1.12-.546 1.904 0 .774.182 1.404.546 1.89.364.476.835.714 1.414.714Zm4.942.784v-6.804h.952l.098.98h.042c.326-.327.672-.598 1.036-.812.364-.224.779-.336 1.246-.336.718 0 1.241.228 1.568.686.336.448.504 1.106.504 1.974v4.312h-1.148v-4.158c0-.635-.103-1.097-.308-1.386-.206-.29-.532-.434-.98-.434-.346 0-.658.088-.938.266-.271.177-.579.438-.924.784v4.928h-1.148Zm7.852 0v-5.866h-.924v-.868l.924-.07v-1.078c0-.691.159-1.237.476-1.638.327-.411.831-.616 1.512-.616.215 0 .42.023.616.07.196.037.369.088.518.154l-.252.882c-.252-.112-.509-.168-.77-.168-.635 0-.952.438-.952 1.316v1.078h1.442v.938h-1.442v5.866h-1.148Zm3.892 0v-6.804h1.148v6.804h-1.148Zm.588-8.204c-.224 0-.411-.066-.56-.196-.14-.14-.21-.327-.21-.56 0-.224.07-.406.21-.546.149-.14.336-.21.56-.21.224 0 .406.07.546.21.149.14.224.322.224.546 0 .233-.075.42-.224.56-.14.13-.322.196-.546.196Zm2.857 8.204v-6.804h.952l.098 1.232h.042c.234-.43.518-.77.854-1.022.336-.252.696-.378 1.078-.378.271 0 .514.046.728.14l-.224 1.008a2.3296 2.3296 0 0 0-.308-.084c-.093-.019-.21-.028-.35-.028-.289 0-.592.116-.91.35-.308.233-.578.639-.812 1.218v4.368h-1.148Zm4.854 0v-6.804h.952l.098.98h.042c.298-.327.625-.598.98-.812.354-.224.732-.336 1.134-.336.522 0 .928.116 1.218.35.298.224.518.541.658.952.354-.383.714-.696 1.078-.938.364-.243.751-.364 1.162-.364.7 0 1.218.228 1.554.686.345.448.518 1.106.518 1.974v4.312h-1.148v-4.158c0-.635-.103-1.097-.308-1.386-.206-.29-.523-.434-.952-.434-.504 0-1.074.35-1.708 1.05v4.928h-1.148v-4.158c0-.635-.103-1.097-.308-1.386-.206-.29-.528-.434-.966-.434-.504 0-1.074.35-1.708 1.05v4.928h-1.148Z"/>
    <rect width="79.3333" height="26" x="184.333" y="174.167" stroke="#36F" stroke-width=".6667" rx="1"/>
  </g>
  <path stroke="#EAEAEA" d="M.5.5h319v223H.5z"/>
  <defs>
    <clipPath id="clip0_2351_5157">
      <path fill="#fff" d="M0 0h320v224H0z"/>
    </clipPath>
  </defs>
</svg>
