<svg xmlns="http://www.w3.org/2000/svg" viewBox="0 0 656 224" fill="none">
  <g clip-path="url(#clip0_2320_6652)">
    <path fill="var(--control-color-surface-100-surface, #F4F4F4)" d="M0 0h656v224H0z"/>
    <rect width="31" height="31" x="272" y="96.5" fill="var(--control-color-visuals-background, #9EBAFF)" rx="1.5"/>
    <path stroke="var(--control-color-visuals-guide-text, #fff)" stroke-linecap="round" stroke-linejoin="round" stroke-width="2" d="m280 112 5 5 10-10"/>
    <rect width="31" height="31" x="272" y="96.5" stroke="var(--control-color-visuals-background, #9EBAFF)" rx="1.5"/>
    <path fill="var(--control-color-visuals-component-text, #3E3D3D)" d="M312.94 118v-10.496h6.048v1.12h-4.72v3.552h4v1.12h-4V118h-1.328Zm7.778 0v-7.776h1.312V118h-1.312Zm.672-9.376c-.256 0-.469-.075-.64-.224-.16-.16-.24-.373-.24-.64 0-.256.08-.464.24-.624.171-.16.384-.24.64-.24s.464.08.624.24c.171.16.256.368.256.624 0 .267-.085.48-.256.64-.16.149-.368.224-.624.224Zm6.418 9.568c-.694 0-1.323-.16-1.888-.48-.566-.331-1.014-.8-1.344-1.408-.331-.608-.496-1.333-.496-2.176 0-.853.165-1.584.496-2.192.341-.608.778-1.077 1.312-1.408.533-.331 1.093-.496 1.68-.496.992 0 1.754.331 2.288.992.544.661.816 1.547.816 2.656 0 .139-.006.277-.016.416 0 .128-.011.24-.032.336h-5.248c.053.821.309 1.477.768 1.968.469.491 1.077.736 1.824.736.373 0 .714-.053 1.024-.16.32-.117.624-.267.912-.448l.464.864c-.331.213-.71.4-1.136.56-.416.16-.891.24-1.424.24Zm-2.448-4.704h4.16c0-.789-.171-1.387-.512-1.792-.331-.416-.8-.624-1.408-.624-.544 0-1.035.213-1.472.64-.427.416-.683 1.008-.768 1.776Zm8.625 4.704c-.49 0-.848-.149-1.072-.448-.213-.309-.32-.747-.32-1.312v-9.824h1.312v9.92c0 .203.038.352.112.448.075.085.16.128.256.128h.112c.043-.011.102-.021.176-.032l.176.992c-.085.043-.186.075-.304.096-.117.021-.266.032-.448.032Zm5.342 0c-.97 0-1.749-.352-2.336-1.056-.586-.715-.88-1.717-.88-3.008 0-.843.155-1.568.464-2.176.32-.619.736-1.093 1.248-1.424.523-.331 1.078-.496 1.664-.496.448 0 .838.08 1.168.24.331.16.667.379 1.008.656l-.064-1.328v-2.992h1.328V118h-1.088l-.112-.912h-.048c-.298.299-.65.56-1.056.784-.405.213-.837.32-1.296.32Zm.288-1.104c.683 0 1.344-.357 1.984-1.072v-4.064c-.33-.299-.65-.507-.96-.624-.298-.128-.608-.192-.928-.192-.416 0-.794.128-1.136.384-.33.245-.597.592-.8 1.04-.202.437-.304.955-.304 1.552 0 .928.187 1.659.56 2.192.374.523.902.784 1.584.784Zm9.263.912v-10.496h1.328v9.36h4.592V118h-5.92Zm9.445.192c-.651 0-1.195-.192-1.632-.576-.427-.395-.64-.939-.64-1.632 0-.853.378-1.504 1.136-1.952.768-.459 1.978-.779 3.632-.96 0-.331-.048-.645-.144-.944-.086-.299-.246-.539-.48-.72-.224-.192-.55-.288-.976-.288-.448 0-.87.085-1.264.256-.395.171-.747.363-1.056.576l-.512-.912c.362-.235.805-.459 1.328-.672.533-.224 1.109-.336 1.728-.336.949 0 1.637.293 2.064.88.426.576.64 1.349.64 2.32V118h-1.088l-.112-.928h-.048c-.363.299-.763.56-1.2.784-.427.224-.886.336-1.376.336Zm.384-1.056c.373 0 .725-.091 1.056-.272.33-.181.682-.437 1.056-.768v-2.16c-1.291.16-2.198.4-2.72.72-.512.32-.768.731-.768 1.232 0 .437.133.757.4.96.266.192.592.288.976.288Zm9.326 1.056c-.362 0-.741-.085-1.136-.256-.384-.181-.746-.427-1.088-.736h-.048l-.112.8h-1.056v-11.392h1.312v3.104l-.032 1.408c.352-.309.736-.565 1.152-.768.427-.213.854-.32 1.28-.32 1.014 0 1.782.357 2.304 1.072.523.715.784 1.675.784 2.88 0 .885-.16 1.643-.48 2.272-.309.629-.72 1.109-1.232 1.44-.501.331-1.05.496-1.648.496Zm-.224-1.104c.64 0 1.168-.272 1.584-.816.427-.555.64-1.312.64-2.272 0-.853-.16-1.541-.48-2.064-.309-.533-.832-.8-1.568-.8-.33 0-.666.091-1.008.272-.341.181-.698.443-1.072.784v4.08c.342.299.678.512 1.008.64.342.117.64.176.896.176Zm8.78 1.104c-.693 0-1.323-.16-1.888-.48-.565-.331-1.013-.8-1.344-1.408-.331-.608-.496-1.333-.496-2.176 0-.853.165-1.584.496-2.192.341-.608.779-1.077 1.312-1.408.533-.331 1.093-.496 1.68-.496.992 0 1.755.331 2.288.992.544.661.816 1.547.816 2.656 0 .139-.005.277-.016.416 0 .128-.011.24-.032.336h-5.248c.053.821.309 1.477.768 1.968.469.491 1.077.736 1.824.736.373 0 .715-.053 1.024-.16.32-.117.624-.267.912-.448l.464.864c-.331.213-.709.4-1.136.56-.416.16-.891.24-1.424.24Zm-2.448-4.704h4.16c0-.789-.171-1.387-.512-1.792-.331-.416-.8-.624-1.408-.624-.544 0-1.035.213-1.472.64-.427.416-.683 1.008-.768 1.776Zm8.626 4.704c-.491 0-.848-.149-1.072-.448-.214-.309-.32-.747-.32-1.312v-9.824h1.312v9.92c0 .203.037.352.112.448.074.085.16.128.256.128h.112c.042-.011.101-.021.176-.032l.176.992c-.086.043-.187.075-.304.096-.118.021-.267.032-.448.032Z"/>
    <rect width="24" height="24" x="223.5" y="100" fill="var(--control-color-visuals-guide-fill, #36F)" rx="12"/>
    <path fill="var(--control-color-visuals-guide-text, #fff)" d="M233.408 106.753h3.404V117h-1.75v-8.818h-1.654v-1.429Z"/>
    <path stroke="var(--control-color-visuals-guide-fill, #36F)" stroke-linecap="round" d="M271.5 112h-24"/>
    <circle cx="271.5" cy="112" r="2" fill="var(--control-color-visuals-guide-fill, #36F)"/>
    <path stroke="var(--control-color-visuals-guide-fill, #36F)" stroke-linecap="round" d="M288 122v30"/>
    <rect width="24" height="24" x="276" y="152" fill="var(--control-color-visuals-guide-fill, #36F)" rx="12"/>
    <path fill="var(--control-color-visuals-guide-text, #fff)" d="M287.815 158.609c.52 0 .987.082 1.402.246.415.16.765.381 1.053.664.287.278.505.606.656.984.155.374.232.775.232 1.203 0 .246-.027.488-.082.725-.055.232-.137.465-.246.697-.105.232-.239.472-.403.718-.16.241-.349.494-.568.758l-2.365 2.885h3.678V169h-7.041l3.978-4.799c.174-.209.338-.415.493-.615.155-.201.289-.401.403-.602.118-.2.21-.405.273-.615.069-.209.103-.431.103-.663 0-.219-.041-.417-.123-.595-.082-.182-.198-.337-.349-.465-.146-.132-.319-.232-.519-.3-.201-.073-.42-.11-.657-.11-.218 0-.43.032-.635.096-.205.064-.401.155-.588.273-.187.114-.365.251-.533.411-.169.155-.326.323-.472.505l-1.285-1.086c.496-.648 1.05-1.112 1.661-1.395.611-.287 1.255-.431 1.934-.431Z"/>
    <circle cx="288" cy="122" r="2" fill="var(--control-color-visuals-guide-fill, #36F)" transform="rotate(-90 288 122)"/>
    <path stroke="var(--control-color-visuals-guide-fill, #36F)" stroke-linecap="round" d="M409 112h-22"/>
    <rect width="24" height="24" x="409" y="100" fill="var(--control-color-visuals-guide-fill, #36F)" rx="12"/>
    <path fill="var(--control-color-visuals-guide-text, #fff)" d="M420.562 115.544c.233 0 .465-.03.698-.089.237-.064.449-.159.636-.287.191-.128.346-.287.464-.479.119-.196.178-.423.178-.683 0-.274-.066-.506-.198-.697-.132-.196-.312-.356-.54-.479-.224-.123-.483-.212-.779-.267-.292-.059-.6-.088-.923-.088h-.766v-1.47h.766c.278 0 .549-.032.813-.096.269-.064.506-.157.711-.28.21-.128.376-.285.499-.472.128-.191.191-.412.191-.663 0-.196-.041-.371-.123-.526-.082-.16-.198-.294-.348-.404-.146-.109-.321-.193-.527-.252-.2-.06-.419-.089-.656-.089-.146 0-.303.013-.471.041-.165.022-.331.066-.499.13-.165.059-.326.139-.486.239-.159.1-.307.225-.444.376l-1.067-1.162c.178-.215.383-.399.616-.554.237-.155.487-.283.752-.383.264-.105.537-.18.82-.225.287-.051.572-.076.854-.076.483 0 .923.066 1.32.199.401.132.745.316 1.032.553.287.237.51.52.67.848.159.324.239.679.239 1.066 0 .287-.043.554-.13.8-.086.242-.203.46-.348.656-.142.196-.303.37-.486.52-.182.146-.369.267-.56.362.314.11.585.253.813.431.233.173.424.371.574.595.151.223.262.462.335.717.073.256.11.518.11.787 0 .328-.05.628-.151.902-.1.273-.239.522-.417.745-.177.223-.387.419-.629.588-.237.164-.494.303-.772.417-.273.114-.561.198-.861.253-.301.059-.6.089-.896.089-.419 0-.804-.048-1.155-.144-.351-.1-.665-.219-.943-.355-.274-.137-.509-.278-.705-.424-.196-.151-.348-.276-.458-.376l.964-1.313c.31.31.661.559 1.053.746.397.182.807.273 1.23.273Z"/>
    <circle cx="387" cy="112" r="2" fill="var(--control-color-visuals-guide-fill, #36F)" transform="rotate(-180 387 112)"/>
  </g>
  <defs>
    <clipPath id="clip0_2320_6652">
      <rect width="656" height="224" fill="var(--control-color-visuals-guide-text, #fff)" rx="2"/>
    </clipPath>
  </defs>
</svg>
