<svg xmlns="http://www.w3.org/2000/svg" fill="none" viewBox="0 0 656 352" aria-labelledby="anatomyTitle anatomyDesc" role="img">
<title id="anatomyTitle">Checkbox anatomy</title>
<desc id="anatomyDesc">Anatomy of a checkbox group. 1. Field label; 2. Checkbox input; 3. Icon; 4. Label; 5. Helper Text and Hint; 6. Checkboxes group.</desc>
<path fill="var(--control-color-surface-100-surface, #F4F4F4)" d="M0 0h656v352H0z"/>
<path stroke="var(--control-color-visuals-guide-fill, #36F)" d="M411 264h8c1.105 0 2-.895 2-2V94c0-1.1046-.895-2-2-2h-8"/>
<path stroke="var(--control-color-visuals-guide-fill, #36F)" stroke-linecap="round" d="M447 178h-26"/>
<rect width="24" height="24" x="447" y="166" fill="var(--control-color-visuals-guide-fill, #36F)" rx="12"/>
<path fill="var(--control-color-visuals-guide-text, #fff)" d="M455.493 179.582c0-.255.032-.508.096-.759.068-.25.159-.499.273-.745.114-.251.246-.497.397-.738.155-.246.321-.492.499-.738l2.768-3.849h2.031c-.424.579-.848 1.151-1.272 1.716-.419.565-.843 1.137-1.271 1.716.465 0 .907.077 1.326.232.424.15.793.371 1.107.663.319.287.572.64.759 1.06.191.414.287.886.287 1.415 0 .496-.091.964-.273 1.401-.183.433-.433.811-.752 1.135-.315.323-.686.579-1.114.765-.424.187-.878.281-1.361.281s-.936-.091-1.36-.274c-.424-.182-.795-.433-1.114-.752-.315-.319-.566-.695-.752-1.128-.183-.433-.274-.9-.274-1.401Zm1.771 0c0 .278.043.533.13.766.091.232.214.433.369.601.159.164.344.294.553.39.21.091.436.137.677.137.242 0 .47-.046.684-.137.214-.096.399-.228.553-.397.16-.168.285-.369.376-.601.092-.233.137-.49.137-.773 0-.269-.045-.517-.137-.745-.091-.228-.216-.424-.376-.588-.154-.164-.339-.291-.553-.382-.214-.096-.442-.144-.684-.144-.241 0-.467.048-.677.144a1.678 1.678 0 0 0-.553.389c-.155.164-.278.36-.369.588-.087.228-.13.479-.13.752Z"/>
<path fill="var(--control-color-visuals-component-text, #3E3D3D)" d="M251.386 68V56.264h7.398v2.232h-4.752v2.718h4.068v2.232h-4.068V68h-2.646Zm9.223 0v-8.928h2.646V68h-2.646Zm1.314-10.242c-.444 0-.804-.126-1.08-.378s-.414-.588-.414-1.008c0-.42.138-.756.414-1.008.276-.252.636-.378 1.08-.378.444 0 .804.126 1.08.378s.414.588.414 1.008c0 .42-.138.756-.414 1.008-.276.252-.636.378-1.08.378Zm7.657 10.458c-.852 0-1.62-.186-2.304-.558-.684-.372-1.224-.906-1.62-1.602-.396-.696-.594-1.536-.594-2.52 0-.972.198-1.806.594-2.502.408-.696.936-1.23 1.584-1.602.648-.384 1.326-.576 2.034-.576.852 0 1.554.192 2.106.576.564.372.984.882 1.26 1.53.288.636.432 1.362.432 2.178 0 .228-.012.456-.036.684-.024.216-.048.378-.072.486h-5.346c.12.648.39 1.128.81 1.44.42.3.924.45 1.512.45.636 0 1.278-.198 1.926-.594l.882 1.602c-.456.312-.966.558-1.53.738-.564.18-1.11.27-1.638.27Zm-1.98-5.652h3.222c0-.492-.12-.894-.36-1.206-.228-.324-.606-.486-1.134-.486-.408 0-.774.144-1.098.432-.324.276-.534.696-.63 1.26Zm9.73 5.652c-.912 0-1.548-.27-1.908-.81-.348-.552-.522-1.278-.522-2.178v-9.846h2.646v9.954c0 .276.048.468.144.576.108.108.216.162.324.162h.144c.048-.012.108-.024.18-.036l.324 1.962c-.144.06-.33.108-.558.144-.216.048-.474.072-.774.072Zm5.907 0c-1.104 0-1.992-.414-2.664-1.242-.66-.84-.99-1.986-.99-3.438 0-.972.174-1.806.522-2.502.36-.708.822-1.248 1.386-1.62.576-.372 1.176-.558 1.8-.558.492 0 .906.084 1.242.252.336.168.654.396.954.684l-.108-1.368v-3.042h2.646V68h-2.16l-.18-.882h-.072c-.312.312-.678.576-1.098.792-.42.204-.846.306-1.278.306Zm.684-2.16c.288 0 .546-.06.774-.18.24-.12.468-.33.684-.63v-3.654c-.228-.216-.474-.366-.738-.45-.252-.084-.498-.126-.738-.126-.42 0-.792.204-1.116.612-.324.396-.486 1.02-.486 1.872 0 .876.138 1.524.414 1.944.288.408.69.612 1.206.612ZM294.189 68V56.264h2.646v9.504h4.644V68h-7.29Zm11.35.216c-.816 0-1.464-.258-1.944-.774-.48-.528-.72-1.17-.72-1.926 0-.936.396-1.668 1.188-2.196.792-.528 2.07-.882 3.834-1.062-.024-.396-.144-.708-.36-.936-.204-.24-.552-.36-1.044-.36-.372 0-.75.072-1.134.216-.384.144-.792.342-1.224.594l-.954-1.746c.564-.348 1.164-.63 1.8-.846.648-.216 1.32-.324 2.016-.324 1.14 0 2.016.33 2.628.99.612.66.918 1.674.918 3.042V68h-2.16l-.18-.918h-.072c-.372.336-.774.612-1.206.828-.42.204-.882.306-1.386.306Zm.9-2.052c.3 0 .558-.066.774-.198.228-.144.456-.33.684-.558v-1.566c-.936.12-1.584.312-1.944.576-.36.252-.54.552-.54.9 0 .288.09.504.27.648.192.132.444.198.756.198Zm11.022 2.052c-.396 0-.798-.096-1.206-.288-.396-.204-.768-.498-1.116-.882h-.072l-.216.954h-2.07V55.382h2.646v3.096l-.072 1.368c.348-.312.726-.552 1.134-.72.408-.18.816-.27 1.224-.27.72 0 1.344.186 1.872.558.528.372.93.9 1.206 1.584.288.672.432 1.464.432 2.376 0 1.02-.18 1.896-.54 2.628-.36.72-.828 1.272-1.404 1.656-.564.372-1.17.558-1.818.558Zm-.612-2.16c.456 0 .846-.21 1.17-.63.324-.42.486-1.086.486-1.998 0-1.608-.516-2.412-1.548-2.412-.528 0-1.038.27-1.53.81v3.654c.24.216.48.366.72.45.24.084.474.126.702.126Zm10.247 2.16c-.852 0-1.62-.186-2.304-.558-.684-.372-1.224-.906-1.62-1.602-.396-.696-.594-1.536-.594-2.52 0-.972.198-1.806.594-2.502.408-.696.936-1.23 1.584-1.602.648-.384 1.326-.576 2.034-.576.852 0 1.554.192 2.106.576.564.372.984.882 1.26 1.53.288.636.432 1.362.432 2.178 0 .228-.012.456-.036.684-.024.216-.048.378-.072.486h-5.346c.12.648.39 1.128.81 1.44.42.3.924.45 1.512.45.636 0 1.278-.198 1.926-.594l.882 1.602c-.456.312-.966.558-1.53.738-.564.18-1.11.27-1.638.27Zm-1.98-5.652h3.222c0-.492-.12-.894-.36-1.206-.228-.324-.606-.486-1.134-.486-.408 0-.774.144-1.098.432-.324.276-.534.696-.63 1.26Zm9.73 5.652c-.912 0-1.548-.27-1.908-.81-.348-.552-.522-1.278-.522-2.178v-9.846h2.646v9.954c0 .276.048.468.144.576.108.108.216.162.324.162h.144c.048-.012.108-.024.18-.036l.324 1.962c-.144.06-.33.108-.558.144-.216.048-.474.072-.774.072Z"/>
<rect width="31" height="31" x="250.5" y="94.5" stroke="var(--control-color-visuals-background, #9EBAFF)" rx="1.5"/>
<path fill="var(--control-color-visuals-component-text, #3E3D3D)" d="M295.408 116.192c-.875 0-1.659-.213-2.352-.64-.683-.437-1.227-1.061-1.632-1.872-.395-.811-.592-1.787-.592-2.928 0-1.131.203-2.101.608-2.912.405-.811.96-1.435 1.664-1.872.704-.437 1.499-.656 2.384-.656.64 0 1.205.133 1.696.4.491.256.885.555 1.184.896l-.72.864c-.277-.299-.592-.539-.944-.72-.352-.181-.752-.272-1.2-.272-.661 0-1.243.176-1.744.528-.491.341-.875.827-1.152 1.456-.267.629-.4 1.381-.4 2.256 0 .875.133 1.637.4 2.288.267.64.64 1.136 1.12 1.488.491.352 1.067.528 1.728.528.501 0 .949-.107 1.344-.32.395-.213.757-.501 1.088-.864l.736.832c-.416.48-.885.853-1.408 1.12-.523.267-1.125.4-1.808.4Zm5.045-.192v-11.392h1.312v3.104l-.048 1.6c.373-.352.762-.651 1.168-.896.416-.256.89-.384 1.424-.384.821 0 1.418.261 1.792.784.384.512.576 1.264.576 2.256V116h-1.312v-4.752c0-.725-.118-1.253-.352-1.584-.235-.331-.608-.496-1.12-.496-.395 0-.752.101-1.072.304-.31.203-.662.501-1.056.896V116h-1.312Zm11.855.192c-.694 0-1.323-.16-1.888-.48-.566-.331-1.014-.8-1.344-1.408-.331-.608-.496-1.333-.496-2.176 0-.853.165-1.584.496-2.192.341-.608.778-1.077 1.312-1.408.533-.331 1.093-.496 1.68-.496.992 0 1.754.331 2.288.992.544.661.816 1.547.816 2.656 0 .139-.006.277-.016.416 0 .128-.011.24-.032.336h-5.248c.053.821.309 1.477.768 1.968.469.491 1.077.736 1.824.736.373 0 .714-.053 1.024-.16.32-.117.624-.267.912-.448l.464.864c-.331.213-.71.4-1.136.56-.416.16-.891.24-1.424.24Zm-2.448-4.704h4.16c0-.789-.171-1.387-.512-1.792-.331-.416-.8-.624-1.408-.624-.544 0-1.035.213-1.472.64-.427.416-.683 1.008-.768 1.776Zm10.305 4.704c-.682 0-1.301-.16-1.856-.48-.554-.32-.992-.784-1.312-1.392-.32-.608-.48-1.339-.48-2.192 0-.875.171-1.616.512-2.224.352-.608.811-1.072 1.376-1.392.576-.32 1.195-.48 1.856-.48.512 0 .95.091 1.312.272.374.181.694.395.96.64l-.672.864c-.224-.203-.464-.368-.72-.496-.245-.128-.522-.192-.832-.192-.469 0-.89.128-1.264.384-.362.245-.65.597-.864 1.056-.202.448-.304.971-.304 1.568 0 .885.219 1.605.656 2.16.448.544 1.03.816 1.744.816.363 0 .699-.075 1.008-.224.31-.16.582-.347.816-.56l.576.88c-.352.309-.741.555-1.168.736-.426.171-.874.256-1.344.256Zm4.225-.192v-11.392h1.296v7.712h.048l3.312-4.096h1.456l-2.608 3.12 2.96 4.656h-1.44l-2.272-3.744-1.456 1.696V116h-1.296Zm11.362.192c-.363 0-.741-.085-1.136-.256-.384-.181-.747-.427-1.088-.736h-.048l-.112.8h-1.056v-11.392h1.312v3.104l-.032 1.408c.352-.309.736-.565 1.152-.768.427-.213.853-.32 1.28-.32 1.013 0 1.781.357 2.304 1.072.523.715.784 1.675.784 2.88 0 .885-.16 1.643-.48 2.272-.309.629-.72 1.109-1.232 1.44-.501.331-1.051.496-1.648.496Zm-.224-1.104c.64 0 1.168-.272 1.584-.816.427-.555.64-1.312.64-2.272 0-.853-.16-1.541-.48-2.064-.309-.533-.832-.8-1.568-.8-.331 0-.667.091-1.008.272-.341.181-.699.443-1.072.784v4.08c.341.299.677.512 1.008.64.341.117.64.176.896.176Zm8.652 1.104c-.63 0-1.222-.16-1.776-.48-.544-.32-.987-.784-1.328-1.392-.331-.608-.496-1.339-.496-2.192 0-.875.165-1.616.496-2.224.341-.608.784-1.072 1.328-1.392.554-.32 1.146-.48 1.776-.48.64 0 1.232.16 1.776.48.544.32.981.784 1.312 1.392.341.608.512 1.349.512 2.224 0 .853-.171 1.584-.512 2.192-.331.608-.768 1.072-1.312 1.392-.544.32-1.136.48-1.776.48Zm0-1.088c.672 0 1.21-.272 1.616-.816.416-.555.624-1.275.624-2.16 0-.896-.208-1.621-.624-2.176-.406-.555-.944-.832-1.616-.832-.662 0-1.2.277-1.616.832-.416.555-.624 1.28-.624 2.176 0 .885.208 1.605.624 2.16.416.544.954.816 1.616.816Zm4.294.896 2.544-4.064-2.352-3.712h1.424l1.04 1.712c.117.203.24.416.368.64.128.224.261.443.4.656h.064c.117-.213.235-.432.352-.656.117-.224.235-.437.352-.64l.944-1.712h1.376l-2.352 3.856 2.528 3.92h-1.424l-1.136-1.808c-.139-.235-.277-.469-.416-.704-.139-.235-.283-.464-.432-.688h-.064c-.139.224-.272.453-.4.688-.128.224-.256.459-.384.704L349.85 116h-1.376Zm11.56 0v-10.496h1.328v9.36h4.592V116h-5.92Zm9.445.192c-.651 0-1.195-.192-1.632-.576-.427-.395-.64-.939-.64-1.632 0-.853.379-1.504 1.136-1.952.768-.459 1.979-.779 3.632-.96 0-.331-.048-.645-.144-.944-.085-.299-.245-.539-.48-.72-.224-.192-.549-.288-.976-.288-.448 0-.869.085-1.264.256-.395.171-.747.363-1.056.576l-.512-.912c.363-.235.805-.459 1.328-.672.533-.224 1.109-.336 1.728-.336.949 0 1.637.293 2.064.88.427.576.64 1.349.64 2.32V116h-1.088l-.112-.928h-.048c-.363.299-.763.56-1.2.784-.427.224-.885.336-1.376.336Zm.384-1.056c.373 0 .725-.091 1.056-.272.331-.181.683-.437 1.056-.768v-2.16c-1.291.16-2.197.4-2.72.72-.512.32-.768.731-.768 1.232 0 .437.133.757.4.96.267.192.592.288.976.288Zm9.327 1.056c-.363 0-.742-.085-1.136-.256-.384-.181-.747-.427-1.088-.736h-.048l-.112.8h-1.056v-11.392h1.312v3.104l-.032 1.408c.352-.309.736-.565 1.152-.768.426-.213.853-.32 1.28-.32 1.013 0 1.781.357 2.304 1.072.522.715.784 1.675.784 2.88 0 .885-.16 1.643-.48 2.272-.31.629-.72 1.109-1.232 1.44-.502.331-1.051.496-1.648.496Zm-.224-1.104c.64 0 1.168-.272 1.584-.816.426-.555.64-1.312.64-2.272 0-.853-.16-1.541-.48-2.064-.31-.533-.832-.8-1.569-.8-.33 0-.666.091-1.007.272-.342.181-.699.443-1.072.784v4.08c.341.299.677.512 1.008.64.341.117.64.176.896.176Zm8.779 1.104c-.693 0-1.322-.16-1.888-.48-.565-.331-1.013-.8-1.344-1.408-.33-.608-.496-1.333-.496-2.176 0-.853.166-1.584.496-2.192.342-.608.779-1.077 1.312-1.408.534-.331 1.094-.496 1.68-.496.992 0 1.755.331 2.288.992.544.661.816 1.547.816 2.656 0 .139-.005.277-.016.416 0 .128-.01.24-.032.336h-5.248c.054.821.31 1.477.768 1.968.47.491 1.078.736 1.824.736.374 0 .715-.053 1.024-.16.32-.117.624-.267.912-.448l.464.864c-.33.213-.709.4-1.136.56-.416.16-.89.24-1.424.24Zm-2.448-4.704h4.16c0-.789-.17-1.387-.512-1.792-.33-.416-.8-.624-1.408-.624-.544 0-1.034.213-1.472.64-.426.416-.682 1.008-.768 1.776Zm8.626 4.704c-.491 0-.848-.149-1.072-.448-.214-.309-.32-.747-.32-1.312v-9.824h1.312v9.92c0 .203.037.352.112.448.074.085.16.128.256.128h.112c.042-.011.101-.021.176-.032l.176.992c-.086.043-.187.075-.304.096-.118.021-.267.032-.448.032Zm5.841-.192v-1.088h2.336v-7.52h-1.856v-.848c.469-.085.875-.187 1.216-.304.352-.128.667-.277.944-.448h1.008v9.12h2.112V116h-5.76Z"/>
<rect width="31" height="31" x="250.5" y="142.5" fill="var(--control-color-visuals-background, #9EBAFF)" rx="1.5"/>
<path stroke="var(--control-color-visuals-guide-text, #fff)" stroke-linecap="round" stroke-linejoin="round" stroke-width="2" d="m258.5 158 5 5 10-10"/>
<rect width="31" height="31" x="250.5" y="142.5" stroke="var(--control-color-visuals-background, #9EBAFF)" rx="1.5"/>
<path fill="var(--control-color-visuals-component-text, #3E3D3D)" d="M295.408 164.192c-.875 0-1.659-.213-2.352-.64-.683-.437-1.227-1.061-1.632-1.872-.395-.811-.592-1.787-.592-2.928 0-1.131.203-2.101.608-2.912.405-.811.96-1.435 1.664-1.872.704-.437 1.499-.656 2.384-.656.64 0 1.205.133 1.696.4.491.256.885.555 1.184.896l-.72.864c-.277-.299-.592-.539-.944-.72-.352-.181-.752-.272-1.2-.272-.661 0-1.243.176-1.744.528-.491.341-.875.827-1.152 1.456-.267.629-.4 1.381-.4 2.256 0 .875.133 1.637.4 2.288.267.64.64 1.136 1.12 1.488.491.352 1.067.528 1.728.528.501 0 .949-.107 1.344-.32.395-.213.757-.501 1.088-.864l.736.832c-.416.48-.885.853-1.408 1.12-.523.267-1.125.4-1.808.4Zm5.045-.192v-11.392h1.312v3.104l-.048 1.6c.373-.352.762-.651 1.168-.896.416-.256.89-.384 1.424-.384.821 0 1.418.261 1.792.784.384.512.576 1.264.576 2.256V164h-1.312v-4.752c0-.725-.118-1.253-.352-1.584-.235-.331-.608-.496-1.12-.496-.395 0-.752.101-1.072.304-.31.203-.662.501-1.056.896V164h-1.312Zm11.855.192c-.694 0-1.323-.16-1.888-.48-.566-.331-1.014-.8-1.344-1.408-.331-.608-.496-1.333-.496-2.176 0-.853.165-1.584.496-2.192.341-.608.778-1.077 1.312-1.408.533-.331 1.093-.496 1.68-.496.992 0 1.754.331 2.288.992.544.661.816 1.547.816 2.656 0 .139-.006.277-.016.416 0 .128-.011.24-.032.336h-5.248c.053.821.309 1.477.768 1.968.469.491 1.077.736 1.824.736.373 0 .714-.053 1.024-.16.32-.117.624-.267.912-.448l.464.864c-.331.213-.71.4-1.136.56-.416.16-.891.24-1.424.24Zm-2.448-4.704h4.16c0-.789-.171-1.387-.512-1.792-.331-.416-.8-.624-1.408-.624-.544 0-1.035.213-1.472.64-.427.416-.683 1.008-.768 1.776Zm10.305 4.704c-.682 0-1.301-.16-1.856-.48-.554-.32-.992-.784-1.312-1.392-.32-.608-.48-1.339-.48-2.192 0-.875.171-1.616.512-2.224.352-.608.811-1.072 1.376-1.392.576-.32 1.195-.48 1.856-.48.512 0 .95.091 1.312.272.374.181.694.395.96.64l-.672.864c-.224-.203-.464-.368-.72-.496-.245-.128-.522-.192-.832-.192-.469 0-.89.128-1.264.384-.362.245-.65.597-.864 1.056-.202.448-.304.971-.304 1.568 0 .885.219 1.605.656 2.16.448.544 1.03.816 1.744.816.363 0 .699-.075 1.008-.224.31-.16.582-.347.816-.56l.576.88c-.352.309-.741.555-1.168.736-.426.171-.874.256-1.344.256Zm4.225-.192v-11.392h1.296v7.712h.048l3.312-4.096h1.456l-2.608 3.12 2.96 4.656h-1.44l-2.272-3.744-1.456 1.696V164h-1.296Zm11.362.192c-.363 0-.741-.085-1.136-.256-.384-.181-.747-.427-1.088-.736h-.048l-.112.8h-1.056v-11.392h1.312v3.104l-.032 1.408c.352-.309.736-.565 1.152-.768.427-.213.853-.32 1.28-.32 1.013 0 1.781.357 2.304 1.072.523.715.784 1.675.784 2.88 0 .885-.16 1.643-.48 2.272-.309.629-.72 1.109-1.232 1.44-.501.331-1.051.496-1.648.496Zm-.224-1.104c.64 0 1.168-.272 1.584-.816.427-.555.64-1.312.64-2.272 0-.853-.16-1.541-.48-2.064-.309-.533-.832-.8-1.568-.8-.331 0-.667.091-1.008.272-.341.181-.699.443-1.072.784v4.08c.341.299.677.512 1.008.64.341.117.64.176.896.176Zm8.652 1.104c-.63 0-1.222-.16-1.776-.48-.544-.32-.987-.784-1.328-1.392-.331-.608-.496-1.339-.496-2.192 0-.875.165-1.616.496-2.224.341-.608.784-1.072 1.328-1.392.554-.32 1.146-.48 1.776-.48.64 0 1.232.16 1.776.48.544.32.981.784 1.312 1.392.341.608.512 1.349.512 2.224 0 .853-.171 1.584-.512 2.192-.331.608-.768 1.072-1.312 1.392-.544.32-1.136.48-1.776.48Zm0-1.088c.672 0 1.21-.272 1.616-.816.416-.555.624-1.275.624-2.16 0-.896-.208-1.621-.624-2.176-.406-.555-.944-.832-1.616-.832-.662 0-1.2.277-1.616.832-.416.555-.624 1.28-.624 2.176 0 .885.208 1.605.624 2.16.416.544.954.816 1.616.816Zm4.294.896 2.544-4.064-2.352-3.712h1.424l1.04 1.712c.117.203.24.416.368.64.128.224.261.443.4.656h.064c.117-.213.235-.432.352-.656.117-.224.235-.437.352-.64l.944-1.712h1.376l-2.352 3.856 2.528 3.92h-1.424l-1.136-1.808c-.139-.235-.277-.469-.416-.704-.139-.235-.283-.464-.432-.688h-.064c-.139.224-.272.453-.4.688-.128.224-.256.459-.384.704L349.85 164h-1.376Zm11.56 0v-10.496h1.328v9.36h4.592V164h-5.92Zm9.445.192c-.651 0-1.195-.192-1.632-.576-.427-.395-.64-.939-.64-1.632 0-.853.379-1.504 1.136-1.952.768-.459 1.979-.779 3.632-.96 0-.331-.048-.645-.144-.944-.085-.299-.245-.539-.48-.72-.224-.192-.549-.288-.976-.288-.448 0-.869.085-1.264.256-.395.171-.747.363-1.056.576l-.512-.912c.363-.235.805-.459 1.328-.672.533-.224 1.109-.336 1.728-.336.949 0 1.637.293 2.064.88.427.576.64 1.349.64 2.32V164h-1.088l-.112-.928h-.048c-.363.299-.763.56-1.2.784-.427.224-.885.336-1.376.336Zm.384-1.056c.373 0 .725-.091 1.056-.272.331-.181.683-.437 1.056-.768v-2.16c-1.291.16-2.197.4-2.72.72-.512.32-.768.731-.768 1.232 0 .437.133.757.4.96.267.192.592.288.976.288Zm9.327 1.056c-.363 0-.742-.085-1.136-.256-.384-.181-.747-.427-1.088-.736h-.048l-.112.8h-1.056v-11.392h1.312v3.104l-.032 1.408c.352-.309.736-.565 1.152-.768.426-.213.853-.32 1.28-.32 1.013 0 1.781.357 2.304 1.072.522.715.784 1.675.784 2.88 0 .885-.16 1.643-.48 2.272-.31.629-.72 1.109-1.232 1.44-.502.331-1.051.496-1.648.496Zm-.224-1.104c.64 0 1.168-.272 1.584-.816.426-.555.64-1.312.64-2.272 0-.853-.16-1.541-.48-2.064-.31-.533-.832-.8-1.569-.8-.33 0-.666.091-1.007.272-.342.181-.699.443-1.072.784v4.08c.341.299.677.512 1.008.64.341.117.64.176.896.176Zm8.779 1.104c-.693 0-1.322-.16-1.888-.48-.565-.331-1.013-.8-1.344-1.408-.33-.608-.496-1.333-.496-2.176 0-.853.166-1.584.496-2.192.342-.608.779-1.077 1.312-1.408.534-.331 1.094-.496 1.68-.496.992 0 1.755.331 2.288.992.544.661.816 1.547.816 2.656 0 .139-.005.277-.016.416 0 .128-.01.24-.032.336h-5.248c.054.821.31 1.477.768 1.968.47.491 1.078.736 1.824.736.374 0 .715-.053 1.024-.16.32-.117.624-.267.912-.448l.464.864c-.33.213-.709.4-1.136.56-.416.16-.89.24-1.424.24Zm-2.448-4.704h4.16c0-.789-.17-1.387-.512-1.792-.33-.416-.8-.624-1.408-.624-.544 0-1.034.213-1.472.64-.426.416-.682 1.008-.768 1.776Zm8.626 4.704c-.491 0-.848-.149-1.072-.448-.214-.309-.32-.747-.32-1.312v-9.824h1.312v9.92c0 .203.037.352.112.448.074.085.16.128.256.128h.112c.042-.011.101-.021.176-.032l.176.992c-.086.043-.187.075-.304.096-.118.021-.267.032-.448.032Zm5.217-.192v-.784c1.024-1.024 1.893-1.92 2.608-2.688.715-.779 1.259-1.477 1.632-2.096.373-.629.56-1.216.56-1.76 0-.587-.16-1.067-.48-1.44-.32-.373-.805-.56-1.456-.56-.427 0-.821.123-1.184.368-.363.235-.693.523-.992.864l-.752-.752c.427-.469.88-.843 1.36-1.12.491-.288 1.067-.432 1.728-.432.949 0 1.696.277 2.24.832.544.544.816 1.269.816 2.176 0 .64-.181 1.291-.544 1.952-.352.651-.843 1.339-1.472 2.064-.619.715-1.333 1.493-2.144 2.336.277-.021.565-.043.864-.064.299-.021.581-.032.848-.032h2.96V164h-6.592Z"/>
<rect width="31" height="31" x="250.5" y="190.5" stroke="var(--control-color-visuals-background, #9EBAFF)" rx="1.5"/>
<path fill="var(--control-color-visuals-component-text, #3E3D3D)" d="M295.408 212.192c-.875 0-1.659-.213-2.352-.64-.683-.437-1.227-1.061-1.632-1.872-.395-.811-.592-1.787-.592-2.928 0-1.131.203-2.101.608-2.912.405-.811.96-1.435 1.664-1.872.704-.437 1.499-.656 2.384-.656.64 0 1.205.133 1.696.4.491.256.885.555 1.184.896l-.72.864c-.277-.299-.592-.539-.944-.72-.352-.181-.752-.272-1.2-.272-.661 0-1.243.176-1.744.528-.491.341-.875.827-1.152 1.456-.267.629-.4 1.381-.4 2.256 0 .875.133 1.637.4 2.288.267.64.64 1.136 1.12 1.488.491.352 1.067.528 1.728.528.501 0 .949-.107 1.344-.32.395-.213.757-.501 1.088-.864l.736.832c-.416.48-.885.853-1.408 1.12-.523.267-1.125.4-1.808.4Zm5.045-.192v-11.392h1.312v3.104l-.048 1.6c.373-.352.762-.651 1.168-.896.416-.256.89-.384 1.424-.384.821 0 1.418.261 1.792.784.384.512.576 1.264.576 2.256V212h-1.312v-4.752c0-.725-.118-1.253-.352-1.584-.235-.331-.608-.496-1.12-.496-.395 0-.752.101-1.072.304-.31.203-.662.501-1.056.896V212h-1.312Zm11.855.192c-.694 0-1.323-.16-1.888-.48-.566-.331-1.014-.8-1.344-1.408-.331-.608-.496-1.333-.496-2.176 0-.853.165-1.584.496-2.192.341-.608.778-1.077 1.312-1.408.533-.331 1.093-.496 1.68-.496.992 0 1.754.331 2.288.992.544.661.816 1.547.816 2.656 0 .139-.006.277-.016.416 0 .128-.011.24-.032.336h-5.248c.053.821.309 1.477.768 1.968.469.491 1.077.736 1.824.736.373 0 .714-.053 1.024-.16.32-.117.624-.267.912-.448l.464.864c-.331.213-.71.4-1.136.56-.416.16-.891.24-1.424.24Zm-2.448-4.704h4.16c0-.789-.171-1.387-.512-1.792-.331-.416-.8-.624-1.408-.624-.544 0-1.035.213-1.472.64-.427.416-.683 1.008-.768 1.776Zm10.305 4.704c-.682 0-1.301-.16-1.856-.48-.554-.32-.992-.784-1.312-1.392-.32-.608-.48-1.339-.48-2.192 0-.875.171-1.616.512-2.224.352-.608.811-1.072 1.376-1.392.576-.32 1.195-.48 1.856-.48.512 0 .95.091 1.312.272.374.181.694.395.96.64l-.672.864c-.224-.203-.464-.368-.72-.496-.245-.128-.522-.192-.832-.192-.469 0-.89.128-1.264.384-.362.245-.65.597-.864 1.056-.202.448-.304.971-.304 1.568 0 .885.219 1.605.656 2.16.448.544 1.03.816 1.744.816.363 0 .699-.075 1.008-.224.31-.16.582-.347.816-.56l.576.88c-.352.309-.741.555-1.168.736-.426.171-.874.256-1.344.256Zm4.225-.192v-11.392h1.296v7.712h.048l3.312-4.096h1.456l-2.608 3.12 2.96 4.656h-1.44l-2.272-3.744-1.456 1.696V212h-1.296Zm11.362.192c-.363 0-.741-.085-1.136-.256-.384-.181-.747-.427-1.088-.736h-.048l-.112.8h-1.056v-11.392h1.312v3.104l-.032 1.408c.352-.309.736-.565 1.152-.768.427-.213.853-.32 1.28-.32 1.013 0 1.781.357 2.304 1.072.523.715.784 1.675.784 2.88 0 .885-.16 1.643-.48 2.272-.309.629-.72 1.109-1.232 1.44-.501.331-1.051.496-1.648.496Zm-.224-1.104c.64 0 1.168-.272 1.584-.816.427-.555.64-1.312.64-2.272 0-.853-.16-1.541-.48-2.064-.309-.533-.832-.8-1.568-.8-.331 0-.667.091-1.008.272-.341.181-.699.443-1.072.784v4.08c.341.299.677.512 1.008.64.341.117.64.176.896.176Zm8.652 1.104c-.63 0-1.222-.16-1.776-.48-.544-.32-.987-.784-1.328-1.392-.331-.608-.496-1.339-.496-2.192 0-.875.165-1.616.496-2.224.341-.608.784-1.072 1.328-1.392.554-.32 1.146-.48 1.776-.48.64 0 1.232.16 1.776.48.544.32.981.784 1.312 1.392.341.608.512 1.349.512 2.224 0 .853-.171 1.584-.512 2.192-.331.608-.768 1.072-1.312 1.392-.544.32-1.136.48-1.776.48Zm0-1.088c.672 0 1.21-.272 1.616-.816.416-.555.624-1.275.624-2.16 0-.896-.208-1.621-.624-2.176-.406-.555-.944-.832-1.616-.832-.662 0-1.2.277-1.616.832-.416.555-.624 1.28-.624 2.176 0 .885.208 1.605.624 2.16.416.544.954.816 1.616.816Zm4.294.896 2.544-4.064-2.352-3.712h1.424l1.04 1.712c.117.203.24.416.368.64.128.224.261.443.4.656h.064c.117-.213.235-.432.352-.656.117-.224.235-.437.352-.64l.944-1.712h1.376l-2.352 3.856 2.528 3.92h-1.424l-1.136-1.808c-.139-.235-.277-.469-.416-.704-.139-.235-.283-.464-.432-.688h-.064c-.139.224-.272.453-.4.688-.128.224-.256.459-.384.704L349.85 212h-1.376Zm11.56 0v-10.496h1.328v9.36h4.592V212h-5.92Zm9.445.192c-.651 0-1.195-.192-1.632-.576-.427-.395-.64-.939-.64-1.632 0-.853.379-1.504 1.136-1.952.768-.459 1.979-.779 3.632-.96 0-.331-.048-.645-.144-.944-.085-.299-.245-.539-.48-.72-.224-.192-.549-.288-.976-.288-.448 0-.869.085-1.264.256-.395.171-.747.363-1.056.576l-.512-.912c.363-.235.805-.459 1.328-.672.533-.224 1.109-.336 1.728-.336.949 0 1.637.293 2.064.88.427.576.64 1.349.64 2.32V212h-1.088l-.112-.928h-.048c-.363.299-.763.56-1.2.784-.427.224-.885.336-1.376.336Zm.384-1.056c.373 0 .725-.091 1.056-.272.331-.181.683-.437 1.056-.768v-2.16c-1.291.16-2.197.4-2.72.72-.512.32-.768.731-.768 1.232 0 .437.133.757.4.96.267.192.592.288.976.288Zm9.327 1.056c-.363 0-.742-.085-1.136-.256-.384-.181-.747-.427-1.088-.736h-.048l-.112.8h-1.056v-11.392h1.312v3.104l-.032 1.408c.352-.309.736-.565 1.152-.768.426-.213.853-.32 1.28-.32 1.013 0 1.781.357 2.304 1.072.522.715.784 1.675.784 2.88 0 .885-.16 1.643-.48 2.272-.31.629-.72 1.109-1.232 1.44-.502.331-1.051.496-1.648.496Zm-.224-1.104c.64 0 1.168-.272 1.584-.816.426-.555.64-1.312.64-2.272 0-.853-.16-1.541-.48-2.064-.31-.533-.832-.8-1.569-.8-.33 0-.666.091-1.007.272-.342.181-.699.443-1.072.784v4.08c.341.299.677.512 1.008.64.341.117.64.176.896.176Zm8.779 1.104c-.693 0-1.322-.16-1.888-.48-.565-.331-1.013-.8-1.344-1.408-.33-.608-.496-1.333-.496-2.176 0-.853.166-1.584.496-2.192.342-.608.779-1.077 1.312-1.408.534-.331 1.094-.496 1.68-.496.992 0 1.755.331 2.288.992.544.661.816 1.547.816 2.656 0 .139-.005.277-.016.416 0 .128-.01.24-.032.336h-5.248c.054.821.31 1.477.768 1.968.47.491 1.078.736 1.824.736.374 0 .715-.053 1.024-.16.32-.117.624-.267.912-.448l.464.864c-.33.213-.709.4-1.136.56-.416.16-.89.24-1.424.24Zm-2.448-4.704h4.16c0-.789-.17-1.387-.512-1.792-.33-.416-.8-.624-1.408-.624-.544 0-1.034.213-1.472.64-.426.416-.682 1.008-.768 1.776Zm8.626 4.704c-.491 0-.848-.149-1.072-.448-.214-.309-.32-.747-.32-1.312v-9.824h1.312v9.92c0 .203.037.352.112.448.074.085.16.128.256.128h.112c.042-.011.101-.021.176-.032l.176.992c-.086.043-.187.075-.304.096-.118.021-.267.032-.448.032Zm8.353 0c-.811 0-1.488-.144-2.032-.432-.544-.299-.987-.635-1.328-1.008l.672-.864c.309.32.672.603 1.088.848.416.245.923.368 1.52.368.619 0 1.125-.171 1.52-.512.395-.341.592-.795.592-1.36 0-.405-.107-.757-.32-1.056-.203-.309-.544-.549-1.024-.72-.469-.171-1.109-.256-1.92-.256v-1.008c.725 0 1.296-.085 1.712-.256.427-.171.731-.4.912-.688.181-.288.272-.608.272-.96 0-.501-.16-.896-.48-1.184-.309-.288-.736-.432-1.28-.432-.427 0-.821.096-1.184.288-.352.192-.683.443-.992.752l-.704-.832c.395-.373.832-.677 1.312-.912.48-.245 1.019-.368 1.616-.368.885 0 1.616.229 2.192.688.576.448.864 1.083.864 1.904 0 .619-.171 1.125-.512 1.52-.341.395-.789.699-1.344.912v.064c.619.139 1.141.432 1.568.88.427.437.64 1.008.64 1.712 0 .597-.149 1.115-.448 1.552-.299.437-.704.773-1.216 1.008-.501.235-1.067.352-1.696.352Z"/>
<rect width="31" height="31" x="250.5" y="238.5" stroke="var(--control-color-visuals-background, #9EBAFF)" rx="1.5"/>
<path fill="var(--control-color-visuals-component-text, #3E3D3D)" d="M295.408 260.192c-.875 0-1.659-.213-2.352-.64-.683-.437-1.227-1.061-1.632-1.872-.395-.811-.592-1.787-.592-2.928 0-1.131.203-2.101.608-2.912.405-.811.96-1.435 1.664-1.872.704-.437 1.499-.656 2.384-.656.64 0 1.205.133 1.696.4.491.256.885.555 1.184.896l-.72.864c-.277-.299-.592-.539-.944-.72-.352-.181-.752-.272-1.2-.272-.661 0-1.243.176-1.744.528-.491.341-.875.827-1.152 1.456-.267.629-.4 1.381-.4 2.256 0 .875.133 1.637.4 2.288.267.64.64 1.136 1.12 1.488.491.352 1.067.528 1.728.528.501 0 .949-.107 1.344-.32.395-.213.757-.501 1.088-.864l.736.832c-.416.48-.885.853-1.408 1.12-.523.267-1.125.4-1.808.4Zm5.045-.192v-11.392h1.312v3.104l-.048 1.6c.373-.352.762-.651 1.168-.896.416-.256.89-.384 1.424-.384.821 0 1.418.261 1.792.784.384.512.576 1.264.576 2.256V260h-1.312v-4.752c0-.725-.118-1.253-.352-1.584-.235-.331-.608-.496-1.12-.496-.395 0-.752.101-1.072.304-.31.203-.662.501-1.056.896V260h-1.312Zm11.855.192c-.694 0-1.323-.16-1.888-.48-.566-.331-1.014-.8-1.344-1.408-.331-.608-.496-1.333-.496-2.176 0-.853.165-1.584.496-2.192.341-.608.778-1.077 1.312-1.408.533-.331 1.093-.496 1.68-.496.992 0 1.754.331 2.288.992.544.661.816 1.547.816 2.656 0 .139-.006.277-.016.416 0 .128-.011.24-.032.336h-5.248c.053.821.309 1.477.768 1.968.469.491 1.077.736 1.824.736.373 0 .714-.053 1.024-.16.32-.117.624-.267.912-.448l.464.864c-.331.213-.71.4-1.136.56-.416.16-.891.24-1.424.24Zm-2.448-4.704h4.16c0-.789-.171-1.387-.512-1.792-.331-.416-.8-.624-1.408-.624-.544 0-1.035.213-1.472.64-.427.416-.683 1.008-.768 1.776Zm10.305 4.704c-.682 0-1.301-.16-1.856-.48-.554-.32-.992-.784-1.312-1.392-.32-.608-.48-1.339-.48-2.192 0-.875.171-1.616.512-2.224.352-.608.811-1.072 1.376-1.392.576-.32 1.195-.48 1.856-.48.512 0 .95.091 1.312.272.374.181.694.395.96.64l-.672.864c-.224-.203-.464-.368-.72-.496-.245-.128-.522-.192-.832-.192-.469 0-.89.128-1.264.384-.362.245-.65.597-.864 1.056-.202.448-.304.971-.304 1.568 0 .885.219 1.605.656 2.16.448.544 1.03.816 1.744.816.363 0 .699-.075 1.008-.224.31-.16.582-.347.816-.56l.576.88c-.352.309-.741.555-1.168.736-.426.171-.874.256-1.344.256Zm4.225-.192v-11.392h1.296v7.712h.048l3.312-4.096h1.456l-2.608 3.12 2.96 4.656h-1.44l-2.272-3.744-1.456 1.696V260h-1.296Zm11.362.192c-.363 0-.741-.085-1.136-.256-.384-.181-.747-.427-1.088-.736h-.048l-.112.8h-1.056v-11.392h1.312v3.104l-.032 1.408c.352-.309.736-.565 1.152-.768.427-.213.853-.32 1.28-.32 1.013 0 1.781.357 2.304 1.072.523.715.784 1.675.784 2.88 0 .885-.16 1.643-.48 2.272-.309.629-.72 1.109-1.232 1.44-.501.331-1.051.496-1.648.496Zm-.224-1.104c.64 0 1.168-.272 1.584-.816.427-.555.64-1.312.64-2.272 0-.853-.16-1.541-.48-2.064-.309-.533-.832-.8-1.568-.8-.331 0-.667.091-1.008.272-.341.181-.699.443-1.072.784v4.08c.341.299.677.512 1.008.64.341.117.64.176.896.176Zm8.652 1.104c-.63 0-1.222-.16-1.776-.48-.544-.32-.987-.784-1.328-1.392-.331-.608-.496-1.339-.496-2.192 0-.875.165-1.616.496-2.224.341-.608.784-1.072 1.328-1.392.554-.32 1.146-.48 1.776-.48.64 0 1.232.16 1.776.48.544.32.981.784 1.312 1.392.341.608.512 1.349.512 2.224 0 .853-.171 1.584-.512 2.192-.331.608-.768 1.072-1.312 1.392-.544.32-1.136.48-1.776.48Zm0-1.088c.672 0 1.21-.272 1.616-.816.416-.555.624-1.275.624-2.16 0-.896-.208-1.621-.624-2.176-.406-.555-.944-.832-1.616-.832-.662 0-1.2.277-1.616.832-.416.555-.624 1.28-.624 2.176 0 .885.208 1.605.624 2.16.416.544.954.816 1.616.816Zm4.294.896 2.544-4.064-2.352-3.712h1.424l1.04 1.712c.117.203.24.416.368.64.128.224.261.443.4.656h.064c.117-.213.235-.432.352-.656.117-.224.235-.437.352-.64l.944-1.712h1.376l-2.352 3.856 2.528 3.92h-1.424l-1.136-1.808c-.139-.235-.277-.469-.416-.704-.139-.235-.283-.464-.432-.688h-.064c-.139.224-.272.453-.4.688-.128.224-.256.459-.384.704L349.85 260h-1.376Zm11.56 0v-10.496h1.328v9.36h4.592V260h-5.92Zm9.445.192c-.651 0-1.195-.192-1.632-.576-.427-.395-.64-.939-.64-1.632 0-.853.379-1.504 1.136-1.952.768-.459 1.979-.779 3.632-.96 0-.331-.048-.645-.144-.944-.085-.299-.245-.539-.48-.72-.224-.192-.549-.288-.976-.288-.448 0-.869.085-1.264.256-.395.171-.747.363-1.056.576l-.512-.912c.363-.235.805-.459 1.328-.672.533-.224 1.109-.336 1.728-.336.949 0 1.637.293 2.064.88.427.576.64 1.349.64 2.32V260h-1.088l-.112-.928h-.048c-.363.299-.763.56-1.2.784-.427.224-.885.336-1.376.336Zm.384-1.056c.373 0 .725-.091 1.056-.272.331-.181.683-.437 1.056-.768v-2.16c-1.291.16-2.197.4-2.72.72-.512.32-.768.731-.768 1.232 0 .437.133.757.4.96.267.192.592.288.976.288Zm9.327 1.056c-.363 0-.742-.085-1.136-.256-.384-.181-.747-.427-1.088-.736h-.048l-.112.8h-1.056v-11.392h1.312v3.104l-.032 1.408c.352-.309.736-.565 1.152-.768.426-.213.853-.32 1.28-.32 1.013 0 1.781.357 2.304 1.072.522.715.784 1.675.784 2.88 0 .885-.16 1.643-.48 2.272-.31.629-.72 1.109-1.232 1.44-.502.331-1.051.496-1.648.496Zm-.224-1.104c.64 0 1.168-.272 1.584-.816.426-.555.64-1.312.64-2.272 0-.853-.16-1.541-.48-2.064-.31-.533-.832-.8-1.569-.8-.33 0-.666.091-1.007.272-.342.181-.699.443-1.072.784v4.08c.341.299.677.512 1.008.64.341.117.64.176.896.176Zm8.779 1.104c-.693 0-1.322-.16-1.888-.48-.565-.331-1.013-.8-1.344-1.408-.33-.608-.496-1.333-.496-2.176 0-.853.166-1.584.496-2.192.342-.608.779-1.077 1.312-1.408.534-.331 1.094-.496 1.68-.496.992 0 1.755.331 2.288.992.544.661.816 1.547.816 2.656 0 .139-.005.277-.016.416 0 .128-.01.24-.032.336h-5.248c.054.821.31 1.477.768 1.968.47.491 1.078.736 1.824.736.374 0 .715-.053 1.024-.16.32-.117.624-.267.912-.448l.464.864c-.33.213-.709.4-1.136.56-.416.16-.89.24-1.424.24Zm-2.448-4.704h4.16c0-.789-.17-1.387-.512-1.792-.33-.416-.8-.624-1.408-.624-.544 0-1.034.213-1.472.64-.426.416-.682 1.008-.768 1.776Zm8.626 4.704c-.491 0-.848-.149-1.072-.448-.214-.309-.32-.747-.32-1.312v-9.824h1.312v9.92c0 .203.037.352.112.448.074.085.16.128.256.128h.112c.042-.011.101-.021.176-.032l.176.992c-.086.043-.187.075-.304.096-.118.021-.267.032-.448.032Zm6.241-4.064h3.2v-2.96c0-.277.011-.608.032-.992s.037-.709.048-.976h-.064c-.128.245-.261.485-.4.72s-.283.475-.432.72l-2.384 3.488Zm3.2 3.872v-2.816h-4.592v-.864l4.368-6.528h1.472v6.336h1.392v1.056h-1.392V260h-1.248ZM253.164 297v-8.204h-2.772v-.98h6.72v.98h-2.772V297h-1.176Zm5.49 0v-9.968h1.148v2.716l-.042 1.4c.327-.308.667-.569 1.022-.784.364-.224.779-.336 1.246-.336.719 0 1.241.229 1.568.686.336.448.504 1.106.504 1.974V297h-1.148v-4.158c0-.635-.103-1.097-.308-1.386-.205-.289-.532-.434-.98-.434-.345 0-.658.089-.938.266-.271.177-.579.439-.924.784V297h-1.148Zm7.615 0v-6.804h1.148V297h-1.148Zm.588-8.204c-.224 0-.411-.065-.56-.196-.14-.14-.21-.327-.21-.56 0-.224.07-.406.21-.546.149-.14.336-.21.56-.21.224 0 .406.07.546.21.149.14.224.322.224.546 0 .233-.075.42-.224.56-.14.131-.322.196-.546.196Zm4.635 8.372c-.485 0-.947-.089-1.386-.266-.438-.187-.821-.411-1.148-.672l.574-.77c.299.233.607.429.924.588.318.149.677.224 1.078.224.448 0 .784-.103 1.008-.308.224-.215.336-.467.336-.756 0-.233-.079-.429-.238-.588-.149-.159-.345-.289-.588-.392a8.3682 8.3682 0 0 0-.728-.308c-.317-.121-.63-.257-.938-.406-.308-.159-.56-.359-.756-.602-.196-.252-.294-.569-.294-.952 0-.551.206-1.008.616-1.372.42-.373.999-.56 1.736-.56.42 0 .812.075 1.176.224.364.149.677.331.938.546l-.56.728c-.233-.177-.476-.322-.728-.434-.252-.112-.527-.168-.826-.168-.429 0-.746.098-.952.294-.196.196-.294.425-.294.686 0 .215.07.392.21.532.14.131.322.247.546.35.224.093.462.191.714.294.327.121.649.261.966.42.318.149.579.355.784.616.215.252.322.593.322 1.022 0 .364-.098.7-.294 1.008-.186.308-.466.555-.84.742-.364.187-.816.28-1.358.28Zm6.89-.168v-6.804h1.148V297h-1.148Zm.588-8.204c-.224 0-.41-.065-.56-.196-.14-.14-.21-.327-.21-.56 0-.224.07-.406.21-.546.15-.14.336-.21.56-.21.224 0 .406.07.546.21.15.14.224.322.224.546 0 .233-.074.42-.224.56-.14.131-.322.196-.546.196Zm4.636 8.372c-.486 0-.948-.089-1.386-.266-.439-.187-.822-.411-1.148-.672l.574-.77c.298.233.606.429.924.588.317.149.676.224 1.078.224.448 0 .784-.103 1.008-.308.224-.215.336-.467.336-.756 0-.233-.08-.429-.238-.588-.15-.159-.346-.289-.588-.392a8.5012 8.5012 0 0 0-.728-.308c-.318-.121-.63-.257-.938-.406-.308-.159-.56-.359-.756-.602-.196-.252-.294-.569-.294-.952 0-.551.205-1.008.616-1.372.42-.373.998-.56 1.736-.56.42 0 .812.075 1.176.224.364.149.676.331.938.546l-.56.728c-.234-.177-.476-.322-.728-.434-.252-.112-.528-.168-.826-.168-.43 0-.747.098-.952.294-.196.196-.294.425-.294.686 0 .215.07.392.21.532.14.131.322.247.546.35.224.093.462.191.714.294.326.121.648.261.966.42.317.149.578.355.784.616.214.252.322.593.322 1.022 0 .364-.098.7-.294 1.008-.187.308-.467.555-.84.742-.364.187-.817.28-1.358.28Zm8.458 0c-.57 0-1.046-.168-1.428-.504-.374-.345-.56-.821-.56-1.428 0-.747.331-1.316.994-1.708.672-.401 1.731-.681 3.178-.84 0-.289-.042-.565-.126-.826-.075-.261-.215-.471-.42-.63-.196-.168-.481-.252-.854-.252-.392 0-.761.075-1.106.224-.346.149-.654.317-.924.504l-.448-.798c.317-.205.704-.401 1.162-.588.466-.196.97-.294 1.512-.294.83 0 1.432.257 1.806.77.373.504.56 1.181.56 2.03V297h-.952l-.098-.812h-.042c-.318.261-.668.49-1.05.686-.374.196-.775.294-1.204.294Zm.336-.924c.326 0 .634-.079.924-.238.289-.159.597-.383.924-.672v-1.89c-1.13.14-1.923.35-2.38.63-.448.28-.672.639-.672 1.078 0 .383.116.663.35.84.233.168.518.252.854.252Zm7.953.756v-9.968h1.148v2.716l-.042 1.4c.327-.308.667-.569 1.022-.784.364-.224.779-.336 1.246-.336.719 0 1.241.229 1.568.686.336.448.504 1.106.504 1.974V297h-1.148v-4.158c0-.635-.103-1.097-.308-1.386-.205-.289-.532-.434-.98-.434-.345 0-.658.089-.938.266-.271.177-.579.439-.924.784V297h-1.148Zm7.615 0v-6.804h1.148V297h-1.148Zm.588-8.204c-.224 0-.41-.065-.56-.196-.14-.14-.21-.327-.21-.56 0-.224.07-.406.21-.546.15-.14.336-.21.56-.21.224 0 .406.07.546.21.15.14.224.322.224.546 0 .233-.074.42-.224.56-.14.131-.322.196-.546.196Zm2.858 8.204v-6.804h.952l.098.98h.042c.326-.327.672-.597 1.036-.812.364-.224.779-.336 1.246-.336.718 0 1.241.229 1.568.686.336.448.504 1.106.504 1.974V297h-1.148v-4.158c0-.635-.103-1.097-.308-1.386-.206-.289-.532-.434-.98-.434-.346 0-.658.089-.938.266-.271.177-.579.439-.924.784V297h-1.148Zm9.798.168c-.728 0-1.237-.21-1.526-.63-.28-.42-.42-.966-.42-1.638v-3.766h-1.008v-.868l1.064-.07.14-1.904h.966v1.904h1.834v.938h-1.834v3.78c0 .42.075.747.224.98.159.224.434.336.826.336.121 0 .252-.019.392-.056.14-.047.266-.089.378-.126l.224.868c-.187.065-.392.121-.616.168-.215.056-.429.084-.644.084Z"/>
<rect width="24" height="24" x="186" y="50" fill="var(--control-color-visuals-guide-fill, #36F)" rx="12"/>
<path fill="var(--control-color-visuals-guide-text, #fff)" d="M195.908 56.7529h3.404V67h-1.75v-8.8184h-1.654v-1.4287Z"/>
<path stroke="var(--control-color-visuals-guide-fill, #36F)" stroke-linecap="round" d="M246 62h-36"/>
<circle cx="246" cy="62" r="2" fill="var(--control-color-visuals-guide-fill, #36F)"/>
<rect width="24" height="24" x="186" y="170" fill="var(--control-color-visuals-guide-fill, #36F)" rx="12"/>
<path fill="var(--control-color-visuals-guide-text, #fff)" d="M197.562 185.544c.233 0 .465-.03.698-.089.237-.064.449-.159.636-.287.191-.128.346-.287.464-.479.119-.196.178-.423.178-.683 0-.274-.066-.506-.198-.697-.132-.196-.312-.356-.54-.479-.224-.123-.483-.212-.779-.267-.292-.059-.6-.088-.923-.088h-.766v-1.47h.766c.278 0 .549-.032.813-.096.269-.064.506-.157.711-.28.21-.128.376-.285.499-.472.128-.191.191-.412.191-.663 0-.196-.041-.371-.123-.526-.082-.16-.198-.294-.348-.404-.146-.109-.321-.193-.527-.252-.2-.06-.419-.089-.656-.089-.146 0-.303.013-.471.041-.165.022-.331.066-.499.13-.165.059-.326.139-.486.239-.159.1-.307.225-.444.376l-1.067-1.162c.178-.215.383-.399.616-.554.237-.155.487-.283.752-.383.264-.105.537-.18.82-.225.287-.051.572-.076.854-.076.483 0 .923.066 1.32.199.401.132.745.316 1.032.553.287.237.51.52.67.848.159.324.239.679.239 1.066 0 .287-.043.554-.13.8-.086.242-.203.46-.348.656-.142.196-.303.37-.486.52-.182.146-.369.267-.56.362.314.11.585.253.813.431.233.173.424.371.574.595.151.223.262.462.335.717.073.256.11.518.11.787 0 .328-.05.628-.151.902-.1.273-.239.522-.417.745-.177.223-.387.419-.629.588-.237.164-.494.303-.772.417a4.192 4.192 0 0 1-.861.253c-.301.059-.6.089-.896.089-.419 0-.804-.048-1.155-.144-.351-.1-.665-.219-.943-.355-.274-.137-.509-.278-.705-.424-.196-.151-.348-.276-.458-.376l.964-1.313c.31.31.661.559 1.053.746.397.182.807.273 1.23.273Z"/>
<path stroke="var(--control-color-visuals-guide-fill, #36F)" stroke-linecap="round" d="M266 168v13c0 .552-.448 1-1 1h-55"/>
<circle cx="266" cy="168" r="2" fill="var(--control-color-visuals-guide-fill, #36F)"/>
<rect width="24" height="24" x="186" y="122" fill="var(--control-color-visuals-guide-fill, #36F)" rx="12"/>
<path fill="var(--control-color-visuals-guide-text, #fff)" d="M197.815 128.609c.52 0 .987.082 1.402.246.415.16.765.381 1.053.664.287.278.505.606.656.984.155.374.232.775.232 1.203 0 .246-.027.488-.082.725-.055.232-.137.465-.246.697-.105.232-.239.472-.403.718-.16.241-.349.494-.568.758l-2.365 2.885h3.678V139h-7.041l3.978-4.799c.174-.209.338-.415.493-.615.155-.201.289-.401.403-.602.118-.2.21-.405.273-.615.069-.209.103-.431.103-.663 0-.219-.041-.417-.123-.595a1.3027 1.3027 0 0 0-.349-.465c-.146-.132-.319-.232-.519-.3-.201-.073-.42-.11-.657-.11-.218 0-.43.032-.635.096-.205.064-.401.155-.588.273-.187.114-.365.251-.533.411-.169.155-.326.323-.472.505l-1.285-1.086c.496-.648 1.05-1.112 1.661-1.395.611-.287 1.255-.431 1.934-.431Z"/>
<path stroke="var(--control-color-visuals-guide-fill, #36F)" stroke-linecap="round" d="M266 125v8c0 .552-.448 1-1 1h-55"/>
<circle cx="266" cy="125" r="2" fill="var(--control-color-visuals-guide-fill, #36F)"/>
<rect width="24" height="24" x="186" y="218" fill="var(--control-color-visuals-guide-fill, #36F)" rx="12"/>
<path fill="var(--control-color-visuals-guide-text, #fff)" d="M201.049 235h-1.737v-2.365h-5.092l3.889-7.882h1.949l-3.309 6.357h2.577v-2.679h1.723V235Z"/>
<path stroke="var(--control-color-visuals-guide-fill, #36F)" stroke-linecap="round" d="M348.5 217v12c0 .552-.448 1-1 1H210"/>
<circle cx="348.5" cy="217" r="2" fill="var(--control-color-visuals-guide-fill, #36F)"/>
<rect width="24" height="24" x="186" y="280" fill="var(--control-color-visuals-guide-fill, #36F)" rx="12"/>
<path fill="var(--control-color-visuals-guide-text, #fff)" d="m194.808 292.099.806-5.346h4.902v1.429h-3.459l-.349 2.365c.246-.128.472-.205.677-.233.209-.031.38-.047.512-.047.479 0 .923.084 1.333.253.411.164.766.394 1.067.69.305.292.544.64.718 1.046.173.401.259.838.259 1.312 0 .529-.104 1.012-.314 1.45-.21.437-.495.813-.855 1.128-.36.314-.779.558-1.257.731-.479.173-.987.26-1.525.26-.419 0-.795-.048-1.128-.144-.332-.096-.626-.209-.882-.342-.255-.132-.471-.269-.649-.41-.178-.141-.317-.257-.417-.348l1.046-1.327c.355.351.709.602 1.06.752.355.151.701.226 1.039.226.291 0 .565-.048.82-.144.255-.1.478-.237.67-.41.191-.178.342-.383.451-.615.109-.237.164-.492.164-.766 0-.241-.046-.471-.137-.69a1.7749 1.7749 0 0 0-.369-.588c-.159-.173-.355-.31-.588-.41-.228-.105-.48-.157-.758-.157-.187 0-.363.022-.527.068-.159.046-.305.107-.437.185-.128.077-.24.166-.335.266-.096.1-.171.203-.226.308l-1.312-.492Z"/>
<path stroke="var(--control-color-visuals-guide-fill, #36F)" stroke-linecap="round" d="M246 292h-36"/>
<circle cx="246" cy="292" r="2" fill="var(--control-color-visuals-guide-fill, #36F)"/>
</svg>
