<svg xmlns="http://www.w3.org/2000/svg" fill="none" viewBox="0 0 320 224" aria-labelledby="sizeLargeTitle sizeLargeDesc" role="img">
  <title id="sizeLargeTitle">Sizing of the checkbox - large</title>
  <desc id="sizeLargeDesc">Diagram of the large checkbox. The clickable area height of the checkbox is 40px, the height and width of the checkbox input is 32px and the line height of the label is 24px.</desc>
<g clip-path="url(#clip0_2428_3698)">
  <path fill="var(--control-color-surface-100-surface, #F4F4F4)" d="M0 0h320v224H0z"/>
  <path fill="var(--control-color-visuals-clickable-area, #FCECAA)" d="M103.25 92h113v40h-113z"/>
  <rect width="31" height="31" x="103.75" y="96.5" fill="var(--control-color-visuals-background, #9EBAFF)" rx="1.5"/>
  <path stroke="var(--control-color-visuals-guide-text, #fff)" stroke-linecap="round" stroke-linejoin="round" stroke-width="2" d="m111.75 112 5 5 10-10"/>
  <rect width="31" height="31" x="103.75" y="96.5" stroke="var(--control-color-visuals-background, #9EBAFF)" rx="1.5"/>
  <path fill="var(--control-color-text-base-text, #222)" d="M144.69 118v-10.496h6.048v1.12h-4.72v3.552h4v1.12h-4V118h-1.328Zm7.778 0v-7.776h1.312V118h-1.312Zm.672-9.376c-.256 0-.469-.075-.64-.224-.16-.16-.24-.373-.24-.64 0-.256.08-.464.24-.624.171-.16.384-.24.64-.24s.464.08.624.24c.171.16.256.368.256.624 0 .267-.085.48-.256.64-.16.149-.368.224-.624.224Zm6.418 9.568c-.694 0-1.323-.16-1.888-.48-.566-.331-1.014-.8-1.344-1.408-.331-.608-.496-1.333-.496-2.176 0-.853.165-1.584.496-2.192.341-.608.778-1.077 1.312-1.408.533-.331 1.093-.496 1.68-.496.992 0 1.754.331 2.288.992.544.661.816 1.547.816 2.656 0 .139-.006.277-.016.416 0 .128-.011.24-.032.336h-5.248c.053.821.309 1.477.768 1.968.469.491 1.077.736 1.824.736.373 0 .714-.053 1.024-.16.32-.117.624-.267.912-.448l.464.864c-.331.213-.71.4-1.136.56-.416.16-.891.24-1.424.24Zm-2.448-4.704h4.16c0-.789-.171-1.387-.512-1.792-.331-.416-.8-.624-1.408-.624-.544 0-1.035.213-1.472.64-.427.416-.683 1.008-.768 1.776Zm8.625 4.704c-.49 0-.848-.149-1.072-.448-.213-.309-.32-.747-.32-1.312v-9.824h1.312v9.92c0 .203.038.352.112.448.075.085.16.128.256.128h.112c.043-.011.102-.021.176-.032l.176.992c-.085.043-.186.075-.304.096-.117.021-.266.032-.448.032Zm5.342 0c-.97 0-1.749-.352-2.336-1.056-.586-.715-.88-1.717-.88-3.008 0-.843.155-1.568.464-2.176.32-.619.736-1.093 1.248-1.424.523-.331 1.078-.496 1.664-.496.448 0 .838.08 1.168.24.331.16.667.379 1.008.656l-.064-1.328v-2.992h1.328V118h-1.088l-.112-.912h-.048c-.298.299-.65.56-1.056.784-.405.213-.837.32-1.296.32Zm.288-1.104c.683 0 1.344-.357 1.984-1.072v-4.064c-.33-.299-.65-.507-.96-.624a2.3305 2.3305 0 0 0-.928-.192c-.416 0-.794.128-1.136.384-.33.245-.597.592-.8 1.04-.202.437-.304.955-.304 1.552 0 .928.187 1.659.56 2.192.374.523.902.784 1.584.784Zm9.263.912v-10.496h1.328v9.36h4.592V118h-5.92Zm9.445.192c-.651 0-1.195-.192-1.632-.576-.427-.395-.64-.939-.64-1.632 0-.853.378-1.504 1.136-1.952.768-.459 1.978-.779 3.632-.96 0-.331-.048-.645-.144-.944-.086-.299-.246-.539-.48-.72-.224-.192-.55-.288-.976-.288-.448 0-.87.085-1.264.256-.395.171-.747.363-1.056.576l-.512-.912c.362-.235.805-.459 1.328-.672.533-.224 1.109-.336 1.728-.336.949 0 1.637.293 2.064.88.426.576.64 1.349.64 2.32V118h-1.088l-.112-.928h-.048c-.363.299-.763.56-1.2.784-.427.224-.886.336-1.376.336Zm.384-1.056c.373 0 .725-.091 1.056-.272.33-.181.682-.437 1.056-.768v-2.16c-1.291.16-2.198.4-2.72.72-.512.32-.768.731-.768 1.232 0 .437.133.757.4.96.266.192.592.288.976.288Zm9.326 1.056c-.362 0-.741-.085-1.136-.256-.384-.181-.746-.427-1.088-.736h-.048l-.112.8h-1.056v-11.392h1.312v3.104l-.032 1.408c.352-.309.736-.565 1.152-.768.427-.213.854-.32 1.28-.32 1.014 0 1.782.357 2.304 1.072.523.715.784 1.675.784 2.88 0 .885-.16 1.643-.48 2.272-.309.629-.72 1.109-1.232 1.44-.501.331-1.05.496-1.648.496Zm-.224-1.104c.64 0 1.168-.272 1.584-.816.427-.555.64-1.312.64-2.272 0-.853-.16-1.541-.48-2.064-.309-.533-.832-.8-1.568-.8-.33 0-.666.091-1.008.272-.341.181-.698.443-1.072.784v4.08c.342.299.678.512 1.008.64.342.117.64.176.896.176Zm8.78 1.104c-.693 0-1.323-.16-1.888-.48-.565-.331-1.013-.8-1.344-1.408-.331-.608-.496-1.333-.496-2.176 0-.853.165-1.584.496-2.192.341-.608.779-1.077 1.312-1.408.533-.331 1.093-.496 1.68-.496.992 0 1.755.331 2.288.992.544.661.816 1.547.816 2.656 0 .139-.005.277-.016.416 0 .128-.011.24-.032.336h-5.248c.053.821.309 1.477.768 1.968.469.491 1.077.736 1.824.736.373 0 .715-.053 1.024-.16.32-.117.624-.267.912-.448l.464.864c-.331.213-.709.4-1.136.56-.416.16-.891.24-1.424.24Zm-2.448-4.704h4.16c0-.789-.171-1.387-.512-1.792-.331-.416-.8-.624-1.408-.624-.544 0-1.035.213-1.472.64-.427.416-.683 1.008-.768 1.776Zm8.626 4.704c-.491 0-.848-.149-1.072-.448-.214-.309-.32-.747-.32-1.312v-9.824h1.312v9.92c0 .203.037.352.112.448.074.085.16.128.256.128h.112c.042-.011.101-.021.176-.032l.176.992c-.086.043-.187.075-.304.096-.118.021-.267.032-.448.032ZM48.8896 117H47.666v-2.604h-5.2773l4.4092-7.643h1.4013l-3.8623 6.61h3.3428v-2.932h1.2099V117Zm5.6192-.923c.3509 0 .6676-.082.9502-.246.2871-.169.5309-.426.7314-.772.2006-.347.3555-.782.4649-1.306.1093-.524.164-1.146.164-1.866 0-.72-.0547-1.342-.164-1.866-.1094-.529-.2643-.967-.4649-1.313-.2005-.346-.4443-.602-.7314-.766-.2826-.168-.5993-.253-.9502-.253-.3555 0-.6768.085-.9639.253-.2825.164-.5241.42-.7246.766-.2005.346-.3555.784-.4648 1.313-.1048.524-.1573 1.146-.1573 1.866 0 .72.0525 1.342.1573 1.866.1093.524.2643.959.4648 1.306.2005.346.4421.603.7246.772.2871.164.6084.246.9639.246Zm0 1.06c-.556 0-1.0505-.114-1.4834-.342-.433-.228-.7998-.563-1.1006-1.005-.2962-.447-.5241-.996-.6836-1.647-.1549-.652-.2324-1.404-.2324-2.256 0-.862.0775-1.62.2324-2.277.1595-.656.3874-1.205.6836-1.647.3008-.447.6676-.784 1.1006-1.012.4329-.228.9274-.342 1.4834-.342.5514 0 1.0436.114 1.4766.342.4329.228.7998.565 1.1005 1.012.3008.442.5287.991.6836 1.647.1595.657.2393 1.415.2393 2.277 0 .852-.0798 1.604-.2393 2.256-.1549.651-.3828 1.2-.6836 1.647-.3007.442-.6676.777-1.1005 1.005-.433.228-.9252.342-1.4766.342ZM63.6172 113.138c0 .383.0456.749.1367 1.1.0957.351.2393.661.4307.93.1959.264.4397.476.7314.636.2962.155.6472.232 1.0528.232.3691 0 .6995-.077.9912-.232a2.315 2.315 0 0 0 .7382-.636c.2051-.269.3623-.579.4717-.93.1094-.351.1641-.717.1641-1.1 0-.388-.0547-.755-.1641-1.101-.1094-.351-.2666-.658-.4717-.923-.205-.264-.4534-.474-.7451-.629-.2916-.155-.6198-.232-.9843-.232-.3783 0-.7133.077-1.0049.232a2.2331 2.2331 0 0 0-.7383.629c-.2005.265-.3532.572-.458.923-.1003.346-.1504.713-.1504 1.101Zm-1.1348-3.849h1.0938v1.381c.1276-.223.2757-.428.4443-.615.1732-.187.3646-.347.5742-.479.2142-.137.4466-.241.6973-.314.2552-.078.5309-.116.8271-.116.515 0 .9799.104 1.3946.314.4192.21.7747.497 1.0664.861.2962.36.5218.782.6767 1.265.1595.483.2393 1 .2393 1.552 0 .547-.0843 1.064-.2529 1.551-.1641.484-.3965.907-.6973 1.272-.2962.36-.6517.647-1.0664.861-.4147.21-.8682.315-1.3604.315-.5605 0-1.0504-.121-1.4697-.363-.4147-.246-.7497-.576-1.0049-.991v3.753h-1.1621v-10.247Zm11.1153 4.731L71.6016 117h-1.3057l2.6318-3.862-2.83-3.849h1.3877l2.1123 2.892 1.9482-2.892h1.3193l-2.5771 3.78L77.2139 117h-1.4151l-2.2011-2.98Z"/>
  <path stroke="var(--control-color-visuals-guide-fill, #36F)" d="M85.25 92.5h10M90.25 92.5v39M85.25 131.5h10"/>
  <path fill="var(--control-color-text-base-text, #222)" d="M105.854 62.0361c.283.0091.561-.025.834-.1025.278-.082.527-.2028.746-.3623.218-.1595.394-.36.526-.6016.137-.2415.205-.5218.205-.8408 0-.3418-.077-.6335-.232-.875-.155-.2415-.365-.4375-.629-.5879-.265-.1549-.575-.2666-.93-.3349-.351-.0684-.725-.1026-1.121-.1026h-.827v-.9844h.827c.31 0 .624-.0319.943-.0957.319-.0683.606-.18.862-.3349.259-.155.471-.3555.635-.6016.164-.2506.246-.5583.246-.9228 0-.1914-.041-.3806-.123-.5674-.077-.1869-.198-.3532-.362-.499-.164-.1504-.374-.2689-.629-.3555-.25-.0912-.547-.1367-.888-.1367-.146 0-.301.0136-.465.041-.164.0228-.335.0661-.513.1299-.173.0638-.351.1526-.533.2666-.178.1139-.356.262-.533.4443l-.807-.7656c.182-.2324.39-.4261.622-.5811.232-.1595.476-.2871.731-.3828a3.693 3.693 0 0 1 .773-.2119c.26-.041.506-.0615.738-.0615.465 0 .891.0661 1.279.1982.391.1276.729.3099 1.011.5469.283.237.504.5195.663.8476.16.3282.24.6905.24 1.087 0 .278-.039.5377-.117.7793-.073.2415-.177.4625-.314.663-.137.196-.301.3715-.492.5264-.187.155-.397.2871-.629.3965.323.1185.597.2689.82.4512.228.1777.413.3782.554.6015.141.2188.244.4512.307.6973.064.2461.096.4922.096.7383 0 .3418-.05.6539-.15.9365-.096.278-.228.5286-.397.752a2.8496 2.8496 0 0 1-.594.5742 3.552 3.552 0 0 1-.725.4101c-.26.1094-.529.1892-.807.2393-.273.0547-.544.082-.813.082-.442 0-.843-.0569-1.203-.1709-.36-.1139-.677-.2484-.95-.4033-.269-.1549-.495-.3122-.677-.4717-.178-.164-.308-.2939-.39-.3896l.868-.8272c.196.2142.388.3965.574.5469.192.1458.381.2643.568.3555.191.0911.385.1572.581.1982.196.041.396.0615.601.0615Zm8.662-9.4267c.451 0 .866.0706 1.244.2119.378.1367.704.3281.977.5742.274.2461.486.5423.636.8887.155.3418.232.7178.232 1.1279 0 .2917-.034.5674-.102.8272a3.6351 3.6351 0 0 1-.294.7587c-.128.2461-.28.49-.458.7315-.173.237-.369.4808-.588.7314l-2.912 3.5137h4.341V63h-6.747l4.45-5.2773c.155-.1732.298-.3464.431-.5196.136-.1732.255-.3509.355-.5332.1-.1823.178-.3714.232-.5674.06-.2005.089-.417.089-.6494 0-.237-.048-.4625-.143-.6767a1.6148 1.6148 0 0 0-.397-.5606c-.168-.1595-.373-.2871-.615-.3828-.241-.0957-.51-.1435-.807-.1435-.259 0-.508.041-.745.123a3.114 3.114 0 0 0-.663.3281 3.7091 3.7091 0 0 0-.588.4785 5.4707 5.4707 0 0 0-.506.5674l-.922-.7519c.205-.2644.423-.5082.656-.7315.237-.2278.494-.4215.772-.581.283-.1595.593-.2849.93-.376.342-.0912.722-.1367 1.142-.1367ZM123.617 59.1377c0 .3828.046.7497.137 1.1006.096.3509.239.6608.431.9297.196.2643.439.4762.731.6357.296.155.647.2324 1.053.2324.369 0 .699-.0774.991-.2324a2.294 2.294 0 0 0 .738-.6357c.205-.2689.363-.5788.472-.9297.109-.3509.164-.7178.164-1.1006 0-.3874-.055-.7542-.164-1.1006-.109-.3509-.267-.6585-.472-.9228-.205-.2644-.453-.474-.745-.6289-.292-.155-.62-.2325-.984-.2325-.379 0-.713.0775-1.005.2325a2.2181 2.2181 0 0 0-.738.6289c-.201.2643-.354.5719-.458.9228-.101.3464-.151.7132-.151 1.1006Zm-1.135-3.8486h1.094v1.3808c.128-.2233.276-.4284.445-.6152.173-.1869.364-.3464.574-.4785a2.67 2.67 0 0 1 .697-.3145c.255-.0775.531-.1162.827-.1162.515 0 .98.1048 1.395.3145a3.162 3.162 0 0 1 1.066.8613c.296.36.522.7816.677 1.2646.159.4831.239 1.0004.239 1.5518 0 .5469-.084 1.0641-.253 1.5518-.164.483-.396.9069-.697 1.2714a3.3647 3.3647 0 0 1-1.067.8614c-.414.2096-.868.3144-1.36.3144-.56 0-1.05-.1207-1.47-.3623-.414-.2461-.749-.5765-1.004-.9912v3.7529h-1.163v-10.247Zm11.116 4.7304L131.602 63h-1.306l2.632-3.8623-2.83-3.8486h1.387l2.113 2.8916 1.948-2.8916h1.319l-2.577 3.7802L137.214 63h-1.415l-2.201-2.9805Z"/>
  <path stroke="var(--control-color-visuals-guide-fill, #36F)" d="M103.75 84V74M103.75 79h31M134.75 84V74"/>
  <path stroke="var(--control-color-visuals-guide-clickable-area, #FDE376)" stroke-linecap="round" d="M160 132v24"/>
  <rect width="49" height="24" x="135.5" y="156" fill="var(--control-color-visuals-guide-clickable-area, #FDE376)" rx="12"/>
  <path fill="var(--control-color-text-base-text, #222)" d="M150.45 170.368h-3.582L146 173h-1.887l3.733-10.247h1.668L153.239 173h-1.907l-.882-2.632Zm-3.103-1.456h2.632l-1.32-3.978-1.312 3.978Zm8.75 4.088h-1.75v-7.711h1.688v1.367c.082-.246.198-.462.349-.649.15-.192.319-.351.506-.479.191-.127.396-.223.615-.287.223-.064.449-.095.677-.095.068 0 .136.002.205.006.073 0 .143.007.212.021v1.723c-.092-.023-.18-.037-.267-.042a2.3154 2.3154 0 0 0-.253-.013c-.273 0-.531.052-.772.157-.242.1-.454.246-.636.438-.178.191-.319.423-.424.697-.1.269-.15.569-.15.902V173Zm6.897-7.854c.552 0 1.039.107 1.463.321.424.209.779.492 1.066.847.292.351.511.757.657 1.217.15.461.225.939.225 1.436v.69h-5.332c.032.287.107.549.226.786.123.233.276.436.458.609.187.168.396.301.629.396.232.091.476.137.731.137.251 0 .474-.027.67-.082.196-.055.369-.123.52-.205.155-.087.289-.18.403-.28.118-.101.223-.196.314-.288l1.115 1.067c-.155.182-.335.355-.54.519-.201.16-.431.301-.691.424-.255.123-.54.219-.854.287-.315.073-.663.11-1.046.11-.547 0-1.046-.098-1.497-.294-.451-.201-.839-.476-1.162-.827-.319-.356-.568-.777-.745-1.265-.178-.492-.267-1.03-.267-1.613 0-.369.043-.725.13-1.067.091-.342.216-.658.376-.95.159-.296.351-.565.574-.807.228-.246.476-.453.745-.622.269-.173.558-.307.868-.403.31-.096.631-.143.964-.143Zm-.014 1.524c-.241 0-.464.043-.669.13-.201.086-.381.207-.54.362-.16.15-.297.331-.411.54-.109.205-.191.431-.246.677h3.541c-.018-.242-.073-.465-.164-.67-.091-.21-.212-.392-.362-.547a1.5582 1.5582 0 0 0-.513-.362c-.196-.087-.408-.13-.636-.13Zm12.004-1.381V173h-1.674v-1.039c-.242.346-.547.629-.916.848-.37.218-.821.328-1.354.328-.501 0-.962-.101-1.381-.301a3.3741 3.3741 0 0 1-1.087-.841c-.305-.36-.542-.781-.711-1.265-.168-.483-.253-1.004-.253-1.565 0-.551.087-1.071.26-1.559.178-.487.422-.913.732-1.278.31-.364.676-.652 1.1-.861.429-.214.893-.321 1.395-.321.305 0 .579.038.82.116.246.077.458.173.636.287.182.114.332.237.451.369.123.128.216.244.28.349v-.978h1.702Zm-5.68 3.849c0 .323.043.631.13.923.091.291.221.549.389.772.173.219.383.394.629.526.246.133.527.199.841.199.328 0 .617-.066.868-.199.251-.132.46-.307.629-.526.173-.223.303-.481.39-.772.086-.292.13-.6.13-.923 0-.324-.046-.631-.137-.923-.091-.296-.226-.556-.403-.779a1.919 1.919 0 0 0-.636-.54c-.246-.133-.527-.199-.841-.199-.314 0-.595.066-.841.199-.246.132-.456.312-.629.54-.168.223-.298.483-.389.779-.087.292-.13.599-.13.923Z"/>
  <circle cx="160" cy="132" r="2" fill="var(--control-color-visuals-guide-clickable-area, #FDE376)" transform="rotate(-90 160 132)"/>
  <path stroke="var(--control-color-visuals-guide-fill, #36F)" d="M224.25 100.5h10M229.25 100.5v23M224.25 123.5h10"/>
  <path fill="var(--control-color-text-base-text, #222)" d="M246.991 106.609c.451 0 .866.071 1.244.212.379.137.704.328.978.575.273.246.485.542.636.888.155.342.232.718.232 1.128 0 .292-.034.567-.102.827-.069.26-.167.513-.294.759-.128.246-.281.49-.458.731-.174.237-.37.481-.588.732l-2.912 3.514h4.34V117h-6.747l4.451-5.277c.154-.174.298-.347.43-.52.137-.173.255-.351.356-.533.1-.182.177-.371.232-.567.059-.201.089-.417.089-.65a1.64 1.64 0 0 0-.144-.677 1.607 1.607 0 0 0-.396-.56c-.169-.16-.374-.287-.615-.383-.242-.096-.511-.144-.807-.144-.26 0-.508.041-.745.123a3.104 3.104 0 0 0-.663.329c-.21.136-.406.296-.588.478-.182.178-.351.367-.506.568l-.923-.752c.205-.265.424-.509.656-.732.237-.228.495-.421.773-.581.282-.159.592-.285.93-.376.341-.091.722-.137 1.141-.137ZM258.407 117h-1.223v-2.604h-5.278l4.409-7.643h1.402l-3.863 6.61h3.343v-2.932h1.21V117ZM264.617 113.138c0 .383.046.749.137 1.1.096.351.239.661.431.93.196.264.439.476.731.636.296.155.647.232 1.053.232.369 0 .699-.077.991-.232.292-.16.538-.372.738-.636.205-.269.363-.579.472-.93.109-.351.164-.717.164-1.1 0-.388-.055-.755-.164-1.101-.109-.351-.267-.658-.472-.923-.205-.264-.453-.474-.745-.629-.292-.155-.62-.232-.984-.232-.379 0-.713.077-1.005.232-.292.155-.538.365-.738.629-.201.265-.354.572-.458.923-.101.346-.151.713-.151 1.101Zm-1.135-3.849h1.094v1.381c.128-.223.276-.428.445-.615.173-.187.364-.347.574-.479.214-.137.446-.241.697-.314.255-.078.531-.116.827-.116.515 0 .98.104 1.395.314.419.21.774.497 1.066.861.296.36.522.782.677 1.265.159.483.239 1 .239 1.552 0 .547-.084 1.064-.253 1.551-.164.484-.396.907-.697 1.272-.296.36-.652.647-1.067.861-.414.21-.868.315-1.36.315-.56 0-1.05-.121-1.47-.363-.414-.246-.749-.576-1.004-.991v3.753h-1.163v-10.247Zm11.116 4.731-1.996 2.98h-1.306l2.632-3.862-2.83-3.849h1.387l2.113 2.892 1.948-2.892h1.319l-2.577 3.78 2.926 3.931h-1.415l-2.201-2.98Z"/>
</g>
<defs>
  <clipPath id="clip0_2428_3698">
    <path fill="var(--control-color-state-primary-font-default-state, #fff)" d="M0 0h320v224H0z"/>
  </clipPath>
</defs>
</svg>
