<svg width="32" height="32" viewBox="0 0 32 32" fill="none" xmlns="http://www.w3.org/2000/svg">
<path d="M8 10.625C8 10.0273 8.49219 9.5 9.125 9.5H22.625C23.2227 9.5 23.75 10.0273 23.75 10.625C23.75 11.2578 23.2227 11.75 22.625 11.75H9.125C8.49219 11.75 8 11.2578 8 10.625ZM8 16.25C8 15.6523 8.49219 15.125 9.125 15.125H22.625C23.2227 15.125 23.75 15.6523 23.75 16.25C23.75 16.8828 23.2227 17.375 22.625 17.375H9.125C8.49219 17.375 8 16.8828 8 16.25ZM22.625 23H9.125C8.49219 23 8 22.5078 8 21.875C8 21.2773 8.49219 20.75 9.125 20.75H22.625C23.2227 20.75 23.75 21.2773 23.75 21.875C23.75 22.5078 23.2227 23 22.625 23Z" fill="#222222"/>
</svg>
