<svg xmlns="http://www.w3.org/2000/svg" viewBox="0 0 16 16"><g><path fill-rule="evenodd" d="M15 2.998a2 2 0 0 1-3.927.533h-.407a1.47 1.47 0 0 0-1.258.712L7.574 7.301a2.53 2.53 0 0 1-.874.872.533.533 0 0 1-.77.502l-.014-.006a1.3 1.3 0 0 0-.569-.138h-.419a2 2 0 1 1 0-1.066h.474a1.47 1.47 0 0 0 1.257-.712l1.835-3.058a2.53 2.53 0 0 1 2.172-1.23h.406a2 2 0 0 1 3.929.533m-1.066 0a.933.933 0 1 1-1.866 0 .933.933 0 0 1 1.866 0M3 8.93a.933.933 0 1 0 0-1.867.933.933 0 0 0 0 1.867M13 9.998a2 2 0 1 0-1.928-2.533h-.005a.533.533 0 0 0 0 1.066h.005a2 2 0 0 0 1.929 1.467m0-1.067a.933.933 0 1 0 0-1.866.933.933 0 0 0 0 1.866" clip-rule="evenodd"/><path d="M8.324 9.923a.533.533 0 0 1-.914.55l-.4-.667a.533.533 0 1 1 .914-.55zM9.475 12.922a.534.534 0 0 0 .183-.732l-.4-.667a.534.534 0 0 0-.915.55l.4.666a.533.533 0 0 0 .732.183M8.734 7.465a.533.533 0 1 0 0 1.066h.4a.533.533 0 1 0 0-1.066z"/><path fill-rule="evenodd" d="M14.507 14.315a2 2 0 1 0-3.434-1.85h-.006a.533.533 0 1 0 0 1.066h.005a2 2 0 0 0 3.435.784m-.847-.657a.933.933 0 1 0-1.32-1.32.933.933 0 0 0 1.32 1.32" clip-rule="evenodd"/></g></svg>