<svg xmlns="http://www.w3.org/2000/svg" viewBox="0 0 16 16"><g><path d="M2.322 1.003a.793.793 0 0 0-.822.794v3.334a.533.533 0 1 0 1.067 0V2.087c1.517.133 2.778.811 3.689 1.494a9.2 9.2 0 0 1 1.377 1.274v.276a.533.533 0 0 0 1.067 0v-.276a9.175 9.175 0 0 1 1.377-1.275c.911-.682 2.172-1.36 3.69-1.493v9.025a9.1 9.1 0 0 0-4.138 1.25.533.533 0 0 0 .542.918 8.04 8.04 0 0 1 3.878-1.112.807.807 0 0 0 .784-.804V1.797a.79.79 0 0 0-.822-.794c-1.934.078-3.504.922-4.574 1.724q-.682.511-1.27 1.129a10 10 0 0 0-1.271-1.129c-1.07-.803-2.64-1.646-4.574-1.724"/><path d="M3.433 8.264a.533.533 0 1 0 0 1.067h3a.533.533 0 0 0 0-1.067zM2.9 10.597a.534.534 0 0 1 .533-.533h3a.533.533 0 0 1 0 1.067h-3a.533.533 0 0 1-.533-.534m.533 1.267a.533.533 0 0 0 0 1.067H5.3a.533.533 0 0 0 0-1.067z"/><path fill-rule="evenodd" d="M1.833 6.33a.667.667 0 0 0-.666.667v7.334a.667.667 0 0 0 .666.666h6.2a.667.667 0 0 0 .667-.666V6.997a.667.667 0 0 0-.667-.666zm.4 1.067v6.534h5.4V7.397z" clip-rule="evenodd"/></g></svg>