<svg xmlns="http://www.w3.org/2000/svg" viewBox="0 0 16 16"><g clip-path="url(#a)"><path d="M4.16 5.093a1 1 0 0 0-.293.707v4.4a1 1 0 0 0 1 1H6.6a1 1 0 0 0 1-1V7.467H5.667v1.066h.866v1.6h-1.6V5.867h2.134a.533.533 0 1 0 0-1.067h-2.2a1 1 0 0 0-.707.293M8.693 5.093A1 1 0 0 0 8.4 5.8v4.4a1 1 0 0 0 1 1h1.733a1 1 0 0 0 1-1V7.467H10.2v1.066h.867v1.6h-1.6V5.867H11.6a.533.533 0 0 0 0-1.067H9.4a1 1 0 0 0-.707.293"/><path fill-rule="evenodd" d="M8 15.333A7.333 7.333 0 1 0 8 .667a7.333 7.333 0 0 0 0 14.666m4.431-2.902A6.267 6.267 0 1 0 3.57 3.57a6.267 6.267 0 0 0 8.862 8.862" clip-rule="evenodd"/></g><defs><clipPath id="a"><path d="M0 0h16v16H0z"/></clipPath></defs></svg>