<svg xmlns="http://www.w3.org/2000/svg" viewBox="0 0 16 16"><g clip-path="url(#a)"><path fill-rule="evenodd" d="M1.064 9.748a.53.53 0 0 1-.266-.461V6.222a.533.533 0 0 1 .63-.524c.513.095 2.255.581 3.884 1.71 1.054.73 2.086 1.748 2.688 3.12.602-1.372 1.634-2.39 2.688-3.12 1.629-1.129 3.371-1.615 3.884-1.71a.533.533 0 0 1 .63.524v3.065c0 .19-.1.366-.265.461l-6.624 3.835-.044.03a.53.53 0 0 1-.269.07.53.53 0 0 1-.313-.1zm.8-.769V6.913a10.8 10.8 0 0 1 2.84 1.371c1.253.867 2.378 2.118 2.684 3.894zm12.272 0V6.913a10.8 10.8 0 0 0-2.84 1.371c-1.252.867-2.378 2.118-2.684 3.894z" clip-rule="evenodd"/></g><defs><clipPath id="a"><path d="M0 0h16v16H0z"/></clipPath></defs></svg>