<svg xmlns="http://www.w3.org/2000/svg" viewBox="0 0 16 16"><g fill-rule="evenodd" clip-rule="evenodd"><path d="M1.333 8a6.667 6.667 0 1 1 13.334 0v4.167a.533.533 0 0 1-1.067 0V8A5.6 5.6 0 0 0 2.4 8v4.167a.533.533 0 0 1-1.067 0z"/><path d="M5.133 13.1v-2.867a.5.5 0 0 0-1 0V13.1a.5.5 0 0 0 1 0m-.5-4.433a1.567 1.567 0 0 0-1.566 1.566V13.1a1.567 1.567 0 1 0 3.133 0v-2.867a1.567 1.567 0 0 0-1.567-1.566m7.234 4.433v-2.867a.5.5 0 0 0-1 0V13.1a.5.5 0 1 0 1 0m-.5-4.433A1.567 1.567 0 0 0 9.8 10.233V13.1a1.566 1.566 0 1 0 3.133 0v-2.867a1.567 1.567 0 0 0-1.566-1.566"/></g></svg>