<svg xmlns="http://www.w3.org/2000/svg" viewBox="0 0 16 16"><g><path d="M2.792 1.7a1 1 0 0 0-1 1v1.467a1 1 0 0 0 1 1h3.634a.533.533 0 1 0 0-1.067H2.859V2.767h8.133a.533.533 0 1 0 0-1.067z"/><path fill-rule="evenodd" d="M7.732 5.127a.67.67 0 0 0-.274.301L6.6 7.312a.4.4 0 0 0 .342.565l2.005.116c.13.008.26-.023.372-.088l4.388-2.534a1 1 0 0 0 .366-1.366l-.6-1.039a1 1 0 0 0-1.366-.366zm.644.86-.402.881.916.053 4.226-2.44-.533-.924-4.207 2.429" clip-rule="evenodd"/><path d="M5.359 7.3h-2.5v1.333h8.533V7.7a.533.533 0 0 1 1.067 0v1a1 1 0 0 1-1 1H2.792a1 1 0 0 1-1-1V7.233a1 1 0 0 1 1-1H5.36a.533.533 0 1 1 0 1.067"/><path fill-rule="evenodd" d="M2.792 10.767a1 1 0 0 0-1 1V13.3a1 1 0 0 0 1 1h8.667a1 1 0 0 0 1-1v-1.533a1 1 0 0 0-1-1zm.067 2.466v-1.4h8.533v1.4z" clip-rule="evenodd"/></g></svg>