<svg xmlns="http://www.w3.org/2000/svg" viewBox="0 0 16 16"><g clip-path="url(#a)"><path fill-rule="evenodd" d="M7.348.84a1.475 1.475 0 0 1 2.084 0h.001l1.321 1.325a.533.533 0 0 1-.17.868 1.82 1.82 0 1 0 2.383 2.383.533.533 0 0 1 .868-.17l1.326 1.322a1.475 1.475 0 0 1 0 2.085l-1.377 1.376a2.885 2.885 0 1 1-3.756 3.755l-1.376 1.374a1.475 1.475 0 0 1-2.085 0l-1.32-1.323a.533.533 0 0 1 .17-.868 1.818 1.818 0 1 0-2.384-2.383.533.533 0 0 1-.868.17L.838 9.433a1.475 1.475 0 0 1 0-2.085L2.216 5.97A2.886 2.886 0 1 1 5.97 2.216zm.754.754L6.024 3.67a.533.533 0 0 1-.91-.377 1.82 1.82 0 1 0-1.82 1.82.533.533 0 0 1 .377.91L1.594 8.102a.41.41 0 0 0 0 .576l.84.838a2.886 2.886 0 1 1 4.05 4.05l.837.838a.41.41 0 0 0 .577 0l2.078-2.075a.533.533 0 0 1 .91.377 1.82 1.82 0 1 0 1.82-1.82.533.533 0 0 1-.377-.91l2.077-2.078a.41.41 0 0 0 0-.576l-.84-.838a2.89 2.89 0 0 1-3.118.986 2.886 2.886 0 0 1-.932-5.037l-.838-.84a.41.41 0 0 0-.576 0" clip-rule="evenodd"/></g><defs><clipPath id="a"><path d="M0 0h16v16H0z"/></clipPath></defs></svg>