<svg xmlns="http://www.w3.org/2000/svg" viewBox="0 0 16 16"><g><path d="M3.475 1.487A1 1 0 0 1 4.333 1h9.334a1 1 0 0 1 1 1v9.467a1 1 0 0 1-1 1h-1.459V11.4H13.6V2.067H7.83l3.603.862a1 1 0 0 1 .767.972v9.44a1 1 0 0 1-1.233.974l-.758-.182a.533.533 0 1 1 .248-1.038l.676.162V3.954L4.4 2.343V5.4a.533.533 0 1 1-1.067 0V1.92c0-.164.054-.313.142-.433"/><path d="M5.667 8.067A.533.533 0 0 1 6.2 8.6V11a.533.533 0 1 1-1.067 0V8.6a.533.533 0 0 1 .534-.533m0 5.2a.533.533 0 1 0 0-1.067.533.533 0 0 0 0 1.067"/><path fill-rule="evenodd" d="M10 10.667a4.333 4.333 0 1 1-8.667 0 4.333 4.333 0 0 1 8.667 0m-1.067 0a3.267 3.267 0 1 1-6.533 0 3.267 3.267 0 0 1 6.533 0" clip-rule="evenodd"/></g></svg>