<svg xmlns="http://www.w3.org/2000/svg" viewBox="0 0 16 16"><g clip-path="url(#a)"><path fill-rule="evenodd" d="M5.058 1.452a1.422 1.422 0 0 0-1.74 1.386V7.17C2.272 6.331 1.46 5.176 1.105 3.973a.533.533 0 0 0-1.023.302c.493 1.672 1.71 3.228 3.236 4.207v4.68a1.422 1.422 0 0 0 1.74 1.386l9.778-2.249a1.42 1.42 0 0 0 1.104-1.386V5.086A1.42 1.42 0 0 0 14.836 3.7zm-.674 7.595v4.115a.356.356 0 0 0 .435.347l9.778-2.25a.355.355 0 0 0 .276-.346V5.086a.36.36 0 0 0-.276-.347L4.82 2.491a.356.356 0 0 0-.435.347v5.031l.153.077c1.406.68 2.708.635 3.543.08L5.77 6.749a.533.533 0 0 1 .516-.934l2.84 1.57c.198.11.305.333.268.556l-.504 2.976a.533.533 0 0 1-1.052-.178l.257-1.517c-1.085.454-2.42.371-3.71-.175" clip-rule="evenodd"/></g><defs><clipPath id="a"><path d="M0 0h16v16H0z"/></clipPath></defs></svg>