<svg xmlns="http://www.w3.org/2000/svg" viewBox="0 0 16 16"><g clip-path="url(#a)"><path fill-rule="evenodd" d="M6.667 5.908h3.666a1 1 0 0 0 1-1v-2.6a1 1 0 0 0-1-1H5.667a1 1 0 0 0-1 1v4.267zm-.934-.813.76-.254h3.774V2.375H5.733zm-2.666 6.013a.8.8 0 1 0 0-1.6.8.8 0 0 0 0 1.6m0 1.067a1.866 1.866 0 1 0 0-3.733 1.866 1.866 0 0 0 0 3.733m0 1.733c-.476 0-.902.224-1.18.58a.533.533 0 1 1-.84-.659 2.56 2.56 0 0 1 2.02-.988c.82 0 1.549.388 2.02.988a.534.534 0 0 1-.84.658 1.5 1.5 0 0 0-1.18-.579m9.866 0c-.475 0-.901.224-1.18.58a.533.533 0 1 1-.84-.659 2.56 2.56 0 0 1 2.02-.988c.82 0 1.55.388 2.02.988a.534.534 0 1 1-.84.658 1.5 1.5 0 0 0-1.18-.579m0-2.8a.8.8 0 1 0 0-1.6.8.8 0 0 0 0 1.6m0 1.067a1.867 1.867 0 1 0 0-3.734 1.867 1.867 0 0 0 0 3.734M8 11.108a.8.8 0 1 0 0-1.6.8.8 0 0 0 0 1.6m0 1.067a1.866 1.866 0 1 0 0-3.733 1.866 1.866 0 0 0 0 3.733m0 1.733c-.33 0-.635.107-.883.29q-.168.125-.298.29a.533.533 0 0 1-.839-.659q.22-.278.503-.488a2.55 2.55 0 0 1 3.034 0q.284.211.503.488a.534.534 0 0 1-.84.658 1.481 1.481 0 0 0-1.18-.58" clip-rule="evenodd"/></g><defs><clipPath id="a"><path d="M0 0h16v16H0z"/></clipPath></defs></svg>