<svg viewBox="0 0 12 12" xmlns="http://www.w3.org/2000/svg"><path d="M6 8.063c.795 0 1.354-.366 1.676-.71a.513.513 0 0 1 .73-.042.512.512 0 0 1 .022.73A3.263 3.263 0 0 1 6 9.094 3.277 3.277 0 0 1 3.55 8.04a.512.512 0 0 1 .022-.73.513.513 0 0 1 .73.043c.323.343.882.708 1.698.708ZM4.969 4.969c0 .386-.301.687-.688.687a.679.679 0 0 1-.687-.687c0-.365.3-.688.687-.688.387 0 .688.323.688.688Zm2.062 0c0-.365.301-.688.688-.688.386 0 .687.323.687.688 0 .386-.3.687-.687.687a.679.679 0 0 1-.688-.687ZM11.5 6c0 3.05-2.47 5.5-5.5 5.5C2.95 11.5.5 9.05.5 6 .5 2.97 2.95.5 6 .5c3.03 0 5.5 2.47 5.5 5.5ZM6 1.531A4.48 4.48 0 0 0 1.531 6 4.465 4.465 0 0 0 6 10.469 4.48 4.48 0 0 0 10.469 6c0-2.45-2.02-4.469-4.469-4.469Z"/></svg>