<svg xmlns="http://www.w3.org/2000/svg" viewBox="0 0 16 16"><g><path fill-rule="evenodd" d="M4.071 3.533a.534.534 0 0 1 .196-.728l2.771-1.6a.533.533 0 0 1 .533.924l.896 1.55a.53.53 0 0 1 .152.264l2.486 4.306-2.772 1.6L6.04 5.875a4.8 4.8 0 0 0-2.307 4.102v.526A3.87 3.87 0 0 1 7.03 13.8h5.77a.533.533 0 1 1 0 1.067H3.667a1 1 0 0 1-1-1v-3.89a5.87 5.87 0 0 1 2.84-5.026L4.8 3.73a.533.533 0 0 1-.729-.196M3.733 13.8v-2.216c1.119.216 2 1.097 2.216 2.216zm3.23-8.46 1.761 3.051.923-.533-1.76-3.051zm.39-1.457-.924.534-.705-1.222.923-.533z" clip-rule="evenodd"/><path d="M8.267 11.2a.533.533 0 1 0 0 1.067H12.8a.533.533 0 1 0 0-1.067z"/></g></svg>