<svg xmlns="http://www.w3.org/2000/svg" viewBox="0 0 16 16"><g clip-path="url(#a)"><path d="M1.674 1.774c0-.438.36-.813.822-.794C4.431 1.057 6 1.901 7.07 2.704q.683.511 1.271 1.129.59-.618 1.27-1.129c1.07-.803 2.64-1.647 4.575-1.724a.793.793 0 0 1 .822.794v9.567a.807.807 0 0 1-.786.804c-3.238.094-5.136 2.005-5.436 2.332a.605.605 0 0 1-.89 0 6 6 0 0 0-.499-.471.534.534 0 0 1 .688-.815q.142.12.256.226a9.05 9.05 0 0 1 5.6-2.328V2.064c-1.517.133-2.779.81-3.69 1.493a9.2 9.2 0 0 0-1.377 1.275v.409a.533.533 0 0 1-1.066 0v-.409A9.198 9.198 0 0 0 6.43 3.557c-.911-.683-2.173-1.36-3.69-1.493v6.643a.533.533 0 1 1-1.067 0z"/><path d="M5.804 6.956a2.267 2.267 0 0 1 3.206 0l.047.047a2.267 2.267 0 0 1 0 3.206l-4.148 4.148a2.267 2.267 0 0 1-3.206 0l-.047-.047a2.266 2.266 0 0 1 0-3.206l1.697-1.697a1.4 1.4 0 0 1 1.98 0l.024.024a1.4 1.4 0 0 1 0 1.98L3.66 13.107a.534.534 0 1 1-.754-.754l1.696-1.697a.334.334 0 0 0 0-.472l-.023-.023a.333.333 0 0 0-.471 0L2.41 11.858a1.2 1.2 0 0 0 0 1.697l.047.047a1.2 1.2 0 0 0 1.697 0l4.149-4.149a1.2 1.2 0 0 0 0-1.696l-.047-.047a1.2 1.2 0 0 0-1.697 0l-.613.612a.533.533 0 0 1-.754-.754l.612-.613z"/></g><defs><clipPath id="a"><path d="M0 0h16v16H0z"/></clipPath></defs></svg>