<svg xmlns="http://www.w3.org/2000/svg" viewBox="0 0 16 16"><g clip-path="url(#a)"><path fill-rule="evenodd" d="m9.867 10.62 4.422 4.424a.534.534 0 1 0 .755-.755l-3.09-3.089h2.18a.534.534 0 0 0 .533-.533V8a.533.533 0 0 0-.534-.533H12v-1.6h2.133a.534.534 0 0 0 0-1.067h-2.666a.534.534 0 0 0-.534.533V8a.533.533 0 0 0 .534.533H13.6v1.6h-2.133a.53.53 0 0 0-.4.18l-1.2-1.2v-3.78a.533.533 0 0 0-.534-.533H6.667a.533.533 0 0 0-.534.533v.046L1.711.956a.534.534 0 0 0-.755.755L4.046 4.8h-2.18a.533.533 0 0 0-.533.533v5.334a.533.533 0 0 0 .534.533h2.666a.533.533 0 0 0 0-1.067H2.4V5.867h2.133a.53.53 0 0 0 .4-.18l1.2 1.2v3.78a.533.533 0 0 0 1.067 0V8.533h.58L8.8 9.554v1.113a.533.533 0 0 0 1.067 0zM8.22 7.468 7.2 6.446v-.58h1.6v1.6z" clip-rule="evenodd"/></g><defs><clipPath id="a"><path d="M0 0h16v16H0z"/></clipPath></defs></svg>