<svg xmlns="http://www.w3.org/2000/svg" viewBox="0 0 16 16"><g clip-path="url(#a)"><path d="M6.633 2.312a6.2 6.2 0 0 1 1.474-.14.533.533 0 1 0 .028-1.065 7.2 7.2 0 0 0-1.729.162.533.533 0 0 0 .227 1.043M9.821 1.386a.533.533 0 1 0-.313 1.02c.475.146.932.347 1.361.601a.533.533 0 1 0 .543-.918 7.4 7.4 0 0 0-1.59-.703M5.169 2.953a.533.533 0 0 0-.525-.93c-.507.288-.98.632-1.41 1.026a.533.533 0 0 0 .722.786q.556-.511 1.213-.882M12.873 3.144a.533.533 0 0 0-.784.724q.39.42.729.88a.533.533 0 1 0 .858-.633q-.375-.508-.803-.97M2.937 5.147a.533.533 0 1 0-.91-.556 7.7 7.7 0 0 0-.741 1.6.533.533 0 0 0 1.012.334q.24-.725.639-1.378M1.816 9.087a.53.53 0 0 1 .404.028l1.988.977a.533.533 0 1 1-.47.957l-.798-.392a5.68 5.68 0 0 0 5.077 3.172c2.61.004 4.918-1.78 5.608-4.355a.533.533 0 1 1 1.03.276c-.812 3.031-3.536 5.15-6.64 5.146a6.75 6.75 0 0 1-6.106-3.921l-.424.876a.533.533 0 0 1-.96-.464l.98-2.026a.53.53 0 0 1 .31-.274"/><path d="M15.475 4.608a.533.533 0 0 0-.96-.464l-.746 1.542-1.507-.74a.533.533 0 1 0-.47.957l1.988.978a.533.533 0 0 0 .716-.247z"/></g><defs><clipPath id="a"><path d="M0 0h16v16H0z"/></clipPath></defs></svg>