<svg xmlns="http://www.w3.org/2000/svg" viewBox="0 0 16 16"><g clip-path="url(#a)"><path fill-rule="evenodd" d="M4.168 10.126a1.1 1.1 0 1 0 0-2.2 1.1 1.1 0 0 0 0 2.2m0 1.066a2.167 2.167 0 1 0 0-4.333 2.167 2.167 0 0 0 0 4.333m0 1.734a2.3 2.3 0 0 0-2.229 1.731.533.533 0 1 1-1.033-.263 3.368 3.368 0 0 1 6.526 0 .534.534 0 0 1-1.034.263 2.3 2.3 0 0 0-2.23-1.731m7.667 0a2.3 2.3 0 0 0-2.23 1.731.533.533 0 1 1-1.033-.263 3.368 3.368 0 0 1 6.526 0 .533.533 0 0 1-1.034.263 2.3 2.3 0 0 0-2.229-1.731m0-2.8a1.1 1.1 0 1 0 0-2.2 1.1 1.1 0 0 0 0 2.2m0 1.066a2.167 2.167 0 1 0 0-4.333 2.167 2.167 0 0 0 0 4.333M7.002 5.526h3.666a1 1 0 0 0 1-1v-2.6a1 1 0 0 0-1-1H6.002a1 1 0 0 0-1 1v4.266zm-.934-.814.76-.253h3.774V1.992H6.068z" clip-rule="evenodd"/></g><defs><clipPath id="a"><path d="M0 0h16v16H0z"/></clipPath></defs></svg>