<svg xmlns="http://www.w3.org/2000/svg" viewBox="0 0 16 16"><g><path fill-rule="evenodd" d="M3.733 2.4v11.2h8.534V2.4zm-.066-1.067a1 1 0 0 0-1 1v11.334a1 1 0 0 0 1 1h8.666a1 1 0 0 0 1-1V2.333a1 1 0 0 0-1-1z" clip-rule="evenodd"/><path fill-rule="evenodd" d="M7 4.333a.533.533 0 0 1 .533-.533H10.8a.533.533 0 1 1 0 1.067H7.533A.533.533 0 0 1 7 4.333" clip-rule="evenodd"/><path d="M6 4.333a.667.667 0 1 1-1.333 0 .667.667 0 0 1 1.333 0"/><path fill-rule="evenodd" d="m6.046 10.744-.16.956.898-.186 3.451-3.451-.754-.754zm-.845-.664a.67.67 0 0 0-.186.362l-.34 2.042a.4.4 0 0 0 .475.457l1.967-.406a.67.67 0 0 0 .337-.182l3.583-3.583a1 1 0 0 0 0-1.415l-.849-.848a1 1 0 0 0-1.413 0z" clip-rule="evenodd"/></g></svg>