<svg xmlns="http://www.w3.org/2000/svg" viewBox="0 0 16 16"><g clip-path="url(#a)"><path d="M6.898 7.084a.634.634 0 1 0 0-1.267.634.634 0 0 0 0 1.267"/><path fill-rule="evenodd" d="M9.851 6.011c-.765-2.015-2.05-3.146-4.258-3.26a8 8 0 0 0-.661 0c-2.67.087-4.701 2.057-4.9 4.9-.024.334-.024.532.001.874.222 2.934 2.195 4.559 4.834 4.726.09.005.183.005.262.005h.048c.088 0 .159 0 .258-.005a4.44 4.44 0 0 0 4.348-3.368l.08-.336q.086-.038.165-.069c.166-.066.316-.126.52-.287.349-.275.54-.729.452-1.361-.031-.223-.145-.458-.296-.693-.122-.19-.3-.404-.464-.598-.182-.218-.345-.413-.389-.528m-1.023.32c-.622-1.625-1.546-2.448-3.42-2.515a5 5 0 0 0-.415 0c-2.152.07-3.738 1.63-3.899 3.905-.019.267-.019.425.002.699.184 2.415 1.769 3.632 3.896 3.766.072.004.147.004.211.004h.039c.07 0 .128 0 .208-.004 1.258-.06 2.095-.644 2.62-1.298a5.2 5.2 0 0 1-1.221-.248 2.8 2.8 0 0 1-.77-.4c-.235-.177-.312-.515-.15-.76.163-.246.47-.308.74-.13l.036.026c.085.06.233.162.506.26.304.11.774.217 1.457.201.088-.237.136-.446.15-.598.03-.302.16-.577.464-.645l.07-.015c.176-.039.294-.064.426-.139.145-.082.223-.324.125-.533-.152-.324-.62-.908-.825-1.157a1.5 1.5 0 0 1-.25-.418" clip-rule="evenodd"/><path d="M12.254 5.062a.533.533 0 0 1 .729.195c.5.863.785 1.866.785 2.934s-.285 2.07-.785 2.934a.533.533 0 1 1-.923-.534 4.8 4.8 0 0 0 .642-2.4c0-.876-.234-1.695-.642-2.4a.533.533 0 0 1 .194-.729"/><path d="M14.73 4.195a.533.533 0 0 0-.875.612 5.9 5.9 0 0 1 1.064 3.384 5.9 5.9 0 0 1-1.064 3.384.533.533 0 0 0 .874.611 6.95 6.95 0 0 0 1.257-3.995 6.95 6.95 0 0 0-1.257-3.996"/></g><defs><clipPath id="a"><path d="M0 0h16v16H0z"/></clipPath></defs></svg>