<svg xmlns="http://www.w3.org/2000/svg" viewBox="0 0 16 16"><g><path d="M2.152 1.155a.793.793 0 0 0-.822.794v8.866a.533.533 0 0 0 1.067 0V2.24c1.517.132 2.78.81 3.69 1.493a9.2 9.2 0 0 1 1.377 1.275v.808a.533.533 0 1 0 1.066 0v-.808q.095-.112.265-.291a9 9 0 0 1 1.113-.984c.91-.683 2.172-1.36 3.689-1.493v9.024a9.05 9.05 0 0 0-5.6 2.328 8 8 0 0 0-.373-.323.535.535 0 0 0-.674.828q.321.256.602.555a.605.605 0 0 0 .89 0c.3-.326 2.198-2.237 5.436-2.332a.807.807 0 0 0 .786-.804V1.95a.79.79 0 0 0-.822-.794c-1.935.077-3.504.92-4.574 1.724q-.667.5-1.243 1.099l-.028.03-.028-.03q-.577-.601-1.243-1.1c-1.069-.801-2.639-1.645-4.573-1.723"/><path fill-rule="evenodd" d="M3.555 9.772a2.767 2.767 0 1 1 1.224 2.296l-2.547 2.547a.534.534 0 0 1-.754-.753l2.546-2.547a2.75 2.75 0 0 1-.469-1.543m2.767-1.7a1.7 1.7 0 1 0 0 3.4 1.7 1.7 0 0 0 0-3.4" clip-rule="evenodd"/></g></svg>