<svg xmlns="http://www.w3.org/2000/svg" viewBox="0 0 16 16"><g><path d="M10.2 1.733a.533.533 0 0 1 .533-.533H14.2a.6.6 0 0 1 .6.6v3.467a.533.533 0 0 1-1.067 0V3.02L9.311 7.444a.534.534 0 0 1-.755-.755l4.424-4.422h-2.247a.533.533 0 0 1-.533-.534M4.867 2.8a1 1 0 0 0-1 1v.467a.533.533 0 1 0 1.066 0v-.4h.4a.533.533 0 0 0 0-1.067zm-2.2 3.733h-.4v7.2h7.2v-.4a.533.533 0 1 1 1.066 0v.467a1 1 0 0 1-1 1H2.2a1 1 0 0 1-1-1V6.467a1 1 0 0 1 1-1h.467a.533.533 0 1 1 0 1.066m10.533 4.6a1 1 0 0 1-1 1h-.467a.533.533 0 0 1 0-1.066h.4v-.4a.533.533 0 1 1 1.067 0z"/><path d="M3.867 11.133a1 1 0 0 0 1 1h.466a.533.533 0 1 0 0-1.066h-.4v-.4a.533.533 0 1 0-1.066 0zM4.4 6a.533.533 0 0 1 .533.533V8.4a.533.533 0 0 1-1.066 0V6.533A.533.533 0 0 1 4.4 6m3.2 5.067a.533.533 0 0 0 0 1.066h1.867a.533.533 0 1 0 0-1.066zm-.533-7.734A.533.533 0 0 1 7.6 2.8h1.267a.533.533 0 1 1 0 1.067H7.6a.533.533 0 0 1-.533-.534m6.133 3.8a.533.533 0 0 0-1.067 0V8.4a.533.533 0 1 0 1.067 0z"/></g></svg>