<svg xmlns="http://www.w3.org/2000/svg" viewBox="0 0 16 16"><g><path d="M8.531 4.133A3.87 3.87 0 0 0 4.66 8a3.87 3.87 0 0 0 3.872 3.867 3.87 3.87 0 0 0 3.863-3.59.533.533 0 0 1 1.064.075 4.937 4.937 0 0 1-4.927 4.581A4.936 4.936 0 0 1 3.592 8a4.936 4.936 0 0 1 4.94-4.933c1.01 0 1.95.303 2.733.824a.533.533 0 1 1-.59.888 3.86 3.86 0 0 0-2.144-.646"/><path d="M4.131 4.123a.51.51 0 0 0-.059-.732.543.543 0 0 0-.752.057A6.87 6.87 0 0 0 1.592 8c0 1.738.652 3.328 1.728 4.552a.543.543 0 0 0 .752.057.51.51 0 0 0 .059-.731 5.845 5.845 0 0 1 0-7.755M14.256 4.028a.533.533 0 0 1-.01.754L8.948 9.937a.6.6 0 0 1-.837 0L6.035 7.91a.533.533 0 0 1 .745-.763l1.75 1.707 4.972-4.837a.533.533 0 0 1 .754.01"/></g></svg>