<svg xmlns="http://www.w3.org/2000/svg" viewBox="0 0 16 16"><g fill-rule="evenodd" clip-rule="evenodd"><path d="M2.964 2.061a1 1 0 0 1 1-1h10a1 1 0 0 1 1 1v7.2a1 1 0 0 1-1 1h-3.467a.533.533 0 0 1 0-1.066h3.4V2.128H4.031v3.533a.533.533 0 1 1-1.067 0z"/><path d="M4.564 9.795a.933.933 0 1 0 0-1.867.933.933 0 0 0 0 1.867m0 1.066a2 2 0 1 0 0-4 2 2 0 0 0 0 4"/><path d="M8.366 10.851a.333.333 0 0 0-.471 0l-.968.968c-.687.687-1.682.776-2.43.776a2.47 2.47 0 0 0-2.405 1.918.533.533 0 1 1-1.04-.236 3.534 3.534 0 0 1 3.445-2.749c.728 0 1.32-.107 1.676-.463l.968-.968a1.4 1.4 0 0 1 1.98 1.98L8.117 13.08c-.23.23-.302.655-.182 1.164l.008.033a.533.533 0 0 1-1.04.236l-.006-.023c-.154-.655-.15-1.548.466-2.164l1.003-1.003a.333.333 0 0 0 0-.472m-3.269-6.39a.533.533 0 0 1 .534-.533h6.666a.534.534 0 0 1 0 1.067H5.631a.533.533 0 0 1-.534-.534m3.2 2.467a.533.533 0 0 1 .534-.533h3.466a.534.534 0 0 1 0 1.066H8.831a.533.533 0 0 1-.534-.533"/></g></svg>