<svg xmlns="http://www.w3.org/2000/svg" viewBox="0 0 16 16"><g><path fill-rule="evenodd" d="M4.667 1a1 1 0 0 0-1 1v3.534a.533.533 0 1 0 1.066 0V2.067h4.8V5.2a.6.6 0 0 0 .6.6h3.134v7.467h-2.8a.534.534 0 0 0 0 1.067h2.866a1 1 0 0 0 1-1V5.407a1 1 0 0 0-.291-.707l-3.394-3.406A1 1 0 0 0 9.939 1zm7.902 3.734-1.97-1.976v1.976z" clip-rule="evenodd"/><path d="M5.933 7.534a3.2 3.2 0 1 0 3.192 3.429.533.533 0 0 1 1.064.075A4.266 4.266 0 1 1 8.296 7.18a.533.533 0 1 1-.591.888 3.2 3.2 0 0 0-1.772-.534"/><path d="M10.843 8.045a.534.534 0 1 0-.752-.756L5.98 11.38 4.578 9.978a.533.533 0 1 0-.754.755l1.734 1.731a.6.6 0 0 0 .848 0z"/></g></svg>