<svg xmlns="http://www.w3.org/2000/svg" viewBox="0 0 16 16"><g clip-path="url(#a)"><path fill-rule="evenodd" d="M1.848.66a1.5 1.5 0 0 0-.604 1.198v10.408a1.505 1.505 0 0 0 1.12 1.442l6.911 1.883a1.54 1.54 0 0 0 1.32-.25h.001c.379-.283.604-.726.604-1.199v-.652h2.012c.83 0 1.543-.649 1.543-1.499V1.854c0-.374-.116-.746-.366-1.033a1.37 1.37 0 0 0-1.056-.465H2.667a.5.5 0 0 0-.14.018 1.54 1.54 0 0 0-.678.285m.905.762a.47.47 0 0 0-.267.092.43.43 0 0 0-.175.344v10.4a.44.44 0 0 0 .327.419h.004l6.914 1.884a.47.47 0 0 0 .403-.075.43.43 0 0 0 .174-.344V4.05a.44.44 0 0 0-.352-.427l-6.9-2.186a.5.5 0 0 0-.103-.014zm3.616 0 3.723 1.18A1.505 1.505 0 0 1 11.2 4.042v8.381h2.012c.286 0 .477-.216.477-.433V1.854a.5.5 0 0 0-.104-.332c-.048-.054-.121-.1-.252-.1z" clip-rule="evenodd"/></g><defs><clipPath id="a"><path d="M0 0h16v16H0z"/></clipPath></defs></svg>