<svg xmlns="http://www.w3.org/2000/svg" viewBox="0 0 16 16"><path fill-rule="evenodd" d="M3.329 5.52 1.935 4.152a.533.533 0 0 0-.746.762L2.909 6.6a.6.6 0 0 0 .84 0l1.72-1.687a.533.533 0 1 0-.747-.762L3.329 5.52zm3.633-.986A.533.533 0 0 1 7.495 4h6.933a.534.534 0 0 1 0 1.067H7.495a.533.533 0 0 1-.533-.533m0 6.933a.533.533 0 0 1 .533-.534h6.933a.534.534 0 0 1 0 1.067H7.495a.533.533 0 0 1-.533-.533m0-3.467a.533.533 0 0 1 .533-.533h6.933a.533.533 0 1 1 0 1.067H7.495A.533.533 0 0 1 6.962 8" clip-rule="evenodd"/></svg>