<svg xmlns="http://www.w3.org/2000/svg" viewBox="0 0 16 16"><path fill-rule="evenodd" d="m3.329 5.28 1.393 1.367a.533.533 0 0 0 .747-.76l-1.72-1.688a.6.6 0 0 0-.84 0l-1.72 1.687a.533.533 0 0 0 .746.761zm3.633-.747A.533.533 0 0 1 7.495 4h6.934a.533.533 0 1 1 0 1.067H7.495a.533.533 0 0 1-.533-.534m0 6.934a.534.534 0 0 1 .533-.534h6.934a.533.533 0 1 1 0 1.067H7.495a.533.533 0 0 1-.533-.533m0-3.467a.533.533 0 0 1 .533-.533h6.934a.533.533 0 1 1 0 1.066H7.495A.533.533 0 0 1 6.962 8" clip-rule="evenodd"/></svg>