<svg xmlns="http://www.w3.org/2000/svg" viewBox="0 0 16 16"><path d="M12.856 2.531c-.201 0-.23.029-.344.029-.287-.802-1.06-1.404-1.948-1.404-.2 0-.373.029-.544.086C9.647.641 8.988.24 8.272.24c-.745 0-1.404.4-1.776 1.002a1.6 1.6 0 0 0-.516-.086A2.07 2.07 0 0 0 3.918 3.22v4.349c-.172-.029-.315-.058-.458-.058-1.26 0-2.292 1.032-2.292 2.32 0 .574.2 1.118.602 1.548l2.32 2.492a5.98 5.98 0 0 0 4.354 1.89h.86c3.036 0 5.528-2.463 5.528-5.5V4.594c0-1.117-.86-2.063-1.977-2.063m.601 7.73a4.126 4.126 0 0 1-4.125 4.124h-.888a4.66 4.66 0 0 1-3.352-1.432L2.83 10.49a.92.92 0 0 1-.286-.66c0-.63.544-.916.888-.916.258 0 .516.115.687.315l.774.802a.22.22 0 0 0 .143.057c.143 0 .23-.085.23-.229V3.22c0-.373.314-.688.687-.688.372 0 .659.315.659.688v4.68c.057.257.257.458.515.458.23 0 .43-.2.43-.43l.029-5.625c0-.372.286-.687.658-.687s.66.315.66.687v5.596c.057.258.257.459.515.459.23 0 .43-.2.43-.43v-4.68c0-.372.315-.687.687-.687s.659.315.659.687v4.68c.057.23.258.43.516.43.229 0 .43-.2.43-.43V4.594c0-.373.286-.688.658-.688s.659.315.659.688z"/></svg>