<svg viewBox="0 0 20 16" xmlns="http://www.w3.org/2000/svg"><g><path d="M.176 6.585A.54.54 0 0 1 0 6.169V.657c0-.165.062-.3.176-.416A.625.625 0 0 1 .62.066c.176 0 .32.058.444.175a.543.543 0 0 1 .186.416v.522C1.6.822 1.972.532 2.373.32 2.775.106 3.25 0 3.796 0c.505 0 .938.115 1.31.338.37.223.649.522.845.909.196.386.299.812.299 1.277V6.17c0 .165-.062.3-.186.416a.613.613 0 0 1-.443.165.656.656 0 0 1-.443-.165.54.54 0 0 1-.176-.416V2.66c0-1.045-.506-1.567-1.505-1.567-.454 0-.866.115-1.226.338-.36.222-.7.522-1.02.899v3.858c0 .165-.061.3-.186.416a.608.608 0 0 1-.444.165.722.722 0 0 1-.444-.184H.176ZM8.487 5.873c-.662-.595-.987-1.42-.987-2.495 0-.604.119-1.16.38-1.669.249-.509.628-.92 1.15-1.238C9.55.154 10.19 0 10.947 0c.716 0 1.323.145 1.844.442a3.02 3.02 0 0 1 1.182 1.17c.271.488.401 1.027.401 1.603a.553.553 0 0 1-.185.413c-.119.115-.282.164-.489.164h-4.88c.076.594.325 1.055.75 1.391.422.336 1.007.5 1.767.5.401 0 .76-.039 1.064-.106.304-.067.597-.164.89-.297a.571.571 0 0 1 .26-.048c.152 0 .293.048.4.145a.432.432 0 0 1 .175.354c0 .183-.13.345-.38.47-.379.184-.747.327-1.106.424-.369.095-.836.144-1.41.144-1.172 0-2.083-.297-2.744-.892v-.004Zm4.587-3.022c-.032-.414-.153-.768-.368-1.047a1.912 1.912 0 0 0-.803-.613 2.436 2.436 0 0 0-.966-.202c-.325 0-.65.067-.964.202a1.901 1.901 0 0 0-.793.613 1.9 1.9 0 0 0-.357 1.047h4.251ZM13.926 15.2a.535.535 0 0 1-.176-.416V9.272c0-.165.062-.3.176-.416a.621.621 0 0 1 .443-.175c.174 0 .32.058.444.175a.543.543 0 0 1 .186.416v.523a4.58 4.58 0 0 1 1.124-.86c.402-.214.877-.32 1.423-.32.506 0 .938.116 1.31.339.37.222.649.522.845.908.196.386.299.812.299 1.277v3.646c0 .165-.062.3-.186.417a.617.617 0 0 1-.444.165.654.654 0 0 1-.444-.165.535.535 0 0 1-.176-.417v-3.51c0-1.045-.506-1.567-1.506-1.567-.454 0-.866.116-1.227.338-.36.223-.7.523-1.02.9v3.857c0 .165-.061.3-.186.417a.609.609 0 0 1-.444.165c-.186-.02-.33-.068-.443-.185h.002ZM8.295 8h-4.09C1.889 8 0 9.787 0 11.976v.048C0 14.214 1.889 16 4.205 16h4.09c2.316 0 4.205-1.787 4.205-3.976v-.048C12.5 9.796 10.611 8 8.295 8Zm.021 6.654c-1.547 0-2.804-1.187-2.804-2.65 0-1.464 1.256-2.65 2.804-2.65 1.548 0 2.804 1.186 2.804 2.65 0 1.463-1.245 2.65-2.804 2.65Z"/></g></svg>