<svg xmlns="http://www.w3.org/2000/svg" viewBox="0 0 16 16"><path d="M4.455 8a3.566 3.566 0 0 1 3.559-3.559c1.946 0 3.559 1.613 3.559 3.559a3.565 3.565 0 0 1-3.56 3.559A3.55 3.55 0 0 1 4.456 8m3.559 2.224A2.213 2.213 0 0 0 10.238 8c0-1.223-1-2.224-2.224-2.224H7.93c.055.167.083.306.083.445 0 1-.806 1.779-1.78 1.779-.166 0-.305 0-.444-.056V8c0 1.251.973 2.224 2.224 2.224m-5.366-6.2c1.307-1.223 3.114-2.252 5.366-2.252 2.224 0 4.031 1.029 5.338 2.252 1.307 1.196 2.168 2.642 2.585 3.642a1 1 0 0 1 0 .695c-.417.973-1.278 2.42-2.585 3.643s-3.114 2.224-5.338 2.224c-2.252 0-4.06-1.001-5.366-2.224S.48 9.334.063 8.36a1 1 0 0 1 0-.695c.417-1 1.278-2.446 2.585-3.642m5.366-.917c-1.835 0-3.309.834-4.448 1.89A9.9 9.9 0 0 0 1.369 8c.39.834 1.112 2.03 2.197 3.03 1.14 1.057 2.613 1.863 4.448 1.863 1.807 0 3.28-.806 4.42-1.863 1.085-1 1.808-2.196 2.197-3.03a9.9 9.9 0 0 0-2.197-3.003c-1.14-1.056-2.613-1.89-4.42-1.89"/></svg>