<svg xmlns="http://www.w3.org/2000/svg" viewBox="0 0 16 16"><path d="M8 10.75c1.06 0 1.805-.487 2.234-.945a.684.684 0 0 1 .974-.058c.287.258.287.688.029.974A4.35 4.35 0 0 1 8 12.125c-1.547 0-2.635-.716-3.266-1.404-.257-.286-.257-.716.029-.974a.684.684 0 0 1 .974.058c.43.458 1.174.945 2.263.945M6.625 6.625a.905.905 0 0 1-.917.917.905.905 0 0 1-.916-.917c0-.487.4-.917.916-.917s.917.43.917.917m2.75 0c0-.487.401-.917.917-.917.515 0 .916.43.916.917a.905.905 0 0 1-.916.917.905.905 0 0 1-.917-.917M15.333 8A7.33 7.33 0 0 1 8 15.333 7.31 7.31 0 0 1 .667 8 7.33 7.33 0 0 1 8 .667c4.04 0 7.333 3.294 7.333 7.333M8 2.042C4.706 2.042 2.042 4.734 2.042 8A5.954 5.954 0 0 0 8 13.958c3.266 0 5.958-2.664 5.958-5.958 0-3.266-2.692-5.958-5.958-5.958"/></svg>