<svg width="179" height="32" viewBox="0 0 179 32" fill="none" xmlns="http://www.w3.org/2000/svg">
<g clip-path="url(#clip0_185_563)">
<path d="M48.7074 6.901H51.2337V21.6842H48.7958V20.2063C48.4421 20.7242 48 21.1368 47.4737 21.4357C46.9474 21.7347 46.2947 21.8863 45.52 21.8863C44.8084 21.8863 44.1516 21.7347 43.5453 21.4357C42.9389 21.1368 42.4211 20.7242 41.9832 20.2021C41.5453 19.6799 41.2042 19.0694 40.9558 18.3663C40.7074 17.6673 40.5853 16.9136 40.5853 16.1136C40.5853 15.3136 40.7116 14.5599 40.9642 13.861C41.2168 13.1621 41.5663 12.5515 42.0084 12.0336C42.4505 11.5157 42.9811 11.1031 43.5916 10.8042C44.2021 10.5052 44.8632 10.3536 45.5747 10.3536C45.9242 10.3536 46.2568 10.3915 46.5726 10.4715C46.8884 10.5515 47.1789 10.661 47.4442 10.7957C47.7095 10.9305 47.9495 11.0989 48.1642 11.2884C48.3789 11.4778 48.5558 11.6884 48.7032 11.9115V6.901H48.7074ZM48.8168 16.1136C48.8168 15.6463 48.7495 15.1999 48.6189 14.7789C48.4884 14.3536 48.2947 13.9789 48.0421 13.6547C47.7895 13.3305 47.4821 13.0694 47.1242 12.8799C46.7663 12.6905 46.3579 12.5936 45.9074 12.5936C45.4568 12.5936 45.0568 12.6905 44.699 12.8799C44.3411 13.0694 44.0379 13.3305 43.7853 13.6547C43.5326 13.9789 43.3432 14.3536 43.2126 14.7789C43.0821 15.2042 43.0147 15.6505 43.0147 16.1136C43.0147 16.5768 43.0821 17.0231 43.2126 17.4442C43.3432 17.8652 43.5326 18.2357 43.7811 18.5557C44.0295 18.8757 44.3284 19.1284 44.6863 19.3221C45.0442 19.5115 45.4526 19.6084 45.9032 19.6084C46.3537 19.6084 46.7832 19.5115 47.1453 19.3221C47.5074 19.1326 47.8105 18.8757 48.0589 18.5557C48.3074 18.2357 48.4926 17.8652 48.6232 17.4442C48.7495 17.0231 48.8168 16.581 48.8168 16.1136Z" fill="#FBFCFB"/>
<path d="M58.8211 10.3536C59.6169 10.3536 60.32 10.5052 60.9306 10.8126C61.5411 11.12 62.0548 11.5242 62.4758 12.0336C62.8927 12.5431 63.2084 13.1284 63.4232 13.7936C63.6379 14.4589 63.7432 15.1494 63.7432 15.8652V16.8631H56.0505C56.0969 17.2757 56.2063 17.6547 56.379 17.9915C56.5516 18.3284 56.7748 18.6231 57.04 18.8673C57.3053 19.1157 57.6084 19.3052 57.9411 19.44C58.2779 19.5747 58.6274 19.6421 58.9979 19.6421C59.3684 19.6421 59.68 19.6042 59.9663 19.5242C60.2484 19.4442 60.5011 19.3431 60.72 19.221C60.939 19.0989 61.1327 18.9684 61.3011 18.821C61.4695 18.6778 61.6169 18.5389 61.7516 18.4084L63.36 19.9452C63.1369 20.2105 62.88 20.4547 62.5853 20.6905C62.2906 20.9263 61.9621 21.1284 61.5874 21.3052C61.2169 21.4821 60.8042 21.621 60.3495 21.7263C59.8948 21.8315 59.3937 21.8778 58.8421 21.8778C58.0548 21.8778 57.3348 21.7347 56.6821 21.4484C56.0295 21.1621 55.4737 20.7663 55.0105 20.2568C54.5474 19.7473 54.1853 19.141 53.9327 18.4336C53.68 17.7263 53.5495 16.9515 53.5495 16.1094C53.5495 15.5789 53.6127 15.0652 53.7432 14.5726C53.8695 14.08 54.0506 13.621 54.2821 13.1957C54.5137 12.7705 54.7916 12.3831 55.1158 12.0336C55.44 11.6842 55.7979 11.381 56.1853 11.1368C56.5727 10.8884 56.9895 10.6989 57.44 10.56C57.8863 10.421 58.3495 10.3536 58.8295 10.3536H58.8211ZM58.8 12.5515C58.4505 12.5515 58.1305 12.6147 57.84 12.741C57.5495 12.8673 57.2842 13.04 57.0569 13.2589C56.8253 13.4778 56.6316 13.7389 56.4716 14.0378C56.3116 14.3368 56.1895 14.6652 56.1095 15.0189H61.2169C61.1916 14.6694 61.1116 14.3452 60.9811 14.0463C60.8506 13.7473 60.6779 13.4863 60.4632 13.2631C60.2484 13.04 60 12.8673 59.7179 12.741C59.4358 12.6147 59.1284 12.5515 58.8 12.5515Z" fill="#FBFCFB"/>
<path d="M74.6316 18.2947C74.6316 18.8252 74.5137 19.3136 74.2779 19.7557C74.0421 20.1978 73.7094 20.5726 73.28 20.8884C72.8505 21.2042 72.3452 21.4484 71.7558 21.6252C71.1663 21.8021 70.5263 21.8863 69.8273 21.8863C69.1284 21.8863 68.5558 21.8147 68.0252 21.6757C67.4947 21.5326 67.0358 21.3642 66.64 21.1663C66.2442 20.9684 65.9158 20.7663 65.6505 20.5557C65.3852 20.3452 65.1789 20.1726 65.0358 20.0336L66.5726 18.2778C66.8337 18.5347 67.1073 18.7536 67.3894 18.9347C67.6716 19.1157 67.9537 19.2631 68.2358 19.3768C68.5179 19.4905 68.8 19.5747 69.0737 19.6294C69.3473 19.6842 69.6126 19.7094 69.861 19.7094C70.1431 19.7094 70.4168 19.68 70.6737 19.6168C70.9347 19.5536 71.1621 19.4652 71.36 19.3557C71.5579 19.2421 71.7137 19.1115 71.8273 18.96C71.941 18.8084 72 18.64 72 18.4589C72 18.2231 71.9031 18.0294 71.7094 17.8821C71.5158 17.7347 71.2589 17.6042 70.9347 17.4905C70.6105 17.3768 70.2484 17.28 69.84 17.1915C69.4316 17.1031 69.0147 17.0021 68.5852 16.8884C68.1558 16.7747 67.7389 16.6442 67.3305 16.4842C66.9221 16.3284 66.5558 16.1263 66.2358 15.8863C65.9158 15.6463 65.6547 15.3515 65.461 15.0021C65.2673 14.6526 65.1705 14.2315 65.1705 13.7305C65.1705 13.2294 65.2884 12.741 65.52 12.3242C65.7516 11.9073 66.0716 11.5536 66.4758 11.2631C66.88 10.9726 67.3558 10.7494 67.9073 10.5936C68.4589 10.4378 69.0484 10.3578 69.6884 10.3578C70.1221 10.3578 70.5516 10.3957 70.9726 10.4715C71.3937 10.5473 71.7937 10.6526 72.1726 10.7915C72.5516 10.9305 72.901 11.0989 73.2168 11.2926C73.5368 11.4905 73.8105 11.7094 74.0421 11.9536L72.6905 13.6884C72.5389 13.5326 72.3452 13.381 72.1137 13.2463C71.8821 13.1073 71.6294 12.9852 71.36 12.88C71.0905 12.7747 70.8084 12.6905 70.5137 12.6273C70.2189 12.5642 69.9326 12.5347 69.6547 12.5347C69.3979 12.5347 69.1537 12.5642 68.9137 12.6189C68.6779 12.6736 68.4716 12.7536 68.2905 12.8505C68.1094 12.9473 67.9705 13.0652 67.861 13.2C67.7516 13.3347 67.6968 13.4863 67.6968 13.6505C67.6968 13.8652 67.7937 14.0463 67.9916 14.1894C68.1894 14.3326 68.4505 14.4547 68.7747 14.5557C69.0989 14.6568 69.4694 14.7536 69.8863 14.8421C70.2989 14.9305 70.7242 15.0315 71.1579 15.141C71.5916 15.2547 72.0168 15.3894 72.4295 15.5452C72.8421 15.7052 73.2126 15.9031 73.541 16.1473C73.8652 16.3915 74.1263 16.6863 74.3242 17.0357C74.5221 17.3852 74.6189 17.8063 74.6189 18.2989L74.6316 18.2947Z" fill="#FBFCFB"/>
<path d="M76.3663 8.03366C76.3663 7.81471 76.4042 7.61261 76.4842 7.41892C76.5642 7.22524 76.6737 7.05682 76.8084 6.91787C76.9474 6.77471 77.1116 6.66524 77.3011 6.58103C77.4905 6.49682 77.7011 6.45892 77.9242 6.45892C78.1474 6.45892 78.3537 6.50103 78.5474 6.58103C78.7369 6.66103 78.9053 6.77471 79.0442 6.91787C79.1874 7.06103 79.2969 7.22524 79.3726 7.41892C79.4526 7.61261 79.4905 7.81892 79.4905 8.03366C79.4905 8.2484 79.4526 8.46313 79.3726 8.65682C79.2926 8.84629 79.1832 9.01471 79.0442 9.15366C78.9011 9.29682 78.7369 9.40629 78.5474 9.48208C78.3579 9.56208 78.1474 9.59998 77.9242 9.59998C77.7011 9.59998 77.4948 9.56208 77.3011 9.48208C77.1074 9.40208 76.9474 9.29261 76.8084 9.15366C76.6695 9.0105 76.56 8.84629 76.4842 8.65682C76.4042 8.46734 76.3663 8.26103 76.3663 8.03366ZM79.1958 21.6842H76.6695V10.56H79.1958V21.6842Z" fill="#FBFCFB"/>
<path d="M92.4421 20.6821C92.4421 21.5368 92.2947 22.2694 92 22.88C91.7052 23.4905 91.301 23.9957 90.7958 24.3873C90.2905 24.7831 89.6968 25.0736 89.0189 25.2589C88.341 25.4442 87.621 25.541 86.8589 25.541C86.0505 25.541 85.2674 25.4357 84.5052 25.221C83.7431 25.0063 83.0568 24.6652 82.4379 24.1894L83.5916 22.1684C83.7431 22.2989 83.9326 22.4294 84.16 22.5642C84.3874 22.6947 84.64 22.8168 84.9263 22.9221C85.2084 23.0315 85.5116 23.1157 85.8316 23.1831C86.1516 23.2505 86.4842 23.28 86.8168 23.28C87.2253 23.28 87.621 23.2336 88 23.1452C88.3831 23.0568 88.72 22.9052 89.0147 22.6905C89.3095 22.4757 89.5453 22.1936 89.7263 21.8357C89.9074 21.4778 89.9916 21.0357 89.9916 20.5052V19.9242C89.6547 20.4126 89.2084 20.7915 88.6484 21.0694C88.0884 21.3473 87.4695 21.4821 86.7958 21.4821C86.1221 21.4821 85.4274 21.3473 84.8042 21.0736C84.181 20.8 83.6337 20.421 83.1705 19.9326C82.7074 19.4442 82.341 18.8673 82.0716 18.1936C81.8021 17.52 81.6674 16.7831 81.6674 15.9789C81.6674 15.1747 81.8021 14.421 82.0674 13.7347C82.3326 13.0484 82.7031 12.4505 83.1705 11.9494C83.6379 11.4484 84.1937 11.0526 84.8337 10.7705C85.4695 10.4884 86.16 10.3452 86.9052 10.3452C87.541 10.3452 88.1347 10.4757 88.6779 10.7284C89.221 10.981 89.6674 11.3684 90.0126 11.8821V10.5515H92.4379V20.6694L92.4421 20.6821ZM89.9958 15.9873C89.9958 15.52 89.9284 15.0821 89.7979 14.6736C89.6674 14.2652 89.4737 13.9115 89.221 13.6084C88.9684 13.3052 88.661 13.0694 88.3031 12.8926C87.9453 12.72 87.5368 12.6315 87.0863 12.6315C86.6358 12.6315 86.2231 12.72 85.8568 12.8926C85.4905 13.0652 85.1789 13.3052 84.9179 13.6126C84.6568 13.92 84.4589 14.2736 84.32 14.6821C84.181 15.0905 84.1137 15.5242 84.1137 15.9831C84.1137 16.4421 84.181 16.8842 84.32 17.28C84.4589 17.6757 84.6568 18.021 84.9137 18.3157C85.1705 18.6105 85.4821 18.8378 85.8442 19.0063C86.2105 19.1747 86.6231 19.2589 87.0821 19.2589C87.541 19.2589 87.9537 19.1663 88.3158 18.981C88.6779 18.7957 88.981 18.5515 89.2337 18.2484C89.4863 17.9452 89.6716 17.5957 89.8021 17.2042C89.9284 16.8126 89.9958 16.4084 89.9958 15.9873Z" fill="#FBFCFB"/>
<path d="M97.8905 12.0294C98.0337 11.8063 98.2105 11.5915 98.4126 11.3894C98.6147 11.1873 98.8505 11.0063 99.12 10.8505C99.3895 10.6947 99.6842 10.5726 100.017 10.4842C100.349 10.3957 100.72 10.3494 101.128 10.3494C101.773 10.3494 102.328 10.4673 102.792 10.6989C103.255 10.9305 103.638 11.2463 103.937 11.6463C104.236 12.0463 104.455 12.5094 104.598 13.0484C104.741 13.5831 104.808 14.1557 104.808 14.7578V21.68H102.265V15.0694C102.265 14.8252 102.24 14.5557 102.185 14.261C102.131 13.9663 102.034 13.6884 101.886 13.4273C101.739 13.1663 101.533 12.9473 101.276 12.7705C101.015 12.5936 100.678 12.5052 100.265 12.5052C99.8779 12.5052 99.5368 12.5852 99.2463 12.741C98.9558 12.8968 98.7116 13.1073 98.5179 13.3642C98.3242 13.621 98.1768 13.9157 98.08 14.2484C97.9832 14.581 97.9326 14.9178 97.9326 15.2589V21.68H95.4063V10.56H97.8232V12.0294H97.9032H97.8905Z" fill="#FBFCFB"/>
<path d="M120.476 18.2947C120.476 18.8252 120.358 19.3136 120.122 19.7557C119.886 20.1978 119.554 20.5726 119.124 20.8884C118.695 21.2042 118.189 21.4484 117.6 21.6252C117.011 21.8021 116.371 21.8863 115.672 21.8863C114.973 21.8863 114.4 21.8147 113.869 21.6757C113.339 21.5326 112.88 21.3642 112.484 21.1663C112.088 20.9684 111.76 20.7663 111.495 20.5557C111.229 20.3452 111.023 20.1726 110.88 20.0336L112.417 18.2778C112.678 18.5347 112.952 18.7536 113.234 18.9347C113.516 19.1157 113.798 19.2631 114.08 19.3768C114.362 19.4905 114.644 19.5747 114.918 19.6294C115.192 19.6842 115.457 19.7094 115.705 19.7094C115.987 19.7094 116.261 19.68 116.518 19.6168C116.779 19.5536 117.006 19.4652 117.204 19.3557C117.402 19.2421 117.558 19.1115 117.672 18.96C117.785 18.8084 117.844 18.64 117.844 18.4589C117.844 18.2231 117.747 18.0294 117.554 17.8821C117.36 17.7347 117.103 17.6042 116.779 17.4905C116.455 17.3768 116.093 17.28 115.684 17.1915C115.276 17.1031 114.859 17.0021 114.429 16.8884C114 16.7747 113.583 16.6442 113.175 16.4842C112.766 16.3284 112.4 16.1263 112.08 15.8863C111.76 15.6463 111.499 15.3515 111.305 15.0021C111.112 14.6526 111.015 14.2315 111.015 13.7305C111.015 13.2294 111.133 12.741 111.364 12.3242C111.596 11.9073 111.916 11.5536 112.32 11.2631C112.724 10.9726 113.2 10.7494 113.752 10.5936C114.303 10.4378 114.893 10.3578 115.533 10.3578C115.966 10.3578 116.396 10.3957 116.817 10.4715C117.238 10.5473 117.638 10.6526 118.017 10.7915C118.396 10.9305 118.745 11.0989 119.061 11.2926C119.381 11.4905 119.655 11.7094 119.886 11.9536L118.535 13.6884C118.383 13.5326 118.189 13.381 117.958 13.2463C117.726 13.1073 117.474 12.9852 117.204 12.88C116.935 12.7747 116.653 12.6905 116.358 12.6273C116.063 12.5642 115.777 12.5347 115.499 12.5347C115.242 12.5347 114.998 12.5642 114.758 12.6189C114.522 12.6736 114.316 12.7536 114.135 12.8505C113.954 12.9473 113.815 13.0652 113.705 13.2C113.596 13.3347 113.541 13.4863 113.541 13.6505C113.541 13.8652 113.638 14.0463 113.836 14.1894C114.034 14.3326 114.295 14.4547 114.619 14.5557C114.943 14.6568 115.314 14.7536 115.731 14.8421C116.143 14.9305 116.568 15.0315 117.002 15.141C117.436 15.2547 117.861 15.3894 118.274 15.5452C118.686 15.7052 119.057 15.9031 119.385 16.1473C119.709 16.3915 119.971 16.6863 120.168 17.0357C120.366 17.3852 120.463 17.8063 120.463 18.2989L120.476 18.2947Z" fill="#FBFCFB"/>
<path d="M121.895 23.2842H122.804C123.141 23.2842 123.423 23.2674 123.651 23.2337C123.882 23.2 124.08 23.1158 124.253 22.9811C124.425 22.8463 124.577 22.64 124.716 22.3663C124.855 22.0926 124.998 21.7095 125.149 21.2211L125.246 20.8968L121.082 10.56H123.764L126.459 17.9663L129.082 10.56H131.667L127.406 21.7853C127.128 22.5137 126.863 23.1116 126.602 23.5705C126.341 24.0295 126.055 24.3916 125.743 24.6568C125.432 24.9179 125.069 25.0989 124.657 25.2C124.244 25.2968 123.747 25.3474 123.162 25.3474H121.891V23.2842H121.895Z" fill="#FBFCFB"/>
<path d="M142.017 18.2947C142.017 18.8252 141.899 19.3136 141.663 19.7557C141.427 20.1978 141.095 20.5726 140.665 20.8884C140.236 21.2042 139.73 21.4484 139.141 21.6252C138.552 21.8021 137.912 21.8863 137.213 21.8863C136.514 21.8863 135.941 21.8147 135.41 21.6757C134.88 21.5326 134.421 21.3642 134.025 21.1663C133.629 20.9684 133.301 20.7663 133.036 20.5557C132.77 20.3452 132.564 20.1726 132.421 20.0336L133.958 18.2778C134.219 18.5347 134.493 18.7536 134.775 18.9347C135.057 19.1157 135.339 19.2631 135.621 19.3768C135.903 19.4905 136.185 19.5747 136.459 19.6294C136.733 19.6842 136.998 19.7094 137.246 19.7094C137.528 19.7094 137.802 19.68 138.059 19.6168C138.32 19.5536 138.547 19.4652 138.745 19.3557C138.943 19.2421 139.099 19.1115 139.213 18.96C139.326 18.8084 139.385 18.64 139.385 18.4589C139.385 18.2231 139.288 18.0294 139.095 17.8821C138.901 17.7347 138.64 17.6042 138.32 17.4905C138 17.3768 137.634 17.28 137.225 17.1915C136.817 17.1031 136.4 17.0021 135.97 16.8884C135.541 16.7747 135.124 16.6442 134.716 16.4842C134.307 16.3284 133.941 16.1263 133.621 15.8863C133.301 15.6463 133.04 15.3515 132.846 15.0021C132.653 14.6526 132.556 14.2315 132.556 13.7305C132.556 13.2294 132.674 12.741 132.905 12.3242C133.137 11.9073 133.457 11.5536 133.861 11.2631C134.265 10.9726 134.741 10.7494 135.293 10.5936C135.844 10.4378 136.434 10.3578 137.074 10.3578C137.507 10.3578 137.937 10.3957 138.358 10.4715C138.779 10.5473 139.179 10.6526 139.558 10.7915C139.937 10.9305 140.286 11.0989 140.602 11.2926C140.922 11.4905 141.196 11.7094 141.427 11.9536L140.076 13.6884C139.924 13.5326 139.73 13.381 139.499 13.2463C139.267 13.1073 139.015 12.9852 138.745 12.88C138.476 12.7747 138.194 12.6905 137.895 12.6273C137.6 12.5642 137.314 12.5347 137.036 12.5347C136.779 12.5347 136.53 12.5642 136.295 12.6189C136.059 12.6736 135.853 12.7536 135.672 12.8505C135.49 12.9473 135.352 13.0652 135.242 13.2C135.133 13.3347 135.078 13.4863 135.078 13.6505C135.078 13.8652 135.175 14.0463 135.373 14.1894C135.57 14.3326 135.832 14.4547 136.156 14.5557C136.48 14.6568 136.85 14.7536 137.263 14.8421C137.676 14.9305 138.101 15.0315 138.535 15.141C138.968 15.2547 139.394 15.3894 139.806 15.5452C140.219 15.7052 140.589 15.9031 140.918 16.1473C141.242 16.3915 141.503 16.6863 141.701 17.0357C141.899 17.3852 141.996 17.8063 141.996 18.2989L142.017 18.2947Z" fill="#FBFCFB"/>
<path d="M146.783 10.56H149.112V12.5726H146.783V18.0084C146.783 18.3452 146.817 18.6147 146.888 18.8252C146.956 19.0358 147.061 19.2 147.2 19.3221C147.339 19.4442 147.507 19.5284 147.714 19.5747C147.92 19.621 148.156 19.6421 148.425 19.6421H149.137V21.6842H147.844C147.238 21.6842 146.712 21.6294 146.261 21.5158C145.811 21.4021 145.436 21.2168 145.141 20.9473C144.846 20.6821 144.623 20.3284 144.48 19.8863C144.337 19.4442 144.261 18.8926 144.261 18.2273V12.5642H142.505V10.5515H144.261V7.85681H146.787V10.5515L146.783 10.56Z" fill="#FBFCFB"/>
<path d="M155.533 10.3536C156.328 10.3536 157.032 10.5052 157.642 10.8126C158.253 11.12 158.766 11.5242 159.187 12.0336C159.604 12.5431 159.92 13.1284 160.135 13.7936C160.349 14.4589 160.455 15.1494 160.455 15.8652V16.8631H152.762C152.808 17.2757 152.918 17.6547 153.091 17.9915C153.263 18.3284 153.486 18.6231 153.752 18.8673C154.017 19.1157 154.32 19.3052 154.653 19.44C154.989 19.5747 155.339 19.6421 155.709 19.6421C156.08 19.6421 156.392 19.6042 156.678 19.5242C156.964 19.4442 157.213 19.3431 157.432 19.221C157.651 19.0989 157.844 18.9684 158.013 18.821C158.181 18.6778 158.328 18.5389 158.463 18.4084L160.072 19.9452C159.848 20.2105 159.592 20.4547 159.297 20.6905C159.006 20.9263 158.674 21.1284 158.299 21.3052C157.928 21.4821 157.516 21.621 157.061 21.7263C156.606 21.8273 156.105 21.8778 155.554 21.8778C154.766 21.8778 154.046 21.7347 153.394 21.4484C152.741 21.1621 152.185 20.7663 151.722 20.2568C151.259 19.7473 150.897 19.141 150.644 18.4336C150.392 17.7263 150.261 16.9515 150.261 16.1094C150.261 15.5789 150.324 15.0652 150.455 14.5726C150.581 14.08 150.762 13.621 150.994 13.1957C151.225 12.7705 151.503 12.3831 151.827 12.0336C152.152 11.6842 152.509 11.381 152.897 11.1368C153.284 10.8884 153.701 10.6989 154.147 10.56C154.594 10.421 155.057 10.3536 155.537 10.3536H155.533ZM155.512 12.5515C155.162 12.5515 154.842 12.6147 154.552 12.741C154.257 12.8673 153.996 13.04 153.768 13.2589C153.541 13.4778 153.343 13.7389 153.183 14.0378C153.023 14.3368 152.901 14.6652 152.821 15.0189H157.928C157.903 14.6694 157.823 14.3452 157.693 14.0463C157.562 13.7473 157.389 13.4863 157.175 13.2631C156.96 13.04 156.712 12.8673 156.429 12.741C156.147 12.6147 155.84 12.5515 155.512 12.5515Z" fill="#FBFCFB"/>
<path d="M165.276 12.0294C165.419 11.7852 165.596 11.5621 165.802 11.36C166.008 11.1578 166.244 10.981 166.514 10.8336C166.779 10.6863 167.069 10.5684 167.381 10.4842C167.693 10.4 168.025 10.3536 168.371 10.3536C169.099 10.3536 169.726 10.5136 170.248 10.8252C170.771 11.141 171.179 11.6 171.478 12.2063C171.912 11.5536 172.421 11.0821 173.002 10.7915C173.583 10.501 174.274 10.3536 175.078 10.3536C175.592 10.3536 176.067 10.4463 176.505 10.6315C176.943 10.8168 177.322 11.0821 177.638 11.4315C177.958 11.781 178.206 12.2063 178.383 12.7157C178.56 13.2252 178.648 13.7978 178.648 14.4421V21.6926H176.122V14.9052C176.122 14.6863 176.097 14.4421 176.042 14.1642C175.987 13.8863 175.895 13.6294 175.756 13.3852C175.617 13.141 175.427 12.9347 175.187 12.7705C174.947 12.6021 174.64 12.5178 174.265 12.5178C173.891 12.5178 173.549 12.5936 173.263 12.7494C172.977 12.9052 172.737 13.1031 172.547 13.3515C172.358 13.6 172.215 13.8694 172.118 14.1726C172.021 14.4715 171.975 14.7705 171.975 15.0652V21.6926H169.432V14.9052C169.432 14.6821 169.406 14.4336 169.356 14.1557C169.305 13.8821 169.213 13.621 169.074 13.3768C168.935 13.1326 168.745 12.9305 168.505 12.7663C168.265 12.6021 167.954 12.5178 167.575 12.5178C167.196 12.5178 166.851 12.6021 166.564 12.7705C166.278 12.9389 166.042 13.1494 165.853 13.4063C165.663 13.6631 165.524 13.9452 165.432 14.2526C165.339 14.56 165.293 14.8589 165.293 15.141V21.6926H162.766V10.56H165.183V12.0294H165.263H165.276Z" fill="#FBFCFB"/>
<path d="M24.6863 0H7.31368C3.27445 0 0 3.27445 0 7.31368V24.6863C0 28.7256 3.27445 32 7.31368 32H24.6863C28.7256 32 32 28.7256 32 24.6863V7.31368C32 3.27445 28.7256 0 24.6863 0Z" fill="#3366FF"/>
<path d="M16.2821 23.2969C14.0379 23.2969 11.2295 22.5937 8.98529 20.6316L10.5306 18.5263C10.5306 18.5263 12.7748 20.7706 16.1432 20.7706C19.2295 20.7706 20.0716 19.6463 20.0716 18.9474C20.0716 17.5453 17.9663 17.4021 15.7221 17.1242C12.9137 16.7032 9.12845 16.2821 9.12845 12.9137C9.12845 10.3874 12.2148 8.70319 15.5832 8.70319C18.2484 8.70319 20.3537 9.40634 22.1769 10.9474L20.6316 13.0527C19.2295 11.7895 17.5453 11.2295 15.7179 11.2295C13.1916 11.2295 12.0674 12.3537 12.0674 12.9137C12.0674 14.1769 14.1727 14.3158 16.699 14.5979C20.0674 15.019 23.0148 15.7221 23.0148 18.8084C22.8758 21.3348 20.2063 23.3011 16.2779 23.3011L16.2821 23.2969Z" fill="#FEFEFE"/>
</g>
<defs>
<clipPath id="clip0_185_563">
<rect width="178.653" height="32" fill="white"/>
</clipPath>
</defs>
</svg>
