<svg width="179" height="32" viewBox="0 0 179 32" fill="none" xmlns="http://www.w3.org/2000/svg">
<g clip-path="url(#clip0_107_217)">
<path d="M48.7074 6.90106H51.2337V21.6842H48.7958V20.2063C48.4421 20.7242 48 21.1369 47.4737 21.4358C46.9474 21.7347 46.2947 21.8863 45.52 21.8863C44.8084 21.8863 44.1516 21.7347 43.5453 21.4358C42.9389 21.1369 42.4211 20.7242 41.9832 20.2021C41.5453 19.68 41.2042 19.0695 40.9558 18.3663C40.7074 17.6674 40.5853 16.9137 40.5853 16.1137C40.5853 15.3137 40.7116 14.56 40.9642 13.8611C41.2168 13.1621 41.5663 12.5516 42.0084 12.0337C42.4505 11.5158 42.9811 11.1032 43.5916 10.8042C44.2021 10.5053 44.8632 10.3537 45.5747 10.3537C45.9242 10.3537 46.2568 10.3916 46.5726 10.4716C46.8884 10.5516 47.1789 10.6611 47.4442 10.7958C47.7095 10.9305 47.9495 11.099 48.1642 11.2884C48.3789 11.4779 48.5558 11.6884 48.7032 11.9116V6.90106H48.7074ZM48.8168 16.1137C48.8168 15.6463 48.7495 15.2 48.6189 14.779C48.4884 14.3537 48.2947 13.979 48.0421 13.6547C47.7895 13.3305 47.4821 13.0695 47.1242 12.88C46.7663 12.6905 46.3579 12.5937 45.9074 12.5937C45.4568 12.5937 45.0568 12.6905 44.699 12.88C44.3411 13.0695 44.0379 13.3305 43.7853 13.6547C43.5326 13.979 43.3432 14.3537 43.2126 14.779C43.0821 15.2042 43.0147 15.6505 43.0147 16.1137C43.0147 16.5769 43.0821 17.0232 43.2126 17.4442C43.3432 17.8653 43.5326 18.2358 43.7811 18.5558C44.0295 18.8758 44.3284 19.1284 44.6863 19.3221C45.0442 19.5116 45.4526 19.6084 45.9032 19.6084C46.3537 19.6084 46.7832 19.5116 47.1453 19.3221C47.5074 19.1326 47.8105 18.8758 48.0589 18.5558C48.3074 18.2358 48.4926 17.8653 48.6232 17.4442C48.7495 17.0232 48.8168 16.5811 48.8168 16.1137Z" fill="#222222"/>
<path d="M58.821 10.3537C59.6168 10.3537 60.32 10.5053 60.9305 10.8126C61.5411 11.12 62.0547 11.5242 62.4758 12.0337C62.8926 12.5432 63.2084 13.1284 63.4232 13.7937C63.6379 14.459 63.7432 15.1495 63.7432 15.8653V16.8632H56.0505C56.0968 17.2758 56.2063 17.6548 56.3789 17.9916C56.5516 18.3284 56.7747 18.6232 57.04 18.8674C57.3053 19.1158 57.6084 19.3053 57.941 19.44C58.2779 19.5747 58.6274 19.6421 58.9979 19.6421C59.3684 19.6421 59.68 19.6042 59.9663 19.5242C60.2484 19.4442 60.5011 19.3432 60.72 19.2211C60.9389 19.099 61.1326 18.9684 61.301 18.8211C61.4695 18.6779 61.6168 18.539 61.7516 18.4084L63.36 19.9453C63.1368 20.2105 62.88 20.4548 62.5853 20.6905C62.2905 20.9263 61.9621 21.1284 61.5874 21.3053C61.2168 21.4821 60.8042 21.6211 60.3495 21.7263C59.8947 21.8316 59.3937 21.8779 58.8421 21.8779C58.0547 21.8779 57.3347 21.7347 56.6821 21.4484C56.0295 21.1621 55.4737 20.7663 55.0105 20.2569C54.5474 19.7474 54.1853 19.1411 53.9326 18.4337C53.68 17.7263 53.5495 16.9516 53.5495 16.1095C53.5495 15.579 53.6126 15.0653 53.7432 14.5726C53.8695 14.08 54.0505 13.6211 54.2821 13.1958C54.5137 12.7705 54.7916 12.3832 55.1158 12.0337C55.44 11.6842 55.7979 11.3811 56.1853 11.1369C56.5726 10.8884 56.9895 10.699 57.44 10.56C57.8863 10.4211 58.3495 10.3537 58.8295 10.3537H58.821ZM58.8 12.5516C58.4505 12.5516 58.1305 12.6148 57.84 12.7411C57.5495 12.8674 57.2842 13.04 57.0568 13.259C56.8253 13.4779 56.6316 13.739 56.4716 14.0379C56.3116 14.3369 56.1895 14.6653 56.1095 15.019H61.2168C61.1916 14.6695 61.1116 14.3453 60.981 14.0463C60.8505 13.7474 60.6779 13.4863 60.4632 13.2632C60.2484 13.04 60 12.8674 59.7179 12.7411C59.4358 12.6148 59.1284 12.5516 58.8 12.5516Z" fill="#222222"/>
<path d="M74.6316 18.2948C74.6316 18.8253 74.5137 19.3137 74.2779 19.7558C74.0421 20.1979 73.7095 20.5726 73.28 20.8884C72.8505 21.2042 72.3453 21.4484 71.7558 21.6253C71.1663 21.8021 70.5263 21.8863 69.8274 21.8863C69.1284 21.8863 68.5558 21.8148 68.0253 21.6758C67.4947 21.5326 67.0358 21.3642 66.64 21.1663C66.2442 20.9684 65.9158 20.7663 65.6505 20.5558C65.3853 20.3453 65.179 20.1726 65.0358 20.0337L66.5726 18.2779C66.8337 18.5348 67.1074 18.7537 67.3895 18.9348C67.6716 19.1158 67.9537 19.2632 68.2358 19.3769C68.5179 19.4905 68.8 19.5748 69.0737 19.6295C69.3474 19.6842 69.6126 19.7095 69.8611 19.7095C70.1432 19.7095 70.4168 19.68 70.6737 19.6169C70.9347 19.5537 71.1621 19.4653 71.36 19.3558C71.5579 19.2421 71.7137 19.1116 71.8274 18.96C71.9411 18.8084 72 18.64 72 18.459C72 18.2232 71.9032 18.0295 71.7095 17.8821C71.5158 17.7348 71.259 17.6042 70.9347 17.4905C70.6105 17.3769 70.2484 17.28 69.84 17.1916C69.4316 17.1032 69.0147 17.0021 68.5853 16.8884C68.1558 16.7748 67.739 16.6442 67.3305 16.4842C66.9221 16.3284 66.5558 16.1263 66.2358 15.8863C65.9158 15.6463 65.6547 15.3516 65.4611 15.0021C65.2674 14.6526 65.1705 14.2316 65.1705 13.7305C65.1705 13.2295 65.2884 12.7411 65.52 12.3242C65.7516 11.9074 66.0716 11.5537 66.4758 11.2632C66.88 10.9726 67.3558 10.7495 67.9074 10.5937C68.459 10.4379 69.0484 10.3579 69.6884 10.3579C70.1221 10.3579 70.5516 10.3958 70.9726 10.4716C71.3937 10.5474 71.7937 10.6526 72.1726 10.7916C72.5516 10.9305 72.9011 11.099 73.2168 11.2926C73.5368 11.4905 73.8105 11.7095 74.0421 11.9537L72.6905 13.6884C72.539 13.5326 72.3453 13.3811 72.1137 13.2463C71.8821 13.1074 71.6295 12.9853 71.36 12.88C71.0905 12.7748 70.8084 12.6905 70.5137 12.6274C70.219 12.5642 69.9326 12.5348 69.6547 12.5348C69.3979 12.5348 69.1537 12.5642 68.9137 12.619C68.6779 12.6737 68.4716 12.7537 68.2905 12.8505C68.1095 12.9474 67.9705 13.0653 67.8611 13.2C67.7516 13.3348 67.6968 13.4863 67.6968 13.6505C67.6968 13.8653 67.7937 14.0463 67.9916 14.1895C68.1895 14.3326 68.4505 14.4548 68.7747 14.5558C69.099 14.6569 69.4695 14.7537 69.8863 14.8421C70.299 14.9305 70.7242 15.0316 71.1579 15.1411C71.5916 15.2548 72.0168 15.3895 72.4295 15.5453C72.8421 15.7053 73.2126 15.9032 73.5411 16.1474C73.8653 16.3916 74.1263 16.6863 74.3242 17.0358C74.5221 17.3853 74.619 17.8063 74.619 18.299L74.6316 18.2948Z" fill="#222222"/>
<path d="M76.3663 8.03369C76.3663 7.81474 76.4042 7.61264 76.4842 7.41895C76.5642 7.22527 76.6737 7.05685 76.8084 6.9179C76.9474 6.77474 77.1116 6.66527 77.3011 6.58106C77.4905 6.49685 77.7011 6.45895 77.9242 6.45895C78.1474 6.45895 78.3537 6.50106 78.5474 6.58106C78.7369 6.66106 78.9053 6.77474 79.0442 6.9179C79.1874 7.06106 79.2969 7.22527 79.3726 7.41895C79.4526 7.61264 79.4905 7.81895 79.4905 8.03369C79.4905 8.24843 79.4526 8.46316 79.3726 8.65685C79.2926 8.84632 79.1832 9.01474 79.0442 9.15369C78.9011 9.29685 78.7369 9.40632 78.5474 9.48211C78.3579 9.56211 78.1474 9.60001 77.9242 9.60001C77.7011 9.60001 77.4948 9.56211 77.3011 9.48211C77.1074 9.40211 76.9474 9.29264 76.8084 9.15369C76.6695 9.01053 76.56 8.84632 76.4842 8.65685C76.4042 8.46737 76.3663 8.26106 76.3663 8.03369ZM79.1958 21.6842H76.6695V10.56H79.1958V21.6842Z" fill="#222222"/>
<path d="M92.4421 20.6821C92.4421 21.5369 92.2947 22.2695 92 22.88C91.7052 23.4905 91.301 23.9958 90.7958 24.3874C90.2905 24.7832 89.6968 25.0737 89.0189 25.259C88.341 25.4442 87.621 25.5411 86.8589 25.5411C86.0505 25.5411 85.2674 25.4358 84.5052 25.2211C83.7431 25.0063 83.0568 24.6653 82.4379 24.1895L83.5916 22.1684C83.7431 22.299 83.9326 22.4295 84.16 22.5642C84.3874 22.6947 84.64 22.8169 84.9263 22.9221C85.2084 23.0316 85.5116 23.1158 85.8316 23.1832C86.1516 23.2505 86.4842 23.28 86.8168 23.28C87.2253 23.28 87.621 23.2337 88 23.1453C88.3831 23.0569 88.72 22.9053 89.0147 22.6905C89.3095 22.4758 89.5453 22.1937 89.7263 21.8358C89.9074 21.4779 89.9916 21.0358 89.9916 20.5053V19.9242C89.6547 20.4126 89.2084 20.7916 88.6484 21.0695C88.0884 21.3474 87.4695 21.4821 86.7958 21.4821C86.1221 21.4821 85.4274 21.3474 84.8042 21.0737C84.181 20.8 83.6337 20.4211 83.1705 19.9326C82.7074 19.4442 82.341 18.8674 82.0716 18.1937C81.8021 17.52 81.6674 16.7832 81.6674 15.979C81.6674 15.1747 81.8021 14.4211 82.0674 13.7347C82.3326 13.0484 82.7031 12.4505 83.1705 11.9495C83.6379 11.4484 84.1937 11.0526 84.8337 10.7705C85.4695 10.4884 86.16 10.3453 86.9052 10.3453C87.541 10.3453 88.1347 10.4758 88.6779 10.7284C89.221 10.9811 89.6674 11.3684 90.0126 11.8821V10.5516H92.4379V20.6695L92.4421 20.6821ZM89.9958 15.9874C89.9958 15.52 89.9284 15.0821 89.7979 14.6737C89.6674 14.2653 89.4737 13.9116 89.221 13.6084C88.9684 13.3053 88.661 13.0695 88.3031 12.8926C87.9453 12.72 87.5368 12.6316 87.0863 12.6316C86.6358 12.6316 86.2231 12.72 85.8568 12.8926C85.4905 13.0653 85.1789 13.3053 84.9179 13.6126C84.6568 13.92 84.4589 14.2737 84.32 14.6821C84.181 15.0905 84.1137 15.5242 84.1137 15.9832C84.1137 16.4421 84.181 16.8842 84.32 17.28C84.4589 17.6758 84.6568 18.0211 84.9137 18.3158C85.1705 18.6105 85.4821 18.8379 85.8442 19.0063C86.2105 19.1747 86.6231 19.259 87.0821 19.259C87.541 19.259 87.9537 19.1663 88.3158 18.9811C88.6779 18.7958 88.981 18.5516 89.2337 18.2484C89.4863 17.9453 89.6716 17.5958 89.8021 17.2042C89.9284 16.8126 89.9958 16.4084 89.9958 15.9874Z" fill="#222222"/>
<path d="M97.8905 12.0295C98.0337 11.8063 98.2105 11.5916 98.4126 11.3895C98.6147 11.1874 98.8505 11.0063 99.12 10.8505C99.3895 10.6948 99.6842 10.5726 100.017 10.4842C100.349 10.3958 100.72 10.3495 101.128 10.3495C101.773 10.3495 102.328 10.4674 102.792 10.699C103.255 10.9305 103.638 11.2463 103.937 11.6463C104.236 12.0463 104.455 12.5095 104.598 13.0484C104.741 13.5832 104.808 14.1558 104.808 14.7579V21.68H102.265V15.0695C102.265 14.8253 102.24 14.5558 102.185 14.2611C102.131 13.9663 102.034 13.6884 101.886 13.4274C101.739 13.1663 101.533 12.9474 101.276 12.7705C101.015 12.5937 100.678 12.5053 100.265 12.5053C99.8779 12.5053 99.5368 12.5853 99.2463 12.7411C98.9558 12.8969 98.7116 13.1074 98.5179 13.3642C98.3242 13.6211 98.1768 13.9158 98.08 14.2484C97.9832 14.5811 97.9326 14.9179 97.9326 15.259V21.68H95.4063V10.56H97.8232V12.0295H97.9032H97.8905Z" fill="#222222"/>
<path d="M120.476 18.2948C120.476 18.8253 120.358 19.3137 120.122 19.7558C119.886 20.1979 119.554 20.5726 119.124 20.8884C118.695 21.2042 118.189 21.4484 117.6 21.6253C117.011 21.8021 116.371 21.8863 115.672 21.8863C114.973 21.8863 114.4 21.8148 113.869 21.6758C113.339 21.5326 112.88 21.3642 112.484 21.1663C112.088 20.9684 111.76 20.7663 111.495 20.5558C111.229 20.3453 111.023 20.1726 110.88 20.0337L112.417 18.2779C112.678 18.5348 112.952 18.7537 113.234 18.9348C113.516 19.1158 113.798 19.2632 114.08 19.3769C114.362 19.4905 114.644 19.5748 114.918 19.6295C115.192 19.6842 115.457 19.7095 115.705 19.7095C115.987 19.7095 116.261 19.68 116.518 19.6169C116.779 19.5537 117.006 19.4653 117.204 19.3558C117.402 19.2421 117.558 19.1116 117.672 18.96C117.785 18.8084 117.844 18.64 117.844 18.459C117.844 18.2232 117.747 18.0295 117.554 17.8821C117.36 17.7348 117.103 17.6042 116.779 17.4905C116.455 17.3769 116.093 17.28 115.684 17.1916C115.276 17.1032 114.859 17.0021 114.429 16.8884C114 16.7748 113.583 16.6442 113.175 16.4842C112.766 16.3284 112.4 16.1263 112.08 15.8863C111.76 15.6463 111.499 15.3516 111.305 15.0021C111.112 14.6526 111.015 14.2316 111.015 13.7305C111.015 13.2295 111.133 12.7411 111.364 12.3242C111.596 11.9074 111.916 11.5537 112.32 11.2632C112.724 10.9726 113.2 10.7495 113.752 10.5937C114.303 10.4379 114.893 10.3579 115.533 10.3579C115.966 10.3579 116.396 10.3958 116.817 10.4716C117.238 10.5474 117.638 10.6526 118.017 10.7916C118.396 10.9305 118.745 11.099 119.061 11.2926C119.381 11.4905 119.655 11.7095 119.886 11.9537L118.535 13.6884C118.383 13.5326 118.189 13.3811 117.958 13.2463C117.726 13.1074 117.474 12.9853 117.204 12.88C116.935 12.7748 116.653 12.6905 116.358 12.6274C116.063 12.5642 115.777 12.5348 115.499 12.5348C115.242 12.5348 114.998 12.5642 114.758 12.619C114.522 12.6737 114.316 12.7537 114.135 12.8505C113.954 12.9474 113.815 13.0653 113.705 13.2C113.596 13.3348 113.541 13.4863 113.541 13.6505C113.541 13.8653 113.638 14.0463 113.836 14.1895C114.034 14.3326 114.295 14.4548 114.619 14.5558C114.943 14.6569 115.314 14.7537 115.731 14.8421C116.143 14.9305 116.568 15.0316 117.002 15.1411C117.436 15.2548 117.861 15.3895 118.274 15.5453C118.686 15.7053 119.057 15.9032 119.385 16.1474C119.709 16.3916 119.971 16.6863 120.168 17.0358C120.366 17.3853 120.463 17.8063 120.463 18.299L120.476 18.2948Z" fill="#222222"/>
<path d="M121.895 23.2842H122.804C123.141 23.2842 123.423 23.2674 123.651 23.2337C123.882 23.2 124.08 23.1158 124.253 22.9811C124.425 22.8463 124.577 22.64 124.716 22.3663C124.855 22.0926 124.998 21.7095 125.149 21.2211L125.246 20.8968L121.082 10.56H123.764L126.459 17.9663L129.082 10.56H131.667L127.406 21.7853C127.128 22.5137 126.863 23.1116 126.602 23.5705C126.341 24.0295 126.055 24.3916 125.743 24.6568C125.432 24.9179 125.069 25.0989 124.657 25.2C124.244 25.2968 123.747 25.3474 123.162 25.3474H121.891V23.2842H121.895Z" fill="#222222"/>
<path d="M142.017 18.2948C142.017 18.8253 141.899 19.3137 141.663 19.7558C141.427 20.1979 141.095 20.5726 140.665 20.8884C140.236 21.2042 139.731 21.4484 139.141 21.6253C138.552 21.8021 137.912 21.8863 137.213 21.8863C136.514 21.8863 135.941 21.8148 135.411 21.6758C134.88 21.5326 134.421 21.3642 134.025 21.1663C133.629 20.9684 133.301 20.7663 133.036 20.5558C132.771 20.3453 132.564 20.1726 132.421 20.0337L133.958 18.2779C134.219 18.5348 134.493 18.7537 134.775 18.9348C135.057 19.1158 135.339 19.2632 135.621 19.3769C135.903 19.4905 136.185 19.5748 136.459 19.6295C136.733 19.6842 136.998 19.7095 137.246 19.7095C137.528 19.7095 137.802 19.68 138.059 19.6169C138.32 19.5537 138.547 19.4653 138.745 19.3558C138.943 19.2421 139.099 19.1116 139.213 18.96C139.326 18.8084 139.385 18.64 139.385 18.459C139.385 18.2232 139.288 18.0295 139.095 17.8821C138.901 17.7348 138.64 17.6042 138.32 17.4905C138 17.3769 137.634 17.28 137.225 17.1916C136.817 17.1032 136.4 17.0021 135.971 16.8884C135.541 16.7748 135.124 16.6442 134.716 16.4842C134.307 16.3284 133.941 16.1263 133.621 15.8863C133.301 15.6463 133.04 15.3516 132.846 15.0021C132.653 14.6526 132.556 14.2316 132.556 13.7305C132.556 13.2295 132.674 12.7411 132.905 12.3242C133.137 11.9074 133.457 11.5537 133.861 11.2632C134.265 10.9726 134.741 10.7495 135.293 10.5937C135.844 10.4379 136.434 10.3579 137.074 10.3579C137.507 10.3579 137.937 10.3958 138.358 10.4716C138.779 10.5474 139.179 10.6526 139.558 10.7916C139.937 10.9305 140.286 11.099 140.602 11.2926C140.922 11.4905 141.196 11.7095 141.427 11.9537L140.076 13.6884C139.924 13.5326 139.731 13.3811 139.499 13.2463C139.267 13.1074 139.015 12.9853 138.745 12.88C138.476 12.7748 138.194 12.6905 137.895 12.6274C137.6 12.5642 137.314 12.5348 137.036 12.5348C136.779 12.5348 136.531 12.5642 136.295 12.619C136.059 12.6737 135.853 12.7537 135.672 12.8505C135.491 12.9474 135.352 13.0653 135.242 13.2C135.133 13.3348 135.078 13.4863 135.078 13.6505C135.078 13.8653 135.175 14.0463 135.373 14.1895C135.571 14.3326 135.832 14.4548 136.156 14.5558C136.48 14.6569 136.851 14.7537 137.263 14.8421C137.676 14.9305 138.101 15.0316 138.535 15.1411C138.968 15.2548 139.394 15.3895 139.806 15.5453C140.219 15.7053 140.589 15.9032 140.918 16.1474C141.242 16.3916 141.503 16.6863 141.701 17.0358C141.899 17.3853 141.996 17.8063 141.996 18.299L142.017 18.2948Z" fill="#222222"/>
<path d="M146.783 10.56H149.112V12.5726H146.783V18.0084C146.783 18.3453 146.817 18.6147 146.888 18.8253C146.956 19.0358 147.061 19.2 147.2 19.3221C147.339 19.4442 147.507 19.5284 147.714 19.5747C147.92 19.6211 148.156 19.6421 148.425 19.6421H149.137V21.6842H147.844C147.238 21.6842 146.712 21.6295 146.261 21.5158C145.811 21.4021 145.436 21.2168 145.141 20.9474C144.846 20.6821 144.623 20.3284 144.48 19.8863C144.337 19.4442 144.261 18.8926 144.261 18.2274V12.5642H142.505V10.5516H144.261V7.85684H146.787V10.5516L146.783 10.56Z" fill="#222222"/>
<path d="M155.533 10.3537C156.328 10.3537 157.032 10.5053 157.642 10.8126C158.253 11.12 158.766 11.5242 159.187 12.0337C159.604 12.5432 159.92 13.1284 160.135 13.7937C160.349 14.459 160.455 15.1495 160.455 15.8653V16.8632H152.762C152.808 17.2758 152.918 17.6548 153.091 17.9916C153.263 18.3284 153.486 18.6232 153.752 18.8674C154.017 19.1158 154.32 19.3053 154.653 19.44C154.989 19.5747 155.339 19.6421 155.709 19.6421C156.08 19.6421 156.392 19.6042 156.678 19.5242C156.964 19.4442 157.213 19.3432 157.432 19.2211C157.651 19.099 157.844 18.9684 158.013 18.8211C158.181 18.6779 158.328 18.539 158.463 18.4084L160.072 19.9453C159.848 20.2105 159.592 20.4548 159.297 20.6905C159.006 20.9263 158.674 21.1284 158.299 21.3053C157.928 21.4821 157.516 21.6211 157.061 21.7263C156.606 21.8274 156.105 21.8779 155.554 21.8779C154.766 21.8779 154.046 21.7347 153.394 21.4484C152.741 21.1621 152.185 20.7663 151.722 20.2569C151.259 19.7474 150.897 19.1411 150.644 18.4337C150.392 17.7263 150.261 16.9516 150.261 16.1095C150.261 15.579 150.324 15.0653 150.455 14.5726C150.581 14.08 150.762 13.6211 150.994 13.1958C151.225 12.7705 151.503 12.3832 151.827 12.0337C152.152 11.6842 152.509 11.3811 152.897 11.1369C153.284 10.8884 153.701 10.699 154.147 10.56C154.594 10.4211 155.057 10.3537 155.537 10.3537H155.533ZM155.512 12.5516C155.162 12.5516 154.842 12.6148 154.552 12.7411C154.257 12.8674 153.996 13.04 153.768 13.259C153.541 13.4779 153.343 13.739 153.183 14.0379C153.023 14.3369 152.901 14.6653 152.821 15.019H157.928C157.903 14.6695 157.823 14.3453 157.693 14.0463C157.562 13.7474 157.389 13.4863 157.175 13.2632C156.96 13.04 156.712 12.8674 156.429 12.7411C156.147 12.6148 155.84 12.5516 155.512 12.5516Z" fill="#222222"/>
<path d="M165.276 12.0295C165.419 11.7853 165.596 11.5621 165.802 11.36C166.008 11.1579 166.244 10.9811 166.514 10.8337C166.779 10.6863 167.069 10.5684 167.381 10.4842C167.693 10.4 168.025 10.3537 168.371 10.3537C169.099 10.3537 169.726 10.5137 170.248 10.8253C170.771 11.1411 171.179 11.6 171.478 12.2063C171.912 11.5537 172.421 11.0821 173.002 10.7916C173.583 10.5011 174.274 10.3537 175.078 10.3537C175.592 10.3537 176.067 10.4463 176.505 10.6316C176.943 10.8169 177.322 11.0821 177.638 11.4316C177.958 11.7811 178.206 12.2063 178.383 12.7158C178.56 13.2253 178.648 13.7979 178.648 14.4421V21.6926H176.122V14.9053C176.122 14.6863 176.097 14.4421 176.042 14.1642C175.987 13.8863 175.895 13.6295 175.756 13.3853C175.617 13.1411 175.427 12.9348 175.187 12.7705C174.947 12.6021 174.64 12.5179 174.265 12.5179C173.891 12.5179 173.549 12.5937 173.263 12.7495C172.977 12.9053 172.737 13.1032 172.547 13.3516C172.358 13.6 172.215 13.8695 172.118 14.1726C172.021 14.4716 171.975 14.7705 171.975 15.0653V21.6926H169.432V14.9053C169.432 14.6821 169.406 14.4337 169.356 14.1558C169.305 13.8821 169.213 13.6211 169.074 13.3769C168.935 13.1326 168.745 12.9305 168.505 12.7663C168.265 12.6021 167.954 12.5179 167.575 12.5179C167.196 12.5179 166.851 12.6021 166.564 12.7705C166.278 12.939 166.042 13.1495 165.853 13.4063C165.663 13.6632 165.524 13.9453 165.432 14.2526C165.339 14.56 165.293 14.859 165.293 15.1411V21.6926H162.766V10.56H165.183V12.0295H165.263H165.276Z" fill="#222222"/>
<path d="M24.6863 0H7.31368C3.27445 0 0 3.27445 0 7.31368V24.6863C0 28.7256 3.27445 32 7.31368 32H24.6863C28.7256 32 32 28.7256 32 24.6863V7.31368C32 3.27445 28.7256 0 24.6863 0Z" fill="#56CC8A"/>
<path d="M16.2821 23.2968C14.0379 23.2968 11.2295 22.5937 8.98526 20.6316L10.5305 18.5263C10.5305 18.5263 12.7747 20.7705 16.1432 20.7705C19.2295 20.7705 20.0716 19.6463 20.0716 18.9474C20.0716 17.5453 17.9663 17.4021 15.7221 17.1242C12.9137 16.7032 9.12842 16.2821 9.12842 12.9137C9.12842 10.3874 12.2147 8.70316 15.5832 8.70316C18.2484 8.70316 20.3537 9.40631 22.1768 10.9474L20.6316 13.0526C19.2295 11.7895 17.5453 11.2295 15.7179 11.2295C13.1916 11.2295 12.0674 12.3537 12.0674 12.9137C12.0674 14.1768 14.1726 14.3158 16.6989 14.5979C20.0674 15.0189 23.0147 15.7221 23.0147 18.8084C22.8758 21.3347 20.2063 23.301 16.2779 23.301L16.2821 23.2968Z" fill="#FEFEFE"/>
</g>
<defs>
<clipPath id="clip0_107_217">
<rect width="178.653" height="32" fill="white"/>
</clipPath>
</defs>
</svg>
