<svg viewBox="0 0 12 12" xmlns="http://www.w3.org/2000/svg"><path d="M9.642 1.898c-.15 0-.172.022-.258.022C9.169 1.318 8.589.867 7.923.867c-.15 0-.28.022-.408.065A1.562 1.562 0 0 0 6.205.18c-.56 0-1.054.3-1.333.752a1.217 1.217 0 0 0-.387-.065c-.859 0-1.547.71-1.547 1.547v3.262c-.128-.022-.236-.043-.343-.043-.946 0-1.719.773-1.719 1.74 0 .43.15.838.451 1.16l1.74 1.87a4.488 4.488 0 0 0 3.266 1.417h.645c2.277 0 4.146-1.847 4.146-4.125v-4.25c0-.838-.645-1.547-1.482-1.547Zm.45 5.797A3.095 3.095 0 0 1 7 10.79h-.666a3.496 3.496 0 0 1-2.514-1.074L2.122 7.867a.686.686 0 0 1-.215-.494c0-.473.408-.687.666-.687.194 0 .387.085.516.236l.58.601a.164.164 0 0 0 .107.043c.108 0 .172-.064.172-.171v-4.98c0-.28.237-.517.516-.517.28 0 .494.237.494.516v3.51c.043.193.193.344.387.344a.33.33 0 0 0 .322-.323l.021-4.218c0-.28.215-.516.495-.516.279 0 .494.236.494.516v4.197c.043.193.193.344.386.344a.33.33 0 0 0 .323-.323v-3.51c0-.279.236-.515.515-.515.28 0 .495.236.495.516v3.51c.042.171.193.322.386.322a.33.33 0 0 0 .322-.323v-2.5c0-.279.215-.515.495-.515.279 0 .494.236.494.515v4.25Z"/></svg>