<svg viewBox="0 0 12 12" xmlns="http://www.w3.org/2000/svg"><g fill-rule="evenodd" clip-rule="evenodd"><path d="M3.341 6a2.674 2.674 0 0 1 2.67-2.669c1.459 0 2.668 1.21 2.668 2.669 0 1.48-1.209 2.669-2.669 2.669A2.66 2.66 0 0 1 3.341 6ZM7.5 5.5C7.5 6 7 6 7 6s-.5 0-.5-.5S7 5 7 5s.5 0 .5.5Z"/><path d="M1.986 3.018c.98-.917 2.335-1.689 4.024-1.689 1.669 0 3.024.772 4.004 1.69.646.59.712 1.263.772 1.867.031.313.06.608.167.864a.748.748 0 0 1 0 .521c-.107.25-.136.54-.167.852-.06.6-.127 1.276-.772 1.88-.98.917-2.335 1.668-4.004 1.668-1.689 0-3.044-.75-4.024-1.668-.645-.604-.712-1.28-.772-1.88-.031-.311-.06-.602-.167-.852a.747.747 0 0 1 0-.521c.107-.256.136-.55.167-.864.06-.604.126-1.277.772-1.868Zm.688.73C3.53 2.956 4.634 2.33 6.01 2.33c1.356 0 2.46.626 3.316 1.418.51.471.52.992.529 1.47.005.282.01.55.118.782-.109.233-.113.503-.118.79-.01.483-.019 1.011-.53 1.483-.854.792-1.96 1.397-3.315 1.397-1.376 0-2.48-.605-3.336-1.397-.514-.474-.536-1.007-.557-1.493-.012-.283-.023-.55-.13-.78.107-.23.118-.494.13-.774.02-.48.043-1.004.557-1.478Z"/></g></svg>