<svg xmlns="http://www.w3.org/2000/svg" xml:space="preserve" fill-rule="evenodd" clip-rule="evenodd" viewBox="0 0 656 464">
  <path fill="var(--control-color-surface-100-surface, #F4F4F4)" d="M0 0h656v464H0z"/>
  <path fill="var(--control-color-text-base-text, #222)" fill-rule="nonzero" d="M49.119 25.85v-5.232h3.152v.784h-2.224v1.336h1.88v.784h-1.88v1.544h2.304v.784h-3.232Zm5.32.096a2.25 2.25 0 0 1-.8-.152 2.708 2.708 0 0 1-.688-.392l.432-.592c.176.133.352.24.528.32.176.08.363.12.56.12.214 0 .371-.046.472-.136a.432.432 0 0 0 .152-.336.331.331 0 0 0-.128-.272 1.024 1.024 0 0 0-.312-.192 6.408 6.408 0 0 0-.4-.168 4.53 4.53 0 0 1-.512-.232 1.34 1.34 0 0 1-.408-.36.933.933 0 0 1-.16-.552c0-.347.128-.63.384-.848.256-.219.603-.328 1.04-.328.278 0 .526.048.744.144.219.096.408.205.568.328l-.424.56a1.925 1.925 0 0 0-.424-.24 1.034 1.034 0 0 0-.44-.096c-.197 0-.344.042-.44.128a.378.378 0 0 0-.144.304c0 .154.08.272.24.352.16.08.347.157.56.232.182.064.358.144.528.24.171.09.312.21.424.36.118.149.176.346.176.592 0 .336-.13.624-.392.864-.261.234-.64.352-1.136.352Zm3.446 0c-.267 0-.534-.051-.8-.152a2.691 2.691 0 0 1-.688-.392l.432-.592c.176.133.352.24.528.32.176.08.362.12.56.12.213 0 .37-.046.472-.136a.435.435 0 0 0 .152-.336.334.334 0 0 0-.128-.272 1.024 1.024 0 0 0-.312-.192 6.672 6.672 0 0 0-.4-.168 4.375 4.375 0 0 1-.512-.232 1.318 1.318 0 0 1-.408-.36.926.926 0 0 1-.16-.552c0-.347.128-.63.384-.848.256-.219.602-.328 1.04-.328.277 0 .525.048.744.144.218.096.408.205.568.328l-.424.56a1.948 1.948 0 0 0-.424-.24 1.04 1.04 0 0 0-.44-.096c-.198 0-.344.042-.44.128a.378.378 0 0 0-.144.304c0 .154.08.272.24.352.16.08.346.157.56.232.181.064.357.144.528.24.17.09.312.21.424.36.117.149.176.346.176.592 0 .336-.131.624-.392.864-.262.234-.64.352-1.136.352Zm4.029 0c-.363 0-.691-.08-.984-.24a1.812 1.812 0 0 1-.696-.704c-.171-.31-.256-.68-.256-1.112 0-.427.085-.795.256-1.104.176-.31.403-.547.68-.712a1.67 1.67 0 0 1 .872-.248c.357 0 .656.08.896.24.24.154.421.373.544.656.123.277.184.6.184.968 0 .192-.013.341-.04.448h-2.496c.043.346.168.616.376.808.208.192.469.288.784.288.171 0 .328-.024.472-.072.149-.054.296-.126.44-.216l.312.576a2.87 2.87 0 0 1-.624.304c-.229.08-.469.12-.72.12Zm-1.048-2.432h1.744c0-.304-.067-.542-.2-.712-.133-.176-.333-.264-.6-.264a.874.874 0 0 0-.616.256c-.176.165-.285.405-.328.72Zm3.423 2.336v-3.928h.76l.064.528h.032c.176-.171.368-.318.576-.44a1.37 1.37 0 0 1 .712-.184c.421 0 .728.136.92.408.192.272.288.656.288 1.152v2.464h-.92v-2.344c0-.326-.048-.555-.144-.688-.096-.134-.254-.2-.472-.2a.82.82 0 0 0-.456.128c-.128.08-.275.2-.44.36v2.744h-.92Zm5.86.096c-.453 0-.776-.131-.968-.392-.186-.267-.28-.611-.28-1.032V22.65h-.56v-.688l.608-.04.112-1.072h.768v1.072h1v.728h-1v1.872c0 .458.184.688.552.688.07 0 .141-.008.216-.024a2.26 2.26 0 0 0 .192-.064l.16.68a2.672 2.672 0 0 1-.368.096 1.844 1.844 0 0 1-.432.048Zm1.507-.096v-3.928h.92v3.928h-.92Zm.464-4.616a.556.556 0 0 1-.4-.144.502.502 0 0 1-.152-.384c0-.155.05-.28.152-.376a.556.556 0 0 1 .4-.144.56.56 0 0 1 .4.144.495.495 0 0 1 .152.376c0 .16-.051.288-.152.384a.56.56 0 0 1-.4.144Zm2.582 4.712c-.342 0-.622-.107-.84-.32-.214-.214-.32-.491-.32-.832 0-.422.184-.747.552-.976.368-.235.954-.395 1.76-.48a.95.95 0 0 0-.168-.536c-.102-.155-.286-.232-.552-.232-.192 0-.382.037-.568.112-.182.074-.36.165-.536.272l-.336-.616c.218-.139.464-.259.736-.36.277-.102.57-.152.88-.152.49 0 .856.146 1.096.44.245.288.368.706.368 1.256v2.328h-.761l-.063-.432h-.032a2.899 2.899 0 0 1-.568.376 1.406 1.406 0 0 1-.648.152Zm.296-.72c.16 0 .304-.038.432-.112.133-.08.274-.187.424-.32v-.88c-.534.069-.904.173-1.112.312-.208.133-.312.298-.312.496 0 .176.053.304.16.384.106.08.242.12.408.12Zm3.773.72c-.326 0-.558-.099-.696-.296-.134-.198-.2-.467-.2-.808v-4.64h.92v4.688c0 .112.021.192.064.24a.193.193 0 0 0 .136.064h.056a.662.662 0 0 1 .087-.016l.121.688a1.447 1.447 0 0 1-.488.08ZM32.423 422.75v-5.232h.952l1.632 2.944.536 1.112h.032a38.844 38.844 0 0 0-.08-.872c-.026-.315-.04-.619-.04-.912v-2.272h.888v5.232h-.952l-1.632-2.944-.536-1.112h-.032l.072.872c.032.304.048.603.048.896v2.288h-.888Zm6.778.096c-.325 0-.629-.08-.912-.24a1.9 1.9 0 0 1-.688-.704c-.176-.309-.264-.68-.264-1.112 0-.437.088-.808.264-1.112.176-.309.406-.544.688-.704a1.78 1.78 0 0 1 .912-.248c.331 0 .638.083.92.248.283.16.512.395.688.704.176.304.264.675.264 1.112 0 .432-.088.803-.264 1.112a1.892 1.892 0 0 1-.688.704c-.282.16-.589.24-.92.24Zm0-.752c.288 0 .515-.12.68-.36.166-.24.248-.555.248-.944 0-.395-.082-.712-.248-.952a.782.782 0 0 0-.68-.36.784.784 0 0 0-.68.36c-.16.24-.24.557-.24.952 0 .389.08.704.24.944.166.24.392.36.68.36Zm2.783.656v-3.928h.76l.064.528h.032c.176-.171.368-.317.576-.44a1.37 1.37 0 0 1 .712-.184c.421 0 .728.136.92.408.192.272.288.656.288 1.152v2.464h-.92v-2.344c0-.325-.048-.555-.144-.688-.096-.133-.253-.2-.472-.2a.829.829 0 0 0-.456.128c-.128.08-.275.2-.44.36v2.744h-.92Zm4.229-1.68v-.672h1.904v.672h-1.904Zm2.906 1.68v-5.232h3.152v.784h-2.224v1.336h1.88v.784h-1.88v1.544h2.304v.784h-3.232Zm5.32.096a2.25 2.25 0 0 1-.8-.152 2.679 2.679 0 0 1-.688-.392l.432-.592c.176.133.352.24.528.32.176.08.363.12.56.12.214 0 .371-.045.472-.136a.432.432 0 0 0 .152-.336.331.331 0 0 0-.128-.272 1.024 1.024 0 0 0-.312-.192 6.408 6.408 0 0 0-.4-.168 4.36 4.36 0 0 1-.512-.232 1.34 1.34 0 0 1-.408-.36.928.928 0 0 1-.16-.552c0-.347.128-.629.384-.848.256-.219.603-.328 1.04-.328.278 0 .526.048.744.144.219.096.408.205.568.328l-.424.56a2.01 2.01 0 0 0-.424-.24 1.034 1.034 0 0 0-.44-.096c-.197 0-.344.043-.44.128a.378.378 0 0 0-.144.304c0 .155.08.272.24.352.16.08.347.157.56.232.182.064.358.144.528.24.171.091.312.211.424.36.118.149.176.347.176.592 0 .336-.13.624-.392.864-.261.235-.64.352-1.136.352Zm3.446 0c-.267 0-.534-.051-.8-.152a2.662 2.662 0 0 1-.688-.392l.432-.592c.176.133.352.24.528.32.176.08.362.12.56.12.213 0 .37-.045.472-.136a.435.435 0 0 0 .152-.336.334.334 0 0 0-.128-.272 1.024 1.024 0 0 0-.312-.192 6.672 6.672 0 0 0-.4-.168 4.216 4.216 0 0 1-.512-.232 1.318 1.318 0 0 1-.408-.36.921.921 0 0 1-.16-.552c0-.347.128-.629.384-.848.256-.219.602-.328 1.04-.328.277 0 .525.048.744.144.218.096.408.205.568.328l-.424.56a2.034 2.034 0 0 0-.424-.24 1.04 1.04 0 0 0-.44-.096c-.198 0-.344.043-.44.128a.378.378 0 0 0-.144.304c0 .155.08.272.24.352.16.08.346.157.56.232.181.064.357.144.528.24.17.091.312.211.424.36.117.149.176.347.176.592 0 .336-.131.624-.392.864-.262.235-.64.352-1.136.352Zm4.029 0c-.363 0-.691-.08-.984-.24a1.805 1.805 0 0 1-.696-.704c-.171-.309-.256-.68-.256-1.112 0-.427.085-.795.256-1.104.176-.309.403-.547.68-.712a1.68 1.68 0 0 1 .872-.248c.357 0 .656.08.896.24.24.155.421.373.544.656.123.277.184.6.184.968 0 .192-.013.341-.04.448h-2.496c.043.347.168.616.376.808.208.192.469.288.784.288.171 0 .328-.024.472-.072.149-.053.296-.125.44-.216l.312.576a2.824 2.824 0 0 1-.624.304c-.229.08-.469.12-.72.12Zm-1.048-2.432h1.744c0-.304-.067-.541-.2-.712-.133-.176-.333-.264-.6-.264a.874.874 0 0 0-.616.256c-.176.165-.285.405-.328.72Zm3.423 2.336v-3.928h.76l.064.528h.032c.176-.171.368-.317.576-.44a1.37 1.37 0 0 1 .712-.184c.421 0 .728.136.92.408.192.272.288.656.288 1.152v2.464h-.92v-2.344c0-.325-.048-.555-.144-.688-.096-.133-.254-.2-.472-.2a.829.829 0 0 0-.456.128c-.128.08-.275.2-.44.36v2.744h-.92Zm5.86.096c-.453 0-.776-.131-.968-.392-.186-.267-.28-.611-.28-1.032v-1.872h-.56v-.688l.608-.04.112-1.072h.768v1.072h1v.728h-1v1.872c0 .459.184.688.552.688.07 0 .141-.008.216-.024.075-.021.139-.043.192-.064l.16.68a2.672 2.672 0 0 1-.368.096 1.844 1.844 0 0 1-.432.048Zm1.507-.096v-3.928h.92v3.928h-.92Zm.464-4.616a.556.556 0 0 1-.4-.144.502.502 0 0 1-.152-.384c0-.155.05-.28.152-.376a.556.556 0 0 1 .4-.144.56.56 0 0 1 .4.144.495.495 0 0 1 .152.376c0 .16-.051.288-.152.384a.56.56 0 0 1-.4.144Zm2.582 4.712c-.342 0-.622-.107-.84-.32-.214-.213-.32-.491-.32-.832 0-.421.184-.747.552-.976.368-.235.954-.395 1.76-.48a.95.95 0 0 0-.168-.536c-.102-.155-.286-.232-.552-.232-.192 0-.382.037-.568.112-.182.075-.36.165-.536.272l-.336-.616c.218-.139.464-.259.736-.36.277-.101.57-.152.88-.152.49 0 .856.147 1.096.44.245.288.368.707.368 1.256v2.328h-.761l-.063-.432h-.032a2.854 2.854 0 0 1-.568.376 1.406 1.406 0 0 1-.648.152Zm.296-.72c.16 0 .304-.037.432-.112.133-.08.274-.187.424-.32v-.88c-.534.069-.904.173-1.112.312-.208.133-.312.299-.312.496 0 .176.053.304.16.384.106.08.242.12.408.12Zm3.773.72c-.326 0-.558-.099-.696-.296-.134-.197-.2-.467-.2-.808v-4.64h.92v4.688c0 .112.021.192.064.24a.189.189 0 0 0 .136.064h.056a.886.886 0 0 1 .087-.016l.121.688a1.447 1.447 0 0 1-.488.08ZM153.191 443v-5.232h1.648c.389 0 .736.051 1.04.152.304.101.544.269.72.504.176.235.264.555.264.96 0 .384-.088.701-.264.952a1.581 1.581 0 0 1-.712.56 2.648 2.648 0 0 1-1.016.184h-.752V443h-.928Zm.928-2.664h.68c.768 0 1.152-.317 1.152-.952 0-.331-.101-.557-.304-.68-.197-.128-.491-.192-.88-.192h-.648v1.824Zm3.648 2.664v-3.928h.76l.064.696h.032c.139-.256.307-.451.504-.584.197-.139.4-.208.608-.208.187 0 .336.027.448.08l-.16.8a1.206 1.206 0 0 0-.408-.064c-.155 0-.317.061-.488.184-.171.117-.317.325-.44.624v2.4h-.92Zm2.984 0v-3.928h.92V443h-.92Zm.464-4.616a.56.56 0 0 1-.4-.144.505.505 0 0 1-.152-.384c0-.155.051-.28.152-.376a.56.56 0 0 1 .4-.144c.166 0 .299.048.4.144a.491.491 0 0 1 .152.376c0 .16-.05.288-.152.384a.556.556 0 0 1-.4.144Zm1.63 4.616v-3.928h.76l.064.536h.032c.166-.176.344-.325.536-.448.198-.123.419-.184.664-.184.288 0 .518.064.688.192.176.123.31.293.4.512.187-.203.382-.371.584-.504.208-.133.435-.2.68-.2.416 0 .723.136.92.408.198.272.296.656.296 1.152V443h-.928v-2.344c0-.325-.05-.555-.152-.688-.096-.133-.245-.2-.448-.2-.245 0-.52.163-.824.488V443h-.92v-2.344c0-.325-.05-.555-.152-.688-.096-.133-.248-.2-.456-.2-.245 0-.52.163-.824.488V443h-.92Zm7.694.096c-.341 0-.621-.107-.84-.32-.213-.213-.32-.491-.32-.832 0-.421.184-.747.552-.976.368-.235.955-.395 1.76-.48a.935.935 0 0 0-.168-.536c-.101-.155-.285-.232-.552-.232-.192 0-.381.037-.568.112-.181.075-.36.165-.536.272l-.336-.616c.219-.139.464-.259.736-.36.278-.101.571-.152.88-.152.491 0 .856.147 1.096.44.246.288.368.707.368 1.256V443h-.76l-.064-.432h-.032a2.826 2.826 0 0 1-.568.376 1.4 1.4 0 0 1-.648.152Zm.296-.72c.16 0 .304-.037.432-.112.134-.08.275-.187.424-.32v-.88c-.533.069-.904.173-1.112.312-.208.133-.312.299-.312.496 0 .176.054.304.16.384.107.08.243.12.408.12Zm2.877.624v-3.928h.76l.064.696h.032c.139-.256.307-.451.504-.584.198-.139.4-.208.608-.208.187 0 .336.027.448.08l-.16.8a1.191 1.191 0 0 0-.408-.064c-.154 0-.317.061-.488.184-.17.117-.317.325-.44.624v2.4h-.92Zm3.374 1.616c-.107 0-.2-.008-.28-.024a3.03 3.03 0 0 1-.232-.056l.168-.72c.037.011.08.021.128.032a.655.655 0 0 0 .648-.168 1.14 1.14 0 0 0 .288-.48l.072-.248-1.544-3.88h.936l.68 1.928c.058.171.114.352.168.544l.176.56h.032l.144-.552.152-.552.592-1.928h.888l-1.424 4.104c-.166.443-.366.792-.6 1.048-.235.261-.566.392-.992.392ZM235.184 443v-5.232h.952l1.632 2.944.536 1.112h.032a45.785 45.785 0 0 0-.08-.872 10.68 10.68 0 0 1-.04-.912v-2.272h.888V443h-.952l-1.632-2.944-.536-1.112h-.032c.021.277.045.568.072.872.032.304.048.603.048.896V443h-.888Zm6.85.096c-.363 0-.691-.08-.984-.24a1.792 1.792 0 0 1-.696-.704c-.171-.309-.256-.68-.256-1.112 0-.427.085-.795.256-1.104.176-.309.402-.547.68-.712a1.68 1.68 0 0 1 .872-.248c.357 0 .656.08.896.24.24.155.421.373.544.656.122.277.184.6.184.968 0 .192-.014.341-.04.448h-2.496c.042.347.168.616.376.808.208.192.469.288.784.288.17 0 .328-.024.472-.072.149-.053.296-.125.44-.216l.312.576a2.824 2.824 0 0 1-.624.304c-.23.08-.47.12-.72.12Zm-1.048-2.432h1.744c0-.304-.067-.541-.2-.712-.134-.176-.334-.264-.6-.264a.872.872 0 0 0-.616.256c-.176.165-.286.405-.328.72Zm4.59 2.432c-.421 0-.728-.136-.92-.408-.192-.272-.288-.656-.288-1.152v-2.464h.92v2.344c0 .325.048.555.144.688.096.133.251.2.464.2a.79.79 0 0 0 .448-.128c.134-.085.275-.224.424-.416v-2.688h.92V443h-.752l-.072-.576h-.024c-.17.203-.357.365-.56.488a1.327 1.327 0 0 1-.704.184Zm4.662 0c-.454 0-.776-.131-.968-.392-.187-.267-.28-.611-.28-1.032V439.8h-.56v-.688l.608-.04.112-1.072h.768v1.072h1v.728h-1v1.872c0 .459.184.688.552.688.069 0 .141-.008.216-.024a2.15 2.15 0 0 0 .192-.064l.16.68a2.75 2.75 0 0 1-.368.096 1.856 1.856 0 0 1-.432.048Zm1.506-.096v-3.928h.76l.064.696h.032c.139-.256.307-.451.504-.584.197-.139.4-.208.608-.208.187 0 .336.027.448.08l-.16.8a1.206 1.206 0 0 0-.408-.064c-.155 0-.317.061-.488.184-.171.117-.317.325-.44.624v2.4h-.92Zm3.726.096c-.342 0-.622-.107-.84-.32-.214-.213-.32-.491-.32-.832 0-.421.184-.747.552-.976.368-.235.954-.395 1.76-.48a.95.95 0 0 0-.168-.536c-.102-.155-.286-.232-.552-.232-.192 0-.382.037-.568.112-.182.075-.36.165-.536.272l-.336-.616c.218-.139.464-.259.736-.36.277-.101.57-.152.88-.152.49 0 .856.147 1.096.44.245.288.368.707.368 1.256V443h-.76l-.064-.432h-.032a2.854 2.854 0 0 1-.568.376 1.406 1.406 0 0 1-.648.152Zm.296-.72c.16 0 .304-.037.432-.112.133-.08.274-.187.424-.32v-.88c-.534.069-.904.173-1.112.312-.208.133-.312.299-.312.496 0 .176.053.304.16.384.106.08.242.12.408.12Zm3.773.72c-.326 0-.558-.099-.696-.296-.134-.197-.2-.467-.2-.808v-4.64h.92v4.688c0 .112.021.192.064.24a.189.189 0 0 0 .136.064h.056a.86.86 0 0 1 .088-.016l.12.688a1.447 1.447 0 0 1-.488.08Zm58.647 0c-.352 0-.694-.067-1.024-.2a2.659 2.659 0 0 1-.864-.568l.544-.632c.186.176.4.32.64.432.24.107.48.16.72.16.298 0 .525-.061.68-.184a.594.594 0 0 0 .232-.488c0-.219-.078-.376-.232-.472a4.092 4.092 0 0 0-.576-.296l-.72-.312a2.854 2.854 0 0 1-.504-.288 1.465 1.465 0 0 1-.4-.448 1.318 1.318 0 0 1-.152-.656c0-.277.074-.525.224-.744.154-.224.362-.4.624-.528.266-.133.57-.2.912-.2.304 0 .597.061.88.184.282.117.525.277.728.48l-.472.592a2.134 2.134 0 0 0-.528-.328 1.493 1.493 0 0 0-.608-.12c-.246 0-.446.056-.6.168a.518.518 0 0 0-.224.448.51.51 0 0 0 .112.336c.08.085.184.16.312.224.128.059.264.117.408.176l.712.296c.309.133.562.309.76.528.197.213.296.509.296.888 0 .283-.075.541-.224.776a1.62 1.62 0 0 1-.648.568c-.278.139-.614.208-1.008.208Zm3.919 0c-.421 0-.728-.136-.92-.408-.192-.272-.288-.656-.288-1.152v-2.464h.92v2.344c0 .325.048.555.144.688.096.133.251.2.464.2a.79.79 0 0 0 .448-.128c.133-.085.275-.224.424-.416v-2.688h.92V443h-.752l-.072-.576h-.024a2.275 2.275 0 0 1-.56.488 1.33 1.33 0 0 1-.704.184Zm4.917 0c-.357 0-.68-.08-.968-.24a1.843 1.843 0 0 1-.68-.704c-.165-.309-.248-.68-.248-1.112 0-.437.091-.808.272-1.112.182-.309.422-.544.72-.704.304-.165.63-.248.976-.248.251 0 .47.043.656.128.187.085.352.189.496.312l-.448.6a1.204 1.204 0 0 0-.312-.208.76.76 0 0 0-.344-.08.972.972 0 0 0-.776.36c-.197.24-.296.557-.296.952 0 .389.096.704.288.944.198.24.451.36.76.36a.983.983 0 0 0 .432-.096c.139-.069.264-.149.376-.24l.376.608a1.85 1.85 0 0 1-.608.36c-.224.08-.448.12-.672.12Zm3.5 0c-.357 0-.68-.08-.968-.24a1.843 1.843 0 0 1-.68-.704c-.165-.309-.248-.68-.248-1.112 0-.437.091-.808.272-1.112.182-.309.422-.544.72-.704.304-.165.63-.248.976-.248.251 0 .47.043.656.128.187.085.352.189.496.312l-.448.6a1.204 1.204 0 0 0-.312-.208.76.76 0 0 0-.344-.08.972.972 0 0 0-.776.36c-.197.24-.296.557-.296.952 0 .389.096.704.288.944.198.24.451.36.76.36a.983.983 0 0 0 .432-.096c.139-.069.264-.149.376-.24l.376.608a1.85 1.85 0 0 1-.608.36c-.224.08-.448.12-.672.12Zm3.54 0c-.362 0-.69-.08-.984-.24a1.805 1.805 0 0 1-.696-.704c-.17-.309-.256-.68-.256-1.112 0-.427.086-.795.256-1.104.176-.309.403-.547.68-.712.278-.165.568-.248.872-.248.358 0 .656.08.896.24.24.155.422.373.544.656.123.277.184.6.184.968 0 .192-.013.341-.04.448h-2.496c.043.347.168.616.376.808.208.192.47.288.784.288.171 0 .328-.024.472-.072.15-.053.296-.125.44-.216l.312.576a2.782 2.782 0 0 1-.624.304c-.229.08-.469.12-.72.12Zm-1.048-2.432h1.744c0-.304-.066-.541-.2-.712-.133-.176-.333-.264-.6-.264a.876.876 0 0 0-.616.256c-.176.165-.285.405-.328.72Zm4.519 2.432c-.267 0-.533-.051-.8-.152a2.662 2.662 0 0 1-.688-.392l.432-.592c.176.133.352.24.528.32.176.08.363.12.56.12.213 0 .371-.045.472-.136a.435.435 0 0 0 .152-.336.334.334 0 0 0-.128-.272 1.024 1.024 0 0 0-.312-.192 6.408 6.408 0 0 0-.4-.168 4.286 4.286 0 0 1-.512-.232 1.34 1.34 0 0 1-.408-.36.921.921 0 0 1-.16-.552c0-.347.128-.629.384-.848.256-.219.603-.328 1.04-.328.277 0 .525.048.744.144.219.096.408.205.568.328l-.424.56a2.034 2.034 0 0 0-.424-.24 1.038 1.038 0 0 0-.44-.096c-.197 0-.344.043-.44.128a.378.378 0 0 0-.144.304c0 .155.08.272.24.352.16.08.347.157.56.232.181.064.357.144.528.24.171.091.312.211.424.36.117.149.176.347.176.592 0 .336-.131.624-.392.864-.261.235-.64.352-1.136.352Zm3.445 0a2.25 2.25 0 0 1-.8-.152 2.679 2.679 0 0 1-.688-.392l.432-.592c.176.133.352.24.528.32.176.08.363.12.56.12.214 0 .371-.045.472-.136a.432.432 0 0 0 .152-.336.331.331 0 0 0-.128-.272 1.024 1.024 0 0 0-.312-.192 6.408 6.408 0 0 0-.4-.168 4.36 4.36 0 0 1-.512-.232 1.34 1.34 0 0 1-.408-.36.928.928 0 0 1-.16-.552c0-.347.128-.629.384-.848.256-.219.603-.328 1.04-.328.278 0 .526.048.744.144.219.096.408.205.568.328l-.424.56a2.01 2.01 0 0 0-.424-.24 1.034 1.034 0 0 0-.44-.096c-.197 0-.344.043-.44.128a.378.378 0 0 0-.144.304c0 .155.08.272.24.352.16.08.347.157.56.232.182.064.358.144.528.24.171.091.312.211.424.36.118.149.176.347.176.592 0 .336-.13.624-.392.864-.261.235-.64.352-1.136.352Zm54.755-.096-1.04-5.232h.952l.456 2.64c.043.277.086.557.128.84.048.277.091.555.128.832h.032c.059-.277.115-.555.168-.832l.176-.84.64-2.64h.808l.64 2.64c.059.272.118.549.176.832.059.277.118.557.176.84h.032l.128-.84c.043-.277.083-.555.12-.832l.456-2.64h.888l-1 5.232h-1.152l-.648-2.752-.128-.608a31.677 31.677 0 0 1-.104-.6h-.032c-.037.197-.077.397-.12.6a21.75 21.75 0 0 1-.12.608l-.632 2.752h-1.128Zm6.641.096c-.341 0-.621-.107-.84-.32-.213-.213-.32-.491-.32-.832 0-.421.184-.747.552-.976.368-.235.955-.395 1.76-.48a.935.935 0 0 0-.168-.536c-.101-.155-.285-.232-.552-.232-.192 0-.381.037-.568.112-.181.075-.36.165-.536.272l-.336-.616c.219-.139.464-.259.736-.36.278-.101.571-.152.88-.152.491 0 .856.147 1.096.44.246.288.368.707.368 1.256V443h-.76l-.064-.432h-.032a2.826 2.826 0 0 1-.568.376 1.4 1.4 0 0 1-.648.152Zm.296-.72c.16 0 .304-.037.432-.112.134-.08.275-.187.424-.32v-.88c-.533.069-.904.173-1.112.312-.208.133-.312.299-.312.496 0 .176.054.304.16.384.107.08.243.12.408.12Zm2.877.624v-3.928h.76l.064.696h.032c.139-.256.307-.451.504-.584.198-.139.4-.208.608-.208.187 0 .336.027.448.08l-.16.8a1.191 1.191 0 0 0-.408-.064c-.154 0-.317.061-.488.184-.17.117-.317.325-.44.624v2.4h-.92Zm2.985 0v-3.928h.76l.064.528h.032c.176-.171.368-.317.576-.44a1.37 1.37 0 0 1 .712-.184c.421 0 .728.136.92.408.192.272.288.656.288 1.152V443h-.92v-2.344c0-.325-.048-.555-.144-.688-.096-.133-.254-.2-.472-.2a.829.829 0 0 0-.456.128c-.128.08-.275.2-.44.36V443h-.92Zm4.476 0v-3.928h.92V443h-.92Zm.464-4.616a.56.56 0 0 1-.4-.144.505.505 0 0 1-.152-.384c0-.155.051-.28.152-.376a.56.56 0 0 1 .4-.144c.166 0 .299.048.4.144a.491.491 0 0 1 .152.376c0 .16-.05.288-.152.384a.556.556 0 0 1-.4.144Zm1.63 4.616v-3.928h.76l.064.528h.032c.176-.171.368-.317.576-.44a1.37 1.37 0 0 1 .712-.184c.421 0 .728.136.92.408.192.272.288.656.288 1.152V443h-.92v-2.344c0-.325-.048-.555-.144-.688-.096-.133-.253-.2-.472-.2a.829.829 0 0 0-.456.128c-.128.08-.275.2-.44.36V443h-.92Zm5.845 1.736c-.31 0-.59-.037-.84-.112a1.288 1.288 0 0 1-.584-.344.8.8 0 0 1-.208-.568c0-.325.186-.605.56-.84v-.032a.823.823 0 0 1-.256-.256.767.767 0 0 1-.096-.4c0-.155.042-.293.128-.416.09-.128.192-.232.304-.312v-.032a1.42 1.42 0 0 1-.36-.424 1.234 1.234 0 0 1-.152-.616c0-.304.072-.56.216-.768.144-.208.333-.365.568-.472.24-.112.496-.168.768-.168.106 0 .208.011.304.032.101.016.192.037.272.064h1.408v.68h-.72a1.063 1.063 0 0 1 .224.664c0 .288-.067.533-.2.736a1.263 1.263 0 0 1-.536.448 1.81 1.81 0 0 1-1.016.128 1.315 1.315 0 0 1-.272-.08.945.945 0 0 0-.144.16.417.417 0 0 0-.048.216c0 .112.045.2.136.264.096.064.264.096.504.096h.696c.474 0 .832.077 1.072.232.245.149.368.395.368.736 0 .256-.086.488-.256.696-.171.213-.414.381-.728.504a3.052 3.052 0 0 1-1.112.184Zm.048-3.56a.643.643 0 0 0 .48-.208c.133-.139.2-.333.2-.584 0-.245-.067-.435-.2-.568a.625.625 0 0 0-.48-.208.665.665 0 0 0-.488.2c-.134.133-.2.325-.2.576 0 .251.066.445.2.584a.65.65 0 0 0 .488.208Zm.096 2.96c.314 0 .57-.064.768-.192.197-.128.296-.275.296-.44 0-.155-.062-.259-.184-.312-.118-.053-.288-.08-.512-.08h-.536c-.214 0-.392-.019-.536-.056-.203.155-.304.328-.304.52 0 .176.09.312.272.408.181.101.426.152.736.152ZM479.38 443v-5.232h1.4c.8 0 1.424.216 1.872.648.448.432.672 1.08.672 1.944 0 .869-.222 1.528-.664 1.976-.443.443-1.054.664-1.832.664h-1.448Zm.928-.752h.408c.528 0 .936-.152 1.224-.456.288-.309.432-.787.432-1.432 0-.64-.144-1.107-.432-1.4-.288-.293-.696-.44-1.224-.44h-.408v3.728Zm4.944.848c-.342 0-.622-.107-.84-.32-.214-.213-.32-.491-.32-.832 0-.421.184-.747.552-.976.368-.235.954-.395 1.76-.48a.95.95 0 0 0-.168-.536c-.102-.155-.286-.232-.552-.232-.192 0-.382.037-.568.112-.182.075-.36.165-.536.272l-.336-.616c.218-.139.464-.259.736-.36.277-.101.57-.152.88-.152.49 0 .856.147 1.096.44.245.288.368.707.368 1.256V443h-.76l-.064-.432h-.032a2.854 2.854 0 0 1-.568.376 1.406 1.406 0 0 1-.648.152Zm.296-.72c.16 0 .304-.037.432-.112.133-.08.274-.187.424-.32v-.88c-.534.069-.904.173-1.112.312-.208.133-.312.299-.312.496 0 .176.053.304.16.384.106.08.242.12.408.12Zm2.877.624v-3.928h.76l.064.528h.032c.176-.171.368-.317.576-.44a1.37 1.37 0 0 1 .712-.184c.421 0 .728.136.92.408.192.272.288.656.288 1.152V443h-.92v-2.344c0-.325-.048-.555-.144-.688-.096-.133-.254-.2-.472-.2a.829.829 0 0 0-.456.128c-.128.08-.275.2-.44.36V443h-.92Zm5.844 1.736a2.93 2.93 0 0 1-.84-.112 1.293 1.293 0 0 1-.584-.344.805.805 0 0 1-.208-.568c0-.325.187-.605.56-.84v-.032a.845.845 0 0 1-.256-.256.767.767 0 0 1-.096-.4c0-.155.043-.293.128-.416a1.31 1.31 0 0 1 .304-.312v-.032a1.449 1.449 0 0 1-.36-.424 1.245 1.245 0 0 1-.152-.616c0-.304.072-.56.216-.768a1.37 1.37 0 0 1 .568-.472c.24-.112.496-.168.768-.168.107 0 .208.011.304.032.102.016.192.037.272.064h1.408v.68h-.72a.917.917 0 0 1 .16.288c.043.112.064.237.064.376 0 .288-.066.533-.2.736a1.257 1.257 0 0 1-.536.448 1.807 1.807 0 0 1-1.016.128 1.352 1.352 0 0 1-.272-.08 1.04 1.04 0 0 0-.144.16.417.417 0 0 0-.048.216c0 .112.046.2.136.264.096.064.264.096.504.096h.696c.475 0 .832.077 1.072.232.246.149.368.395.368.736 0 .256-.085.488-.256.696-.17.213-.413.381-.728.504-.314.123-.685.184-1.112.184Zm.048-3.56a.64.64 0 0 0 .48-.208c.134-.139.2-.333.2-.584 0-.245-.066-.435-.2-.568a.625.625 0 0 0-.48-.208.666.666 0 0 0-.488.2c-.133.133-.2.325-.2.576 0 .251.067.445.2.584a.651.651 0 0 0 .488.208Zm.096 2.96c.315 0 .571-.064.768-.192.198-.128.296-.275.296-.44 0-.155-.061-.259-.184-.312-.117-.053-.288-.08-.512-.08h-.536c-.213 0-.392-.019-.536-.056-.202.155-.304.328-.304.52 0 .176.091.312.272.408.182.101.427.152.736.152Zm4.2-1.04c-.363 0-.691-.08-.984-.24a1.792 1.792 0 0 1-.696-.704c-.171-.309-.256-.68-.256-1.112 0-.427.085-.795.256-1.104.176-.309.402-.547.68-.712a1.68 1.68 0 0 1 .872-.248c.357 0 .656.08.896.24.24.155.421.373.544.656.122.277.184.6.184.968 0 .192-.014.341-.04.448h-2.496c.042.347.168.616.376.808.208.192.469.288.784.288.17 0 .328-.024.472-.072.149-.053.296-.125.44-.216l.312.576a2.824 2.824 0 0 1-.624.304c-.23.08-.47.12-.72.12Zm-1.048-2.432h1.744c0-.304-.067-.541-.2-.712-.134-.176-.334-.264-.6-.264a.872.872 0 0 0-.616.256c-.176.165-.286.405-.328.72Zm3.422 2.336v-3.928h.76l.064.696h.032c.139-.256.307-.451.504-.584.198-.139.4-.208.608-.208.187 0 .336.027.448.08l-.16.8a1.191 1.191 0 0 0-.408-.064c-.154 0-.317.061-.488.184-.17.117-.317.325-.44.624v2.4h-.92Z"/>
  <clipPath id="_clip1">
    <path d="M85.538 18.85h486v405h-486z"/>
  </clipPath>
  <g fill="none" stroke="var(--colors-neutral-500-neutral, #737373)" stroke-width=".8" clip-path="url(#_clip1)">
    <path stroke-dasharray="3.04 3.04" d="M85.538 99.85h486m-486 81h486m-486 81h486m-486 81h486"/>
    <path d="M85.538 423.85h486"/>
  </g>
  <path fill="var(--control-color-border-400-border, #3E3D3D)" fill-rule="nonzero" d="M85.538 423.85h-.4v.4h.4v-.4Zm486-.4h-486v.8h486v-.8Zm-485.6.4v-405h-.8v405h.8Z"/>
  <path fill="var(--control-color-surface-accent-surface, #5985FF)" d="M178.688 35.05c0-6.705-5.444-12.15-12.15-12.15s-12.15 5.445-12.15 12.15c0 6.706 5.444 12.15 12.15 12.15s12.15-5.444 12.15-12.15Z"/>
  <path fill="var(--control-color-text-negative-text,#222);" fill-rule="nonzero" d="M159.964 37.996a2.703 2.703 0 0 1-1.888-.768l.544-.632c.187.176.4.32.64.432.24.107.48.16.72.16.299 0 .525-.061.68-.184a.59.59 0 0 0 .232-.488c0-.218-.077-.376-.232-.472a4.087 4.087 0 0 0-.576-.296l-.72-.312a2.734 2.734 0 0 1-.504-.288 1.467 1.467 0 0 1-.4-.448 1.328 1.328 0 0 1-.152-.656c0-.277.075-.525.224-.744.155-.224.363-.4.624-.528.267-.133.571-.2.912-.2a2.2 2.2 0 0 1 .88.184c.283.118.525.278.728.48l-.472.592a2.127 2.127 0 0 0-.528-.328 1.49 1.49 0 0 0-.608-.12c-.245 0-.445.056-.6.168a.52.52 0 0 0-.224.448c0 .134.037.246.112.336.08.086.184.16.312.224.128.059.264.118.408.176l.712.296c.309.134.563.31.76.528.197.214.296.51.296.888 0 .283-.075.542-.224.776a1.606 1.606 0 0 1-.648.568c-.277.139-.613.208-1.008.208Zm4.359 0c-.325 0-.629-.08-.912-.24a1.9 1.9 0 0 1-.688-.704c-.176-.309-.264-.68-.264-1.112 0-.437.088-.808.264-1.112.176-.309.406-.544.688-.704a1.78 1.78 0 0 1 .912-.248c.331 0 .638.083.92.248.283.16.512.395.688.704.176.304.264.675.264 1.112 0 .432-.088.803-.264 1.112a1.892 1.892 0 0 1-.688.704c-.282.16-.589.24-.92.24Zm0-.752c.288 0 .515-.12.68-.36.166-.24.248-.554.248-.944 0-.394-.082-.712-.248-.952a.782.782 0 0 0-.68-.36.784.784 0 0 0-.68.36c-.16.24-.24.558-.24.952 0 .39.08.704.24.944.166.24.392.36.68.36Zm3.679.752c-.325 0-.557-.098-.696-.296-.133-.197-.2-.466-.2-.808v-4.64h.92v4.688c0 .112.021.192.064.24a.19.19 0 0 0 .136.064h.056c.021-.005.051-.01.088-.016l.12.688a1.44 1.44 0 0 1-.488.08Zm1.276-.096v-3.928h.92V37.9h-.92Zm.464-4.616a.558.558 0 0 1-.4-.144.505.505 0 0 1-.152-.384c0-.154.051-.28.152-.376a.558.558 0 0 1 .4-.144c.165 0 .299.048.4.144a.496.496 0 0 1 .152.376c0 .16-.051.288-.152.384a.558.558 0 0 1-.4.144Zm3.006 4.712c-.491 0-.883-.181-1.176-.544-.294-.362-.44-.866-.44-1.512 0-.426.077-.794.232-1.104.16-.309.368-.546.624-.712.256-.165.525-.248.808-.248.224 0 .413.04.568.12.16.075.314.179.464.312l-.032-.632v-1.424h.92V37.9h-.76l-.064-.424h-.032a2.07 2.07 0 0 1-.504.368 1.278 1.278 0 0 1-.608.152Zm.224-.76c.293 0 .568-.146.824-.44v-1.832a1.223 1.223 0 0 0-.4-.256 1.178 1.178 0 0 0-.4-.072c-.251 0-.467.115-.648.344-.176.224-.264.542-.264.952 0 .422.077.744.232.968a.75.75 0 0 0 .656.336Z"/>
  <path fill="none" stroke="var(--control-color-surface-accent-surface, #5985FF)" stroke-width=".8" d="M178.288 35.05c0-6.485-5.265-11.75-11.75-11.75s-11.75 5.265-11.75 11.75 5.265 11.75 11.75 11.75 11.75-5.265 11.75-11.75Z"/>
  <path fill="var(--control-color-surface-300-surface, #D5D5D5)" d="M267.788 217.301c0-11.176-9.074-20.25-20.25-20.25s-20.25 9.074-20.25 20.25 9.074 20.25 20.25 20.25 20.25-9.074 20.25-20.25Z"/>
  <path fill="var(--control-color-text-base-text, #222)" fill-rule="nonzero" d="M240.964 220.147a2.696 2.696 0 0 1-1.888-.768l.544-.632c.187.176.4.32.64.432.24.106.48.16.72.16.299 0 .525-.062.68-.184a.592.592 0 0 0 .232-.488c0-.219-.077-.376-.232-.472a3.983 3.983 0 0 0-.576-.296l-.72-.312a2.854 2.854 0 0 1-.504-.288 1.49 1.49 0 0 1-.4-.448 1.331 1.331 0 0 1-.152-.656c0-.278.075-.526.224-.744.155-.224.363-.4.624-.528.267-.134.571-.2.912-.2.304 0 .597.061.88.184.283.117.525.277.728.48l-.472.592a2.098 2.098 0 0 0-.528-.328 1.49 1.49 0 0 0-.608-.12c-.245 0-.445.056-.6.168a.52.52 0 0 0-.224.448.51.51 0 0 0 .112.336c.08.085.184.16.312.224.128.058.264.117.408.176l.712.296c.309.133.563.309.76.528.197.213.296.509.296.888 0 .282-.075.541-.224.776a1.614 1.614 0 0 1-.648.568c-.277.138-.613.208-1.008.208Zm4.359 0c-.325 0-.629-.08-.912-.24a1.907 1.907 0 0 1-.688-.704c-.176-.31-.264-.68-.264-1.112 0-.438.088-.808.264-1.112a1.82 1.82 0 0 1 .688-.704c.283-.166.587-.248.912-.248.331 0 .638.082.92.248.283.16.512.394.688.704.176.304.264.674.264 1.112 0 .432-.088.802-.264 1.112a1.899 1.899 0 0 1-.688.704c-.282.16-.589.24-.92.24Zm0-.752c.288 0 .515-.12.68-.36.166-.24.248-.555.248-.944 0-.395-.082-.712-.248-.952a.782.782 0 0 0-.68-.36.784.784 0 0 0-.68.36c-.16.24-.24.557-.24.952 0 .389.08.704.24.944.166.24.392.36.68.36Zm3.679.752c-.325 0-.557-.099-.696-.296-.133-.198-.2-.467-.2-.808v-4.64h.92v4.688c0 .112.021.192.064.24a.194.194 0 0 0 .136.064h.056a.682.682 0 0 1 .088-.016l.12.688a1.44 1.44 0 0 1-.488.08Zm1.276-.096v-3.928h.92v3.928h-.92Zm.464-4.616a.558.558 0 0 1-.4-.144.505.505 0 0 1-.152-.384c0-.155.051-.28.152-.376a.558.558 0 0 1 .4-.144c.165 0 .299.048.4.144a.495.495 0 0 1 .152.376c0 .16-.051.288-.152.384a.558.558 0 0 1-.4.144Zm3.006 4.712c-.491 0-.883-.182-1.176-.544-.294-.363-.44-.867-.44-1.512 0-.427.077-.795.232-1.104.16-.31.368-.547.624-.712a1.46 1.46 0 0 1 .808-.248c.224 0 .413.04.568.12.16.074.314.178.464.312l-.032-.632v-1.424h.92v5.648h-.76l-.064-.424h-.032a2.097 2.097 0 0 1-.504.368 1.29 1.29 0 0 1-.608.152Zm.224-.76c.293 0 .568-.147.824-.44v-1.832a1.207 1.207 0 0 0-.4-.256 1.178 1.178 0 0 0-.4-.072c-.251 0-.467.114-.648.344-.176.224-.264.541-.264.952 0 .421.077.744.232.968a.75.75 0 0 0 .656.336Z"/>
  <path fill="none" stroke="var(--control-color-surface-300-surface, #D5D5D5)" stroke-width=".8" d="M267.388 217.301c0-10.956-8.894-19.85-19.85-19.85-10.956 0-19.85 8.894-19.85 19.85 0 10.956 8.894 19.85 19.85 19.85 10.956 0 19.85-8.894 19.85-19.85Z"/>
  <path fill="var(--colors-base-danger, #FF575C)" d="M502.288 35.05c0-6.485-5.265-11.75-11.75-11.75s-11.75 5.265-11.75 11.75 5.265 11.75 11.75 11.75 11.75-5.265 11.75-11.75Z"/>
  <path fill="var(--control-color-state-danger-font-default-state, #222)" fill-rule="nonzero" d="M483.964 38.059a2.68 2.68 0 0 1-1.888-.768l.544-.632c.187.176.4.32.64.432.24.107.48.16.72.16.299 0 .525-.061.68-.184a.59.59 0 0 0 .232-.488c0-.219-.077-.376-.232-.472a3.983 3.983 0 0 0-.576-.296l-.72-.312a2.854 2.854 0 0 1-.504-.288 1.478 1.478 0 0 1-.4-.448 1.328 1.328 0 0 1-.152-.656c0-.277.075-.525.224-.744.155-.224.363-.4.624-.528.267-.133.571-.2.912-.2.304 0 .597.061.88.184.283.117.525.277.728.48l-.472.592a2.098 2.098 0 0 0-.528-.328 1.49 1.49 0 0 0-.608-.12c-.245 0-.445.056-.6.168a.52.52 0 0 0-.224.448.51.51 0 0 0 .112.336c.08.085.184.16.312.224.128.059.264.117.408.176l.712.296c.309.133.563.309.76.528.197.213.296.509.296.888 0 .283-.075.541-.224.776a1.606 1.606 0 0 1-.648.568c-.277.139-.613.208-1.008.208Zm4.359 0c-.325 0-.629-.08-.912-.24a1.9 1.9 0 0 1-.688-.704c-.176-.309-.264-.68-.264-1.112 0-.437.088-.808.264-1.112.176-.309.406-.544.688-.704a1.78 1.78 0 0 1 .912-.248c.331 0 .638.083.92.248.283.16.512.395.688.704.176.304.264.675.264 1.112 0 .432-.088.803-.264 1.112a1.892 1.892 0 0 1-.688.704c-.282.16-.589.24-.92.24Zm0-.752c.288 0 .515-.12.68-.36.166-.24.248-.555.248-.944 0-.395-.082-.712-.248-.952a.782.782 0 0 0-.68-.36.784.784 0 0 0-.68.36c-.16.24-.24.557-.24.952 0 .389.08.704.24.944.166.24.392.36.68.36Zm3.679.752c-.325 0-.557-.099-.696-.296-.133-.197-.2-.467-.2-.808v-4.64h.92v4.688c0 .112.021.192.064.24a.19.19 0 0 0 .136.064h.056a.916.916 0 0 1 .088-.016l.12.688a1.44 1.44 0 0 1-.488.08Zm1.276-.096v-3.928h.92v3.928h-.92Zm.464-4.616a.556.556 0 0 1-.4-.144.502.502 0 0 1-.152-.384c0-.155.05-.28.152-.376a.556.556 0 0 1 .4-.144.56.56 0 0 1 .4.144.495.495 0 0 1 .152.376c0 .16-.051.288-.152.384a.56.56 0 0 1-.4.144Zm3.006 4.712c-.491 0-.883-.181-1.176-.544-.294-.363-.44-.867-.44-1.512 0-.427.077-.795.232-1.104.16-.309.368-.547.624-.712.256-.165.525-.248.808-.248.224 0 .413.04.568.12.16.075.314.179.464.312l-.032-.632v-1.424h.92v5.648h-.76l-.064-.424h-.032a2.07 2.07 0 0 1-.504.368 1.29 1.29 0 0 1-.608.152Zm.224-.76c.293 0 .568-.147.824-.44v-1.832a1.207 1.207 0 0 0-.4-.256 1.178 1.178 0 0 0-.4-.072c-.251 0-.467.115-.648.344-.176.224-.264.541-.264.952 0 .421.077.744.232.968a.75.75 0 0 0 .656.336Z"/>
  <path fill="none" stroke="var(--colors-base-danger, #FF575C)" stroke-width=".8" d="M502.288 35.05c0-6.485-5.265-11.75-11.75-11.75s-11.75 5.265-11.75 11.75 5.265 11.75 11.75 11.75 11.75-5.265 11.75-11.75Z"/>
  <path fill="var(--colors-base-success, #70E09D)" d="M344.337 99.85c0-8.72-7.08-15.8-15.8-15.8s-15.8 7.08-15.8 15.8c0 8.721 7.08 15.8 15.8 15.8s15.8-7.079 15.8-15.8Z"/>
  <path fill="var(--control-color-state-warning-font-default-state, #222)" fill-rule="nonzero" d="M321.964 102.746a2.699 2.699 0 0 1-1.888-.768l.544-.632c.186.176.4.32.64.432.24.107.48.16.72.16.298 0 .525-.061.68-.184a.592.592 0 0 0 .232-.488c0-.218-.078-.376-.232-.472a4.201 4.201 0 0 0-.576-.296l-.72-.312a2.734 2.734 0 0 1-.504-.288 1.454 1.454 0 0 1-.4-.448 1.318 1.318 0 0 1-.152-.656c0-.277.074-.525.224-.744.154-.224.362-.4.624-.528.266-.133.57-.2.912-.2a2.2 2.2 0 0 1 .88.184c.282.118.525.278.728.48l-.472.592a2.164 2.164 0 0 0-.528-.328 1.493 1.493 0 0 0-.608-.12c-.246 0-.446.056-.6.168a.518.518 0 0 0-.224.448c0 .134.037.246.112.336.08.086.184.16.312.224.128.059.264.118.408.176l.712.296c.309.134.562.31.76.528.197.214.296.51.296.888 0 .283-.075.542-.224.776a1.62 1.62 0 0 1-.648.568c-.278.139-.614.208-1.008.208Zm4.359 0c-.325 0-.629-.08-.912-.24a1.892 1.892 0 0 1-.688-.704c-.176-.309-.264-.68-.264-1.112 0-.437.088-.808.264-1.112a1.82 1.82 0 0 1 .688-.704 1.78 1.78 0 0 1 .912-.248c.331 0 .637.083.92.248.283.16.512.395.688.704.176.304.264.675.264 1.112 0 .432-.088.803-.264 1.112a1.892 1.892 0 0 1-.688.704c-.283.16-.589.24-.92.24Zm0-.752c.288 0 .515-.12.68-.36.165-.24.248-.554.248-.944 0-.394-.083-.712-.248-.952a.782.782 0 0 0-.68-.36.782.782 0 0 0-.68.36c-.16.24-.24.558-.24.952 0 .39.08.704.24.944.165.24.392.36.68.36Zm3.679.752c-.326 0-.558-.098-.696-.296-.134-.197-.2-.466-.2-.808v-4.64h.92v4.688c0 .112.021.192.064.24a.189.189 0 0 0 .136.064h.056c.021-.005.05-.01.088-.016l.12.688a1.447 1.447 0 0 1-.488.08Zm1.275-.096v-3.928h.92v3.928h-.92Zm.464-4.616a.56.56 0 0 1-.4-.144.505.505 0 0 1-.152-.384c0-.154.051-.28.152-.376a.56.56 0 0 1 .4-.144c.166 0 .299.048.4.144a.493.493 0 0 1 .152.376c0 .16-.05.288-.152.384a.556.556 0 0 1-.4.144Zm3.006 4.712c-.49 0-.882-.181-1.176-.544-.293-.362-.44-.866-.44-1.512 0-.426.078-.794.232-1.104.16-.309.368-.546.624-.712a1.47 1.47 0 0 1 .808-.248c.224 0 .414.04.568.12.16.075.315.179.464.312l-.032-.632v-1.424h.92v5.648h-.76l-.064-.424h-.032a2.07 2.07 0 0 1-.504.368 1.275 1.275 0 0 1-.608.152Zm.224-.76c.294 0 .568-.146.824-.44v-1.832a1.203 1.203 0 0 0-.4-.256 1.17 1.17 0 0 0-.4-.072c-.25 0-.466.115-.648.344-.176.224-.264.542-.264.952 0 .422.078.744.232.968a.752.752 0 0 0 .656.336Z"/>
  <path fill="none" stroke="var(--colors-base-success, #70E09D)" stroke-width=".8" d="M344.337 99.85c0-8.72-7.08-15.8-15.8-15.8s-15.8 7.08-15.8 15.8c0 8.721 7.08 15.8 15.8 15.8s15.8-7.079 15.8-15.8Z"/>
  <path fill="var(--colors-base-warning, #FEDA42)" d="M425.337 75.55c0-8.721-7.08-15.8-15.8-15.8s-15.8 7.079-15.8 15.8c0 8.72 7.08 15.8 15.8 15.8s15.8-7.08 15.8-15.8Z"/>
  <path fill="var(--control-color-state-warning-font-default-state, #222)" fill-rule="nonzero" d="M402.964 78.508a2.68 2.68 0 0 1-1.888-.768l.544-.632c.187.176.4.32.64.432.24.107.48.16.72.16.299 0 .525-.061.68-.184a.59.59 0 0 0 .232-.488c0-.219-.077-.376-.232-.472a3.983 3.983 0 0 0-.576-.296l-.72-.312a2.854 2.854 0 0 1-.504-.288 1.478 1.478 0 0 1-.4-.448 1.328 1.328 0 0 1-.152-.656c0-.277.075-.525.224-.744.155-.224.363-.4.624-.528.267-.133.571-.2.912-.2.304 0 .597.061.88.184.283.117.525.277.728.48l-.472.592a2.098 2.098 0 0 0-.528-.328 1.49 1.49 0 0 0-.608-.12c-.245 0-.445.056-.6.168a.52.52 0 0 0-.224.448.51.51 0 0 0 .112.336c.08.085.184.16.312.224.128.059.264.117.408.176l.712.296c.309.133.563.309.76.528.197.213.296.509.296.888 0 .283-.075.541-.224.776a1.606 1.606 0 0 1-.648.568c-.277.139-.613.208-1.008.208Zm4.359 0c-.325 0-.629-.08-.912-.24a1.9 1.9 0 0 1-.688-.704c-.176-.309-.264-.68-.264-1.112 0-.437.088-.808.264-1.112.176-.309.406-.544.688-.704a1.78 1.78 0 0 1 .912-.248c.331 0 .638.083.92.248.283.16.512.395.688.704.176.304.264.675.264 1.112 0 .432-.088.803-.264 1.112a1.892 1.892 0 0 1-.688.704c-.282.16-.589.24-.92.24Zm0-.752c.288 0 .515-.12.68-.36.166-.24.248-.555.248-.944 0-.395-.082-.712-.248-.952a.782.782 0 0 0-.68-.36.784.784 0 0 0-.68.36c-.16.24-.24.557-.24.952 0 .389.08.704.24.944.166.24.392.36.68.36Zm3.679.752c-.325 0-.557-.099-.696-.296-.133-.197-.2-.467-.2-.808v-4.64h.92v4.688c0 .112.021.192.064.24a.19.19 0 0 0 .136.064h.056a.916.916 0 0 1 .088-.016l.12.688a1.44 1.44 0 0 1-.488.08Zm1.276-.096v-3.928h.92v3.928h-.92Zm.464-4.616a.558.558 0 0 1-.4-.144.505.505 0 0 1-.152-.384c0-.155.051-.28.152-.376a.558.558 0 0 1 .4-.144c.165 0 .299.048.4.144a.495.495 0 0 1 .152.376c0 .16-.051.288-.152.384a.558.558 0 0 1-.4.144Zm3.006 4.712c-.491 0-.883-.181-1.176-.544-.294-.363-.44-.867-.44-1.512 0-.427.077-.795.232-1.104.16-.309.368-.547.624-.712.256-.165.525-.248.808-.248.224 0 .413.04.568.12.16.075.314.179.464.312l-.032-.632v-1.424h.92v5.648h-.76l-.064-.424h-.032a2.07 2.07 0 0 1-.504.368 1.29 1.29 0 0 1-.608.152Zm.224-.76c.293 0 .568-.147.824-.44v-1.832a1.207 1.207 0 0 0-.4-.256 1.178 1.178 0 0 0-.4-.072c-.251 0-.467.115-.648.344-.176.224-.264.541-.264.952 0 .421.077.744.232.968a.75.75 0 0 0 .656.336Z"/>
  <path fill="none" stroke="var(--colors-base-warning, #FEDA42)" stroke-width=".8" d="M425.337 75.55c0-8.721-7.08-15.8-15.8-15.8s-15.8 7.079-15.8 15.8c0 8.72 7.08 15.8 15.8 15.8s15.8-7.08 15.8-15.8Z"/>
  <path fill="var(--control-color-surface-base-surface, #FFF)" d="M186.788 326.65c0-11.176-9.074-20.25-20.25-20.25s-20.25 9.074-20.25 20.25 9.074 20.25 20.25 20.25 20.25-9.074 20.25-20.25Z"/>
  <path fill="var(--control-color-surface-accent-surface, #5985FF)" fill-rule="nonzero" d="M159.819 329.4v-5.232h.928v4.448h2.176v.784h-3.104Zm3.935 0v-3.928h.92v3.928h-.92Zm.464-4.616a.56.56 0 0 1-.4-.144.505.505 0 0 1-.152-.384c0-.154.051-.28.152-.376a.56.56 0 0 1 .4-.144c.166 0 .299.048.4.144a.493.493 0 0 1 .152.376c0 .16-.05.288-.152.384a.556.556 0 0 1-.4.144Zm1.63 4.616v-3.928h.76l.064.528h.032c.176-.17.368-.317.576-.44a1.38 1.38 0 0 1 .712-.184c.421 0 .728.136.92.408.192.272.288.656.288 1.152v2.464h-.92v-2.344c0-.325-.048-.554-.144-.688-.096-.133-.253-.2-.472-.2a.829.829 0 0 0-.456.128c-.128.08-.275.2-.44.36v2.744h-.92Zm4.477 0v-5.648h.904v3.528h.024l1.456-1.808h1.008l-1.344 1.6 1.48 2.328h-1l-1.008-1.704-.616.704v1h-.904Zm-11.17.6h14.762v.4h-14.762z"/>
  <path fill="none" stroke="var(--control-color-border-200-border, #D5D5D5)" stroke-width=".8" d="M186.388 326.65c0-10.956-8.894-19.85-19.85-19.85-10.956 0-19.85 8.894-19.85 19.85 0 10.956 8.894 19.85 19.85 19.85 10.956 0 19.85-8.894 19.85-19.85Z"/>
  <path fill="var(--control-color-surface-base-surface, #FFF)" d="M279.938 387.4c0-17.882-14.518-32.4-32.4-32.4-17.882 0-32.4 14.518-32.4 32.4 0 17.882 14.518 32.4 32.4 32.4 17.882 0 32.4-14.518 32.4-32.4Z"/>
  <path fill="var(--control-color-text-base-text, #222)" fill-rule="nonzero" d="M240.819 390v-5.232h.928v4.448h2.176V390h-3.104Zm3.935 0v-3.928h.92V390h-.92Zm.464-4.616a.56.56 0 0 1-.4-.144.505.505 0 0 1-.152-.384c0-.155.051-.28.152-.376a.56.56 0 0 1 .4-.144c.166 0 .299.048.4.144a.491.491 0 0 1 .152.376c0 .16-.05.288-.152.384a.556.556 0 0 1-.4.144Zm1.63 4.616v-3.928h.76l.064.528h.032c.176-.171.368-.317.576-.44a1.37 1.37 0 0 1 .712-.184c.421 0 .728.136.92.408.192.272.288.656.288 1.152V390h-.92v-2.344c0-.325-.048-.555-.144-.688-.096-.133-.253-.2-.472-.2a.829.829 0 0 0-.456.128c-.128.08-.275.2-.44.36V390h-.92Zm4.477 0v-5.648h.904v3.528h.024l1.456-1.808h1.008l-1.344 1.6 1.48 2.328h-1l-1.008-1.704-.616.704v1h-.904Zm-11.17.6h14.762v.4h-14.762z"/>
  <path fill="none" stroke="var(--control-color-surface-300-surface, #D5D5D5)" stroke-width=".8" d="M279.538 387.4c0-17.661-14.339-32-32-32s-32 14.339-32 32 14.339 32 32 32 32-14.339 32-32Z"/>
  <path fill="var(--control-color-surface-base-surface, #FFF)" d="M510.788 342.85c0-11.176-9.074-20.25-20.25-20.25s-20.25 9.074-20.25 20.25 9.074 20.25 20.25 20.25 20.25-9.074 20.25-20.25Z"/>
  <path fill="var(--colors-danger-500-danger, #C73434)" fill-rule="nonzero" d="M483.819 345.6v-5.232h.928v4.448h2.176v.784h-3.104Zm3.935 0v-3.928h.92v3.928h-.92Zm.464-4.616a.56.56 0 0 1-.4-.144.505.505 0 0 1-.152-.384c0-.155.051-.28.152-.376a.56.56 0 0 1 .4-.144c.166 0 .299.048.4.144a.491.491 0 0 1 .152.376c0 .16-.05.288-.152.384a.556.556 0 0 1-.4.144Zm1.63 4.616v-3.928h.76l.064.528h.032c.176-.171.368-.318.576-.44a1.37 1.37 0 0 1 .712-.184c.421 0 .728.136.92.408.192.272.288.656.288 1.152v2.464h-.92v-2.344c0-.326-.048-.555-.144-.688-.096-.134-.253-.2-.472-.2a.82.82 0 0 0-.456.128c-.128.08-.275.2-.44.36v2.744h-.92Zm4.477 0v-5.648h.904v3.528h.024l1.456-1.808h1.008l-1.344 1.6 1.48 2.328h-1l-1.008-1.704-.616.704v1h-.904Zm-11.17.6h14.762v.4h-14.762z"/>
  <path fill="none" stroke="var(--control-color-border-200-border, #D5D5D5)" stroke-width=".8" d="M510.388 342.85c0-10.956-8.894-19.85-19.85-19.85-10.956 0-19.85 8.894-19.85 19.85 0 10.956 8.894 19.85 19.85 19.85 10.956 0 19.85-8.894 19.85-19.85Z"/>
  <path fill="var(--control-color-surface-base-surface, #FFF)" d="M354.862 381.325c0-14.529-11.796-26.325-26.325-26.325s-26.325 11.796-26.325 26.325 11.796 26.325 26.325 26.325 26.325-11.796 26.325-26.325Z"/>
  <path fill="var(--colors-success-500-success, #28854E)" fill-rule="nonzero" d="M321.819 384v-5.232h.928v4.448h2.176V384h-3.104Zm3.936 0v-3.928h.92V384h-.92Zm.464-4.616a.556.556 0 0 1-.4-.144.502.502 0 0 1-.152-.384c0-.155.05-.28.152-.376a.556.556 0 0 1 .4-.144.56.56 0 0 1 .4.144.495.495 0 0 1 .152.376c0 .16-.051.288-.152.384a.56.56 0 0 1-.4.144Zm1.629 4.616v-3.928h.76l.064.528h.032c.176-.171.368-.317.576-.44.208-.123.446-.184.712-.184.422 0 .728.136.92.408.192.272.288.656.288 1.152V384h-.92v-2.344c0-.325-.048-.555-.144-.688-.096-.133-.253-.2-.472-.2a.834.834 0 0 0-.456.128c-.128.08-.274.2-.44.36V384h-.92Zm4.477 0v-5.648h.904v3.528h.024l1.456-1.808h1.008l-1.344 1.6 1.48 2.328h-1l-1.008-1.704-.616.704v1h-.904Zm-11.17.6h14.762v.4h-14.762z"/>
  <path fill="none" stroke="var(--control-color-border-200-border, #D5D5D5)" stroke-width=".8" d="M354.462 381.325c0-14.308-11.617-25.925-25.925-25.925s-25.925 11.617-25.925 25.925 11.617 25.925 25.925 25.925 25.925-11.617 25.925-25.925Z"/>
  <path fill="var(--control-color-surface-base-surface, #FFF)" d="M433.838 359.05c0-13.412-10.888-24.3-24.3-24.3s-24.3 10.888-24.3 24.3 10.888 24.3 24.3 24.3 24.3-10.888 24.3-24.3Z"/>
  <path fill="var(--colors-warning-500-warning, #AE830E)" fill-rule="nonzero" d="M402.819 361.75v-5.232h.928v4.448h2.176v.784h-3.104Zm3.936 0v-3.928h.92v3.928h-.92Zm.464-4.616a.556.556 0 0 1-.4-.144.502.502 0 0 1-.152-.384c0-.155.05-.28.152-.376a.556.556 0 0 1 .4-.144.56.56 0 0 1 .4.144.495.495 0 0 1 .152.376c0 .16-.051.288-.152.384a.56.56 0 0 1-.4.144Zm1.629 4.616v-3.928h.76l.064.528h.032c.176-.171.368-.317.576-.44.208-.123.446-.184.712-.184.422 0 .728.136.92.408.192.272.288.656.288 1.152v2.464h-.92v-2.344c0-.325-.048-.555-.144-.688-.096-.133-.253-.2-.472-.2a.834.834 0 0 0-.456.128c-.128.08-.274.2-.44.36v2.744h-.92Zm4.477 0v-5.648h.904v3.528h.024l1.456-1.808h1.008l-1.344 1.6 1.48 2.328h-1l-1.008-1.704-.616.704v1h-.904Zm-11.17.6h14.762v.4h-14.762z"/>
  <path fill="none" stroke="var(--control-color-border-200-border, #D5D5D5)" stroke-width=".8" d="M433.438 359.05c0-13.191-10.709-23.9-23.9-23.9-13.191 0-23.9 10.709-23.9 23.9 0 13.191 10.709 23.9 23.9 23.9 13.191 0 23.9-10.709 23.9-23.9Z"/>
  <path fill="var(--control-color-surface-base-surface, #FFF)" d="M182.337 112.001c0-8.72-7.08-15.8-15.8-15.8s-15.8 7.08-15.8 15.8 7.08 15.8 15.8 15.8 15.8-7.08 15.8-15.8Z"/>
  <path fill="var(--control-color-text-base-text, #222)" fill-rule="nonzero" d="M156.472 114.897c-.454 0-.854-.11-1.2-.328a2.28 2.28 0 0 1-.816-.944c-.192-.411-.288-.899-.288-1.464 0-.566.096-1.048.288-1.448.197-.4.469-.707.816-.92.346-.214.746-.32 1.2-.32.458 0 .861.106 1.208.32.346.213.616.52.808.92.197.4.296.882.296 1.448 0 .565-.099 1.053-.296 1.464-.192.405-.462.72-.808.944-.347.218-.75.328-1.208.328Zm0-.808c.41 0 .738-.174.984-.52.245-.352.368-.822.368-1.408 0-.587-.123-1.046-.368-1.376a1.16 1.16 0 0 0-.984-.504c-.411 0-.739.168-.984.504-.246.33-.368.789-.368 1.376 0 .586.122 1.056.368 1.408.245.346.573.52.984.52Zm4.446.808c-.421 0-.728-.136-.92-.408-.192-.272-.288-.656-.288-1.152v-2.464h.92v2.344c0 .325.048.554.144.688.096.133.251.2.464.2a.79.79 0 0 0 .448-.128c.134-.086.275-.224.424-.416v-2.688h.92v3.928h-.752l-.072-.576h-.024c-.17.202-.357.365-.56.488a1.336 1.336 0 0 1-.704.184Zm4.662 0c-.454 0-.776-.131-.968-.392-.187-.267-.28-.611-.28-1.032v-1.872h-.56v-.688l.608-.04.112-1.072h.768v1.072h1v.728h-1v1.872c0 .458.184.688.552.688.069 0 .141-.008.216-.024.074-.022.138-.043.192-.064l.16.68a2.75 2.75 0 0 1-.368.096 1.856 1.856 0 0 1-.432.048Zm2.402 0c-.325 0-.557-.099-.696-.296-.133-.198-.2-.467-.2-.808v-4.64h.92v4.688c0 .112.022.192.064.24a.194.194 0 0 0 .136.064h.056a.717.717 0 0 1 .088-.016l.12.688a1.44 1.44 0 0 1-.488.08Zm1.276-.096v-3.928h.92v3.928h-.92Zm.464-4.616a.56.56 0 0 1-.4-.144.505.505 0 0 1-.152-.384c0-.155.051-.28.152-.376a.56.56 0 0 1 .4-.144c.166 0 .299.048.4.144a.491.491 0 0 1 .152.376c0 .16-.05.288-.152.384a.556.556 0 0 1-.4.144Zm1.63 4.616v-3.928h.76l.064.528h.032c.176-.171.368-.318.576-.44a1.37 1.37 0 0 1 .712-.184c.421 0 .728.136.92.408.192.272.288.656.288 1.152v2.464h-.92v-2.344c0-.326-.048-.555-.144-.688-.096-.134-.253-.2-.472-.2a.82.82 0 0 0-.456.128c-.128.08-.275.2-.44.36v2.744h-.92Zm6.157.096c-.363 0-.691-.08-.984-.24a1.799 1.799 0 0 1-.696-.704c-.171-.31-.256-.68-.256-1.112 0-.427.085-.795.256-1.104a1.89 1.89 0 0 1 .68-.712 1.67 1.67 0 0 1 .872-.248c.357 0 .656.08.896.24.24.154.421.373.544.656.122.277.184.6.184.968 0 .192-.014.341-.04.448h-2.496c.042.346.168.616.376.808.208.192.469.288.784.288.17 0 .328-.024.472-.072.149-.054.296-.126.44-.216l.312.576a2.87 2.87 0 0 1-.624.304c-.23.08-.47.12-.72.12Zm-1.048-2.432h1.744c0-.304-.067-.542-.2-.712-.134-.176-.334-.264-.6-.264a.872.872 0 0 0-.616.256c-.176.165-.286.405-.328.72Z"/>
  <path fill="none" stroke="var(--control-color-surface-accent-surface, #5985FF)" stroke-width=".8" d="M182.337 112.001c0-8.72-7.08-15.8-15.8-15.8s-15.8 7.08-15.8 15.8 7.08 15.8 15.8 15.8 15.8-7.08 15.8-15.8Z"/>
  <path fill="var(--control-color-surface-base-surface, #FFF)" d="M273.862 267.925c0-14.529-11.796-26.325-26.325-26.325s-26.325 11.796-26.325 26.325 11.796 26.325 26.325 26.325 26.325-11.796 26.325-26.325Z"/>
  <path fill="var(--control-color-text-base-text, #222)" fill-rule="nonzero" d="M237.472 270.696c-.454 0-.854-.11-1.2-.328a2.28 2.28 0 0 1-.816-.944c-.192-.411-.288-.899-.288-1.464 0-.566.096-1.048.288-1.448.197-.4.469-.707.816-.92.346-.214.746-.32 1.2-.32.458 0 .861.106 1.208.32.346.213.616.52.808.92.197.4.296.882.296 1.448 0 .565-.099 1.053-.296 1.464-.192.405-.462.72-.808.944-.347.218-.75.328-1.208.328Zm0-.808c.41 0 .738-.174.984-.52.245-.352.368-.822.368-1.408 0-.587-.123-1.046-.368-1.376a1.16 1.16 0 0 0-.984-.504c-.411 0-.739.168-.984.504-.246.33-.368.789-.368 1.376 0 .586.122 1.056.368 1.408.245.346.573.52.984.52Zm4.446.808c-.421 0-.728-.136-.92-.408-.192-.272-.288-.656-.288-1.152v-2.464h.92v2.344c0 .325.048.554.144.688.096.133.251.2.464.2a.79.79 0 0 0 .448-.128c.134-.086.275-.224.424-.416v-2.688h.92v3.928h-.752l-.072-.576h-.024c-.17.202-.357.365-.56.488a1.336 1.336 0 0 1-.704.184Zm4.662 0c-.454 0-.776-.131-.968-.392-.187-.267-.28-.611-.28-1.032V267.4h-.56v-.688l.608-.04.112-1.072h.768v1.072h1v.728h-1v1.872c0 .458.184.688.552.688.069 0 .141-.008.216-.024.074-.022.138-.043.192-.064l.16.68a2.75 2.75 0 0 1-.368.096 1.856 1.856 0 0 1-.432.048Zm2.402 0c-.325 0-.557-.099-.696-.296-.133-.198-.2-.467-.2-.808v-4.64h.92v4.688c0 .112.022.192.064.24a.194.194 0 0 0 .136.064h.056a.717.717 0 0 1 .088-.016l.12.688a1.44 1.44 0 0 1-.488.08Zm1.276-.096v-3.928h.92v3.928h-.92Zm.464-4.616a.558.558 0 0 1-.4-.144.505.505 0 0 1-.152-.384c0-.155.051-.28.152-.376a.558.558 0 0 1 .4-.144c.165 0 .299.048.4.144a.495.495 0 0 1 .152.376c0 .16-.051.288-.152.384a.558.558 0 0 1-.4.144Zm1.63 4.616v-3.928h.76l.064.528h.032c.176-.171.368-.318.576-.44a1.37 1.37 0 0 1 .712-.184c.421 0 .728.136.92.408.192.272.288.656.288 1.152v2.464h-.92v-2.344c0-.326-.048-.555-.144-.688-.096-.134-.254-.2-.472-.2a.82.82 0 0 0-.456.128c-.128.08-.275.2-.44.36v2.744h-.92Zm6.156.096c-.362 0-.69-.08-.984-.24a1.812 1.812 0 0 1-.696-.704c-.17-.31-.256-.68-.256-1.112 0-.427.086-.795.256-1.104.176-.31.403-.547.68-.712.278-.166.568-.248.872-.248.358 0 .656.08.896.24.24.154.422.373.544.656.123.277.184.6.184.968 0 .192-.013.341-.04.448h-2.496c.043.346.168.616.376.808.208.192.47.288.784.288.171 0 .328-.024.472-.072.15-.054.296-.126.44-.216l.312.576a2.825 2.825 0 0 1-.624.304c-.229.08-.469.12-.72.12Zm-1.048-2.432h1.744c0-.304-.066-.542-.2-.712-.133-.176-.333-.264-.6-.264a.876.876 0 0 0-.616.256c-.176.165-.285.405-.328.72Z"/>
  <path fill="none" stroke="var(--control-color-surface-300-surface, #D5D5D5)" stroke-width=".8" d="M273.462 267.925c0-14.308-11.617-25.925-25.925-25.925s-25.925 11.617-25.925 25.925 11.617 25.925 25.925 25.925 25.925-11.617 25.925-25.925Z"/>
  <path fill="var(--control-color-surface-base-surface, #FFF)" d="M506.737 136.3c0-8.941-7.259-16.2-16.2-16.2-8.941 0-16.2 7.259-16.2 16.2 0 8.941 7.259 16.2 16.2 16.2 8.941 0 16.2-7.259 16.2-16.2Z"/>
  <path fill="var(--control-color-text-base-text, #222)" fill-rule="nonzero" d="M480.472 139.196c-.453 0-.853-.11-1.2-.328a2.28 2.28 0 0 1-.816-.944c-.192-.411-.288-.899-.288-1.464 0-.566.096-1.048.288-1.448.197-.4.469-.707.816-.92.347-.214.747-.32 1.2-.32.459 0 .861.106 1.208.32.347.213.616.52.808.92.197.4.296.882.296 1.448 0 .565-.099 1.053-.296 1.464-.192.405-.461.72-.808.944a2.222 2.222 0 0 1-1.208.328Zm0-.808c.411 0 .739-.174.984-.52.245-.352.368-.822.368-1.408 0-.587-.123-1.046-.368-1.376a1.157 1.157 0 0 0-.984-.504c-.411 0-.739.168-.984.504-.245.33-.368.789-.368 1.376 0 .586.123 1.056.368 1.408.245.346.573.52.984.52Zm4.447.808c-.422 0-.728-.136-.92-.408-.192-.272-.288-.656-.288-1.152v-2.464h.92v2.344c0 .325.048.554.144.688.096.133.25.2.464.2.17 0 .32-.043.448-.128.133-.086.274-.224.424-.416v-2.688h.92v3.928h-.752l-.072-.576h-.024a2.314 2.314 0 0 1-.56.488 1.341 1.341 0 0 1-.704.184Zm4.661 0c-.453 0-.776-.131-.968-.392-.187-.267-.28-.611-.28-1.032V135.9h-.56v-.688l.608-.04.112-1.072h.768v1.072h1v.728h-1v1.872c0 .458.184.688.552.688.069 0 .141-.008.216-.024a2.26 2.26 0 0 0 .192-.064l.16.68a2.71 2.71 0 0 1-.368.096 1.844 1.844 0 0 1-.432.048Zm2.403 0c-.326 0-.558-.099-.696-.296-.134-.198-.2-.467-.2-.808v-4.64h.92v4.688c0 .112.021.192.064.24a.193.193 0 0 0 .136.064h.056a.65.65 0 0 1 .088-.016l.12.688a1.447 1.447 0 0 1-.488.08Zm1.275-.096v-3.928h.92v3.928h-.92Zm.464-4.616a.56.56 0 0 1-.4-.144.505.505 0 0 1-.152-.384c0-.155.051-.28.152-.376a.56.56 0 0 1 .4-.144c.166 0 .299.048.4.144a.491.491 0 0 1 .152.376c0 .16-.05.288-.152.384a.556.556 0 0 1-.4.144Zm1.63 4.616v-3.928h.76l.064.528h.032c.176-.171.368-.318.576-.44a1.37 1.37 0 0 1 .712-.184c.421 0 .728.136.92.408.192.272.288.656.288 1.152v2.464h-.92v-2.344c0-.326-.048-.555-.144-.688-.096-.134-.253-.2-.472-.2a.82.82 0 0 0-.456.128c-.128.08-.275.2-.44.36v2.744h-.92Zm6.157.096c-.363 0-.691-.08-.984-.24a1.799 1.799 0 0 1-.696-.704c-.171-.31-.256-.68-.256-1.112 0-.427.085-.795.256-1.104a1.89 1.89 0 0 1 .68-.712 1.67 1.67 0 0 1 .872-.248c.357 0 .656.08.896.24.24.154.421.373.544.656.122.277.184.6.184.968 0 .192-.014.341-.04.448h-2.496c.042.346.168.616.376.808.208.192.469.288.784.288.17 0 .328-.024.472-.072.149-.054.296-.126.44-.216l.312.576a2.87 2.87 0 0 1-.624.304c-.23.08-.47.12-.72.12Zm-1.048-2.432h1.744c0-.304-.067-.542-.2-.712-.134-.176-.334-.264-.6-.264a.872.872 0 0 0-.616.256c-.176.165-.286.405-.328.72Z"/>
  <path fill="none" stroke="var(--colors-base-danger, #FF575C)" stroke-width=".8" d="M506.337 136.3c0-8.72-7.08-15.8-15.8-15.8s-15.8 7.08-15.8 15.8 7.08 15.8 15.8 15.8 15.8-7.08 15.8-15.8Z"/>
  <path fill="var(--control-color-surface-base-surface, #FFF)" d="M348.388 180.85c0-10.956-8.894-19.85-19.85-19.85-10.956 0-19.85 8.894-19.85 19.85 0 10.956 8.894 19.85 19.85 19.85 10.956 0 19.85-8.894 19.85-19.85Z"/>
  <path fill="var(--control-color-text-base-text, #222)" fill-rule="nonzero" d="M318.472 183.696c-.454 0-.854-.11-1.2-.328a2.28 2.28 0 0 1-.816-.944c-.192-.411-.288-.899-.288-1.464 0-.566.096-1.048.288-1.448.197-.4.469-.707.816-.92.346-.214.746-.32 1.2-.32.458 0 .861.106 1.208.32.346.213.616.52.808.92.197.4.296.882.296 1.448 0 .565-.099 1.053-.296 1.464-.192.405-.462.72-.808.944-.347.218-.75.328-1.208.328Zm0-.808c.41 0 .738-.174.984-.52.245-.352.368-.822.368-1.408 0-.587-.123-1.046-.368-1.376a1.16 1.16 0 0 0-.984-.504c-.411 0-.739.168-.984.504-.246.33-.368.789-.368 1.376 0 .586.122 1.056.368 1.408.245.346.573.52.984.52Zm4.446.808c-.421 0-.728-.136-.92-.408-.192-.272-.288-.656-.288-1.152v-2.464h.92v2.344c0 .325.048.554.144.688.096.133.251.2.464.2a.79.79 0 0 0 .448-.128c.134-.086.275-.224.424-.416v-2.688h.92v3.928h-.752l-.072-.576h-.024c-.17.202-.357.365-.56.488a1.336 1.336 0 0 1-.704.184Zm4.662 0c-.454 0-.776-.131-.968-.392-.187-.267-.28-.611-.28-1.032V180.4h-.56v-.688l.608-.04.112-1.072h.768v1.072h1v.728h-1v1.872c0 .458.184.688.552.688.069 0 .141-.008.216-.024.074-.022.138-.043.192-.064l.16.68a2.75 2.75 0 0 1-.368.096 1.856 1.856 0 0 1-.432.048Zm2.402 0c-.325 0-.557-.099-.696-.296-.133-.198-.2-.467-.2-.808v-4.64h.92v4.688c0 .112.022.192.064.24a.194.194 0 0 0 .136.064h.056a.717.717 0 0 1 .088-.016l.12.688a1.44 1.44 0 0 1-.488.08Zm1.276-.096v-3.928h.92v3.928h-.92Zm.464-4.616a.558.558 0 0 1-.4-.144.505.505 0 0 1-.152-.384c0-.155.051-.28.152-.376a.558.558 0 0 1 .4-.144c.165 0 .299.048.4.144a.495.495 0 0 1 .152.376c0 .16-.051.288-.152.384a.558.558 0 0 1-.4.144Zm1.63 4.616v-3.928h.76l.064.528h.032c.176-.171.368-.318.576-.44a1.37 1.37 0 0 1 .712-.184c.421 0 .728.136.92.408.192.272.288.656.288 1.152v2.464h-.92v-2.344c0-.326-.048-.555-.144-.688-.096-.134-.253-.2-.472-.2a.82.82 0 0 0-.456.128c-.128.08-.275.2-.44.36v2.744h-.92Zm6.156.096c-.362 0-.69-.08-.984-.24a1.812 1.812 0 0 1-.696-.704c-.17-.31-.256-.68-.256-1.112 0-.427.086-.795.256-1.104.176-.31.403-.547.68-.712.278-.166.568-.248.872-.248.358 0 .656.08.896.24.24.154.422.373.544.656.123.277.184.6.184.968 0 .192-.013.341-.04.448h-2.496c.043.346.168.616.376.808.208.192.47.288.784.288.171 0 .328-.024.472-.072.15-.054.296-.126.44-.216l.312.576a2.825 2.825 0 0 1-.624.304c-.229.08-.469.12-.72.12Zm-1.048-2.432h1.744c0-.304-.066-.542-.2-.712-.133-.176-.333-.264-.6-.264a.876.876 0 0 0-.616.256c-.176.165-.285.405-.328.72Z"/>
  <path fill="none" stroke="var(--colors-base-success, #70E09D)" stroke-width=".8" d="M348.388 180.85c0-10.956-8.894-19.85-19.85-19.85-10.956 0-19.85 8.894-19.85 19.85 0 10.956 8.894 19.85 19.85 19.85 10.956 0 19.85-8.894 19.85-19.85Z"/>
  <path fill="var(--control-color-surface-base-surface, #FFF)" d="M429.388 164.65c0-10.956-8.894-19.85-19.85-19.85-10.956 0-19.85 8.894-19.85 19.85 0 10.956 8.894 19.85 19.85 19.85 10.956 0 19.85-8.894 19.85-19.85Z"/>
  <path fill="var(--control-color-text-base-text, #222)" fill-rule="nonzero" d="M399.472 167.496c-.454 0-.854-.109-1.2-.328a2.275 2.275 0 0 1-.816-.944c-.192-.41-.288-.898-.288-1.464 0-.565.096-1.048.288-1.448.197-.4.469-.706.816-.92.346-.213.746-.32 1.2-.32.458 0 .861.107 1.208.32.346.214.616.52.808.92.197.4.296.883.296 1.448 0 .566-.099 1.054-.296 1.464a2.23 2.23 0 0 1-.808.944c-.347.219-.75.328-1.208.328Zm0-.808c.41 0 .738-.173.984-.52.245-.352.368-.821.368-1.408 0-.586-.123-1.045-.368-1.376a1.16 1.16 0 0 0-.984-.504c-.411 0-.739.168-.984.504-.246.331-.368.79-.368 1.376 0 .587.122 1.056.368 1.408.245.347.573.52.984.52Zm4.446.808c-.421 0-.728-.136-.92-.408-.192-.272-.288-.656-.288-1.152v-2.464h.92v2.344c0 .326.048.555.144.688.096.134.251.2.464.2.171 0 .32-.042.448-.128.134-.085.275-.224.424-.416v-2.688h.92v3.928h-.752l-.072-.576h-.024c-.17.203-.357.366-.56.488a1.327 1.327 0 0 1-.704.184Zm4.662 0c-.454 0-.776-.13-.968-.392-.187-.266-.28-.61-.28-1.032V164.2h-.56v-.688l.608-.04.112-1.072h.768v1.072h1v.728h-1v1.872c0 .459.184.688.552.688.069 0 .141-.008.216-.024a1.87 1.87 0 0 0 .192-.064l.16.68c-.107.038-.23.07-.368.096a1.856 1.856 0 0 1-.432.048Zm2.402 0c-.325 0-.557-.098-.696-.296-.133-.197-.2-.466-.2-.808v-4.64h.92v4.688c0 .112.022.192.064.24a.19.19 0 0 0 .136.064h.056l.088-.016.12.688a1.44 1.44 0 0 1-.488.08Zm1.276-.096v-3.928h.92v3.928h-.92Zm.464-4.616a.558.558 0 0 1-.4-.144.505.505 0 0 1-.152-.384c0-.154.051-.28.152-.376a.558.558 0 0 1 .4-.144c.165 0 .299.048.4.144a.496.496 0 0 1 .152.376c0 .16-.051.288-.152.384a.558.558 0 0 1-.4.144Zm1.63 4.616v-3.928h.76l.064.528h.032c.176-.17.368-.317.576-.44a1.38 1.38 0 0 1 .712-.184c.421 0 .728.136.92.408.192.272.288.656.288 1.152v2.464h-.92v-2.344c0-.325-.048-.554-.144-.688-.096-.133-.253-.2-.472-.2a.829.829 0 0 0-.456.128c-.128.08-.275.2-.44.36v2.744h-.92Zm6.156.096c-.362 0-.69-.08-.984-.24a1.805 1.805 0 0 1-.696-.704c-.17-.309-.256-.68-.256-1.112 0-.426.086-.794.256-1.104.176-.309.403-.546.68-.712.278-.165.568-.248.872-.248.358 0 .656.08.896.24.24.155.422.374.544.656.123.278.184.6.184.968 0 .192-.013.342-.04.448h-2.496c.043.347.168.616.376.808.208.192.47.288.784.288.171 0 .328-.024.472-.072.15-.053.296-.125.44-.216l.312.576a2.782 2.782 0 0 1-.624.304c-.229.08-.469.12-.72.12Zm-1.048-2.432h1.744c0-.304-.066-.541-.2-.712-.133-.176-.333-.264-.6-.264a.88.88 0 0 0-.616.256c-.176.166-.285.406-.328.72Z"/>
  <path fill="none" stroke="var(--colors-base-warning, #FEDA42)" stroke-width=".8" d="M429.388 164.65c0-10.956-8.894-19.85-19.85-19.85-10.956 0-19.85 8.894-19.85 19.85 0 10.956 8.894 19.85 19.85 19.85 10.956 0 19.85-8.894 19.85-19.85Z"/>
  <path fill="var(--control-color-surface-base-surface, #FFF)" d="M186.788 205.15c0-11.176-9.074-20.25-20.25-20.25s-20.25 9.074-20.25 20.25 9.074 20.25 20.25 20.25 20.25-9.074 20.25-20.25Z"/>
  <path fill="var(--control-color-surface-accent-surface, #5985FF)" fill-rule="nonzero" d="M159.382 207.996c-.469 0-.891-.104-1.264-.312a2.2 2.2 0 0 1-.88-.912c-.213-.405-.32-.896-.32-1.472 0-.57.109-1.058.328-1.464.219-.41.515-.722.888-.936a2.444 2.444 0 0 1 1.256-.328c.373 0 .688.07.944.208.261.134.475.286.64.456l-.496.6a1.924 1.924 0 0 0-.448-.32 1.23 1.23 0 0 0-.608-.136c-.464 0-.84.171-1.128.512-.283.336-.424.798-.424 1.384 0 .598.136 1.067.408 1.408.272.336.669.504 1.192.504.149 0 .291-.018.424-.056a.9.9 0 0 0 .328-.176v-1.128h-.992v-.76h1.824v2.304a2.154 2.154 0 0 1-.704.448 2.533 2.533 0 0 1-.968.176Zm2.751-.096v-5.648h.92v1.456l-.032.76c.166-.154.35-.29.552-.408.203-.122.438-.184.704-.184.422 0 .728.136.92.408.192.272.288.656.288 1.152v2.464h-.92v-2.344c0-.325-.048-.554-.144-.688-.096-.133-.253-.2-.472-.2a.834.834 0 0 0-.456.128c-.128.08-.274.2-.44.36v2.744h-.92Zm6.069.096c-.325 0-.629-.08-.912-.24a1.9 1.9 0 0 1-.688-.704c-.176-.309-.264-.68-.264-1.112 0-.437.088-.808.264-1.112.176-.309.406-.544.688-.704a1.78 1.78 0 0 1 .912-.248c.331 0 .638.083.92.248.283.16.512.395.688.704.176.304.264.675.264 1.112 0 .432-.088.803-.264 1.112a1.892 1.892 0 0 1-.688.704c-.282.16-.589.24-.92.24Zm0-.752c.288 0 .515-.12.68-.36.166-.24.248-.554.248-.944 0-.394-.082-.712-.248-.952a.782.782 0 0 0-.68-.36.784.784 0 0 0-.68.36c-.16.24-.24.558-.24.952 0 .39.08.704.24.944.166.24.392.36.68.36Zm3.848.752a2.22 2.22 0 0 1-.8-.152 2.633 2.633 0 0 1-.688-.392l.432-.592c.176.134.352.24.528.32.176.08.362.12.56.12.213 0 .37-.045.472-.136a.432.432 0 0 0 .152-.336.336.336 0 0 0-.128-.272 1.064 1.064 0 0 0-.312-.192 8.299 8.299 0 0 0-.4-.168 4.216 4.216 0 0 1-.512-.232 1.318 1.318 0 0 1-.408-.36.921.921 0 0 1-.16-.552c0-.346.128-.629.384-.848.256-.218.602-.328 1.04-.328.277 0 .525.048.744.144.218.096.408.206.568.328l-.424.56a2.034 2.034 0 0 0-.424-.24 1.04 1.04 0 0 0-.44-.096c-.198 0-.344.043-.44.128a.38.38 0 0 0-.144.304c0 .155.08.272.24.352.16.08.346.158.56.232.181.064.357.144.528.24.17.091.312.211.424.36.117.15.176.347.176.592 0 .336-.131.624-.392.864-.262.235-.64.352-1.136.352Zm3.577 0c-.454 0-.776-.13-.968-.392-.187-.266-.28-.61-.28-1.032V204.7h-.56v-.688l.608-.04.112-1.072h.768v1.072h1v.728h-1v1.872c0 .459.184.688.552.688.069 0 .141-.008.216-.024a1.87 1.87 0 0 0 .192-.064l.16.68c-.107.038-.23.07-.368.096a1.856 1.856 0 0 1-.432.048Z"/>
  <path fill="none" stroke="var(--control-color-border-200-border, #D5D5D5)" stroke-width=".8" d="M186.388 205.15c0-10.956-8.894-19.85-19.85-19.85-10.956 0-19.85 8.894-19.85 19.85 0 10.956 8.894 19.85 19.85 19.85 10.956 0 19.85-8.894 19.85-19.85Z"/>
  <path fill="var(--control-color-surface-base-surface, #FFF)" d="M273.862 324.626c0-14.529-11.796-26.325-26.325-26.325s-26.325 11.796-26.325 26.325 11.796 26.325 26.325 26.325 26.325-11.796 26.325-26.325Z"/>
  <path fill="var(--control-color-text-base-text, #222)" fill-rule="nonzero" d="M240.382 327.397c-.469 0-.891-.104-1.264-.312a2.2 2.2 0 0 1-.88-.912c-.213-.406-.32-.896-.32-1.472 0-.571.109-1.059.328-1.464.219-.411.515-.723.888-.936a2.435 2.435 0 0 1 1.256-.328c.373 0 .688.069.944.208.261.133.475.285.64.456l-.496.6a1.895 1.895 0 0 0-.448-.32 1.219 1.219 0 0 0-.608-.136c-.464 0-.84.17-1.128.512-.283.336-.424.797-.424 1.384 0 .597.136 1.066.408 1.408.272.336.669.504 1.192.504.149 0 .291-.019.424-.056a.93.93 0 0 0 .328-.176v-1.128h-.992v-.76h1.824v2.304a2.17 2.17 0 0 1-.704.448 2.552 2.552 0 0 1-.968.176Zm2.751-.096v-5.648h.92v1.456l-.032.76c.166-.155.35-.291.552-.408.203-.123.438-.184.704-.184.422 0 .728.136.92.408.192.272.288.656.288 1.152v2.464h-.92v-2.344c0-.326-.048-.555-.144-.688-.096-.134-.253-.2-.472-.2a.825.825 0 0 0-.456.128c-.128.08-.274.2-.44.36v2.744h-.92Zm6.069.096c-.325 0-.629-.08-.912-.24a1.907 1.907 0 0 1-.688-.704c-.176-.31-.264-.68-.264-1.112 0-.438.088-.808.264-1.112a1.82 1.82 0 0 1 .688-.704c.283-.166.587-.248.912-.248.331 0 .638.082.92.248.283.16.512.394.688.704.176.304.264.674.264 1.112 0 .432-.088.802-.264 1.112a1.899 1.899 0 0 1-.688.704c-.282.16-.589.24-.92.24Zm0-.752c.288 0 .515-.12.68-.36.166-.24.248-.555.248-.944 0-.395-.082-.712-.248-.952a.782.782 0 0 0-.68-.36.784.784 0 0 0-.68.36c-.16.24-.24.557-.24.952 0 .389.08.704.24.944.166.24.392.36.68.36Zm3.848.752c-.267 0-.534-.051-.8-.152a2.691 2.691 0 0 1-.688-.392l.432-.592c.176.133.352.24.528.32.176.08.362.12.56.12.213 0 .37-.046.472-.136a.435.435 0 0 0 .152-.336.334.334 0 0 0-.128-.272 1.024 1.024 0 0 0-.312-.192 6.672 6.672 0 0 0-.4-.168 4.375 4.375 0 0 1-.512-.232 1.318 1.318 0 0 1-.408-.36.926.926 0 0 1-.16-.552c0-.347.128-.63.384-.848.256-.219.602-.328 1.04-.328.277 0 .525.048.744.144.218.096.408.205.568.328l-.424.56a1.948 1.948 0 0 0-.424-.24 1.04 1.04 0 0 0-.44-.096c-.198 0-.344.042-.44.128a.378.378 0 0 0-.144.304c0 .154.08.272.24.352.16.08.346.157.56.232.181.064.357.144.528.24.17.09.312.21.424.36.117.149.176.346.176.592 0 .336-.131.624-.392.864-.262.234-.64.352-1.136.352Zm3.577 0c-.454 0-.776-.131-.968-.392-.187-.267-.28-.611-.28-1.032v-1.872h-.56v-.688l.608-.04.112-1.072h.768v1.072h1v.728h-1v1.872c0 .458.184.688.552.688.069 0 .141-.008.216-.024.074-.022.138-.043.192-.064l.16.68a2.75 2.75 0 0 1-.368.096 1.856 1.856 0 0 1-.432.048Z"/>
  <path fill="none" stroke="var(--control-color-surface-300-surface, #D5D5D5)" stroke-width=".8" d="M273.462 324.626c0-14.308-11.617-25.925-25.925-25.925s-25.925 11.617-25.925 25.925 11.617 25.925 25.925 25.925 25.925-11.617 25.925-25.925Z"/>
  <path fill="var(--control-color-surface-base-surface, #FFF)" d="M510.788 233.5c0-11.176-9.074-20.25-20.25-20.25s-20.25 9.074-20.25 20.25 9.074 20.25 20.25 20.25 20.25-9.074 20.25-20.25Z"/>
  <path fill="var(--colors-danger-500-danger, #C73434)" fill-rule="nonzero" d="M480.472 236.346c-.454 0-.854-.109-1.2-.328a2.28 2.28 0 0 1-.816-.944c-.192-.411-.288-.899-.288-1.464s.096-1.048.288-1.448c.197-.4.469-.707.816-.92.346-.213.746-.32 1.2-.32.458 0 .861.107 1.208.32.346.213.616.52.808.92.197.4.296.883.296 1.448s-.099 1.053-.296 1.464c-.192.405-.462.72-.808.944-.347.219-.75.328-1.208.328Zm0-.808c.41 0 .738-.173.984-.52.245-.352.368-.821.368-1.408s-.123-1.045-.368-1.376a1.16 1.16 0 0 0-.984-.504c-.411 0-.739.168-.984.504-.246.331-.368.789-.368 1.376 0 .587.122 1.056.368 1.408.245.347.573.52.984.52Zm4.446.808c-.421 0-.728-.136-.92-.408-.192-.272-.288-.656-.288-1.152v-2.464h.92v2.344c0 .325.048.555.144.688.096.133.251.2.464.2a.79.79 0 0 0 .448-.128c.134-.085.275-.224.424-.416v-2.688h.92v3.928h-.752l-.072-.576h-.024c-.17.203-.357.365-.56.488a1.327 1.327 0 0 1-.704.184Zm4.662 0c-.454 0-.776-.131-.968-.392-.187-.267-.28-.611-.28-1.032v-1.872h-.56v-.688l.608-.04.112-1.072h.768v1.072h1v.728h-1v1.872c0 .459.184.688.552.688.069 0 .141-.008.216-.024a2.15 2.15 0 0 0 .192-.064l.16.68a2.75 2.75 0 0 1-.368.096 1.856 1.856 0 0 1-.432.048Zm2.402 0c-.325 0-.557-.099-.696-.296-.133-.197-.2-.467-.2-.808v-4.64h.92v4.688c0 .112.022.192.064.24a.19.19 0 0 0 .136.064h.056a.98.98 0 0 1 .088-.016l.12.688a1.44 1.44 0 0 1-.488.08Zm1.276-.096v-3.928h.92v3.928h-.92Zm.464-4.616a.558.558 0 0 1-.4-.144.505.505 0 0 1-.152-.384c0-.155.051-.28.152-.376a.558.558 0 0 1 .4-.144c.165 0 .299.048.4.144a.495.495 0 0 1 .152.376c0 .16-.051.288-.152.384a.558.558 0 0 1-.4.144Zm1.63 4.616v-3.928h.76l.064.528h.032c.176-.171.368-.317.576-.44a1.37 1.37 0 0 1 .712-.184c.421 0 .728.136.92.408.192.272.288.656.288 1.152v2.464h-.92v-2.344c0-.325-.048-.555-.144-.688-.096-.133-.253-.2-.472-.2a.829.829 0 0 0-.456.128c-.128.08-.275.2-.44.36v2.744h-.92Zm6.156.096c-.362 0-.69-.08-.984-.24a1.805 1.805 0 0 1-.696-.704c-.17-.309-.256-.68-.256-1.112 0-.427.086-.795.256-1.104.176-.309.403-.547.68-.712.278-.165.568-.248.872-.248.358 0 .656.08.896.24.24.155.422.373.544.656.123.277.184.6.184.968 0 .192-.013.341-.04.448h-2.496c.043.347.168.616.376.808.208.192.47.288.784.288.171 0 .328-.024.472-.072.15-.053.296-.125.44-.216l.312.576a2.782 2.782 0 0 1-.624.304c-.229.08-.469.12-.72.12Zm-1.048-2.432h1.744c0-.304-.066-.541-.2-.712-.133-.176-.333-.264-.6-.264a.876.876 0 0 0-.616.256c-.176.165-.285.405-.328.72Z"/>
  <path fill="none" stroke="var(--control-color-border-200-border, #D5D5D5)" stroke-width=".8" d="M510.388 233.5c0-10.956-8.894-19.85-19.85-19.85-10.956 0-19.85 8.894-19.85 19.85 0 10.956 8.894 19.85 19.85 19.85 10.956 0 19.85-8.894 19.85-19.85Z"/>
  <path fill="var(--control-color-surface-base-surface, #FFF)" d="M348.388 274c0-10.956-8.894-19.85-19.85-19.85-10.956 0-19.85 8.894-19.85 19.85 0 10.956 8.894 19.85 19.85 19.85 10.956 0 19.85-8.894 19.85-19.85Z"/>
  <path fill="var(--colors-success-500-success, #28854E)" fill-rule="nonzero" d="M321.382 277.909a2.55 2.55 0 0 1-1.264-.313 2.189 2.189 0 0 1-.88-.912c-.214-.405-.32-.896-.32-1.472 0-.57.109-1.058.328-1.464.218-.41.514-.722.888-.936a2.444 2.444 0 0 1 1.256-.328c.373 0 .688.07.944.208.261.134.474.286.64.456l-.496.6a1.945 1.945 0 0 0-.448-.32 1.23 1.23 0 0 0-.608-.135c-.464 0-.84.17-1.128.511-.283.336-.424.798-.424 1.384 0 .598.136 1.067.408 1.408.272.336.669.504 1.192.504.149 0 .29-.018.424-.056a.908.908 0 0 0 .328-.176v-1.128h-.992v-.76h1.824v2.305a2.152 2.152 0 0 1-.704.447 2.533 2.533 0 0 1-.968.177Zm2.751-.097v-5.648h.92v1.456l-.032.76c.165-.154.349-.29.552-.408.203-.122.437-.184.704-.184.421 0 .728.136.92.408.192.272.288.656.288 1.152v2.464h-.92v-2.344c0-.325-.048-.554-.144-.688-.096-.133-.253-.2-.472-.2a.829.829 0 0 0-.456.128c-.128.08-.275.2-.44.36v2.744h-.92Zm6.069.097c-.325 0-.629-.081-.912-.241a1.892 1.892 0 0 1-.688-.704c-.176-.309-.264-.68-.264-1.112 0-.437.088-.808.264-1.112a1.82 1.82 0 0 1 .688-.704 1.78 1.78 0 0 1 .912-.248c.331 0 .637.083.92.248.283.16.512.395.688.704.176.304.264.675.264 1.112 0 .432-.088.803-.264 1.112a1.892 1.892 0 0 1-.688.704c-.283.16-.589.241-.92.241Zm0-.753c.288 0 .515-.12.68-.36.165-.24.248-.554.248-.944 0-.394-.083-.712-.248-.952a.782.782 0 0 0-.68-.36.782.782 0 0 0-.68.36c-.16.24-.24.558-.24.952 0 .39.08.704.24.944.165.24.392.36.68.36Zm3.847.753a2.23 2.23 0 0 1-.8-.153 2.65 2.65 0 0 1-.688-.392l.432-.592c.176.134.352.24.528.32.176.08.363.12.56.12.214 0 .371-.045.472-.136a.429.429 0 0 0 .152-.336.333.333 0 0 0-.128-.272 1.064 1.064 0 0 0-.312-.192 7.894 7.894 0 0 0-.4-.168 4.36 4.36 0 0 1-.512-.232 1.34 1.34 0 0 1-.408-.36.928.928 0 0 1-.16-.552c0-.346.128-.629.384-.848.256-.218.603-.328 1.04-.328.278 0 .526.048.744.144.219.096.408.206.568.328l-.424.56a2.01 2.01 0 0 0-.424-.24 1.034 1.034 0 0 0-.44-.096c-.197 0-.344.043-.44.128a.38.38 0 0 0-.144.304c0 .155.08.272.24.352.16.08.347.158.56.232.182.064.358.144.528.24.171.091.312.211.424.36.118.15.176.347.176.592 0 .336-.13.624-.392.864-.261.235-.64.353-1.136.353Zm3.577 0c-.453 0-.776-.131-.968-.393-.186-.266-.28-.61-.28-1.032v-1.872h-.56v-.688l.608-.04.112-1.072h.768v1.072h1v.728h-1v1.872c0 .459.184.688.552.688.07 0 .142-.008.216-.024.075-.021.139-.042.192-.064l.16.68a2.53 2.53 0 0 1-.368.097 1.844 1.844 0 0 1-.432.048Z"/>
  <path fill="none" stroke="var(--control-color-border-200-border, #D5D5D5)" stroke-width=".8" d="M348.388 274c0-10.956-8.894-19.85-19.85-19.85-10.956 0-19.85 8.894-19.85 19.85 0 10.956 8.894 19.85 19.85 19.85 10.956 0 19.85-8.894 19.85-19.85Z"/>
  <path fill="var(--control-color-surface-base-surface, #FFF)" d="M433.838 261.851c0-13.412-10.888-24.3-24.3-24.3s-24.3 10.888-24.3 24.3 10.888 24.3 24.3 24.3 24.3-10.888 24.3-24.3Z"/>
  <path fill="var(--colors-warning-500-warning, #AE830E)" fill-rule="nonzero" d="M402.819 264.551v-5.232h.928v4.448h2.176v.784h-3.104Zm3.936 0v-3.928h.92v3.928h-.92Zm.464-4.616a.556.556 0 0 1-.4-.144.502.502 0 0 1-.152-.384c0-.155.05-.28.152-.376a.556.556 0 0 1 .4-.144.56.56 0 0 1 .4.144.495.495 0 0 1 .152.376c0 .16-.051.288-.152.384a.56.56 0 0 1-.4.144Zm1.629 4.616v-3.928h.76l.064.528h.032c.176-.171.368-.318.576-.44.208-.123.446-.184.712-.184.422 0 .728.136.92.408.192.272.288.656.288 1.152v2.464h-.92v-2.344c0-.326-.048-.555-.144-.688-.096-.134-.253-.2-.472-.2a.825.825 0 0 0-.456.128c-.128.08-.274.2-.44.36v2.744h-.92Zm4.477 0v-5.648h.904v3.528h.024l1.456-1.808h1.008l-1.344 1.6 1.48 2.328h-1l-1.008-1.704-.616.704v1h-.904Z"/>
  <path fill="none" stroke="var(--control-color-border-200-border, #D5D5D5)" stroke-width=".8" d="M433.438 261.851c0-13.191-10.709-23.9-23.9-23.9-13.191 0-23.9 10.709-23.9 23.9 0 13.191 10.709 23.9 23.9 23.9 13.191 0 23.9-10.709 23.9-23.9Z"/>
  <path fill="var(--colors-neutral-500-neutral, #737373)" fill-rule="nonzero" d="M83.513 18.45a.4.4 0 1 0 0 .8v-.8Zm2.025.8h.4v-.8h-.4v.8Zm-2.025 0h2.025v-.8h-2.025v.8Zm0 80.2a.4.4 0 1 0 0 .8v-.8Zm2.025.8h.4v-.8h-.4v.8Zm-2.025 0h2.025v-.8h-2.025v.8Zm0 80.2a.4.4 0 1 0 0 .8v-.8Zm2.025.8h.4v-.8h-.4v.8Zm-2.025 0h2.025v-.8h-2.025v.8Zm0 80.2a.4.4 0 1 0 0 .8v-.8Zm2.025.8h.4v-.8h-.4v.8Zm-2.025 0h2.025v-.8h-2.025v.8Zm0 80.2a.4.4 0 1 0 0 .8v-.8Zm2.025.8h.4v-.8h-.4v.8Zm-2.025 0h2.025v-.8h-2.025v.8Zm0 80.2a.4.4 0 1 0 0 .8v-.8Zm2.025.8h.4v-.8h-.4v.8Zm-2.025 0h2.025v-.8h-2.025v.8Zm82.625 1.625a.4.4 0 1 0 .8 0h-.8Zm.8-2.025v-.4h-.8v.4h.8Zm0 2.025v-2.025h-.8v2.025h.8Zm80.2 0a.4.4 0 1 0 .8 0h-.8Zm.8-2.025v-.4h-.8v.4h.8Zm0 2.025v-2.025h-.8v2.025h.8Zm80.2 0a.4.4 0 1 0 .8 0h-.8Zm.8-2.025v-.4h-.8v.4h.8Zm0 2.025v-2.025h-.8v2.025h.8Zm80.2 0a.4.4 0 1 0 .8 0h-.8Zm.8-2.025v-.4h-.8v.4h.8Zm0 2.025v-2.025h-.8v2.025h.8Zm80.2 0a.4.4 0 1 0 .8 0h-.8Zm.8-2.025v-.4h-.8v.4h.8Zm0 2.025v-2.025h-.8v2.025h.8Z"/>
</svg>
