<svg xmlns="http://www.w3.org/2000/svg" fill="none" viewBox="0 0 656 464">
  <g clip-path="url(#anatomy-a)">
    <path fill="var(--control-color-surface-100-surface, #F4F4F4)" d="M0 0h320v224H0z"/>
    <rect width="155" height="39" x="82.5" y="92.5" fill="var(--control-color-visuals-component-part-100, #9EBAFF)" rx="1.5"/>
    <path fill="var(--control-color-surface-base-surface, #222)" d="M110.79 118.192a5.026 5.026 0 0 1-2.048-.416 5.385 5.385 0 0 1-1.632-1.136l.8-.928c.373.395.81.715 1.312.96.512.235 1.04.352 1.584.352.693 0 1.232-.155 1.616-.464.384-.32.576-.736.576-1.248 0-.363-.08-.651-.24-.864a1.856 1.856 0 0 0-.624-.544 9.664 9.664 0 0 0-.88-.448l-1.504-.656a5.698 5.698 0 0 1-.992-.544 3.014 3.014 0 0 1-.816-.864c-.214-.352-.32-.784-.32-1.296 0-.533.138-1.008.416-1.424a2.847 2.847 0 0 1 1.184-.992c.501-.245 1.066-.368 1.696-.368.629 0 1.21.123 1.744.368.533.235.986.544 1.36.928l-.72.864a3.596 3.596 0 0 0-1.072-.72 3.044 3.044 0 0 0-1.312-.272c-.587 0-1.062.139-1.424.416-.352.277-.528.651-.528 1.12 0 .331.085.608.256.832.181.213.405.389.672.528.266.139.538.267.816.384l1.488.64c.405.171.768.379 1.088.624.33.235.592.528.784.88.192.341.288.773.288 1.296 0 .555-.144 1.061-.432 1.52-.288.448-.699.805-1.232 1.072-.534.267-1.168.4-1.904.4Zm8.53 0c-.629 0-1.221-.16-1.776-.48-.544-.32-.986-.784-1.328-1.392-.33-.608-.496-1.339-.496-2.192 0-.875.166-1.616.496-2.224.342-.608.784-1.072 1.328-1.392a3.499 3.499 0 0 1 1.776-.48c.64 0 1.232.16 1.776.48.544.32.982.784 1.312 1.392.342.608.512 1.349.512 2.224 0 .853-.17 1.584-.512 2.192-.33.608-.768 1.072-1.312 1.392a3.44 3.44 0 0 1-1.776.48Zm0-1.088c.672 0 1.211-.272 1.616-.816.416-.555.624-1.275.624-2.16 0-.896-.208-1.621-.624-2.176-.405-.555-.944-.832-1.616-.832-.661 0-1.2.277-1.616.832-.416.555-.624 1.28-.624 2.176 0 .885.208 1.605.624 2.16.416.544.955.816 1.616.816Zm7.04 1.088c-.49 0-.848-.149-1.072-.448-.213-.309-.32-.747-.32-1.312v-9.824h1.312v9.92c0 .203.038.352.112.448.075.085.16.128.256.128h.112c.043-.011.102-.021.176-.032l.176.992a1.098 1.098 0 0 1-.304.096 2.604 2.604 0 0 1-.448.032Zm2.686-.192v-7.776h1.312V118h-1.312Zm.672-9.376a.939.939 0 0 1-.64-.224c-.16-.16-.24-.373-.24-.64 0-.256.08-.464.24-.624a.9.9 0 0 1 .64-.24c.256 0 .464.08.624.24.171.16.256.368.256.624 0 .267-.085.48-.256.64-.16.149-.368.224-.624.224Zm5.922 9.568c-.971 0-1.749-.352-2.336-1.056-.587-.715-.88-1.717-.88-3.008 0-.843.155-1.568.464-2.176.32-.619.736-1.093 1.248-1.424a3.058 3.058 0 0 1 1.664-.496c.448 0 .837.08 1.168.24.331.16.667.379 1.008.656l-.064-1.328v-2.992h1.328V118h-1.088l-.112-.912h-.048c-.299.299-.651.56-1.056.784-.405.213-.837.32-1.296.32Zm.288-1.104c.683 0 1.344-.357 1.984-1.072v-4.064c-.331-.299-.651-.507-.96-.624a2.334 2.334 0 0 0-.928-.192c-.416 0-.795.128-1.136.384-.331.245-.597.592-.8 1.04-.203.437-.304.955-.304 1.552 0 .928.187 1.659.56 2.192.373.523.901.784 1.584.784Zm9.262.912v-10.496h3.12c.715 0 1.339.085 1.872.256.544.171.965.443 1.264.816.309.373.464.869.464 1.488 0 .523-.133.997-.4 1.424-.256.416-.635.704-1.136.864v.064c.629.117 1.141.384 1.536.8.405.416.608.987.608 1.712 0 .683-.171 1.253-.512 1.712-.331.459-.795.8-1.392 1.024-.597.224-1.291.336-2.08.336h-3.344Zm1.328-6.032h1.552c.896 0 1.541-.155 1.936-.464.395-.309.592-.731.592-1.264 0-.608-.208-1.04-.624-1.296-.405-.256-1.019-.384-1.84-.384h-1.616v3.408Zm0 4.976h1.824c.907 0 1.611-.165 2.112-.496.501-.341.752-.864.752-1.568 0-.651-.251-1.125-.752-1.424-.491-.309-1.195-.464-2.112-.464h-1.824v3.952Zm10.222 1.248c-.821 0-1.424-.256-1.808-.768-.384-.523-.576-1.28-.576-2.272v-4.928h1.328v4.752c0 .725.112 1.253.336 1.584.235.331.608.496 1.12.496.406 0 .763-.101 1.072-.304.32-.213.662-.549 1.024-1.008v-5.52h1.312V118h-1.088l-.112-1.216h-.048a5.064 5.064 0 0 1-1.152 1.024c-.405.256-.874.384-1.408.384Zm8.879 0c-.832 0-1.413-.24-1.744-.72-.32-.48-.48-1.104-.48-1.872v-4.304h-1.152v-.992l1.216-.08.16-2.176h1.104v2.176h2.096v1.072h-2.096v4.32c0 .48.086.853.256 1.12.182.256.496.384.944.384.139 0 .288-.021.448-.064l.432-.144.256.992a5.454 5.454 0 0 1-.704.192 2.9 2.9 0 0 1-.736.096Zm5.094 0c-.832 0-1.413-.24-1.744-.72-.32-.48-.48-1.104-.48-1.872v-4.304h-1.152v-.992l1.216-.08.16-2.176h1.104v2.176h2.096v1.072h-2.096v4.32c0 .48.085.853.256 1.12.181.256.496.384.944.384.139 0 .288-.021.448-.064l.432-.144.256.992a5.454 5.454 0 0 1-.704.192 2.905 2.905 0 0 1-.736.096Zm5.764 0c-.63 0-1.222-.16-1.776-.48-.544-.32-.987-.784-1.328-1.392-.331-.608-.496-1.339-.496-2.192 0-.875.165-1.616.496-2.224.341-.608.784-1.072 1.328-1.392a3.493 3.493 0 0 1 1.776-.48c.64 0 1.232.16 1.776.48.544.32.981.784 1.312 1.392.341.608.512 1.349.512 2.224 0 .853-.171 1.584-.512 2.192-.331.608-.768 1.072-1.312 1.392a3.44 3.44 0 0 1-1.776.48Zm0-1.088c.672 0 1.21-.272 1.616-.816.416-.555.624-1.275.624-2.16 0-.896-.208-1.621-.624-2.176-.406-.555-.944-.832-1.616-.832-.662 0-1.2.277-1.616.832-.416.555-.624 1.28-.624 2.176 0 .885.208 1.605.624 2.16.416.544.954.816 1.616.816Zm5.648.896v-7.776h1.088l.112 1.12h.048a5.948 5.948 0 0 1 1.184-.928 2.66 2.66 0 0 1 1.424-.384c.821 0 1.418.261 1.792.784.384.512.576 1.264.576 2.256V118h-1.312v-4.752c0-.725-.118-1.253-.352-1.584-.235-.331-.608-.496-1.12-.496-.395 0-.752.101-1.072.304-.31.203-.662.501-1.056.896V118h-1.312Zm23.844-14c.312 0 .562.188.687.438l2.156 4.406 4.782.718c.281.032.5.219.594.5a.737.737 0 0 1-.188.782l-3.469 3.437.813 4.844a.754.754 0 0 1-.282.75c-.25.156-.562.187-.812.063l-4.281-2.313-4.25 2.313a.84.84 0 0 1-.813-.063c-.218-.187-.344-.469-.281-.75l.813-4.844-3.469-3.437a.737.737 0 0 1-.188-.782c.094-.25.313-.468.594-.5l4.781-.718 2.156-4.406c.126-.25.376-.438.657-.438Zm0 2.469-1.625 3.406c-.125.219-.313.375-.563.406l-3.687.531 2.656 2.657c.188.187.281.437.219.656l-.625 3.75 3.281-1.75a.736.736 0 0 1 .719 0l3.281 1.75-.625-3.719a.647.647 0 0 1 .219-.656l2.656-2.688-3.687-.531c-.25-.031-.438-.187-.563-.406l-1.656-3.406Z"/>
    <rect width="155" height="39" x="82.5" y="92.5" stroke="var(--control-color-visuals-component-part-100, #9EBAFF)" rx="1.5"/>
    <rect width="24" height="24" x="34" y="100" fill="var(--control-color-visuals-guide-fill, #36F)" rx="12"/>
    <path fill="white" d="M43.908 106.753h3.404V117h-1.75v-8.818h-1.654v-1.429Z"/>
    <path stroke="var(--control-color-visuals-guide-fill, #36F)" stroke-linecap="round" d="M82 112H58"/>
    <circle cx="82" cy="112" r="2" fill="var(--control-color-visuals-guide-fill, #36F)"/>
    <path stroke="var(--control-color-visuals-guide-fill, #36F)" stroke-linecap="round" d="M206 124v48"/>
    <rect width="24" height="24" x="194" y="172" fill="var(--control-color-visuals-guide-fill, #36F)" rx="12"/>
    <path fill="white" d="M205.562 187.544c.233 0 .465-.03.698-.089a2.07 2.07 0 0 0 .636-.287c.191-.128.346-.287.464-.479.119-.196.178-.423.178-.683 0-.274-.066-.506-.198-.697a1.49 1.49 0 0 0-.54-.479 2.59 2.59 0 0 0-.779-.267 4.656 4.656 0 0 0-.923-.088h-.766v-1.47h.766c.278 0 .549-.032.813-.096.269-.064.506-.157.711-.28a1.55 1.55 0 0 0 .499-.472c.128-.191.191-.412.191-.663 0-.196-.041-.371-.123-.526a1.142 1.142 0 0 0-.348-.404 1.613 1.613 0 0 0-.527-.252c-.2-.06-.419-.089-.656-.089-.146 0-.303.013-.471.041a2.229 2.229 0 0 0-.499.13 2.514 2.514 0 0 0-.486.239c-.159.1-.307.225-.444.376l-1.067-1.162c.178-.215.383-.399.616-.554.237-.155.487-.283.752-.383.264-.105.537-.18.82-.225.287-.051.572-.076.854-.076.483 0 .923.066 1.32.199.401.132.745.316 1.032.553.287.237.51.52.67.848.159.324.239.679.239 1.066a2.384 2.384 0 0 1-.478 1.456c-.142.196-.303.37-.486.52a3.114 3.114 0 0 1-.56.362c.314.11.585.253.813.431.233.173.424.371.574.595.151.223.262.462.335.717.073.256.11.518.11.787a2.587 2.587 0 0 1-.568 1.647 2.963 2.963 0 0 1-.629.588 4.192 4.192 0 0 1-1.633.67 4.653 4.653 0 0 1-2.051-.055 5.698 5.698 0 0 1-.943-.355 4.702 4.702 0 0 1-.705-.424 7.607 7.607 0 0 1-.458-.376l.964-1.313c.31.31.661.559 1.053.746a2.92 2.92 0 0 0 1.23.273Z"/>
    <circle cx="206" cy="124" r="2" fill="var(--control-color-visuals-guide-fill, #36F)" transform="rotate(-90 206 124)"/>
    <rect width="24" height="24" x="136" y="28" fill="var(--control-color-visuals-guide-fill, #36F)" rx="12"/>
    <path fill="white" d="M147.815 34.61c.52 0 .987.081 1.402.245.415.16.765.381 1.053.664.287.278.505.606.656.984.155.374.232.775.232 1.203 0 .246-.027.488-.082.725a3.586 3.586 0 0 1-.246.697 5.045 5.045 0 0 1-.403.718c-.16.241-.349.494-.568.759l-2.365 2.884h3.678V45h-7.041l3.978-4.799c.174-.21.338-.415.493-.615.155-.2.289-.401.403-.602.118-.2.21-.405.273-.615.069-.21.103-.43.103-.663 0-.219-.041-.417-.123-.595a1.296 1.296 0 0 0-.349-.464 1.473 1.473 0 0 0-.519-.301 1.913 1.913 0 0 0-.657-.11c-.218 0-.43.032-.635.096a2.462 2.462 0 0 0-.588.273 3.198 3.198 0 0 0-.533.41 4.51 4.51 0 0 0-.472.507l-1.285-1.087c.496-.648 1.05-1.112 1.661-1.395a4.491 4.491 0 0 1 1.934-.43Z"/>
    <path stroke="var(--control-color-visuals-guide-fill, #36F)" stroke-linecap="round" d="M148 52v48"/>
    <circle cx="148" cy="100" r="2" fill="var(--control-color-visuals-guide-fill, #36F)" transform="rotate(90 148 100)"/>
  </g>
  <g clip-path="url(#anatomy-b)">
    <path fill="var(--control-color-surface-100-surface, #F4F4F4)" d="M336 0h320v224H336z"/>
    <path fill="var(--control-color-visuals-component-part-100, #9EBAFF)" d="M440.085 118.192c-.874 0-1.653-.224-2.336-.672-.672-.448-1.2-1.083-1.584-1.904-.373-.821-.56-1.792-.56-2.912 0-1.12.187-2.08.56-2.88.384-.811.912-1.429 1.584-1.856.683-.437 1.462-.656 2.336-.656.886 0 1.664.219 2.336.656.672.427 1.2 1.045 1.584 1.856.384.8.576 1.76.576 2.88 0 1.12-.192 2.091-.576 2.912-.384.821-.912 1.456-1.584 1.904-.672.448-1.45.672-2.336.672Zm0-1.168c.63 0 1.174-.176 1.632-.528.47-.363.832-.864 1.088-1.504.256-.651.384-1.413.384-2.288 0-1.301-.282-2.331-.848-3.088-.565-.757-1.317-1.136-2.256-1.136-.938 0-1.69.379-2.256 1.136-.565.757-.848 1.787-.848 3.088 0 .875.128 1.637.384 2.288.256.64.619 1.141 1.088 1.504.47.352 1.014.528 1.632.528Zm8.897 1.168c-.821 0-1.424-.256-1.808-.768-.384-.523-.576-1.28-.576-2.272v-4.928h1.328v4.752c0 .725.112 1.253.336 1.584.235.331.608.496 1.12.496.406 0 .763-.101 1.072-.304.32-.213.662-.549 1.024-1.008v-5.52h1.312V118h-1.088l-.112-1.216h-.048a5.064 5.064 0 0 1-1.152 1.024c-.405.256-.874.384-1.408.384Zm8.88 0c-.832 0-1.414-.24-1.744-.72-.32-.48-.48-1.104-.48-1.872v-4.304h-1.152v-.992l1.216-.08.16-2.176h1.104v2.176h2.096v1.072h-2.096v4.32c0 .48.085.853.256 1.12.181.256.496.384.944.384.138 0 .288-.021.448-.064l.432-.144.256.992a5.498 5.498 0 0 1-.704.192 2.911 2.911 0 0 1-.736.096Zm4.35 0c-.491 0-.848-.149-1.072-.448-.214-.309-.32-.747-.32-1.312v-9.824h1.312v9.92c0 .203.037.352.112.448.074.085.16.128.256.128h.112c.042-.011.101-.021.176-.032l.176.992a1.12 1.12 0 0 1-.304.096 2.62 2.62 0 0 1-.448.032Zm2.686-.192v-7.776h1.312V118h-1.312Zm.672-9.376a.939.939 0 0 1-.64-.224c-.16-.16-.24-.373-.24-.64 0-.256.08-.464.24-.624a.9.9 0 0 1 .64-.24c.256 0 .464.08.624.24.171.16.256.368.256.624 0 .267-.085.48-.256.64-.16.149-.368.224-.624.224Zm3.265 9.376v-7.776h1.088l.112 1.12h.048a5.977 5.977 0 0 1 1.184-.928 2.662 2.662 0 0 1 1.424-.384c.822 0 1.419.261 1.792.784.384.512.576 1.264.576 2.256V118h-1.312v-4.752c0-.725-.117-1.253-.352-1.584-.234-.331-.608-.496-1.12-.496a1.96 1.96 0 0 0-1.072.304c-.309.203-.661.501-1.056.896V118h-1.312Zm11.902.192c-.693 0-1.322-.16-1.888-.48a3.57 3.57 0 0 1-1.344-1.408c-.33-.608-.496-1.333-.496-2.176 0-.853.166-1.584.496-2.192.342-.608.779-1.077 1.312-1.408a3.14 3.14 0 0 1 1.68-.496c.992 0 1.755.331 2.288.992.544.661.816 1.547.816 2.656 0 .139-.005.277-.016.416 0 .128-.01.24-.032.336h-5.248c.054.821.31 1.477.768 1.968.47.491 1.078.736 1.824.736.374 0 .715-.053 1.024-.16.32-.117.624-.267.912-.448l.464.864c-.33.213-.709.4-1.136.56-.416.16-.89.24-1.424.24Zm-2.448-4.704h4.16c0-.789-.17-1.387-.512-1.792-.33-.416-.8-.624-1.408-.624-.544 0-1.034.213-1.472.64-.426.416-.682 1.008-.768 1.776ZM488.854 118v-10.496h3.12c.715 0 1.339.085 1.872.256.544.171.965.443 1.264.816.309.373.464.869.464 1.488 0 .523-.133.997-.4 1.424-.256.416-.635.704-1.136.864v.064c.629.117 1.141.384 1.536.8.405.416.608.987.608 1.712 0 .683-.171 1.253-.512 1.712-.331.459-.795.8-1.392 1.024-.597.224-1.291.336-2.08.336h-3.344Zm1.328-6.032h1.552c.896 0 1.541-.155 1.936-.464.395-.309.592-.731.592-1.264 0-.608-.208-1.04-.624-1.296-.405-.256-1.019-.384-1.84-.384h-1.616v3.408Zm0 4.976h1.824c.907 0 1.611-.165 2.112-.496.501-.341.752-.864.752-1.568 0-.651-.251-1.125-.752-1.424-.491-.309-1.195-.464-2.112-.464h-1.824v3.952Zm10.222 1.248c-.821 0-1.424-.256-1.808-.768-.384-.523-.576-1.28-.576-2.272v-4.928h1.328v4.752c0 .725.112 1.253.336 1.584.235.331.608.496 1.12.496.406 0 .763-.101 1.072-.304.32-.213.662-.549 1.024-1.008v-5.52h1.312V118h-1.088l-.112-1.216h-.048a5.064 5.064 0 0 1-1.152 1.024c-.405.256-.874.384-1.408.384Zm8.879 0c-.832 0-1.413-.24-1.744-.72-.32-.48-.48-1.104-.48-1.872v-4.304h-1.152v-.992l1.216-.08.16-2.176h1.104v2.176h2.096v1.072h-2.096v4.32c0 .48.086.853.256 1.12.182.256.496.384.944.384.139 0 .288-.021.448-.064l.432-.144.256.992a5.454 5.454 0 0 1-.704.192 2.9 2.9 0 0 1-.736.096Zm5.094 0c-.832 0-1.413-.24-1.744-.72-.32-.48-.48-1.104-.48-1.872v-4.304h-1.152v-.992l1.216-.08.16-2.176h1.104v2.176h2.096v1.072h-2.096v4.32c0 .48.086.853.256 1.12.182.256.496.384.944.384.139 0 .288-.021.448-.064l.432-.144.256.992a5.454 5.454 0 0 1-.704.192 2.9 2.9 0 0 1-.736.096Zm5.764 0c-.63 0-1.222-.16-1.776-.48-.544-.32-.987-.784-1.328-1.392-.331-.608-.496-1.339-.496-2.192 0-.875.165-1.616.496-2.224.341-.608.784-1.072 1.328-1.392a3.493 3.493 0 0 1 1.776-.48c.64 0 1.232.16 1.776.48.544.32.981.784 1.312 1.392.341.608.512 1.349.512 2.224 0 .853-.171 1.584-.512 2.192-.331.608-.768 1.072-1.312 1.392a3.44 3.44 0 0 1-1.776.48Zm0-1.088c.672 0 1.21-.272 1.616-.816.416-.555.624-1.275.624-2.16 0-.896-.208-1.621-.624-2.176-.406-.555-.944-.832-1.616-.832-.662 0-1.2.277-1.616.832-.416.555-.624 1.28-.624 2.176 0 .885.208 1.605.624 2.16.416.544.954.816 1.616.816Zm5.648.896v-7.776h1.088l.112 1.12h.048a5.948 5.948 0 0 1 1.184-.928 2.66 2.66 0 0 1 1.424-.384c.821 0 1.418.261 1.792.784.384.512.576 1.264.576 2.256V118h-1.312v-4.752c0-.725-.118-1.253-.352-1.584-.235-.331-.608-.496-1.12-.496-.395 0-.752.101-1.072.304-.31.203-.662.501-1.056.896V118h-1.312Zm23.711-14c.531 0 1.031.062 1.531.156.25.063.688.188.938.625.062.125.093.25.125.375l.312 1.219c.032.156.344.344.532.281l1.187-.344c.125-.031.25-.062.375-.062.5 0 .844.312 1 .5a7.967 7.967 0 0 1 1.562 2.688c.094.25.188.687-.093 1.093-.063.125-.157.219-.25.313l-.875.875c-.156.125-.156.469 0 .593l.875.876c.093.093.187.187.25.312.25.406.156.844.093 1.094a7.962 7.962 0 0 1-1.562 2.687c-.156.188-.5.5-1 .5-.125 0-.25-.031-.375-.062l-1.187-.375c-.188-.032-.5.125-.532.312l-.312 1.219c-.032.125-.063.25-.125.375-.25.438-.688.562-.938.625-.5.094-1 .125-1.531.125a8.528 8.528 0 0 1-1.562-.125c-.25-.063-.688-.187-.938-.625a1.776 1.776 0 0 1-.125-.375l-.313-1.219c-.031-.187-.343-.344-.5-.312l-1.187.375c-.125.031-.281.031-.406.062-.5 0-.844-.312-1-.5a7.981 7.981 0 0 1-1.563-2.687c-.062-.25-.156-.688.094-1.125.062-.094.156-.219.25-.313l.906-.844c.125-.124.125-.468 0-.593l-.906-.875a1.214 1.214 0 0 1-.25-.313c-.25-.406-.156-.843-.094-1.093.344-1 .875-1.907 1.563-2.688.156-.188.5-.5 1-.5.125 0 .281.031.406.062l1.187.344c.157.063.469-.125.5-.281l.313-1.219c.031-.125.063-.25.125-.375.25-.437.688-.562.938-.625A8.519 8.519 0 0 1 549.5 104Zm-1.188 1.625-.281 1.094c-.25 1-1.406 1.687-2.406 1.406l-1.094-.344a7.536 7.536 0 0 0-1.187 2.063l.844.781c.75.719.75 2.063 0 2.781l-.844.782a7.53 7.53 0 0 0 1.187 2.062l1.094-.344c1-.281 2.156.406 2.406 1.406l.281 1.094a6.09 6.09 0 0 0 2.376 0l.25-1.094c.25-1 1.406-1.687 2.406-1.406l1.094.344a7.53 7.53 0 0 0 1.187-2.062l-.813-.782c-.75-.718-.75-2.062 0-2.781l.813-.781a7.536 7.536 0 0 0-1.187-2.063l-1.094.344c-.969.281-2.156-.406-2.406-1.406l-.25-1.094a6.09 6.09 0 0 0-2.376 0ZM548 112c0 .562.281 1.031.75 1.312.438.282 1.031.282 1.5 0 .438-.281.75-.75.75-1.312 0-.531-.312-1-.75-1.281-.469-.281-1.062-.281-1.5 0-.469.281-.75.75-.75 1.281Zm1.5 3a3.029 3.029 0 0 1-2.625-1.5c-.531-.906-.531-2.062 0-3 .563-.906 1.531-1.5 2.625-1.5 1.062 0 2.031.594 2.594 1.5.531.938.531 2.094 0 3-.563.938-1.532 1.5-2.594 1.5Z"/>
    <rect width="170" height="39" x="411" y="92.5" stroke="var(--control-color-visuals-component-part-100, #9EBAFF)" rx="1.5"/>
    <rect width="24" height="24" x="362.5" y="100" fill="var(--control-color-visuals-guide-fill, #36F)" rx="12"/>
    <path fill="white" d="M372.408 106.753h3.404V117h-1.75v-8.818h-1.654v-1.429Z"/>
    <path stroke="var(--control-color-visuals-guide-fill, #36F)" stroke-linecap="round" d="M410.5 112h-24"/>
    <circle cx="410.5" cy="112" r="2" fill="var(--control-color-visuals-guide-fill, #36F)"/>
    <path stroke="var(--control-color-visuals-guide-fill, #36F)" stroke-linecap="round" d="M549.5 124v48"/>
    <rect width="24" height="24" x="537.5" y="172" fill="var(--control-color-visuals-guide-fill, #36F)" rx="12"/>
    <path fill="white" d="M549.062 187.544c.233 0 .465-.03.698-.089a2.07 2.07 0 0 0 .636-.287c.191-.128.346-.287.464-.479.119-.196.178-.423.178-.683 0-.274-.066-.506-.198-.697a1.49 1.49 0 0 0-.54-.479 2.59 2.59 0 0 0-.779-.267 4.656 4.656 0 0 0-.923-.088h-.766v-1.47h.766c.278 0 .549-.032.813-.096.269-.064.506-.157.711-.28a1.55 1.55 0 0 0 .499-.472c.128-.191.191-.412.191-.663 0-.196-.041-.371-.123-.526a1.142 1.142 0 0 0-.348-.404 1.613 1.613 0 0 0-.527-.252c-.2-.06-.419-.089-.656-.089-.146 0-.303.013-.471.041a2.229 2.229 0 0 0-.499.13 2.514 2.514 0 0 0-.486.239c-.159.1-.307.225-.444.376l-1.067-1.162c.178-.215.383-.399.616-.554.237-.155.487-.283.752-.383.264-.105.537-.18.82-.225.287-.051.572-.076.854-.076.483 0 .923.066 1.32.199.401.132.745.316 1.032.553.287.237.51.52.67.848.159.324.239.679.239 1.066a2.384 2.384 0 0 1-.478 1.456c-.142.196-.303.37-.486.52a3.114 3.114 0 0 1-.56.362c.314.11.585.253.813.431.233.173.424.371.574.595.151.223.262.462.335.717.073.256.11.518.11.787a2.587 2.587 0 0 1-.568 1.647 2.963 2.963 0 0 1-.629.588 4.192 4.192 0 0 1-1.633.67 4.653 4.653 0 0 1-2.051-.055 5.698 5.698 0 0 1-.943-.355 4.702 4.702 0 0 1-.705-.424 7.607 7.607 0 0 1-.458-.376l.964-1.313c.31.31.661.559 1.053.746a2.92 2.92 0 0 0 1.23.273Z"/>
    <circle cx="549.5" cy="124" r="2" fill="var(--control-color-visuals-guide-fill, #36F)" transform="rotate(-90 549.5 124)"/>
    <rect width="24" height="24" x="472" y="28" fill="var(--control-color-visuals-guide-fill, #36F)" rx="12"/>
    <path fill="white" d="M483.815 34.61c.52 0 .987.081 1.402.245.415.16.765.381 1.053.664.287.278.505.606.656.984.155.374.232.775.232 1.203 0 .246-.027.488-.082.725a3.586 3.586 0 0 1-.246.697 5.045 5.045 0 0 1-.403.718c-.16.241-.349.494-.568.759l-2.365 2.884h3.678V45h-7.041l3.978-4.799c.174-.21.338-.415.493-.615.155-.2.289-.401.403-.602.118-.2.21-.405.273-.615.069-.21.103-.43.103-.663 0-.219-.041-.417-.123-.595a1.296 1.296 0 0 0-.349-.464 1.473 1.473 0 0 0-.519-.301 1.913 1.913 0 0 0-.657-.11c-.218 0-.43.032-.635.096a2.462 2.462 0 0 0-.588.273 3.198 3.198 0 0 0-.533.41 4.51 4.51 0 0 0-.472.507l-1.285-1.087c.496-.648 1.05-1.112 1.661-1.395a4.491 4.491 0 0 1 1.934-.43Z"/>
    <path stroke="var(--control-color-visuals-guide-fill, #36F)" stroke-linecap="round" d="M484 52v48"/>
    <circle cx="484" cy="100" r="2" fill="var(--control-color-visuals-guide-fill, #36F)" transform="rotate(90 484 100)"/>
  </g>
  <g clip-path="url(#anatomy-c)">
    <path fill="var(--control-color-surface-100-surface, #F4F4F4)" d="M0 240h320v224H0z"/>
    <path fill="var(--control-color-visuals-component-part-100, #9EBAFF)" d="M109.537 358.192c-.918 0-1.734-.213-2.448-.64-.715-.437-1.275-1.061-1.68-1.872-.406-.811-.608-1.787-.608-2.928 0-1.131.208-2.101.624-2.912.416-.811.986-1.435 1.712-1.872.725-.437 1.552-.656 2.48-.656.725 0 1.333.139 1.824.416.501.267.901.56 1.2.88l-.736.864a3.82 3.82 0 0 0-.928-.704c-.352-.192-.795-.288-1.328-.288-.704 0-1.318.176-1.84.528-.523.341-.928.827-1.216 1.456-.278.629-.416 1.381-.416 2.256 0 1.323.298 2.373.896 3.152.608.768 1.472 1.152 2.592 1.152.373 0 .73-.053 1.072-.16.341-.117.613-.272.816-.464v-2.736h-2.224v-1.104h3.44v4.416c-.331.352-.779.645-1.344.88-.555.224-1.184.336-1.888.336Zm5.619-.192v-11.392h1.312v3.104l-.048 1.6a6.898 6.898 0 0 1 1.168-.896 2.66 2.66 0 0 1 1.424-.384c.821 0 1.418.261 1.792.784.384.512.576 1.264.576 2.256V358h-1.312v-4.752c0-.725-.118-1.253-.352-1.584-.235-.331-.608-.496-1.12-.496-.395 0-.752.101-1.072.304-.31.203-.662.501-1.056.896V358h-1.312Zm11.727.192c-.629 0-1.221-.16-1.776-.48-.544-.32-.987-.784-1.328-1.392-.331-.608-.496-1.339-.496-2.192 0-.875.165-1.616.496-2.224.341-.608.784-1.072 1.328-1.392a3.499 3.499 0 0 1 1.776-.48c.64 0 1.232.16 1.776.48.544.32.981.784 1.312 1.392.341.608.512 1.349.512 2.224 0 .853-.171 1.584-.512 2.192-.331.608-.768 1.072-1.312 1.392a3.44 3.44 0 0 1-1.776.48Zm0-1.088c.672 0 1.211-.272 1.616-.816.416-.555.624-1.275.624-2.16 0-.896-.208-1.621-.624-2.176-.405-.555-.944-.832-1.616-.832-.661 0-1.2.277-1.616.832-.416.555-.624 1.28-.624 2.176 0 .885.208 1.605.624 2.16.416.544.955.816 1.616.816Zm7.68 1.088a4.177 4.177 0 0 1-1.584-.304 5.547 5.547 0 0 1-1.312-.768l.656-.88c.341.267.693.491 1.056.672.362.171.773.256 1.232.256.512 0 .896-.117 1.152-.352.256-.245.384-.533.384-.864a.913.913 0 0 0-.272-.672 1.957 1.957 0 0 0-.672-.448 9.889 9.889 0 0 0-.832-.352c-.363-.139-.72-.293-1.072-.464a2.653 2.653 0 0 1-.864-.688c-.224-.288-.336-.651-.336-1.088 0-.629.234-1.152.704-1.568.48-.427 1.141-.64 1.984-.64a3.5 3.5 0 0 1 1.344.256c.416.171.773.379 1.072.624l-.64.832a4.173 4.173 0 0 0-.832-.496 2.3 2.3 0 0 0-.944-.192c-.491 0-.854.112-1.088.336a1.074 1.074 0 0 0-.336.784c0 .245.08.448.24.608.16.149.368.283.624.4.256.107.528.219.816.336.373.139.741.299 1.104.48.362.171.661.405.896.704.245.288.368.677.368 1.168 0 .416-.112.8-.336 1.152-.214.352-.534.635-.96.848-.416.213-.934.32-1.552.32Zm6.806 0c-.832 0-1.413-.24-1.744-.72-.32-.48-.48-1.104-.48-1.872v-4.304h-1.152v-.992l1.216-.08.16-2.176h1.104v2.176h2.096v1.072h-2.096v4.32c0 .48.086.853.256 1.12.182.256.496.384.944.384.139 0 .288-.021.448-.064l.432-.144.256.992a5.454 5.454 0 0 1-.704.192 2.9 2.9 0 0 1-.736.096Zm6.29-.192v-10.496h3.12c.714 0 1.338.085 1.872.256.544.171.965.443 1.264.816.309.373.464.869.464 1.488 0 .523-.134.997-.4 1.424-.256.416-.635.704-1.136.864v.064c.629.117 1.141.384 1.536.8.405.416.608.987.608 1.712 0 .683-.171 1.253-.512 1.712-.331.459-.795.8-1.392 1.024-.598.224-1.291.336-2.08.336h-3.344Zm1.328-6.032h1.552c.896 0 1.541-.155 1.936-.464.394-.309.592-.731.592-1.264 0-.608-.208-1.04-.624-1.296-.406-.256-1.019-.384-1.84-.384h-1.616v3.408Zm0 4.976h1.824c.906 0 1.61-.165 2.112-.496.501-.341.752-.864.752-1.568 0-.651-.251-1.125-.752-1.424-.491-.309-1.195-.464-2.112-.464h-1.824v3.952Zm10.222 1.248c-.821 0-1.424-.256-1.808-.768-.384-.523-.576-1.28-.576-2.272v-4.928h1.328v4.752c0 .725.112 1.253.336 1.584.235.331.608.496 1.12.496.405 0 .763-.101 1.072-.304.32-.213.661-.549 1.024-1.008v-5.52h1.312V358h-1.088l-.112-1.216h-.048a5.107 5.107 0 0 1-1.152 1.024c-.405.256-.875.384-1.408.384Zm8.879 0c-.832 0-1.413-.24-1.744-.72-.32-.48-.48-1.104-.48-1.872v-4.304h-1.152v-.992l1.216-.08.16-2.176h1.104v2.176h2.096v1.072h-2.096v4.32c0 .48.085.853.256 1.12.181.256.496.384.944.384.139 0 .288-.021.448-.064l.432-.144.256.992a5.454 5.454 0 0 1-.704.192 2.905 2.905 0 0 1-.736.096Zm5.094 0c-.832 0-1.413-.24-1.744-.72-.32-.48-.48-1.104-.48-1.872v-4.304h-1.152v-.992l1.216-.08.16-2.176h1.104v2.176h2.096v1.072h-2.096v4.32c0 .48.085.853.256 1.12.181.256.496.384.944.384.139 0 .288-.021.448-.064l.432-.144.256.992a5.454 5.454 0 0 1-.704.192 2.905 2.905 0 0 1-.736.096Zm5.763 0c-.629 0-1.221-.16-1.776-.48-.544-.32-.986-.784-1.328-1.392-.33-.608-.496-1.339-.496-2.192 0-.875.166-1.616.496-2.224.342-.608.784-1.072 1.328-1.392a3.499 3.499 0 0 1 1.776-.48c.64 0 1.232.16 1.776.48.544.32.982.784 1.312 1.392.342.608.512 1.349.512 2.224 0 .853-.17 1.584-.512 2.192-.33.608-.768 1.072-1.312 1.392a3.44 3.44 0 0 1-1.776.48Zm0-1.088c.672 0 1.211-.272 1.616-.816.416-.555.624-1.275.624-2.16 0-.896-.208-1.621-.624-2.176-.405-.555-.944-.832-1.616-.832-.661 0-1.2.277-1.616.832-.416.555-.624 1.28-.624 2.176 0 .885.208 1.605.624 2.16.416.544.955.816 1.616.816Zm5.648.896v-7.776h1.088l.112 1.12h.048a5.977 5.977 0 0 1 1.184-.928 2.662 2.662 0 0 1 1.424-.384c.822 0 1.419.261 1.792.784.384.512.576 1.264.576 2.256V358h-1.312v-4.752c0-.725-.117-1.253-.352-1.584-.234-.331-.608-.496-1.12-.496a1.96 1.96 0 0 0-1.072.304c-.309.203-.661.501-1.056.896V358h-1.312Zm23.907-14c.531 0 1.031.062 1.531.156.25.063.688.188.938.625.062.125.093.25.125.375l.312 1.219c.032.156.344.344.532.281l1.187-.344c.125-.031.25-.062.375-.062.5 0 .844.312 1 .5a7.967 7.967 0 0 1 1.562 2.688c.094.25.188.687-.093 1.093-.063.125-.157.219-.25.313l-.875.875c-.156.125-.156.469 0 .593l.875.876c.093.093.187.187.25.312.25.406.156.844.093 1.094a7.962 7.962 0 0 1-1.562 2.687c-.156.188-.5.5-1 .5-.125 0-.25-.031-.375-.062l-1.187-.375c-.188-.032-.5.125-.532.312l-.312 1.219c-.032.125-.063.25-.125.375-.25.438-.688.562-.938.625-.5.094-1 .125-1.531.125a8.528 8.528 0 0 1-1.562-.125c-.25-.063-.688-.187-.938-.625a1.776 1.776 0 0 1-.125-.375l-.313-1.219c-.031-.187-.343-.344-.5-.312l-1.187.375c-.125.031-.281.031-.406.062-.5 0-.844-.312-1-.5a7.981 7.981 0 0 1-1.563-2.687c-.062-.25-.156-.688.094-1.125.062-.094.156-.219.25-.313l.906-.844c.125-.124.125-.468 0-.593l-.906-.875a1.214 1.214 0 0 1-.25-.313c-.25-.406-.156-.843-.094-1.093.344-1 .875-1.907 1.563-2.688.156-.188.5-.5 1-.5.125 0 .281.031.406.062l1.187.344c.157.063.469-.125.5-.281l.313-1.219c.031-.125.063-.25.125-.375.25-.437.688-.562.938-.625A8.519 8.519 0 0 1 208.5 344Zm-1.188 1.625-.281 1.094c-.25 1-1.406 1.687-2.406 1.406l-1.094-.344a7.536 7.536 0 0 0-1.187 2.063l.844.781c.75.719.75 2.063 0 2.781l-.844.782a7.53 7.53 0 0 0 1.187 2.062l1.094-.344c1-.281 2.156.406 2.406 1.406l.281 1.094a6.09 6.09 0 0 0 2.376 0l.25-1.094c.25-1 1.406-1.687 2.406-1.406l1.094.344a7.53 7.53 0 0 0 1.187-2.062l-.813-.782c-.75-.718-.75-2.062 0-2.781l.813-.781a7.536 7.536 0 0 0-1.187-2.063l-1.094.344c-.969.281-2.156-.406-2.406-1.406l-.25-1.094a6.09 6.09 0 0 0-2.376 0ZM207 352c0 .562.281 1.031.75 1.312.438.282 1.031.282 1.5 0 .438-.281.75-.75.75-1.312 0-.531-.312-1-.75-1.281-.469-.281-1.062-.281-1.5 0-.469.281-.75.75-.75 1.281Zm1.5 3a3.029 3.029 0 0 1-2.625-1.5c-.531-.906-.531-2.062 0-3 .563-.906 1.531-1.5 2.625-1.5 1.062 0 2.031.594 2.594 1.5.531.938.531 2.094 0 3-.563.938-1.532 1.5-2.594 1.5Z"/>
    <path stroke="var(--control-color-visuals-guide-fill, #36F)" stroke-linecap="round" d="M208.5 364v48"/>
    <rect width="24" height="24" x="196.5" y="412" fill="var(--control-color-visuals-guide-fill, #36F)" rx="12"/>
    <path fill="white" d="M208.062 427.544c.233 0 .465-.03.698-.089a2.07 2.07 0 0 0 .636-.287c.191-.128.346-.287.464-.479.119-.196.178-.423.178-.683 0-.274-.066-.506-.198-.697a1.49 1.49 0 0 0-.54-.479 2.59 2.59 0 0 0-.779-.267 4.656 4.656 0 0 0-.923-.088h-.766v-1.47h.766c.278 0 .549-.032.813-.096.269-.064.506-.157.711-.28a1.55 1.55 0 0 0 .499-.472c.128-.191.191-.412.191-.663 0-.196-.041-.371-.123-.526a1.142 1.142 0 0 0-.348-.404 1.613 1.613 0 0 0-.527-.252c-.2-.06-.419-.089-.656-.089-.146 0-.303.013-.471.041a2.229 2.229 0 0 0-.499.13 2.514 2.514 0 0 0-.486.239c-.159.1-.307.225-.444.376l-1.067-1.162c.178-.215.383-.399.616-.554.237-.155.487-.283.752-.383.264-.105.537-.18.82-.225.287-.051.572-.076.854-.076.483 0 .923.066 1.32.199.401.132.745.316 1.032.553.287.237.51.52.67.848.159.324.239.679.239 1.066a2.384 2.384 0 0 1-.478 1.456c-.142.196-.303.37-.486.52a3.114 3.114 0 0 1-.56.362c.314.11.585.253.813.431.233.173.424.371.574.595.151.223.262.462.335.717.073.256.11.518.11.787a2.587 2.587 0 0 1-.568 1.647 2.963 2.963 0 0 1-.629.588 4.192 4.192 0 0 1-1.633.67 4.653 4.653 0 0 1-2.051-.055 5.698 5.698 0 0 1-.943-.355 4.702 4.702 0 0 1-.705-.424 7.607 7.607 0 0 1-.458-.376l.964-1.313c.31.31.661.559 1.053.746a2.92 2.92 0 0 0 1.23.273Z"/>
    <circle cx="208.5" cy="364" r="2" fill="var(--control-color-visuals-guide-fill, #36F)" transform="rotate(-90 208.5 364)"/>
    <rect width="24" height="24" x="136" y="268" fill="var(--control-color-visuals-guide-fill, #36F)" rx="12"/>
    <path fill="white" d="M147.815 274.609c.52 0 .987.082 1.402.246.415.16.765.381 1.053.664.287.278.505.606.656.984.155.374.232.775.232 1.203 0 .246-.027.488-.082.725a3.585 3.585 0 0 1-.246.697 5.068 5.068 0 0 1-.403.718c-.16.241-.349.494-.568.758l-2.365 2.885h3.678V285h-7.041l3.978-4.799c.174-.209.338-.415.493-.615.155-.201.289-.401.403-.602.118-.2.21-.405.273-.615.069-.209.103-.431.103-.663 0-.219-.041-.417-.123-.595a1.303 1.303 0 0 0-.349-.465 1.468 1.468 0 0 0-.519-.3 1.911 1.911 0 0 0-.657-.11c-.218 0-.43.032-.635.096a2.487 2.487 0 0 0-.588.273 3.152 3.152 0 0 0-.533.411 4.526 4.526 0 0 0-.472.505l-1.285-1.086c.496-.648 1.05-1.112 1.661-1.395a4.493 4.493 0 0 1 1.934-.431Z"/>
    <path stroke="var(--control-color-visuals-guide-fill, #36F)" stroke-linecap="round" d="M148 292v48"/>
    <circle cx="148" cy="340" r="2" fill="var(--control-color-visuals-guide-fill, #36F)" transform="rotate(90 148 340)"/>
  </g>
  <g clip-path="url(#anatomy-d)">
    <path fill="var(--control-color-surface-100-surface, #F4F4F4)" d="M336 240h320v224H336z"/>
    <rect width="39" height="39" x="476.5" y="332.5" fill="var(--control-color-visuals-component-part-100, #9EBAFF)" rx="1.5"/>
    <path fill="var(--control-color-surface-base-surface, #222)" d="M496 344c.531 0 1.031.062 1.531.156.25.063.688.188.938.625.062.125.093.25.125.375l.312 1.219c.032.156.344.344.532.281l1.187-.344c.125-.031.25-.062.375-.062.5 0 .844.312 1 .5a7.967 7.967 0 0 1 1.562 2.688c.094.25.188.687-.093 1.093-.063.125-.157.219-.25.313l-.875.875c-.156.125-.156.469 0 .593l.875.876c.093.093.187.187.25.312.25.406.156.844.093 1.094a7.962 7.962 0 0 1-1.562 2.687c-.156.188-.5.5-1 .5-.125 0-.25-.031-.375-.062l-1.187-.375c-.188-.032-.5.125-.532.312l-.312 1.219c-.032.125-.063.25-.125.375-.25.438-.688.562-.938.625-.5.094-1 .125-1.531.125a8.528 8.528 0 0 1-1.562-.125c-.25-.063-.688-.187-.938-.625a1.776 1.776 0 0 1-.125-.375l-.313-1.219c-.031-.187-.343-.344-.5-.312l-1.187.375c-.125.031-.281.031-.406.062-.5 0-.844-.312-1-.5a7.981 7.981 0 0 1-1.563-2.687c-.062-.25-.156-.688.094-1.125.062-.094.156-.219.25-.313l.906-.844c.125-.124.125-.468 0-.593l-.906-.875a1.214 1.214 0 0 1-.25-.313c-.25-.406-.156-.843-.094-1.093.344-1 .875-1.907 1.563-2.688.156-.188.5-.5 1-.5.125 0 .281.031.406.062l1.187.344c.157.063.469-.125.5-.281l.313-1.219c.031-.125.063-.25.125-.375.25-.437.688-.562.938-.625A8.519 8.519 0 0 1 496 344Zm-1.188 1.625-.281 1.094c-.25 1-1.406 1.687-2.406 1.406l-1.094-.344a7.536 7.536 0 0 0-1.187 2.063l.844.781c.75.719.75 2.063 0 2.781l-.844.782a7.53 7.53 0 0 0 1.187 2.062l1.094-.344c1-.281 2.156.406 2.406 1.406l.281 1.094a6.09 6.09 0 0 0 2.376 0l.25-1.094c.25-1 1.406-1.687 2.406-1.406l1.094.344a7.53 7.53 0 0 0 1.187-2.062l-.813-.782c-.75-.718-.75-2.062 0-2.781l.813-.781a7.536 7.536 0 0 0-1.187-2.063l-1.094.344c-.969.281-2.156-.406-2.406-1.406l-.25-1.094a6.09 6.09 0 0 0-2.376 0ZM494.5 352c0 .562.281 1.031.75 1.312.438.282 1.031.282 1.5 0 .438-.281.75-.75.75-1.312 0-.531-.312-1-.75-1.281-.469-.281-1.062-.281-1.5 0-.469.281-.75.75-.75 1.281Zm1.5 3a3.029 3.029 0 0 1-2.625-1.5c-.531-.906-.531-2.062 0-3 .563-.906 1.531-1.5 2.625-1.5 1.062 0 2.031.594 2.594 1.5.531.938.531 2.094 0 3-.563.938-1.532 1.5-2.594 1.5Z"/>
    <rect width="39" height="39" x="476.5" y="332.5" stroke="var(--control-color-visuals-component-part-100, #9EBAFF)" rx="1.5"/>
    <rect width="24" height="24" x="428" y="340" fill="var(--control-color-visuals-guide-fill, #36F)" rx="12"/>
    <path fill="white" d="M437.908 346.753h3.404V357h-1.75v-8.818h-1.654v-1.429Z"/>
    <path stroke="var(--control-color-visuals-guide-fill, #36F)" stroke-linecap="round" d="M476 352h-24"/>
    <circle cx="476" cy="352" r="2" fill="var(--control-color-visuals-guide-fill, #36F)"/>
    <path stroke="var(--control-color-visuals-guide-fill, #36F)" stroke-linecap="round" d="M496 364v48"/>
    <rect width="24" height="24" x="484" y="412" fill="var(--control-color-visuals-guide-fill, #36F)" rx="12"/>
    <path fill="white" d="M495.562 427.544c.233 0 .465-.03.698-.089a2.07 2.07 0 0 0 .636-.287c.191-.128.346-.287.464-.479.119-.196.178-.423.178-.683 0-.274-.066-.506-.198-.697a1.49 1.49 0 0 0-.54-.479 2.59 2.59 0 0 0-.779-.267 4.656 4.656 0 0 0-.923-.088h-.766v-1.47h.766c.278 0 .549-.032.813-.096.269-.064.506-.157.711-.28a1.55 1.55 0 0 0 .499-.472c.128-.191.191-.412.191-.663 0-.196-.041-.371-.123-.526a1.142 1.142 0 0 0-.348-.404 1.613 1.613 0 0 0-.527-.252c-.2-.06-.419-.089-.656-.089-.146 0-.303.013-.471.041a2.229 2.229 0 0 0-.499.13 2.514 2.514 0 0 0-.486.239c-.159.1-.307.225-.444.376l-1.067-1.162c.178-.215.383-.399.616-.554.237-.155.487-.283.752-.383.264-.105.537-.18.82-.225.287-.051.572-.076.854-.076.483 0 .923.066 1.32.199.401.132.745.316 1.032.553.287.237.51.52.67.848.159.324.239.679.239 1.066a2.384 2.384 0 0 1-.478 1.456c-.142.196-.303.37-.486.52a3.114 3.114 0 0 1-.56.362c.314.11.585.253.813.431.233.173.424.371.574.595.151.223.262.462.335.717.073.256.11.518.11.787a2.587 2.587 0 0 1-.568 1.647 2.963 2.963 0 0 1-.629.588 4.192 4.192 0 0 1-1.633.67 4.653 4.653 0 0 1-2.051-.055 5.698 5.698 0 0 1-.943-.355 4.702 4.702 0 0 1-.705-.424 7.607 7.607 0 0 1-.458-.376l.964-1.313c.31.31.661.559 1.053.746a2.92 2.92 0 0 0 1.23.273Z"/>
    <circle cx="496" cy="364" r="2" fill="var(--control-color-visuals-guide-fill, #36F)" transform="rotate(-90 496 364)"/>
  </g>
  <defs>
    <clipPath id="anatomy-a">
      <path fill="white" d="M0 0h320v224H0z"/>
    </clipPath>
    <clipPath id="anatomy-b">
      <path fill="white" d="M336 0h320v224H336z"/>
    </clipPath>
    <clipPath id="anatomy-c">
      <path fill="white" d="M0 240h320v224H0z"/>
    </clipPath>
    <clipPath id="anatomy-d">
      <path fill="white" d="M336 240h320v224H336z"/>
    </clipPath>
  </defs>
</svg>
