<svg width="262" height="220" viewBox="0 0 262 220" fill="none" xmlns="http://www.w3.org/2000/svg">
<path fill-rule="evenodd" clip-rule="evenodd" d="M162.303 22.4461C184.823 25.7901 204.429 36.4669 219.092 51.6821C222.292 48.6247 226.83 47.0244 231.558 47.7171C239.702 48.9352 245.314 56.507 244.12 64.652C243.379 69.5963 240.299 73.6091 236.167 75.7349C245.099 93.3864 248.872 113.88 245.743 134.947C243.188 152.193 236.31 167.742 226.4 180.664C232.943 185.179 236.716 193.18 235.475 201.588C233.731 213.364 222.77 221.509 210.973 219.765C203.594 218.666 197.647 213.961 194.662 207.679C176.536 217.448 155.211 221.652 133.264 218.404C82.6125 210.904 46.6478 166.261 48.8448 116.197C33.0118 108.315 23.3161 90.9023 26.0385 72.4865C29.4296 49.5563 50.7792 33.744 73.6811 37.1357C78.6961 37.8762 83.3767 39.4765 87.6037 41.7934C108.117 26.1006 134.721 18.3855 162.303 22.47V22.4461ZM239.319 27.2232C237.122 26.8888 235.093 28.4175 234.758 30.5911C234.424 32.7886 235.952 34.8188 238.125 35.1532C240.322 35.4876 242.352 33.959 242.687 31.7854C243.021 29.5879 241.493 27.5576 239.319 27.2232ZM48.7732 166.429C44.0209 165.712 39.579 169.008 38.8865 173.761C38.17 178.515 41.4656 182.957 46.2179 183.65C50.9702 184.367 55.4121 181.07 56.1047 176.317C56.8211 171.564 53.5255 167.121 48.7732 166.429ZM220 26.435C215.749 25.814 211.809 28.728 211.188 32.9797C210.567 37.2313 213.48 41.1724 217.731 41.7934C221.982 42.4145 225.922 39.5004 226.543 35.2488C227.164 30.9971 224.251 27.056 220 26.435ZM90.0873 7.78033C83.2096 6.75325 76.8333 11.5065 75.8065 18.3855C74.7796 25.2646 79.5319 31.6421 86.4096 32.6691C93.2873 33.6962 99.6636 28.943 100.69 22.0639C101.717 15.1849 96.965 8.80741 90.0873 7.78033ZM24.7489 123.506C13.3577 121.81 2.75457 129.693 1.05902 141.086C-0.636528 152.479 7.24419 163.085 18.6354 164.78C30.0266 166.476 40.6298 158.594 42.3253 147.201C44.0209 135.807 36.1402 125.202 24.7489 123.506Z" fill="#EAF4FF"/>
<path fill-rule="evenodd" clip-rule="evenodd" d="M144.058 191.962C79.3887 191.962 26.946 193.825 26.946 196.118C26.946 198.411 79.3648 200.274 144.058 200.274C208.752 200.274 261.171 198.411 261.171 196.118C261.171 193.825 208.752 191.962 144.058 191.962Z" fill="#B6D8F8"/>
<path fill-rule="evenodd" clip-rule="evenodd" d="M211.57 151.858C212.167 150.831 212.859 149.852 213.647 148.968L211.522 145.887C211.355 145.648 211.403 145.313 211.618 145.146L214.364 142.925C214.579 142.734 214.913 142.758 215.104 142.973L217.683 145.696C218.71 145.098 219.785 144.621 220.907 144.239L220.597 140.512C220.597 140.226 220.764 139.963 221.051 139.915L224.537 139.366C224.824 139.318 225.086 139.509 225.158 139.772L226.042 143.426C227.236 143.426 228.406 143.546 229.576 143.785L231.176 140.393C231.295 140.13 231.606 140.011 231.869 140.106L235.164 141.372C235.427 141.468 235.57 141.778 235.499 142.041L234.448 145.648C235.475 146.245 236.43 146.938 237.313 147.726L240.394 145.6C240.633 145.433 240.967 145.481 241.134 145.696L243.355 148.442C243.546 148.657 243.523 148.992 243.308 149.183L240.585 151.763C241.182 152.79 241.66 153.865 242.018 154.987L245.743 154.677C246.03 154.653 246.293 154.844 246.34 155.13L246.89 158.618C246.938 158.904 246.746 159.167 246.484 159.239L242.83 160.123C242.83 161.317 242.711 162.487 242.472 163.658L245.863 165.258C246.126 165.377 246.245 165.688 246.149 165.951L244.884 169.247C244.788 169.51 244.478 169.653 244.215 169.581L240.609 168.53C240.012 169.557 239.319 170.513 238.555 171.397L240.681 174.478C240.848 174.717 240.8 175.051 240.585 175.218L237.839 177.44C237.624 177.631 237.29 177.607 237.075 177.392L234.496 174.669C233.469 175.266 232.394 175.744 231.272 176.126L231.558 179.876C231.558 180.163 231.367 180.425 231.104 180.473L227.618 181.022C227.331 181.07 227.069 180.879 226.997 180.593L226.137 176.962C224.943 176.962 223.773 176.842 222.603 176.604L220.979 179.995C220.859 180.258 220.549 180.378 220.286 180.282L216.991 179.016C216.728 178.921 216.585 178.61 216.656 178.347L217.731 174.764C216.704 174.167 215.749 173.475 214.865 172.686L211.785 174.812C211.546 174.979 211.212 174.932 211.044 174.717L208.823 171.97C208.632 171.755 208.656 171.42 208.871 171.205L211.594 168.626C210.997 167.599 210.519 166.524 210.137 165.401L206.388 165.688C206.101 165.688 205.838 165.521 205.791 165.234L205.241 161.747C205.194 161.46 205.385 161.197 205.671 161.126L209.301 160.266C209.301 159.072 209.42 157.901 209.659 156.731L206.268 155.13C206.006 155.011 205.886 154.701 205.982 154.438L207.247 151.142C207.343 150.879 207.653 150.735 207.916 150.807L211.498 151.882L211.57 151.858ZM233.11 159.072C232.49 155.202 228.86 152.575 224.991 153.196C221.122 153.817 218.495 157.447 219.116 161.317C219.737 165.186 223.367 167.814 227.236 167.193C231.104 166.572 233.731 162.941 233.11 159.072Z" fill="#B6D8F8"/>
<path fill-rule="evenodd" clip-rule="evenodd" d="M74.7556 169.128C75.2571 168.268 75.8302 167.456 76.4989 166.715L74.7078 164.135C74.5646 163.944 74.6123 163.658 74.8034 163.514L77.0959 161.651C77.287 161.508 77.5497 161.508 77.7168 161.699L79.89 163.968C80.7497 163.467 81.6572 163.061 82.5886 162.75L82.3259 159.621C82.3259 159.382 82.4692 159.167 82.708 159.119L85.6214 158.642C85.8602 158.594 86.0991 158.761 86.1468 159L86.8871 162.057C87.8663 162.057 88.8693 162.153 89.8245 162.368L91.1618 159.526C91.2574 159.311 91.52 159.191 91.7589 159.287L94.5052 160.338C94.744 160.433 94.8634 160.672 94.7917 160.911L93.9081 163.92C94.7679 164.422 95.5798 164.995 96.3201 165.664L98.8993 163.873C99.0903 163.729 99.3769 163.777 99.5202 163.968L101.383 166.261C101.526 166.452 101.526 166.715 101.335 166.882L99.0664 169.056C99.5679 169.916 99.9739 170.823 100.284 171.755L103.413 171.492C103.652 171.492 103.866 171.636 103.914 171.874L104.392 174.788C104.44 175.027 104.272 175.266 104.034 175.314L100.977 176.054C100.977 177.034 100.881 178.037 100.666 178.992L103.508 180.33C103.723 180.425 103.843 180.688 103.747 180.903L102.696 183.65C102.601 183.889 102.362 184.008 102.123 183.937L99.1142 183.053C98.6127 183.913 98.0395 184.701 97.3948 185.441L99.1858 188.021C99.3291 188.212 99.2814 188.499 99.0903 188.642L96.7977 190.505C96.6067 190.648 96.344 190.648 96.1768 190.457L94.0275 188.188C93.1678 188.69 92.2604 189.096 91.329 189.406L91.5678 192.535C91.5678 192.774 91.4245 192.989 91.1857 193.037L88.2722 193.515C88.0334 193.563 87.7946 193.395 87.7469 193.156L87.0304 190.099C86.0513 190.099 85.0483 190.004 84.0931 189.789L82.7557 192.631C82.6602 192.846 82.3975 192.941 82.1826 192.87L79.4363 191.819C79.1975 191.723 79.0781 191.484 79.1497 191.246L80.0333 188.236C79.1736 187.734 78.3616 187.161 77.6213 186.492L75.0422 188.284C74.8511 188.427 74.5646 188.379 74.4213 188.188L72.5586 185.895C72.4153 185.704 72.4153 185.441 72.6063 185.274L74.875 183.125C74.3735 182.265 73.9675 181.357 73.6571 180.425L70.5287 180.664C70.2899 180.664 70.0749 180.521 70.0272 180.282L69.5496 177.368C69.5018 177.129 69.669 176.89 69.9078 176.843L72.9645 176.126C72.9645 175.147 73.0601 174.144 73.275 173.188L70.4331 171.827C70.2182 171.731 70.1227 171.468 70.1943 171.253L71.2451 168.507C71.3406 168.268 71.5794 168.148 71.8182 168.22L74.8272 169.104L74.7556 169.128ZM92.7857 175.171C92.2603 171.946 89.2275 169.749 86.0035 170.25C82.7796 170.776 80.5826 173.809 81.0841 177.034C81.6094 180.258 84.6423 182.456 87.8663 181.954C91.0902 181.429 93.2872 178.395 92.7857 175.171Z" fill="#B6D8F8"/>
<path fill-rule="evenodd" clip-rule="evenodd" d="M21.7399 123.291C22.122 122.622 22.5757 122.001 23.0772 121.428L21.6921 119.445C21.5966 119.302 21.6205 119.087 21.7637 118.968L23.5309 117.534C23.6742 117.415 23.8891 117.439 24.0085 117.558L25.6802 119.302C26.3489 118.92 27.0414 118.609 27.7579 118.37L27.5668 115.958C27.5668 115.767 27.6862 115.6 27.8773 115.576L30.1221 115.218C30.3131 115.194 30.4803 115.313 30.528 115.48L31.1012 117.821C31.8654 117.821 32.6296 117.893 33.3699 118.06L34.3968 115.862C34.4684 115.695 34.6833 115.624 34.8505 115.671L36.9759 116.484C37.1431 116.555 37.2386 116.746 37.1908 116.913L36.4983 119.23C37.167 119.613 37.7879 120.066 38.361 120.568L40.3431 119.183C40.4864 119.087 40.7013 119.111 40.8207 119.254L42.2536 121.022C42.373 121.165 42.3491 121.38 42.2297 121.499L40.4864 123.171C40.8685 123.84 41.179 124.533 41.4178 125.25L43.8298 125.058C44.0208 125.058 44.188 125.178 44.2118 125.369L44.5701 127.614C44.5939 127.805 44.4745 127.972 44.3074 128.02L41.967 128.594C41.967 129.358 41.8954 130.122 41.7282 130.863L43.9014 131.89C44.0686 131.961 44.1402 132.176 44.0924 132.344L43.2805 134.469C43.2088 134.637 43.0178 134.732 42.8506 134.684L40.5342 133.992C40.1521 134.66 39.6983 135.281 39.1968 135.831L40.5581 137.813C40.6536 137.957 40.6297 138.172 40.4864 138.291L38.7192 139.724C38.5759 139.844 38.361 139.82 38.2416 139.7L36.5699 137.933C35.9013 138.315 35.2087 138.625 34.4923 138.864L34.6833 141.277C34.6833 141.468 34.5639 141.635 34.3729 141.659L32.1281 142.017C31.937 142.041 31.7699 141.922 31.7221 141.754L31.1728 139.414C30.4086 139.414 29.6445 139.342 28.9041 139.175L27.8534 141.372C27.7817 141.54 27.5668 141.611 27.3996 141.563L25.2742 140.751C25.1071 140.68 25.0115 140.489 25.0593 140.321L25.7519 138.004C25.0832 137.622 24.4623 137.168 23.8891 136.667L21.907 138.028C21.7637 138.124 21.5488 138.1 21.4294 137.957L19.9965 136.189C19.8771 136.046 19.901 135.831 20.0204 135.711L21.7876 134.039C21.4055 133.371 21.0951 132.678 20.8563 131.961L18.4443 132.152C18.2532 132.152 18.0861 132.033 18.0622 131.842L17.704 129.597C17.6801 129.406 17.7995 129.238 17.9667 129.191L20.307 128.641C20.307 127.877 20.3786 127.113 20.5458 126.372L18.3488 125.321C18.1816 125.25 18.1099 125.035 18.1577 124.867L18.9697 122.742C19.0413 122.574 19.2324 122.479 19.3995 122.527L21.716 123.219L21.7399 123.291ZM35.6386 127.949C35.2326 125.464 32.8923 123.769 30.4086 124.151C27.925 124.557 26.2295 126.898 26.6116 129.382C27.0175 131.866 29.3579 133.562 31.8415 133.18C34.3251 132.773 36.0207 130.433 35.6386 127.949Z" fill="#B6D8F8"/>
<path fill-rule="evenodd" clip-rule="evenodd" d="M239.606 127.829C239.94 127.256 240.322 126.707 240.776 126.205L239.582 124.461C239.487 124.318 239.51 124.151 239.63 124.031L241.182 122.789C241.302 122.694 241.493 122.694 241.612 122.813L243.069 124.342C243.642 124.008 244.263 123.745 244.884 123.53L244.716 121.428C244.716 121.261 244.812 121.117 244.979 121.094L246.937 120.783C247.105 120.759 247.248 120.855 247.296 121.022L247.797 123.076C248.466 123.076 249.134 123.148 249.779 123.291L250.687 121.38C250.758 121.237 250.926 121.165 251.069 121.213L252.932 121.929C253.075 121.977 253.17 122.144 253.123 122.312L252.526 124.342C253.099 124.676 253.648 125.059 254.149 125.512L255.893 124.318C256.036 124.223 256.203 124.246 256.323 124.366L257.564 125.918C257.66 126.038 257.66 126.229 257.541 126.348L256.012 127.805C256.347 128.379 256.609 129 256.824 129.621L258.926 129.453C259.093 129.453 259.236 129.549 259.26 129.716L259.57 131.675C259.594 131.842 259.499 131.985 259.332 132.033L257.278 132.535C257.278 133.204 257.206 133.872 257.063 134.517L258.973 135.425C259.117 135.497 259.188 135.664 259.141 135.807L258.424 137.67C258.376 137.813 258.209 137.909 258.042 137.861L256.012 137.264C255.678 137.837 255.296 138.387 254.842 138.864L256.036 140.608C256.132 140.751 256.108 140.919 255.964 141.038L254.412 142.28C254.293 142.376 254.102 142.376 253.982 142.256L252.526 140.727C251.952 141.062 251.332 141.325 250.711 141.54L250.878 143.642C250.878 143.809 250.782 143.952 250.615 143.976L248.657 144.286C248.49 144.31 248.346 144.215 248.299 144.048L247.821 141.993C247.152 141.993 246.484 141.922 245.839 141.778L244.931 143.689C244.86 143.833 244.693 143.904 244.549 143.856L242.687 143.14C242.543 143.092 242.448 142.925 242.496 142.758L243.093 140.727C242.519 140.393 241.97 140.011 241.469 139.557L239.725 140.751C239.582 140.847 239.415 140.823 239.296 140.704L238.054 139.151C237.958 139.032 237.958 138.841 238.078 138.721L239.606 137.264C239.272 136.691 239.009 136.07 238.794 135.449L236.692 135.616C236.525 135.616 236.382 135.52 236.358 135.353L236.048 133.395C236.024 133.227 236.119 133.084 236.287 133.036L238.34 132.559C238.34 131.89 238.412 131.221 238.555 130.576L236.645 129.668C236.501 129.597 236.43 129.43 236.478 129.286L237.194 127.423C237.242 127.28 237.409 127.184 237.576 127.232L239.606 127.829ZM251.737 131.89C251.379 129.716 249.349 128.235 247.176 128.57C245.003 128.928 243.522 130.958 243.857 133.132C244.215 135.305 246.245 136.786 248.418 136.452C250.591 136.094 252.072 134.063 251.737 131.89Z" fill="#B6D8F8"/>
<path fill-rule="evenodd" clip-rule="evenodd" d="M220.382 111.826C220.597 111.468 220.836 111.109 221.122 110.799L220.358 109.7C220.358 109.7 220.31 109.509 220.406 109.437L221.385 108.649C221.385 108.649 221.576 108.601 221.648 108.649L222.579 109.629C222.937 109.414 223.343 109.246 223.725 109.103L223.606 107.765C223.606 107.765 223.677 107.574 223.773 107.551L225.015 107.359C225.015 107.359 225.206 107.407 225.23 107.503L225.54 108.816C225.97 108.816 226.376 108.864 226.806 108.936L227.379 107.718C227.379 107.718 227.522 107.574 227.618 107.622L228.788 108.076C228.788 108.076 228.931 108.219 228.907 108.315L228.525 109.605C228.883 109.82 229.242 110.059 229.552 110.345L230.651 109.581C230.651 109.581 230.842 109.533 230.913 109.629L231.701 110.608C231.701 110.608 231.749 110.799 231.701 110.871L230.722 111.802C230.937 112.16 231.104 112.566 231.248 112.949L232.585 112.829C232.585 112.829 232.776 112.901 232.8 112.996L232.991 114.238C232.991 114.238 232.943 114.43 232.848 114.453L231.558 114.764C231.558 115.194 231.51 115.6 231.415 116.03L232.633 116.603C232.633 116.603 232.776 116.746 232.728 116.842L232.275 118.012C232.275 118.012 232.131 118.156 232.036 118.132L230.746 117.75C230.531 118.108 230.292 118.466 230.006 118.777L230.77 119.875C230.77 119.875 230.818 120.067 230.722 120.138L229.743 120.926C229.743 120.926 229.552 120.974 229.481 120.926L228.549 119.947C228.191 120.162 227.785 120.329 227.403 120.473L227.498 121.81C227.498 121.81 227.427 122.001 227.331 122.025L226.089 122.216C226.089 122.216 225.898 122.169 225.874 122.073L225.564 120.783C225.134 120.783 224.728 120.735 224.298 120.664L223.725 121.882C223.725 121.882 223.582 122.025 223.486 121.977L222.316 121.524C222.316 121.524 222.173 121.38 222.197 121.285L222.579 119.995C222.221 119.78 221.862 119.541 221.552 119.254L220.454 120.019C220.454 120.019 220.262 120.067 220.191 119.971L219.403 118.992C219.403 118.992 219.355 118.801 219.403 118.729L220.382 117.797C220.167 117.439 220 117.057 219.856 116.651L218.519 116.746C218.519 116.746 218.328 116.675 218.304 116.579L218.113 115.337C218.113 115.337 218.161 115.146 218.256 115.122L219.546 114.812C219.546 114.382 219.594 113.976 219.665 113.546L218.447 112.973C218.447 112.973 218.304 112.829 218.352 112.734L218.806 111.563C218.806 111.563 218.949 111.42 219.045 111.444L220.334 111.826H220.382ZM228.072 114.406C227.857 113.02 226.543 112.089 225.182 112.304C223.797 112.519 222.865 113.832 223.08 115.194C223.295 116.579 224.609 117.511 225.97 117.296C227.355 117.081 228.286 115.767 228.072 114.406Z" fill="#B6D8F8"/>
<path fill-rule="evenodd" clip-rule="evenodd" d="M19.1607 162.416C19.3756 162.057 19.6144 161.699 19.901 161.389L19.1368 160.29C19.1368 160.29 19.0891 160.099 19.1846 160.027L20.1637 159.239C20.1637 159.239 20.3548 159.191 20.4264 159.239L21.3578 160.218C21.716 160.003 22.0981 159.836 22.504 159.693L22.3846 158.355C22.3846 158.355 22.4563 158.164 22.5518 158.14L23.7936 157.949C23.7936 157.949 23.9847 157.997 24.0085 158.092L24.319 159.382C24.7489 159.382 25.1548 159.43 25.5847 159.502L26.1578 158.283C26.1578 158.283 26.3011 158.14 26.3966 158.188L27.5668 158.642C27.5668 158.642 27.7101 158.785 27.6862 158.881L27.3041 160.17C27.6623 160.385 28.0205 160.624 28.331 160.911L29.4295 160.147C29.4295 160.147 29.6206 160.099 29.6922 160.194L30.4803 161.174C30.4803 161.174 30.528 161.365 30.4803 161.436L29.5012 162.368C29.7161 162.726 29.8833 163.132 30.0265 163.514L31.3639 163.395C31.3639 163.395 31.5549 163.467 31.5788 163.562L31.7699 164.804C31.7699 164.804 31.7221 164.995 31.6266 165.019L30.337 165.33C30.337 165.76 30.2892 166.166 30.1937 166.596L31.4116 167.169C31.4116 167.169 31.5549 167.312 31.5072 167.408L31.0534 168.578C31.0534 168.578 30.9101 168.721 30.8146 168.698L29.525 168.315C29.3101 168.674 29.0713 169.032 28.7847 169.343L29.5489 170.441C29.5489 170.441 29.5967 170.632 29.5012 170.704L28.522 171.492C28.522 171.492 28.331 171.54 28.2594 171.492L27.3519 170.513C26.9937 170.728 26.5877 170.895 26.2056 171.038L26.3011 172.376C26.3011 172.376 26.2295 172.567 26.1339 172.591L24.8921 172.782C24.8921 172.782 24.7011 172.734 24.6772 172.639L24.3668 171.349C23.9369 171.349 23.5309 171.301 23.1011 171.229L22.5279 172.448C22.5279 172.448 22.3846 172.591 22.2891 172.543L21.1189 172.089C21.1189 172.089 20.9757 171.946 20.9995 171.851L21.3816 170.561C21.0234 170.346 20.6652 170.107 20.3548 169.82L19.2562 170.585C19.2562 170.585 19.0652 170.632 18.9935 170.537L18.2055 169.557C18.2055 169.557 18.1577 169.366 18.2055 169.295L19.1846 168.363C18.9697 168.005 18.8025 167.599 18.6592 167.217L17.3219 167.312C17.3219 167.312 17.1308 167.241 17.1069 167.145L16.9159 165.903C16.9159 165.903 16.9637 165.712 17.0592 165.688L18.3488 165.378C18.3488 164.948 18.3965 164.542 18.4682 164.112L17.2502 163.538C17.2502 163.538 17.1069 163.395 17.1547 163.299L17.6084 162.129C17.6084 162.129 17.7517 161.986 17.8473 162.01L19.1368 162.392L19.1607 162.416ZM26.8504 164.995C26.6354 163.61 25.322 162.678 23.9608 162.893C22.5757 163.108 21.6443 164.422 21.8593 165.784C22.0742 167.169 23.3876 168.1 24.7489 167.886C26.134 167.671 27.0653 166.357 26.8504 164.995Z" fill="#B6D8F8"/>
<path fill-rule="evenodd" clip-rule="evenodd" d="M218.185 43.4176C218.4 43.0593 218.639 42.701 218.925 42.3905L218.161 41.2918C218.161 41.2918 218.113 41.1007 218.209 41.029L219.188 40.2408C219.188 40.2408 219.379 40.193 219.451 40.2408L220.382 41.2201C220.74 41.0051 221.122 40.8379 221.528 40.6946L221.409 39.357C221.409 39.357 221.48 39.1659 221.576 39.142L222.818 38.951C222.818 38.951 223.009 38.9987 223.033 39.0943L223.343 40.3841C223.773 40.3841 224.179 40.4319 224.609 40.5274L225.182 39.3092C225.182 39.3092 225.325 39.1659 225.421 39.2137L226.591 39.6675C226.591 39.6675 226.734 39.8108 226.71 39.9064L226.328 41.1962C226.686 41.4112 227.045 41.65 227.355 41.9367L228.454 41.1723C228.454 41.1723 228.645 41.1246 228.716 41.2201L229.504 42.1994C229.504 42.1994 229.552 42.3905 229.504 42.4621L228.525 43.3937C228.74 43.752 228.907 44.158 229.051 44.5402L230.388 44.4208C230.388 44.4208 230.579 44.4924 230.603 44.588L230.794 45.83C230.794 45.83 230.746 46.0211 230.651 46.045L229.361 46.3555C229.361 46.7854 229.313 47.1915 229.218 47.6214L230.436 48.1947C230.436 48.1947 230.579 48.338 230.531 48.4336L230.078 49.6039C230.078 49.6039 229.934 49.7473 229.839 49.7234L228.549 49.3412C228.334 49.6995 228.095 50.0578 227.809 50.3683L228.573 51.467C228.573 51.467 228.621 51.6581 228.525 51.7298L227.546 52.518C227.546 52.518 227.355 52.5658 227.283 52.518L226.352 51.5387C225.994 51.7537 225.612 51.9208 225.206 52.0642L225.301 53.4018C225.301 53.4018 225.23 53.5928 225.134 53.6167L223.892 53.8078C223.892 53.8078 223.701 53.76 223.677 53.6645L223.367 52.3747C222.937 52.3747 222.531 52.3269 222.101 52.2552L221.528 53.4734C221.528 53.4734 221.385 53.6167 221.289 53.569L220.119 53.1151C220.119 53.1151 219.976 52.9718 220 52.8763L220.382 51.5865C220.024 51.3715 219.665 51.1326 219.355 50.846L218.256 51.6103C218.256 51.6103 218.065 51.6581 217.994 51.5626L217.206 50.5833C217.206 50.5833 217.158 50.3922 217.206 50.3205L218.185 49.389C217.97 49.0307 217.803 48.6485 217.659 48.2425L216.322 48.338C216.322 48.338 216.131 48.2664 216.107 48.1708L215.916 46.9288C215.916 46.9288 215.964 46.7377 216.059 46.7138L217.349 46.4033C217.349 45.9733 217.397 45.5673 217.468 45.1373L216.25 44.5641C216.25 44.5641 216.107 44.4208 216.155 44.3252L216.609 43.1548C216.609 43.1548 216.752 43.0115 216.847 43.0354L218.137 43.4176H218.185ZM225.874 45.9972C225.66 44.6119 224.346 43.6803 222.985 43.8953C221.6 44.1103 220.668 45.424 220.883 46.7854C221.098 48.1708 222.412 49.1023 223.773 48.8874C225.158 48.6724 226.089 47.3587 225.874 45.9972Z" fill="#B6D8F8"/>
<path fill-rule="evenodd" clip-rule="evenodd" d="M49.8001 95.0105C49.9434 94.7478 50.1105 94.5089 50.3016 94.294L49.7762 93.5296C49.7762 93.5296 49.7523 93.3863 49.8001 93.3386L50.4687 92.7892C50.4687 92.7892 50.612 92.7414 50.6598 92.7892L51.3046 93.458C51.5434 93.3147 51.8299 93.1952 52.0926 93.0997L52.021 92.192C52.021 92.192 52.0688 92.0487 52.1404 92.0487L53.0001 91.9054C53.0001 91.9054 53.1434 91.9293 53.1434 92.001L53.3583 92.8847C53.6449 92.8847 53.9315 92.9086 54.218 92.9803L54.6001 92.1443C54.6001 92.1443 54.6957 92.0487 54.7673 92.0726L55.5793 92.3831C55.5793 92.3831 55.6748 92.4787 55.6509 92.5503L55.3882 93.4341C55.6509 93.5774 55.8658 93.7446 56.0808 93.9357L56.8449 93.4102C56.8449 93.4102 56.9882 93.3863 57.036 93.4341L57.5853 94.1029C57.5853 94.1029 57.633 94.2462 57.5853 94.294L56.9166 94.9389C57.0599 95.1777 57.1793 95.4644 57.2748 95.7271L58.1823 95.6555C58.1823 95.6555 58.3256 95.7032 58.3256 95.7749L58.4689 96.6348C58.4689 96.6348 58.445 96.7781 58.3733 96.7781L57.4897 96.993C57.4897 97.2797 57.4659 97.5663 57.3942 97.8529L58.23 98.2351C58.23 98.2351 58.3256 98.3306 58.3017 98.4023L57.9912 99.2144C57.9912 99.2144 57.8957 99.31 57.8241 99.2861L56.9405 99.0233C56.7972 99.2861 56.63 99.501 56.439 99.716L56.9644 100.48C56.9644 100.48 56.9882 100.624 56.9405 100.671L56.2718 101.221C56.2718 101.221 56.1285 101.269 56.0808 101.221L55.4599 100.552C55.1972 100.695 54.9345 100.815 54.6718 100.91L54.7434 101.818C54.7434 101.818 54.6957 101.961 54.624 101.961L53.7643 102.105C53.7643 102.105 53.621 102.081 53.621 102.009L53.4061 101.125C53.1195 101.125 52.8329 101.101 52.5464 101.03L52.1404 101.866C52.1404 101.866 52.0449 101.961 51.9732 101.937L51.1613 101.627C51.1613 101.627 51.0658 101.531 51.0896 101.46L51.3523 100.576C51.0896 100.433 50.8747 100.265 50.6359 100.074L49.8717 100.6C49.8717 100.6 49.7284 100.624 49.6807 100.576L49.1314 99.9071C49.1314 99.9071 49.0836 99.7638 49.1314 99.716L49.8001 99.095C49.6568 98.8322 49.5374 98.5695 49.4419 98.3068L48.5344 98.3784C48.5344 98.3784 48.3911 98.3306 48.3911 98.259L48.2478 97.3991C48.2478 97.3991 48.2717 97.2558 48.3433 97.2558L49.2269 97.0408C49.2269 96.7542 49.2508 96.4676 49.3224 96.1809L48.4866 95.7749C48.4866 95.7749 48.3911 95.6793 48.415 95.6077L48.7254 94.7956C48.7254 94.7956 48.8209 94.7 48.8926 94.7239L49.7762 94.9867L49.8001 95.0105ZM55.0778 96.7781C54.9345 95.8227 54.027 95.1777 53.0956 95.3449C52.1404 95.4882 51.4956 96.3959 51.6628 97.3274C51.8061 98.2829 52.7135 98.9278 53.6449 98.7606C54.6001 98.6173 55.2449 97.7096 55.0778 96.7781Z" fill="#B6D8F8"/>
<path fill-rule="evenodd" clip-rule="evenodd" d="M99.3053 43.0354C99.6635 42.3905 100.093 41.7933 100.595 41.244L99.2814 39.3331C99.1859 39.1898 99.2097 38.9748 99.353 38.8793L101.049 37.5178C101.192 37.3984 101.383 37.4223 101.502 37.5417L103.102 39.2137C103.723 38.8554 104.392 38.5449 105.108 38.3299L104.917 36.013C104.917 35.8219 105.037 35.6786 105.204 35.6547L107.353 35.3203C107.52 35.2964 107.687 35.4159 107.735 35.5831L108.285 37.8283C109.025 37.8283 109.741 37.9 110.458 38.0672L111.437 35.9652C111.508 35.798 111.699 35.7264 111.867 35.798L113.897 36.5863C114.064 36.6579 114.159 36.8251 114.111 36.9923L113.467 39.2137C114.111 39.572 114.685 40.0019 115.234 40.5035L117.12 39.1898C117.264 39.0942 117.479 39.1181 117.574 39.2614L118.935 40.9573C119.055 41.1006 119.031 41.2917 118.912 41.4112L117.24 43.0115C117.598 43.6325 117.909 44.3252 118.123 45.0179L120.44 44.8268C120.607 44.8268 120.774 44.9462 120.798 45.1134L121.132 47.2631C121.156 47.4303 121.037 47.5975 120.87 47.6453L118.625 48.1947C118.625 48.9351 118.553 49.6517 118.386 50.3683L120.488 51.3476C120.655 51.4192 120.727 51.6103 120.655 51.7775L119.891 53.8078C119.819 53.975 119.652 54.0705 119.485 54.0228L117.264 53.3778C116.906 53.9989 116.476 54.596 115.998 55.1454L117.312 57.0562C117.407 57.1995 117.383 57.4145 117.24 57.5101L115.544 58.8715C115.401 58.991 115.21 58.9671 115.091 58.8476L113.491 57.1757C112.87 57.5339 112.201 57.8445 111.485 58.0594L111.676 60.3763C111.676 60.5435 111.556 60.7107 111.389 60.7346L109.24 61.069C109.073 61.0929 108.905 60.9735 108.858 60.8063L108.332 58.561C107.592 58.561 106.876 58.4894 106.159 58.3461L105.156 60.448C105.084 60.6152 104.893 60.6868 104.726 60.6152L102.696 59.8508C102.529 59.7792 102.434 59.612 102.481 59.4209L103.15 57.1995C102.505 56.8413 101.908 56.4113 101.383 55.9097L99.4724 57.2234C99.3292 57.319 99.1142 57.2951 99.0187 57.1518L97.6575 55.4559C97.5381 55.3126 97.562 55.1215 97.6814 55.0021L99.353 53.4017C98.9948 52.7807 98.6844 52.1119 98.4694 51.3953L96.153 51.5864C95.9858 51.5864 95.8187 51.467 95.7948 51.2998L95.4604 49.1501C95.4366 48.9829 95.556 48.8157 95.7231 48.7679L97.9679 48.2424C97.9679 47.502 98.0396 46.7854 98.1829 46.0688L96.0813 45.0657C95.9142 44.994 95.8425 44.8029 95.9142 44.6357L96.7023 42.6054C96.7739 42.4382 96.9411 42.3427 97.1082 42.3905L99.3292 43.0593L99.3053 43.0354ZM112.607 47.502C112.225 45.1134 109.98 43.4892 107.592 43.8714C105.204 44.2535 103.58 46.4988 103.962 48.8873C104.344 51.2759 106.589 52.9001 108.977 52.518C111.365 52.1358 112.989 49.8905 112.607 47.502Z" fill="#B6D8F8"/>
<path fill-rule="evenodd" clip-rule="evenodd" d="M99.9978 187.83C108.953 192.989 118.792 196.333 129.061 197.599C138.924 198.817 148.978 198.125 158.578 195.545C178.423 190.218 195.187 177.368 205.456 159.573C210.614 150.616 213.958 140.775 215.224 130.504C216.441 120.64 215.749 110.584 213.17 100.982C207.844 81.1328 194.996 64.3651 177.205 54.0943C168.25 48.935 158.411 45.591 148.142 44.3251C138.279 43.1069 128.225 43.7996 118.625 46.3792C98.7799 51.7057 82.0155 64.5562 71.7467 82.351C66.5884 91.3081 63.245 101.149 61.9793 111.42C60.7614 121.285 61.454 131.34 64.0331 140.942C69.3586 160.791 82.2065 177.559 99.9978 187.83Z" fill="#B6D8F8"/>
<path fill-rule="evenodd" clip-rule="evenodd" d="M205.026 82.5659C183.844 45.8776 136.918 33.2899 100.237 54.4764C63.5316 75.6629 50.9702 122.598 72.1526 159.286C93.335 195.975 140.261 208.562 176.942 187.376C213.647 166.189 226.209 119.254 205.026 82.5659Z" fill="white"/>
<path fill-rule="evenodd" clip-rule="evenodd" d="M170.518 103.824C160.345 86.1965 137.801 80.1534 120.177 90.3287C102.553 100.504 96.5112 123.052 106.684 140.68C116.858 158.307 139.401 164.35 157.026 154.175C174.65 144 180.692 121.452 170.518 103.824ZM158.721 110.631C165.145 121.738 161.324 135.95 150.219 142.375C139.115 148.801 124.906 144.979 118.482 133.872C112.058 122.765 115.879 108.553 126.983 102.128C138.088 95.703 152.297 99.5247 158.721 110.631Z" fill="#FFB4B8"/>
<path fill-rule="evenodd" clip-rule="evenodd" d="M170.518 102.51C160.345 84.8829 137.801 78.8398 120.177 89.0151C102.553 99.1904 96.5112 121.738 106.684 139.366C116.858 156.994 139.401 163.037 157.026 152.861C174.65 142.686 180.692 120.138 170.518 102.51ZM158.721 109.318C165.145 120.425 161.324 134.637 150.219 141.062C139.115 147.487 124.906 143.665 118.482 132.559C112.058 121.452 115.879 107.24 126.983 100.815C138.088 94.3894 152.297 98.2111 158.721 109.318Z" fill="#FA394B"/>
<path fill-rule="evenodd" clip-rule="evenodd" d="M194.089 90.2093C176.393 59.5402 137.204 49.0544 106.541 66.7537C75.878 84.4529 65.3943 123.649 83.0901 154.318C100.786 184.987 139.975 195.473 170.638 177.774C201.301 160.075 211.785 120.878 194.089 90.2093ZM182.292 97.0167C196.238 121.165 187.951 152.025 163.808 165.975C139.664 179.924 108.81 171.635 94.8634 147.487C80.9169 123.339 89.2036 92.4785 113.347 78.5293C137.491 64.5801 168.345 72.8684 182.292 97.0167Z" fill="#FFB4B8"/>
<path fill-rule="evenodd" clip-rule="evenodd" d="M146.924 117.439C144.273 112.853 138.398 111.276 133.789 113.928C129.18 116.579 127.604 122.455 130.279 127.065C132.93 131.675 138.804 133.251 143.413 130.576C148.022 127.925 149.599 122.049 146.924 117.439Z" fill="#FFB4B8"/>
<path fill-rule="evenodd" clip-rule="evenodd" d="M194.089 88.8955C176.393 58.2263 137.204 47.7406 106.541 65.4398C75.878 83.139 65.3943 122.335 83.0901 153.004C100.786 183.674 139.975 194.159 170.638 176.46C201.301 158.761 211.785 119.565 194.089 88.8955ZM182.292 95.7029C196.238 119.851 187.951 150.711 163.808 164.661C139.664 178.61 108.81 170.322 94.8634 146.173C80.9169 122.025 89.2036 91.1646 113.347 77.2154C137.491 63.2662 168.345 71.5545 182.292 95.7029Z" fill="#FA394B"/>
<path fill-rule="evenodd" clip-rule="evenodd" d="M146.924 116.125C144.273 111.515 138.398 109.963 133.789 112.614C129.18 115.265 127.604 121.141 130.279 125.751C132.93 130.361 138.804 131.938 143.413 129.262C148.022 126.611 149.599 120.735 146.924 116.125Z" fill="#FA394B"/>
<path fill-rule="evenodd" clip-rule="evenodd" d="M146.924 116.125C144.273 111.515 138.398 109.963 133.789 112.614C129.18 115.265 127.604 121.141 130.279 125.751C132.93 130.361 138.804 131.938 143.413 129.262C148.022 126.611 149.599 120.735 146.924 116.125Z" fill="#FA394B"/>
<path fill-rule="evenodd" clip-rule="evenodd" d="M146.9 125.775C147.521 124.7 147.927 123.506 148.118 122.264C148.166 121.714 148.19 121.165 148.214 120.592C148.214 119.899 148.094 119.206 147.927 118.538L137.348 122.335L146.924 125.775H146.9Z" fill="#F10010"/>
<path fill-rule="evenodd" clip-rule="evenodd" d="M137.324 122.335L155.736 115.743L153.563 122.335L155.736 128.928L147.545 125.99C148.118 123.625 148.333 121.022 148.19 118.466L137.348 122.359L137.324 122.335Z" fill="#D2E7FC"/>
<path fill-rule="evenodd" clip-rule="evenodd" d="M215.319 120.974H151.127C150.721 120.974 150.387 121.523 150.387 122.216C150.387 122.909 150.721 123.458 151.127 123.458H215.271C215.271 122.622 215.271 121.81 215.295 120.974H215.319Z" fill="#D2E7FC"/>
<path fill-rule="evenodd" clip-rule="evenodd" d="M175.438 120.974H161.826C161.826 121.81 161.778 122.622 161.73 123.458H175.39C175.414 122.622 175.438 121.81 175.438 120.974Z" fill="#F10010"/>
<path fill-rule="evenodd" clip-rule="evenodd" d="M202.686 120.974H189.074C189.074 121.81 189.074 122.622 189.026 123.458H202.662C202.662 122.622 202.686 121.81 202.686 120.974Z" fill="#F10010"/>
<path fill-rule="evenodd" clip-rule="evenodd" d="M197.814 164.231L193.349 196.262H195.76L200.226 164.231H197.814Z" fill="#2B2468"/>
<path fill-rule="evenodd" clip-rule="evenodd" d="M198.602 164.231L194.137 196.262H196.572L201.038 164.231H198.602Z" fill="#1A1840"/>
<path fill-rule="evenodd" clip-rule="evenodd" d="M213.194 164.231H199.749L199.51 165.951H212.955L213.194 164.231Z" fill="#332A7C"/>
<path fill-rule="evenodd" clip-rule="evenodd" d="M211.593 175.672H198.148L197.91 177.392H211.355L211.593 175.672Z" fill="#332A7C"/>
<path fill-rule="evenodd" clip-rule="evenodd" d="M209.993 187.114H196.548L196.31 188.833H209.755L209.993 187.114Z" fill="#332A7C"/>
<path fill-rule="evenodd" clip-rule="evenodd" d="M213.194 164.518H199.701L199.462 166.237H212.955L213.194 164.518Z" fill="#1A1840"/>
<path fill-rule="evenodd" clip-rule="evenodd" d="M211.593 175.959H198.101L197.862 177.679H211.355L211.593 175.959Z" fill="#1A1840"/>
<path fill-rule="evenodd" clip-rule="evenodd" d="M209.994 187.424H196.501L196.262 189.12H209.755L209.994 187.424Z" fill="#1A1840"/>
<path fill-rule="evenodd" clip-rule="evenodd" d="M212.262 164.231L207.796 196.262H210.208L214.674 164.231H212.262Z" fill="#2B2468"/>
<path fill-rule="evenodd" clip-rule="evenodd" d="M213.313 164.231L208.847 196.262H211.259L215.725 164.231H213.313Z" fill="#1A1840"/>
<path fill-rule="evenodd" clip-rule="evenodd" d="M224.203 164.231L228.668 196.262H226.256L221.791 164.231H224.203Z" fill="#5A5498"/>
<path fill-rule="evenodd" clip-rule="evenodd" d="M223.415 164.231L227.88 196.262H225.468L221.003 164.231H223.415Z" fill="#2B2468"/>
<path fill-rule="evenodd" clip-rule="evenodd" d="M208.847 164.231H222.292L222.531 165.951H209.086L208.847 164.231Z" fill="#5A5498"/>
<path fill-rule="evenodd" clip-rule="evenodd" d="M210.423 175.672H223.868L224.107 177.392H210.686L210.423 175.672Z" fill="#5A5498"/>
<path fill-rule="evenodd" clip-rule="evenodd" d="M212.023 187.114H225.468L225.707 188.833H212.262L212.023 187.114Z" fill="#5A5498"/>
<path fill-rule="evenodd" clip-rule="evenodd" d="M208.847 164.518H222.316L222.555 166.237H209.086L208.847 164.518Z" fill="#332A7C"/>
<path fill-rule="evenodd" clip-rule="evenodd" d="M210.423 175.959H223.916L224.155 177.679H210.686L210.423 175.959Z" fill="#332A7C"/>
<path fill-rule="evenodd" clip-rule="evenodd" d="M212.023 187.424H225.516L225.755 189.12H212.262L212.023 187.424Z" fill="#332A7C"/>
<path fill-rule="evenodd" clip-rule="evenodd" d="M209.779 164.231L214.244 196.262H211.809L207.343 164.231H209.779Z" fill="#5A5498"/>
<path fill-rule="evenodd" clip-rule="evenodd" d="M208.704 164.231L213.17 196.262H210.758L206.292 164.231H208.704Z" fill="#2B2468"/>
<path fill-rule="evenodd" clip-rule="evenodd" d="M43.4715 190.481C43.4715 190.481 43.1371 192.822 43.4954 193.371C43.6386 193.586 43.6864 195.019 43.8297 195.664C43.8774 195.927 44.1401 195.855 44.1879 195.855C44.3789 195.855 44.4745 194.207 44.4745 194.207C44.4745 194.207 44.8804 193.73 45.7163 196.094C46.576 197.217 49.3223 197.217 49.8955 196.596C50.2537 195.019 48.6059 195.688 47.6506 192.607C47.6506 192.607 47.3641 191.508 46.0745 190.601C45.382 190.147 43.5909 190.433 43.4954 190.457L43.4715 190.481Z" fill="#1A1840"/>
<path fill-rule="evenodd" clip-rule="evenodd" d="M53.3583 190.242C53.3583 190.242 53.024 192.583 53.3822 193.132C53.5255 193.347 53.5732 194.78 53.7165 195.425C53.7643 195.688 54.027 195.616 54.0747 195.616C54.2658 195.616 54.3613 193.968 54.3613 193.968C54.3613 193.968 54.7434 192.965 56.6778 195.831C57.5375 196.954 60.8331 196.954 61.3823 196.333C61.8838 194.47 58.9465 194.804 58.0629 192.368C58.0629 192.368 57.7763 191.269 56.4628 190.362C55.7703 189.908 53.4538 190.194 53.3344 190.218L53.3583 190.242Z" fill="#1A1840"/>
<path fill-rule="evenodd" clip-rule="evenodd" d="M56.9405 190.505C56.9405 190.505 53.0002 191.245 53.239 190.386C54.7674 184.772 52.2598 181.357 53.3345 176.412C53.836 174.119 51.424 170.059 51.2091 169.701L48.2717 156.325L57.7525 155.871C58.5883 159.334 58.5644 167.145 58.0868 175.672C57.8241 180.091 56.6539 184.916 56.9405 190.481V190.505Z" fill="#FF9F00"/>
<path fill-rule="evenodd" clip-rule="evenodd" d="M54.6001 190.792C53.7882 190.816 53.1195 190.744 53.215 190.386C54.7434 184.773 52.2359 181.357 53.3106 176.413C53.8121 174.12 51.4001 170.059 51.1852 169.701L48.9642 159.621L55.6031 158.212C54.4091 160.839 53.1673 166.548 54.6957 173.785C54.8867 174.669 54.8628 175.624 54.6957 176.532C54.5046 177.464 54.4091 178.777 54.6001 180.784C54.6001 180.784 55.0539 186.158 54.6001 190.792Z" fill="#FF7C11"/>
<path fill-rule="evenodd" clip-rule="evenodd" d="M46.1702 155.656C43.0418 161.46 48.1762 165.234 47.1732 175.385C47.1254 175.911 47.2209 176.604 46.8149 177.01C45.1194 178.634 43.9731 185.226 43.3044 190.863C44.7851 191.317 45 191.341 46.6717 190.935C47.4836 185.417 50.5165 181.452 51.7105 177.32C52.5703 174.334 53.0479 170.943 53.6927 167.718C54.1703 165.258 53.7882 163.419 55.2927 161.245C56.2957 159.788 57.2509 157.615 57.633 155.154L46.194 155.632L46.1702 155.656Z" fill="#FF9F00"/>
<path fill-rule="evenodd" clip-rule="evenodd" d="M46.1702 155.656C43.0418 161.46 48.1762 165.234 47.1732 175.385C47.1254 175.911 47.2209 176.604 46.8149 177.01C45.1194 178.634 43.9731 185.226 43.3044 190.863C43.7582 191.007 44.0686 191.102 44.3791 191.15C44.5701 186.23 48.2478 177.296 48.2478 177.296C49.5851 172.137 48.2 163.658 48.2 163.658C47.6985 161.603 48.0568 158.427 48.6299 155.56L46.1702 155.656Z" fill="#FF7C11"/>
<path fill-rule="evenodd" clip-rule="evenodd" d="M50.0627 130.839C50.0627 130.839 52.5941 127.638 50.6598 126.778C50.4448 122.479 39.5551 125.512 44.7373 134.541C45.3104 135.544 46.7433 139.366 44.2358 139.509C46.0268 142.161 52.8568 139.294 50.0866 130.863L50.0627 130.839Z" fill="#221E54"/>
<path fill-rule="evenodd" clip-rule="evenodd" d="M62.8629 138.649C62.4331 137.813 61.9077 137.121 62.2659 136.261C61.7644 135.879 62.1943 135.162 62.5286 134.804C62.6719 134.613 63.7704 134.231 64.5585 135.114C65.1077 135.664 65.6092 136.333 64.5824 138.482C64.3913 141.492 65.7525 143.809 64.3674 147.081C62.0987 147.702 57.7285 144.884 56.7255 144.693C53.1673 143.737 53.5016 141.563 54.8389 140.274C55.1971 139.939 60.045 143.044 62.6241 144.597C62.3853 143.164 62.8868 141.611 62.8868 138.649H62.8629Z" fill="#FCDCB5"/>
<path fill-rule="evenodd" clip-rule="evenodd" d="M52.6896 139.175C54.6001 138.052 57.2031 139.509 58.23 140.56C60.7375 143.116 60.8808 142.925 62.0032 144.143L59.6151 146.914L53.7642 142.352L52.6896 139.199V139.175Z" fill="#7433ED"/>
<path fill-rule="evenodd" clip-rule="evenodd" d="M60.7136 145.624L59.615 146.89L53.7642 142.328L53 140.059L60.7136 145.624Z" fill="#5416CE"/>
<path fill-rule="evenodd" clip-rule="evenodd" d="M54.0032 137.431C54.8151 139.103 60.7853 143.904 57.6569 146.938C56.3674 148.204 56.6062 150.903 56.9644 153.458C56.9644 153.458 58.7077 155.99 57.5137 157.28C55.9614 158.116 52.6181 157.71 50.9703 157.853C50.9703 157.853 47.3881 158.689 46.2657 157.113C45.2627 155.704 46.0985 155.417 46.3135 153.387C46.8627 148.347 45.0239 142.734 45.0956 139.915C45.6448 138.912 48.2956 136.834 48.8687 137.049L54.0032 137.431Z" fill="#7433ED"/>
<path fill-rule="evenodd" clip-rule="evenodd" d="M57.8957 156.611C57.824 156.85 57.7285 157.089 57.5375 157.28C55.9852 158.116 52.6419 157.71 50.9941 157.853C50.9941 157.853 47.4119 158.689 46.2895 157.113C45.2865 155.704 46.1224 155.417 46.3373 153.387C46.8865 148.347 45.0477 142.734 45.1194 139.915C45.2149 139.724 45.4059 139.509 45.6209 139.27C47.2686 140.297 48.5105 141.086 48.5105 141.086C48.5105 141.086 47.3403 145.672 47.7463 149.159C47.8657 150.282 48.2478 151.118 48.0806 152.288C47.4358 156.874 53.2389 157.495 57.8957 156.611Z" fill="#5416CE"/>
<path fill-rule="evenodd" clip-rule="evenodd" d="M55.0538 137.837C55.0538 137.837 54.0986 138.697 54.6001 139.772C54.6001 139.772 54.0269 141.11 52.1642 140.751C51.1612 140.536 48.7731 138.506 49.0358 137.192C49.0358 137.192 49.4656 137.24 49.6089 136.953C49.6089 136.953 50.206 135.52 50.0627 133.848L55.0538 137.837Z" fill="#FBBD72"/>
<path fill-rule="evenodd" clip-rule="evenodd" d="M48.6776 126.133C49.5612 125.799 50.5165 126.181 50.8269 127.017C51.1374 127.829 50.6597 128.761 49.7761 129.095C48.8925 129.429 47.9373 129.047 47.6269 128.211C47.3164 127.399 47.794 126.468 48.6776 126.133Z" fill="#F51D2D"/>
<path fill-rule="evenodd" clip-rule="evenodd" d="M48.8924 126.324C49.8955 125.942 50.9462 126.324 51.2567 127.113C51.5671 127.925 50.994 128.904 50.0149 129.286C49.0119 129.668 47.9611 129.286 47.6506 128.498C47.3402 127.686 47.9133 126.707 48.8924 126.348V126.324Z" fill="#FA394B"/>
<path fill-rule="evenodd" clip-rule="evenodd" d="M48.2478 133.586C48.6537 133.18 49.4657 133.323 50.0627 133.896C50.6597 134.493 50.803 135.305 50.3732 135.712C49.9672 136.118 49.1552 135.974 48.5582 135.401C47.9612 134.804 47.8179 133.992 48.2478 133.586Z" fill="#FCDCB5"/>
<path fill-rule="evenodd" clip-rule="evenodd" d="M56.2479 132.367C56.2479 132.367 56.5345 134.326 56.4151 135.401C56.5345 136.189 55.3882 137.957 54.7434 138.172C54.3852 138.291 53.3344 138.363 51.1374 137.049C51.1374 137.049 50.206 136.356 49.7523 135.616C49.7523 135.616 47.2209 132.176 47.7701 130.767C47.7701 130.767 48.5821 127.471 51.5433 127.328C51.5433 127.328 54.5523 126.659 55.1971 128.283C56.3912 129.788 56.3912 131.078 56.2718 132.367H56.2479Z" fill="#FCDCB5"/>
<path fill-rule="evenodd" clip-rule="evenodd" d="M56.6061 133.609C56.4628 132.965 56.4389 132.869 56.2478 132.081C54.8389 132.917 51.8537 133.203 50.2537 131.34C50.7313 132.869 49.9194 133.729 49.2507 134.207L49.8716 135.831L48.3194 133.586C46.576 131.46 45.7163 128.187 48.6298 126.85C52.0926 124.724 55.5075 126.563 56.2956 130.146C56.5583 131.364 56.7971 133.538 56.6061 133.609Z" fill="#2B2468"/>
<path fill-rule="evenodd" clip-rule="evenodd" d="M45.0238 124.151C45.4776 122.359 48.391 122.431 47.3403 121.428C47.5791 120.95 47.8418 119.804 47.2448 119.445C46.4567 118.992 43.9253 119.087 43.3283 120.831C43.1133 121.356 42.8984 122.574 42.6357 123.649C42.0626 126.133 38.576 130.194 39.0536 134.063C39.8417 134.995 43.4477 140.489 45.6686 142.805C47.9851 142.304 48.4149 141.014 47.8418 140.059C47.0776 138.745 45.2149 135.401 42.4447 132.845C44.2119 129.788 43.9492 126.515 45.0238 124.175V124.151Z" fill="#FCDCB5"/>
<path fill-rule="evenodd" clip-rule="evenodd" d="M48.6776 141.946C48.7253 140.202 48.2716 138.769 46.7193 137.407C46.4089 136.882 45.8357 136.141 45.2387 135.377C44.0208 136.261 42.6357 137.479 41.7521 138.84C42.9939 140.489 44.4745 141.874 44.9044 142.901C46.2895 144.979 48.6298 143.498 48.6776 141.969V141.946Z" fill="#7433ED"/>
<path fill-rule="evenodd" clip-rule="evenodd" d="M43.0655 137.24C42.564 137.742 42.1102 138.291 41.7281 138.864C42.97 140.512 44.4506 141.898 44.8804 142.925C45.8834 144.43 47.3879 144.071 48.176 143.164C46.3849 141.611 44.3551 139.533 43.0655 137.264V137.24Z" fill="#5416CE"/>
<path fill-rule="evenodd" clip-rule="evenodd" d="M75.5437 120.902C75.4243 120.807 75.2332 120.855 75.1616 120.974L71.0302 126.969C70.9347 127.089 70.9824 127.28 71.1018 127.352C71.2212 127.447 71.4123 127.399 71.4839 127.28L75.6153 121.285C75.7109 121.165 75.6631 120.974 75.5437 120.902Z" fill="#1A1840"/>
<path fill-rule="evenodd" clip-rule="evenodd" d="M79.6035 125.871C79.5318 125.727 79.3647 125.68 79.2214 125.727L72.6541 128.856C72.5108 128.928 72.4631 129.095 72.5108 129.239C72.5825 129.382 72.7496 129.43 72.8929 129.382L79.4602 126.253C79.6035 126.181 79.6512 126.014 79.6035 125.871Z" fill="#1A1840"/>
<path fill-rule="evenodd" clip-rule="evenodd" d="M80.6304 132.2C80.6304 132.033 80.5348 131.914 80.3677 131.89L73.1317 131.316C72.9646 131.316 72.8452 131.412 72.8213 131.579C72.8213 131.746 72.9168 131.866 73.084 131.89L80.3199 132.463C80.4871 132.463 80.6065 132.367 80.6304 132.2Z" fill="#1A1840"/>
<path fill-rule="evenodd" clip-rule="evenodd" d="M60.5941 135.855C60.8568 136.189 61.1434 136.476 61.5732 136.715C61.812 136.762 62.0747 136.667 62.2658 136.619C63.0061 137.312 63.7225 137.981 64.4628 138.673C64.8927 138.339 65.2031 137.933 65.2748 137.479C64.9166 136.906 63.7225 136.476 63.1971 135.807C63.1971 135.425 63.1971 135.067 63.221 134.684C62.9822 134.565 62.624 134.565 62.2658 134.684C62.2658 135.067 61.5971 135.449 60.5941 135.879V135.855Z" fill="#BBBAE1"/>
<path fill-rule="evenodd" clip-rule="evenodd" d="M60.2122 135.998C60.4748 136.332 60.7614 136.619 61.1913 136.858C61.4301 136.906 61.6928 136.81 61.8838 136.762C62.6241 137.455 63.3406 138.124 64.0809 138.816C64.5107 138.482 64.8212 138.076 64.8928 137.622C64.5346 137.049 63.3406 136.619 62.8152 135.95C62.8152 135.568 62.8152 135.21 62.8391 134.828C62.6003 134.708 62.242 134.708 61.8838 134.828C61.8838 135.21 61.2152 135.592 60.2122 136.022V135.998Z" fill="#DBDBF3"/>
<path fill-rule="evenodd" clip-rule="evenodd" d="M65.2748 137.479L64.9166 137.622C64.8688 138.076 64.3912 138.602 64.1046 138.817L64.4628 138.673C64.7016 138.506 65.2031 138.028 65.2748 137.479Z" fill="#9491C4"/>
<path fill-rule="evenodd" clip-rule="evenodd" d="M58.4687 133.323L61.43 132.081L62.6957 135.066L59.7344 136.308C59.0419 136.595 58.206 136.285 57.9195 135.568L57.7284 135.138C57.4418 134.445 57.7523 133.609 58.4687 133.323Z" fill="#F51D2D"/>
<path fill-rule="evenodd" clip-rule="evenodd" d="M61.9792 135.401C65.1792 134.398 67.1136 134.971 69.7644 135.616L65.9912 126.659C64.6061 128.976 63.6509 130.767 60.7135 132.367C60.7135 132.869 60.8329 133.442 61.0717 133.992C61.3105 134.565 61.6449 135.043 62.0031 135.401H61.9792Z" fill="#E4E4F6"/>
<path fill-rule="evenodd" clip-rule="evenodd" d="M66.4211 126.229C67.5196 125.751 69.3107 127.471 70.4092 130.074C71.5077 132.654 71.4838 135.138 70.3853 135.592C69.2868 136.07 67.4957 134.35 66.4211 131.746C65.3225 129.167 65.3464 126.683 66.4449 126.229H66.4211Z" fill="#1A1840"/>
<path fill-rule="evenodd" clip-rule="evenodd" d="M66.445 126.277C67.5197 125.823 69.263 127.519 70.3376 130.074C71.4123 132.63 71.4123 135.067 70.3376 135.52C69.263 135.974 67.5197 134.278 66.445 131.723C65.3704 129.167 65.3704 126.73 66.445 126.277Z" fill="#332A7C"/>
<path fill-rule="evenodd" clip-rule="evenodd" d="M66.6599 126.778C67.448 126.444 68.8808 128.02 69.8361 130.289C70.7913 132.559 70.9346 134.684 70.1227 135.019C69.3346 135.353 67.9017 133.777 66.9465 131.508C65.9913 129.239 65.848 127.113 66.6599 126.778Z" fill="#C6ADF8"/>
<path fill-rule="evenodd" clip-rule="evenodd" d="M67.3764 129.764C67.663 129.645 68.0689 130.17 68.3794 130.911C68.6898 131.627 68.7854 132.296 68.4988 132.415C68.4988 132.415 68.451 132.415 68.4033 132.415L67.4958 132.63C67.3048 132.272 67.1137 131.89 66.9465 131.484C66.7794 131.054 66.6122 130.648 66.4928 130.266L67.3286 129.788C67.3286 129.788 67.3764 129.764 67.3764 129.74V129.764Z" fill="#2B2468"/>
<path fill-rule="evenodd" clip-rule="evenodd" d="M67.4241 129.764C67.6391 129.668 68.0928 130.194 68.3794 130.911C68.6898 131.651 68.7615 132.32 68.5227 132.415C68.3077 132.511 67.854 131.985 67.5674 131.269C67.257 130.528 67.1853 129.86 67.4241 129.764Z" fill="#1A1840"/>
<path fill-rule="evenodd" clip-rule="evenodd" d="M127.294 60.2093C127.294 60.2093 127.819 62.1679 127.509 62.6934C127.389 62.9083 127.556 64.1504 127.485 64.7475C127.461 65.0103 127.222 64.9386 127.174 64.9864C127.031 65.1058 126.673 63.5533 126.673 63.5533C126.673 63.5533 126.291 62.98 124.715 65.8463C124.715 65.8463 124.571 67.2078 122.231 67.2794C122.231 67.2794 121.061 67.6377 120.368 66.7062C120.368 66.7062 120.106 66.1807 120.631 65.4402C120.631 65.4402 122.207 64.2459 122.709 62.359C122.709 62.359 123.091 61.3319 124.213 60.3765C124.213 60.3765 125.025 59.8749 125.312 60.1376C125.598 60.4242 127.246 60.2093 127.246 60.2093H127.294Z" fill="#1A1840"/>
<path fill-rule="evenodd" clip-rule="evenodd" d="M136.512 64.6041C136.512 64.6041 137.73 66.6821 137.754 67.3748C137.754 67.542 137.706 67.7092 137.634 67.8764C137.563 68.0436 137.586 69.2618 137.634 69.9067C137.658 70.1933 137.443 70.0978 137.419 70.1455C137.276 70.3127 136.918 68.784 136.918 68.784C136.918 68.784 136.703 68.3302 136.201 71.9847C136.201 71.9847 136.583 73.4895 134.148 74.4927C134.148 74.4927 133.049 75.3526 131.974 74.6599C131.974 74.6599 131.473 74.2061 131.736 73.2029C131.736 73.2029 132.93 71.3159 132.691 69.0946C132.691 69.0946 132.691 67.8525 133.479 66.3955C133.479 66.3955 133.67 65.3206 133.98 65.1296C134.888 64.5802 135.915 65.4878 136.488 64.628L136.512 64.6041Z" fill="#1A1840"/>
<path fill-rule="evenodd" clip-rule="evenodd" d="M137.849 38.4732L128.034 42.0799C125.789 42.9159 124.93 44.564 124.81 47.0959C124.595 51.0131 125.264 56.4113 124.524 60.2568C124.524 60.2568 125.694 60.6629 127.485 60.5435C127.485 60.5435 129.3 51.9924 129.348 49.6277C129.348 49.6277 129.276 47.5258 129.204 47.1436L139.258 45.1134L143.342 38.9986L137.897 38.4732H137.849Z" fill="#631AEB"/>
<path fill-rule="evenodd" clip-rule="evenodd" d="M125.98 60.5197C126.41 60.5436 126.888 60.5674 127.461 60.5197C127.461 60.5197 129.276 51.9686 129.324 49.604C129.324 49.604 129.252 47.502 129.18 47.1198L139.234 45.0896L143.318 38.9749H142.96C137.825 42.1516 132.094 45.1373 127.413 46.2361C127.413 46.2361 127.461 54.9304 126.004 60.4958L125.98 60.5197Z" fill="#4512B0"/>
<path fill-rule="evenodd" clip-rule="evenodd" d="M145.73 47.2394L135.222 50.4161C135.222 50.4161 137.061 53.163 136.727 64.6042C136.44 65.1058 135.151 66.3717 133.67 65.9657C133.67 65.9657 131.76 52.6614 130.637 50.8222C129.825 47.9081 131.712 46.8094 133.622 45.4957L141.622 40.5275L142.196 38.8794L148.978 37.2313C151.223 40.3842 151.318 44.8747 145.73 47.2155V47.2394Z" fill="#631AEB"/>
<path fill-rule="evenodd" clip-rule="evenodd" d="M145.73 47.2394L135.222 50.4162C135.222 50.4162 137.061 53.163 136.727 64.6042C136.56 64.8909 136.082 65.4163 135.413 65.7507C135.748 59.4211 133.813 49.7951 133.766 49.2935C135.963 48.7681 143.604 46.7856 146.948 44.3253C149.336 42.5578 149.169 39.8826 147.999 37.5179L148.978 37.2791C151.222 40.432 151.318 44.9225 145.73 47.2633V47.2394Z" fill="#4512B0"/>
<path fill-rule="evenodd" clip-rule="evenodd" d="M130.542 5.82173C129.562 4.36471 130.422 1.09238 129.013 1.45067L128.774 1.52232L128.392 1.21181C127.604 0.66244 125.359 2.90769 125.933 4.17363C125.933 4.17363 126.171 4.91408 126.721 4.60357C126.721 4.60357 126.721 5.75008 128.13 6.56219C129.133 8.56858 128.583 11.7931 131.855 15.7343C132.834 17.1196 133.885 23.8315 136.607 24.0226C138.374 22.8283 139.163 22.1595 137.921 20.9413C136.703 19.7709 136.345 16.618 133.431 13.8234C132.834 10.5989 131.139 7.82812 130.542 5.79785V5.82173Z" fill="#FCDCB5"/>
<path fill-rule="evenodd" clip-rule="evenodd" d="M139.951 23.4732C139.903 21.8967 139.234 20.8697 137.897 19.7709C137.658 19.0305 136.201 16.833 135.533 16.0925C133.551 11.0527 131.712 8.25805 131.115 7.1832C130.279 7.016 128.822 7.70869 128.225 8.3536C128.583 10.2406 131.33 16.1403 132.213 17.3107C132.762 19.1738 133.718 21.7773 135.031 23.5448C136.631 25.8856 140.022 25.5274 139.951 23.4971V23.4732Z" fill="#F51D2D"/>
<path fill-rule="evenodd" clip-rule="evenodd" d="M139.951 23.4731C139.903 21.8966 139.234 20.8695 137.897 19.7708C137.658 19.0303 136.201 16.8329 135.533 16.0924C133.551 11.0525 131.712 8.25793 131.115 7.18308C130.589 7.08754 129.801 7.32639 129.156 7.66079C129.992 10.336 132.667 16.379 133.455 17.43C134.028 19.2931 134.96 21.8966 136.273 23.6642C136.798 24.4285 137.515 24.9062 138.231 25.1212C139.21 25.0256 139.975 24.4285 139.951 23.4731Z" fill="#FA394B"/>
<path fill-rule="evenodd" clip-rule="evenodd" d="M139.545 19.126C138.876 21.0608 132.786 25.9812 136.225 29.1102C137.563 30.3284 137.276 33.2663 137.754 35.8699C137.754 35.8699 136.512 37.9001 137.754 39.19H141.981C141.981 39.19 148.046 39.381 148.882 38.1151C149.861 36.6581 148.524 37.088 148.261 35.0577C147.593 29.9701 148.763 24.2614 148.596 21.4191C147.999 20.4159 145.276 18.3856 144.703 18.6244L139.545 19.1499V19.126Z" fill="#F51D2D"/>
<path fill-rule="evenodd" clip-rule="evenodd" d="M139.545 19.1258C138.876 21.0606 132.786 25.981 136.225 29.11C137.563 30.3282 137.276 33.2661 137.754 35.8696C137.754 35.8696 137.061 36.9923 137.228 38.1149H139.783C139.783 38.1149 145.849 38.2821 146.685 37.0162C147.664 35.5591 146.327 35.9891 146.064 33.9588C145.491 29.7072 146.231 23.0908 146.375 19.3647C145.634 18.8631 144.966 18.5048 144.703 18.6242L139.545 19.1497V19.1258Z" fill="#FA394B"/>
<path fill-rule="evenodd" clip-rule="evenodd" d="M138.542 18.6722C138.542 18.6722 139.497 19.7232 138.828 20.8219C138.828 20.8219 139.306 22.3506 141.384 22.1595C142.506 22.0401 144.87 20.6069 144.727 19.1499C144.727 19.1499 144.249 19.1499 144.106 18.8394C144.106 18.8394 143.796 16.6897 144.154 14.8983L138.518 18.6961L138.542 18.6722Z" fill="#FCCA8F"/>
<path fill-rule="evenodd" clip-rule="evenodd" d="M137.085 14.6832C137.085 14.6832 137.276 16.7374 137.658 17.7883C137.73 18.6243 139.33 20.1291 140.046 20.2008C140.428 20.2485 141.527 20.0575 143.437 18.1466C143.437 18.1466 144.202 17.2151 144.488 16.3313C144.488 16.3313 146.208 12.223 145.3 10.9093C145.3 10.9093 143.652 7.78026 140.619 8.35351C140.619 8.35351 137.013 8.44905 136.798 10.2882C135.963 12.1036 136.655 13.3695 137.085 14.6593V14.6832Z" fill="#FCDCB5"/>
<path fill-rule="evenodd" clip-rule="evenodd" d="M138.9 19.556C138.9 19.7709 139.21 20.4159 138.709 20.5114C137.849 20.6547 138.518 22.3028 138.709 22.8761C138.876 23.3777 138.78 23.5688 138.422 23.9032C136.655 25.599 139.306 27.1277 137.682 27.6054C136.464 27.9637 137.61 30.0179 135.461 28.6564C133.718 27.5577 136.846 23.306 134.53 21.8729C133.145 21.013 136.345 19.2216 135.318 16.0687C134.888 14.7311 135.151 11.1243 137.085 9.45236C139.64 7.23099 142.816 7.44597 145.276 9.85841C146.184 10.7422 146.542 13.1785 146.088 13.6562C145.61 14.1578 146.088 14.9938 146.088 15.6626C146.088 16.6419 145.348 15.7343 145.993 17.4063C146.303 18.1945 146.804 17.9556 148.046 19.0783C148.787 19.7709 147.712 19.8904 148.118 20.392C147.21 19.7709 145.061 19.7232 144.249 18.9349C143.939 18.6244 144.058 17.884 144.082 17.3346C144.106 16.7136 144.488 16.2359 144.536 15.3999C144.536 15.3999 144.536 15.3521 144.536 15.3282C143.748 14.54 143.079 13.7279 143.557 12.2709C142.124 13.919 138.661 13.5607 138.04 15.2566C137.992 15.3999 137.395 16.1403 137.467 15.0416C137.539 13.8234 137.061 15.2804 137.539 16.8091C137.992 18.2423 138.518 18.9827 138.995 19.5321L138.9 19.556Z" fill="#1A1840"/>
<path fill-rule="evenodd" clip-rule="evenodd" d="M146.446 5.00952C145.754 3.19421 142.745 3.64804 143.7 2.47764C143.39 2.02381 142.984 0.853419 143.557 0.423478C144.321 -0.149776 146.948 -0.388633 147.808 1.35502C148.094 1.8805 148.476 3.09867 148.882 4.19741C149.79 6.68151 153.921 10.4793 153.921 14.5399C153.205 15.6147 150.172 21.7533 148.166 24.4524C145.706 24.2136 145.419 23.0193 145.563 21.8966C145.73 20.5113 147.234 16.4507 150.243 13.7278C148.022 10.7898 147.879 7.35031 146.47 5.05729L146.446 5.00952Z" fill="#FCDCB5"/>
<path fill-rule="evenodd" clip-rule="evenodd" d="M144.894 23.9507C144.607 22.1354 144.894 20.5828 146.351 18.9825C146.996 17.5732 148.882 14.6353 149.861 13.7515C148.524 11.0525 147.688 9.23716 146.852 6.03649C147.784 5.51101 149.193 5.17661 150.076 5.34381C151.7 8.06677 153.205 9.92985 154.231 14.1815C153.897 15.4952 149.622 21.9443 148.93 24.4284C147.76 26.7692 145.133 25.5272 144.894 23.9268V23.9507Z" fill="#F51D2D"/>
<path fill-rule="evenodd" clip-rule="evenodd" d="M144.894 23.9507C144.607 22.1354 144.894 20.5828 146.351 18.9825C146.996 17.5733 148.882 14.6353 149.861 13.7516C148.524 11.0525 147.688 9.23717 146.852 6.0365C147.306 5.77376 147.903 5.55879 148.5 5.43936C150.1 8.11455 151.605 9.97763 152.584 14.1815C152.249 15.4952 147.975 21.9443 147.282 24.4284C146.996 25.0017 146.637 25.3361 146.231 25.5272C145.539 25.2405 144.99 24.6195 144.894 23.9268V23.9507Z" fill="#FA394B"/>
<path fill-rule="evenodd" clip-rule="evenodd" d="M144.751 41.3157L142.172 42.7727L125.598 41.8889L128.13 40.5991L144.751 41.3157Z" fill="#B6C6D8"/>
<path fill-rule="evenodd" clip-rule="evenodd" d="M144.751 41.3157L142.172 42.6772L142.124 43.5848L144.536 41.9606C144.679 41.865 144.751 41.7217 144.751 41.5784V41.3157Z" fill="#DAE2EB"/>
<path fill-rule="evenodd" clip-rule="evenodd" d="M125.598 41.8174L142.172 42.6773L142.124 43.5849L126.004 42.7489C125.742 42.7489 125.551 42.5101 125.574 42.2712V41.8413L125.598 41.8174Z" fill="white"/>
<path fill-rule="evenodd" clip-rule="evenodd" d="M138.972 31.2359L142.697 42.4621L142.196 42.7487L137.825 30.5671H138.184C138.566 30.6148 138.876 30.8776 138.995 31.2359H138.972Z" fill="#DAE2EB"/>
<path fill-rule="evenodd" clip-rule="evenodd" d="M122.876 29.9462L137.945 30.5911C138.183 30.5911 138.375 30.7583 138.446 30.9733L142.315 42.7728L125.55 41.889L122.35 30.6389C122.303 30.4717 122.35 30.2806 122.446 30.1612C122.565 30.0179 122.709 29.9462 122.9 29.9462H122.876Z" fill="#B6C6D8"/>
<path fill-rule="evenodd" clip-rule="evenodd" d="M122.876 30.0179L137.945 30.6628C138.136 30.6628 138.303 30.8061 138.375 30.9733L142.196 42.6772L125.622 41.8173L122.422 30.615C122.374 30.4717 122.422 30.3284 122.494 30.2089C122.589 30.0895 122.733 30.0179 122.876 30.0417V30.0179Z" fill="white"/>
<path fill-rule="evenodd" clip-rule="evenodd" d="M137.324 122.335L155.784 104.493L156.715 113.235L137.324 122.335Z" fill="#2B2468"/>
<path fill-rule="evenodd" clip-rule="evenodd" d="M156.715 113.235L162.852 119.565L137.324 122.335L156.715 113.235Z" fill="#1A1840"/>
<path fill-rule="evenodd" clip-rule="evenodd" d="M258.591 76.2123L228.836 90.6153L214.674 85.9099L219.785 71.889L249.54 57.486L244.43 71.5069L258.591 76.2123Z" fill="#7433ED"/>
<path fill-rule="evenodd" clip-rule="evenodd" d="M247.63 70.4559C247.272 69.6677 246.34 69.3333 245.552 69.7154L153.634 112.781C152.846 113.139 152.512 114.071 152.87 114.859C153.228 115.647 154.16 115.982 154.948 115.624L246.866 72.5578C247.654 72.1995 247.988 71.2441 247.63 70.4798V70.4559Z" fill="#27215E"/>
<path fill-rule="evenodd" clip-rule="evenodd" d="M247.248 69.9542C246.794 69.5482 246.125 69.4526 245.552 69.7154L153.634 112.781C152.966 113.092 152.631 113.808 152.751 114.501C153.205 114.907 153.873 115.003 154.446 114.74L246.364 71.674C247.033 71.3635 247.367 70.6469 247.248 69.9542Z" fill="#332A7C"/>
<path fill-rule="evenodd" clip-rule="evenodd" d="M207.176 123.793C207.247 124.485 207.51 125.106 208.059 125.489L213.385 126.396C216.131 126.85 222.722 126.229 220.883 122.718C218.639 118.419 221.671 109.223 220.716 105.353C219.522 102.869 217.54 102.606 216.561 102.606C215.916 102.511 215.486 102.535 215.104 102.606C216.895 104.063 217.827 105.902 216.895 108.219C216.895 108.219 217.803 111.372 217.85 116.89C217.898 123.697 213.695 126.038 207.128 123.793H207.176Z" fill="#2984CB"/>
<path fill-rule="evenodd" clip-rule="evenodd" d="M184.823 43.4654C184.178 41.6501 185.993 38.4255 184.393 38.4255H184.13L183.82 37.9717C183.127 37.1834 180.166 38.951 180.405 40.4558C180.405 40.4558 180.477 41.3156 181.098 41.1246C181.098 41.1246 180.787 42.3427 182.053 43.5848C182.554 45.9733 181.575 52.5897 184.154 55.2887C185.133 55.8381 188.071 59.8509 190.913 60.8063C192.751 59.6598 193.754 57.5579 192.369 56.5308C190.889 55.432 190.148 53.3301 186.59 52.4225C186.829 48.8635 184.871 45.7584 184.799 43.4415L184.823 43.4654Z" fill="#FCDCB5"/>
<path fill-rule="evenodd" clip-rule="evenodd" d="M195.283 58.2266C194.901 56.8412 194.471 56.6263 192.752 55.9097C192.059 55.3842 190.769 54.596 189.671 53.8794C188.931 55.4798 187.904 57.0562 186.757 58.346C188.31 59.7314 191.987 62.9082 193.062 63.983C195.14 62.6454 195.689 59.612 195.307 58.2266H195.283Z" fill="#FF7C11"/>
<path fill-rule="evenodd" clip-rule="evenodd" d="M209.205 59.7315C210.782 60.8302 208.585 69.3335 204.429 78.3145L204.143 80.2731C200.895 75.0422 197.193 70.6233 192.943 66.1806C193.11 61.3796 193.563 57.7251 195.044 57.1757L199.772 56.0053C200.775 55.8142 201.85 55.7903 202.208 55.9575C202.614 55.9098 203.593 56.3158 204.477 56.8652L209.205 59.7315Z" fill="#FF9F00"/>
<path fill-rule="evenodd" clip-rule="evenodd" d="M198.364 56.3397L199.772 55.9814C200.775 55.7903 201.85 55.7664 202.208 55.9336C202.614 55.8859 203.593 56.2919 204.477 56.8413L206.077 57.8206C205.695 60.1614 203.546 61.4273 201.516 60.9018C198.769 60.1853 198.029 58.7521 198.364 56.3397Z" fill="#FF7C11"/>
<path fill-rule="evenodd" clip-rule="evenodd" d="M213.886 82.16C213.982 82.4227 214.435 83.9753 213.409 85.0263C212.979 85.4562 212.358 85.4801 212.047 85.3607C211.713 85.2174 211.164 86.0295 211.164 86.4833C211.164 86.7699 209.11 87.582 208.823 86.8894C208.632 86.4355 208.179 85.2174 208.632 84.2619C209.253 83.0199 211.45 81.8734 211.45 81.8734C212.549 78.5772 210.829 75.1137 211.88 72.2952C211.092 71.3159 210.28 70.1694 209.588 68.8079L212.979 66.0133C213.91 67.2554 214.459 69.8111 215.462 71.1965C215.534 75.4959 213.886 77.8367 213.838 82.1361L213.886 82.16Z" fill="#FCDCB5"/>
<path fill-rule="evenodd" clip-rule="evenodd" d="M208.967 59.5882C210.161 59.6599 210.949 60.4003 212.477 64.3415C212.549 64.5087 214.722 68.1393 214.603 68.2587C213.886 69.0947 211.856 70.0262 210.376 70.4084C209.707 69.3097 209.182 67.6138 208.632 66.4673C208.083 66.1568 208.537 60.3764 208.967 59.5643V59.5882Z" fill="#FF7C11"/>
<path fill-rule="evenodd" clip-rule="evenodd" d="M205.265 55.6948C205.265 55.6948 204.429 56.8174 205.17 57.8206C204.501 60.9735 198.435 59.9225 199.056 56.698C200.107 56.0053 199.725 54.6677 199.725 54.6677L202.59 54.3333V54.2855L202.662 54.3094H202.734V54.3333L205.289 55.6709L205.265 55.6948Z" fill="#FBBD72"/>
<path fill-rule="evenodd" clip-rule="evenodd" d="M198.602 49.9384C199.223 49.7951 199.892 50.3684 200.107 51.2521C200.322 52.1359 200.011 52.9719 199.39 53.1391C198.77 53.2824 198.101 52.7092 197.886 51.8254C197.671 50.9416 197.981 50.1056 198.602 49.9384Z" fill="#FBBD72"/>
<path fill-rule="evenodd" clip-rule="evenodd" d="M208.107 51.4909C207.582 51.1326 206.746 51.4432 206.22 52.1836C205.695 52.9241 205.719 53.8317 206.22 54.19C206.746 54.5483 207.582 54.2378 208.107 53.4973C208.632 52.7569 208.608 51.8492 208.107 51.4909Z" fill="#FBBD72"/>
<path fill-rule="evenodd" clip-rule="evenodd" d="M198.626 50.3445C198.626 50.3445 198.555 53.163 198.937 54.5006C199.128 55.3843 201.134 57.4863 201.994 57.5818C203.164 57.7012 205.361 56.913 206.053 55.7904C206.889 54.6916 207.797 52.0165 207.797 52.0165C208.752 50.655 208.919 50.0578 208.919 47.7887C209.301 45.5673 205.719 44.4925 205.719 44.4925C204.835 44.0148 204.191 43.9192 203.211 44.0387C203.211 44.0387 199.51 43.7759 199.104 45.9973C197.958 48.1709 198.196 48.7441 198.626 50.3445Z" fill="#FCDCB5"/>
<path fill-rule="evenodd" clip-rule="evenodd" d="M198.602 51.4432C198.602 51.4432 198.483 51.4193 198.435 51.3954C198.316 50.3922 198.22 49.389 198.101 48.3858C198.268 46.9766 198.268 43.8476 200.107 43.7042C208.728 40.4319 207.558 48.4575 211.641 47.2154C211.355 48.2425 209.874 49.5085 209.062 49.9623C208.585 51.0132 208.107 52.0403 207.629 53.0913C207.558 53.0913 207.486 53.0674 207.414 53.0435C207.629 52.0164 207.844 50.9655 208.035 49.9384C205.05 49.389 202.973 48.2903 200.656 46.7616C198.913 48.0992 199.152 48.3619 198.602 51.4193V51.4432Z" fill="#221E54"/>
<path fill-rule="evenodd" clip-rule="evenodd" d="M199.796 53.4497C199.82 53.2825 202.256 52.6854 202.853 53.4975C203.593 52.9003 205.552 54.3335 205.504 54.5723C206.746 54.9067 206.985 53.4736 207.534 53.1153C207.438 53.9991 207.128 54.3812 207.128 54.3812C206.746 55.3128 205.814 56.0293 205.814 56.0293C205.074 57.4147 203.57 58.0357 202.758 58.1074C202.638 58.1074 201.468 57.9163 201.396 57.8924C200.441 57.3431 199.629 56.4354 199.104 54.9067C199.104 54.9067 198.578 53.808 198.555 52.8048C198.555 52.8048 198.387 52.3271 198.602 51.4911C198.865 52.2076 198.722 53.378 199.796 53.4497ZM201.325 53.9752C201.325 53.9752 200.513 54.2618 200.322 54.2379C202.376 56.3876 202.328 56.4115 204.979 55.0739C204.788 55.0261 204.071 54.4768 204.071 54.4768C203.331 53.9513 202.399 53.6408 201.349 53.9513L201.325 53.9752Z" fill="#221E54"/>
<path fill-rule="evenodd" clip-rule="evenodd" d="M207.486 51.5386C207.08 51.7058 207.438 53.1628 205.265 52.7329C204.334 52.5418 203.904 52.1835 203.641 51.2998C203.57 51.0848 203.593 50.8937 203.307 50.8459C202.734 50.7504 202.71 52.2074 200.799 51.9208C200.298 51.8491 199.605 51.6342 199.367 51.1326C199.175 50.7504 199.319 50.2966 199.199 50.0816C199.175 50.0099 199.104 49.9622 199.032 49.9383H198.961L199.104 49.365H199.175C200.298 49.4128 201.42 49.6039 202.471 49.9622C202.758 50.0577 203.14 50.2249 203.45 50.2727C203.761 50.3205 204.167 50.3205 204.477 50.3205C205.647 50.3682 206.602 50.6071 207.701 50.9654H207.773V51.0609C207.749 51.2759 207.773 51.4909 207.558 51.5386C207.558 51.5386 207.51 51.5386 207.486 51.5386ZM200.799 49.8189C200.465 49.795 200.059 49.6994 199.796 49.9622C199.605 50.1533 199.558 50.5593 199.581 50.7982C199.725 51.7536 201.468 51.9447 202.137 51.4192C202.328 51.2759 202.567 50.9654 202.614 50.7265C202.734 50.1533 201.134 49.8666 200.776 49.8189H200.799ZM205.194 50.631C204.405 50.5593 203.785 50.5593 204.071 51.5147C204.286 52.2313 205.026 52.4702 205.695 52.5657C206.005 52.6135 206.364 52.6135 206.602 52.3746C206.817 52.1597 206.913 51.8491 206.961 51.5625C207.008 51.2042 206.817 51.0609 206.507 50.9415C206.149 50.7982 205.599 50.7026 205.217 50.6549L205.194 50.631Z" fill="#1A1840"/>
</svg>
