<svg width="142" height="150" viewBox="0 0 142 150" fill="none" xmlns="http://www.w3.org/2000/svg">
<path d="M87.6831 94.3301C87.3249 94.4383 86.9766 94.5603 86.6382 94.7C86.4564 94.7736 86.2612 94.8083 86.0652 94.8018C85.8692 94.7953 85.6767 94.7478 85.5002 94.6623C85.3237 94.5768 85.167 94.4553 85.0404 94.3056C84.9137 94.1558 84.8199 93.9812 84.7649 93.7929L79.1726 75.0029L15.4787 93.9582L30.6638 144.986C31.1953 146.769 32.4135 148.269 34.0504 149.154C35.6873 150.04 37.6089 150.239 39.3927 149.708L89.637 134.753C91.4206 134.222 92.9201 133.004 93.8057 131.367C94.6913 129.73 94.8905 127.808 94.3596 126.025L90.7705 113.96C90.7137 113.773 90.6969 113.575 90.7211 113.38C90.7453 113.186 90.8101 112.998 90.9111 112.83C91.0121 112.662 91.1472 112.517 91.3077 112.404C91.4682 112.292 91.6505 112.214 91.8429 112.176C92.206 112.108 92.5652 112.021 92.9192 111.916C98.1928 110.342 101.294 105.137 99.8496 100.279C98.4053 95.4202 92.9566 92.7618 87.6831 94.3301Z" fill="#3366FF"/>
<mask id="mask0_510_27" style="mask-type:luminance" maskUnits="userSpaceOnUse" x="15" y="75" width="86" height="75">
<path d="M87.6831 94.3301C87.3249 94.4383 86.9766 94.5603 86.6382 94.7C86.4564 94.7736 86.2612 94.8083 86.0652 94.8018C85.8692 94.7953 85.6767 94.7478 85.5002 94.6623C85.3237 94.5768 85.167 94.4553 85.0404 94.3056C84.9137 94.1558 84.8199 93.9812 84.7649 93.7929L79.1726 75.0029L15.4787 93.9582L30.6638 144.986C31.1953 146.769 32.4135 148.269 34.0504 149.154C35.6873 150.04 37.6089 150.239 39.3927 149.708L89.637 134.753C91.4206 134.222 92.9201 133.004 93.8057 131.367C94.6913 129.73 94.8905 127.808 94.3596 126.025L90.7705 113.96C90.7137 113.773 90.6969 113.575 90.7211 113.38C90.7453 113.186 90.8101 112.998 90.9111 112.83C91.0121 112.662 91.1472 112.517 91.3077 112.404C91.4682 112.292 91.6505 112.214 91.8429 112.176C92.206 112.108 92.5652 112.021 92.9192 111.916C98.1928 110.342 101.294 105.137 99.8496 100.279C98.4053 95.4202 92.9566 92.7618 87.6831 94.3301Z" fill="white"/>
</mask>
<g mask="url(#mask0_510_27)">
<path opacity="0.25" d="M70.6483 142.254C70.6483 142.254 42.7811 150.076 36.6437 145.535C31.4725 141.717 31.2344 137.782 23.8947 122.254C23.8121 135.635 31.1144 157.595 31.1144 157.595L70.6483 142.254Z" fill="#5985FF"/>
</g>
<path d="M62.6998 115C62.6998 115 62.6053 117.623 59.512 118.542C56.4187 119.461 55 117.288 55 117.288" stroke="#1138AD" stroke-width="3.94472" stroke-miterlimit="10" stroke-linecap="round"/>
<path d="M61.9863 17.2536L5.01421 34.2037C3.23076 34.7348 1.73132 35.9526 0.845682 37.5892C-0.0399555 39.2258 -0.239254 41.1471 0.291624 42.9307L15.4787 93.9582L37.3364 87.4646C37.509 87.4126 37.6905 87.3972 37.8695 87.4193C38.0484 87.4415 38.2207 87.5008 38.3754 87.5934C38.53 87.6861 38.6636 87.81 38.7677 87.9572C38.8717 88.1044 38.9438 88.2718 38.9794 88.4485C39.0437 88.7765 39.125 89.1044 39.2234 89.4324C40.7976 94.704 46.0023 97.8071 50.8587 96.3608C55.7151 94.9145 58.3834 89.4737 56.8131 84.1962C56.7147 83.8696 56.6045 83.5488 56.4786 83.2379C56.4128 83.0707 56.3827 82.8916 56.3899 82.712C56.3972 82.5324 56.4418 82.3563 56.5208 82.1949C56.5998 82.0335 56.7116 81.8904 56.849 81.7745C56.9864 81.6587 57.1464 81.5727 57.3188 81.522L79.1765 75.0167L61.9863 17.2536Z" fill="#45CC80"/>
<mask id="mask1_510_27" style="mask-type:luminance" maskUnits="userSpaceOnUse" x="0" y="17" width="80" height="80">
<path d="M61.9863 17L5.01421 33.9501C3.23076 34.4813 1.73132 35.699 0.845682 37.3356C-0.0399555 38.9722 -0.239254 40.8936 0.291624 42.6771L15.4787 93.7046L37.3364 87.2111C37.509 87.159 37.6905 87.1436 37.8695 87.1658C38.0484 87.1879 38.2207 87.2472 38.3754 87.3399C38.53 87.4325 38.6636 87.5564 38.7677 87.7036C38.8717 87.8509 38.9438 88.0182 38.9794 88.1949C39.0437 88.5229 39.125 88.8509 39.2234 89.1788C40.7976 94.4504 46.0023 97.5535 50.8587 96.1072C55.7151 94.6609 58.3834 89.2201 56.8131 83.9426C56.7147 83.616 56.6045 83.2953 56.4786 82.9844C56.4128 82.8171 56.3827 82.638 56.3899 82.4584C56.3972 82.2789 56.4418 82.1028 56.5208 81.9414C56.5998 81.78 56.7116 81.6368 56.849 81.5209C56.9864 81.4051 57.1464 81.3191 57.3188 81.2685L79.1765 74.7631L61.9863 17Z" fill="white"/>
</mask>
<g mask="url(#mask1_510_27)">
<path opacity="0.52" d="M8.21768 73.0276C8.21768 73.0276 0.403769 45.1604 4.93548 39.023C8.75487 33.8518 15.5141 30.8254 23.4972 28.4483C10.1165 28.3657 -7.12482 33.4936 -7.12482 33.4936L8.21768 73.0276Z" fill="#45CC80"/>
</g>
<path d="M61.9863 17.2536L66.8801 33.696C66.9593 33.9579 66.9816 34.2338 66.9454 34.505C66.9092 34.7762 66.8153 35.0365 66.67 35.2684C66.5248 35.5003 66.3316 35.6984 66.1035 35.8494C65.8753 36.0005 65.6174 36.1009 65.3472 36.1439C64.8369 36.2198 64.3326 36.3316 63.838 36.4784C58.5664 38.0526 55.4632 43.2573 56.9095 48.1157C58.3558 52.974 63.7966 55.6384 69.0722 54.0701C69.567 53.9235 70.0505 53.7407 70.5184 53.523C70.768 53.4132 71.0381 53.3577 71.3108 53.3604C71.5835 53.363 71.8524 53.4237 72.0998 53.5383C72.3472 53.653 72.5674 53.819 72.7456 54.0254C72.9239 54.2318 73.0561 54.4737 73.1336 54.7352L79.1647 75.0029L99.9697 68.8085C100.566 68.6265 101.066 68.2162 101.361 67.6669C101.656 67.1177 101.722 66.4741 101.544 65.8765L101.526 65.8175C99.952 60.5439 102.624 55.0972 107.481 53.6529C112.337 52.2086 117.548 55.3097 119.116 60.5833L119.134 60.6404C119.312 61.2395 119.721 61.7434 120.271 62.0415C120.82 62.3396 121.466 62.4075 122.065 62.2303L136.135 58.0429C137.918 57.5118 139.418 56.294 140.303 54.6574C141.189 53.0209 141.388 51.0995 140.857 49.316L127.674 5.01421C127.142 3.23076 125.925 1.73132 124.288 0.845682C122.651 -0.0399555 120.73 -0.239254 118.947 0.291624L61.9863 17.2536Z" fill="#FF575C"/>
<mask id="mask2_510_27" style="mask-type:luminance" maskUnits="userSpaceOnUse" x="56" y="0" width="86" height="76">
<path d="M61.9863 17.2536L66.8801 33.696C66.9594 33.9579 66.9816 34.2338 66.9454 34.505C66.9092 34.7762 66.8153 35.0365 66.6701 35.2684C66.5248 35.5003 66.3316 35.6984 66.1035 35.8494C65.8753 36.0005 65.6174 36.1009 65.3472 36.1439C64.8369 36.2198 64.3326 36.3316 63.838 36.4784C58.5664 38.0526 55.4632 43.2573 56.9095 48.1157C58.3558 52.974 63.7966 55.6384 69.0722 54.0701C69.5671 53.9235 70.0505 53.7407 70.5185 53.523C70.768 53.4132 71.0381 53.3577 71.3108 53.3604C71.5835 53.363 71.8524 53.4237 72.0998 53.5383C72.3472 53.653 72.5674 53.819 72.7456 54.0254C72.9239 54.2318 73.0561 54.4737 73.1336 54.7352L79.1647 75.0029L99.9697 68.8085C100.566 68.6265 101.066 68.2162 101.361 67.6669C101.656 67.1177 101.722 66.4741 101.544 65.8765L101.526 65.8175C99.952 60.5439 102.624 55.0972 107.481 53.6529C112.337 52.2086 117.548 55.3097 119.116 60.5833L119.134 60.6404C119.312 61.2395 119.721 61.7434 120.271 62.0415C120.82 62.3396 121.466 62.4075 122.065 62.2303L136.135 58.0429C137.918 57.5118 139.418 56.294 140.303 54.6574C141.189 53.0209 141.388 51.0995 140.857 49.316L127.674 5.01421C127.142 3.23076 125.925 1.73132 124.288 0.845682C122.651 -0.0399555 120.73 -0.239254 118.947 0.291624L61.9863 17.2536Z" fill="white"/>
</mask>
<g mask="url(#mask2_510_27)">
<path opacity="0.19" d="M63.8379 36.4765C63.8379 36.4765 58.3755 39.3652 60.3668 46.0673C62.3582 52.7694 67.0158 53.6411 70.0796 54.1882C64.5699 58.9855 48.2888 52.3818 48.2888 52.3818L54.44 35.835L63.8379 36.4765Z" fill="#FF97C9"/>
<path opacity="0.19" d="M136.835 35.7504C136.835 35.7504 128.14 8.14493 120.991 5.48257C114.966 3.24131 106.341 2.41683 98.362 4.79189C109.525 -2.59699 128.075 -5.73947 128.075 -5.73947L136.835 35.7504Z" fill="#FF97C9"/>
<path d="M105.7 37C105.7 37 105.605 39.623 102.512 40.5419C99.4187 41.4609 98 39.2885 98 39.2885" stroke="#992224" stroke-width="3.94472" stroke-miterlimit="10" stroke-linecap="round"/>
</g>
<path d="M23.0427 59.747C24.9032 59.747 26.4115 58.2388 26.4115 56.3782C26.4115 54.5177 24.9032 53.0095 23.0427 53.0095C21.1822 53.0095 19.6739 54.5177 19.6739 56.3782C19.6739 58.2388 21.1822 59.747 23.0427 59.747Z" fill="#1B6137"/>
<path d="M48.0311 52.3129C49.8916 52.3129 51.3998 50.8046 51.3998 48.9441C51.3998 47.0836 49.8916 45.5753 48.0311 45.5753C46.1705 45.5753 44.6623 47.0836 44.6623 48.9441C44.6623 50.8046 46.1705 52.3129 48.0311 52.3129Z" fill="#1B6137"/>
<path d="M41.3939 56.7754C41.3939 56.7754 41.2994 59.3984 38.2061 60.3173C35.1128 61.2362 33.6941 59.0639 33.6941 59.0639" stroke="#1B6137" stroke-width="3.94472" stroke-miterlimit="10" stroke-linecap="round"/>
<path d="M44.0011 118.362C45.8616 118.362 47.3699 116.854 47.3699 114.993C47.3699 113.133 45.8616 111.625 44.0011 111.625C42.1406 111.625 40.6323 113.133 40.6323 114.993C40.6323 116.854 42.1406 118.362 44.0011 118.362Z" fill="#1138AD"/>
<path d="M68.9895 110.926C70.85 110.926 72.3583 109.418 72.3583 107.557C72.3583 105.697 70.85 104.188 68.9895 104.188C67.129 104.188 65.6207 105.697 65.6207 107.557C65.6207 109.418 67.129 110.926 68.9895 110.926Z" fill="#1138AD"/>
<path d="M90.9554 36.1695C91.4847 37.9523 90.1683 38.8122 88.3836 39.3435C86.5988 39.8748 85.0266 39.8748 84.4953 38.092C84.3587 37.6649 84.3087 37.2148 84.3482 36.7681C84.3876 36.3214 84.5159 35.8871 84.7253 35.4906C84.9348 35.0941 85.2212 34.7434 85.5679 34.459C85.9146 34.1746 86.3146 33.9622 86.7444 33.8343C87.1742 33.7064 87.6251 33.6655 88.0709 33.7141C88.5167 33.7627 88.9483 33.8997 89.3405 34.1172C89.7326 34.3347 90.0775 34.6282 90.3548 34.9806C90.6321 35.333 90.8363 35.7372 90.9554 36.1695Z" fill="#992224"/>
<path d="M115.942 28.7334C116.473 30.5181 115.155 31.3761 113.37 31.9073C111.585 32.4386 110.013 32.4386 109.482 30.6559C109.345 30.2288 109.295 29.7787 109.335 29.332C109.374 28.8853 109.502 28.451 109.712 28.0545C109.921 27.658 110.208 27.3073 110.554 27.0229C110.901 26.7385 111.301 26.5261 111.731 26.3982C112.161 26.2703 112.612 26.2294 113.057 26.278C113.503 26.3266 113.935 26.4636 114.327 26.6811C114.719 26.8985 115.064 27.1921 115.341 27.5445C115.618 27.8969 115.823 28.3011 115.942 28.7334Z" fill="#992224"/>
<path d="M118.209 105.558L121.568 111.638" stroke="#5985FF" stroke-width="5.25962" stroke-miterlimit="10" stroke-linecap="round"/>
<path d="M125.346 84.7039L131.64 81.7661" stroke="#5985FF" stroke-width="5.25962" stroke-miterlimit="10" stroke-linecap="round"/>
<path d="M124.954 95.9535L133.071 98.6218" stroke="#5985FF" stroke-width="5.25962" stroke-miterlimit="10" stroke-linecap="round"/>
</svg>
