<svg width="136" height="148" viewBox="0 0 136 148" fill="none" xmlns="http://www.w3.org/2000/svg">
<g filter="url(#filter0_d_746_456)">
<path d="M102.005 105.845C102.01 104.97 102.128 104.134 102.717 103.463C103.476 102.601 104.616 102.473 105.607 103.142C106.548 103.778 107.126 104.748 107.615 105.769C108.573 107.77 109.137 109.911 109.424 112.134C109.501 112.726 109.462 113.323 109.344 113.91C109.018 115.546 107.494 116.361 106.074 115.654C105.175 115.206 104.523 114.493 104.073 113.545C103.031 111.357 102.522 108.996 102.054 106.62C102.005 106.369 102.02 106.104 102.004 105.845H102.005Z" fill="#FECF0F"/>
<path d="M119.102 103.41C118.756 103.415 118.414 103.366 118.087 103.258C115.831 102.52 113.626 101.644 111.568 100.393C110.698 99.8631 109.966 99.1653 109.553 98.1546C109.066 96.9607 109.416 95.7331 110.409 95.1327C110.792 94.9024 111.232 94.7224 111.639 94.8586C112.437 95.1243 113.285 94.9242 114.071 95.2572C115.187 95.7314 116.282 96.251 117.284 96.9657C117.998 97.4736 118.73 97.9478 119.487 98.3783C120.018 98.681 120.511 99.0408 120.877 99.5722C121.431 100.376 121.687 101.24 121.24 102.182C120.803 103.1 120.021 103.413 119.102 103.411V103.41Z" fill="#FECF10"/>
<path d="M113.973 88.665C113.029 88.6718 112.167 88.4952 111.427 87.9033C110.275 86.9817 110.513 85.4935 111.249 84.6157C112.553 83.0585 114.341 82.6701 115.976 81.9083C116.874 81.4896 117.823 81.1785 118.806 81.0389C119.584 80.9279 120.347 81.0002 121.064 81.3668C122.347 82.0226 122.696 83.5714 121.835 84.7889C121.291 85.5574 120.575 86.1224 119.807 86.5916C118.238 87.5484 116.588 88.3001 114.785 88.5927C114.672 88.6112 114.559 88.6297 114.446 88.6398C114.275 88.6533 114.103 88.66 113.973 88.6667V88.665Z" fill="#FECF10"/>
</g>
<g filter="url(#filter1_d_746_456)">
<path d="M12.1315 80.7511C12.8462 81.0757 13.5436 80.7898 14.2285 80.6401C16.5971 80.1205 18.9548 79.5504 21.3187 79.0106C23.4455 78.5246 25.5974 78.1866 27.7509 77.862C29.2321 77.6401 30.6865 77.2886 32.1489 76.9775C32.4332 76.917 32.7191 76.9153 33.0002 76.9472C33.5547 77.0095 33.9364 77.514 33.9332 78.1681C33.927 80.0078 34.2254 81.7685 35.006 83.43C36.1495 85.8583 37.9967 87.2591 40.4596 87.7366C41.6738 87.9721 42.899 88.1217 44.1398 87.8275C45.442 87.5197 46.5462 86.8302 47.564 85.9507C48.1153 85.4748 48.7138 85.0662 49.1724 84.4591C49.6264 83.8571 49.9876 83.2113 50.2641 82.5067C50.7919 81.1631 51.2065 79.7875 51.139 78.3043C51.0919 77.2836 50.8374 76.2931 50.6819 75.2875C50.6081 74.8132 50.6332 74.3424 50.7353 73.8799C50.7919 73.6243 50.9505 73.4797 51.216 73.4377C52.6924 73.2073 54.1721 73.0004 55.6391 72.7095C57.7627 72.2891 59.9068 72.0099 62.0383 71.64C64.3095 71.2448 66.5965 70.9471 68.8568 70.4881C69.9767 70.261 71.1108 70.1904 72.226 69.9634C72.7129 72.2117 72.9454 74.5038 73.2454 76.7841C73.6334 79.7287 74.0166 82.6749 74.392 85.6228C74.5884 87.1649 74.7706 88.7086 74.9449 90.2524C74.9732 90.5046 75.0549 90.6896 75.2449 90.8225C75.8104 91.216 76.3931 91.4833 77.0937 91.2412C77.8508 90.9805 78.6173 90.7552 79.3807 90.5181C80.7126 90.1027 81.9315 90.5568 83.0734 91.1975C84.5185 92.0097 85.6761 93.202 86.6626 94.6011C87.2343 95.4133 87.7856 96.2222 87.9851 97.2312C88.1202 97.9156 88.3307 98.5782 88.4202 99.2778C88.8961 102.95 86.6217 106.398 83.8541 107.799C83.3515 108.053 82.8284 108.263 82.3383 108.542C81.2592 109.161 80.0812 109.114 78.9173 109.173C78.4209 109.198 78.333 109.326 78.4272 109.852C78.6927 111.333 78.966 112.808 78.9299 114.337C78.8985 115.665 79.1906 116.975 79.2801 118.297C79.4105 120.244 79.621 122.185 79.6854 124.137C79.7121 124.96 79.8126 125.779 79.6681 126.598C79.5252 127.41 79.354 128.231 78.966 128.939C78.4712 129.838 77.7801 130.576 76.8958 131.064C75.5748 131.792 74.1423 132.12 72.6909 132.389C68.7029 133.126 64.7226 133.906 60.7314 134.628C55.5056 135.573 50.2955 136.624 45.0508 137.453C41.2308 138.056 37.4203 138.724 33.5987 139.319C31.3855 139.664 29.1645 140.005 26.9199 139.995C25.8283 139.99 24.7303 140.063 23.6481 139.773C21.1145 139.099 19.3129 136.94 19.071 134.158C18.9296 132.546 18.6328 130.96 18.4097 129.362C17.9055 125.742 17.3605 122.126 16.8217 118.511C16.3018 115.016 15.7521 111.525 15.2463 108.027C14.8065 104.982 14.4044 101.931 13.9944 98.8809C13.6316 96.1785 13.2656 93.4761 12.9279 90.7686C12.5965 88.1083 12.2368 85.4479 12.1692 82.7573C12.152 82.0863 12.1033 81.4154 12.1284 80.7444L12.1315 80.7511ZM48.3729 113.607C48.7295 113.639 49.0625 113.513 49.4033 113.499C49.474 113.496 49.5431 113.472 49.6122 113.457C51.5254 113.06 52.6924 111.73 53.4527 109.909C53.7495 109.198 53.9961 108.463 53.8045 107.659C53.638 106.953 53.2516 106.458 52.5778 106.282C51.8867 106.102 51.2112 106.389 50.817 106.995C50.6254 107.289 50.5405 107.624 50.4604 107.965C50.173 109.204 49.4018 109.855 48.2206 109.852C47.4682 109.849 46.8619 109.474 46.287 108.999C45.8126 108.607 45.4404 108.091 44.9252 107.753C44.143 107.24 43.2885 107.607 43.0325 108.544C42.8581 109.183 42.9555 109.793 43.2304 110.358C44.3126 112.585 46.1896 113.383 48.3714 113.607H48.3729ZM38.3972 105.841C38.3925 104.26 37.626 102.93 36.3977 102.557C35.0249 102.14 33.8767 102.661 32.9327 103.739C32.0028 104.8 31.8002 106.529 32.441 107.693C33.1259 108.937 34.6621 109.64 35.9799 109.312C37.4627 108.944 38.402 107.595 38.3972 105.841ZM59.0555 104.901C59.4261 104.921 59.8424 104.859 60.2398 104.659C61.3707 104.086 61.9472 103.066 62.1576 101.809C62.3555 100.628 62.0021 99.5922 61.1555 98.8052C60.3513 98.0586 59.39 97.8971 58.3895 98.2385C56.8392 98.7665 55.7789 100.932 56.1685 102.695C56.4716 104.064 57.5397 104.899 59.0555 104.903V104.901Z" fill="#3366FF"/>
<path d="M48.3748 113.609C46.1914 113.385 44.3159 112.586 43.2336 110.36C42.9587 109.795 42.8613 109.184 43.0357 108.545C43.2917 107.609 44.1462 107.242 44.9285 107.755C45.4421 108.091 45.816 108.609 46.2904 109.001C46.8653 109.475 47.4732 109.852 48.224 109.854C49.4053 109.857 50.1765 109.208 50.464 107.967C50.5425 107.626 50.6289 107.289 50.8206 106.997C51.2148 106.393 51.8903 106.104 52.5814 106.284C53.2569 106.46 53.6417 106.956 53.8082 107.661C53.9983 108.465 53.7532 109.2 53.4564 109.911C52.6961 111.732 51.529 113.062 49.6158 113.459C49.5466 113.474 49.4775 113.498 49.4068 113.501C49.066 113.515 48.733 113.641 48.3764 113.609H48.3748Z" fill="#1239AE"/>
<path d="M38.3992 105.843C38.4039 107.597 37.4646 108.946 35.9818 109.314C34.6639 109.642 33.1276 108.939 32.4428 107.694C31.8019 106.529 32.0045 104.802 32.9344 103.741C33.88 102.663 35.0283 102.142 36.3996 102.559C37.628 102.932 38.3945 104.262 38.3992 105.843Z" fill="#1239AD"/>
<path d="M59.0572 104.903C57.5414 104.9 56.4733 104.064 56.1701 102.695C55.7806 100.933 56.8408 98.7684 58.3912 98.2387C59.3918 97.8974 60.3532 98.0571 61.1574 98.8054C62.0041 99.5924 62.3559 100.628 62.1596 101.809C61.9491 103.067 61.3726 104.087 60.2416 104.659C59.8442 104.861 59.4279 104.923 59.0572 104.901V104.903Z" fill="#1239AD"/>
</g>
<g filter="url(#filter2_d_746_456)">
<path d="M72.5403 69.6876C72.6345 68.8115 72.4507 67.9555 72.3549 67.0979C72.1083 64.9067 71.8209 62.7206 71.5334 60.5345C71.2758 58.5753 70.9805 56.6213 70.7308 54.6605C70.4983 52.8359 70.1826 51.0265 69.9768 49.1968C69.7727 47.3941 68.747 46.8207 67.1888 47.088C63.7191 47.6867 60.5839 46.9384 58.055 44.2847C56.7576 42.9243 55.911 41.1603 55.9502 39.1019C55.966 38.3132 55.7649 37.5313 55.9455 36.7359C56.4325 34.6002 57.2775 32.6966 58.9268 31.2941C60.0608 30.3288 61.2907 29.5552 62.6887 29.1029C63.3311 28.8944 63.9877 28.9768 64.6348 28.9448C65.3997 28.9061 66.0343 28.6203 66.5197 28.0435C66.9281 27.5575 66.7694 26.9016 66.7082 26.3215C66.3375 22.795 65.7233 19.3056 65.2741 15.791C65.0369 13.9362 64.7683 12.0864 64.5107 10.2332C64.4714 9.95572 64.4023 9.68665 64.0835 9.62948C64.8531 9.27129 65.6888 9.24774 66.4993 9.11153C68.8616 8.71298 71.2303 8.3632 73.5927 7.9697C76.2079 7.53415 78.8216 7.08347 81.4322 6.61598C84.3239 6.09803 87.2109 5.5515 90.101 5.0201C92.4712 4.58455 94.8509 4.21291 97.2447 3.94721C99.128 3.73869 100.994 3.38554 102.866 3.09125C105.246 2.71625 107.624 2.32947 110.002 1.94606C112.198 1.59291 114.394 1.24145 116.59 0.888303C117.815 0.691551 119.039 0.493118 120.264 0.299729C120.66 0.237508 121.014 0.022258 121.424 0.00375992C123.411 -0.0853671 125.303 1.4197 125.827 3.4898C126.086 4.51392 125.969 5.59354 126.245 6.60589C126.898 9.00391 127.06 11.4894 127.414 13.9395C127.809 16.6789 128.131 19.4301 128.49 22.1762C128.788 24.47 129.102 26.7604 129.39 29.0541C129.642 31.0771 129.867 33.1052 130.106 35.1299C130.351 37.2151 130.605 39.3004 130.838 41.3873C131.037 43.1715 131.224 44.9591 131.391 46.7484C131.54 48.356 131.684 49.9653 131.774 51.5763C131.843 52.8393 131.788 54.1055 131.67 55.3668C131.65 55.5787 131.576 55.7905 131.584 55.9991C131.65 57.6874 130.937 58.8898 129.658 59.8248C128.661 60.5546 127.535 60.8338 126.407 61.16C124.602 61.683 122.752 61.947 120.917 62.3052C118.958 62.687 116.992 63.0468 114.984 63.0115C114.403 63.0014 113.822 63.1074 113.241 63.146C112.123 63.22 111.449 62.4213 111.27 61.1533C110.888 58.4425 110.137 55.8914 108.32 53.855C105.862 51.1021 102.141 50.6599 99.1358 52.7384C96.4059 54.6268 94.9514 57.4083 94.3184 60.7413C94.1142 61.8175 94.0294 62.9022 94.1221 64.0121C94.254 65.5827 93.3461 66.5581 91.8744 66.664C90.3005 66.7767 88.7423 67.039 87.1842 67.3333C84.8171 67.779 82.4453 68.2044 80.0562 68.5122C78.5467 68.7055 77.053 69.0402 75.5451 69.2689C74.5461 69.4219 73.5581 69.6725 72.5418 69.6809L72.5403 69.6876ZM103.542 34.7919C103.531 33.8956 103.245 33.2195 102.547 32.8277C101.878 32.451 101.217 32.5536 100.63 33.0564C100.212 33.4146 100.015 33.9275 99.8882 34.4673C99.739 35.1047 99.3542 35.4881 98.7903 35.7C97.6813 36.117 96.7153 35.8244 95.8656 35.0105C95.5891 34.7465 95.3331 34.4606 95.0064 34.2605C94.4362 33.9107 93.8535 33.8199 93.2629 34.1899C92.6754 34.5564 92.4257 35.14 92.4445 35.8412C92.4744 36.8754 92.9911 37.654 93.687 38.3048C95.6865 40.1731 98.7494 40.5313 101.12 38.9052C102.558 37.9181 103.4 36.5593 103.54 34.7919H103.542ZM88.4093 32.3031C88.4722 31.5429 88.2931 30.8434 87.858 30.2464C87.525 29.7907 87.1386 29.3551 86.5637 29.2744C85.9684 29.1903 85.3574 29.2357 84.7919 29.4325C83.5464 29.8664 82.8599 30.8535 82.5788 32.1971C82.1625 34.1882 83.6029 35.1955 85.1768 35.1063C85.714 35.0761 86.2731 34.8776 86.7648 34.6254C87.6601 34.1629 88.5224 33.6131 88.4093 32.3064V32.3031ZM108.502 30.7324C109.584 30.7509 110.561 30.3406 111.431 29.6259C111.777 29.3417 112.028 29.0037 112.047 28.484C112.101 27.021 111.417 26.0322 110.324 25.2906C109.719 24.8803 109.061 24.7037 108.367 24.966C107.062 25.4588 106.152 27.053 106.308 28.5194C106.459 29.9235 107.291 30.7761 108.501 30.7324H108.502Z" fill="#FE575C"/>
<path d="M103.541 34.7921C103.401 36.5594 102.559 37.9182 101.12 38.9053C98.7497 40.5314 95.6866 40.1732 93.687 38.305C92.9911 37.6542 92.4728 36.8756 92.4445 35.8414C92.4241 35.1401 92.6738 34.5566 93.2629 34.19C93.8551 33.8218 94.4363 33.9109 95.0065 34.2607C95.3316 34.4608 95.5892 34.7466 95.8657 35.0107C96.7171 35.8246 97.6816 36.1172 98.7905 35.7001C99.3545 35.4882 99.7393 35.1048 99.8885 34.4675C100.016 33.9277 100.211 33.4148 100.63 33.0566C101.217 32.5538 101.877 32.4512 102.548 32.8279C103.245 33.2197 103.531 33.8958 103.542 34.7921H103.541Z" fill="#9A2425"/>
<path d="M88.408 32.3031C88.5195 33.6098 87.6571 34.1596 86.7633 34.6221C86.2732 34.8743 85.714 35.0728 85.1752 35.103C83.6013 35.1938 82.1609 34.1849 82.5771 32.1938C82.8583 30.8502 83.5448 29.8631 84.7904 29.4292C85.3559 29.2325 85.9654 29.1888 86.5623 29.2712C87.1372 29.3519 87.5252 29.7874 87.8566 30.2431C88.2917 30.8401 88.4708 31.5397 88.408 32.2998V32.3031Z" fill="#992224"/>
<path d="M108.501 30.7307C107.293 30.7745 106.459 29.9219 106.308 28.5177C106.151 27.0513 107.062 25.4572 108.367 24.9645C109.061 24.7021 109.718 24.8804 110.324 25.289C111.418 26.0289 112.099 27.0194 112.047 28.4824C112.029 29.002 111.779 29.34 111.432 29.6242C110.56 30.3389 109.584 30.7475 108.502 30.7307H108.501Z" fill="#992325"/>
</g>
<g filter="url(#filter3_d_746_456)">
<path d="M72.5402 69.6879C72.4366 69.7804 72.3329 69.8712 72.2277 69.9637C71.1124 70.1907 69.9784 70.2613 68.8584 70.4884C66.5997 70.9475 64.3112 71.2451 62.0399 71.6403C59.9084 72.0103 57.766 72.2894 55.6408 72.7098C54.1753 73.0007 52.6941 73.2059 51.2176 73.438C50.9521 73.48 50.7935 73.6246 50.737 73.8802C50.6364 74.3427 50.6097 74.8136 50.6836 75.2878C50.8391 76.2934 51.0935 77.2822 51.1406 78.3046C51.2082 79.7878 50.7935 81.1634 50.2657 82.5071C49.9893 83.2117 49.628 83.8574 49.1741 84.4594C48.7154 85.0682 48.117 85.4752 47.5657 85.9511C46.5463 86.8306 45.4436 87.52 44.1415 87.8278C42.9006 88.1221 41.6739 87.9707 40.4613 87.737C37.9984 87.2594 36.1512 85.8586 35.0077 83.4303C34.2255 81.7688 33.9286 80.0081 33.9349 78.1684C33.9365 77.5143 33.5548 77.0081 33.0019 76.9476C32.7207 76.9156 32.4348 76.919 32.1505 76.9778C30.6866 77.2889 29.2321 77.6387 27.7525 77.8624C25.6006 78.1852 23.4487 78.5249 21.3204 79.0109C18.9564 79.5507 16.5988 80.1225 14.2301 80.6404C13.5468 80.7901 12.8479 81.076 12.1332 80.7514C11.5756 79.5306 11.5536 78.1819 11.3478 76.8803C10.8012 73.4212 10.286 69.9587 9.76453 66.4945C9.22891 62.9412 8.69957 59.3879 8.17024 55.8329C7.69431 52.6394 7.21367 49.4477 6.7503 46.2542C6.24139 42.743 5.75917 39.2267 5.24555 35.7171C4.91726 33.4721 4.64553 31.2187 4.42405 28.9585C4.27798 27.4552 4.17431 25.9434 4.19944 24.4366C4.21986 23.2241 4.82616 22.2084 5.50786 21.2667C6.45972 19.9517 7.77442 19.237 9.17236 18.603C10.553 17.9774 12.0232 17.9102 13.4589 17.6394C15.7019 17.214 17.9574 16.8642 20.2083 16.4909C23.1204 16.0065 26.0341 15.529 28.9478 15.0463C31.1987 14.673 33.4511 14.298 35.702 13.9264C38.4319 13.4757 41.1618 13.025 43.8917 12.576C46.6217 12.127 49.35 11.6629 52.0831 11.2408C55.0847 10.7766 58.0754 10.2351 61.0943 9.90723C61.6896 9.84333 62.2959 9.84333 62.8771 9.71216C63.2855 9.61967 63.675 9.56754 64.0819 9.63312C64.4007 9.6903 64.4714 9.95768 64.5091 10.2368C64.7667 12.0883 65.0353 13.9398 65.2725 15.7947C65.7233 19.3093 66.3374 22.7987 66.7065 26.3251C66.7678 26.9053 66.9264 27.5628 66.5181 28.0471C66.0327 28.6239 65.3966 28.9098 64.6332 28.9485C63.9876 28.9804 63.3295 28.8997 62.6871 29.1065C61.2891 29.5589 60.0592 30.3324 58.9252 31.2977C57.2759 32.7002 56.4308 34.6038 55.9439 36.7395C55.7617 37.5349 55.9643 38.3152 55.9486 39.1056C55.9094 41.1639 56.756 42.9279 58.0534 44.2884C60.5839 46.942 63.7174 47.6887 67.1872 47.0917C68.7453 46.8226 69.7726 47.3977 69.9752 49.2005C70.181 51.0301 70.4967 52.8395 70.7292 54.6641C70.9789 56.6249 71.2742 58.579 71.5318 60.5381C71.8193 62.7242 72.1051 64.9104 72.3533 67.1015C72.4507 67.9592 72.6345 68.8151 72.5387 69.6913L72.5402 69.6879ZM37.0496 51.4505C37.6826 51.5329 38.3832 51.2807 39.0727 50.9729C40.8995 50.1556 42.1247 48.7683 42.599 46.6814C42.8111 45.7464 42.2849 44.7038 41.4335 44.4061C40.3702 44.0345 39.1905 44.3994 38.6738 45.8473C38.1005 47.4549 35.9847 47.5121 35.1773 46.488C35.0485 46.3249 34.9056 46.1718 34.7485 46.0407C34.1155 45.5126 33.415 45.3613 32.6704 45.7245C31.9275 46.0861 31.5442 46.7184 31.5489 47.6079C31.5521 48.3798 31.9118 48.9802 32.3736 49.5116C33.5987 50.9208 35.1632 51.4471 37.0496 51.4488V51.4505ZM26.5933 43.3971C26.6703 42.0131 25.4734 40.2054 23.5681 40.2878C21.9345 40.3584 20.7235 41.6179 20.7109 43.4055C20.6984 45.2352 22.0193 46.6057 23.6843 46.5973C25.3273 46.5906 26.5996 45.1897 26.5933 43.3971ZM47.4541 42.2956C49.0673 42.2973 50.3019 40.9806 50.3207 39.2821C50.3364 37.915 49.0657 36.1341 47.3662 36.1997C45.8379 36.2586 44.5781 37.5686 44.5734 39.2199C44.5687 40.915 45.8583 42.2923 47.4526 42.2956H47.4541Z" fill="#45CB80"/>
<path d="M37.0499 51.4501C35.1634 51.4501 33.6005 50.9221 32.3737 49.5129C31.9103 48.9815 31.5521 48.3812 31.549 47.6093C31.5443 46.718 31.9276 46.0874 32.6705 45.7259C33.4151 45.3627 34.1141 45.514 34.7487 46.042C34.9058 46.1732 35.0487 46.3262 35.1775 46.4893C35.9834 47.5134 38.1008 47.4563 38.6741 45.8486C39.1894 44.4008 40.3706 44.0359 41.434 44.4075C42.2854 44.7051 42.8116 45.7477 42.5996 46.6827C42.1252 48.7679 40.9 50.157 39.0731 50.9742C38.3835 51.282 37.683 51.5342 37.0499 51.4518V51.4501Z" fill="#1C6238"/>
<path d="M26.5935 43.3969C26.5998 45.1912 25.3275 46.5903 23.6844 46.5971C22.0194 46.6038 20.6983 45.235 20.7109 43.4054C20.7235 41.6178 21.9346 40.3583 23.5682 40.2876C25.4736 40.2052 26.6705 42.013 26.5935 43.3969Z" fill="#1C6138"/>
<path d="M47.4542 42.2954C45.8599 42.2937 44.5687 40.9148 44.575 39.2197C44.5797 37.5684 45.8395 36.2584 47.3679 36.1995C49.0675 36.1339 50.3382 37.9148 50.3225 39.2819C50.3037 40.9804 49.069 42.2971 47.4558 42.2954H47.4542Z" fill="#1C6138"/>
</g>
<defs>
<filter id="filter0_d_746_456" x="98.0039" y="80.9912" width="28.3036" height="42.9187" filterUnits="userSpaceOnUse" color-interpolation-filters="sRGB">
<feFlood flood-opacity="0" result="BackgroundImageFix"/>
<feColorMatrix in="SourceAlpha" type="matrix" values="0 0 0 0 0 0 0 0 0 0 0 0 0 0 0 0 0 0 127 0" result="hardAlpha"/>
<feOffset dy="4"/>
<feGaussianBlur stdDeviation="2"/>
<feComposite in2="hardAlpha" operator="out"/>
<feColorMatrix type="matrix" values="0 0 0 0 0 0 0 0 0 0 0 0 0 0 0 0 0 0 0.1 0"/>
<feBlend mode="normal" in2="BackgroundImageFix" result="effect1_dropShadow_746_456"/>
<feBlend mode="normal" in="SourceGraphic" in2="effect1_dropShadow_746_456" result="shape"/>
</filter>
<filter id="filter1_d_746_456" x="8.12134" y="69.9634" width="84.3622" height="78.0365" filterUnits="userSpaceOnUse" color-interpolation-filters="sRGB">
<feFlood flood-opacity="0" result="BackgroundImageFix"/>
<feColorMatrix in="SourceAlpha" type="matrix" values="0 0 0 0 0 0 0 0 0 0 0 0 0 0 0 0 0 0 127 0" result="hardAlpha"/>
<feOffset dy="4"/>
<feGaussianBlur stdDeviation="2"/>
<feComposite in2="hardAlpha" operator="out"/>
<feColorMatrix type="matrix" values="0 0 0 0 0 0 0 0 0 0 0 0 0 0 0 0 0 0 0.1 0"/>
<feBlend mode="normal" in2="BackgroundImageFix" result="effect1_dropShadow_746_456"/>
<feBlend mode="normal" in="SourceGraphic" in2="effect1_dropShadow_746_456" result="shape"/>
</filter>
<filter id="filter2_d_746_456" x="51.8698" y="0" width="83.9346" height="77.6876" filterUnits="userSpaceOnUse" color-interpolation-filters="sRGB">
<feFlood flood-opacity="0" result="BackgroundImageFix"/>
<feColorMatrix in="SourceAlpha" type="matrix" values="0 0 0 0 0 0 0 0 0 0 0 0 0 0 0 0 0 0 127 0" result="hardAlpha"/>
<feOffset dy="4"/>
<feGaussianBlur stdDeviation="2"/>
<feComposite in2="hardAlpha" operator="out"/>
<feColorMatrix type="matrix" values="0 0 0 0 0 0 0 0 0 0 0 0 0 0 0 0 0 0 0.1 0"/>
<feBlend mode="normal" in2="BackgroundImageFix" result="effect1_dropShadow_746_456"/>
<feBlend mode="normal" in="SourceGraphic" in2="effect1_dropShadow_746_456" result="shape"/>
</filter>
<filter id="filter3_d_746_456" x="0.195679" y="9.60376" width="76.3699" height="86.3866" filterUnits="userSpaceOnUse" color-interpolation-filters="sRGB">
<feFlood flood-opacity="0" result="BackgroundImageFix"/>
<feColorMatrix in="SourceAlpha" type="matrix" values="0 0 0 0 0 0 0 0 0 0 0 0 0 0 0 0 0 0 127 0" result="hardAlpha"/>
<feOffset dy="4"/>
<feGaussianBlur stdDeviation="2"/>
<feComposite in2="hardAlpha" operator="out"/>
<feColorMatrix type="matrix" values="0 0 0 0 0 0 0 0 0 0 0 0 0 0 0 0 0 0 0.1 0"/>
<feBlend mode="normal" in2="BackgroundImageFix" result="effect1_dropShadow_746_456"/>
<feBlend mode="normal" in="SourceGraphic" in2="effect1_dropShadow_746_456" result="shape"/>
</filter>
</defs>
</svg>
