<svg width="156" height="148" viewBox="0 0 156 148" fill="none" xmlns="http://www.w3.org/2000/svg">
<g filter="url(#filter0_d_746_481)">
<path d="M61.0947 21.0011C59.439 20.9789 57.7966 20.7363 56.1343 20.763C52.2532 20.8298 48.4054 21.0434 44.6423 22.1539C42.6127 22.7525 40.5653 23.2644 38.6114 24.11C37.0804 24.7732 35.8163 25.7946 34.5723 26.8584C34.4344 26.9763 34.312 27.1165 34.1629 27.2189C31.9909 28.73 30.7335 30.8552 30.0236 33.3566C29.8656 33.9151 29.9257 34.3914 30.1905 34.921C31.8284 38.1857 34.4633 40.3488 37.7747 41.7063C39.3392 42.3472 41.0371 42.5808 42.6862 42.9592C45.3856 43.5801 48.1629 43.7292 50.8512 44.3278C53.2568 44.8641 55.687 44.8263 58.0993 45.1111C60.4538 45.3893 62.8416 45.4338 65.1494 45.9991C66.7183 46.3818 68.3473 46.4174 69.885 46.9271C69.9406 46.9449 70.003 46.9582 70.063 46.956C72.531 46.8269 74.8209 47.726 77.1777 48.2222C79.4453 48.7007 81.7152 49.1947 83.9362 49.8423C86.3018 50.53 88.6963 51.093 91.0931 51.6249C93.6901 52.2013 96.1759 53.0536 98.6149 54.0795C100.907 55.0431 102.959 56.3895 104.857 57.9828C106.564 59.416 108.14 60.9827 109.568 62.6896C111.654 65.1798 113.082 68.0394 114.248 71.0549C115.007 73.0177 115.463 75.025 115.535 77.1213C115.579 78.3965 115.377 79.6605 115.317 80.929C115.212 81.0091 115.208 81.0892 115.314 81.1715C114.903 85.5578 113.783 89.6948 111.533 93.5559C108.838 98.1825 105.113 101.703 100.685 104.583C99.5986 105.288 98.4658 105.905 97.3131 106.49C96.8858 106.706 96.5409 106.695 96.1292 106.441C93.8971 105.075 91.527 104 88.9434 103.53C88.0265 103.363 87.0295 103.399 86.106 103.552C84.0808 103.886 82.0446 104.187 80.0751 104.814C77.8386 105.526 75.9336 106.781 74.1889 108.315C72.4642 109.83 70.9287 111.502 69.8694 113.564C69.6202 114.047 69.3576 114.524 69.1061 115.004C68.9214 115.356 68.6521 115.527 68.2382 115.521C65.7769 115.472 63.3134 115.639 60.8499 115.505C60.7742 115.403 60.6919 115.389 60.6073 115.494C58.7869 115.456 56.9688 115.418 55.1484 115.383C54.9926 115.245 54.8302 115.236 54.6633 115.365C54.2182 115.331 53.7731 115.298 53.328 115.265C53.1233 115.102 52.9052 115.138 52.6827 115.218C52.3733 115.193 52.0618 115.167 51.7524 115.142C51.679 115.042 51.5989 115.018 51.5099 115.124C51.1872 115.089 50.8623 115.055 50.5396 115.02C50.4662 114.922 50.3883 114.893 50.297 115C50.0834 114.949 49.8475 114.96 49.6717 114.791C49.6917 114.533 49.6227 114.334 49.3312 114.288C48.7437 113.389 48.0115 112.603 47.2126 111.909C44.9917 109.975 42.5148 108.457 39.733 107.429C38.1641 106.85 36.5685 106.514 34.9106 106.454C32.9166 106.381 31.005 106.813 29.1401 107.471C28.4035 107.732 27.6447 107.954 27.0816 108.568C26.8012 108.873 26.4051 108.851 26.0045 108.767C24.7383 108.504 23.6478 107.834 22.4862 107.32C20.1028 106.265 17.7995 105.059 15.5607 103.733C14.0764 102.854 12.848 101.636 11.4571 100.63C9.39415 99.1417 7.4625 97.4815 5.50637 95.857C4.91441 95.3651 4.24679 94.9045 4.09324 94.0566C4.03093 93.7117 4.03761 93.389 4.26237 93.0797C8.02108 87.9501 11.7731 82.8139 15.5274 77.6821C15.5741 77.6176 15.6386 77.5642 15.6943 77.5063C16.0704 77.4974 16.4331 77.5753 16.7914 77.6732C19.9982 80.7776 23.4498 83.5816 27.3865 85.6958C30.7113 87.4805 34.0805 89.1919 37.5789 90.6295C38.9987 91.2125 40.3873 91.8757 41.8271 92.4009C43.9747 93.1842 46.229 93.5737 48.4633 94.0344C51.1449 94.5863 53.8732 94.6441 56.5838 94.9089C58.6534 95.1115 60.723 95.3718 62.7993 95.354C65.7146 95.3273 68.5631 94.6953 71.4339 94.2391C74.0109 93.8296 76.5501 93.3089 79.0425 92.5433C80.0818 92.2251 81.0944 91.8535 82.0735 91.3461C84.704 89.9797 86.847 88.0302 88.8343 85.8961C90.1695 84.4607 91.0041 82.7226 90.786 80.722C90.6191 79.1798 90.1139 77.6932 89.1347 76.427C88.4115 75.4945 87.8952 74.4152 86.9227 73.6586C84.7106 71.9406 82.2516 70.8145 79.5121 70.2359C77.5003 69.8109 75.5353 69.1633 73.4879 68.9029C71.7521 68.6804 69.9918 68.6002 68.2694 68.3043C65.5588 67.8392 62.806 67.9215 60.0932 67.5031C57.5051 67.1025 54.9236 66.6352 52.2888 66.6041C51.3919 66.5929 50.4973 66.357 49.5983 66.2702C47.1881 66.0388 44.8292 65.4647 42.4213 65.2332C37.7346 64.7837 33.3461 63.2571 28.9755 61.6303C26.5787 60.7379 24.3444 59.534 22.0901 58.3612C21.3735 57.9873 20.628 57.6735 19.9181 57.293C15.9813 55.1855 12.6499 52.3103 9.81475 48.9077C7.83859 46.5354 6.7437 43.6713 6.02934 40.6626C5.38397 37.9476 4.88771 35.2259 5.03904 32.4174C5.10135 31.2647 5.32389 30.1409 5.56423 29.0215C6.54563 24.4594 8.46616 20.338 11.466 16.7528C12.2271 15.8427 13.1395 15.0526 13.934 14.1736C15.6542 12.2753 17.8395 10.998 19.7935 9.41347C22.5374 7.18807 25.5528 5.48118 28.7017 3.95011C31.3833 2.64825 34.2675 2.06297 37.1649 1.52665C37.2718 1.58673 37.3585 1.55558 37.4342 1.47101C37.5878 1.45098 37.7413 1.43318 37.8926 1.41315C37.9995 1.46879 38.0863 1.43986 38.1619 1.35306C38.8874 1.34861 39.604 1.2685 40.3161 1.14388C40.4185 1.21509 40.5075 1.18839 40.5876 1.10605C41.6691 0.914661 42.7529 0.725502 43.8345 0.534117C43.9368 0.607555 44.0258 0.580851 44.106 0.498511C44.3396 0.480708 44.5755 0.46513 44.8092 0.447327C45.0273 0.505187 45.2431 0.531892 45.4412 0.380564C45.7149 0.35386 45.9887 0.327155 46.2624 0.298225C46.3647 0.367212 46.4538 0.342733 46.5339 0.255942C47.019 0.227012 47.5042 0.200307 47.9893 0.171377C48.4366 0.269294 48.8839 0.298225 49.3245 0.133545C49.6895 0.133545 50.0522 0.133545 50.4172 0.133545C50.573 0.260393 50.7354 0.273745 50.9023 0.158024C51.8326 0.289323 52.7605 0.273745 53.6908 0.166926C54.0068 0.293774 54.3384 0.253717 54.6655 0.251491C58.709 0.454003 62.757 0.600879 66.7962 0.879054C70.7173 1.14833 74.6207 1.60008 78.4484 2.54811C79.5054 2.8107 80.5247 3.16232 81.5328 3.59627C82.9726 4.21716 84.4859 4.67781 85.9791 5.17185C88.9456 6.15326 91.7051 7.57084 94.4468 9.0485C97.0238 10.4372 99.6631 11.7234 102.136 13.2879C104.198 14.5898 106.128 16.103 108.111 17.5317C108.304 17.6719 108.476 17.8544 108.627 18.0391C108.825 18.2839 108.854 18.5754 108.649 18.8202C106.876 20.9166 105.336 23.1909 103.68 25.3785C101.486 28.2782 99.3315 31.209 97.1595 34.1243C96.572 34.9121 96.2582 34.97 95.4615 34.358C93.6835 32.9938 91.9921 31.5162 90.1562 30.2232C86.6156 27.733 82.9971 25.374 78.9023 23.8719C76.3965 22.9528 73.8039 22.3542 71.1891 21.8245C68.236 21.2259 65.2762 20.7519 62.2563 20.7697C62.036 20.7697 61.8157 20.7964 61.5954 20.812C61.3862 20.7719 61.2393 20.8899 61.0902 21.0056L61.0947 21.0011Z" fill="#3366FF"/>
</g>
<g filter="url(#filter1_d_746_481)">
<path d="M70.2967 122.855C70.2367 115.543 75.453 108.956 82.2427 107.108C84.0453 106.619 85.8746 106.394 87.7394 106.523C96.9215 107.16 103.647 114.922 103.032 123.977C102.736 128.359 100.925 132.08 97.6024 135.017C97.1484 135.418 96.7278 135.856 96.2783 136.261C94.6382 137.732 92.6287 138.447 90.5613 139.039C89.4931 139.343 88.416 139.557 87.2899 139.519C79.2251 139.257 72.491 134.512 70.635 126.285C70.3724 125.119 70.2611 123.932 70.2967 122.853V122.855Z" fill="#45CB80"/>
<path d="M121.04 120.964C121.341 119.535 121.85 118.175 122.589 116.929C125.825 111.473 130.632 108.824 136.979 108.993C137.199 109 137.422 109.04 137.642 109.065C137.713 109.169 137.791 109.196 137.884 109.091C139.956 109.356 141.817 110.186 143.704 111.05C146.757 112.447 148.515 115 150.258 117.644C151.028 118.814 151.27 120.134 151.575 121.449C151.471 121.545 151.502 121.623 151.609 121.689C151.635 121.852 151.662 122.014 151.691 122.177C151.571 122.31 151.595 122.43 151.726 122.537C151.755 122.902 151.782 123.267 151.811 123.632C151.673 124.035 151.675 124.436 151.809 124.838C151.78 125.203 151.753 125.568 151.724 125.933C151.593 126.04 151.568 126.16 151.686 126.294C151.66 126.456 151.631 126.619 151.604 126.781C151.504 126.863 151.482 126.959 151.553 127.073C151.531 127.177 151.511 127.282 151.488 127.386C151.384 127.467 151.359 127.562 151.426 127.678C151.373 127.896 151.317 128.112 151.264 128.33C151.155 128.412 151.106 128.512 151.172 128.646C151.046 129.027 150.919 129.407 150.792 129.788C150.674 129.859 150.62 129.955 150.667 130.095C150.594 130.277 150.518 130.457 150.445 130.64C150.316 130.7 150.26 130.798 150.296 130.94C148.649 134.365 146.11 136.882 142.651 138.469C142.509 138.427 142.411 138.484 142.349 138.611C142.046 138.727 141.743 138.845 141.443 138.961C141.187 138.947 140.958 139.005 140.769 139.19C140.591 139.239 140.413 139.29 140.235 139.339C140.117 139.281 140.021 139.31 139.947 139.417C139.883 139.432 139.816 139.448 139.749 139.464C139.634 139.404 139.538 139.43 139.462 139.533C139.358 139.555 139.251 139.575 139.146 139.597C139.033 139.528 138.937 139.55 138.855 139.653C138.692 139.682 138.53 139.708 138.365 139.737C138.229 139.619 138.111 139.646 138.005 139.777C137.68 139.806 137.357 139.838 137.032 139.866C136.427 139.731 135.824 139.733 135.218 139.862C134.936 139.835 134.651 139.809 134.368 139.782C134.246 139.642 134.106 139.646 133.954 139.728C133.81 139.704 133.665 139.682 133.52 139.657C133.438 139.553 133.34 139.53 133.227 139.606C133.122 139.584 133.018 139.562 132.913 139.539C132.846 139.43 132.768 139.395 132.67 139.504C131.012 139.116 129.448 138.491 128.008 137.581C124.265 135.213 121.928 131.857 120.998 127.529C120.918 127.162 120.684 126.819 120.798 126.418C120.929 126.285 120.905 126.165 120.767 126.056C120.738 125.691 120.711 125.326 120.682 124.961C120.825 124.558 120.822 124.157 120.684 123.755C120.713 123.39 120.74 123.025 120.769 122.66C120.909 122.539 120.902 122.397 120.827 122.246C120.847 122.101 120.867 121.956 120.889 121.812C120.994 121.729 121.014 121.632 120.943 121.518C120.963 121.413 120.985 121.311 121.005 121.206C121.112 121.14 121.147 121.062 121.038 120.964H121.04Z" fill="#FE575C"/>
<path d="M35.9833 138.674C35.0131 138.674 34.0428 138.678 33.0703 138.68C32.9969 138.578 32.9167 138.558 32.8277 138.66C27.1952 137.89 23.1272 134.946 20.6659 129.828C19.6133 127.64 19.2372 125.299 19.3373 122.873C19.64 115.601 25.2547 109.957 31.4435 108.824C33.5443 108.439 35.5984 108.637 37.6969 108.985C40.3585 109.423 42.6262 110.556 44.6891 112.223C46.5562 113.731 47.6801 115.752 48.5969 117.904C49.2734 119.493 49.4893 121.173 49.6028 122.902C50.0523 129.728 45.4369 135.879 39.4683 137.899C38.4135 138.258 37.3319 138.498 36.2281 138.651C36.1369 138.554 36.0568 138.576 35.9856 138.674H35.9833Z" fill="#FFCF0D"/>
</g>
<defs>
<filter id="filter0_d_746_481" x="0.0594482" y="0.133545" width="119.482" height="123.424" filterUnits="userSpaceOnUse" color-interpolation-filters="sRGB">
<feFlood flood-opacity="0" result="BackgroundImageFix"/>
<feColorMatrix in="SourceAlpha" type="matrix" values="0 0 0 0 0 0 0 0 0 0 0 0 0 0 0 0 0 0 127 0" result="hardAlpha"/>
<feOffset dy="4"/>
<feGaussianBlur stdDeviation="2"/>
<feComposite in2="hardAlpha" operator="out"/>
<feColorMatrix type="matrix" values="0 0 0 0 0 0 0 0 0 0 0 0 0 0 0 0 0 0 0.1 0"/>
<feBlend mode="normal" in2="BackgroundImageFix" result="effect1_dropShadow_746_481"/>
<feBlend mode="normal" in="SourceGraphic" in2="effect1_dropShadow_746_481" result="shape"/>
</filter>
<filter id="filter1_d_746_481" x="15.3218" y="106.487" width="140.489" height="41.3792" filterUnits="userSpaceOnUse" color-interpolation-filters="sRGB">
<feFlood flood-opacity="0" result="BackgroundImageFix"/>
<feColorMatrix in="SourceAlpha" type="matrix" values="0 0 0 0 0 0 0 0 0 0 0 0 0 0 0 0 0 0 127 0" result="hardAlpha"/>
<feOffset dy="4"/>
<feGaussianBlur stdDeviation="2"/>
<feComposite in2="hardAlpha" operator="out"/>
<feColorMatrix type="matrix" values="0 0 0 0 0 0 0 0 0 0 0 0 0 0 0 0 0 0 0.1 0"/>
<feBlend mode="normal" in2="BackgroundImageFix" result="effect1_dropShadow_746_481"/>
<feBlend mode="normal" in="SourceGraphic" in2="effect1_dropShadow_746_481" result="shape"/>
</filter>
</defs>
</svg>
