<svg xmlns="http://www.w3.org/2000/svg" width="147" height="140" xml:space="preserve" fill-rule="evenodd" stroke-linejoin="round" stroke-miterlimit="2" clip-rule="evenodd" viewBox="0 0 147 140">
  <path fill="#e0d7b1" fill-rule="nonzero" d="M7.092 96.505c-2.33-6.16-1.597-16.096-2.091-22.398C3.975 61.03 2.317 48.005 1.394 34.92c-.427-6.052-.137-12.137-.44-18.196-.056-1.128-1.55-5.124.053-6.4C5.787 6.516 10.7 7.052 16.439 7.05c14.427-.004 19.4-.076 33.566 2.897 3.202.672 6.227 2.013 9.374 2.904 2.206.624 6.681 1.639 6.681 1.639 5.484-1.31 10.34-4.55 15.712-6.258 14.398-4.583 32.88-10.458 48.54-6.866 1.527.807 2.594 2.825 4.32 2.858 2.737 5.806 1.82 13.273 2.579 19.603.118 2.892.642 5.755.859 8.641.084 1.112-.485 3.22.63 3.287 3.672 28.392 7.652 57.535 7.402 86.172-.462 1.124-.911.645-1.482 1.702-2.195 2.142-9.091 3.772-11.95 4.119-18.533 2.248-16.774 1.282-35.62.784-6.935-.183-13.181-.917-21.028-2.767-4.105 2.064-9.83 4.612-14.147 6.186-12.746 4.646-19.924 5.939-33.413 7.06-4.886.405-14.756 1.342-18.178-4.098-.946-1.506-.1-5.041-.213-6.544.835-1.028.542-2.629.44-3.95-.586-7.673-1.672-7.418-2.116-15.101-.009-.149.878-4.78-.657-5.105l-.07-.703c.182-.501.333-1.004-.128-1.451l-.031-.394c.01-1.733-.11-3.456-.422-5.16h.005Z"/>
  <path fill="#d6cda9" fill-rule="nonzero" d="m92.618 127.747-3.124-.377s-2.058.385-3.818.086c-2.641-.448-5.96-1.186-10.595-2.841-3.331-8.29-10.984-106.712-11.317-107.218 1.707-2.93 9.129-4.866 11.738-6.602.656-.437 7.285-1.562 7.257-2.399.371-.235.877-.098 1.218-.427.29-.078.583-.154.876-.229.31.012.736.314.792-.311.984-.073 2.423-1.27 3.38-1.47 5.852.21-3.672 3.587-5.543 4.249-.199.07-1.867-.223-1.898.193-.106 1.408 4.925.098 4.063 1.218-2.323 3.02-8.786 3.224-11.404 6.86-.604.836-1.922 2.496-1.201 3.583-.072.32-.144.638-.214.96l.025-.009c-2.724 2.453-.386 12.34-.452 15.14-.041 1.714-.34 3.42-.339 5.134.004 5.846 1.168 11.656 1.313 17.496.11 4.431-1.018 10.591.501 14.743.493 1.346.79-2.529 1.165-1.465 2.084 5.933 3.06 13.741 4.18 19.852 1.343 7.32.977 14.119 1.37 21.4.082 1.52-.869 3.891.51 4.538.087.04 2.59.47 1.278 1.43 1.307.234 1.6 2.632 2.033 1.427l.753-.761c.396-.314.486-1.68.917-1.118.178.233.242.64.529.706a.692.692 0 0 0 .483-.092c.157-.12.213-.376.43-.435.423-.115.706.335.705.694l.003-.003c-.134.501 10.07 3.46 10.508 4.527-.252-.2-3.518 1.16-6.122 1.52"/>
  <path fill="#cfc6a3" fill-rule="nonzero" d="M66.06 14.49c.705.061 5.549-1.509 6.33.345 1.026 2.434-1.133 13.045-.97 15.617.129 2.032 1.742 5.91-.287 6.1.905 2.445-.131 7.078.102 10.126.645 8.427.476 16.477 1.193 24.806.941 10.94 6.05 20.624 6.94 31.971.103 1.32-.04 2.654.08 3.973.145 1.609.535 3.187.712 4.793.211 1.926-1.15 11.805 3.732 9.663l.615-.05c.515.463 2.096.036 2.178-.017l.153-.012c.018.37.191.658.619 1.085-.44-1.068.64-.697.774-1.199.909-.241 1.282 2.457 2.206 2.627 1.253.232 13.313 2.126 10.188 4.321-.885.622-5.637-1.18-7.205-.178v.004c-5.851-.63-11.658-1.137-17.398-2.7l-.797.55c-.029 1.336-1.486-2.292-1.758-3.6-.518-2.494-.458-5.105-.757-7.615-.975-8.156-1.216-16.617-2.876-24.698-2.203-10.722-3.851-21.583-4.566-32.563-.272-4.168.246-8.575-.298-12.7-.906-6.88-1.329-11.503-1.08-18.36.171-4.744-1.35-5.797-2.877-10.241-.383-1.113-1.838-2.528-1.025-3.38.264.088.53.172.793.258.101.91 4.062.966 5.28 1.074Z"/>
  <path fill="#bab293" fill-rule="nonzero" d="M72.245 77.136c.14.18.137.33.037.46-.278.282-.879.718-.801 1.65.228 2.695.392 5.4.762 8.074.067.477.806 2.261.782 2.39-.108.647.921 1.768.832 2.396-.187 1.336 2.168 32.63 1.99 33.056-1.3.21-1.467-2.773-1.431-3.896.028-.94-.127-1.878-.349-2.69-.515-1.882-.48-3.85-1.11-5.694-.111-.328.22-.517.197-.8-.099-1.165.196-2.335-.211-3.51-.197-.566-.013-1.267 0-1.905-.003-.026.021-.05.016-.076-.135-1.12.077-2.263-.192-3.372-.144-.604-.065-1.177 0-1.778.105-1.022-.268-2.027-.313-3.018-.073-1.564-.274-3.128-.236-4.696.02-.83-.252-1.61-.26-2.432a11.449 11.449 0 0 0-.254-2.157c-.156-.739.038-1.53-.337-2.218-.237-.437.18-.792.146-1.177-.087-1.1-.09-2.209-.325-3.301-.159-.74-.273-1.514-.232-2.263.076-1.346-.477-2.546-.698-3.82-.099-.564-.54-1.043-.4-1.663.016-.075-.065-.246-.123-.255-.938-.182-.848-.976-.924-1.616a2.399 2.399 0 0 0-.62-1.378c-.363-.402-.503-.84-.445-1.398.058-.557.063-1.136-.276-1.644-.056-.084-.147-.223-.118-.276.585-1.016-.19-1.963-.208-2.957-.02-1.062.17-2.29-.574-3.294-.233-.315.056-.699.022-1.058-.144-1.514-.236-3.028-.211-4.548.022-1.475-.132-2.944-.105-4.424.014-.74.33-1.593-.245-2.337-.175-.228-.06-.63.054-.97.211-.633.599-1.256.105-1.968-.139-.2-.001-.593.02-.896.05-.736.094-1.433-.448-2.085-.246-.294-.29-.826-.276-1.245.048-1.472-.25-2.846-.67-4.263-.21-.705-.326-1.516-.53-2.269-.158-.594-.13-1.143-.09-1.762.06-1.022.334-1.89.706-2.797.174-.4.193-.852.056-1.266-.298-.913-.242-1.86.094-2.77.065-.183.061-.342.04-.526-.224-1.968-.875-3.861-.929-5.868-.034-1.266-.29-2.525-.43-3.787-.07-.632-.63-.9-.969-1.318-.263-.324-.448.135-.644.29-.83-.644-.268-1.397-.188-2.11 1.178.334 2.353.684 3.603.513-.748.704 5.422 48.372 5.422 48.372.66.295.404.913.364 1.344-.094 1.01.148 1.967.246 2.951.074.746.153 1.523-.146 2.251-.18.443.15.783.166 1.192.077 2.04.57 4.046.54 6.097 0 .068.07.137.107.202-.156.118-.148.22.025.311l-.014.002Z"/>
  <path fill="#c1b898" fill-rule="nonzero" d="M78.05 120.806h-.004l-1.5.162c1.421-3.044-.044-6.086-.35-9.156-.907-9.079-.656-9.024-2.085-18.08-.503-3.187-1.054-6.367-1.51-9.562-.05-.355-.25-1.577.71-1.378 1.348 1.446 2.423 5.058 2.766 6.907 1.9 10.234 1.39 10.219 2.532 20.487.312 2.8.877 5.572 1.1 8.38.057.712.138 1.535-.263 2.126l-.384-.556c-.479-.024.877 1.138.877 1.138 1.65.439.67 1.537 2.112 2.275-.52.63.57.147.405-.15.093-1.924 5.81.527 6.697-.497.279.472-.367 1.272.035 1.644 1.35 1.25 3.384-.143 2.456 1.186-.32.456-.185 1.249-.665 1.531-.85.501-2.03.116-2.906.574l-.598-.021c-.08-.286-.802-.901-.789-.093-2.313-.33-3.731.015-5.37-.955l-.454.036a.597.597 0 0 1 .039-.29 7.571 7.571 0 0 1-.223-.143c.6-.576-.466-1.775-.703-2.066-.223-.273-.5-1.047-.726-.774.313-.703.14-1.305.114-1.9 0 0-1.055-.86-1.314-.825ZM66.1 14.952c-2.845-.114 5.154-2.419 7.71-3.673.07-.035-.102-.193.28-.308.454-.138 2.01-.35 1.978-.364.77-.799 2.51-1.115 3.527-1.438.712.379 2.403-.505 3.19-.775.022.673-.932.472-1.157.764-.868 1.12-.22 1.576-1.442 2.309-1.096.657-1.33-.04-2.351.782-.306.245-.653.483-.826.834-.02.04.336.845.193.952-.589.443-3.66 1.95-4.548 3.09-1.096 1.407-.457 1.664-1.358 3.21-.656.48-.337 1.714.597 1.662-.034.21-.069.418-.106.629-.927.39-1.04 3.983-1.201 4.446v.005c-.362-.348-.268.513.035.46h.003-.003c.014 1.507.902 5.121.208 6.52-.16.688.28 1.417.16 2.112-.052.297-.565.35-.636.642-.5 2.07.137 2.096-.375 4.143-.09-.002-.166.856-.089.786.09.059-.023 1.365.099 1.233.335.288.219 1.642-.249.691-.292-.595-.72-1.152-.83-1.806-.432-2.557-.629-5.15-.78-7.737-.342-5.888.084-5.887-.901-11.674-.31-1.82-.637-3.636-.995-5.446-.138-.697-.786-1.493-.133-2.049Z"/>
  <path fill="#b3ab8d" fill-rule="nonzero" d="M78.681 118.64c.151 0 .23.097.274.225.037.103.029.22-.095.244-.162.03-.195-.133-.258-.236-.059-.098-.055-.192.082-.23l-.003-.003h-.001.001ZM72.829 14.694c.171-.002.188.108.196.203.005.066-.032.132-.05.198-.064-.075-.14-.14-.18-.224-.021-.044.021-.122.031-.177h.003Zm-.438 74.093c-.377-.436-.083-.976-.15-1.455-.37-2.675-.52-5.38-.762-8.073-.11-1.225-.14-1.56.862-.877l.166.14c.18.353.158.648.08.925-.202.224-.19.431.051.62l.124 1.549c.063.149.126.294.186.443a.44.44 0 0 0 .055.2.272.272 0 0 0 .12.1l.165.144c.225.146.24.246.023.293-.178.046-.463-.02-.357.334.124.418.137.932.393 1.231.415.477.452 1.08.745 1.579.363.615.392 1.339.626 1.946.503 1.303.52 2.735 1.203 3.98.23.42.098.98.23 1.48.37 1.423.425 2.874.254 4.346-.076.657.031 1.343.134 2.004.119.737.155 1.469.042 2.205-.095.626.654.84.632 1.494-.023.645.272 1.294.374 1.95.075.464.199.939-.363 1.296-.24.153-.269.615-.178.935.353 1.237.299 2.526.55 3.777.307 1.53.52 3.08.776 4.622.021.124.08.263.043.369-.407 1.155-.345 2.35-.275 3.537.02.318-.145.537-.261.788-.376.047.17.314.17.137.26-.032.625.261.74-.23.043-.18-.036-.458.273-.44.338.016.357.3.384.556.096.252.845-.053.496.58-.122.01-.23.046-.282.17-.125.018-.242.05-.294.185.025.597.198 1.201-.114 1.904.495-.595.818-.188 1.253-.06.485.141 1.125.588 1.645-.042l.31-.025c.166.298.438.472.758.45.812-.054 1.518.394 2.31.445.32.02.65.164.94.318.304.161.447.458.227.78-.204.296-.445.144-.663-.027-.487-.377-.74-.191-.845.352-.044.238-.116.514-.422.427-.554-.158-1.095.073-1.582.052-.732-.03-1.257.1-1.75.578a.132.132 0 0 1-.109-.006c-.03-.16.035-.418-.231-.391-.2.021-.243.233-.228.425-.215.048-.388-.112-.567-.14-1.034-.162-1.953-.893-3.072-.616l-.458-.048c-.361-.325-.716-.542-1.018.066-.105.213-.318.23-.522.252l-.003-.005c-.2-.132-.257-.367-.141-.521.315-.413.148-.793 0-1.186.174-.43-.185-.817-.093-1.237.475.06.546-3.776.024-3.569-.433-1.062-.445-2.216-.681-3.32-.3-1.408-.48-2.912-.305-4.325.082-.662-.12-2.51.261-3.152 0 0-.061-2.616-.296-4.36-.139-1.024-.089-2.065-.334-3.086-.192-.793-.188-1.634-.324-2.446-.1-.605-.154-1.222-.298-1.809-.127-.516-.296-1.962-.28-2.057.21-1.336-.525-2.582-.339-3.922.087-.628-.247-1.248-.139-1.895.021-.13.026-.253.132-.347.592.77.35-.554-.02-.297ZM67.09 45.689c-.006.818-2.087-31.001-1.606-31.047 1.794-.171 7.066-2.408 9.13-3.414.27-.464.934-.1 1.202-.575l.254-.038c.536.257.605.764.765 1.228-.347.184-.646-.527-.726-.085-.11.61.16.428-.287 1.037-.401.546-1.58 1.478-2.572 1.642-.884.148-1.142.28-1.385.852a11.48 11.48 0 0 0-.544 1.72c-.25 1.012-.105 2.1-.865 3.01-.234.282-.499.924-.17 1.488.522.89.259 1.776-.129 2.634a.54.54 0 0 0 .007.509c.205.425.192.876.198 1.34.003.364-.1.783.226 1.096l.03.46c-.302.052-.41.24-.42.54-.067 1.82.145 3.626.278 5.436.02.25.104.445.354.536l.025.309c-.166.144-.308.372-.234.537.198.446-.015.716-.289 1.008-.317.342-.266.8-.364 1.22-.267 1.133.08 2.301-.264 3.417-.077.249-.01.403.275.415-.03.262-.061.523-.089.781-.186.17-.176.325.037.464l.062.774c-.4.431-.376.716.086 1.084-.064.722-.175 1.447-.186 2.171-.015.956-.065 1.932.105 2.861.146.797.2 1.59.23 2.386.026.727.044 1.455.368 2.108.567 1.15.91 2.369.813 3.63-.062.797.47 1.493.213 2.285-.316.97.088 2.103-.663 2.987-.05.058-.007.2-.005.302l-.43.502s-.394 1.105.064.906l.006.009v-.001c.445 2.688.372 5.399.372 8.113-.361-.77-.614-1.552-.688-2.384-.031-.354-.079-.626-.54-.706-.516-.087-.69-.626-.816-1.018-.435-1.382-.752-2.798-1.149-4.193-.314-1.112-.046-2.335-.465-3.37-.475-1.168-.188-2.328-.382-3.474-.038-.222-.002-.416.27-.468.758-.947-.114-1.87-.137-1.697-.318-.545-.227-1.12-.13-1.698l.027-1.673c.182.177.72-1.344 1.23-3.126.551-1.92-.766-1.178-1.21-.376a.405.405 0 0 1-.281.225c-.169-.434.18-.815.112-1.263-.042-.29.175-.575-.083-.91-.184-.243.078-.454.37-.509v.003Z"/>
  <path fill="#a69e82" fill-rule="nonzero" d="M73.029 87.36c.752.055.28 1.484.492 2.207.713 2.432 1.426 2.108 1.869 4.646 1.098 6.297 1.241 12.763 1.703 19.137.125 1.718.476 3.42.5 5.141.011.727-.481 2.229.244 2.168h.017l.018-.003.167.142c0 .852-1.634 2.516-1.207 3.58.127.318.628.298.888.523.229.2-.198.723-.5.762l-.013.001c-.3.025-.735-.334-.658-.624l-.035.065-.434.059c-1.12.096-.319-1.686-1.081-1.797l-.01-.001.002.005v.001l-.01-.008h.007l-.008-.022a1.397 1.397 0 0 1-.05-.737c.598-.105.164-.612-.053-.62-.048-.734-.283-1.479.138-2.185.843-.335.251-3.27.252-3.31.017-1.47.654-5.642-.874-6.432l-.012-.153c.78-.797.356-.904.483-2.01.36-3.116-.65-5.79-1.345-9.246-.106-.527.515-2.934-.581-2.928l-.012-.153c.832-.131.245-5.485-.517-6.485l-.024-.31c.418-.291.078-1.372.587-1.412h.057Zm-7.49-53.437c.045-.08-.08.478-.095.282-.008-.1.051-.2.096-.282Zm9.433-22.112c.02.015.044.03.069.029.023-.002-.044-.02-.066-.029h-.003ZM66.274 39.39c-.3-.017-.291-.239-.323-.487-.05-.388-.088-.777-.139-1.165a53.95 53.95 0 0 0-.167-1.167c-.098-.638-.362-8.699.623-9l.005.091c.055 1.3.061 1.23-.003-.103-.229-.57-.057-1.227-.115-1.837a430.755 430.755 0 0 0-.705-6.79c-.13-1.162-.94-3.443.082-4.52.068-.071 1.734-.565 1.798-.726l2.04-.864c.195.036.35-.002.385-.233l-.001.014c.137-.061.272-.126.41-.188.153.246.272.276.334-.053.159-.022.314-.042.471-.066.086.064.135.111.146.162-.01-.05-.06-.098-.145-.162.823-.445 1.688-.793 2.573-1.093l.017.008a.86.86 0 0 0 .45.066l.033-.003c.134-.013.269-.04.403-.052l.167-.005v.003c.105.205.36.321.359.592-1.17.275-1.882 1.768-3.08 1.88l-.02.001c-.215.015-.136-.03-.354-.02l-.01.002c-.827.065-3.135 3.074-3.19 3.932-.054.84-.022 2.447.818 2.387l.033-.002c.827-.054.455 4.528.407 4.998-.256 2.483.094 4.43.01 6.824-.05 1.45.341 1.582.245 3.111-.066 1.065-.228.266-.38 1.658-.16 1.454-.31 5.098-.247 6.142l-.006.153c-.233-.158-.233-.157 0 0-.192.269.019.511.059.762-.204-.076-.104-.03-.004.006l.003.003c-.019 2.112-.556 4.355.185 6.334l.01.024.004.002.024.302c-.275.19-.27.199.001.012l.01.007c.92.75.104 2.376.299 3.546.519 3.111.598 6.193.73 9.417l.073.926-.004-.005c-.515.224-.938 1.4-.938 1.4-.482.042-1.349-1.713-1.387-2.058-.271-2.503-1.943-6.017-1.206-8.536.077-.577.414-1.17-.13-1.7l-.024-.308c.144-.302.396-.595.082-.941l-.295-3.7c.88-.206.39-1.776.4-2.679-.345-1.195-1.402-2.726-.605-3.68 0 0 .08.034.005-.012-.032-.408-.068-.818-.102-1.226l-.007.003c-.276-.083-.308-.184-.262-.291.046-.108.172-.22.213-.328l-.058-.768Z"/>
  <path fill="#968f75" fill-rule="nonzero" d="M69.754 12.602c.137-.061.272-.126.41-.188.153.246.272.276.334-.053.159-.022.314-.042.471-.066.198.146.2.206-.008.42-.883.91-2.415 1.19-2.66 2.73-.025.158-.293.274-.435.416-.678.686-.96 1.56-.81 2.458.137.829.244 1.647.269 2.488.03 1.029.07 2.069.24 3.08.158.96.83 1.807.626 2.86-.045.232-.106.46.066.73.63.97.606 2.159.559 3.191-.035.773-.197 1.532-.148 2.36.08 1.37-.01 2.753.244 4.111.09.478-.296.816-.22 1.266.148.909.11 1.822.103 2.741-.005.573-.259 1.285.403 1.732-.192.268.019.51.059.761-.247-.091-.43-.137-.446.251a38.42 38.42 0 0 0 .118 5.207c.034.363.045.784.526.911l.024.302c-.697.48-.262 1.081-.212 1.67.165 1.895.088 3.802.24 5.707.157 1.965-.072 3.96.259 5.925.042.244.002.459-.247.593-.145.076-.29.13-.436.043-.314-.186-.09-.386-.015-.592.03-.082-.039-.196-.026-.29.062-.53-.44-1.043-.266-1.479.429-1.088-.487-1.31-.992-1.815a44.106 44.106 0 0 0-.051-.611c.266-.264.252-.593.236-.937a53.334 53.334 0 0 0-.165-2.428c-.18-1.83-.319-3.678.084-5.508.01-.046-.02-.098-.026-.149-.14-1.05-.215-2.11-.224-3.17-.012-1.802-.15-3.649-1.148-5.27-.033-.411-.068-.824-.103-1.234.532-.248.088-.423-.05-.62l-.454-5.708c-.047-.26.063-.563-.203-.767l-.025-.308c.457-1.91.71-3.837.615-5.804-.244-.608.004-1.283-.115-1.837-.486-2.246-.392-4.536-.705-6.79-.099-.701-.189-1.407-.285-2.106-.108-.792-.378-1.71.367-2.413.263-.25.522-.415.936-.343.316.055.7.021.862-.384l2.04-.864c.195.036.35-.002.385-.233l-.001.014Z"/>
  <path fill="#262625" fill-rule="nonzero" d="M30.39 124.752c5.009-.542 9.983-1.293 14.935-2.198 1.004-.183 2.003-.097 3.004-.025.273.018.561.14.613.395.063.311-.204.512-.481.614-.213.08-.45.153-.673.15-2.548-.025-5.016.605-7.516.94-3.789.507-7.602.734-11.406 1.045-2.315.188-4.635.281-6.956.363-.173.005-.451.184-.5-.139-.03-.2.178-.276.37-.317.25-.054.491-.173.744-.194 2.623-.22 5.244-.423 7.868-.632l-.003-.002Zm24.584-2.22c-.386.03-.77.073-1.157.086-.205.008-.446-.01-.511-.255-.073-.279.13-.44.346-.532.306-.13.63-.223.95-.317 1.387-.41 2.79-.744 4.232-.896.438-.046.951-.156 1.062.449.116.626-.412.799-.866.872-1.349.219-2.707.381-4.06.565l.001.028h.003Zm-35.947-1.884c1.261-.53 2.464-.752 3.649-1.025 4.466-1.035 9.034-1.318 13.565-1.89 6.863-.865 13.757-1.534 20.548-2.92a5.289 5.289 0 0 1 1.386-.1c.281.018.515.085.606.376.092.293.047.561-.18.782-.427.412-.976.564-1.53.691-4.265.986-8.6 1.44-12.953 1.829-5.682.51-11.363 1.081-17.04 1.659-2.235.226-4.46.534-6.692.803-.406.05-.822.134-1.365-.204h.006Zm70.036-7.1c-.178.002-.364.028-.536 0-.26-.046-.521-.139-.52-.469 0-.348.27-.492.545-.565 1.146-.307 2.28-.68 3.445-.875 3.486-.586 6.937-1.327 10.401-2.02a17.42 17.42 0 0 1 4.69-.299c.121.008.277-.059.335.096.073.188-.082.28-.213.35-.55.293-1.156.428-1.755.565a260.285 260.285 0 0 1-16.085 3.172c-.101.017-.207.016-.309.025l.002.02h.002-.002Zm24.407-4.743c-.23.018-.462.045-.693.055-.283.008-.622.02-.679-.331-.06-.36.303-.466.55-.542.988-.304 2.01-.411 3.037-.43.285-.006.625.073.667.39.044.33-.314.345-.548.412-.764.22-1.538.39-2.334.446Zm15.49-1.67c-1.877.135-3.763.188-5.62.55-.895.174-1.803.024-2.701.092-.158.013-.327.007-.387-.171-.071-.214.067-.344.238-.423.162-.079.333-.138.51-.178 3.9-.81 7.828-1.32 11.82-1.263.333.005.67.038.996.103.285.055.575.188.566.536-.013.375-.276.524-.63.532-1.006.026-2.014.046-3.017.09-.59.023-1.182.09-1.774.138v-.006Zm-107.107 6.311c-.934.063-2.12.376-3.341.302-.129-.006-.264.021-.386-.005-.502-.123-1.183-.046-1.219-.8-.031-.717.623-.743 1.096-.86 3.198-.799 6.436-1.182 9.735-.83.437.048.863.137 1.255.357.19.107.34.24.306.485-.03.205-.178.302-.362.357-.198.055-.395.125-.599.153-2.071.273-4.14.54-6.482.847l-.003-.006Zm65.686-5.2c-.09-.005-.43.212-.564-.178-.134-.395.193-.555.474-.683 1.396-.64 2.907-.878 4.39-1.192 5.352-1.133 10.73-2.12 16.114-3.095 2.263-.41 4.553-.624 6.85-.761.163-.01.42-.11.462.122.047.261-.223.28-.417.34-2.997.969-6.105 1.478-9.18 2.108-4.27.875-8.57 1.608-12.859 2.397-1.7.312-3.402.607-5.266.938l-.003.003Zm-41.435 2.39c-4.507.292-8.199.378-11.874.75-.203.022-.553.187-.604-.091-.059-.326.316-.308.553-.378 4.354-1.324 8.776-2.237 13.353-2.339 2.628-.058 5.252-.332 7.881-.445 1.31-.055 2.618.148 3.912.364.226.036.617.002.628.323.01.338-.401.294-.612.34-1.081.234-2.169.486-3.266.599-3.592.368-7.185.762-9.97.879v-.003Zm79.003-8.488c-1.311.105-2.62.212-3.933.314-.246.02-.59.12-.676-.18-.098-.34.26-.474.505-.582.76-.34 1.579-.473 2.39-.61 2.723-.456 5.475-.675 8.229-.865.43-.029.804.107.826.598.025.562-.397.747-.867.787-1.85.159-3.674.566-5.54.555-.308 0-.617.047-.927.071l-.007-.088Zm-87.893 1.799c6.203-.642 11.267-.852 16.285-1.55 1.915-.267 3.804-.747 5.749-.794.552-.012 1.33-.149 1.426.545.1.72-.718.757-1.239.876-2.07.464-4.196.55-6.296.798-5.207.613-10.39 1.368-15.589 2.05-3.864.506-7.738.923-11.65.959-2.189.02-4.377.322-6.564.497-.183.014-.36.028-.543.034-.396.009-.845.016-.935-.47-.097-.533.342-.714.76-.795 2.789-.548 5.586-1.037 8.42-1.269 3.782-.31 7.57-.588 10.176-.881Zm62.366-6.948c2.096-.139 3.683-.334 5.288-.239.246.015.61-.069.66.213.055.288-.327.316-.544.419-1.895.882-3.957 1.13-5.974 1.515-3.595.686-7.21 1.278-10.816 1.904-.787.137-1.579.257-2.385.159-.43-.052-.883-.133-.913-.648-.029-.503.407-.686.819-.787 1.574-.387 3.146-.809 4.738-1.12 3.187-.627 6.37-1.286 9.126-1.42V97Zm12.067-.343c-.437.034-.874.095-1.31.095-.353 0-.826.02-.898-.415-.071-.436.362-.545.715-.656 1.6-.503 3.24-.824 4.884-1.138 1.06-.201 2.126-.402 3.215-.406.254-.001.51.033.763.064.113.014.278-.022.301.159.021.158-.12.22-.217.288a7.087 7.087 0 0 1-1.57.805c-1.9.696-3.88 1.007-5.883 1.2v.004Zm13.678-2.625c-.566.045-1.133.102-1.697.133-.35.019-.807.11-.89-.368-.075-.43.324-.61.671-.726a38.21 38.21 0 0 1 1.994-.611c1.044-.286 2.09-.575 3.146-.812.552-.124 1.123-.143 1.689-.2.453-.045 1.01-.04 1.122.442.128.538-.422.75-.843.946-1.089.51-2.266.69-3.433.9-.585.103-1.176.173-1.762.257l.003.04Zm-39.044.297 20.461-4.426c1.973-.224 3.921-.654 5.912-.762.493-.027.978.034 1.46.09.116.013.282.085.317.174.072.181-.118.266-.24.34-.65.4-1.39.53-2.119.682-4.074.843-8.21 1.262-12.315 1.892-4.487.685-8.985 1.325-13.478 1.987l.002.026v-.003Zm-67.78 5.293c-.689.041-1.376.224-2.065.056-.262-.064-.6-.08-.632-.45-.025-.312.177-.532.419-.691.479-.32 1.042-.448 1.59-.555a9.413 9.413 0 0 1 3.216-.068c.384.058.802.176.807.668.005.465-.42.537-.754.645-.84.268-1.713.33-2.583.393l.003.002Zm8.346-2.567a3.41 3.41 0 0 1 1.593.2c.343.133.556.39.518.774-.038.383-.29.582-.656.657-.591.123-1.174.039-1.763-.045-.66-.096-1.326-.148-1.989-.21-.15-.013-.354.072-.416-.097-.083-.22.149-.286.286-.387.724-.537 1.548-.797 2.432-.893h-.005Zm27.736-2.844c-3.847.706-7.928.954-11.954 1.602-2.264.365-4.494.928-6.74 1.4-1.168.243-2.347.337-3.538.2-.115-.014-.272.06-.32-.115-.044-.15.068-.25.162-.324a6.406 6.406 0 0 1 1.676-.941c4.506-1.687 9.065-3.147 13.924-3.414 2.419-.133 4.806-.714 7.248-.583 1.268.066 2.504.322 3.725.65.259.07.618.143.612.492-.007.345-.304.523-.626.593-.35.077-.706.156-1.063.19-.976.092-1.955.162-3.105.253v-.003Zm76.662-7.469c-1.199.844-2.523.995-3.802 1.16-2.117.27-4.24.578-6.382.604-.316.003-.766.121-.828-.336-.066-.499.451-.531.76-.59 1.85-.336 3.703-.65 5.56-.942 1.169-.187 2.33-.458 3.53-.298.379.053.747.123 1.162.402Zm0 0 .002-.001v.003l-.002-.002Zm-12.27-4.047c-3.803.22-7.512 1.083-11.268 1.627-3.093.449-6.18.92-9.257 1.446-3.487.596-6.894 1.577-10.351 2.302-1.136.24-2.269.523-3.435.565-.268.01-.657.095-.746-.237-.092-.335.286-.456.528-.57 1.996-.928 4.12-1.484 6.23-2.065 7.29-2.01 14.816-2.724 22.246-3.96 3.245-.54 6.517-.74 9.785-1.03.572-.05 1.346-.215 1.447.599.1.775-.667.924-1.238.992-1.305.159-2.622.227-3.935.331h-.005Zm-74.625 5.22c-.717.345-1.476.514-2.245.638-5.417.875-10.884 1.19-16.35 1.523-2.94.18-5.86.615-8.806.673-.67.013-1.337-.027-2.005-.04-.186-.001-.391-.002-.43-.225-.036-.222.164-.32.328-.368.843-.235 1.68-.509 2.536-.66 6.576-1.16 13.21-1.747 19.88-1.925 2.19-.057 4.38.07 6.572.12.169.004.37-.015.52.261v.003Zm6.75-1.346c.373-.018.846.047.895.598.048.524-.36.736-.831.83-.469.094-.928-.009-1.371-.093-.493-.095-.562-.437-.192-.768.39-.35.883-.504 1.5-.566v-.001Zm6.625.892c-.426-.018-1.074.022-1.703-.153-.318-.088-.576-.25-.6-.616-.024-.348.228-.508.5-.61.744-.283 1.487-.62 2.303-.607.606.009 1.282.083 1.353.852.068.767-.567.951-1.174 1.077-.15.03-.308.024-.677.054l-.002.003Zm71.984-7.86c.153-.012.309-.047.459-.03.33.036.706.052.779.475.068.394-.184.651-.512.77-1.207.442-2.422.302-3.629-.024-.134-.037-.302-.15-.26-.327a.524.524 0 0 1 .431-.392c.908-.168 1.819-.33 2.727-.494l.002.022h.003Zm-45.644 3.728c-.076.006-.156.021-.232.019-.37-.02-.885.13-.99-.355-.118-.552.472-.53.797-.636 4.191-1.37 8.37-2.786 12.67-3.79 4.625-1.077 9.26-2.118 13.94-2.912 1.045-.178 2.089-.355 3.134-.523a4.39 4.39 0 0 1 .77-.067c.425.011.877.09.984.577.104.477-.226.753-.63.942-1.041.487-2.182.632-3.289.851-8.077 1.592-16.08 3.532-24.135 5.232-1.007.214-2.007.476-3.01.715 0-.016-.008-.033-.012-.05l.003-.003Zm34.565-8.347c-.305.041-.545-.105-.788-.259-.183-.116-.33-.244-.296-.492.033-.24.191-.363.4-.416.948-.238 1.895-.485 2.848-.695.415-.09.81.047.912.5.11.49-.202.782-.656.882-.805.174-1.614.319-2.423.478l.003.002Zm8.225-1.242c-.586.056-1.176.054-1.758.206-.382.102-.765-.013-.856-.436-.081-.378.199-.592.551-.72 1.044-.376 2.146-.507 3.231-.675.5-.08 1.04.05 1.096.685.053.636-.413.807-.958.836-.437.024-.87.07-1.306.104Zm-74.146 4.08c-.354.332-.584.446-.833.466-2.742.203-5.354 1.097-8.064 1.475-4.25.593-8.513 1.029-12.796 1.244-4.187.211-8.304.994-12.474 1.355-.36.028-.718.072-1.082.095-.363.024-.682-.082-.809-.454-.126-.371.065-.655.35-.871.439-.332.951-.517 1.477-.656 2.908-.76 5.893-1.048 8.858-1.443 3.277-.438 6.565-.789 9.842-1.214 3.96-.515 7.924-.511 11.898-.17 1.14.098 2.29.112 3.633.173Zm32.18-1.793c-.469-.122-1.236.19-1.39-.564-.154-.746.58-.845 1.094-1.047.619-.246 1.236-.495 1.903-.602.568-.09.903.167 1.034.676.128.49-.2.78-.6.945a9.73 9.73 0 0 1-2.04.592h-.001Zm-28.34 1.895c-.335-.03-.729-.027-.776-.517-.056-.562.368-.676.782-.74.38-.059.69.119.73.506.049.47-.292.666-.736.75v.001Zm35.83-3.764c-.608.025-1.07.118-1.534-.01-.233-.063-.482-.146-.498-.413-.017-.334.241-.489.534-.57.82-.227 1.65-.421 2.462-.674 6.317-1.964 12.75-3.434 19.245-4.663 4.09-.772 8.206-1.338 12.358-1.622.638-.046 1.486-.175 1.619.63.13.783-.72.96-1.32 1.147-1.069.332-2.196.33-3.293.47-5.49.69-10.893 1.841-16.307 2.936-4.046.818-8.08 1.709-12.118 2.563-.429.092-.863.158-1.152.21l.004-.004Zm0 0 .001-.001h.001-.002Zm-48.624-3.053c-.382.347-.853.44-1.336.478-2.575.213-5.15.435-7.725.62-1.805.13-3.592.395-5.377.676-1.353.213-2.71.396-4.085.427-3.242.074-6.413.674-9.58 1.31-.1.02-.203.048-.303.05-.245.006-.57.157-.688-.159-.135-.362.22-.464.453-.606 2.056-1.243 4.276-2.061 6.65-2.403a338.1 338.1 0 0 1 8.912-1.166c2.5-.293 5-.164 7.488.196 1.632.238 3.278.28 4.918.387.226.012.47-.038.674.187v.003Zm4.329-.517c.697-.415 1.437-.602 2.176-.75 1.538-.305 3.088-.037 4.631-.029.417.001.755.244.764.714.009.466-.296.71-.737.73-1.57.08-3.143.14-4.713.202-.1.005-.23.004-.297-.052-.523-.44-1.133-.689-1.825-.815Zm76.75-13.664c.747-.06 1.493-.138 2.24-.172.486-.022 1.005.081 1.076.649.064.516-.39.746-.829.88-1.364.42-2.78.567-4.18.8-4.126.685-8.283 1.15-12.396 1.93-3.146.599-6.207 1.554-9.33 2.235-6.206 1.353-12.259 3.262-18.356 5.013a5.679 5.679 0 0 1-1.064.178c-.35.031-.724-.037-.777-.454-.047-.363.267-.51.575-.62 1.675-.6 3.364-1.16 5.017-1.814 5.37-2.117 11.01-3.3 16.532-4.894 5.88-1.699 11.925-2.44 17.958-3.284 1.176-.165 2.352-.335 3.527-.503l.004.054.003.002Zm-96.517 7.445c-4.662.371-9.325.723-14.005.75a16.35 16.35 0 0 1-3.535-.348c-.241-.052-.568-.075-.609-.38-.045-.314.284-.402.497-.52.739-.403 1.565-.546 2.378-.642 7.544-.886 15.09-1.732 22.71-1.555 4.414.102 8.83-.09 13.246.037 2.633.075 5.262.111 7.894.186.46.012.927.075 1.343.32.323.191.502.462.429.832-.074.362-.375.46-.706.49-1.342.116-2.683-.005-4.026-.024-7.541-.1-15.08-.01-22.604.614-1.003.083-2.01.16-3.012.24Zm50.534-3.87c-.279.111-.396.05-.445-.08-.062-.161.072-.209.192-.27.617-.308 1.213-.672 1.85-.927 2.629-1.05 5.18-2.33 7.938-3 2.174-.53 4.4-.85 6.608-1.244.219-.04.566-.199.668.154.114.39-.276.47-.514.552-1.047.359-2.14.606-3.159 1.029-4.115 1.706-8.54 2.335-12.748 3.701-.17.057-.35.076-.39.086Zm22.828-7.084c.55-.506 1.045-.81 1.615-.992 7.946-2.53 16.037-4.314 24.391-4.748.128-.008.26-.004.388-.011.208-.008.458-.043.513.213.05.24-.17.337-.365.424-.95.424-1.965.619-2.971.836-4.842 1.037-9.681 2.08-14.532 3.077-2.35.483-4.72.865-7.078 1.293-.61.11-1.215.07-1.955-.096l-.006.004Zm-64.378-.847c3.73.077 7.616-.164 11.508.312 1.951.238 3.941.355 5.918.498.696.049 1.383.155 1.936.657.447.41.364.726-.133 1-.572.31-1.191.305-1.812.277-2.112-.096-4.196-.474-6.293-.71-1.29-.144-2.576.058-3.866.083-2.673.057-5.271-.555-7.907-.811-.437-.042-1.056-.085-.995-.719.058-.588.642-.558 1.104-.586.13-.01.257-.001.543-.001H37.3Zm-6.046.955c-.472.054-.915.113-1.323-.097-.309-.157-.553-.397-.535-.778.018-.349.273-.537.559-.674.692-.335 2.534.095 3.034.676.23.27.023.354-.155.447a3.668 3.668 0 0 1-1.58.429v-.003Zm-5.879.188c-1.163.103-1.927-.303-1.97-.962-.045-.664.683-1.123 1.75-1.082a3.384 3.384 0 0 1 1.929.695c.387.285.347.505-.037.754-.554.362-1.147.576-1.672.595h.002-.002Zm-12.38-2.512c1.804-.118 3.684-.248 5.57-.093.89.072 1.748.245 2.468.8.574.442.552.808-.05 1.215-.622.417-1.345.546-2.07.524-3.303-.101-6.603-.23-9.903-.349-.467-.017-.93-.065-1.35-.293-.474-.26-.5-.553-.037-.858.556-.363 1.196-.489 1.83-.592 1.145-.19 2.293-.392 3.542-.352v-.002Zm38.358-6.547c1.93-.071 3.864-.216 5.796.003.076.008.152.022.23.03 1.036.128 1.59.6 1.511 1.296-.074.652-.726 1.046-1.709.922-2.057-.261-4.129.015-6.183-.22-.334-.039-.667-.075-.991-.146-.48-.102-.929-.305-.945-.865-.019-.622.486-.81.98-.904.427-.082.872-.078 1.309-.113l.002-.003Zm-21.892-.356c4.086-.494 8.833-.051 13.58.029.49.002.977.088 1.439.253.424.157.846.418.82.918-.03.529-.528.66-.96.74-.87.16-1.758.109-2.627.038-4.358-.354-8.716-.232-13.078-.169-1.749.025-3.512.083-5.254-.192-.458-.072-1.203-.066-1.195-.577.01-.493.746-.461 1.215-.542 1.787-.295 3.594-.387 6.056-.504l.004.006Zm-20.057.807c2.88-.067 5.844.082 8.806.142.388.009.841.053.831.592-.017.651-.574.59-.983.588-2.216-.012-4.43-.057-6.646-.098-.826-.013-1.65-.016-2.47-.07-.386-.026-.937.014-.94-.564-.005-.598.549-.49.934-.553.127-.022.258-.02.468-.037Zm48.64-8.14c.597.04 1.236-.019 1.335.688.072.502-.359.726-.813.678-.529-.058-1.235.021-1.323-.73-.064-.533.445-.591.798-.636h.003Zm-27.355.161c2.277-.335 4.638-.346 6.96-.728 1.762-.291 3.497.16 5.246.243 1.987.093 3.976.182 5.958-.032 1.665-.184 3.301-.09 4.91.36.512.143 1.309.27 1.278.78-.034.58-.862.496-1.356.56-1.698.23-3.401.011-5.105-.003-4.157-.04-8.317.088-12.448.594-1.85.227-3.694.428-5.558.4-2.067-.032-4.123.294-6.19.177-.462-.026-.923-.112-1.379-.187-.33-.056-.597-.235-.618-.591-.024-.42.306-.59.639-.656.48-.098.975-.114 1.46-.199 2.037-.362 4.09-.573 6.204-.712v-.006Zm14.3-7.227c4.211-.287 8.33.28 12.394 1.335.526.138 1.307.349 1.21.847-.106.555-.899.385-1.419.3-3.304-.531-6.636-.18-9.953-.33-1.747-.08-3.497-.228-5.2-.662-.44-.113-1.167-.121-1.11-.704.051-.529.761-.494 1.225-.548.947-.11 1.9-.163 2.852-.238Zm-13.8 1.395c-2.059.22-4.125.163-6.187.164-.53 0-1.372.096-1.445-.54-.07-.586.742-.781 1.268-.932 1.81-.511 3.675-.523 5.53-.46 2.081.07 4.176.086 6.204.657.172.049.49-.079.51.21.025.322-.289.276-.507.333-1.767.449-3.586.377-5.38.566l.007.002Zm3.484-9.106c5.974-.581 11.829-.105 17.672.646 1.634.21 3.283.335 4.872.83.57.176 1.112.401 1.497.903.319.42.217.696-.242.897-.395.17-.8.14-1.218.117-3.09-.173-6.156-.599-9.23-.932-3.961-.428-7.931-.432-11.903-.255-3.481.154-6.959.354-10.438.534-.102.007-.208.017-.31.009-.426-.038-.966.045-1.042-.547-.072-.547.434-.616.816-.752 3.11-1.105 6.36-1.258 9.525-1.453v.003Z"/>
  <path fill="#3971fd" fill-rule="nonzero" d="m72.853 23.014.214-.96c.475-.86 1.39-1.433 2.25-1.911 8.999-5.001 12.161-6.24 22.188-8.596 7.802-1.833 11.954-2.075 19.796-2.468 1.432-.072 6.948-.571 8.774.73 2.07 1.473 1.7 4.828 1.999 7.35.846 7.173 3.865 14.904 1.238 21.633-1.036 2.651-5.487 2.256-7.155 2.482-9.209 1.248-11.028.98-18.984 3.15-3.556.969-7.039 2.189-10.58 3.209-3.763 1.082-7.51 2.24-11.331 3.096-5.172 1.159-6.987.494-7.423-4.751-.356-4.285-.527-8.584-.66-12.882-.077-2.488-.495-7.335-.323-10.082h-.003Z"/>
  <path fill="#fcfcfd" fill-rule="nonzero" d="M100.825 40.248c-2.253.183-4.634.318-7.033-.083-4.506-.759-7.2-3.499-8.768-7.613-.44-1.15-.366-2.24-.122-3.397.635-2.994 2.265-5.369 4.606-7.23 4.524-3.594 9.575-6.022 15.457-6.257 2.96-.118 5.86.334 8.63 1.496 1.82.76 3.061 2.078 3.91 3.79 1.635 3.298 2.14 6.787 1.412 10.38-.5 2.465-1.913 4.319-4.26 5.462-4.332 2.108-8.829 3.472-13.829 3.452h-.003Z"/>
  <path fill="#272726" fill-rule="nonzero" d="M105.532 30.743c.09 1.124-.729 2.229-1.826 2.56-1.084.33-2.887-.435-3.387-1.445-.217-.439-.376-.93.136-1.228.492-.283.846-.01 1.113.47.354.64.96.85 1.644.67.665-.175.815-.728.767-1.336-.036-.451-.131-.962.465-1.04.541-.072.804.36.945.839.059.197.111.395.143.507v.003Z"/>
  <path fill="#3971fd" fill-rule="nonzero" d="M12.806 39.751c-2.32.35-4.335-.432-6.298-1.478-.649-.344-.725-.806-.422-1.408.022-.047.047-.092.069-.137.714-1.492.82-1.558 2.277-.77 2.326 1.256 4.627 1.172 6.959.038.503-.246.865-.544.83-1.16-.033-.636-.432-.997-.979-1.158a7.307 7.307 0 0 0-2.673-.27c-1.787.143-3.545.058-5.26-.544-2.041-.718-2.932-3.056-1.814-4.92 1.09-1.82 2.815-2.786 4.82-3.182 2.245-.446 4.463-.247 6.547.81 1.358.686 1.448 1.001.663 2.28-.629 1.021-.887 1.145-2.002.655-1.433-.63-2.884-.89-4.44-.603-.575.105-1.069.349-1.55.647-.248.153-.434.354-.366.698.068.354.287.533.608.625.712.2 1.435.085 2.156.07a13.946 13.946 0 0 1 5.928 1.177c1.82.796 2.61 2.619 2.106 4.533-.215.816-.804 1.321-1.415 1.78-1.709 1.284-3.54 2.307-5.739 2.317h-.005Z"/>
  <path fill="#f86167" fill-rule="nonzero" d="M107.945 28.627c-.014-1.024.913-2.36 2.004-2.91 1.346-.673 2.676-.704 3.814-.544 2.72.383 3.173 3.853 1.44 5.788-1.15 1.286-2.688 1.778-4.432 1.33-1.79-.462-2.802-1.856-2.826-3.664ZM90.25 30.005c1.253-.911 2.766-.533 3.56-.174 1.115.506 1.918 1.743 1.772 2.875-.268 2.073-2.381 3.913-4.426 3.62-2.57-.366-3.684-3.086-2.09-5.116.35-.443.709-.86 1.184-1.205Z"/>
  <path fill="#262625" class="ds-explore__whats-new-eye-left" fill-rule="nonzero" d="M90.251 30.004c.11-.579.21-1.162.338-1.738.4-1.784 1.622-2.973 3.122-3.05 1.582-.08 3.277 1.116 3.849 2.717.617 1.723.028 3.322-1.67 4.543-.103.074-.206.153-.308.227-.29.097-.573.21-.87.294-2.465.704-4.31-.537-4.46-2.995v.002Zm4.899-1.977c.476-.117.84-.36.789-.938-.05-.556-.746-1.056-1.38-.966-.494.068-.788.385-.777.891.013.552.733 1.076 1.365 1.013h.003Z"/>
  <path fill="#262625" fill-rule="nonzero" d="M107.945 28.627c-1.235-.562-2.09-1.389-2.068-2.864.024-1.677.66-3.076 1.99-4.085.966-.728 2.103-1.135 3.252-.491 1.295.723 2.503 1.598 2.615 3.295.016.23.02.464.027.694-.363 1.427-1.208 2.387-2.557 3.063-1.091.546-2.134.598-3.262.391l.003-.003Zm2.557-6.81c-.567.113-.84.451-.776 1.033.063.58.553.999 1.111.923.522-.07.845-.354.793-.928-.056-.603-.596-1.087-1.128-1.028Z"/>
</svg>

