<svg width="296" height="308" viewBox="0 0 296 308" fill="none" xmlns="http://www.w3.org/2000/svg" aria-labelledby="ctaTitle ctaDesc" role="img">
<title id="ctaTitle">Illustrated pupil sitting at the desk with a laptop.</title>
<desc id="ctaDesc">An illustrated pupil sitting at the desk with a laptop, which has a Sanoma Learning's logo on it. An illustration is representing call to action block with information about the latest release.</desc>
<g filter="url(#filter0_d_746_494)">
<path d="M228.16 182.711C228.185 183.065 228.214 183.415 228.238 183.77C228.139 183.852 228.185 184.268 227.979 184.017C227.773 183.761 227.715 183.35 227.283 183.485C226.92 183.601 226.809 183.992 226.834 184.318C226.928 185.409 226.578 186.464 226.591 187.547C226.718 199.134 226.537 210.716 226.743 222.307C226.916 232.131 227.171 241.963 227.027 251.791C226.953 256.726 227.258 261.648 227.27 266.578C227.27 267.876 227.719 268.271 229.037 268.292C229.28 268.37 229.523 268.452 229.771 268.531C229.758 268.605 229.746 268.679 229.733 268.753C228.798 269.367 225.886 269.062 225.108 268.275C224.852 268.016 224.766 267.703 224.787 267.353C224.869 265.96 224.618 264.601 224.383 263.238C224.235 262.369 224.527 261.533 224.544 260.676C224.556 260.083 224.379 259.757 223.711 259.807C221.368 259.984 219.354 259.078 217.414 257.9C216.985 257.64 216.923 257.29 216.911 256.862C216.837 254.287 216.787 251.713 216.672 249.138C216.52 245.74 216.557 242.342 216.429 238.948C216.256 234.471 216.141 229.993 215.976 225.52C215.745 219.321 215.667 213.122 215.511 206.927C215.432 203.866 215.548 200.794 215.309 197.741C215.066 194.64 215.28 191.538 215.086 188.449C214.963 186.546 214.942 184.647 214.922 182.744C215.502 182.493 216.091 182.744 216.672 182.744C218.608 182.736 220.56 182.48 222.472 182.596C224.375 182.711 226.261 182.695 228.16 182.715V182.711Z" fill="#A6A6A6"/>
<path d="M253.537 119.163C250.44 119.385 247.371 118.879 244.286 118.792C243.071 118.759 241.86 118.57 240.636 118.739C240.212 118.796 239.734 118.838 239.347 118.529C239.442 117.791 239.496 117.058 239.215 116.346C239.203 116.296 239.182 116.255 239.15 116.214C238.878 113.627 238.614 111.04 238.334 108.454C238.009 105.455 236.707 102.922 234.367 101.052C231.36 98.6462 228.041 96.7102 224.626 94.9349C224.622 94.869 224.618 94.799 224.614 94.7331C225.273 94.1894 225.911 93.621 226.591 93.1061C229.869 90.647 231.698 87.4219 231.814 83.2864C236.324 83.5047 240.838 83.6942 245.349 83.9537C247.882 84.0978 250.403 84.3779 252.944 84.4109C253.879 84.4232 253.957 85.1399 253.957 85.8484C253.966 88.1303 253.982 90.4123 253.961 92.6942C253.896 100.887 253.826 109.076 253.739 117.268C253.731 117.898 253.607 118.529 253.537 119.159V119.163Z" fill="#45CB80"/>
<path d="M225.816 162.536C225.956 162.24 226.101 161.943 226.241 161.646C228.012 161.646 227.999 161.651 228.251 163.323C228.498 164.987 228.646 166.655 228.638 168.34C228.625 170.844 228.724 173.344 228.786 175.845C228.84 178.147 228.856 180.466 228.16 182.711C226.265 182.691 224.375 182.707 222.472 182.592C220.56 182.476 218.608 182.728 216.672 182.74C216.087 182.74 215.502 182.489 214.922 182.74C210.152 182.633 205.382 182.526 200.612 182.419C203.294 180.293 206.403 178.876 209.316 177.13C213.249 174.77 217.302 172.566 220.527 169.201C222.13 167.528 223.679 165.803 225.042 163.924C225.19 163.722 225.4 163.529 225.297 163.228H225.252C225.47 163.286 225.483 163.142 225.487 162.989L225.479 162.998C225.726 162.944 225.726 162.705 225.816 162.532V162.536Z" fill="#45CB80"/>
<path d="M198.009 187.217C198.029 188.189 198.054 189.157 198.071 190.129C198.445 210.14 198.24 230.15 198.297 250.16C198.297 250.308 198.297 250.461 198.297 250.609C198.297 254.398 197.745 254.987 193.898 255.259C193.416 255.292 192.93 255.226 192.444 255.206C192.498 254.95 192.658 254.802 192.914 254.827C193.824 254.921 193.873 254.394 193.77 253.706C193.523 252.05 193.342 250.391 193.354 248.714C193.367 246.889 193.251 245.048 193.05 243.252C192.687 240.064 192.852 236.86 192.461 233.684C192.415 233.305 192.539 232.951 192.646 232.592C193.585 229.421 194.314 226.204 194.705 222.908C195.22 218.546 195.369 214.164 195.583 209.785C195.76 206.136 195.492 202.478 195.801 198.82C196.036 196.044 195.183 193.375 194.615 190.685C194.528 190.269 194.364 189.882 194.784 189.569C195.855 188.778 196.934 187.996 198.009 187.209V187.217Z" fill="#A6A6A6"/>
<path d="M198.009 187.217C196.934 188.004 195.855 188.787 194.784 189.577C194.364 189.886 194.528 190.274 194.615 190.694C195.183 193.379 196.036 196.053 195.801 198.829C195.492 202.486 195.76 206.144 195.583 209.794C195.373 214.172 195.224 218.559 194.705 222.917C194.314 226.212 193.585 229.425 192.646 232.601C192.539 232.963 192.411 233.313 192.461 233.692C192.852 236.868 192.691 240.077 193.05 243.261C193.251 245.056 193.367 246.894 193.354 248.722C193.342 250.399 193.523 252.059 193.77 253.715C193.873 254.398 193.82 254.93 192.914 254.835C192.658 254.806 192.494 254.959 192.444 255.214C191.645 255.033 190.607 255.449 190.191 254.316C190.714 252.063 190.459 249.781 190.352 247.524C190.269 245.843 190.343 244.158 190.199 242.49C190.063 240.913 190.067 239.29 189.334 237.815C189.779 235.447 190.31 233.091 190.648 230.71C191.295 226.105 191.797 221.475 192.428 216.866C192.996 212.697 192.93 208.537 192.551 204.361C192.469 203.471 192.465 202.565 192.489 201.671C192.609 197.362 192.156 193.095 191.497 188.848C191.41 188.284 191.534 188.045 191.966 187.777C193.902 186.583 196.015 185.697 197.848 184.33C197.943 185.294 198.145 186.249 198.013 187.221L198.009 187.217Z" fill="#8B8787"/>
<path d="M229.037 268.288C227.715 268.267 227.274 267.872 227.27 266.574C227.258 261.644 226.953 256.722 227.027 251.787C227.171 241.959 226.916 232.127 226.743 222.303C226.541 210.716 226.722 199.13 226.591 187.543C226.578 186.46 226.933 185.409 226.834 184.313C226.805 183.988 226.92 183.597 227.283 183.481C227.715 183.341 227.773 183.757 227.979 184.013C228.185 184.264 228.139 183.848 228.238 183.766C228.292 184.017 228.382 184.268 228.387 184.519C228.457 191.283 228.815 198.034 228.91 204.797C229.095 218.028 229.268 231.254 229.359 244.484C229.4 250.238 229.61 255.988 229.738 261.739C229.746 262.146 229.701 262.558 229.684 262.966C229.478 263.506 229.614 264.07 229.573 264.618C229.482 265.853 229.771 267.143 229.041 268.284L229.037 268.288Z" fill="#8B8787"/>
</g>
<g filter="url(#filter1_d_746_494)">
<path d="M167.009 157.709C159.661 157.219 152.317 156.737 144.968 156.234C136.356 155.645 127.739 155.097 119.134 154.418C112.692 153.911 106.254 153.417 99.7993 153.075C97.159 152.935 94.5228 152.593 91.8949 152.272C91.1741 152.185 91.2029 152.474 91.2194 152.988C91.5324 163.912 91.4418 174.84 91.3388 185.763C91.2194 198.372 91.1864 210.98 90.8775 223.588C90.8528 224.593 90.9475 225.631 91.0876 226.653C91.1906 227.415 90.6674 228.185 89.9054 228.638C82.726 232.889 75.9667 237.782 68.9396 242.272C55.4746 250.877 42.0631 259.564 28.6763 268.296C26.3079 269.841 23.8941 270.52 21.0973 270.228C18.9472 270.001 16.7765 270.088 14.6346 269.68C12.4145 269.256 12.0479 268.984 11.9366 266.71C11.7389 262.604 11.5371 258.493 11.4753 254.382C11.0881 229.878 10.7092 205.37 10.3961 180.866C10.252 169.53 10.2025 158.191 10.3838 146.855C10.4003 145.846 10.5032 144.841 10.5733 143.836C10.635 142.93 10.9604 142.213 11.9037 141.875C12.6039 141.624 13.2712 141.29 13.9508 140.99C14.0785 141.056 14.2021 141.175 14.3339 141.183C17.1596 141.348 19.9852 141.492 22.8067 141.653C25.2575 141.797 27.7125 141.9 30.1592 142.127C34.0846 142.489 38.0141 142.749 41.9478 143.012C44.172 143.16 46.3963 143.37 48.6247 143.494C52.0723 143.684 55.5076 144.075 58.9552 144.338C61.476 144.532 64.0092 144.619 66.53 144.816C70.9744 145.158 75.4147 145.582 79.8633 145.908C82.7548 146.118 85.6464 146.361 88.5379 146.554C92.6569 146.83 96.7677 147.152 100.887 147.465C103.815 147.687 106.744 147.906 109.668 148.136C114.302 148.507 118.949 148.709 123.582 149.092C124.884 149.199 126.186 149.215 127.483 149.314C131.075 149.59 134.667 149.907 138.263 150.175C140.709 150.36 143.172 150.418 145.611 150.665C149.421 151.048 153.243 151.258 157.062 151.53C159.249 151.687 161.44 151.835 163.627 152.004C167.293 152.288 170.959 152.597 174.629 152.869C177.076 153.05 179.531 153.165 181.982 153.343C185.763 153.619 189.536 153.977 193.321 154.203C195.958 154.36 198.59 154.587 201.234 154.71C204.945 154.883 208.64 155.32 212.351 155.55C215.692 155.756 219.032 155.966 222.369 156.214C227.303 156.584 232.246 156.84 237.185 157.132C239.973 157.297 242.774 157.322 245.542 157.639C246.836 157.787 248.133 157.762 249.427 157.972C251.408 158.294 253.241 158.075 255.074 156.778C260.091 153.227 265.009 149.553 269.894 145.825C273.828 142.823 277.72 139.762 281.695 136.817C282.733 136.047 283.548 134.988 284.755 134.445C285.208 140.866 285.097 147.3 285.2 153.73C285.612 179.988 285.896 206.247 286.012 232.506C286.036 237.894 285.929 243.277 285.884 248.665C285.884 249.007 285.826 249.299 285.6 249.592C277.839 259.634 270.112 269.696 262.336 279.722C257.368 286.123 252.318 292.462 247.33 298.847C246.679 299.679 245.979 299.992 244.891 299.979C240.439 299.934 236.019 299.596 231.628 298.855C230.891 298.731 230.318 298.633 230.862 297.623C231.076 297.224 230.879 296.598 230.846 296.075C230.306 287.524 230.158 278.96 229.886 270.397C229.869 269.841 229.791 269.285 229.742 268.724C229.754 268.65 229.766 268.576 229.779 268.502C229.75 266.648 229.721 264.799 229.692 262.945C229.713 262.538 229.758 262.126 229.746 261.718C229.618 255.964 229.408 250.214 229.367 244.463C229.272 231.233 229.099 218.007 228.918 204.777C228.823 198.013 228.465 191.262 228.395 184.499C228.395 184.248 228.296 183.996 228.247 183.745C228.222 183.391 228.193 183.041 228.168 182.686C228.864 180.442 228.848 178.123 228.794 175.82C228.737 173.32 228.634 170.82 228.646 168.315C228.654 166.635 228.51 164.962 228.259 163.298C228.008 161.626 228.02 161.622 226.249 161.622C226.018 161.292 225.689 161.185 225.297 161.119C223.09 160.761 220.865 160.625 218.641 160.427C213.332 159.962 208.01 159.678 202.692 159.344C200.126 159.183 197.556 159.031 194.99 158.858C190.751 158.574 186.517 158.178 182.274 158.014C178.25 157.857 174.23 157.692 170.214 157.383C169.143 157.301 168.047 157.206 167.017 157.68L167.009 157.709ZM29.7761 251.869C29.9614 251.812 30.0685 251.799 30.1509 251.746C40.4855 244.735 51.1455 238.227 61.719 231.587C65.801 229.025 69.8911 226.467 74.0596 224.041C75.0152 223.485 75.2417 222.97 75.2294 221.957C75.1182 211.668 74.9905 201.374 74.9987 191.085C75.0111 178.287 74.7392 165.49 75.2376 152.696C75.2623 152.045 75.044 151.979 74.4962 151.967C73.6024 151.946 72.6962 151.897 71.823 151.728C66.2458 150.653 60.5781 150.377 54.9474 149.809C47.0636 149.014 39.1716 148.284 31.3084 147.296C30.9459 147.251 30.5381 147.012 30.2457 147.123C29.0058 147.584 27.5971 147.914 26.658 148.746C26.0607 149.277 26.6456 150.591 26.7239 151.551C26.7239 151.588 26.7239 151.625 26.728 151.662C27.0946 160.333 27.5436 169.003 27.8031 177.678C28.4415 198.961 29.0553 220.244 29.4795 241.531C29.5495 244.958 29.669 248.385 29.7678 251.869H29.7761ZM247.272 267.633C247.569 267.353 247.701 267.237 247.82 267.11C250.201 264.577 252.582 262.043 254.962 259.506C258.031 256.231 261.038 252.899 264.185 249.703C266.438 247.417 268.407 244.846 270.932 242.828C271.274 242.556 271.488 242.21 271.426 241.667C271.249 240.11 271.109 238.544 271.068 236.979C270.817 227.481 270.504 217.982 270.388 208.48C270.158 189.47 270.038 170.461 269.865 151.452C269.865 151.18 270.013 150.859 269.68 150.595C269.47 150.723 269.247 150.846 269.037 150.991C261.718 156.115 254.497 161.375 246.852 166.017C246.403 166.289 246.358 166.602 246.395 167.03C246.729 170.642 246.79 174.271 246.836 177.896C247.017 192.453 247.19 207.005 247.256 221.562C247.326 236.831 247.272 252.1 247.272 267.633Z" fill="#540101"/>
<path d="M253.537 119.163C258.13 119.328 262.727 119.443 267.315 119.67C273.288 119.966 279.252 120.353 285.221 120.687C286.975 120.786 288.73 120.86 290.485 120.93C291.84 120.984 292.001 121.153 291.968 122.541C291.947 123.476 291.836 124.423 291.955 125.342C292.124 126.647 291.531 127.401 290.534 128.11C288.681 129.419 286.93 130.865 285.077 132.171C284.45 132.612 284.916 133.127 284.735 133.571C283.964 132.785 283.281 133.32 282.663 133.773C280.014 135.701 277.386 137.657 274.767 139.622C267.678 144.932 260.503 150.134 253.731 155.851C253.022 156.448 252.343 156.654 251.531 156.424C250.938 156.259 250.353 156.284 249.756 156.251C247.116 156.106 244.48 155.958 241.843 155.793C237.354 155.505 232.864 155.213 228.374 154.904C226.298 154.764 224.222 154.599 222.146 154.422C218.851 154.142 215.56 153.833 212.269 153.565C210.045 153.384 207.816 153.264 205.592 153.083C202.26 152.811 198.932 152.486 195.599 152.218C193.264 152.033 190.92 151.917 188.585 151.744C184.803 151.464 181.026 151.176 177.249 150.855C175.025 150.665 172.796 150.55 170.572 150.36C166.869 150.043 163.162 149.776 159.455 149.516C157.115 149.351 154.776 149.219 152.44 149.051C148.585 148.766 144.729 148.478 140.878 148.161C138.654 147.98 136.43 147.807 134.201 147.675C130.68 147.465 127.166 147.094 123.648 146.826C121.202 146.641 118.743 146.579 116.3 146.344C112.449 145.974 108.593 145.739 104.738 145.451C103.473 145.356 102.213 145.302 100.948 145.212C97.4267 144.956 93.9132 144.619 90.3956 144.359C87.8336 144.17 85.2674 144.1 82.7095 143.881C78.747 143.544 74.7804 143.235 70.8138 142.963C69.7017 142.889 68.5854 142.835 67.4733 142.749C63.9556 142.464 60.438 142.151 56.9204 141.888C54.3583 141.698 51.7922 141.612 49.2343 141.414C44.7899 141.072 40.3496 140.656 35.9052 140.318C33.3102 140.121 30.6946 140.096 28.1079 139.816C26.9546 139.688 25.7971 139.758 24.6603 139.565C22.6873 139.235 20.7307 138.774 18.7001 138.955C17.3202 139.078 15.9362 138.823 14.5811 138.671C13.1023 138.502 11.6071 138.473 10.1366 138.374C8.59613 138.271 6.97324 137.67 5.43273 138.481C4.01579 138.613 3.99931 138.613 4.0405 137.229C4.09405 135.359 4.41121 133.518 4.77369 131.689C4.88078 131.149 5.26385 130.836 5.75401 130.717C9.67119 129.774 13.3865 128.233 17.1678 126.894C34.7642 120.662 52.3194 114.299 70.0724 108.52C71.341 108.108 72.6179 107.622 73.9278 107.457C75.2335 107.292 76.5887 107.449 77.9191 107.527C89.5635 108.194 101.208 108.878 112.852 109.558C113.186 109.578 113.52 109.636 113.853 109.673C113.532 114.035 113.68 118.413 113.474 122.78C113.425 123.826 113.429 124.872 113.433 125.918C113.433 126.668 113.787 127.187 114.582 127.1C115.604 126.993 116.593 127.208 117.598 127.257C123.529 127.562 129.46 127.904 135.4 128.122C145.71 128.501 156.02 128.793 166.33 129.123C169.728 129.23 173.126 129.349 176.528 129.452C179.671 129.547 182.822 129.452 185.944 129.943C186.706 129.93 187.464 129.914 188.226 129.901C188.375 129.905 188.527 129.926 188.675 129.918C196.205 129.432 203.705 128.575 211.219 127.908C213.113 127.739 214.971 127.644 216.425 126.087C217.323 125.123 217.801 123.999 217.068 123.364C216.277 122.681 215.531 121.886 214.398 121.634C209.229 120.477 204.08 119.221 198.903 118.104C195.661 117.404 192.452 116.519 189.132 116.234L189.124 116.267C189.062 115.95 188.844 116.082 188.667 116.107C188.403 115.625 187.641 116.111 187.452 115.481C187.86 115.448 188.272 115.361 188.679 115.386C192.444 115.617 196.213 115.864 199.978 116.107C206.721 116.548 213.468 116.98 220.21 117.429C222.892 117.606 225.569 117.874 228.255 117.989C231.464 118.125 234.656 118.558 237.873 118.479C238.371 118.492 238.857 118.698 239.36 118.533C239.751 118.846 240.225 118.805 240.649 118.743C241.872 118.574 243.083 118.759 244.298 118.796C247.383 118.883 250.452 119.385 253.55 119.167L253.537 119.163ZM8.26661 131.1C7.85471 131.1 7.44281 131.092 7.03091 131.1C6.77965 131.108 6.44189 131.034 6.38834 131.384C6.32655 131.763 6.69315 131.701 6.91969 131.8C7.56638 132.072 8.25013 131.953 8.91329 132.019C11.8337 132.307 14.7458 132.636 17.6703 132.879C20.1541 133.085 22.6502 133.159 25.134 133.357C29.4301 133.699 33.718 134.127 38.0182 134.453C41.6924 134.729 45.3748 134.852 49.0448 135.178C50.1982 135.281 51.3474 135.297 52.5007 135.388C56.0554 135.676 59.6101 135.977 63.1648 136.253C65.4261 136.43 67.6916 136.545 69.9529 136.731C73.2852 137.003 76.6134 137.336 79.9456 137.596C82.4294 137.789 84.9255 137.851 87.4093 138.078C91.3718 138.436 95.3384 138.708 99.3091 138.967C101.496 139.111 103.684 139.309 105.875 139.437C109.508 139.651 113.133 140.022 116.766 140.289C119.253 140.475 121.75 140.541 124.229 140.771C128.377 141.154 132.533 141.402 136.689 141.661C138.992 141.801 141.29 141.995 143.593 142.135C147.151 142.349 150.702 142.724 154.261 142.987C156.823 143.177 159.393 143.235 161.947 143.469C165.984 143.84 170.028 144.095 174.069 144.359C176.256 144.503 178.444 144.701 180.635 144.829C184.383 145.047 188.119 145.401 191.863 145.685C194.125 145.858 196.402 145.916 198.651 146.184C202.087 146.592 205.543 146.699 208.982 147.02C211.61 147.263 214.258 147.3 216.895 147.506C221.191 147.84 225.483 148.247 229.775 148.606C232.699 148.849 235.628 149.154 238.561 149.252C242.655 149.388 246.72 149.829 250.794 150.204C251.601 150.278 252.396 150.257 252.961 149.767C253.298 149.475 253.603 149.051 253.978 148.775C263.798 141.517 273.63 134.28 283.45 127.026C285.427 125.568 287.379 124.077 289.323 122.574C289.607 122.351 290.151 122.034 289.785 121.597C289.443 121.19 289.15 121.713 288.87 121.91C281.95 126.89 275.063 131.916 268.263 137.06C263.098 140.965 257.809 144.709 252.615 148.581C251.91 149.104 251.235 149.174 250.526 148.968C248.747 148.445 246.906 148.49 245.102 148.42C242.717 148.33 240.352 148.046 237.98 147.877C233.976 147.597 229.972 147.267 225.965 147.028C223.662 146.892 221.36 146.732 219.061 146.554C215.432 146.274 211.803 145.961 208.171 145.69C205.761 145.508 203.343 145.397 200.929 145.216C197.296 144.94 193.672 144.614 190.039 144.347C187.477 144.157 184.91 144.071 182.348 143.873C178.979 143.614 175.614 143.243 172.244 143.008C169.316 142.802 166.387 142.555 163.459 142.349C159.34 142.065 155.225 141.76 151.11 141.439C148.181 141.208 145.253 140.986 142.324 140.78C138.469 140.508 134.613 140.203 130.762 139.861C126.799 139.511 122.833 139.21 118.862 138.963C114.891 138.716 110.925 138.407 106.962 138.078C104.001 137.83 101.035 137.612 98.0693 137.41C93.9874 137.134 89.9137 136.797 85.8317 136.508C81.5644 136.203 77.3012 135.923 73.0339 135.614C69.8458 135.384 66.6536 135.153 63.4655 134.939C59.3094 134.659 55.1574 134.35 51.0055 134.037C47.0018 133.736 42.9981 133.46 38.9944 133.139C34.2123 132.752 29.4136 132.55 24.6273 132.192C23.4369 132.101 22.2424 132.089 21.0644 131.957C16.8094 131.479 12.5257 131.471 8.26249 131.096L8.26661 131.1Z" fill="#540000"/>
<path d="M5.42028 138.477C6.9608 137.666 8.58369 138.271 10.1242 138.37C11.5947 138.465 13.0899 138.494 14.5686 138.667C15.9196 138.823 17.3036 139.074 18.6876 138.951C20.7183 138.774 22.6748 139.231 24.6478 139.56C25.7847 139.75 26.9462 139.684 28.0954 139.812C30.6822 140.096 33.2936 140.116 35.8927 140.314C40.3371 140.652 44.7774 141.068 49.2219 141.41C51.7798 141.608 54.35 141.694 56.9079 141.883C60.4297 142.143 63.9432 142.46 67.4608 142.744C68.573 142.835 69.6892 142.884 70.8014 142.959C74.7721 143.23 78.7346 143.535 82.6971 143.877C85.255 144.095 87.8252 144.165 90.3831 144.355C93.9008 144.614 97.4184 144.952 100.936 145.208C102.196 145.298 103.461 145.352 104.726 145.446C108.581 145.735 112.436 145.97 116.288 146.34C118.73 146.575 121.189 146.637 123.636 146.822C127.154 147.09 130.667 147.461 134.189 147.671C136.417 147.803 138.641 147.976 140.866 148.157C144.717 148.474 148.572 148.762 152.428 149.046C154.763 149.219 157.107 149.351 159.442 149.512C163.15 149.771 166.857 150.039 170.56 150.356C172.78 150.546 175.012 150.665 177.237 150.851C181.014 151.172 184.795 151.456 188.572 151.74C190.908 151.913 193.251 152.029 195.587 152.214C198.919 152.482 202.247 152.803 205.58 153.079C207.804 153.26 210.032 153.38 212.256 153.561C215.552 153.833 218.843 154.142 222.134 154.418C224.21 154.595 226.286 154.755 228.362 154.9C232.852 155.204 237.341 155.501 241.831 155.789C244.467 155.958 247.107 156.102 249.744 156.246C250.337 156.279 250.926 156.255 251.519 156.419C252.33 156.646 253.014 156.444 253.718 155.847C260.494 150.13 267.665 144.927 274.754 139.618C277.378 137.653 280.006 135.701 282.65 133.769C283.268 133.32 283.952 132.785 284.722 133.567C284.899 133.864 284.862 134.16 284.739 134.461C283.532 135.005 282.716 136.063 281.678 136.834C277.703 139.779 273.811 142.839 269.877 145.842C264.992 149.565 260.074 153.244 255.057 156.794C253.224 158.092 251.391 158.31 249.41 157.989C248.117 157.779 246.815 157.799 245.526 157.655C242.758 157.338 239.957 157.313 237.168 157.149C232.23 156.856 227.287 156.597 222.352 156.23C219.016 155.979 215.675 155.773 212.335 155.567C208.628 155.336 204.929 154.9 201.218 154.727C198.577 154.603 195.945 154.376 193.305 154.22C189.524 153.993 185.746 153.635 181.965 153.359C179.514 153.178 177.064 153.067 174.613 152.885C170.943 152.614 167.277 152.305 163.611 152.02C161.424 151.852 159.232 151.699 157.045 151.547C153.227 151.275 149.404 151.065 145.594 150.682C143.152 150.435 140.693 150.377 138.246 150.192C134.65 149.924 131.062 149.607 127.467 149.331C126.169 149.232 124.868 149.215 123.566 149.108C118.932 148.725 114.286 148.519 109.652 148.153C106.723 147.918 103.795 147.704 100.87 147.481C96.7553 147.168 92.6404 146.847 88.5213 146.571C85.6298 146.377 82.7383 146.134 79.8467 145.924C75.3982 145.599 70.962 145.179 66.5135 144.833C63.9926 144.639 61.4594 144.548 58.9386 144.355C55.4951 144.091 52.0557 143.704 48.6081 143.511C46.3797 143.387 44.1555 143.177 41.9312 143.029C38.0017 142.765 34.068 142.505 30.1426 142.143C27.7 141.916 25.241 141.813 22.7902 141.669C19.9645 141.505 17.1389 141.36 14.3173 141.2C14.1855 141.191 14.062 141.072 13.9343 141.006C14.4698 140.594 15.0794 140.327 15.7013 140.088C15.9773 139.981 16.3521 139.935 16.3027 139.556C16.2574 139.194 15.8908 139.239 15.5984 139.177C13.9755 138.831 12.3073 139.153 10.7009 138.885C8.93792 138.592 7.17086 138.605 5.40381 138.489L5.42028 138.477Z" fill="#380606"/>
<path d="M8.26651 131.1C12.5256 131.475 16.8093 131.483 21.0684 131.961C22.2464 132.093 23.4451 132.105 24.6313 132.195C29.4176 132.554 34.2163 132.756 38.9985 133.143C43.0021 133.468 47.0058 133.74 51.0095 134.041C55.1615 134.354 59.3134 134.663 63.4695 134.943C66.6617 135.157 69.8499 135.388 73.038 135.618C77.3053 135.927 81.5684 136.212 85.8357 136.512C89.9136 136.805 93.9914 137.138 98.0733 137.414C101.039 137.616 104.005 137.834 106.966 138.082C110.933 138.411 114.895 138.72 118.866 138.967C122.837 139.214 126.803 139.515 130.766 139.865C134.617 140.207 138.468 140.512 142.328 140.784C145.257 140.99 148.185 141.212 151.114 141.443C155.229 141.768 159.344 142.069 163.463 142.353C166.391 142.555 169.316 142.806 172.248 143.012C175.622 143.247 178.983 143.618 182.352 143.877C184.91 144.075 187.481 144.165 190.043 144.351C193.676 144.618 197.3 144.948 200.933 145.22C203.343 145.401 205.761 145.512 208.174 145.693C211.807 145.965 215.432 146.283 219.065 146.558C221.364 146.736 223.666 146.892 225.969 147.032C229.976 147.271 233.98 147.601 237.984 147.881C240.356 148.045 242.725 148.33 245.106 148.424C246.914 148.494 248.751 148.449 250.53 148.972C251.239 149.178 251.914 149.108 252.619 148.585C257.813 144.717 263.102 140.973 268.267 137.064C275.067 131.92 281.954 126.894 288.874 121.914C289.154 121.713 289.443 121.189 289.789 121.601C290.155 122.038 289.611 122.355 289.327 122.578C287.387 124.081 285.431 125.572 283.454 127.03C273.63 134.284 263.798 141.521 253.982 148.779C253.607 149.055 253.302 149.479 252.965 149.771C252.4 150.261 251.605 150.282 250.798 150.208C246.724 149.833 242.659 149.392 238.565 149.256C235.632 149.158 232.707 148.853 229.779 148.61C225.483 148.256 221.195 147.844 216.899 147.51C214.267 147.304 211.618 147.271 208.986 147.024C205.547 146.703 202.091 146.596 198.655 146.188C196.406 145.92 194.129 145.862 191.867 145.689C188.123 145.405 184.387 145.047 180.639 144.833C178.448 144.705 176.26 144.507 174.073 144.363C170.028 144.099 165.988 143.844 161.951 143.473C159.397 143.239 156.823 143.181 154.265 142.991C150.706 142.728 147.16 142.353 143.597 142.139C141.294 141.999 138.996 141.809 136.693 141.665C132.537 141.41 128.381 141.163 124.233 140.775C121.754 140.545 119.257 140.479 116.77 140.293C113.137 140.022 109.512 139.655 105.879 139.441C103.688 139.309 101.5 139.111 99.3131 138.971C95.3424 138.712 91.3758 138.44 87.4133 138.082C84.9296 137.855 82.4334 137.793 79.9497 137.6C76.6174 137.34 73.2892 137.006 69.957 136.735C67.6956 136.549 65.4302 136.434 63.1688 136.257C59.6141 135.981 56.0594 135.68 52.5047 135.392C51.3555 135.297 50.2022 135.285 49.0488 135.182C45.3829 134.852 41.6964 134.733 38.0222 134.457C33.7261 134.131 29.4341 133.703 25.138 133.361C22.6542 133.163 20.1581 133.089 17.6743 132.883C14.754 132.64 11.8377 132.311 8.91731 132.022C8.25415 131.957 7.5704 132.076 6.92371 131.804C6.69717 131.709 6.33469 131.771 6.39236 131.388C6.44591 131.038 6.78367 131.112 7.03493 131.104C7.44683 131.092 7.85873 131.104 8.27063 131.104L8.26651 131.1Z" fill="#380606"/>
</g>
<g filter="url(#filter2_d_746_494)">
<path d="M200.612 182.419C199.607 182.934 198.717 183.622 197.844 184.326C196.011 185.693 193.898 186.579 191.962 187.773C191.53 188.041 191.406 188.28 191.493 188.844C192.152 193.091 192.605 197.358 192.485 201.667C192.461 202.565 192.465 203.467 192.547 204.357C192.926 208.529 192.992 212.694 192.424 216.862C191.797 221.471 191.295 226.097 190.644 230.706C190.311 233.091 189.775 235.443 189.33 237.811C189.219 237.803 189.091 237.758 189.001 237.799C186.422 238.985 183.794 239.957 180.874 239.743C180.132 239.69 179.387 239.747 178.645 239.755H178.559H178.534C176.833 239.422 175.111 239.57 173.398 239.554L172.941 239.533C173.056 238.573 172.656 237.704 172.483 236.794C171.244 230.331 170.193 223.84 169.526 217.29C169.073 212.817 168.562 208.348 167.965 203.891C167.586 201.053 167.141 198.219 166.947 195.369C166.787 192.992 166.136 190.665 166.803 188.185C167.668 184.968 168.443 181.702 170.127 178.852C171.96 175.746 173.863 172.661 176.038 169.765C178.25 166.816 180.355 163.788 182.773 160.996C183.148 160.563 183.522 160.287 184.099 160.329C186.805 160.539 189.511 160.786 192.222 160.946C196.16 161.181 200.085 161.552 204.019 161.84C208.249 162.149 212.463 162.656 216.709 162.821C218.27 162.878 219.836 162.969 221.401 162.994C222.291 163.006 222.991 163.933 223.992 163.459C224.375 163.278 224.861 163.302 225.297 163.237C225.404 163.537 225.19 163.731 225.042 163.933C223.679 165.811 222.13 167.533 220.528 169.209C217.307 172.574 213.249 174.778 209.316 177.138C206.403 178.885 203.294 180.297 200.612 182.427V182.419Z" fill="#FE575C"/>
<path d="M162.165 240.645C161.605 237.786 161.481 234.874 161.033 232.003C159.822 224.264 158.503 216.54 157.35 208.793C156.794 205.065 156.51 201.3 156.106 197.552C155.571 192.543 155.105 187.53 154.389 182.542C153.952 179.511 153.73 176.45 154.916 173.497C154.978 174.246 155.369 174.465 155.941 173.987C157.202 172.937 158.479 171.895 159.628 170.729C161.354 168.978 163.018 167.158 164.637 165.3C166.082 163.64 167.553 162.001 169.028 160.37C169.509 159.838 169.921 159.558 170.626 159.603C173.488 159.776 176.355 159.921 179.222 160.077C179.432 160.089 179.749 160.019 179.774 160.3C179.791 160.468 179.568 160.666 179.44 160.843C177.418 163.562 175.21 166.153 173.488 169.085C171.182 173.011 169.007 177.014 166.457 180.796C164.464 183.753 163.331 186.962 163.479 190.578C163.537 191.995 163.529 193.404 163.693 194.821C164.068 198.034 164.266 201.271 164.674 204.48C165.172 208.385 165.86 212.269 166.387 216.174C167.096 221.409 168.064 226.599 169.114 231.773C169.654 234.429 170.156 237.094 170.675 239.755C169.538 239.916 168.418 240.126 167.322 240.484C165.596 240.287 163.899 240.95 162.169 240.657L162.165 240.645Z" fill="#FE575C"/>
<path d="M170.671 239.747C170.152 237.086 169.649 234.421 169.11 231.765C168.06 226.591 167.087 221.401 166.383 216.166C165.856 212.261 165.168 208.381 164.67 204.472C164.262 201.263 164.064 198.03 163.689 194.813C163.524 193.396 163.533 191.987 163.475 190.57C163.323 186.954 164.459 183.745 166.453 180.788C169.003 177.006 171.178 173.003 173.484 169.077C175.206 166.145 177.414 163.558 179.436 160.835C179.564 160.662 179.786 160.464 179.77 160.291C179.745 160.011 179.432 160.081 179.218 160.069C176.351 159.913 173.488 159.768 170.622 159.595C169.921 159.554 169.505 159.83 169.023 160.361C167.549 161.993 166.078 163.632 164.632 165.292C163.014 167.15 161.354 168.966 159.624 170.721C158.475 171.886 157.198 172.929 155.937 173.979C155.365 174.457 154.973 174.238 154.912 173.489C155.093 172.447 155.781 171.685 156.411 170.923C159.924 166.668 163.22 162.232 166.881 158.1C166.964 158.005 166.964 157.837 167.005 157.701C168.035 157.227 169.135 157.322 170.206 157.404C174.222 157.713 178.242 157.878 182.266 158.034C186.509 158.199 190.743 158.594 194.981 158.879C197.548 159.052 200.118 159.204 202.684 159.365C208.002 159.698 213.323 159.983 218.633 160.448C220.857 160.642 223.085 160.782 225.289 161.14C225.68 161.202 226.01 161.313 226.241 161.643C226.096 161.939 225.956 162.236 225.816 162.532C225.557 162.578 225.466 162.751 225.479 162.998L225.487 162.989C225.409 163.068 225.33 163.146 225.252 163.228H225.297C224.861 163.298 224.375 163.27 223.992 163.451C222.991 163.929 222.29 163.002 221.401 162.985C219.835 162.961 218.27 162.874 216.709 162.812C212.462 162.652 208.249 162.141 204.018 161.832C200.085 161.544 196.159 161.173 192.222 160.938C189.511 160.778 186.805 160.53 184.099 160.32C183.522 160.275 183.147 160.555 182.773 160.988C180.355 163.78 178.25 166.808 176.038 169.757C173.863 172.657 171.96 175.742 170.127 178.844C168.443 181.698 167.668 184.964 166.803 188.177C166.136 190.657 166.787 192.98 166.947 195.361C167.141 198.211 167.582 201.045 167.965 203.883C168.562 208.34 169.073 212.809 169.526 217.282C170.193 223.835 171.244 230.323 172.483 236.786C172.656 237.696 173.056 238.569 172.941 239.525C172.343 239.669 171.668 239.195 171.128 239.764C170.976 239.755 170.823 239.747 170.675 239.743L170.671 239.747Z" fill="#B73F43"/>
<path d="M170.671 239.747C170.823 239.755 170.976 239.763 171.124 239.768C171.482 240.46 171.557 241.222 171.66 241.975C171.532 242.47 171.903 242.799 172.067 243.195C172.207 243.763 172.331 244.331 172.492 244.892C172.957 246.515 173.002 248.236 173.637 249.822C173.579 250.23 173.608 250.605 174.028 250.827C174.069 251.194 174.077 251.569 174.164 251.927C174.456 253.167 174.687 253.294 175.824 252.751C176.726 252.318 177.624 251.853 178.464 251.313C179.222 250.827 179.844 250.222 179.667 249.134C179.515 248.187 179.56 247.211 179.424 246.259C179.185 244.566 179.366 242.84 178.963 241.164C178.95 240.83 179.094 240.464 178.781 240.188C178.748 240.101 178.711 240.019 178.678 239.932C178.703 239.866 178.695 239.805 178.654 239.747C179.399 239.739 180.145 239.681 180.886 239.735C183.807 239.949 186.435 238.977 189.013 237.79C189.1 237.749 189.231 237.799 189.338 237.803C190.067 239.277 190.063 240.9 190.203 242.478C190.348 244.15 190.278 245.831 190.356 247.511C190.463 249.769 190.718 252.055 190.195 254.304C187.122 256.099 183.765 256.936 180.26 257.302C179.082 257.426 177.846 257.895 176.738 257.673C174.197 257.166 171.816 257.99 169.365 258.171C167.977 258.274 166.61 258.105 165.242 257.916C164.217 257.772 164.052 256.874 163.776 256.153C163.57 255.613 163.603 254.983 163.529 254.394C163.862 254.234 164.208 254.102 164.521 253.908C165.872 253.068 167.203 252.199 167.771 250.592C167.829 250.489 167.891 250.386 167.948 250.283C167.973 247.491 167.994 244.702 168.023 241.909C168.031 241.304 167.8 240.83 167.326 240.468C168.418 240.114 169.542 239.899 170.679 239.739L170.671 239.747ZM187.769 246.169C187.794 244.451 186.562 243.125 184.931 243.112C183.658 243.104 182.711 244.072 182.69 245.394C182.666 247.211 183.864 248.764 185.289 248.764C186.966 248.764 187.744 247.948 187.769 246.169Z" fill="#103298"/>
<path d="M167.318 240.476C167.796 240.839 168.023 241.312 168.014 241.918C167.985 244.711 167.965 247.499 167.94 250.292C167.178 249.25 166.433 248.191 165.646 247.165C165.061 246.403 165.127 245.716 165.654 244.945C166.354 243.932 166.869 242.816 167.314 241.667C167.396 241.457 167.73 241.086 167.244 240.942C166.882 240.835 166.902 241.23 166.783 241.444C166.062 242.75 165.716 244.257 164.666 245.464C163.969 244.043 163.298 242.68 162.631 241.316C162.581 241.222 162.536 241.127 162.487 241.032C162.458 241.057 162.404 241.094 162.408 241.102C162.45 241.197 162.503 241.292 162.552 241.382C162.544 241.691 162.54 242 162.532 242.309C161.79 241.893 161.807 241.308 162.161 240.645C163.891 240.937 165.588 240.274 167.314 240.472L167.318 240.476Z" fill="#A6A6A6"/>
<path d="M167.763 250.597C167.195 252.207 165.868 253.076 164.513 253.912C164.2 254.106 163.854 254.238 163.52 254.398C163.31 252.899 162.915 251.42 163.043 249.884C163.628 249.645 163.553 249.015 163.805 248.582C164.13 248.022 164.134 246.992 164.752 246.964C165.325 246.939 165.531 247.936 165.934 248.459C166.503 249.204 166.713 250.267 167.767 250.592L167.763 250.597Z" fill="#A6A6A6"/>
<path d="M167.763 250.597C166.708 250.271 166.498 249.208 165.93 248.463C165.53 247.94 165.32 246.943 164.748 246.968C164.13 246.997 164.126 248.022 163.8 248.586C163.549 249.023 163.623 249.653 163.038 249.888C163.026 249.513 163.018 249.143 163.005 248.768C164.497 246.593 164.377 244.71 162.643 243.133C162.606 242.857 162.569 242.585 162.536 242.309C162.54 242 162.548 241.691 162.556 241.382L162.635 241.312C163.302 242.676 163.973 244.039 164.67 245.46C165.72 244.253 166.062 242.746 166.787 241.44C166.902 241.23 166.886 240.834 167.248 240.937C167.73 241.082 167.396 241.452 167.318 241.662C166.877 242.807 166.358 243.928 165.658 244.941C165.127 245.707 165.061 246.395 165.65 247.161C166.437 248.187 167.182 249.246 167.944 250.288C167.886 250.391 167.825 250.494 167.767 250.592L167.763 250.597Z" fill="#8B8787"/>
<path d="M162.647 243.133C164.381 244.706 164.501 246.589 163.01 248.768C162.833 246.893 162.635 245.019 162.647 243.133Z" fill="#A6A6A6"/>
<path d="M171.659 241.975C171.557 241.222 171.482 240.46 171.124 239.768C171.664 239.199 172.343 239.673 172.936 239.529C173.089 239.537 173.241 239.541 173.394 239.549C173.575 239.796 173.855 239.739 174.102 239.796C175.585 240.147 177.055 239.591 178.53 239.755H178.555C178.592 239.817 178.629 239.875 178.666 239.937C178.699 240.023 178.736 240.105 178.769 240.192C177.686 242.177 176.598 244.167 175.453 246.263C174.65 245.254 173.9 244.34 173.175 243.405C172.743 242.845 172.347 242.251 171.651 241.98L171.659 241.975Z" fill="#A6A6A6"/>
<path d="M178.963 241.168C179.362 242.845 179.185 244.571 179.424 246.263C179.556 247.215 179.51 248.195 179.667 249.138C179.844 250.226 179.226 250.827 178.464 251.317C177.624 251.857 176.726 252.322 175.824 252.755C174.687 253.303 174.456 253.175 174.164 251.931C174.077 251.573 174.073 251.198 174.028 250.831C174.572 250.02 174.893 249.106 175.256 248.208C175.47 247.68 175.663 247.586 176.083 248.109C176.644 248.805 177.286 249.439 177.962 250.024C178.192 250.222 178.53 250.749 178.876 250.391C179.222 250.028 178.724 249.74 178.485 249.489C177.945 248.92 177.426 248.315 176.813 247.829C176.038 247.211 176.055 246.626 176.516 245.814C177.381 244.295 178.147 242.721 178.959 241.168H178.963Z" fill="#A6A6A6"/>
<path d="M187.769 246.169C187.744 247.952 186.966 248.764 185.289 248.764C183.864 248.764 182.666 247.211 182.69 245.394C182.711 244.072 183.658 243.104 184.931 243.112C186.562 243.125 187.794 244.451 187.769 246.169Z" fill="#A6A6A6"/>
<path d="M178.963 241.168C178.155 242.721 177.385 244.294 176.52 245.814C176.059 246.626 176.042 247.211 176.817 247.829C177.426 248.315 177.949 248.916 178.489 249.489C178.728 249.74 179.226 250.028 178.88 250.391C178.538 250.745 178.196 250.222 177.966 250.024C177.29 249.443 176.644 248.805 176.088 248.109C175.667 247.586 175.47 247.68 175.26 248.208C174.897 249.105 174.576 250.02 174.032 250.831C173.612 250.609 173.583 250.238 173.641 249.83C174.007 249.068 174.37 248.302 174.749 247.548C174.947 247.157 175.029 246.795 174.72 246.416C173.834 245.349 172.957 244.274 172.076 243.199C171.907 242.803 171.536 242.474 171.668 241.98C172.368 242.251 172.759 242.845 173.192 243.405C173.917 244.34 174.662 245.254 175.47 246.263C176.615 244.167 177.698 242.181 178.785 240.192C179.098 240.468 178.958 240.834 178.967 241.168H178.963Z" fill="#8B8787"/>
<path d="M172.072 243.199C172.953 244.27 173.83 245.345 174.716 246.416C175.029 246.791 174.942 247.157 174.745 247.548C174.366 248.302 174.003 249.068 173.637 249.83C173.002 248.245 172.957 246.523 172.492 244.9C172.331 244.34 172.207 243.767 172.067 243.203L172.072 243.199Z" fill="#A6A6A6"/>
</g>
<g filter="url(#filter3_d_746_494)">
<path d="M 185.932 129.943 C 182.81 129.457 179.659 129.551 176.516 129.457 C 173.118 129.354 169.715 129.234 166.317 129.127 C 156.007 128.797 145.693 128.501 135.387 128.126 C 129.452 127.908 123.521 127.566 117.585 127.261 C 116.58 127.208 115.596 126.993 114.57 127.105 C 113.775 127.187 113.421 126.672 113.421 125.922 C 113.421 124.876 113.417 123.826 113.462 122.784 C 113.664 118.418 113.515 114.039 113.841 109.677 C 113.796 103.358 114.191 97.0523 114.364 90.7378 C 114.504 85.6632 115.048 80.6009 114.949 75.5181 C 114.928 74.4101 115.649 73.9982 116.568 73.8622 C 120.802 73.232 125.045 72.6389 129.283 72.0251 C 133.703 71.3826 138.118 70.7194 142.542 70.0892 C 147.077 69.4466 151.612 68.8288 156.151 68.2068 C 158.437 67.8938 160.728 67.6013 163.01 67.2759 C 163.248 67.243 163.471 67.0576 163.697 66.9382 C 165.831 66.8846 167.948 66.7034 170.032 66.2215 C 171.565 66.2503 173.06 65.8919 174.576 65.7478 C 176.718 65.5418 178.859 65.3153 180.993 65.0352 C 182.616 64.821 184.235 64.5697 185.878 64.6439 C 187.707 64.7263 188.201 65.3606 187.839 67.1524 C 187.674 67.972 187.649 68.8164 187.802 69.6032 C 188.024 70.7235 187.921 71.8316 187.946 72.9478 C 187.654 73.1991 187.765 73.5203 187.79 73.8252 C 187.781 75.2668 187.773 76.7085 187.765 78.1501 C 187.39 79.8142 187.476 81.4948 187.592 83.1753 C 187.472 84.7158 187.357 86.2605 187.238 87.801 C 187.019 90.5648 186.727 93.3287 186.887 96.109 C 186.941 96.2408 186.995 96.3726 187.048 96.5044 C 186.681 96.7639 186.838 97.1635 186.784 97.5095 C 186.463 99.0006 186.686 100.525 186.525 102.036 C 186.311 104.05 186.298 106.098 186.55 108.124 C 186.55 110.468 186.55 112.812 186.55 115.155 C 186.274 115.575 185.796 115.975 185.751 116.42 C 185.524 118.554 185.211 120.712 185.322 122.841 C 185.421 124.736 185.429 126.627 185.458 128.517 C 185.466 129.061 185.528 129.547 185.924 129.947 L 185.932 129.943 Z Z" fill="#A6A6A6"/>
<path d="M189.116 116.234C192.436 116.519 195.645 117.404 198.886 118.104C204.064 119.221 209.213 120.481 214.382 121.634C215.515 121.886 216.256 122.681 217.051 123.364C217.784 123.999 217.311 125.123 216.408 126.087C214.959 127.644 213.101 127.739 211.202 127.908C203.689 128.575 196.188 129.432 188.659 129.918C188.51 129.926 188.362 129.909 188.21 129.901C188.428 129.403 189.281 129.374 189.108 128.55C188.683 126.487 188.741 124.398 189.12 122.343C189.499 120.292 189.021 118.269 189.112 116.234H189.116Z" fill="#A6A6A6"/>
<path d="M189.116 116.234C189.025 118.269 189.503 120.292 189.124 122.343C188.745 124.398 188.688 126.487 189.112 128.55C189.281 129.374 188.428 129.399 188.214 129.901C187.452 129.914 186.694 129.93 185.932 129.942C185.536 129.543 185.475 129.057 185.466 128.513C185.438 126.623 185.429 124.732 185.331 122.837C185.219 120.708 185.532 118.549 185.759 116.416C185.804 115.971 186.282 115.571 186.558 115.151C186.756 115.518 187.085 115.53 187.435 115.477C187.621 116.107 188.387 115.617 188.646 116.103C188.799 116.156 188.951 116.21 189.104 116.263L189.112 116.23L189.116 116.234Z" fill="#8B8787"/>
<path d="M153.194 98.6173C153.289 101.126 152.506 103.066 150.941 104.643C149.417 106.18 147.559 106.822 145.413 106.18C143.23 105.525 142.007 103.906 141.541 101.777C140.767 98.2342 142.526 94.4736 145.668 92.5912C146.484 92.1051 147.291 91.9568 148.231 92.2122C151.542 93.1102 153.157 95.2438 153.194 98.6173ZM144.754 101.945C144.569 102.258 144.626 102.526 144.828 102.79C145.821 104.1 148.02 103.968 148.844 102.547C149.726 101.027 148.832 99.1651 146.904 98.5679C146.468 98.4319 146.047 98.3166 146.22 97.7811C146.431 97.1262 146.847 96.599 147.6 96.4877C148.177 96.4013 148.309 96.7225 148.259 97.2209C148.235 97.4969 148.338 97.7852 148.642 97.7976C148.955 97.8099 149.067 97.4887 149.087 97.2456C149.133 96.7761 149.252 96.2777 148.811 95.8864C148.259 95.4003 147.011 95.5074 146.34 96.117C145.405 96.9697 145.022 98.2301 145.508 98.885C145.714 99.1651 145.994 99.3422 146.328 99.4328C146.579 99.5029 146.834 99.5605 147.077 99.6594C147.917 99.9971 148.445 100.986 148.152 101.727C147.777 102.675 147.036 102.876 146.142 102.58C145.664 102.423 145.22 102.16 144.758 101.945H144.754Z" fill="#3366FB"/>
<path d="M144.754 101.946C145.215 102.16 145.66 102.423 146.138 102.58C147.032 102.872 147.773 102.671 148.148 101.727C148.441 100.99 147.913 99.9973 147.073 99.6596C146.834 99.5607 146.575 99.503 146.323 99.433C145.986 99.3424 145.71 99.1612 145.504 98.8852C145.018 98.2262 145.397 96.9699 146.336 96.1172C147.007 95.5076 148.259 95.4005 148.807 95.8866C149.248 96.2779 149.124 96.7763 149.083 97.2458C149.062 97.4889 148.951 97.8143 148.638 97.7978C148.338 97.7854 148.23 97.4971 148.255 97.2211C148.305 96.7227 148.173 96.4014 147.596 96.4879C146.842 96.5991 146.426 97.1264 146.216 97.7813C146.043 98.3168 146.463 98.4321 146.9 98.568C148.828 99.1653 149.717 101.027 148.84 102.547C148.016 103.968 145.817 104.1 144.824 102.79C144.626 102.526 144.569 102.263 144.75 101.946H144.754Z" fill="#FEFDFD"/>
</g>
<path d="M231.809 83.2905C231.694 87.4301 229.865 90.6512 226.587 93.1103C225.903 93.621 225.264 94.1936 224.609 94.7373C223.419 94.6467 222.381 95.0956 221.372 95.6435C219.938 96.4219 218.592 97.3364 217.241 98.259C214.114 100.401 211.021 102.555 208.311 105.233C207.338 106.196 206.23 107.02 205.197 107.926C204.612 108.437 204.113 108.569 203.475 107.922C202.857 107.292 202.107 106.79 201.391 106.262C197.638 103.486 194.232 100.244 190.142 97.9295C189.161 97.3734 188.276 96.5661 187.056 96.5084C187.003 96.3766 186.949 96.2448 186.896 96.113C187.044 94.519 187.188 92.9208 187.336 91.3267C189.26 91.8787 191.332 92.0434 192.934 93.4563C193.214 93.7034 193.556 93.8558 193.943 93.8599C193.943 94.1606 194.149 94.3212 194.351 94.4901C197.412 97.0686 200.48 99.6348 203.516 102.238C203.936 102.596 204.134 102.386 204.451 102.164C206.593 100.665 208.739 99.1693 210.901 97.6988C213.245 96.1048 215.613 94.5519 217.809 92.7478C219.152 91.7139 220.482 90.6759 221.771 89.5638C223.641 87.9574 225.128 86.1285 225.936 83.7766C226.068 83.3894 226.257 83.0146 226.006 82.6068C226.595 82.4173 227.217 82.2855 227.765 82.0178C228.395 81.713 228.613 81.3258 227.793 80.8727C226.904 80.3825 225.965 79.9212 225.4 79.0026C225.569 78.5949 225.882 78.393 226.311 78.356C227.674 78.8832 229.083 79.0479 230.528 78.8502C230.899 78.8008 231.258 78.7061 231.554 79.0356C231.818 80.4402 231.727 81.8695 231.805 83.2864L231.809 83.2905Z" fill="#3366FB"/>
<path d="M187.06 96.5042C188.28 96.5619 189.165 97.3692 190.146 97.9253C194.236 100.24 197.642 103.482 201.395 106.258C202.111 106.785 202.861 107.292 203.479 107.918C204.117 108.565 204.612 108.437 205.201 107.922C206.234 107.02 207.342 106.192 208.315 105.228C211.021 102.551 214.118 100.397 217.245 98.2548C218.591 97.3321 219.938 96.4177 221.376 95.6392C222.385 95.0914 223.423 94.6383 224.613 94.7331C224.613 94.799 224.622 94.869 224.626 94.9349C224.754 95.8411 224.082 96.1706 223.456 96.5001C219.901 98.3578 216.742 100.825 213.426 103.049C210.757 104.841 208.459 107.107 205.938 109.092C204.171 110.484 203.763 110.476 201.893 109.166C201.831 109.125 201.782 109.067 201.716 109.026C198.577 106.983 196.065 104.149 192.947 102.085C191.657 101.233 190.59 100.067 189.211 99.301C188.461 103.342 188.659 107.308 188.638 111.263C188.638 111.637 188.473 112.177 189.12 112.198C190.179 112.231 191.237 112.206 192.366 112.206C192.061 111.551 191.587 111.394 191.056 111.324C190.669 111.275 190.438 111.073 190.459 110.657C190.479 110.192 190.759 109.99 191.196 110.002C191.439 110.006 191.723 109.899 191.913 110.155C191.9 110.311 191.806 110.328 191.694 110.295C191.361 110.192 191.011 110.258 190.994 110.608C190.974 110.95 191.377 110.859 191.616 110.9C192.152 110.995 192.506 111.357 192.633 111.831C192.753 112.276 192.942 112.42 193.391 112.449C197.972 112.729 202.548 113.034 207.124 113.33C211.7 113.627 216.277 113.936 220.857 114.216C226.22 114.541 231.583 114.859 236.946 115.143C237.864 115.192 238.614 115.452 239.149 116.214C239.182 116.251 239.203 116.296 239.215 116.341C239.29 117.388 238.799 118.075 237.86 118.471C234.643 118.549 231.451 118.117 228.242 117.981C225.557 117.865 222.879 117.598 220.198 117.421C213.455 116.972 206.708 116.539 199.965 116.098C196.201 115.851 192.436 115.604 188.667 115.378C188.263 115.353 187.851 115.439 187.444 115.472C187.093 115.526 186.764 115.513 186.566 115.147C186.566 112.803 186.566 110.459 186.566 108.116C186.603 104.577 186.995 101.043 186.801 97.501C186.854 97.1592 186.698 96.7596 187.065 96.496L187.06 96.5042Z" fill="#103298"/>
<path d="M237.856 118.479C238.799 118.08 239.29 117.392 239.211 116.35C239.491 117.062 239.438 117.795 239.343 118.533C238.841 118.702 238.35 118.492 237.856 118.479Z" fill="#3366FB"/>
<path d="M189.108 116.267C188.955 116.214 188.803 116.16 188.65 116.107C188.832 116.082 189.05 115.95 189.108 116.267Z" fill="#A6A6A6"/>
<path d="M193.943 93.8557C193.556 93.8516 193.214 93.6992 192.934 93.4521C191.332 92.0393 189.26 91.8745 187.336 91.3225C187.308 90.1486 187.275 88.9747 187.246 87.8008C187.365 86.2603 187.481 84.7156 187.596 83.1751C188.045 82.895 188.465 83.0227 188.869 83.2822C189.009 84.4314 188.539 85.3953 187.958 86.3262C187.777 86.6186 187.617 86.9358 187.855 87.2571C188.086 87.5619 188.444 87.5413 188.782 87.496C189.223 87.4383 189.668 87.3889 190.1 87.29C191.525 86.9646 193.078 87.0305 194.153 85.7083C194.574 85.1935 194.932 85.5889 195.278 86.0461C196.209 87.2818 197.465 87.9861 199.047 88.0315C199.508 88.674 199.15 89.1807 198.726 89.609C197.683 90.6676 196.604 91.6891 195.542 92.7271C194.936 93.0031 194.726 93.8393 193.939 93.8557H193.943Z" fill="#103298"/>
<path d="M187.95 72.9436C188.482 73.0836 189.009 73.2649 189.569 73.1331C190.871 73.0136 192.123 72.68 193.359 72.2681C193.577 72.4246 193.56 72.6511 193.54 72.8777C192.312 73.5779 190.97 73.8251 189.581 73.891C188.984 73.8662 188.387 73.8456 187.794 73.8209C187.769 73.5161 187.658 73.1948 187.95 72.9436Z" fill="#C07944"/>
<path d="M186.797 97.5054C186.991 101.052 186.599 104.582 186.562 108.12C186.311 106.089 186.323 104.046 186.537 102.032C186.698 100.52 186.476 99.0006 186.797 97.5054Z" fill="#3366FB"/>
<path d="M187.246 87.7968C187.275 88.9708 187.308 90.1447 187.336 91.3186C187.188 92.9168 187.044 94.5108 186.896 96.1049C186.731 93.3204 187.028 90.5607 187.246 87.7927V87.7968Z" fill="#F8DABD"/>
<path d="M178.538 239.759C177.06 239.595 175.589 240.151 174.11 239.801C173.863 239.743 173.583 239.801 173.402 239.553C175.115 239.57 176.837 239.422 178.538 239.759Z" fill="#844E25"/>
<path d="M178.674 239.937C178.637 239.875 178.6 239.817 178.563 239.755H178.649C178.691 239.813 178.699 239.875 178.674 239.941V239.937Z" fill="#844E25"/>
<path d="M239.15 116.218C238.61 115.456 237.86 115.197 236.946 115.147C231.583 114.859 226.22 114.546 220.857 114.22C216.277 113.94 211.701 113.631 207.124 113.335C202.548 113.038 197.968 112.733 193.391 112.453C192.943 112.424 192.753 112.28 192.634 111.835C192.506 111.362 192.152 110.999 191.616 110.904C191.373 110.859 190.974 110.95 190.994 110.612C191.015 110.262 191.365 110.196 191.694 110.299C191.806 110.332 191.9 110.32 191.913 110.159C191.723 109.904 191.439 110.015 191.196 110.007C190.759 109.994 190.479 110.196 190.459 110.661C190.438 111.077 190.669 111.279 191.056 111.329C191.587 111.399 192.061 111.555 192.366 112.21C191.233 112.21 190.175 112.235 189.12 112.202C188.473 112.181 188.638 111.642 188.638 111.267C188.659 107.313 188.461 103.346 189.211 99.3054C190.595 100.071 191.662 101.237 192.947 102.09C196.065 104.158 198.577 106.987 201.716 109.03C201.778 109.072 201.831 109.125 201.893 109.17C203.763 110.484 204.171 110.488 205.938 109.096C208.459 107.111 210.753 104.85 213.426 103.054C216.742 100.829 219.901 98.3621 223.456 96.5044C224.082 96.179 224.75 95.8454 224.626 94.9392C228.041 96.7145 231.365 98.6504 234.367 101.056C236.707 102.926 238.009 105.459 238.334 108.458C238.614 111.045 238.878 113.631 239.15 116.218Z" fill="#3366FB"/>
<path d="M225.816 162.536C225.726 162.709 225.726 162.944 225.479 163.002C225.466 162.754 225.557 162.586 225.816 162.536Z" fill="#FE575C"/>
<path d="M225.487 162.989C225.483 163.142 225.47 163.286 225.252 163.228C225.33 163.15 225.408 163.072 225.487 162.989Z" fill="#FE575C"/>
<path d="M164.595 64.6274 C 164.818 64.2814 165.329 64.2361 165.46 63.7954 C 164.06 63.1322 163.982 62.4608 165.259 61.4558 C 165.947 60.9121 166.503 60.3024 166.869 59.3468 C 166.26 59.3139 165.72 59.2768 165.18 59.2645 C 164.839 59.2562 164.608 59.1285 164.513 58.7908 C 164.427 58.4942 164.575 58.3047 164.806 58.1358 C 167.611 56.1093 170 53.6667 172.142 50.7587 C 170.482 50.5733 168.855 50.598 167.261 50.3015 C 165.934 50.0543 164.653 49.6836 163.364 49.317 C 162.923 49.1935 162.573 48.9875 162.565 48.3985 C 162.557 47.8136 162.936 47.6694 163.314 47.4182 C 166.861 45.0703 170.453 42.7843 173.69 40.004 C 174.378 39.4108 174.687 38.587 174.848 37.7508 C 175.91 32.252 178.785 27.7375 182.414 23.6144 C 184.692 21.0277 187.052 18.5398 190.022 16.7233 C 191.011 16.1178 192.04 15.607 193.144 15.2446 C 193.033 15.8212 193.326 16.1013 193.816 16.3608 C 195.035 16.9993 196.23 17.683 197.416 18.3833 C 200.163 20.0103 203.03 20.5828 206.029 19.1906 C 207.932 18.3091 209.513 16.9292 211.083 15.5576 C 211.849 14.8862 212.903 14.4702 213.192 13.3457 C 216.577 14.4784 219.44 16.4597 222.146 18.7375 C 225.211 21.3201 227.246 24.6565 229.256 28.03 C 230.784 30.592 232.193 33.2364 233.869 35.6996 C 235.57 38.1957 237.98 40.004 240.501 41.6351 C 240.752 41.7957 241.028 41.9193 241.271 42.0882 C 241.708 42.393 242.42 42.5083 242.305 43.2415 C 242.198 43.9417 241.493 43.9623 240.995 44.123 C 239.553 44.5843 238.095 45.0003 236.402 45.161 C 237.329 46.1166 238.297 46.7344 239.277 47.3152 C 240.814 48.2296 242.371 49.1234 244.072 49.7207 C 244.578 49.8978 244.986 50.1079 245.015 50.7958 C 245.044 51.4177 244.797 51.7061 244.323 52.0397 C 242.832 53.0983 241.164 53.6997 239.36 54.1528 C 239.553 54.8283 240.167 55.0425 240.6 55.3926 C 242.527 56.9743 244.158 58.9226 246.432 60.0841 C 246.951 60.3477 246.885 60.6773 246.453 61.1262 C 244.517 63.1446 242.115 63.9313 239.393 63.9601 C 239.557 59.8576 237.992 56.7848 234.079 55.1537 C 233.231 54.7994 232.333 54.301 231.402 54.6388 C 230.183 55.0795 228.947 55.1702 227.682 55.2072 C 225.59 55.2649 223.501 55.3679 221.141 55.4626 C 222.682 56.4553 223.732 57.5468 224.593 58.8196 C 224.91 59.5651 225.227 60.3066 225.545 61.0521 C 225.635 61.2622 225.726 61.5217 225.491 61.6452 C 225.145 61.8224 225.063 61.4846 224.96 61.2622 C 224.593 60.4672 224.416 59.5693 223.703 58.9638 C 222.69 57.1967 221.43 55.6438 219.259 55.4708 C 217.809 55.3555 216.371 55.2525 214.946 54.9683 C 213.002 54.5853 211.523 55.4544 210.164 56.6859 C 210.028 56.7189 209.888 56.7477 209.752 56.7807 C 209.6 56.7024 209.443 56.6242 209.291 56.5459 C 209.311 56.48 209.328 56.41 209.344 56.3441 C 210.374 55.5326 211.528 54.9436 212.85 54.3958 C 210.16 53.1024 208.063 51.2283 206.321 48.9546 C 205.024 47.2616 203.94 45.5152 203.85 43.2209 C 203.796 41.8781 203.738 40.5641 203.903 39.2337 C 203.977 38.62 203.854 38.1133 203.038 38.1257 C 200.04 38.1751 197.053 37.9362 194.055 38.5458 C 189.878 39.3943 186.084 40.8113 182.983 43.8923 C 179.65 47.204 178.448 51.3271 178.139 55.8086 C 178.073 56.7601 177.76 57.0361 176.899 57.242 C 174.147 57.9011 171.919 59.318 170.552 61.9171 C 170.206 62.5803 170.14 63.3258 169.765 63.9601 C 169.283 63.6718 168.809 63.7171 168.278 63.886 C 167.083 64.2608 165.856 64.5244 164.6 64.6192 L 164.595 64.6274 Z Z" fill="#C07944"/>
<path d="M224.597 58.8236C223.732 57.5508 222.682 56.4593 221.141 55.4666C223.502 55.3719 225.59 55.2689 227.682 55.2112C228.951 55.1783 230.183 55.0877 231.402 54.6428C232.329 54.305 233.231 54.8076 234.079 55.1577C237.988 56.7888 239.553 59.8616 239.393 63.9641C239.714 68.8822 236.476 71.6543 231.678 72.4534C231.274 72.5193 230.739 72.3134 230.574 72.9353C229.21 71.9838 228.259 72.0415 226.879 73.2154C225.091 74.7395 223.238 76.1729 221.364 77.5898C219.008 79.3651 216.689 81.231 213.739 81.8859C211.952 82.2814 211.33 83.5747 211.729 85.3006C211.655 85.3088 211.565 85.2882 211.511 85.3253C208.801 87.1706 205.802 87.7473 202.589 87.3024C201.337 87.1294 200.077 86.9564 199.002 86.1944C198.722 86.0585 198.759 85.8114 198.783 85.5683C199.562 84.4974 199.438 83.9496 198.301 83.5088C197.642 83.2535 196.979 83.0146 196.308 82.7962C193.709 81.9436 191.229 80.8891 189.165 79.0109C188.778 78.6608 188.399 78.1747 187.777 78.1459C187.786 76.7042 187.794 75.2626 187.802 73.8209C188.399 73.8456 188.997 73.8662 189.594 73.8909C189.66 75.2667 189.738 76.6424 189.783 78.0182C189.8 78.463 190.055 78.6814 190.385 78.8832C194.145 81.2145 197.935 83.3523 202.647 82.8539C204.117 82.6974 205.629 82.7303 207.1 82.5244C213.764 81.6017 219.317 78.2901 224.498 74.2411C225.466 73.4873 226.348 72.6182 227.213 71.7408C228.461 70.4763 228.461 68.7998 228.683 67.1687C229.029 64.6273 229.532 62.1106 229.935 59.5774C230.17 58.1028 229.968 57.9545 228.469 58.2881C227.196 58.5723 225.928 58.8936 224.605 58.8195L224.597 58.8236ZM232.036 63.5028C232.485 63.9312 232.868 64.2813 233.235 64.6479C233.424 64.8374 233.605 65.0515 233.379 65.3234C233.181 65.5623 232.918 65.5705 232.675 65.4181C232.329 65.204 232.02 64.9156 231.653 64.7385C231.134 64.4831 230.677 64.2277 230.607 65.2493C230.483 66.9875 230.244 68.7257 229.894 70.431C229.725 71.2548 229.919 71.3825 230.66 71.3742C233.309 71.3536 236.691 69.1335 237.683 66.6991C238.659 64.3019 238.66 61.9293 237.436 59.6103C237.226 59.2149 237.053 58.6465 236.369 58.9389C234.969 59.5362 233.568 59.2561 232.226 58.7989C231.435 58.5311 231.196 58.8442 231.134 59.4785C231.056 60.2941 231.142 61.1302 231.002 61.9335C230.858 62.7531 231.167 62.7037 231.682 62.4154C232.691 61.8511 233.774 61.6698 234.915 61.7275C235.307 61.7481 235.731 61.7687 235.751 62.2547C235.772 62.7449 235.352 62.782 234.961 62.8438C234.013 62.9879 233.041 63.025 232.032 63.4987L232.036 63.5028Z" fill="#E4A270"/>
<path d="M213.188 13.3456C212.895 14.4742 211.845 14.8902 211.079 15.5575C209.513 16.925 207.928 18.309 206.025 19.1905C203.026 20.5786 200.159 20.0101 197.412 18.3831C196.23 17.6829 195.031 16.9991 193.812 16.3607C193.322 16.1053 193.025 15.8211 193.14 15.2444C195.476 13.8728 197.984 13.3991 200.658 13.7781C200.74 13.7904 200.826 13.8028 200.909 13.811C200.868 13.7575 200.826 13.7039 200.785 13.6504C199.71 11.9039 198.503 10.1698 198.61 8.00734C198.734 5.54829 199.01 3.09748 199.224 0.64667C199.253 0.321268 199.418 0.0494134 199.751 0.00822325C200.2 -0.0494429 200.295 0.300673 200.365 0.64667C200.942 3.52998 201.584 6.40505 202.062 9.30483C202.33 10.9277 202.775 12.4724 203.339 14.1282C206.465 11.3726 209.793 11.8751 213.183 13.3456H213.188Z" fill="#844E25"/>
<path d="M211.729 85.3046C211.33 83.5788 211.956 82.2854 213.739 81.89C216.689 81.2351 219.008 79.3691 221.364 77.5939C223.238 76.181 225.091 74.7435 226.879 73.2195C228.259 72.0455 229.21 71.9879 230.574 72.9394C230.685 73.1371 230.8 73.3348 230.912 73.5325C230.66 74.1298 230.248 74.6076 229.783 75.0483C228.621 76.1481 227.468 77.2602 226.315 78.3641C225.882 78.4012 225.569 78.603 225.404 79.0108C222.286 81.1238 218.962 82.825 215.428 84.1307C215.193 84.2172 214.802 84.2831 215.049 84.6126C215.395 85.0699 215.111 85.9472 216.042 86.0337C216.425 86.0708 216.507 86.4662 216.458 86.8328C215.391 87.0635 214.267 86.5239 213.225 87.0882C211.96 87.1417 211.952 86.1326 211.725 85.3088L211.729 85.3046Z" fill="#844E25"/>
<path d="M226.315 78.3602C227.472 77.2563 228.625 76.1483 229.783 75.0444C230.248 74.6036 230.656 74.1258 230.912 73.5286C232.127 74.3153 233.371 75.0608 234.549 75.9011C235.389 76.5025 235.335 77.1657 234.495 77.7547C233.605 78.3766 232.646 78.8627 231.558 79.0398C231.266 78.7103 230.907 78.805 230.533 78.8545C229.087 79.0522 227.678 78.8833 226.315 78.3602Z" fill="#C07944"/>
<path d="M164.595 64.6273C165.852 64.5325 167.079 64.2689 168.274 63.8941C168.805 63.7252 169.279 63.6799 169.761 63.9682C169.851 64.7179 169.946 65.4675 170.037 66.2172C167.952 66.6991 165.835 66.8804 163.702 66.9339C162.787 65.9412 162.96 65.4922 164.595 64.6273Z" fill="#844E25"/>
<path d="M170.037 66.2132C169.946 65.4636 169.851 64.7139 169.761 63.9642C170.136 63.3299 170.197 62.5802 170.547 61.9212C171.915 59.3221 174.143 57.9052 176.895 57.2461C177.756 57.0402 178.069 56.7642 178.135 55.8127C178.444 51.3312 179.646 47.2081 182.979 43.8964C186.08 40.8154 189.874 39.4026 194.051 38.5499C197.049 37.9403 200.035 38.1833 203.034 38.1298C203.85 38.1174 203.973 38.62 203.899 39.2378C203.734 40.5682 203.792 41.8822 203.846 43.225C203.94 45.5193 205.019 47.2658 206.317 48.9587C208.059 51.2324 210.16 53.1065 212.846 54.3999C211.523 54.9477 210.37 55.5409 209.34 56.3482C206.914 54.7418 204.838 52.7811 203.364 50.2562C201.947 47.8342 201.094 45.2392 201.201 42.3889C201.214 41.9975 201.288 41.4209 200.641 41.5733C199.788 41.7751 198.927 41.6557 198.083 41.7834C194.359 42.3435 190.85 43.5257 187.633 45.5069C183.329 48.1555 179.902 51.4589 179.313 56.8425C179.14 58.4365 179.152 60.0141 179.696 61.5505C179.725 61.7853 179.646 62.0819 180.021 62.123C180.005 63.5276 180.005 63.4905 181.455 63.5276C183.584 63.5812 185.685 63.3134 187.79 63.0869C188.02 63.2311 187.959 63.4823 188.016 63.6883C188.3 64.3967 188.869 64.7386 189.577 64.9034C189.272 65.5336 190.372 65.5954 190.08 66.3244C189.202 68.5281 189.631 70.8595 189.573 73.1455C189.009 73.2773 188.486 73.092 187.954 72.956C187.926 71.8398 188.033 70.7359 187.81 69.6114C187.654 68.8247 187.678 67.9803 187.847 67.1606C188.21 65.3647 187.716 64.7345 185.887 64.6521C184.243 64.578 182.624 64.8251 181.002 65.0434C178.868 65.3235 176.726 65.5501 174.584 65.756C173.068 65.9043 171.573 66.2585 170.041 66.2297L170.037 66.2132ZM172.912 64.8581C174.036 65.0105 175.309 64.5162 176.619 64.6233C176.973 64.6521 177.191 64.4832 177.191 64.1043C177.2 62.3331 177.294 60.5702 177.64 58.8237C177.764 58.2017 177.397 58.0246 176.833 58.21C174.448 58.9926 172.463 60.2777 171.359 62.6379C170.35 64.7922 170.403 64.8704 172.916 64.8581H172.912Z" fill="#E4A270"/>
<path d="M188.873 83.2822C188.469 83.0227 188.049 82.895 187.6 83.1751C187.485 81.4945 187.398 79.814 187.773 78.1499C188.395 78.1787 188.774 78.6648 189.161 79.0149C191.225 80.8932 193.709 81.9476 196.304 82.8003C196.975 83.0186 197.642 83.2575 198.297 83.5129C199.434 83.9577 199.558 84.5055 198.779 85.5724C198.198 85.4859 197.614 85.5106 197.02 85.3788C194.932 84.9092 193.124 83.7888 191.18 82.9856C190.9 82.8703 190.504 82.4584 190.319 82.8126C189.944 83.5211 189.367 83.1998 188.865 83.2822H188.873Z" fill="#844E25"/>
<path d="M 189.586 73.8909 C 190.974 73.825 192.317 73.5778 193.544 72.8776 C 195.752 71.8272 197.461 70.3032 198.289 67.9307 C 199.306 66.213 199.29 64.31 199.142 62.4277 C 199.084 61.6862 199.344 61.6203 199.912 61.4515 C 201.395 61.0066 202.861 61.5586 204.328 61.4267 C 204.69 61.5174 205.044 61.6533 205.411 61.6904 C 205.959 61.7439 206.025 62.1105 205.913 62.4853 C 205.53 63.754 205.736 64.9938 205.992 66.2377 C 207.149 70.884 210.181 73.5119 214.835 74.2204 C 217.109 74.5664 219.28 73.9609 221.228 72.717 C 221.533 72.5234 222.068 72.2062 221.751 71.7819 C 221.496 71.4359 221.187 71.9673 220.935 72.1156 C 217.405 74.1421 213.925 74.1298 210.51 71.8849 C 208.455 70.5339 207.281 68.5279 206.552 66.2295 C 206.581 65.0927 206.259 63.9847 206.453 62.8107 C 206.857 60.3929 208.039 58.4569 209.744 56.7764 C 209.88 56.7434 210.02 56.7146 210.156 56.6816 C 211.017 57.2913 211.935 57.7773 213.002 57.9132 C 219.242 59.3343 221.475 59.3466 223.699 58.9595 C 224.412 59.5649 224.585 60.4629 224.951 61.2579 C 225.054 61.4803 225.137 61.818 225.483 61.6409 C 225.718 61.5215 225.627 61.262 225.536 61.0478 C 225.219 60.3023 224.902 59.5608 224.585 58.8153 C 225.907 58.8935 227.176 58.5723 228.448 58.2839 C 229.948 57.9462 230.154 58.0986 229.915 59.5732 C 229.511 62.1064 229.009 64.6231 228.663 67.1645 C 228.44 68.7915 228.44 70.468 227.192 71.7366 C 226.331 72.614 225.446 73.4831 224.478 74.2369 C 219.296 78.2859 213.748 81.6017 207.079 82.5202 C 205.609 82.722 204.097 82.6932 202.626 82.8497 C 197.914 83.3481 194.121 81.2104 190.364 78.879 C 190.035 78.673 189.775 78.4589 189.763 78.014 C 189.717 76.6383 189.639 75.2625 189.573 73.8868 L 189.586 73.8909 Z M 203.038 63.3133 C 202.12 63.3009 200.983 64.4377 201.008 65.3522 C 201.028 66.1595 202.004 66.8432 203.182 66.8721 C 204.192 66.8968 205.258 65.9577 205.242 65.0556 C 205.23 64.343 203.944 63.3256 203.038 63.3133 Z Z M 196.621 73.8291 Z M 215.577 66.8309 C 215.469 66.2789 215.185 66.0895 214.695 66.3407 C 213.805 66.8021 213.307 67.5476 213.146 68.5279 C 213.093 68.8451 213.167 69.1375 213.484 69.2817 C 213.777 69.4135 214.085 69.3929 214.312 69.154 C 214.938 68.4867 215.156 67.597 215.577 66.8309 Z M 216.709 68.3755 C 216.693 68.7421 216.664 69.1005 217.039 69.2693 C 217.43 69.4465 217.657 69.1993 217.842 68.8904 C 218.011 68.6062 218.242 68.3426 218.345 68.0336 C 218.518 67.5064 219.111 66.8144 218.493 66.4355 C 217.797 66.0071 217.607 66.938 217.249 67.3293 C 216.973 67.63 216.775 67.9883 216.713 68.3714 L 216.709 68.3755 Z M 212.401 66.9215 C 212.36 66.6702 212.195 66.3407 211.762 66.2913 C 211.35 66.246 210.44 67.4899 210.42 68.0748 C 210.403 68.4908 210.518 68.8204 210.992 68.8863 C 211.474 68.9522 212.356 67.8112 212.401 66.9215 Z Z" fill="#F8DABD"/>
<path d="M179.696 61.5421 C 179.152 60.0057 179.14 58.4281 179.313 56.834 C 179.898 51.4505 183.329 48.147 187.633 45.4985 C 190.85 43.5173 194.36 42.3392 198.083 41.7749 C 198.928 41.6472 199.788 41.7667 200.641 41.5649 C 201.288 41.4124 201.218 41.9891 201.201 42.3804 C 201.098 45.2308 201.951 47.8299 203.364 50.2477 C 204.838 52.7727 206.914 54.7333 209.34 56.3397 C 209.324 56.4056 209.303 56.4757 209.287 56.5416 C 208.311 57.2459 207.404 58.0944 207.026 59.2107 C 206.548 60.607 205.86 61.299 204.352 60.8295 C 202.902 60.397 201.395 60.2652 199.978 60.7224 C 198.936 61.056 198.697 60.6729 198.355 59.8533 C 196.699 55.8825 193.025 53.8848 189.26 53.9219 C 184.63 53.9672 180.676 57.1141 179.692 61.5379 L 179.696 61.5421 Z M 191.575 48.2418 Z" fill="#F8DABD"/>
<path d="M 213.006 57.9214 C 211.939 57.7855 211.025 57.2995 210.16 56.6899 C 211.519 55.4583 213.002 54.5892 214.942 54.9722 C 216.367 55.2523 217.805 55.3594 219.255 55.4747 C 221.425 55.6477 222.69 57.2006 223.699 58.9677 C 221.475 59.3549 219.242 59.3425 217.01 59.0418 C 216.948 59.0336 216.886 59.0253 216.824 59.013 L 213.006 57.9214 Z" fill="#E4A270"/>
<path class="ds-call-to-action__eye-brow" d="M215.984 50.2603C214.72 50.2355 213.55 49.3788 213.608 48.5138C213.673 47.4428 214.86 46.409 215.976 46.4419C217.076 46.4749 218.526 47.793 218.493 48.7321C218.46 49.6259 217.381 50.285 215.984 50.2561V50.2603Z" fill="#844E25"/>
<path d="M204.352 60.8338C205.86 61.3075 206.548 60.6155 207.025 59.215C207.408 58.0988 208.315 57.2502 209.287 56.5459C209.439 56.6242 209.596 56.7024 209.748 56.7807C208.043 58.4612 206.861 60.3972 206.457 62.815C206.259 63.9848 206.581 65.0928 206.556 66.2338C206.37 66.2338 206.181 66.2338 205.996 66.2338C205.736 64.9899 205.534 63.7459 205.917 62.4814C206.029 62.1107 205.963 61.74 205.415 61.6864C205.048 61.6494 204.69 61.5134 204.332 61.4228C204.34 61.2251 204.348 61.0274 204.356 60.8297L204.352 60.8338Z" fill="#E4A270"/>
<path d="M193.943 93.8558C194.73 93.8393 194.94 93.0032 195.546 92.7272C198.116 94.5066 200.278 96.7803 202.779 98.6503C204.41 99.8737 203.866 100.026 205.625 98.6833C207.989 96.8791 210.304 95.0215 212.845 93.4562C213.912 92.7972 215.008 92.1382 215.861 91.1743C216.561 91.6398 216.721 92.7725 217.813 92.7437C215.618 94.5437 213.249 96.1006 210.905 97.6947C208.743 99.1652 206.597 100.66 204.455 102.16C204.134 102.382 203.94 102.592 203.52 102.234C200.48 99.6306 197.416 97.0645 194.355 94.486C194.153 94.3171 193.943 94.1565 193.947 93.8558H193.943Z" fill="#E4A270"/>
<path d="M226.01 82.6068C224.758 82.2855 223.51 81.9601 222.254 81.6512C221.986 81.5853 221.739 81.6842 221.57 81.9313C221.364 82.2361 221.463 82.508 221.677 82.7469C222.052 83.1629 222.468 83.5418 222.966 83.8137C223.563 84.1432 223.522 84.4727 223.028 84.9093C221.133 86.5775 218.901 87.0471 216.458 86.8247C216.507 86.4581 216.425 86.0627 216.042 86.0256C215.111 85.9391 215.395 85.0617 215.049 84.6045C214.802 84.275 215.189 84.2091 215.428 84.1226C218.958 82.821 222.286 81.1157 225.405 79.0027C225.969 79.9212 226.904 80.3826 227.798 80.8727C228.617 81.3217 228.399 81.7089 227.769 82.0178C227.217 82.2855 226.599 82.4173 226.01 82.6068Z" fill="#C07944"/>
<path d="M213.229 87.0841C213.101 87.6773 213.406 88.0397 213.813 88.431C214.646 89.226 215.552 89.988 215.861 91.1784C215.008 92.1382 213.912 92.8013 212.846 93.4604C210.304 95.0256 207.993 96.8833 205.625 98.6874C203.866 100.03 204.414 99.8778 202.779 98.6544C200.283 96.7844 198.116 94.5107 195.546 92.7313C196.608 91.6933 197.688 90.6718 198.73 89.6132C199.154 89.1807 199.512 88.6741 199.051 88.0356C199.306 87.4178 198.824 86.8205 198.997 86.2027C200.072 86.9606 201.333 87.1377 202.585 87.3107C205.798 87.7555 208.797 87.1789 211.507 85.3336C211.56 85.2965 211.651 85.3171 211.725 85.3088C211.952 86.1326 211.956 87.1418 213.224 87.0882L213.229 87.0841Z" fill="#F8DABD"/>
<path d="M232.032 63.5027C233.041 63.0249 234.013 62.9919 234.96 62.8478C235.352 62.786 235.768 62.7489 235.751 62.2587C235.731 61.7686 235.306 61.748 234.915 61.7315C233.774 61.6738 232.695 61.8551 231.682 62.4194C231.167 62.7077 230.862 62.7571 231.002 61.9375C231.142 61.1343 231.056 60.2981 231.134 59.4825C231.196 58.8441 231.435 58.531 232.225 58.8029C233.568 59.2601 234.969 59.5402 236.369 58.9429C237.053 58.6505 237.226 59.2189 237.436 59.6143C238.659 61.9333 238.655 64.3059 237.683 66.7032C236.695 69.1375 233.313 71.3618 230.66 71.3782C229.923 71.3824 229.729 71.2588 229.894 70.435C230.24 68.7297 230.483 66.9915 230.607 65.2533C230.677 64.2318 231.134 64.4871 231.653 64.7425C232.015 64.9196 232.324 65.208 232.674 65.4221C232.922 65.5746 233.181 65.5622 233.379 65.3274C233.605 65.0514 233.428 64.8373 233.235 64.6519C232.864 64.2894 232.485 63.9352 232.036 63.5068L232.032 63.5027Z" fill="#F8DABD"/>
<path d="M198.998 86.1985C198.825 86.8164 199.311 87.4136 199.051 88.0315C197.469 87.9862 196.213 87.2818 195.278 86.0461C194.932 85.5889 194.574 85.1935 194.154 85.7083C193.079 87.0306 191.526 86.9646 190.1 87.29C189.668 87.3889 189.223 87.4342 188.782 87.496C188.445 87.5413 188.086 87.5619 187.856 87.2571C187.613 86.9358 187.773 86.6186 187.959 86.3262C188.539 85.3953 189.013 84.4315 188.869 83.2822C189.371 83.1999 189.948 83.5253 190.323 82.8127C190.508 82.4584 190.908 82.8703 191.184 82.9857C193.128 83.7889 194.936 84.9093 197.025 85.3788C197.614 85.5106 198.198 85.4818 198.783 85.5724C198.759 85.8154 198.722 86.0626 199.002 86.1985H198.998Z" fill="#C07944"/>
<path d="M 193.359 72.268 C 192.123 72.6799 190.871 73.0135 189.569 73.133 C 189.627 70.851 189.198 68.5197 190.076 66.3119 C 190.368 65.5828 189.268 65.521 189.569 64.8908 C 190 65 188 64 187.786 63.0702 C 185.681 63.2968 183.576 63.5645 181.45 63.511 C 180.005 63.4739 180.001 63.5109 180.017 62.1105 C 180.141 61.6821 180.24 61.2455 180.388 60.8254 C 181.809 56.7269 185.557 54.2761 190.022 54.515 C 193.861 54.721 197.412 57.872 198.347 61.8345 C 198.829 63.8775 198.446 65.8258 197.848 67.7659 C 196.678 69.5906 195.29 71.197 193.359 72.2639 V 72.268 Z M 190.895 67.4611 C 190.871 67.9348 190.904 68.4414 191.369 68.3837 C 192.292 68.2766 192.275 67.3169 192.592 66.6949 C 192.778 66.3325 192.477 66.003 192.09 66.0153 C 191.122 66.0441 191.196 66.9503 190.891 67.457 L 190.895 67.4611 Z" fill="#F8DABD"/>
<path d="M172.908 64.858C170.395 64.8703 170.342 64.7921 171.351 62.6378C172.455 60.2818 174.44 58.9925 176.825 58.2099C177.389 58.0245 177.756 58.2017 177.632 58.8236C177.286 60.5701 177.192 62.333 177.183 64.1042C177.183 64.479 176.961 64.6479 176.611 64.6232C175.301 64.5202 174.032 65.0145 172.904 64.858H172.908Z" fill="#F8DABD"/>
<path d="M197.852 67.77C198.45 65.83 198.833 63.8858 198.351 61.8387C197.416 57.8762 193.861 54.7251 190.026 54.5192C185.565 54.2803 181.813 56.7311 180.392 60.8295C180.248 61.2496 180.145 61.6863 180.021 62.1146C179.646 62.0776 179.725 61.7769 179.696 61.5421C180.684 57.1142 184.634 53.9714 189.264 53.926C193.029 53.889 196.703 55.8867 198.359 59.8574C198.701 60.673 198.936 61.0602 199.982 60.7265C201.399 60.2734 202.906 60.4053 204.356 60.8336C204.348 61.0313 204.34 61.2291 204.332 61.4268C202.861 61.5586 201.399 61.0066 199.916 61.4515C199.343 61.6204 199.088 61.6863 199.146 62.4277C199.294 64.3101 199.311 66.2131 198.293 67.9307C198.186 67.77 198.025 67.7577 197.857 67.7659L197.852 67.77Z" fill="#C07944"/>
<g class="ds-call-to-action__eye">
<path d="M192.036 59.2478C192.428 60.6689 192.815 62.0899 192.016 63.5069C191.612 63.0085 191.612 62.2506 190.883 61.9458C189.479 61.3609 188.626 61.8551 188.012 63.6799C187.954 63.4698 188.016 63.2185 187.786 63.0785C187.683 61.851 187.827 60.6524 188.247 59.4908C189.569 60.3682 190.821 60.1458 192.032 59.2519L192.036 59.2478Z" fill="#844E25"/>
<path d="M188.016 63.68C188.626 61.8553 189.482 61.361 190.887 61.9459C191.616 62.2507 191.616 63.0086 192.02 63.507C191.439 64.3802 190.78 65.1175 189.577 64.8951C188.869 64.7303 188.3 64.3884 188.016 63.68Z" fill="#8B8787"/>
<path d="M192.036 59.248C190.825 60.1418 189.573 60.3642 188.251 59.4869C188.173 59.075 188.243 58.6878 188.395 58.2924C188.832 57.1638 189.684 56.4182 190.574 56.5789C191.719 56.7848 191.76 57.8228 191.983 58.696C192.028 58.8732 192.02 59.0667 192.036 59.248Z" fill="#380606"/>
</g>
<path d="M197.852 67.7702C198.021 67.762 198.182 67.7743 198.289 67.935C197.461 70.3075 195.748 71.8316 193.544 72.8778C193.565 72.6512 193.581 72.4247 193.363 72.2682C195.294 71.2013 196.683 69.5949 197.852 67.7702Z" fill="#E4A270"/>
<path d="M205.992 66.2378C206.177 66.2378 206.366 66.2378 206.552 66.2378C207.285 68.5362 208.455 70.538 210.51 71.8932C213.925 74.1381 217.405 74.1504 220.935 72.1239C221.187 71.9797 221.496 71.4483 221.751 71.7902C222.068 72.2145 221.528 72.5316 221.228 72.7252C219.275 73.9692 217.109 74.5747 214.835 74.2287C210.181 73.5202 207.145 70.8923 205.992 66.246V66.2378Z" fill="#C07944"/>
<path d="M203.034 63.3133C203.94 63.3257 205.229 64.3431 205.238 65.0557C205.25 65.9577 204.187 66.8969 203.178 66.8722C202 66.8433 201.024 66.1596 201.003 65.3522C200.979 64.4419 202.115 63.301 203.034 63.3133Z" fill="#E4A270"/>
<g class="ds-call-to-action__eye">
<path d="M216.833 59.009C216.895 59.0214 216.956 59.0296 217.018 59.0378C217.327 60.4548 217.109 61.8552 216.919 63.2598C215.276 61.1797 214.88 61.0973 212.611 62.3413C212.582 62.3578 212.537 62.3454 212.5 62.3495C212.479 61.3774 212.228 60.3848 212.751 59.458C214.135 60.1829 215.449 60.2983 216.623 59.042C216.66 59.0008 216.763 59.0172 216.833 59.0049V59.009Z" fill="#844E25"/>
<path d="M216.833 59.0091C216.763 59.0214 216.66 59.0008 216.623 59.0461C215.449 60.3066 214.135 60.1912 212.751 59.4622C212.652 58.9185 212.928 58.4365 213.01 57.9216C214.518 56.3853 215.371 56.2946 216.404 57.5633C216.75 57.9876 216.899 58.4654 216.833 59.0091Z" fill="#380606"/>
<path d="M212.495 62.3494C212.533 62.3494 212.578 62.3577 212.607 62.3412C214.876 61.0972 215.268 61.1796 216.915 63.2597C216.532 64.2195 215.502 64.9362 214.637 64.8455C213.505 64.7261 212.78 63.8817 212.495 62.3494Z" fill="#8B8787"/>
</g>
<path class="ds-call-to-action__smile" d="M205.728 76.0781C205.473 76.0987 205.188 75.9916 205.102 75.6579C204.991 75.2419 205.258 75.0524 205.629 74.9659C206.898 74.6652 208.129 74.2822 209.233 73.5531C209.554 73.343 209.987 73.2524 210.238 73.6314C210.539 74.0886 210.073 74.2657 209.798 74.4881C208.632 75.4273 207.215 75.7485 205.732 76.0822L205.728 76.0781Z" fill="#E4A270"/>
<path class="ds-call-to-action__smile-left" d="M196.621 73.8291C197.799 74.2286 199.034 74.6035 200.229 75.0813C200.645 75.246 200.546 75.625 200.142 75.8145C199.586 76.0781 196.365 75.0483 195.999 74.5129C195.883 74.344 195.838 74.1586 195.958 73.998C196.106 73.8003 196.357 73.8415 196.625 73.8291H196.621Z" fill="#E4A270"/>
<path d="M215.576 66.8268C215.156 67.5888 214.938 68.4785 214.312 69.1499C214.085 69.3929 213.776 69.4094 213.484 69.2776C213.167 69.1334 213.093 68.841 213.146 68.5238C213.307 67.5435 213.809 66.798 214.695 66.3366C215.185 66.0854 215.465 66.2707 215.576 66.8268Z" fill="#E4A270"/>
<path d="M216.709 68.3756C216.771 67.9884 216.969 67.6341 217.245 67.3334C217.607 66.9421 217.797 66.0112 218.489 66.4396C219.106 66.8186 218.513 67.5106 218.34 68.0378C218.241 68.3467 218.011 68.6103 217.838 68.8946C217.657 69.2035 217.426 69.4506 217.035 69.2735C216.66 69.1046 216.689 68.7463 216.705 68.3797L216.709 68.3756Z" fill="#E4A270"/>
<path d="M212.401 66.9217C212.355 67.8073 211.474 68.9524 210.992 68.8865C210.518 68.8206 210.403 68.491 210.419 68.075C210.44 67.4901 211.35 66.2462 211.762 66.2915C212.195 66.3409 212.36 66.6704 212.401 66.9217Z" fill="#E4A270"/>
<path class="ds-call-to-action__smile-bottom" d="M202.923 78.7801C202.684 78.7801 202.532 78.8007 202.387 78.776C201.951 78.6936 201.374 78.6195 201.358 78.1129C201.337 77.5403 201.926 77.6886 202.309 77.6392C202.42 77.6227 202.54 77.6309 202.639 77.5898C203.129 77.4044 203.582 77.3838 203.961 77.8287C204.117 78.014 204.187 78.2364 204.06 78.4424C203.763 78.9161 203.265 78.739 202.927 78.776L202.923 78.7801Z" fill="#E4A270"/>
<path class="ds-call-to-action__eye-brow" d="M191.571 48.242C191.558 49.4488 190.661 50.2562 189.367 50.2232C188.436 50.1985 187.147 48.9999 187.163 48.1719C187.176 47.4017 188.391 46.409 189.388 46.4873C190.669 46.5861 191.711 46.9198 191.575 48.2461L191.571 48.242Z" fill="#844E25"/>
<path d="M190.9 67.4652C191.2 66.9585 191.13 66.0524 192.098 66.0235C192.485 66.0112 192.786 66.3407 192.601 66.7032C192.284 67.3251 192.3 68.2849 191.377 68.392C190.912 68.4455 190.879 67.9389 190.904 67.4693L190.9 67.4652Z" fill="#E4A270"/>
<path d="M217.813 92.7478C216.717 92.7766 216.557 91.6439 215.861 91.1784C215.552 89.988 214.646 89.2219 213.813 88.4311C213.406 88.0398 213.097 87.6773 213.229 87.0841C214.267 86.5198 215.395 87.0594 216.462 86.8288C218.9 87.0512 221.133 86.5816 223.032 84.9134C223.526 84.4768 223.567 84.1473 222.97 83.8178C222.472 83.5418 222.06 83.167 221.681 82.7509C221.467 82.5162 221.368 82.2402 221.574 81.9354C221.738 81.6882 221.99 81.5935 222.257 81.6553C223.514 81.9601 224.762 82.2896 226.014 82.6109C226.265 83.0187 226.08 83.3935 225.944 83.7807C225.137 86.1285 223.65 87.9574 221.78 89.5679C220.495 90.6759 219.16 91.718 217.817 92.7519L217.813 92.7478Z" fill="#103298"/>
<path d="M200.785 13.6504C200.826 13.7039 200.867 13.7575 200.909 13.811C200.826 13.7987 200.744 13.7863 200.657 13.7781C200.694 13.7328 200.74 13.6916 200.785 13.6504Z" fill="#FEFEFE"/>
<path d="M162.557 241.382C162.507 241.288 162.458 241.197 162.412 241.102C162.408 241.09 162.462 241.057 162.491 241.032C162.54 241.127 162.585 241.222 162.635 241.316L162.557 241.386V241.382Z" fill="#8B8787"/>
<defs>
<filter id="filter0_d_746_494" x="185.334" y="83.2864" width="72.6372" height="193.793" filterUnits="userSpaceOnUse" color-interpolation-filters="sRGB">
<feFlood flood-opacity="0" result="BackgroundImageFix"/>
<feColorMatrix in="SourceAlpha" type="matrix" values="0 0 0 0 0 0 0 0 0 0 0 0 0 0 0 0 0 0 127 0" result="hardAlpha"/>
<feOffset dy="4"/>
<feGaussianBlur stdDeviation="2"/>
<feComposite in2="hardAlpha" operator="out"/>
<feColorMatrix type="matrix" values="0 0 0 0 0 0 0 0 0 0 0 0 0 0 0 0 0 0 0.1 0"/>
<feBlend mode="normal" in2="BackgroundImageFix" result="effect1_dropShadow_746_494"/>
<feBlend mode="normal" in="SourceGraphic" in2="effect1_dropShadow_746_494" result="shape"/>
</filter>
<filter id="filter1_d_746_494" x="0.0302734" y="107.384" width="295.954" height="200.596" filterUnits="userSpaceOnUse" color-interpolation-filters="sRGB">
<feFlood flood-opacity="0" result="BackgroundImageFix"/>
<feColorMatrix in="SourceAlpha" type="matrix" values="0 0 0 0 0 0 0 0 0 0 0 0 0 0 0 0 0 0 127 0" result="hardAlpha"/>
<feOffset dy="4"/>
<feGaussianBlur stdDeviation="2"/>
<feComposite in2="hardAlpha" operator="out"/>
<feColorMatrix type="matrix" values="0 0 0 0 0 0 0 0 0 0 0 0 0 0 0 0 0 0 0.1 0"/>
<feBlend mode="normal" in2="BackgroundImageFix" result="effect1_dropShadow_746_494"/>
<feBlend mode="normal" in="SourceGraphic" in2="effect1_dropShadow_746_494" result="shape"/>
</filter>
<filter id="filter2_d_746_494" x="150.038" y="157.336" width="80.2025" height="108.866" filterUnits="userSpaceOnUse" color-interpolation-filters="sRGB">
<feFlood flood-opacity="0" result="BackgroundImageFix"/>
<feColorMatrix in="SourceAlpha" type="matrix" values="0 0 0 0 0 0 0 0 0 0 0 0 0 0 0 0 0 0 127 0" result="hardAlpha"/>
<feOffset dy="4"/>
<feGaussianBlur stdDeviation="2"/>
<feComposite in2="hardAlpha" operator="out"/>
<feColorMatrix type="matrix" values="0 0 0 0 0 0 0 0 0 0 0 0 0 0 0 0 0 0 0.1 0"/>
<feBlend mode="normal" in2="BackgroundImageFix" result="effect1_dropShadow_746_494"/>
<feBlend mode="normal" in="SourceGraphic" in2="effect1_dropShadow_746_494" result="shape"/>
</filter>
<filter id="filter3_d_746_494" x="109.421" y="64.6306" width="111.99" height="73.3161" filterUnits="userSpaceOnUse" color-interpolation-filters="sRGB">
<feFlood flood-opacity="0" result="BackgroundImageFix"/>
<feColorMatrix in="SourceAlpha" type="matrix" values="0 0 0 0 0 0 0 0 0 0 0 0 0 0 0 0 0 0 127 0" result="hardAlpha"/>
<feOffset dy="4"/>
<feGaussianBlur stdDeviation="2"/>
<feComposite in2="hardAlpha" operator="out"/>
<feColorMatrix type="matrix" values="0 0 0 0 0 0 0 0 0 0 0 0 0 0 0 0 0 0 0.1 0"/>
<feBlend mode="normal" in2="BackgroundImageFix" result="effect1_dropShadow_746_494"/>
<feBlend mode="normal" in="SourceGraphic" in2="effect1_dropShadow_746_494" result="shape"/>
</filter>
<filter id="filter4_d_746_494" x="158.412" y="0.00195312" width="92.3872" height="249.385" filterUnits="userSpaceOnUse" color-interpolation-filters="sRGB">
<feFlood flood-opacity="0" result="BackgroundImageFix"/>
<feColorMatrix in="SourceAlpha" type="matrix" values="0 0 0 0 0 0 0 0 0 0 0 0 0 0 0 0 0 0 127 0" result="hardAlpha"/>
<feOffset dy="4"/>
<feGaussianBlur stdDeviation="2"/>
<feComposite in2="hardAlpha" operator="out"/>
<feColorMatrix type="matrix" values="0 0 0 0 0 0 0 0 0 0 0 0 0 0 0 0 0 0 0.1 0"/>
<feBlend mode="normal" in2="BackgroundImageFix" result="effect1_dropShadow_746_494"/>
<feBlend mode="normal" in="SourceGraphic" in2="effect1_dropShadow_746_494" result="shape"/>
</filter>
</defs>
</svg>
