<svg xmlns="http://www.w3.org/2000/svg" width="136" height="148" fill="none" aria-labelledby="componentsTitle componentsDesc">
<g class="ds-explore__components-part" filter="url(#a)">
<path fill="#FECF0F" d="M102.005 105.845c.005-.875.123-1.711.712-2.382.759-.862 1.899-.99 2.89-.321.941.636 1.519 1.606 2.008 2.627.958 2.001 1.522 4.142 1.809 6.365a5.438 5.438 0 0 1-.08 1.776c-.326 1.636-1.85 2.451-3.27 1.744-.899-.448-1.551-1.161-2.001-2.109-1.042-2.188-1.551-4.549-2.019-6.925-.049-.251-.034-.516-.05-.775h.001Z"/>
<path fill="#FECF10" d="M119.102 103.41a3.086 3.086 0 0 1-1.015-.152c-2.256-.738-4.461-1.614-6.519-2.865-.87-.53-1.602-1.228-2.015-2.238-.487-1.194-.137-2.422.856-3.022.383-.23.823-.41 1.23-.274.798.265 1.646.065 2.432.398 1.116.474 2.211.994 3.213 1.709a25.85 25.85 0 0 0 2.203 1.412c.531.303 1.024.663 1.39 1.194.554.804.81 1.668.363 2.61-.437.918-1.219 1.231-2.138 1.229v-.001ZM113.973 88.665c-.944.007-1.806-.17-2.546-.762-1.152-.921-.914-2.41-.178-3.287 1.304-1.558 3.092-1.946 4.727-2.708.898-.418 1.847-.73 2.83-.87.778-.11 1.541-.038 2.258.329 1.283.656 1.632 2.204.771 3.422-.544.768-1.26 1.333-2.028 1.803-1.569.956-3.219 1.708-5.022 2-.113.02-.226.038-.339.048-.171.013-.343.02-.473.027v-.002Z"/>
</g>
<g filter="url(#b)">
<path fill="#36F" d="M12.132 80.751c.714.325 1.412.039 2.097-.11 2.368-.52 4.726-1.09 7.09-1.63 2.127-.486 4.278-.824 6.432-1.149 1.481-.222 2.935-.573 4.398-.884.284-.061.57-.063.851-.03.555.062.936.566.933 1.22-.006 1.84.292 3.6 1.073 5.262 1.144 2.428 2.99 3.83 5.454 4.307 1.214.235 2.439.385 3.68.09 1.302-.307 2.406-.997 3.424-1.876.551-.476 1.15-.885 1.608-1.492a8.175 8.175 0 0 0 1.092-1.952c.528-1.344.942-2.72.875-4.203-.047-1.02-.302-2.01-.457-3.017a3.786 3.786 0 0 1 .053-1.407c.057-.256.215-.4.481-.442 1.476-.23 2.956-.438 4.423-.728 2.124-.42 4.268-.7 6.4-1.07 2.27-.395 4.558-.693 6.818-1.152 1.12-.227 2.254-.298 3.369-.525.487 2.249.72 4.54 1.02 6.821.387 2.945.77 5.89 1.146 8.839.196 1.542.379 3.086.553 4.63.028.252.11.437.3.57.565.393 1.148.66 1.849.418.757-.26 1.523-.486 2.287-.723 1.332-.415 2.55.039 3.692.68 1.446.812 2.603 2.004 3.59 3.403.571.812 1.123 1.621 1.322 2.63.135.685.346 1.347.435 2.047.476 3.672-1.798 7.12-4.566 8.521-.502.254-1.026.464-1.516.743-1.079.619-2.257.572-3.42.631-.497.025-.585.153-.49.679.265 1.481.538 2.956.502 4.485-.032 1.328.26 2.638.35 3.96.13 1.947.341 3.888.405 5.84.027.823.128 1.642-.017 2.461-.143.812-.314 1.633-.702 2.341-.495.899-1.186 1.637-2.07 2.125-1.321.728-2.754 1.056-4.205 1.325-3.988.737-7.968 1.517-11.96 2.239-5.225.945-10.436 1.996-15.68 2.825-3.82.603-7.63 1.271-11.452 1.866-2.213.345-4.434.686-6.68.676-1.09-.005-2.189.068-3.27-.222-2.535-.674-4.336-2.833-4.578-5.615-.141-1.612-.438-3.198-.661-4.796-.505-3.62-1.05-7.236-1.588-10.851-.52-3.495-1.07-6.986-1.576-10.484-.44-3.045-.842-6.096-1.252-9.146-.362-2.703-.728-5.405-1.066-8.112-.332-2.66-.691-5.321-.759-8.012-.017-.67-.066-1.342-.04-2.013l.003.007Zm36.24 32.856c.358.032.69-.094 1.031-.108.071-.003.14-.027.21-.042 1.912-.397 3.08-1.727 3.84-3.548.296-.711.543-1.446.351-2.25-.166-.706-.552-1.201-1.226-1.377-.691-.18-1.367.107-1.761.713-.192.294-.276.629-.357.97-.287 1.239-1.058 1.89-2.24 1.887-.752-.003-1.358-.378-1.933-.853-.474-.392-.847-.908-1.362-1.246-.782-.513-1.636-.146-1.892.791-.175.639-.078 1.249.197 1.814 1.083 2.227 2.96 3.025 5.141 3.249h.002Zm-9.975-7.766c-.005-1.581-.771-2.911-2-3.284-1.372-.417-2.52.104-3.464 1.182-.93 1.061-1.133 2.79-.492 3.954.685 1.244 2.221 1.947 3.539 1.619 1.483-.368 2.422-1.717 2.417-3.471Zm20.659-.94c.37.02.786-.042 1.184-.242 1.13-.573 1.707-1.593 1.918-2.85.197-1.181-.156-2.217-1.002-3.004-.805-.746-1.766-.908-2.767-.567-1.55.528-2.61 2.694-2.22 4.457.303 1.369 1.37 2.204 2.887 2.208v-.002Z"/>
<path fill="#1239AE" d="M48.375 113.609c-2.184-.224-4.06-1.023-5.141-3.249-.275-.565-.373-1.176-.198-1.815.256-.936 1.11-1.303 1.892-.79.514.336.888.854 1.362 1.246.575.474 1.183.851 1.934.853 1.181.003 1.953-.646 2.24-1.887.078-.341.165-.678.357-.97.394-.604 1.07-.893 1.76-.713.676.176 1.06.672 1.227 1.377.19.804-.055 1.539-.352 2.25-.76 1.821-1.927 3.151-3.84 3.548-.07.015-.139.039-.21.042-.34.014-.673.14-1.03.108h-.001Z"/>
<path fill="#1239AD" d="M38.4 105.843c.004 1.754-.935 3.103-2.418 3.471-1.318.328-2.854-.375-3.54-1.62-.64-1.165-.438-2.892.492-3.953.946-1.078 2.094-1.599 3.466-1.182 1.228.373 1.995 1.703 2 3.284ZM59.057 104.903c-1.516-.003-2.584-.839-2.887-2.208-.39-1.762.67-3.927 2.221-4.456 1-.342 1.962-.182 2.766.566.847.787 1.199 1.823 1.003 3.004-.21 1.258-.787 2.278-1.918 2.85a2.31 2.31 0 0 1-1.185.242v.002Z"/>
</g>
<g filter="url(#c)">
<path fill="#FE575C" d="M72.54 69.688c.094-.877-.09-1.733-.185-2.59a353.853 353.853 0 0 0-.822-6.563c-.257-1.96-.552-3.914-.802-5.874-.233-1.825-.548-3.635-.754-5.464-.204-1.803-1.23-2.376-2.788-2.109-3.47.599-6.605-.15-9.134-2.803-1.297-1.36-2.144-3.125-2.105-5.183.016-.789-.185-1.57-.005-2.366.487-2.136 1.333-4.04 2.982-5.442 1.134-.965 2.364-1.739 3.762-2.191.642-.209 1.299-.126 1.946-.158.765-.039 1.4-.325 1.885-.901.408-.486.25-1.142.188-1.723-.37-3.526-.985-7.015-1.434-10.53-.237-1.855-.506-3.705-.763-5.558-.04-.277-.109-.546-.427-.604.77-.358 1.605-.381 2.415-.517 2.363-.399 4.731-.749 7.094-1.142 2.615-.436 5.229-.887 7.84-1.354 2.89-.518 5.778-1.064 8.668-1.596 2.37-.435 4.75-.807 7.144-1.073 1.883-.208 3.749-.561 5.621-.856 2.38-.375 4.758-.762 7.136-1.145L116.59.888c1.225-.196 2.449-.395 3.674-.588.396-.062.75-.278 1.16-.296 1.987-.09 3.879 1.416 4.403 3.486.259 1.024.142 2.104.418 3.116.653 2.398.815 4.883 1.169 7.334.395 2.739.717 5.49 1.076 8.236.298 2.294.612 4.584.9 6.878.252 2.023.477 4.051.716 6.076.245 2.085.499 4.17.732 6.257.199 1.785.386 3.572.553 5.361.149 1.608.293 3.217.383 4.828.069 1.263.014 2.53-.104 3.79-.02.213-.094.425-.086.633.066 1.688-.647 2.89-1.926 3.826-.997.73-2.123 1.009-3.251 1.335-1.805.523-3.655.787-5.49 1.145-1.959.382-3.925.742-5.933.706-.581-.01-1.162.096-1.743.135-1.118.074-1.792-.725-1.971-1.993-.382-2.71-1.133-5.262-2.95-7.298-2.458-2.753-6.179-3.195-9.184-1.117-2.73 1.889-4.185 4.67-4.818 8.003-.204 1.077-.289 2.161-.196 3.271.132 1.57-.776 2.546-2.248 2.652-1.573.113-3.132.375-4.69.67-2.367.445-4.739.87-7.128 1.178-1.51.194-3.003.528-4.51.757-1 .153-1.988.403-3.004.412l-.002.007Zm31.002-34.896c-.011-.896-.297-1.573-.995-1.964-.669-.377-1.33-.274-1.917.228-.418.359-.615.872-.742 1.411-.149.638-.534 1.021-1.098 1.233-1.109.417-2.075.124-2.924-.69-.277-.264-.533-.55-.86-.75-.57-.35-1.153-.44-1.743-.07-.588.366-.837.95-.819 1.651.03 1.034.547 1.813 1.243 2.464 2 1.868 5.062 2.226 7.433.6 1.438-.987 2.28-2.346 2.42-4.113h.002Zm-15.133-2.489c.063-.76-.116-1.46-.551-2.057-.333-.455-.72-.89-1.294-.972a3.787 3.787 0 0 0-1.772.159c-1.246.433-1.932 1.42-2.213 2.764-.416 1.991 1.024 2.998 2.598 2.91.537-.03 1.096-.23 1.588-.482.895-.462 1.757-1.012 1.644-2.319v-.003Zm20.093-1.57c1.082.018 2.059-.392 2.929-1.107.346-.284.597-.622.616-1.142.054-1.463-.63-2.452-1.723-3.193-.605-.41-1.263-.587-1.957-.325-1.305.493-2.215 2.087-2.059 3.553.151 1.405.983 2.257 2.193 2.213h.001Z"/>
<path fill="#9A2425" d="M103.541 34.792c-.14 1.767-.982 3.126-2.421 4.113-2.37 1.626-5.433 1.268-7.433-.6-.696-.65-1.214-1.43-1.242-2.464-.02-.7.229-1.284.818-1.651.592-.368 1.173-.28 1.743.07.326.2.583.487.86.75.851.815 1.816 1.107 2.924.69.564-.212.95-.595 1.098-1.233.128-.54.323-1.052.742-1.41.587-.503 1.247-.606 1.918-.23.697.393.983 1.069.994 1.965h-.001Z"/>
<path fill="#992224" d="M88.408 32.303c.111 1.307-.75 1.857-1.645 2.32-.49.251-1.049.45-1.588.48-1.574.09-3.014-.918-2.598-2.91.281-1.343.968-2.33 2.213-2.764a3.81 3.81 0 0 1 1.772-.158c.575.08.963.516 1.295.972.435.597.614 1.297.551 2.057v.003Z"/>
<path fill="#992325" d="M108.501 30.73c-1.208.044-2.042-.808-2.193-2.212-.157-1.467.754-3.06 2.059-3.553.694-.263 1.351-.085 1.957.324 1.094.74 1.775 1.73 1.723 3.193-.018.52-.268.858-.615 1.142-.872.715-1.848 1.123-2.93 1.107h-.001Z"/>
</g>
<g filter="url(#d)"><path fill="#45CB80" d="m72.54 69.688-.312.276c-1.116.227-2.25.297-3.37.524-2.258.46-4.547.757-6.818 1.152-2.132.37-4.274.65-6.4 1.07-1.465.29-2.946.496-4.422.728-.266.042-.425.187-.481.442-.1.463-.127.934-.053 1.408.155 1.005.41 1.994.457 3.017.067 1.483-.347 2.858-.875 4.202a8.174 8.174 0 0 1-1.092 1.952c-.459.61-1.057 1.016-1.608 1.492-1.02.88-2.122 1.569-3.425 1.877-1.24.294-2.467.143-3.68-.091-2.463-.478-4.31-1.878-5.453-4.307-.783-1.661-1.08-3.422-1.073-5.262.002-.654-.38-1.16-.933-1.22a2.686 2.686 0 0 0-.852.03c-1.463.31-2.918.66-4.397.884-2.152.323-4.304.663-6.433 1.149-2.364.54-4.721 1.112-7.09 1.63-.683.15-1.382.435-2.097.11-.557-1.22-.58-2.57-.785-3.87-.547-3.46-1.062-6.922-1.583-10.386C9.229 62.94 8.7 59.388 8.17 55.833c-.476-3.194-.956-6.385-1.42-9.579-.509-3.511-.99-7.027-1.504-10.537-.329-2.245-.6-4.498-.822-6.758-.146-1.504-.25-3.016-.225-4.522.02-1.213.627-2.229 1.309-3.17.952-1.315 2.266-2.03 3.664-2.664 1.381-.626 2.851-.693 4.287-.964 2.243-.425 4.498-.775 6.75-1.148 2.911-.485 5.825-.962 8.739-1.445 2.25-.373 4.503-.748 6.754-1.12l8.19-1.35c2.73-.449 5.458-.913 8.191-1.335 3.002-.464 5.992-1.006 9.011-1.334.596-.064 1.202-.064 1.783-.195.408-.092.798-.144 1.205-.079.319.057.39.325.427.604.258 1.851.526 3.703.763 5.558.451 3.514 1.065 7.004 1.434 10.53.062.58.22 1.238-.188 1.722-.485.577-1.121.863-1.885.901-.645.032-1.303-.048-1.946.159-1.398.452-2.628 1.225-3.762 2.19-1.65 1.403-2.494 3.307-2.981 5.442-.182.796.02 1.576.005 2.367-.04 2.058.807 3.822 2.104 5.182 2.53 2.654 5.664 3.4 9.134 2.804 1.558-.27 2.586.306 2.788 2.108.206 1.83.522 3.64.754 5.464.25 1.96.545 3.915.803 5.874.287 2.186.573 4.372.821 6.564.098.857.282 1.713.186 2.59l.001-.004ZM37.05 51.45c.633.083 1.333-.17 2.023-.477 1.827-.817 3.052-2.205 3.526-4.292.212-.935-.314-1.977-1.165-2.275-1.064-.371-2.243-.007-2.76 1.441-.574 1.608-2.69 1.665-3.497.641a3.014 3.014 0 0 0-.428-.447c-.634-.528-1.334-.68-2.079-.316-.743.361-1.126.993-1.121 1.883.003.772.363 1.372.825 1.904 1.225 1.409 2.79 1.935 4.676 1.937v.002Zm-10.457-8.053c.077-1.384-1.12-3.192-3.025-3.11-1.634.071-2.845 1.33-2.857 3.119-.013 1.83 1.308 3.2 2.973 3.191 1.643-.006 2.916-1.407 2.91-3.2Zm20.861-1.101c1.613.001 2.848-1.315 2.867-3.014.015-1.367-1.255-3.148-2.955-3.082-1.528.059-2.788 1.369-2.793 3.02-.004 1.695 1.285 3.072 2.88 3.076h.001Z"/><path fill="#1C6238" d="M37.05 51.45c-1.887 0-3.45-.528-4.676-1.937-.464-.532-.822-1.132-.825-1.904-.005-.891.379-1.522 1.121-1.883.745-.363 1.444-.212 2.079.316.157.131.3.284.428.447.806 1.024 2.924.967 3.497-.64.515-1.448 1.697-1.813 2.76-1.441.851.297 1.378 1.34 1.166 2.275-.475 2.085-1.7 3.474-3.527 4.291-.69.308-1.39.56-2.023.478v-.002Z"/>
<path fill="#1C6138" d="M26.593 43.397c.007 1.794-1.265 3.193-2.909 3.2-1.665.007-2.986-1.362-2.973-3.192.013-1.787 1.224-3.047 2.857-3.117 1.906-.083 3.102 1.725 3.025 3.109ZM47.454 42.295c-1.594-.001-2.885-1.38-2.879-3.075.005-1.652 1.264-2.962 2.793-3.02 1.7-.066 2.97 1.715 2.954 3.082-.018 1.698-1.253 3.015-2.866 3.013h-.002Z"/>
</g>
<defs>
<filter id="a" width="28.304" height="42.919" x="98.004" y="80.991" color-interpolation-filters="sRGB" filterUnits="userSpaceOnUse">
<feFlood flood-opacity="0" result="BackgroundImageFix"/><feColorMatrix in="SourceAlpha" result="hardAlpha" values="0 0 0 0 0 0 0 0 0 0 0 0 0 0 0 0 0 0 127 0"/>
<feOffset dy="4"/>
<feGaussianBlur stdDeviation="2"/>
<feComposite in2="hardAlpha" operator="out"/>
<feColorMatrix values="0 0 0 0 0 0 0 0 0 0 0 0 0 0 0 0 0 0 0.1 0"/>
<feBlend in2="BackgroundImageFix" result="effect1_dropShadow_746_456"/>
<feBlend in="SourceGraphic" in2="effect1_dropShadow_746_456" result="shape"/>
</filter>
<filter id="b" width="84.362" height="78.037" x="8.121" y="69.963" color-interpolation-filters="sRGB" filterUnits="userSpaceOnUse">
<feFlood flood-opacity="0" result="BackgroundImageFix"/>
<feColorMatrix in="SourceAlpha" result="hardAlpha" values="0 0 0 0 0 0 0 0 0 0 0 0 0 0 0 0 0 0 127 0"/>
<feOffset dy="4"/><feGaussianBlur stdDeviation="2"/>
<feComposite in2="hardAlpha" operator="out"/>
<feColorMatrix values="0 0 0 0 0 0 0 0 0 0 0 0 0 0 0 0 0 0 0.1 0"/>
<feBlend in2="BackgroundImageFix" result="effect1_dropShadow_746_456"/>
<feBlend in="SourceGraphic" in2="effect1_dropShadow_746_456" result="shape"/>
</filter>
<filter id="c" width="83.935" height="77.688" x="51.87" y="0" color-interpolation-filters="sRGB" filterUnits="userSpaceOnUse">
<feFlood flood-opacity="0" result="BackgroundImageFix"/>
<feColorMatrix in="SourceAlpha" result="hardAlpha" values="0 0 0 0 0 0 0 0 0 0 0 0 0 0 0 0 0 0 127 0"/>
<feOffset dy="4"/>
<feGaussianBlur stdDeviation="2"/>
<feComposite in2="hardAlpha" operator="out"/>
<feColorMatrix values="0 0 0 0 0 0 0 0 0 0 0 0 0 0 0 0 0 0 0.1 0"/>
<feBlend in2="BackgroundImageFix" result="effect1_dropShadow_746_456"/>
<feBlend in="SourceGraphic" in2="effect1_dropShadow_746_456" result="shape"/></filter>
<filter id="d" width="76.37" height="86.387" x=".196" y="9.604" color-interpolation-filters="sRGB" filterUnits="userSpaceOnUse">
<feFlood flood-opacity="0" result="BackgroundImageFix"/>
<feColorMatrix in="SourceAlpha" result="hardAlpha" values="0 0 0 0 0 0 0 0 0 0 0 0 0 0 0 0 0 0 127 0"/>
<feOffset dy="4"/>
<feGaussianBlur stdDeviation="2"/>
<feComposite in2="hardAlpha" operator="out"/>
<feColorMatrix values="0 0 0 0 0 0 0 0 0 0 0 0 0 0 0 0 0 0 0.1 0"/>
<feBlend in2="BackgroundImageFix" result="effect1_dropShadow_746_456"/>
<feBlend in="SourceGraphic" in2="effect1_dropShadow_746_456" result="shape"/>
</filter>
</defs>
</svg>
