<svg width="57" height="24" viewBox="0 0 57 24" fill="none" xmlns="http://www.w3.org/2000/svg">
<g clip-path="url(#clip0_840_3745)">
<path d="M28.2688 23.9944C18.9505 23.9944 9.63318 23.9944 0.314923 24C0.0792082 24 -0.000934649 23.9756 8.20801e-06 23.7025C0.0103796 15.8968 0.0103796 8.09103 8.20801e-06 0.28434C8.20801e-06 0.0328446 0.0660082 0.00281525 0.296065 0.00281525C18.9552 0.00938416 37.6153 0.00938416 56.2744 0C56.5592 0 56.5686 0.0938416 56.5677 0.318123C56.562 8.11261 56.5611 15.9062 56.5714 23.7006C56.5714 23.97 56.4969 24 56.2575 24C46.9279 23.9934 37.5983 23.9944 28.2688 23.9944ZM10.4497 4.4237C10.033 4.32328 9.63412 4.22944 9.23624 4.12903C8.92038 4.04927 8.46875 4.15531 8.31035 3.93196C8.15384 3.7105 8.26698 3.30041 8.25944 2.97196C8.22455 1.45455 7.01581 0.274956 5.48744 0.269325C4.73409 0.26651 3.98075 0.268387 3.22835 0.269325C1.58495 0.271202 0.398837 1.43296 0.396008 3.07894C0.388465 7.60399 0.387523 12.129 0.396008 16.6541C0.398837 18.3029 1.60758 19.4806 3.26135 19.4834C4.57947 19.4853 5.89758 19.505 7.21475 19.4778C8.54889 19.4506 9.86701 19.2967 11.0946 18.7177C11.2756 18.6323 11.3841 18.6623 11.5255 18.7918C11.897 19.1334 12.3392 19.3661 12.8408 19.4205C13.9185 19.5378 15.0018 19.5284 16.0786 19.429C16.4746 19.3924 16.847 19.3652 17.2477 19.4271C18.133 19.5641 19.0325 19.4684 19.9254 19.4806C20.6175 19.49 21.253 19.292 21.7857 18.8434C21.962 18.6951 22.0629 18.7205 22.2269 18.8547C22.6352 19.1869 23.1047 19.4065 23.6374 19.444C24.6463 19.5153 25.658 19.52 26.6668 19.4393C26.9337 19.4177 27.0176 19.459 27.0044 19.7358C26.9855 20.1328 26.9695 20.5372 27.0232 20.9286C27.193 22.1494 27.9567 22.8955 29.0787 23.2915C31.1746 24.031 33.2772 23.8846 35.3308 23.1554C37.3126 22.4516 38.6807 21.1125 39.188 19.017C39.2512 18.7571 39.3775 18.8528 39.5199 18.9053C41.0992 19.489 42.7265 19.6298 44.3784 19.3464C45.5296 19.1484 46.6281 18.8021 47.322 17.7473C47.4078 17.6169 47.4748 17.6507 47.5719 17.7333C47.8755 17.9932 48.2036 18.2231 48.5534 18.4174C50.1242 19.2854 51.8307 19.5688 53.5939 19.4674C54.995 19.3867 55.9963 18.4305 56.1764 17.0613C56.2697 16.3547 56.2669 15.6274 56.1773 14.9208C56.0142 13.6277 55.0157 12.6292 53.806 12.5466C53.4195 12.5204 53.3865 12.3871 53.3884 12.0709C53.3978 9.03507 53.3978 5.99836 53.3921 2.96164C53.3893 1.47425 52.1956 0.283402 50.704 0.269325C49.88 0.261818 49.0569 0.26088 48.2328 0.269325C46.761 0.283402 45.5655 1.46768 45.54 2.9288C45.5334 3.31543 45.5174 3.70393 45.5447 4.08868C45.5674 4.40962 45.4844 4.44152 45.1836 4.35519C43.0452 3.73865 40.9398 3.73959 38.9089 4.76903C38.7439 4.85255 38.6487 4.83284 38.5167 4.70616C37.9755 4.18534 37.3174 3.94229 36.5659 3.94229C35.2129 3.94229 33.859 3.92915 32.506 3.94604C30.6363 3.9695 28.8599 4.32891 27.3287 5.48598C27.1816 5.59765 27.1006 5.56387 26.9723 5.45877C25.411 4.17501 23.5978 3.65889 21.5962 3.73677C20.6825 3.77243 19.7859 4.02393 18.8609 3.94979C18.6488 3.9329 18.5375 3.91883 18.4923 3.6617C18.1821 1.88622 16.715 0.575249 14.8434 0.372551C13.2057 0.194252 11.4859 1.23777 10.7986 2.81806C10.576 3.3295 10.4865 3.86721 10.4459 4.4237H10.4497Z" fill="#FDFEFE"/>
<path d="M10.4497 4.42369C10.4903 3.86721 10.5798 3.3295 10.8023 2.81806C11.4887 1.23777 13.2085 0.195189 14.8472 0.37255C16.7197 0.576186 18.1868 1.88622 18.4961 3.6617C18.5413 3.91976 18.6526 3.9329 18.8647 3.94979C19.7897 4.02393 20.6863 3.77243 21.5999 3.73677C23.6007 3.65888 25.4147 4.17595 26.9761 5.45877C27.1043 5.56387 27.1845 5.59765 27.3325 5.48598C28.8637 4.32891 30.6401 3.9695 32.5097 3.94604C33.8627 3.92915 35.2167 3.94322 36.5697 3.94229C37.3211 3.94229 37.9793 4.1844 38.5205 4.70616C38.6525 4.83284 38.7467 4.85255 38.9127 4.76903C40.9436 3.73959 43.049 3.73865 45.1874 4.35519C45.4882 4.44152 45.5711 4.40962 45.5485 4.08868C45.5212 3.70393 45.5372 3.31542 45.5438 2.9288C45.5693 1.46768 46.7648 0.284338 48.2366 0.269324C49.0607 0.260878 49.8838 0.261816 50.7078 0.269324C52.2004 0.2834 53.3931 1.47331 53.3959 2.96164C53.4016 5.99836 53.4016 9.03413 53.3921 12.0708C53.3912 12.3871 53.4242 12.5203 53.8098 12.5466C55.0195 12.6292 56.0171 13.6277 56.1811 14.9208C56.2707 15.6274 56.2726 16.3547 56.1802 17.0613C56.0001 18.4296 54.9988 19.3867 53.5977 19.4674C51.8336 19.5688 50.128 19.2854 48.5572 18.4174C48.2064 18.224 47.8793 17.9941 47.5757 17.7333C47.4785 17.6507 47.4116 17.6169 47.3258 17.7473C46.6319 18.8021 45.5334 19.1493 44.3822 19.3464C42.7303 19.6298 41.1029 19.489 39.5237 18.9053C39.3803 18.8528 39.254 18.7571 39.1918 19.017C38.6845 21.1125 37.3164 22.4516 35.3345 23.1554C33.281 23.8846 31.1784 24.031 29.0825 23.2915C27.9614 22.8955 27.1967 22.1494 27.027 20.9286C26.9723 20.5372 26.9884 20.1328 27.0082 19.7358C27.0214 19.4599 26.9375 19.4186 26.6706 19.4393C25.6627 19.52 24.651 19.5153 23.6412 19.444C23.1085 19.4064 22.639 19.1878 22.2307 18.8547C22.0667 18.7205 21.9658 18.6951 21.7895 18.8434C21.2558 19.292 20.6213 19.49 19.9292 19.4806C19.0363 19.4684 18.1368 19.5641 17.2515 19.4271C16.8508 19.3652 16.4783 19.3924 16.0823 19.429C15.0056 19.5284 13.9213 19.5378 12.8446 19.4205C12.343 19.3661 11.8998 19.1334 11.5293 18.7918C11.3879 18.6623 11.2794 18.6323 11.0984 18.7177C9.8708 19.2967 8.55268 19.4506 7.21854 19.4778C5.90137 19.505 4.58231 19.4853 3.26514 19.4834C1.61137 19.4806 0.403568 18.3038 0.399797 16.6541C0.391311 12.129 0.391311 7.60399 0.399797 3.07894C0.402625 1.4339 1.58874 0.271201 3.23214 0.269324C3.98548 0.269324 4.73883 0.267447 5.49123 0.269324C7.0196 0.274954 8.22834 1.45361 8.26323 2.97196C8.27077 3.29947 8.15668 3.7105 8.31414 3.93196C8.47254 4.15531 8.92417 4.04927 9.24003 4.12903C9.63697 4.22944 10.0367 4.32328 10.4535 4.42369H10.4497ZM46.926 15.6847C47.0222 15.8255 47.0759 15.8996 47.125 15.9765C47.5474 16.6409 48.0942 17.1805 48.7693 17.5878C50.2873 18.5046 51.959 18.7449 53.6891 18.6313C54.6461 18.5684 55.358 17.7295 55.3703 16.7704C55.3769 16.2543 55.3693 15.7391 55.3721 15.223C55.3759 14.6881 55.1647 14.2508 54.7932 13.8735C54.3227 13.3959 53.7155 13.3443 53.1017 13.3049C52.7673 13.283 52.5998 13.1056 52.5992 12.7728C52.5992 9.57278 52.6001 6.37278 52.5992 3.17278C52.5992 2.01384 51.9694 1.22839 50.8229 1.1017C49.9262 1.00223 49.0088 1.0041 48.1112 1.1017C47.0684 1.21525 46.4763 1.8224 46.3792 2.86686C46.3037 3.68047 46.3509 4.50534 46.3396 5.32551C46.3377 5.44563 46.3669 5.57513 46.2839 5.71589C45.4033 5.22229 44.4774 4.94264 43.4978 4.83753C41.7922 4.65548 40.1639 4.84504 38.71 5.84164C38.5101 5.97865 38.4205 5.97865 38.2979 5.74686C37.9896 5.16692 37.4805 4.80281 36.829 4.79718C35.0074 4.78217 33.1829 4.6949 31.3632 4.85349C29.832 4.98674 28.4555 5.49161 27.3325 6.57454C27.192 6.70968 27.1025 6.72094 26.9601 6.57454C25.5317 5.09935 23.7591 4.50534 21.7329 4.56915C20.6552 4.60293 19.5954 4.86287 18.5055 4.78686C17.7833 4.73712 17.7804 4.77748 17.7314 4.07836C17.7286 4.04363 17.7286 4.00797 17.7229 3.97325C17.5023 2.68387 16.7895 1.77267 15.543 1.36164C14.2994 0.951553 13.1548 1.21806 12.2364 2.15836C11.3256 3.09208 11.0663 4.21067 11.4859 5.46534C11.5236 5.57795 11.6311 5.68586 11.5444 5.8407C10.3385 5.13501 9.02505 4.82909 7.64283 4.79061C7.43445 4.78498 7.42314 4.67519 7.42408 4.51941C7.42785 3.99202 7.43163 3.46463 7.42408 2.93724C7.40994 2.06076 6.75088 1.27343 5.88534 1.13173C5.01037 0.988151 4.12503 1.08199 3.2444 1.07542C2.04225 1.06604 1.21443 1.91343 1.21348 3.11742C1.21348 7.619 1.21348 12.1196 1.21348 16.6212C1.21348 17.8393 2.02151 18.6491 3.24817 18.6538C4.53045 18.6585 5.81368 18.6595 7.09597 18.6538C8.59511 18.6473 10.049 18.4324 11.369 17.6629C11.5595 17.5521 11.6245 17.6347 11.7226 17.7811C12.1016 18.346 12.6381 18.6435 13.3226 18.6529C13.8638 18.6604 14.405 18.6585 14.9462 18.6548C15.4959 18.6501 16.055 18.7195 16.5755 18.4586C16.6226 18.4352 16.699 18.4277 16.7452 18.4493C17.4646 18.7796 18.2283 18.6276 18.9741 18.652C19.4201 18.667 19.8764 18.697 20.3129 18.6294C21.1983 18.4924 21.7517 17.9435 22.0016 17.0482C22.2911 18.0101 22.8888 18.5891 23.8732 18.6416C24.7293 18.6867 25.5911 18.6632 26.4491 18.6463C27.0195 18.6341 27.4919 18.3808 27.8539 17.9425C28.1905 17.5362 28.1849 17.5306 28.6346 17.7999C28.6619 17.8168 28.6836 17.843 28.7383 17.8937C27.9256 18.4145 27.7643 19.2 27.8228 20.0746C27.8341 20.2501 27.8219 20.4265 27.8256 20.602C27.8417 21.2692 28.1264 21.7947 28.677 22.1757C29.0787 22.4544 29.5313 22.6271 30.0027 22.7303C31.7074 23.1029 33.3923 22.9865 35.03 22.4056C36.4113 21.9148 37.4965 21.0534 38.1122 19.688C38.4139 19.0198 38.5157 18.3038 38.577 17.5822C38.6157 17.5822 38.6411 17.5756 38.66 17.5831C38.7137 17.6056 38.7656 17.6328 38.8175 17.6619C40.7777 18.7439 42.8529 18.9297 44.9903 18.3611C46.1076 18.0636 47.0429 17.5202 46.9091 15.8789C46.9062 15.8461 46.9147 15.8123 46.9279 15.6894L46.926 15.6847Z" fill="#06A8E2"/>
<path d="M46.927 15.6847C46.9147 15.8067 46.9062 15.8414 46.9081 15.8743C47.042 17.5165 46.1067 18.0589 44.9894 18.3564C42.8519 18.926 40.7776 18.7392 38.8165 17.6572C38.7656 17.6291 38.7128 17.6019 38.659 17.5784C38.6402 17.57 38.6138 17.5775 38.5761 17.5775C38.5148 18.2991 38.413 19.0161 38.1112 19.6833C37.4946 21.0487 36.4094 21.9111 35.029 22.4009C33.3913 22.9828 31.7064 23.0991 30.0017 22.7256C29.5303 22.6224 29.0777 22.4497 28.6761 22.171C28.1264 21.79 27.8416 21.2645 27.8247 20.5973C27.82 20.4218 27.8332 20.2454 27.8218 20.0699C27.7634 19.1953 27.9246 18.4108 28.7374 17.889C28.6827 17.8393 28.661 17.8121 28.6336 17.7952C28.1839 17.5259 28.1896 17.5315 27.853 17.9378C27.4909 18.3751 27.0185 18.6294 26.4481 18.6416C25.5892 18.6595 24.7283 18.6829 23.8722 18.6369C22.8879 18.5844 22.2901 18.0054 22.0006 17.0435C21.7508 17.9388 21.1983 18.4868 20.312 18.6247C19.8745 18.6923 19.4191 18.6623 18.9731 18.6473C18.2273 18.6219 17.4636 18.774 16.7442 18.4446C16.698 18.423 16.6216 18.4305 16.5745 18.454C16.054 18.7148 15.4949 18.6454 14.9452 18.6501C14.404 18.6548 13.8628 18.6557 13.3216 18.6482C12.6362 18.6388 12.0997 18.3413 11.7216 17.7764C11.6236 17.63 11.5585 17.5474 11.368 17.6582C10.048 18.4277 8.59415 18.6426 7.09501 18.6491C5.81272 18.6548 4.5295 18.6538 3.24721 18.6491C2.0215 18.6445 1.21252 17.8346 1.21252 16.6165C1.21252 12.115 1.21252 7.61431 1.21252 3.11272C1.21252 1.90967 2.04035 1.06135 3.24344 1.07073C4.12407 1.0773 5.00941 0.983457 5.88438 1.12704C6.74992 1.26967 7.40898 2.05701 7.42312 2.93255C7.43161 3.45994 7.42784 3.98733 7.42312 4.51472C7.42218 4.6705 7.4335 4.78029 7.64187 4.78592C9.0241 4.8244 10.3375 5.13032 11.5434 5.83601C11.6302 5.68117 11.5227 5.57231 11.485 5.46064C11.0654 4.20598 11.3237 3.08645 12.2355 2.15366C13.1529 1.21337 14.2984 0.946859 15.5421 1.35695C16.7885 1.76797 17.5013 2.67918 17.722 3.96856C17.7276 4.00328 17.7286 4.03894 17.7304 4.07366C17.7785 4.77278 17.7814 4.73243 18.5045 4.78217C19.5945 4.85724 20.6533 4.59824 21.7319 4.56445C23.7581 4.4997 25.5307 5.09372 26.9591 6.56985C27.1015 6.71718 27.1911 6.70592 27.3316 6.56985C28.4545 5.48692 29.8311 4.98205 31.3623 4.84879C33.182 4.6902 35.0064 4.77748 36.828 4.79249C37.4795 4.79812 37.9887 5.16223 38.297 5.74217C38.4196 5.97302 38.5091 5.97396 38.709 5.83695C40.1629 4.84035 41.7912 4.64985 43.4968 4.83284C44.4765 4.93701 45.4024 5.21759 46.283 5.7112C46.365 5.57044 46.3367 5.44094 46.3386 5.32082C46.349 4.50064 46.3018 3.67577 46.3782 2.86217C46.4753 1.81771 47.0674 1.21149 48.1102 1.09701C49.0078 0.998472 49.9252 0.996595 50.8219 1.09701C51.9684 1.22463 52.5973 2.00915 52.5982 3.16809C52.6001 6.36809 52.5982 9.56809 52.5982 12.7681C52.5982 13.1015 52.7658 13.2789 53.1008 13.3002C53.7146 13.3405 54.3227 13.3921 54.7923 13.8689C55.1638 14.2461 55.375 14.6834 55.3712 15.2183C55.3674 15.7344 55.3759 16.2496 55.3693 16.7657C55.357 17.7248 54.6452 18.5638 53.6882 18.6266C51.958 18.7402 50.2864 18.4999 48.7684 17.5831C48.0933 17.1749 47.5464 16.6362 47.124 15.9718C47.075 15.8949 47.0212 15.8208 46.9251 15.68L46.927 15.6847ZM37.7511 8.0244C37.7341 8.01126 37.7209 8.00469 37.7209 7.99906C37.7181 7.55331 37.7228 7.1085 37.7124 6.66275C37.6983 6.0678 37.274 5.62299 36.6904 5.63143C34.8574 5.65865 33.0189 5.51695 31.1907 5.71308C29.9621 5.84445 28.8477 6.278 27.9388 7.15918C27.6003 7.48762 27.3297 7.86111 27.0977 8.32938C26.548 7.10944 25.6476 6.339 24.4822 5.86979C23.5479 5.49349 22.5805 5.31613 21.5622 5.40809C20.642 5.49067 19.735 5.72058 18.7987 5.63237C18.4602 5.60047 18.1161 5.638 17.7757 5.62393C17.4023 5.60797 17.078 5.69055 16.831 5.99179C16.7782 6.05654 16.7112 6.17572 16.6066 6.07343C16.5189 5.98803 16.4142 5.88481 16.4925 5.73654C16.5311 5.66428 16.5811 5.59859 16.6207 5.52633C17.2072 4.44903 16.8413 3.02451 15.8164 2.39765C14.8792 1.82428 13.6686 1.93313 12.9124 2.66041C12.062 3.47777 11.896 4.58604 12.4844 5.6014C12.5796 5.76657 12.5872 5.89794 12.4655 6.04715C12.2713 6.28645 12.2138 6.56797 12.2251 6.87108C12.2326 7.07472 12.227 7.27929 12.227 7.48293C12.1902 7.50451 12.1525 7.52516 12.1157 7.54674C12.0337 7.43507 11.962 7.31401 11.8687 7.21267C11.3982 6.70029 10.8136 6.3634 10.1706 6.1119C9.13535 5.70745 8.05767 5.58545 6.95641 5.63143C6.66318 5.64363 6.56607 5.54228 6.57361 5.25044C6.59058 4.5241 6.58115 3.79683 6.57832 3.0705C6.5755 2.36481 6.12198 1.91624 5.40635 1.91249C4.67658 1.90874 3.94681 1.90874 3.21798 1.91249C2.52404 1.91624 2.05827 2.36762 2.05732 3.0536C2.0545 7.60211 2.0545 12.1506 2.05732 16.6982C2.05732 17.3626 2.49858 17.813 3.16141 17.8036C4.9123 17.7783 6.66601 17.8937 8.41407 17.7304C9.26264 17.6516 10.0697 17.4255 10.8212 17.006C11.3454 16.7132 11.798 16.3397 12.2279 15.8414C12.2279 16.1689 12.2185 16.426 12.2298 16.6813C12.26 17.3795 12.7069 17.8036 13.4065 17.8055C14.1363 17.8074 14.866 17.7961 15.5949 17.8102C15.9607 17.8177 16.27 17.722 16.5066 17.4442C16.6292 17.3006 16.7197 17.3016 16.8413 17.4442C17.078 17.7229 17.3882 17.8177 17.7531 17.8102C18.4357 17.7952 19.1202 17.7727 19.8 17.814C20.7334 17.8712 21.1379 17.219 21.1285 16.4767C21.0993 14.3437 21.1172 12.2097 21.12 10.0767C21.12 9.72762 21.1672 9.39261 21.516 9.19835C22.1958 8.82017 22.8803 9.24152 22.8822 10.0486C22.8869 12.2407 22.8822 14.4328 22.885 16.625C22.885 17.3663 23.3282 17.8046 24.0683 17.8064C24.8217 17.8083 25.5741 17.8093 26.3274 17.8064C26.9827 17.8027 27.4013 17.3804 27.4136 16.731C27.4202 16.4223 27.3768 16.1098 27.4419 15.8001C27.5635 15.8189 27.5899 15.9071 27.6418 15.9653C28.3621 16.7657 29.2408 17.2875 30.2959 17.5315C31.1124 17.7201 31.9318 17.8355 32.7709 17.8121C32.8633 17.8093 33.0076 17.752 33.0358 17.9022C33.0585 18.0195 32.9491 18.0908 32.8595 18.1433C32.539 18.331 32.1892 18.4286 31.8196 18.4342C31.1369 18.4436 30.4543 18.4324 29.7726 18.4436C29.123 18.454 28.6761 18.9138 28.6704 19.5613C28.6676 19.8897 28.6789 20.2182 28.6676 20.5457C28.6525 20.9952 28.876 21.3077 29.2352 21.5291C29.5039 21.6952 29.7952 21.8247 30.1102 21.8914C32.0091 22.2921 33.8486 22.156 35.575 21.2223C36.6112 20.6611 37.2985 19.809 37.5814 18.6379C37.753 17.9294 37.6964 17.2181 37.7124 16.5067C37.72 16.1896 37.7134 15.8724 37.7134 15.4801C38.1339 16.0647 38.561 16.5189 39.0994 16.8436C40.8333 17.8909 42.7086 18.0579 44.6339 17.5878C45.9256 17.2725 46.1057 16.9534 46.1057 15.6284C46.1057 15.5467 46.1076 15.4642 46.1057 15.3825C46.085 14.5886 45.6371 14.1504 44.8442 14.1485C44.4699 14.1476 44.0946 14.1485 43.7203 14.1485C44.3426 13.9345 44.9611 13.7328 45.5542 13.4531C46.1614 13.1669 46.662 12.7428 47.1683 12.2285C47.1966 12.755 47.1891 13.1979 47.2249 13.6418C47.3362 14.9978 47.9528 16.0488 49.0795 16.7892C50.4655 17.7004 52.0297 17.8909 53.641 17.7905C54.1653 17.7577 54.5151 17.3016 54.5198 16.7695C54.5245 16.2421 54.5273 15.7147 54.5188 15.1873C54.5122 14.7284 54.186 14.3362 53.7438 14.2142C53.5138 14.1504 53.2799 14.1541 53.0452 14.1457C52.0099 14.1091 51.7591 13.8529 51.7591 12.8422C51.7591 9.61877 51.7591 6.39531 51.7591 3.17091C51.7591 2.34228 51.3282 1.91437 50.4985 1.91155C49.8159 1.90967 49.1332 1.90967 48.4506 1.91155C47.6369 1.91343 47.1806 2.36293 47.1796 3.16997C47.1778 4.30733 47.1796 5.44375 47.1796 6.58111C47.1796 6.88047 47.1796 7.18076 47.1796 7.59742C45.8446 6.02838 44.1578 5.60234 42.2872 5.62487C40.3552 5.64833 38.8156 6.38592 37.752 8.0244H37.7511Z" fill="#9CD2F6"/>
<path d="M37.751 8.0244C38.8145 6.38593 40.3542 5.64833 42.2861 5.62487C44.1568 5.60235 45.8435 6.02839 47.1786 7.59742C47.1786 7.18077 47.1786 6.88141 47.1786 6.58112C47.1786 5.44376 47.1767 4.30734 47.1786 3.16998C47.1796 2.36388 47.6359 1.91344 48.4496 1.91156C49.1322 1.90968 49.8149 1.90968 50.4975 1.91156C51.3272 1.91438 51.7581 2.34135 51.7581 3.17091C51.76 6.39437 51.7581 9.61784 51.7581 12.8422C51.7581 13.8529 52.0089 14.1091 53.0442 14.1457C53.2789 14.1541 53.5127 14.1504 53.7428 14.2142C54.185 14.3362 54.5112 14.7284 54.5178 15.1873C54.5263 15.7147 54.5235 16.2421 54.5188 16.7695C54.5141 17.3006 54.1633 17.7577 53.64 17.7905C52.0287 17.89 50.4645 17.6995 49.0785 16.7892C47.9518 16.0488 47.3342 14.9968 47.2239 13.6418C47.1881 13.1979 47.1956 12.755 47.1673 12.2285C46.661 12.7428 46.1603 13.1669 45.5532 13.4531C44.9601 13.7328 44.3416 13.9346 43.7193 14.1485C44.0936 14.1485 44.4689 14.1485 44.8432 14.1485C45.6361 14.1504 46.084 14.5886 46.1047 15.3825C46.1066 15.4642 46.1047 15.5467 46.1047 15.6284C46.1047 16.9534 45.9246 17.2725 44.6329 17.5878C42.7076 18.058 40.8323 17.8909 39.0983 16.8436C38.56 16.518 38.1329 16.0648 37.7123 15.4801C37.7123 15.8724 37.718 16.1896 37.7114 16.5067C37.6954 17.2181 37.7519 17.9284 37.5803 18.6379C37.2975 19.809 36.6101 20.6611 35.5739 21.2223C33.8476 22.156 32.0081 22.2921 30.1091 21.8914C29.7942 21.8248 29.5029 21.6953 29.2342 21.5292C28.8759 21.3067 28.6515 20.9943 28.6666 20.5457C28.6779 20.2182 28.6666 19.8897 28.6694 19.5613C28.6751 18.9138 29.122 18.454 29.7716 18.4436C30.4542 18.4324 31.1369 18.4436 31.8185 18.4343C32.1881 18.4286 32.5389 18.331 32.8585 18.1433C32.9481 18.0908 33.0575 18.0195 33.0348 17.9022C33.0065 17.752 32.8623 17.8093 32.7699 17.8121C31.9307 17.8365 31.1114 17.7201 30.2949 17.5315C29.2398 17.2875 28.3601 16.7658 27.6407 15.9653C27.5889 15.908 27.5625 15.8189 27.4409 15.8001C27.3758 16.1098 27.4192 16.4223 27.4126 16.731C27.3994 17.3804 26.9817 17.8036 26.3264 17.8065C25.5731 17.8102 24.8207 17.8093 24.0673 17.8065C23.3272 17.8046 22.885 17.3663 22.884 16.625C22.8812 14.4328 22.8859 12.2407 22.8812 10.0486C22.8793 9.24153 22.1948 8.82112 21.515 9.19836C21.1652 9.39261 21.119 9.72857 21.119 10.0767C21.1171 12.2107 21.0983 14.3437 21.1275 16.4767C21.1379 17.219 20.7324 17.8703 19.799 17.814C19.1192 17.7727 18.4347 17.7952 17.7521 17.8102C17.3862 17.8177 17.077 17.7239 16.8403 17.4442C16.7187 17.3006 16.6282 17.2997 16.5056 17.4442C16.268 17.7229 15.9597 17.8177 15.5939 17.8102C14.865 17.7952 14.1353 17.8074 13.4055 17.8055C12.7049 17.8036 12.258 17.3795 12.2288 16.6813C12.2175 16.4251 12.2269 16.168 12.2269 15.8414C11.7979 16.3397 11.3453 16.7132 10.8202 17.006C10.0687 17.4245 9.26069 17.6516 8.41306 17.7304C6.66501 17.8937 4.91129 17.7774 3.16041 17.8036C2.49758 17.813 2.05632 17.3616 2.05632 16.6982C2.05349 12.1497 2.05349 7.60118 2.05632 3.05361C2.05632 2.36669 2.52303 1.91625 3.21698 1.9125C3.94675 1.90874 4.67652 1.90874 5.40535 1.9125C6.12192 1.91625 6.57544 2.36482 6.57732 3.0705C6.58015 3.79684 6.58958 4.52411 6.57261 5.25045C6.56601 5.54323 6.66218 5.64364 6.95541 5.63144C8.05666 5.58546 9.13435 5.70745 10.1696 6.11191C10.8126 6.36341 11.3972 6.70124 11.8677 7.21267C11.961 7.31402 12.0327 7.43508 12.1147 7.54675C12.1515 7.52517 12.1892 7.50452 12.226 7.48294C12.226 7.2793 12.2326 7.07473 12.2241 6.87109C12.2128 6.56798 12.2703 6.28646 12.4645 6.04716C12.5861 5.89795 12.5786 5.76751 12.4834 5.60141C11.895 4.58605 12.06 3.47778 12.9114 2.66042C13.6676 1.93408 14.8782 1.82429 15.8154 2.39766C16.8394 3.02452 17.2061 4.44904 16.6197 5.52634C16.581 5.5986 16.5301 5.66429 16.4915 5.73655C16.4132 5.88482 16.5179 5.98804 16.6055 6.07344C16.7093 6.17479 16.7762 6.05655 16.8299 5.99179C17.077 5.69056 17.4004 5.60892 17.7747 5.62394C18.1151 5.63801 18.4592 5.60047 18.7977 5.63238C19.7339 5.72059 20.6419 5.49068 21.5612 5.4081C22.5795 5.31613 23.5478 5.49443 24.4812 5.8698C25.6457 6.33901 26.547 7.10851 27.0967 8.32939C27.3287 7.86112 27.5993 7.48763 27.9377 7.15918C28.8457 6.27801 29.9611 5.8454 31.1897 5.71308C33.0179 5.51696 34.8555 5.65866 36.6893 5.63144C37.273 5.623 37.6973 6.06687 37.7114 6.66276C37.7218 7.10757 37.7171 7.55332 37.7199 7.99907C37.7199 8.0047 37.734 8.01127 37.7501 8.0244H37.751ZM36.6394 12.3045C36.6394 10.5356 36.6366 8.76669 36.6432 6.99778C36.6432 6.78757 36.613 6.68247 36.3603 6.68528C34.9724 6.69936 33.5845 6.67496 32.1976 6.70499C31.398 6.72188 30.6079 6.84482 29.8612 7.16951C28.5629 7.73537 27.8293 8.68223 27.8227 10.1265C27.818 11.0987 27.8189 12.0709 27.8199 13.044C27.8227 14.8842 28.7288 16.0169 30.5287 16.4739C31.5668 16.7376 32.6209 16.7479 33.6797 16.7385C34.2539 16.7338 34.2389 16.7385 34.2587 17.311C34.2841 18.057 34.0531 18.6726 33.4073 19.0883C32.982 19.3614 32.4993 19.4571 32.0015 19.5012C31.3443 19.5604 30.6852 19.5303 30.0281 19.5406C29.93 19.5425 29.7707 19.4965 29.7593 19.6317C29.7348 19.9338 29.7122 20.2473 29.7707 20.5401C29.8074 20.7231 30.0677 20.7503 30.2421 20.7981C31.4282 21.1247 32.6228 21.0581 33.7976 20.7747C35.7748 20.297 36.6394 19.1672 36.6394 17.1561C36.6394 15.5392 36.6394 13.9224 36.6394 12.3055V12.3045ZM3.13683 9.85619C3.13683 12.0352 3.13778 14.2142 3.13495 16.3941C3.13495 16.5997 3.13401 16.747 3.42252 16.7442C4.75101 16.7292 6.08044 16.7564 7.40892 16.7254C8.43664 16.7019 9.44549 16.5527 10.361 16.0253C11.1709 15.5589 11.7432 14.8889 11.8573 13.9646C12.0355 12.5213 11.9554 11.0668 11.895 9.61596C11.8903 9.50053 11.8611 9.38417 11.83 9.27156C11.4783 7.99438 10.5524 7.33655 9.34461 6.97526C8.20846 6.63555 7.04215 6.68528 5.87961 6.69842C5.59581 6.70124 5.49586 6.64118 5.50246 6.33713C5.52226 5.34147 5.50246 4.34581 5.51566 3.35015C5.51943 3.09678 5.46381 2.99731 5.18755 3.00951C4.67086 3.03203 4.15323 3.01326 3.63561 3.01701C3.08215 3.02077 3.13872 2.94851 3.13872 3.49561C3.13684 5.61643 3.13872 7.73725 3.13872 9.85713L3.13683 9.85619ZM17.6559 11.718C17.6559 13.2767 17.6634 14.8364 17.6493 16.3951C17.6465 16.6785 17.7313 16.7554 18.0057 16.7432C18.4875 16.7216 18.9702 16.7376 19.453 16.7376C19.8427 16.7376 20.0375 16.5465 20.0375 16.1642C20.0413 14.0425 20.0234 11.9207 20.0592 9.79895C20.0771 8.7498 20.8211 8.06194 21.8657 8.0122C22.9887 7.95871 23.7599 8.54523 23.9325 9.59625C23.9664 9.8027 23.9645 10.0167 23.9645 10.2278C23.9664 12.2792 23.9702 14.3306 23.9608 16.3819C23.9598 16.6485 24.0173 16.7564 24.3106 16.7442C24.8744 16.7207 25.4401 16.7216 26.0049 16.7442C26.2868 16.7554 26.3575 16.6672 26.3556 16.3923C26.3443 14.2818 26.3481 12.1722 26.35 10.0617C26.3509 8.90652 25.8625 8.00188 24.9253 7.34405C23.8109 6.56141 22.5531 6.3681 21.2255 6.51918C20.6683 6.58206 20.1375 6.78757 19.5501 6.70593C19.0419 6.63555 18.5158 6.70875 17.9991 6.68435C17.7096 6.67027 17.6493 6.77162 17.6512 7.04001C17.6625 8.59871 17.6568 10.1584 17.6568 11.7171L17.6559 11.718ZM38.1272 11.8513C38.1272 12.2501 38.1159 12.6489 38.1291 13.0468C38.1809 14.5661 38.9032 15.6519 40.3014 16.2553C41.5243 16.7826 42.8066 16.8596 44.1059 16.6081C44.995 16.4354 45.0157 16.3735 44.9978 15.4914C44.9931 15.2633 44.9082 15.2183 44.7055 15.223C44.2237 15.2343 43.741 15.2258 43.2582 15.2267C42.6482 15.2267 42.0646 15.1113 41.529 14.811C41.0633 14.5492 40.704 14.1954 40.5626 13.6568C40.5107 13.4597 40.5192 13.349 40.771 13.3509C41.0765 13.3527 41.3819 13.3283 41.6865 13.3021C42.8632 13.1988 44.0201 13.0008 45.0911 12.4716C45.902 12.0709 46.5356 11.4947 46.7477 10.5769C47.0438 9.29314 46.4819 8.06006 45.3071 7.38347C44.2944 6.79977 43.1856 6.64493 42.0401 6.70405C40.1572 6.80071 38.8277 7.82827 38.3054 9.55027C38.0753 10.3066 38.1319 11.0818 38.1281 11.8531L38.1272 11.8513ZM48.2903 8.41479C48.2903 10.0204 48.2921 11.627 48.2903 13.2326C48.2884 14.5455 48.8956 15.4933 50.0421 16.1023C50.8793 16.5471 51.7977 16.6897 52.7311 16.7367C53.4524 16.7723 53.4534 16.762 53.4534 16.0638C53.4534 15.5471 53.1991 15.2587 52.6906 15.1986C51.2471 15.0278 50.6521 14.3653 50.6521 12.9295C50.6521 9.74077 50.6484 6.55203 50.6578 3.36423C50.6578 3.09021 50.5889 2.99825 50.3051 3.00951C49.7413 3.03109 49.1756 3.03109 48.6108 3.00951C48.3336 2.99825 48.2827 3.10053 48.2846 3.35109C48.295 5.0393 48.2903 6.72751 48.2903 8.41572V8.41479ZM13.3357 11.7208C13.3357 13.2908 13.3404 14.8617 13.331 16.4317C13.3301 16.6635 13.3734 16.7639 13.6355 16.7554C14.2465 16.7367 14.8594 16.7404 15.4703 16.7545C15.69 16.7592 15.7475 16.6888 15.7466 16.4748C15.74 13.2992 15.74 10.1227 15.7466 6.9471C15.7466 6.72376 15.6674 6.67027 15.46 6.67402C14.8603 6.68528 14.2597 6.69185 13.6601 6.67121C13.3885 6.66182 13.3282 6.75285 13.3301 7.00904C13.3414 8.57901 13.3357 10.1499 13.3357 11.7199V11.7208ZM15.8183 4.40212C15.8183 3.68329 15.2337 3.10335 14.5171 3.11086C13.8156 3.11743 13.2037 3.73209 13.215 4.41807C13.2273 5.09655 13.8288 5.68775 14.5152 5.69432C15.229 5.70182 15.8183 5.11719 15.8183 4.40212Z" fill="#FCFDFC"/>
<path d="M36.6395 12.3055C36.6395 13.9223 36.6395 15.5392 36.6395 17.1561C36.6395 19.1672 35.7749 20.297 33.7977 20.7747C32.6229 21.0581 31.4283 21.1247 30.2422 20.7981C30.0678 20.7503 29.8075 20.7231 29.7708 20.5401C29.7123 20.2473 29.7349 19.9338 29.7594 19.6317C29.7708 19.4965 29.9301 19.5425 30.0282 19.5406C30.6863 19.5303 31.3444 19.5604 32.0016 19.5012C32.4984 19.4571 32.9821 19.3614 33.4074 19.0883C34.0542 18.6726 34.2852 18.058 34.2588 17.311C34.239 16.7376 34.254 16.7329 33.6798 16.7385C32.621 16.7479 31.5669 16.7385 30.5288 16.4739C28.7289 16.0169 27.8219 14.8842 27.82 13.044C27.819 12.0718 27.8181 11.0996 27.8228 10.1265C27.8294 8.68223 28.5639 7.73537 29.8613 7.1695C30.6071 6.84481 31.3981 6.72188 32.1977 6.70499C33.5846 6.67496 34.9725 6.69936 36.3604 6.68528C36.6131 6.68247 36.6442 6.78757 36.6432 6.99777C36.6366 8.76669 36.6395 10.5356 36.6395 12.3045V12.3055ZM34.255 11.7321C34.255 10.6426 34.2569 9.55402 34.2531 8.46452C34.2531 8.34065 34.32 8.16141 34.0796 8.16516C33.3065 8.17643 32.5248 8.08915 31.7677 8.31719C30.8239 8.60059 30.1969 9.14299 30.2007 10.1715C30.2045 11.1784 30.1903 12.1844 30.1932 13.1913C30.196 14.2714 30.7504 14.8542 31.9026 15.1423C32.5748 15.3103 33.2574 15.2427 33.9363 15.2709C34.2163 15.2831 34.2635 15.178 34.2606 14.9283C34.2484 13.8632 34.255 12.7972 34.255 11.7311V11.7321Z" fill="#7EBA49"/>
<path d="M3.13683 9.85619C3.13683 7.73537 3.13589 5.61455 3.13683 3.49467C3.13683 2.94663 3.0812 3.01889 3.63371 3.01608C4.15134 3.01326 4.66897 3.03109 5.18566 3.00857C5.46191 2.99637 5.5166 3.09678 5.51377 3.34921C5.50057 4.34487 5.52037 5.34147 5.50057 6.33619C5.49397 6.64024 5.59391 6.7003 5.87771 6.69748C7.04026 6.68435 8.20657 6.63367 9.34271 6.97432C10.5505 7.33561 11.4764 7.99437 11.8281 9.27062C11.8592 9.38323 11.8884 9.49959 11.8931 9.61502C11.9535 11.0649 12.0336 12.5204 11.8554 13.9636C11.7413 14.888 11.169 15.558 10.3591 16.0244C9.4436 16.5518 8.4338 16.701 7.40703 16.7245C6.07854 16.7554 4.74911 16.7273 3.42063 16.7432C3.13211 16.747 3.13306 16.5987 3.13306 16.3932C3.13589 14.2142 3.13494 12.0352 3.13494 9.85525L3.13683 9.85619ZM5.51 11.7049C5.51 12.7953 5.50906 13.8848 5.51094 14.9753C5.51094 15.1057 5.46097 15.2671 5.69669 15.2671C6.47266 15.2652 7.25051 15.2962 8.00951 15.086C9.10417 14.7819 9.55109 14.2011 9.55297 13.0806C9.55391 12.1666 9.55297 11.2516 9.55297 10.3376C9.55203 9.17866 9.08343 8.59308 7.96049 8.30218C7.25334 8.11918 6.53489 8.18581 5.8202 8.16141C5.576 8.15297 5.50057 8.21959 5.5034 8.47109C5.51754 9.54933 5.50906 10.6276 5.50906 11.7058L5.51 11.7049Z" fill="#7EBA49"/>
<path d="M17.6559 11.718C17.6559 10.1593 17.6616 8.59965 17.6503 7.04094C17.6484 6.77255 17.7087 6.6712 17.9982 6.68528C18.5149 6.70968 19.041 6.63648 19.5492 6.70686C20.1366 6.78757 20.6674 6.58299 21.2246 6.52012C22.5522 6.36904 23.81 6.56235 24.9244 7.34499C25.8616 8.00376 26.351 8.90745 26.3491 10.0626C26.3472 12.1731 26.3434 14.2827 26.3547 16.3932C26.3566 16.6682 26.285 16.7564 26.004 16.7451C25.4402 16.7226 24.8735 16.7216 24.3097 16.7451C24.0164 16.7573 23.9589 16.6494 23.9599 16.3829C23.9693 14.3315 23.9655 12.2801 23.9636 10.2287C23.9636 10.0185 23.9655 9.80458 23.9316 9.59719C23.759 8.54616 22.9878 7.95871 21.8648 8.01314C20.8202 8.06288 20.0762 8.75074 20.0583 9.79989C20.0225 11.9207 20.0404 14.0434 20.0366 16.1652C20.036 16.5474 19.8412 16.7385 19.4521 16.7385C18.9693 16.7385 18.4866 16.7235 18.0048 16.7442C17.7295 16.7564 17.6456 16.6794 17.6484 16.396C17.6625 14.8373 17.655 13.2777 17.655 11.7189L17.6559 11.718Z" fill="#7EBA49"/>
<path d="M38.1273 11.8513C38.1311 11.0799 38.0745 10.3057 38.3045 9.54838C38.8269 7.82639 40.1563 6.79882 42.0392 6.70217C43.1848 6.64305 44.2936 6.79789 45.3062 7.38158C46.481 8.05912 47.0439 9.29126 46.7469 10.575C46.5347 11.4928 45.9011 12.0699 45.0903 12.4697C44.0201 12.9989 42.8633 13.1969 41.6856 13.3002C41.3811 13.3274 41.0756 13.3508 40.7701 13.349C40.5184 13.3471 40.5099 13.4588 40.5617 13.6549C40.7032 14.1926 41.0615 14.5473 41.5282 14.8091C42.0637 15.1094 42.6464 15.2258 43.2574 15.2249C43.7401 15.2249 44.2229 15.2324 44.7047 15.2211C44.9074 15.2164 44.9922 15.2624 44.9969 15.4895C45.0149 16.3716 44.9941 16.4335 44.105 16.6062C42.8067 16.8577 41.5244 16.7817 40.3006 16.2534C38.9014 15.65 38.1791 14.5642 38.1282 13.0449C38.115 12.647 38.1263 12.2482 38.1263 11.8494L38.1273 11.8513ZM40.4797 10.911C40.4797 11.1212 40.4948 11.3333 40.4759 11.5425C40.4543 11.7865 40.5589 11.8409 40.7824 11.8222C41.4848 11.764 42.1835 11.6814 42.8557 11.4599C43.2696 11.3239 43.6656 11.1484 43.9862 10.8387C44.6462 10.2015 44.6094 9.17396 43.9127 8.57806C43.4667 8.19706 42.9377 8.15671 42.3899 8.16797C41.3754 8.18862 40.6617 8.8305 40.5287 9.82615C40.4807 10.1874 40.4759 10.5478 40.4788 10.91L40.4797 10.911Z" fill="#7EBA49"/>
<path d="M48.2912 8.41479C48.2912 6.72657 48.2959 5.03836 48.2856 3.35015C48.2837 3.0996 48.3346 2.99731 48.6118 3.00857C49.1756 3.03015 49.7413 3.03015 50.3061 3.00857C50.589 2.99731 50.6587 3.08927 50.6587 3.36329C50.6493 6.55203 50.6531 9.74077 50.6531 12.9286C50.6531 14.3653 51.248 15.0269 52.6915 15.1977C53.2001 15.2577 53.4543 15.5461 53.4543 16.0629C53.4543 16.7611 53.4543 16.7723 52.7321 16.7357C51.7987 16.6888 50.8803 16.5462 50.0431 16.1014C48.8965 15.4923 48.2884 14.5455 48.2912 13.2317C48.2941 11.626 48.2912 10.0195 48.2912 8.41385V8.41479Z" fill="#7DBA47"/>
<path d="M13.3358 11.7208C13.3358 10.1509 13.3414 8.57995 13.3301 7.00997C13.3282 6.75379 13.3886 6.66276 13.6601 6.67214C14.2598 6.69279 14.8604 6.68528 15.46 6.67496C15.6675 6.67121 15.7467 6.7247 15.7467 6.94804C15.7401 10.1236 15.7401 13.3002 15.7467 16.4758C15.7467 16.6897 15.6901 16.7601 15.4704 16.7554C14.8594 16.7414 14.2466 16.7376 13.6356 16.7564C13.3744 16.7648 13.3301 16.6644 13.3311 16.4326C13.3395 14.8626 13.3358 13.2917 13.3358 11.7218V11.7208Z" fill="#7EBA48"/>
<path d="M15.8183 4.40211C15.8183 5.11718 15.229 5.70182 14.5152 5.69431C13.8288 5.6868 13.2273 5.09654 13.215 4.41806C13.2028 3.73208 13.8147 3.11742 14.5171 3.11085C15.2337 3.10334 15.8183 3.68328 15.8183 4.40211Z" fill="#7FBA4A"/>
<path d="M34.255 11.7321C34.255 12.7981 34.2474 13.8632 34.2606 14.9293C34.2634 15.1789 34.2163 15.284 33.9363 15.2718C33.2574 15.2427 32.5738 15.3112 31.9025 15.1432C30.7504 14.8551 30.196 14.2724 30.1931 13.1923C30.1903 12.1853 30.2044 11.1794 30.2007 10.1724C30.1969 9.14394 30.8239 8.60153 31.7677 8.31813C32.5248 8.09103 33.3064 8.17831 34.0796 8.16611C34.32 8.16235 34.2531 8.34159 34.2531 8.46546C34.2568 9.55496 34.255 10.6435 34.255 11.733V11.7321ZM33.1867 11.7049C33.1867 10.9898 33.1773 10.2747 33.1914 9.56059C33.1971 9.29033 33.0858 9.19086 32.836 9.23121C32.5361 9.27907 32.2297 9.31473 31.9402 9.40294C31.4707 9.54558 31.2934 9.76329 31.2906 10.1631C31.284 11.2056 31.2906 12.2492 31.2878 13.2917C31.2878 13.578 31.4122 13.7825 31.6668 13.9111C32.0543 14.1072 32.4682 14.1541 32.8963 14.1607C33.1377 14.1635 33.1933 14.0697 33.1905 13.8501C33.1801 13.135 33.1867 12.4209 33.1867 11.7058V11.7049Z" fill="#FCFDFC"/>
<path d="M5.51001 11.7049C5.51001 10.6266 5.51755 9.54839 5.50435 8.47015C5.50152 8.2196 5.57695 8.15203 5.82115 8.16048C6.53583 8.18488 7.25429 8.11825 7.96143 8.30124C9.08438 8.59215 9.55298 9.17772 9.55392 10.3367C9.55392 11.2507 9.55486 12.1656 9.55392 13.0797C9.55203 14.2001 9.10512 14.781 8.01046 15.0851C7.25146 15.2962 6.47361 15.2643 5.69763 15.2662C5.46192 15.2662 5.51189 15.1048 5.51189 14.9743C5.51001 13.8839 5.51095 12.7944 5.51095 11.7039L5.51001 11.7049ZM6.57921 11.6504C6.57921 12.389 6.58486 13.1266 6.57543 13.8651C6.57261 14.0687 6.62352 14.1635 6.84981 14.157C7.25335 14.1457 7.64181 14.0875 8.01518 13.927C8.33386 13.79 8.47812 13.5479 8.47906 13.2101C8.47906 12.2022 8.47435 11.1944 8.48189 10.1875C8.48472 9.8074 8.30086 9.56904 7.96049 9.44142C7.60692 9.3091 7.23355 9.26687 6.86018 9.22839C6.64521 9.20587 6.57261 9.29127 6.57638 9.5071C6.58675 10.2222 6.58015 10.9363 6.58015 11.6514L6.57921 11.6504Z" fill="#FDFDFD"/>
<path d="M40.4806 10.911C40.4768 10.5487 40.4825 10.1875 40.5306 9.8271C40.6635 8.83144 41.3773 8.18863 42.3918 8.16892C42.9396 8.15766 43.4685 8.19801 43.9145 8.57901C44.6103 9.1749 44.648 10.2025 43.988 10.8397C43.6675 11.1493 43.2715 11.3248 42.8575 11.4609C42.1853 11.6814 41.4866 11.7649 40.7842 11.8231C40.5607 11.8419 40.4561 11.7875 40.4778 11.5435C40.4966 11.3342 40.4815 11.1231 40.4815 10.9119L40.4806 10.911ZM41.5856 10.2372C41.6601 10.3489 41.4565 10.651 41.7704 10.6088C42.2692 10.5412 42.7623 10.4024 43.1838 10.1067C43.4525 9.91907 43.4374 9.50804 43.1517 9.37478C42.767 9.19555 42.3531 9.16176 41.9656 9.3654C41.629 9.54276 41.6083 9.88716 41.5856 10.2372Z" fill="#FBFDFB"/>
<path d="M33.1867 11.7049C33.1867 12.4199 33.1801 13.135 33.1905 13.8491C33.1933 14.0687 33.1377 14.1635 32.8963 14.1598C32.4673 14.1541 32.0534 14.1063 31.6669 13.9101C31.4123 13.7816 31.2878 13.577 31.2878 13.2908C31.2897 12.2482 31.2841 11.2047 31.2907 10.1621C31.2935 9.76234 31.4707 9.54463 31.9403 9.40199C32.2297 9.31472 32.5352 9.27906 32.836 9.23026C33.0859 9.18991 33.1971 9.28938 33.1915 9.55965C33.1773 10.2738 33.1867 10.9889 33.1867 11.7039V11.7049Z" fill="#9FD3F6"/>
<path d="M6.57929 11.6495C6.57929 10.9344 6.58589 10.2203 6.57551 9.50521C6.57269 9.28938 6.64529 9.20492 6.85932 9.2265C7.23269 9.26498 7.60606 9.30721 7.95963 9.43952C8.3 9.56715 8.48386 9.80457 8.48103 10.1856C8.47443 11.1934 8.47914 12.2013 8.4782 13.2082C8.4782 13.546 8.333 13.7881 8.01432 13.9252C7.64189 14.0856 7.25249 14.1429 6.84894 14.1551C6.62266 14.1616 6.57174 14.0678 6.57457 13.8632C6.58306 13.1247 6.57834 12.3871 6.57834 11.6486L6.57929 11.6495Z" fill="#9ED3F6"/>
<path d="M41.5857 10.2363C41.6083 9.88716 41.6291 9.54182 41.9657 9.36446C42.3532 9.16083 42.7671 9.19367 43.1518 9.37385C43.4375 9.5071 43.4526 9.91813 43.1838 10.1058C42.7624 10.4005 42.2693 10.5394 41.7705 10.6079C41.4575 10.6501 41.6611 10.3489 41.5857 10.2363Z" fill="#9FD3F6"/>
</g>
<defs>
<clipPath id="clip0_840_3745">
<rect width="56.5714" height="24" fill="white"/>
</clipPath>
</defs>
</svg>
