<svg width="16" height="17" viewBox="0 0 16 17" fill="none" xmlns="http://www.w3.org/2000/svg">
<path d="M11 3V3.125C11 3.625 10.5938 4 10.0938 4H5.875C5.375 4 5 3.625 5 3.125V3C5 1.34375 6.3125 0 8 0C9.65625 0 11 1.34375 11 3ZM1.21875 3.21875C1.5 2.9375 1.96875 2.9375 2.25 3.21875L4.53125 5.5C5.03125 5.1875 5.59375 5 6.25 5H9.75C10.375 5 10.9375 5.1875 11.4375 5.5L13.7188 3.21875C14 2.9375 14.4688 2.9375 14.75 3.21875C15.0625 3.53125 15.0625 4 14.75 4.28125L12.5 6.5625C12.8125 7.0625 13 7.625 13 8.25H15.25C15.6562 8.25 16 8.59375 16 9C16 9.4375 15.6562 9.75 15.25 9.75H13V10C13 10.875 12.7812 11.6562 12.4062 12.375L14.75 14.7188C15.0625 15.0312 15.0625 15.5 14.75 15.7812C14.4688 16.0938 14 16.0938 13.7188 15.7812L11.5 13.5938C10.5938 14.4688 9.34375 15 8 15C6.625 15 5.375 14.4688 4.46875 13.5938L2.25 15.7812C1.96875 16.0938 1.5 16.0938 1.21875 15.7812C0.90625 15.5 0.90625 15.0312 1.21875 14.7188L3.5625 12.375C3.1875 11.6562 3 10.875 3 10V9.75H0.75C0.3125 9.75 0 9.4375 0 9C0 8.59375 0.3125 8.25 0.75 8.25H3C3 7.625 3.15625 7.0625 3.46875 6.5625L1.21875 4.28125C0.90625 4 0.90625 3.53125 1.21875 3.21875ZM4.5 10C4.5 11.6875 5.65625 13.0938 7.25 13.4375V8.75C7.25 8.34375 7.5625 8 8 8C8.40625 8 8.75 8.34375 8.75 8.75V13.4375C10.3125 13.0938 11.5 11.6875 11.5 10V8.25C11.5 7.3125 10.6875 6.5 9.75 6.5H6.25C5.28125 6.5 4.5 7.3125 4.5 8.25V10Z" fill="#3366FF"/>
</svg>
