<svg width="100" height="23" viewBox="0 0 100 23" fill="none" xmlns="http://www.w3.org/2000/svg">
<g clip-path="url(#clip0_840_3764)">
<path d="M60.4062 9.90968C60.4062 8.44887 60.4062 7.12792 60.4062 5.81216C60.4062 4.94189 60.8396 4.44977 61.5915 4.45495C62.3329 4.46013 62.7663 4.95225 62.7663 5.83288C62.7663 9.55743 62.7663 13.282 62.7663 17.0117C62.7663 18.1047 62.3799 18.6383 61.5915 18.6435C60.8187 18.6486 60.4375 18.1513 60.3905 17.0946C60.2913 17.0428 60.2391 17.1101 60.1921 17.1723C58.1401 19.8867 53.6654 19.0423 52.5115 15.5613C51.8954 13.7016 52.0207 11.8833 53.1015 10.1998C54.4747 8.06036 58.0514 7.18491 60.4062 9.9045V9.90968ZM60.4323 13.4685C60.4323 11.6917 59.2732 10.3448 57.6441 10.2205C56.1195 10.1013 54.835 11.2047 54.5583 12.8727C54.2711 14.5874 55.2005 16.2295 56.6834 16.6387C58.6466 17.1827 60.4375 15.67 60.4323 13.4685Z" fill="#AE1B40"/>
<path d="M76.8066 11.4896C76.8119 5.10766 82.0071 -0.0155358 88.4608 4.74404e-06C94.8465 0.0155453 100.01 5.18019 100 11.5466C99.9896 17.8872 94.7891 23.0104 88.3772 23C81.9706 22.9896 76.8066 17.8509 76.8119 11.4896H76.8066ZM77.7935 11.5C77.7935 17.3432 82.5293 22.0313 88.4138 22.021C94.2722 22.0158 98.9923 17.3381 99.008 11.5311C99.0236 5.69302 94.2931 0.979059 88.4138 0.979059C82.5188 0.979059 77.7883 5.66194 77.7883 11.5H77.7935Z" fill="#AF1E42"/>
<path d="M47.1596 14.2973C46.1988 14.2973 45.2381 14.3284 44.2774 14.2869C43.7396 14.261 43.7709 14.4786 43.8857 14.8568C44.4027 16.53 46.2145 17.3173 48.0054 16.6387C48.3761 16.4989 48.7051 16.2813 49.0288 16.0482C49.5614 15.67 50.0783 15.7011 50.4229 16.1155C50.778 16.5455 50.6997 17.1101 50.2036 17.5401C47.7966 19.6432 42.9093 19.2081 41.6667 15.2194C40.7581 12.3029 42.2462 9.24144 44.9614 8.41779C48.1621 7.44391 51.3053 9.78535 51.2583 13.111C51.2479 13.8673 50.8302 14.2818 50.0418 14.2921C49.081 14.3025 48.1203 14.2921 47.1596 14.2921V14.2973ZM46.3189 12.7847C47.0081 12.7847 47.7026 12.7484 48.3866 12.795C48.9609 12.8365 48.987 12.6034 48.8722 12.1527C48.538 10.8732 47.5303 10.0444 46.3189 10.091C45.071 10.1376 43.9902 11.1685 43.7865 12.4531C43.7343 12.795 43.8962 12.7795 44.1259 12.7795C44.8569 12.7795 45.5879 12.7795 46.3189 12.7795V12.7847Z" fill="#AD1A3F"/>
<path d="M71.5278 17.1153C70.6349 18.3068 69.528 18.8455 68.1234 18.7678C66.2437 18.6694 64.9018 17.3795 64.8183 15.38C64.7347 13.4167 64.7817 11.443 64.7974 9.47974C64.7974 8.80631 65.3143 8.33492 65.9461 8.32974C66.6301 8.32456 67.1313 8.81667 67.1418 9.57298C67.1627 10.9198 67.147 12.2667 67.147 13.6135C67.147 13.9036 67.147 14.1937 67.1574 14.4838C67.2201 15.8514 68.0138 16.6543 69.293 16.6595C70.5722 16.6595 71.5069 15.7996 71.5486 14.489C71.5956 12.9764 71.5643 11.4637 71.5695 9.95113C71.5695 9.76465 71.5591 9.57816 71.5852 9.39167C71.6792 8.72861 72.1961 8.28829 72.8279 8.32974C73.4336 8.366 73.8983 8.83221 73.9244 9.47456C73.9505 10.034 73.9296 10.5935 73.9296 11.1529C73.9296 13.1421 73.9296 15.1313 73.9296 17.1205C73.9296 18.084 73.5641 18.5969 72.8383 18.6487C72.0917 18.6953 71.6478 18.2187 71.5225 17.1205L71.5278 17.1153Z" fill="#AD1B40"/>
<path d="M33.3437 14.9914C35.2965 12.9608 37.1397 11.0441 38.9828 9.12748C39.1134 8.9928 39.2439 8.85811 39.3744 8.72861C39.5624 8.5473 39.7817 8.50586 39.9905 8.68199C40.2203 8.87883 40.2151 9.1223 40.0271 9.33987C39.8078 9.58852 39.5676 9.81645 39.3327 10.0547C38.5025 10.9043 37.6984 11.7694 36.8368 12.5878C36.4766 12.9297 36.44 13.1421 36.7742 13.5358C37.8602 14.8205 38.8993 16.1466 39.954 17.4572C40.0323 17.5556 40.1106 17.6489 40.189 17.7473C40.3978 18.0167 40.5284 18.3068 40.2046 18.5554C39.907 18.7833 39.6616 18.6072 39.458 18.3586C38.988 17.7784 38.5181 17.193 38.0482 16.6128C37.3694 15.7737 36.6802 14.9396 36.0223 14.0849C35.7926 13.7896 35.6464 13.7845 35.4114 14.059C35.1817 14.3284 34.9467 14.5978 34.6647 14.8101C33.61 15.6131 33.0827 16.6128 33.3333 17.9597C33.3959 18.286 33.3176 18.6228 32.8947 18.6383C32.4248 18.6538 32.3934 18.2912 32.3934 17.9441C32.3934 13.655 32.3934 9.37095 32.3934 5.08176C32.3934 4.73469 32.4143 4.35654 32.879 4.37208C33.3281 4.38762 33.3437 4.75023 33.3437 5.10766C33.3437 8.15361 33.3437 11.1996 33.3437 14.2403C33.3437 14.4423 33.3437 14.6444 33.3437 14.9914Z" fill="#272124"/>
<path d="M20.6663 13.5824C20.7864 11.4793 21.6844 9.8009 23.6842 8.90473C25.6579 8.01374 27.5063 8.39707 29.151 9.775C29.4382 10.0133 29.7254 10.2878 29.4173 10.6556C29.1092 11.0234 28.8012 10.8007 28.5088 10.5468C26.958 9.21036 25.3498 8.96689 23.7991 9.82162C22.3006 10.6453 21.4338 12.5257 21.7419 14.2766C22.0813 16.214 23.3239 17.5245 25.1567 17.8354C26.5194 18.0685 27.642 17.5453 28.6341 16.6595C28.7855 16.5196 28.916 16.3331 29.1458 16.3279C29.3233 16.3227 29.4695 16.4263 29.5478 16.5818C29.6679 16.8149 29.5687 17.0065 29.4016 17.193C27.9449 18.8144 25.3446 19.2651 23.3814 18.198C21.5696 17.2137 20.755 15.6234 20.6663 13.5876V13.5824Z" fill="#241E21"/>
<path d="M5.03854 8.45406C6.39611 8.45406 7.55525 8.94617 8.55254 9.84234C8.82927 10.0858 9.02246 10.3655 8.71962 10.6867C8.44811 10.9768 8.15571 10.8473 7.89986 10.6038C7.83721 10.5468 7.77977 10.4899 7.71712 10.4381C6.48487 9.37095 5.08554 8.99279 3.54523 9.63514C1.94748 10.2982 1.16428 11.6036 1.03896 13.2716C0.861436 15.582 2.33387 17.4986 4.52685 17.8509C5.88963 18.0685 7.01223 17.5349 7.99385 16.6387C8.17138 16.4782 8.3228 16.2399 8.63086 16.3694C9.01202 16.5248 9.02768 16.8977 8.65174 17.2604C7.25763 18.6176 5.59201 19.0993 3.71231 18.5917C1.82217 18.0788 0.642137 16.789 0.172213 14.9293C-0.668431 11.6347 1.74907 8.45924 5.04377 8.45924L5.03854 8.45406Z" fill="#241E21"/>
<path d="M12.7976 11.6036C12.7976 13.6964 12.7976 15.784 12.7976 17.8768C12.7976 18.2394 12.8289 18.6435 12.312 18.6331C11.8421 18.6228 11.8473 18.2446 11.8473 17.9027C11.8473 13.6809 11.8473 9.45901 11.8473 5.23716C11.8473 4.89527 11.8473 4.50676 12.312 4.50676C12.8028 4.50676 12.8028 4.90045 12.8028 5.27343C12.8028 7.38694 12.8028 9.49527 12.8028 11.6088L12.7976 11.6036Z" fill="#2B2528"/>
<path d="M17.5595 13.5928C17.5595 15.0173 17.5595 16.4471 17.5595 17.8716C17.5595 18.229 17.5908 18.6383 17.0739 18.6331C16.6092 18.6331 16.604 18.2498 16.604 17.9079C16.604 15.0329 16.604 12.1631 16.604 9.28806C16.604 8.94099 16.6249 8.56801 17.0948 8.58355C17.5543 8.59909 17.5595 8.96689 17.5595 9.31396C17.5595 10.7385 17.5595 12.1682 17.5595 13.5928Z" fill="#2B2528"/>
<path d="M16.4839 5.58424C16.4839 5.2009 16.5935 4.86937 17.0478 4.85383C17.5125 4.84347 17.6848 5.13356 17.69 5.5687C17.6952 6.00901 17.5125 6.30428 17.0635 6.30428C16.6249 6.30428 16.4839 5.97793 16.4891 5.58424H16.4839Z" fill="#272124"/>
<path d="M60.4271 13.4685C60.4271 15.67 58.6414 17.1827 56.6782 16.6387C55.1953 16.2295 54.2659 14.5874 54.5531 12.8727C54.8298 11.1995 56.1143 10.1013 57.6389 10.2205C59.268 10.35 60.4271 11.6917 60.4271 13.4685Z" fill="#FDFCFC"/>
<path d="M77.7935 11.5C77.7935 5.66194 82.524 0.973874 88.419 0.979054C94.2983 0.979054 99.0288 5.6982 99.0132 11.5311C98.9975 17.3381 94.2774 22.0158 88.419 22.0209C82.5293 22.0261 77.7987 17.3381 77.7987 11.5H77.7935ZM83.2185 11.4948C83.2185 12.8002 83.2185 14.1056 83.2185 15.411C83.2185 15.6182 83.1976 15.8514 83.443 15.9394C83.6466 16.0171 83.7981 15.8721 83.9442 15.7581C85.4689 14.5356 86.9988 13.3131 88.513 12.0802C88.9986 11.6813 88.9933 11.3498 88.513 10.9613C87.0092 9.74392 85.495 8.53694 83.986 7.32995C83.8242 7.20045 83.6623 7.01396 83.4378 7.10721C83.1819 7.21599 83.2237 7.48536 83.2237 7.70811C83.2237 8.97207 83.2237 10.236 83.2237 11.5L83.2185 11.4948ZM90.0585 11.5414C90.0585 12.8054 90.0585 14.0694 90.0585 15.3282C90.0585 15.5405 89.9697 15.8203 90.2412 15.9342C90.4919 16.043 90.6642 15.8306 90.8417 15.6908C92.3193 14.5097 93.797 13.3286 95.2694 12.1372C95.8229 11.6865 95.8177 11.3601 95.2485 10.8939C93.7761 9.70766 92.2985 8.52658 90.8208 7.3455C90.6485 7.21081 90.4814 6.98806 90.2256 7.12793C90.0063 7.24707 90.0689 7.49572 90.0689 7.69257C90.0637 8.97725 90.0689 10.2568 90.0689 11.5414H90.0585Z" fill="#FDFDFD"/>
<path d="M46.319 12.7847C45.588 12.7847 44.857 12.7847 44.126 12.7847C43.9015 12.7847 43.7344 12.8002 43.7866 12.4583C43.9902 11.1685 45.0658 10.1428 46.319 10.0962C47.5251 10.0495 48.5328 10.8732 48.8722 12.1579C48.9923 12.6034 48.9662 12.8417 48.3866 12.8002C47.7026 12.7484 47.0082 12.7899 46.319 12.7899V12.7847Z" fill="#FCF8F9"/>
<path d="M83.2237 11.4948C83.2237 10.2309 83.2237 8.96689 83.2237 7.70292C83.2237 7.48018 83.1767 7.21599 83.4378 7.10202C83.6623 7.0036 83.8242 7.19527 83.9861 7.32477C85.495 8.53175 87.0092 9.73874 88.513 10.9561C88.9986 11.3498 89.0038 11.6813 88.513 12.075C86.9988 13.3131 85.4689 14.5304 83.9443 15.7529C83.7981 15.8669 83.6467 16.0119 83.443 15.9342C83.1976 15.841 83.2237 15.6079 83.2185 15.4059C83.2185 14.1004 83.2185 12.795 83.2185 11.4896L83.2237 11.4948Z" fill="#201A1D"/>
<path d="M90.0637 11.5414C90.0637 10.2568 90.0637 8.97207 90.0637 7.69256C90.0637 7.49571 90.001 7.24707 90.2203 7.12792C90.4762 6.98806 90.6432 7.2108 90.8156 7.34549C92.2932 8.52657 93.7709 9.70765 95.2433 10.8939C95.8176 11.3549 95.8229 11.6865 95.2642 12.1372C93.7917 13.3286 92.3141 14.5097 90.8364 15.6908C90.6641 15.8306 90.4918 16.043 90.236 15.9342C89.9645 15.8203 90.0585 15.5405 90.0532 15.3281C90.0428 14.0642 90.0532 12.8002 90.0532 11.5414H90.0637Z" fill="#1F191C"/>
</g>
<defs>
<clipPath id="clip0_840_3764">
<rect width="100" height="23" fill="white"/>
</clipPath>
</defs>
</svg>
