<svg width="100" height="23" viewBox="0 0 100 23" fill="none" xmlns="http://www.w3.org/2000/svg">
<mask id="mask0_842_3934" style="mask-type:luminance" maskUnits="userSpaceOnUse" x="96" y="13" width="4" height="5">
<path d="M99.4297 17.1134C99.0495 17.4983 98.5927 17.6916 98.0591 17.6916C97.5256 17.6916 97.0687 17.4983 96.6886 17.1134C96.3084 16.7284 96.1183 16.2656 96.1183 15.7263C96.1183 15.1871 96.3084 14.7243 96.6886 14.3393C97.0687 13.9544 97.5256 13.7611 98.0591 13.7611C98.5927 13.7611 99.0495 13.9544 99.4297 14.3393C99.8099 14.7243 100 15.1871 100 15.7263C100 16.2656 99.8099 16.7284 99.4297 17.1134Z" fill="white"/>
</mask>
<g mask="url(#mask0_842_3934)">
<mask id="mask1_842_3934" style="mask-type:luminance" maskUnits="userSpaceOnUse" x="-174" y="-153" width="448" height="2084">
<path d="M273.577 -152.289H-173.575V1930.58H273.577V-152.289Z" fill="white"/>
</mask>
<g mask="url(#mask1_842_3934)">
<path d="M100.406 13.3637H95.7095V18.0889H100.406V13.3637Z" fill="#FF8205"/>
</g>
</g>
<mask id="mask2_842_3934" style="mask-type:luminance" maskUnits="userSpaceOnUse" x="89" y="4" width="8" height="14">
<path d="M92.4407 7.22654C92.7314 6.4551 93.2106 5.87692 93.8799 5.49198C94.5493 5.10704 95.2953 4.91379 96.1163 4.91379V8.38291C95.1643 8.2707 94.3144 8.46395 93.5652 8.9611C92.8161 9.45824 92.4407 10.2858 92.4407 11.4422V17.1991H89.3209V5.15379H92.4407V7.22498V7.22654Z" fill="white"/>
</mask>
<g mask="url(#mask2_842_3934)">
<mask id="mask3_842_3934" style="mask-type:luminance" maskUnits="userSpaceOnUse" x="-174" y="-153" width="448" height="2084">
<path d="M273.577 -152.289H-173.575V1930.58H273.577V-152.289Z" fill="white"/>
</mask>
<g mask="url(#mask3_842_3934)">
<path d="M96.5221 4.51797H88.9136V17.5965H96.5221V4.51797Z" fill="#1F97F9"/>
</g>
</g>
<mask id="mask4_842_3934" style="mask-type:luminance" maskUnits="userSpaceOnUse" x="74" y="4" width="13" height="14">
<path d="M77.567 12.5861C77.9903 14.1025 79.1372 14.8615 81.0094 14.8615C82.2138 14.8615 83.1244 14.4578 83.7442 13.6521L86.2825 15.1046C85.078 16.8314 83.3049 17.6932 80.9599 17.6932C78.9423 17.6932 77.3226 17.0885 76.1021 15.8776C74.8817 14.6682 74.2715 13.144 74.2715 11.3035C74.2715 9.46297 74.8737 7.96063 76.0782 6.74191C77.2826 5.52476 78.8289 4.91541 80.7171 4.91541C82.5078 4.91541 83.9838 5.52944 85.1483 6.75438C86.3112 7.98089 86.8943 9.49726 86.8943 11.3035C86.8943 11.7071 86.8543 12.1342 86.7729 12.5861H77.5686H77.567ZM77.5174 10.1658H83.7426C83.5637 9.34298 83.1931 8.7305 82.6324 8.32686C82.0717 7.92323 81.4327 7.72218 80.7155 7.72218C79.8688 7.72218 79.1692 7.93569 78.6165 8.36271C78.0638 8.78972 77.6963 9.39129 77.5174 10.1658Z" fill="white"/>
</mask>
<g mask="url(#mask4_842_3934)">
<mask id="mask5_842_3934" style="mask-type:luminance" maskUnits="userSpaceOnUse" x="-174" y="-153" width="448" height="2084">
<path d="M273.577 -152.289H-173.575V1930.58H273.577V-152.289Z" fill="white"/>
</mask>
<g mask="url(#mask5_842_3934)">
<path d="M87.3 4.51801H73.8657V18.0875H87.3V4.51801Z" fill="#1F97F9"/>
</g>
</g>
<mask id="mask6_842_3934" style="mask-type:luminance" maskUnits="userSpaceOnUse" x="65" y="1" width="9" height="17">
<path d="M73.3007 8.41254H70.633V13.4915C70.633 13.9154 70.7353 14.224 70.9397 14.4188C71.1442 14.6136 71.4429 14.7243 71.8359 14.7477C72.2288 14.7726 72.7176 14.7679 73.2991 14.7352V17.5918C71.2065 17.8365 69.7305 17.6324 68.8727 16.9809C68.0149 16.3295 67.5868 15.1669 67.5868 13.49V8.41098H65.5325V5.3829H67.5868V2.91742L70.6314 1.96521V5.3829H73.2991V8.41098L73.3007 8.41254Z" fill="white"/>
</mask>
<g mask="url(#mask6_842_3934)">
<mask id="mask7_842_3934" style="mask-type:luminance" maskUnits="userSpaceOnUse" x="-174" y="-153" width="448" height="2084">
<path d="M273.577 -152.289H-173.575V1930.58H273.577V-152.289Z" fill="white"/>
</mask>
<g mask="url(#mask7_842_3934)">
<path d="M73.7078 1.56934H65.1281V18.2323H73.7078V1.56934Z" fill="#1F97F9"/>
</g>
</g>
<mask id="mask8_842_3934" style="mask-type:luminance" maskUnits="userSpaceOnUse" x="54" y="4" width="11" height="14">
<path d="M58.4687 8.68998C58.4687 9.01258 58.6779 9.27441 59.0949 9.47701C59.5118 9.6796 60.0198 9.85571 60.6188 10.01C61.2162 10.1627 61.8153 10.3575 62.4143 10.5913C63.0133 10.8251 63.5213 11.2162 63.9382 11.7648C64.3552 12.3134 64.5644 12.9991 64.5644 13.822C64.5644 15.0641 64.1124 16.021 63.2066 16.6895C62.3009 17.3581 61.1715 17.6932 59.8169 17.6932C57.392 17.6932 55.7387 16.7332 54.8569 14.8132L57.5023 13.289C57.8489 14.3378 58.6204 14.8615 59.8169 14.8615C60.9032 14.8615 61.4463 14.5155 61.4463 13.8204C61.4463 13.4978 61.237 13.236 60.8201 13.0334C60.4032 12.8324 59.8952 12.65 59.2961 12.4895C58.6971 12.329 58.0997 12.1264 57.5007 11.8848C56.9016 11.6433 56.3936 11.2599 55.9767 10.7347C55.5598 10.211 55.3505 9.55337 55.3505 8.76323C55.3505 7.56945 55.7786 6.62971 56.638 5.94399C57.4959 5.25827 58.5629 4.91541 59.8393 4.91541C60.7993 4.91541 61.6731 5.13671 62.4606 5.58087C63.2482 6.02503 63.8695 6.65776 64.3264 7.48062L61.7274 8.9331C61.3488 8.11024 60.7194 7.69881 59.8377 7.69881C59.4431 7.69881 59.1172 7.78764 58.8569 7.9653C58.5965 8.14297 58.4671 8.38453 58.4671 8.69154" fill="white"/>
</mask>
<g mask="url(#mask8_842_3934)">
<mask id="mask9_842_3934" style="mask-type:luminance" maskUnits="userSpaceOnUse" x="-174" y="-153" width="448" height="2084">
<path d="M273.577 -152.289H-173.575V1930.58H273.577V-152.289Z" fill="white"/>
</mask>
<g mask="url(#mask9_842_3934)">
<path d="M64.9703 4.51801H54.4481V18.0875H64.9703V4.51801Z" fill="#1F97F9"/>
</g>
</g>
<mask id="mask10_842_3934" style="mask-type:luminance" maskUnits="userSpaceOnUse" x="49" y="0" width="5" height="18">
<path d="M51.4447 3.80419C50.9239 3.80419 50.4719 3.61718 50.0885 3.24159C49.7051 2.86756 49.515 2.42496 49.515 1.91378C49.515 1.40261 49.7067 0.956895 50.0885 0.573515C50.4703 0.190135 50.9223 0 51.4447 0C51.967 0 52.4415 0.191694 52.8249 0.573515C53.2066 0.956895 53.3983 1.40261 53.3983 1.91378C53.3983 2.42496 53.2066 2.86756 52.8249 3.24159C52.4415 3.61718 51.983 3.80419 51.4447 3.80419ZM49.8808 17.2007H53.0309V5.23953H49.8808V17.2007Z" fill="white"/>
</mask>
<g mask="url(#mask10_842_3934)">
<mask id="mask11_842_3934" style="mask-type:luminance" maskUnits="userSpaceOnUse" x="-174" y="-153" width="448" height="2084">
<path d="M273.577 -152.289H-173.575V1930.58H273.577V-152.289Z" fill="white"/>
</mask>
<g mask="url(#mask11_842_3934)">
<path d="M53.8042 -0.395844H49.1078V17.5965H53.8042V-0.395844Z" fill="#1F97F9"/>
</g>
</g>
<mask id="mask12_842_3934" style="mask-type:luminance" maskUnits="userSpaceOnUse" x="34" y="4" width="14" height="19">
<path d="M44.1143 5.25511H47.0871V16.822C47.0871 18.7015 46.4849 20.1352 45.2821 21.1233C44.0792 22.1114 42.6287 22.6054 40.9291 22.6054C39.6544 22.6054 38.5346 22.3545 37.5681 21.8527C36.6001 21.3508 35.8573 20.6137 35.3381 19.6412L37.9323 18.1108C38.5298 19.2438 39.5601 19.8126 41.0233 19.8126C41.9818 19.8126 42.7374 19.5539 43.2885 19.035C43.838 18.516 44.1143 17.7789 44.1143 16.8235V15.5113C43.2182 16.7425 41.9594 17.3581 40.3396 17.3581C38.7199 17.3581 37.2758 16.755 36.1528 15.5471C35.0282 14.3409 34.4659 12.8697 34.4659 11.1367C34.4659 9.40372 35.0314 7.9528 36.164 6.73877C37.2966 5.52317 38.6879 4.91693 40.3396 4.91693C41.9914 4.91693 43.2182 5.53252 44.1143 6.7637V5.25667V5.25511ZM38.4403 13.529C39.0617 14.1523 39.8524 14.464 40.8109 14.464C41.7693 14.464 42.5601 14.1523 43.1814 13.529C43.8028 12.9056 44.1127 12.1076 44.1127 11.1352C44.1127 10.1627 43.8028 9.38969 43.1814 8.76631C42.5601 8.14293 41.7693 7.83124 40.8109 7.83124C39.8524 7.83124 39.0617 8.14293 38.4403 8.76631C37.8189 9.38969 37.509 10.1798 37.509 11.1352C37.509 12.0905 37.8189 12.9056 38.4403 13.529Z" fill="white"/>
</mask>
<g mask="url(#mask12_842_3934)">
<mask id="mask13_842_3934" style="mask-type:luminance" maskUnits="userSpaceOnUse" x="-174" y="-153" width="448" height="2084">
<path d="M273.577 -152.289H-173.575V1930.58H273.577V-152.289Z" fill="white"/>
</mask>
<g mask="url(#mask13_842_3934)">
<path d="M47.4944 4.51794H34.0602V23.0028H47.4944V4.51794Z" fill="#1F97F9"/>
</g>
</g>
<mask id="mask14_842_3934" style="mask-type:luminance" maskUnits="userSpaceOnUse" x="19" y="4" width="14" height="14">
<path d="M28.9964 5.25356H32.0395V17.3534H28.9964V15.9259C28.0843 17.104 26.8032 17.6931 25.1515 17.6931C23.4997 17.6931 22.2298 17.076 21.1052 15.8417C19.9806 14.6074 19.4183 13.0957 19.4183 11.305C19.4183 9.51437 19.9806 8.00267 21.1052 6.76838C22.2298 5.53408 23.578 4.91693 25.1515 4.91693C26.8032 4.91693 28.0843 5.50602 28.9964 6.68266V5.25511V5.25356ZM23.3815 13.7596C23.9949 14.397 24.7729 14.7149 25.7169 14.7149C26.661 14.7149 27.4422 14.397 28.0636 13.7596C28.6849 13.1222 28.9948 12.304 28.9948 11.3035C28.9948 10.3029 28.6849 9.48476 28.0636 8.84735C27.4422 8.20995 26.6594 7.89202 25.7169 7.89202C24.7745 7.89202 23.9949 8.2115 23.3815 8.84735C22.7681 9.48476 22.4614 10.3029 22.4614 11.3035C22.4614 12.304 22.7681 13.1222 23.3815 13.7596Z" fill="white"/>
</mask>
<g mask="url(#mask14_842_3934)">
<mask id="mask15_842_3934" style="mask-type:luminance" maskUnits="userSpaceOnUse" x="-174" y="-153" width="448" height="2084">
<path d="M273.577 -152.289H-173.575V1930.58H273.577V-152.289Z" fill="white"/>
</mask>
<g mask="url(#mask15_842_3934)">
<path d="M32.4451 4.51794H19.0109V18.0874H32.4451V4.51794Z" fill="#1F97F9"/>
</g>
</g>
<mask id="mask16_842_3934" style="mask-type:luminance" maskUnits="userSpaceOnUse" x="0" y="1" width="19" height="17">
<path d="M0 17.6916L2.89772 1.4743H4.18044L9.22348 9.58294L14.3512 1.4743H15.6675L18.447 17.6916H15.0093L13.495 9.02034L9.94072 14.6386H8.5909L5.00311 9.12008L3.68684 17.6916H0Z" fill="white"/>
</mask>
<g mask="url(#mask16_842_3934)">
<mask id="mask17_842_3934" style="mask-type:luminance" maskUnits="userSpaceOnUse" x="-174" y="-153" width="448" height="2084">
<path d="M273.577 -152.289H-173.575V1930.58H273.577V-152.289Z" fill="white"/>
</mask>
<g mask="url(#mask17_842_3934)">
<path d="M18.8542 1.07846H-0.405884V18.089H18.8542V1.07846Z" fill="#1F97F9"/>
</g>
</g>
</svg>
