<svg width="20" height="16" viewBox="0 0 20 16" fill="none" xmlns="http://www.w3.org/2000/svg">
<path d="M5.875 7C5.875 6.65625 6.125 6.375 6.5 6.375C6.84375 6.375 7.125 6.65625 7.125 7C7.125 7.34375 6.84375 7.625 6.5 7.625C6.125 7.625 5.875 7.34375 5.875 7ZM5.96875 2.25H6.90625C7.71875 2.25 8.40625 2.9375 8.40625 3.75C8.40625 4.3125 8.09375 4.8125 7.5625 5.0625L6.96875 5.375V5.5C6.96875 5.78125 6.75 6 6.46875 6C6.21875 6 5.96875 5.78125 5.96875 5.5V5.0625C5.96875 4.875 6.09375 4.6875 6.25 4.625L7.125 4.1875C7.28125 4.09375 7.40625 3.9375 7.40625 3.75C7.40625 3.46875 7.1875 3.25 6.90625 3.25H5.96875C5.75 3.25 5.5625 3.4375 5.5625 3.65625C5.5625 3.9375 5.34375 4.15625 5.0625 4.15625C4.78125 4.15625 4.5625 3.9375 4.5625 3.65625C4.5625 2.875 5.1875 2.25 5.96875 2.25ZM11 10H7L3.59375 11.9375C3.5 12 3.4375 12 3.375 12C3.15625 12 3 11.875 3 11.625V10H2C0.875 10 0 9.125 0 8V2C0 0.90625 0.875 0 2 0H11C12.0938 0 13 0.90625 13 2V8C13 9.125 12.0938 10 11 10ZM11 8.5C11.25 8.5 11.5 8.28125 11.5 8V2C11.5 1.75 11.25 1.5 11 1.5H2C1.71875 1.5 1.5 1.75 1.5 2V8C1.5 8.28125 1.71875 8.5 2 8.5H4.5V9.71875L6.59375 8.5H11ZM9.5 11V12C9.5 12.2812 9.71875 12.5 10 12.5H13.375L15.5 13.7188V12.5H18C18.25 12.5 18.5 12.2812 18.5 12V6C18.5 5.75 18.25 5.5 18 5.5H14V4H18C19.0938 4 20 4.90625 20 6V12C20 13.125 19.0938 14 18 14H17V15.625C17 15.875 16.8125 16 16.625 16C16.5312 16 16.4688 16 16.375 15.9375L13 14H10C8.875 14 8 13.125 8 12V11H9.5Z" fill="#FEFEFE"/>
</svg>
