<svg width="14" height="14" viewBox="0 0 14 14" fill="none" xmlns="http://www.w3.org/2000/svg">
<path d="M2.9375 8.875C2.9375 9.65625 2.25 10.3438 1.46875 10.3438C0.65625 10.3438 0 9.65625 0 8.875C0 8.0625 0.65625 7.40625 1.46875 7.40625H2.9375V8.875ZM3.65625 8.875C3.65625 8.0625 4.34375 7.40625 5.125 7.40625C5.9375 7.40625 6.59375 8.0625 6.59375 8.875V12.5312C6.59375 13.3438 5.9375 14 5.125 14C4.34375 14 3.65625 13.3438 3.65625 12.5312V8.875ZM5.125 2.96875C4.34375 2.96875 3.65625 2.28125 3.65625 1.5C3.65625 0.6875 4.34375 0 5.125 0C5.9375 0 6.59375 0.6875 6.59375 1.5V2.96875H5.125ZM5.125 3.6875C5.9375 3.6875 6.59375 4.34375 6.59375 5.15625C6.59375 5.96875 5.9375 6.625 5.125 6.625H1.46875C0.65625 6.625 0 5.96875 0 5.15625C0 4.34375 0.65625 3.6875 1.46875 3.6875H5.125ZM11.0312 5.15625C11.0312 4.34375 11.7188 3.6875 12.5 3.6875C13.3125 3.6875 14 4.34375 14 5.15625C14 5.96875 13.3125 6.625 12.5 6.625H11.0312V5.15625ZM10.3125 5.15625C10.3125 5.96875 9.65625 6.625 8.84375 6.625C8.03125 6.625 7.375 5.96875 7.375 5.15625V1.5C7.375 0.6875 8.03125 0 8.84375 0C9.65625 0 10.3125 0.6875 10.3125 1.5V5.15625ZM8.84375 11.0625C9.65625 11.0625 10.3125 11.75 10.3125 12.5312C10.3125 13.3438 9.65625 14 8.84375 14C8.03125 14 7.375 13.3438 7.375 12.5312V11.0625H8.84375ZM8.84375 10.3438C8.03125 10.3438 7.375 9.65625 7.375 8.875C7.375 8.0625 8.03125 7.40625 8.84375 7.40625H12.5C13.3125 7.40625 14 8.0625 14 8.875C14 9.65625 13.3125 10.3438 12.5 10.3438H8.84375Z" fill="#3366FF"/>
</svg>
